<svg width="99" height="103" fill="none" xmlns="http://www.w3.org/2000/svg"><path d="M41.874 102.069c-.585 0-1.18-.014-1.784-.041-12.897-.567-25.63-3.34-36.874-17.189C-1 78-.37 64.83 3 55.108c4.7 1.882 10.172 7.52 13.033 7.52h.142c5.884-.144 1.542 1.541-1.714 0-3.257-1.54-8.556-4.993-11-5.958-.5 0 0-1-.461-1.562 2.691-5.62 7.002-10.747 13.22-14.267 5.18-2.934 12.736-10.563 15.74-13.671-.5 1.363 7.195 7.815 7.06 9.331-.822 9.264-.773 11.677 8.48 12.5.506.045-3.498 6-3 6 8.616 0-6.317-9.258-5.54-18.015.823-9.264 17.753-5.493 8.5-6.316-.505-.045-4.5 2-5 2-4.204 0-7.517-8.125-10.5-5.5 2.703-6.192 3.551-15.834.406-26.46L98.322.67v101.359l-.25.001H96.83l-.34.001h-.357l-.375.001h-1.284l-.514.001h-.6l-.779.001-50.707.036zM44.5 55c-1 .5-3.237-6.976-3.5-7-4.81-.428-5.876-6.199-5.449-11.015.047-.53.14-1.046.276-1.543.436-1.595-5.026-7.19-3.866-8.273 3.039-3.669 8.155 2.795 9.238 2.389a8.667 8.667 0 012.16-.507l.023-.002.004-.001.02-.002h.005l.017-.002.01-.001.015-.001.01-.001.014-.001c.004 0 .008 0 .012-.002h.012l.014-.002h.011l.016-.002.009-.001.017-.001h.007l.02-.002h.006a8.656 8.656 0 011.434.01c4.809.428 8.362 4.68 7.934 9.495a8.843 8.843 0 01-.26 1.486c-.338 1.27 5.567 8.182 4.752 9.148C55.845 51.084 47 55.5 44.5 55z" fill="url(#paint0_linear)"/><defs><linearGradient id="paint0_linear" x1="38.426" y1="13.113" x2="77.445" y2="136.354" gradientUnits="userSpaceOnUse"><stop stop-color="#84B7DC"/><stop offset=".009" stop-color="#84B7DC"/><stop offset=".947" stop-color="#4A95CB"/><stop offset="1" stop-color="#4A95CB"/></linearGradient></defs></svg>