<svg width="99" height="102" fill="none" xmlns="http://www.w3.org/2000/svg"><path d="M42.052 101.976c-.585 0-1.18-.014-1.784-.042-12.897-.57-25.63-3.36-36.874-17.29-4.216-6.88-3.587-20.128-.216-29.908 4.7 1.893 10.173 7.565 13.033 7.565l.142-.001c5.884-.144 1.542 1.551-1.714.001-3.256-1.55-8.556-5.023-11-5.994-.5 0 0-1.006-.461-1.57 2.691-5.655 7.002-10.812 13.22-14.352 5.181-2.95 12.737-10.624 15.74-13.752-.5 1.371 7.195 7.862 7.06 9.386-.822 9.32-.773 11.746 8.48 12.574.506.045-3.498 6.035-3 6.035 8.616.001-6.316-9.312-5.54-18.12.823-9.32 17.753-5.526 8.5-6.355-.505-.045-4.5 2.012-5 2.012-4.204 0-7.517-8.173-10.5-5.532 2.703-6.229 3.551-15.928.406-26.617L98.5-.024v101.958l-.249.001h-1.243l-.34.001h-.357l-.375.001h-1.284l-.514.001h-.6l-.779.001-50.707.037zm2.626-47.347c-1 .503-3.236-7.018-3.5-7.042-4.81-.43-5.876-6.235-5.448-11.08.047-.533.14-1.052.275-1.552.436-1.605-5.026-7.232-3.866-8.322 3.039-3.69 8.155 2.812 9.238 2.403a8.623 8.623 0 012.16-.51l.023-.002.004-.001.02-.002h.005l.017-.002h.01c.005-.002.01-.002.015-.002l.01-.001.014-.001.012-.001c.004 0 .009 0 .012-.002h.014l.011-.002h.016l.01-.002.016-.001h.007l.02-.002h.006a8.599 8.599 0 011.434.01c4.81.43 8.362 4.707 7.934 9.551a8.94 8.94 0 01-.26 1.495c-.338 1.278 5.567 8.23 4.752 9.202-1.616 1.927-10.461 6.369-12.961 5.866z" fill="url(#paint0_linear)"/><defs><linearGradient id="paint0_linear" x1="38.426" y1="13.18" x2="77.865" y2="137.016" gradientUnits="userSpaceOnUse"><stop stop-color="#84B7DC"/><stop offset=".009" stop-color="#84B7DC"/><stop offset=".947" stop-color="#4A95CB"/><stop offset="1" stop-color="#4A95CB"/></linearGradient></defs></svg>