<svg width="30" height="31" fill="none" xmlns="http://www.w3.org/2000/svg"><path fill-rule="evenodd" clip-rule="evenodd" d="M5.046 10.154l8.67-8.7c.354-.348.733-.532 1.312-.525.457.017.896.204 1.223.525L29.78 15.029c.374.431.196.627.028.82-.215.247-.618.255-.875.03a1227.45 1227.45 0 01-3.767-3.8c.005 5.046.033 10.091-.002 15.137-.032 1.706-1.5 3.229-3.25 3.262-4.62.03-9.239.03-13.857 0-1.699-.032-3.22-1.506-3.253-3.264V12.098l-3.769 3.781c-.474.415-1.441-.165-.846-.85l4.823-4.84a.495.495 0 01.035-.035zm18.92.712c-2.84-2.873-5.683-5.744-8.57-8.57a.62.62 0 00-.839.013l-8.556 8.587c-.004 5.443-.102 10.887 0 16.33.033 1.066.965 2.016 2.044 2.05 1.26.023 2.522.036 3.783.041-.002-2.18-.013-4.36 0-6.542.032-1.667 1.428-3.125 3.185-3.114 1.619.03 3.072 1.416 3.103 3.114l-.002 6.528 3.783-.027c1.088-.02 2.061-.955 2.069-2.105V10.866zm-9.02 9.997c-1.01.019-1.913.89-1.92 1.955v6.458h3.893c0-2.17.038-4.34-.001-6.51-.033-1.019-.957-1.91-1.971-1.903z" fill="#000"/></svg>