<svg width="21" height="18" fill="none" xmlns="http://www.w3.org/2000/svg"><path fill-rule="evenodd" clip-rule="evenodd" d="M6.983 5.978c.31.036.478.416.262.668-2.01 2.096-4.032 4.18-6.029 6.288-.555.6-.539 1.623.047 2.206.577.559 1.157 1.114 1.74 1.666.598.552 1.609.555 2.208-.047a736.858 736.858 0 006.042-6.302c.558-.604.547-1.63-.063-2.221 0 0-.129-.158-.119-.31.021-.324.45-.5.77-.154.796.862.832 2.313-.01 3.224a738.88 738.88 0 01-6.056 6.317c-.862.866-2.37.94-3.311.07C1.382 16.36.062 15.42.002 14.123a2.411 2.411 0 01.637-1.728L6.674 6.1s.173-.122.31-.121zM16.792 0c1.291.029 2.276 1.29 3.336 2.319.87.864.936 2.393.051 3.329l-6.016 6.275c-.26.243-.373.145-.509.052-.189-.13-.214-.421-.062-.599 2.01-2.096 4.034-4.178 6.029-6.288.553-.598.542-1.621-.047-2.206C18.676 2.01 17.84.807 16.779.79a1.605 1.605 0 00-1.152.472 736.36 736.36 0 00-6.043 6.303c-.557.604-.553 1.624.063 2.22 0 0 .243.439-.075.625-.78.457-1.834-2.01-.565-3.385A739.065 739.065 0 0115.063.71 2.432 2.432 0 0116.792 0z" fill="#D41367"/></svg>