<svg width="22" height="30" fill="none" xmlns="http://www.w3.org/2000/svg"><path fill-rule="evenodd" clip-rule="evenodd" d="M18.851 14.9c.038-2.567.308-5.174-.406-7.606-.72-2.454-2.593-4.618-5.215-5.256-3.015-.733-6.483.031-8.3 2.402-1.138 1.482-1.752 3.383-1.79 5.223 0 0-.168.566-.593.51-.535-.072-.453-.974-.34-1.706.491-3.191 2.429-6.247 5.59-7.278.965-.314 1.98-.446 2.998-.46h.202c2.532.026 5.07.891 6.733 2.919 1.368 1.668 2.099 3.848 2.163 5.966v5.287h1.571l.063.004c.364.067.443.236.46.52 0 2.642.027 5.283 0 7.924-.045 2.968-2.597 5.673-5.723 5.702-3.526.01-7.052.032-10.578 0C2.747 29.004.03 26.474 0 23.312v-7.887s.103-.5.524-.525H18.85zm2.09 1.05H1.048c0 2.462-.022 4.924 0 7.386.037 2.415 2.135 4.641 4.683 4.665 3.52.01 7.039.033 10.558 0 2.407-.038 4.628-2.13 4.653-4.695v-7.355zm-9.906 2.877c2.07.04 3.764 2.488 2.79 4.514-.85 1.769-3.529 2.318-4.998.914-1.726-1.65-.745-5.373 2.127-5.428h.08zm-.068 1.05c-1.604.03-2.76 2.335-1.417 3.618 1.321 1.263 4.351-.172 3.354-2.382a2.14 2.14 0 00-1.937-1.236z" fill="#000"/></svg>