<svg width="19" height="12" fill="none" xmlns="http://www.w3.org/2000/svg"><path d="M5.027 9.132L8.073.336h1.539L5.656 11H4.411L.464.336h1.53l3.033 8.796zm9.162-2.885c-1.206-.347-2.085-.772-2.637-1.275a2.458 2.458 0 01-.82-1.875c0-.84.335-1.533 1.004-2.08.673-.552 1.547-.828 2.622-.828.732 0 1.384.142 1.955.425.576.283 1.02.674 1.333 1.172a2.98 2.98 0 01.476 1.633H16.71c0-.644-.205-1.15-.616-1.516-.41-.37-.988-.556-1.735-.556-.694 0-1.236.154-1.626.461-.386.303-.579.725-.579 1.267 0 .435.183.803.55 1.106.37.298.998.571 1.882.82.888.25 1.582.525 2.08.828.503.298.874.647 1.113 1.048.244.4.366.871.366 1.413 0 .864-.337 1.558-1.01 2.08-.674.518-1.575.777-2.703.777-.733 0-1.416-.14-2.05-.418-.636-.283-1.126-.669-1.473-1.157a2.83 2.83 0 01-.513-1.663h1.414c0 .645.237 1.155.71 1.531.479.371 1.116.557 1.912.557.742 0 1.31-.152 1.706-.454.396-.303.594-.716.594-1.238 0-.523-.184-.926-.55-1.209-.366-.288-1.03-.571-1.992-.85z" fill="#D41367"/></svg>