<svg width="25" height="25" fill="none" xmlns="http://www.w3.org/2000/svg"><path fill-rule="evenodd" clip-rule="evenodd" d="M20.056.024c2.57.049 4.879 2.238 4.93 4.928.031 5.014 0 10.029 0 15.043-.015 2.602-2.231 4.94-4.93 4.99-5.016.033-10.033.001-15.049.001-2.6-.017-4.941-2.23-4.992-4.928-.033-5.014 0-10.029 0-15.043.016-2.599 2.23-4.94 4.93-4.99 5.037-.033 10.074-.033 15.111 0zM5.01 1.023c-2.079.013-3.955 1.78-3.997 3.942-.032 5.009 0 10.018 0 15.027.013 2.081 1.787 3.955 3.944 3.995 5.01.033 10.022 0 15.034 0 2.076-.013 3.955-1.786 3.996-3.942.031-5.009 0-10.018 0-15.027-.012-2.079-1.78-3.954-3.943-3.995-5.011-.032-10.023 0-15.034 0zm15.524 5.452c.37.05.58.486.346.81l-9.483 11.733a.526.526 0 01-.686.087l-5.743-4.243c-.4-.33-.043-1.222.593-.803l5.36 3.96 9.182-11.36s.223-.19.43-.184z" fill="#000"/></svg>