<svg width="17" height="11" fill="none" xmlns="http://www.w3.org/2000/svg"><path fill-rule="evenodd" clip-rule="evenodd" d="M14.63 6.82c.565.556 1.16 1.079 1.666 1.69.223.273.435.553.596.869.23.448.022.942-.376.969l-2.477-.001c-.639.053-1.148-.206-1.577-.647-.342-.353-.66-.728-.99-1.093a2.35 2.35 0 00-.445-.4c-.338-.221-.632-.154-.825.202-.197.363-.242.764-.26 1.167-.027.589-.204.744-.79.77-1.251.06-2.44-.13-3.543-.769-.973-.562-1.728-1.355-2.385-2.254C1.945 5.573.966 3.651.086 1.675-.112 1.229.033.99.519.982A66.57 66.57 0 012.944.98c.328.005.546.195.672.508A15.225 15.225 0 005.26 4.564c.179.255.36.51.62.689.288.199.506.133.641-.19.086-.205.124-.426.143-.645.064-.755.073-1.508-.04-2.26-.069-.47-.33-.774-.794-.863-.237-.045-.202-.134-.087-.27.199-.236.386-.382.76-.382H9.3c.44.088.539.288.599.735l.002 3.14c-.004.173.086.687.395.802.248.082.41-.118.56-.277.67-.718 1.148-1.567 1.575-2.446.19-.386.353-.787.51-1.188.118-.298.301-.444.633-.438l2.694.003c.08 0 .161 0 .238.014.454.078.579.275.438.723-.22.702-.65 1.287-1.07 1.875-.45.628-.93 1.234-1.376 1.866-.409.576-.377.867.132 1.368z" fill="#979797"/></svg>