<svg width="27" height="14" fill="none" xmlns="http://www.w3.org/2000/svg"><path fill-rule="evenodd" clip-rule="evenodd" d="M13.178 0c5.002.04 10.243 2.004 12.768 6.3.12.203.272.51.272.51.151.406-.253.858-.56 1.318C23.006 12.122 17.939 14 13.04 14 8.06 14 2.768 12.056.308 7.702c-.126-.223-.283-.56-.283-.56-.106-.307.148-.646.346-.978C2.794 2.09 7.863.04 12.943 0h.236zm-.231.824c-4.437.034-8.975 1.605-11.5 5.19a7.94 7.94 0 00-.589.964s.632 1.16 1.389 2.001c2.744 3.054 7.106 4.28 11.244 4.193 4.684-.098 9.614-1.946 11.866-6.135 0 0 .01-.093-.034-.173-2.225-3.982-7.255-6.002-12.15-6.04h-.226zm.21 3.088c2.033.038 3.689 2.44 2.735 4.427-.834 1.734-3.458 2.273-4.897.896-1.69-1.617-.73-5.27 2.083-5.323h.08zm-.068.824c-1.488.028-2.704 1.792-2.005 3.245.611 1.274 2.535 1.668 3.59.658.71-.679.902-1.844.429-2.718a2.23 2.23 0 00-2.014-1.185z" fill="#D41367"/></svg>