<svg width="140" height="140" fill="none" xmlns="http://www.w3.org/2000/svg"><mask id="a" maskUnits="userSpaceOnUse" x="0" y="0" width="140" height="140"><path d="M139.553 69.776c0 38.537-31.24 69.778-69.776 69.778C31.24 139.554 0 108.313 0 69.776 0 31.24 31.24 0 69.776 0c38.537 0 69.777 31.24 69.777 69.776z" fill="#724230"/></mask><g mask="url(#a)"><path d="M57.45 111.154h26.722V93.151H57.45v18.003z" fill="#F9B095"/><path d="M76.94 108.773l-.23-.001c-4.335-.034-8.754-1.004-12.78-2.599-2.207-.877-4.605-2.058-6.48-3.71v-9.312h26.722v14.899c-2.376.42-4.822.723-7.231.723" fill="#E4A187"/><path d="M100.3 59.808c.092-.654 1.24-1.72 1.741-2.08 1.118-.8 2.247.023 2.572 1.066.292.933.32 1.984.39 2.952.17 2.362-.198 4.68-1.296 6.81-.732 1.422-1.88 2.588-3.242 3.471 0 0-1.464.706-1.754-.918l1.589-11.301" fill="#F9B095"/><path d="M100.067 61.227c.065-.468.886-1.232 1.245-1.488.8-.573 1.608.016 1.841.762.208.668.228 1.42.279 2.113.123 1.69-.141 3.347-.928 4.873-.523 1.017-1.345 1.852-2.319 2.484 0 0-1.048.505-1.256-.656l1.138-8.088" fill="#DD9C83"/><path d="M40.64 59.808c-.09-.654-1.238-1.72-1.74-2.08-1.118-.8-2.246.023-2.573 1.066-.291.933-.319 1.984-.388 2.952-.172 2.362.198 4.68 1.295 6.81.733 1.422 1.88 2.588 3.24 3.471 0 0 1.466.706 1.757-.918l-1.59-11.301" fill="#F9B095"/><path d="M40.874 61.227c-.066-.468-.886-1.232-1.245-1.488-.8-.573-1.608.016-1.841.762-.209.668-.228 1.42-.28 2.113-.122 1.69.144 3.347.93 4.873.523 1.017 1.344 1.852 2.317 2.484 0 0 1.049.505 1.258-.656l-1.139-8.088" fill="#DD9C83"/><path d="M101.195 61.934c0 7.45-1.327 14.987-4.954 21.435-3.17 5.639-7.926 10.153-13.031 13.76-4.141 2.925-8.584 6.334-13.825 5.917-5.464-.433-9.72-4.947-13.713-8.468-5.616-4.955-10.047-11.106-12.777-18.345-1.683-4.46-2.455-9.496-2.455-14.299 0-24.088 13.6-39.241 30.377-39.241s30.378 15.153 30.378 39.241zm16.278 57.362l-33.301-8.71H57.45l-33.302 8.71S8.714 125.011 7 143.111h127.621c-1.714-18.1-17.148-23.815-17.148-23.815" fill="#F9B095"/><path d="M117.473 119.296l-33.301-8.71H57.45l-33.302 8.71S8.714 125.011 7 143.111h127.621c-1.714-18.1-17.148-23.815-17.148-23.815" fill="#fff"/><path d="M117.473 119.296l-24.645-6.446-22.018 30.261-21.78-30.322-24.882 6.507S8.714 125.011 7 143.111h127.621c-1.714-18.1-17.148-23.815-17.148-23.815" fill="#062138"/><path d="M67.888 127.95l-6.135 15.161h17.433l-5.98-15.161h-5.318z" fill="#F9A72B"/><path d="M70.41 110.884l-7.813 10.479 5.43 6.629 2.659-.042 2.657-.044 5.212-6.803-8.146-10.219" fill="#F9A72B"/><path d="M62.597 121.362l7.488-10.044v.002l-7.487 10.042" fill="#D3D2D2"/><path d="M68.027 127.992l-5.43-6.629 7.487-10.043c-.878 2.312-2.455 4.347-3.042 6.789-.604 2.509.596 4.975 3.204 5.548.266.059.523.086.774.086 2.13 0 3.712-1.987 4.608-3.755.268-.534.507-1.088.722-1.65l2.205 2.765-5.212 6.803-5.316.086" fill="#CD8923"/><path d="M40.511 58.97s4.459-27.131 18.367-24.463c0 0 12.575 7.823 23.055-.184 0 0 12.714-.428 19.694 24.647 0 0 1.741-26.75-17.455-36.276 0 0-17.76-8.194-32.958 4 0 0-14.398 11.377-10.703 32.276" fill="#351F17"/><path d="M70.81 143.111l-21.78-30.322-17.413 4.553L53.87 133.01l-5.715 2.522 10.288 7.579H70.81m0 .042l21.78-30.323 17.414 4.554-22.254 15.668 5.717 2.521-10.289 7.58H70.81z" fill="#001930"/><path d="M44.344 111.224l13.06-6.127 13.316 5.562 13.315-5.562 13.955 6.127-19.732 13.213-7.538-10.799-8.123 10.799-18.253-13.213" fill="#E5E4E4"/></g></svg>