<svg width="28" height="28" fill="none" xmlns="http://www.w3.org/2000/svg"><path fill-rule="evenodd" clip-rule="evenodd" d="M18.07 19.075c-3.013 2.631-7.518 3.46-11.308 1.91C2.192 19.118-.72 13.86.155 8.97 1.03 4.074 5.58.115 10.667.002 10.761 0 10.855 0 10.948 0c5 .048 9.715 3.907 10.641 8.901.62 3.348-.45 6.965-2.773 9.452l9.023 8.774c.194.205.16.273.157.386-.01.396-.547.656-.88.358l-9.046-8.796zM10.814 1.038c-4.463.042-8.651 3.417-9.579 7.811-.683 3.235.393 6.788 2.76 9.1 2.717 2.653 7.018 3.543 10.607 2.076 4.15-1.697 6.79-6.494 5.967-10.934-.817-4.402-4.892-7.95-9.5-8.052l-.255-.001z" fill="#000"/></svg>