<svg width="25" height="28" fill="none" xmlns="http://www.w3.org/2000/svg"><path fill-rule="evenodd" clip-rule="evenodd" d="M9.024 25.069c-2.188-.005-4.377-.015-6.566-.029-1.612-.03-2.939-1.863-2.29-3.447.374-.912 1.32-1.549 2.32-1.555h1.507c0-2.533-.008-5.066 0-7.6.03-3.21 2.024-6.307 4.987-7.656l.028-.012c0-.85-.038-1.768.22-2.46A3.537 3.537 0 0112.564.028c1.83.034 3.454 1.613 3.467 3.5v1.24l.173.08c2.882 1.378 4.832 4.428 4.842 7.642v7.547c.858 0 1.755-.12 2.509.209 1.446.631 1.959 2.788.831 3.996a2.55 2.55 0 01-1.803.797c-2.174.014-4.348.024-6.521.029-.03.349-.186.74-.321 1.028-.489 1.045-1.586 1.763-2.77 1.785-.661.005-1.325.033-1.927-.187-1.096-.4-1.902-1.454-2.02-2.626zm5.944.221h-4.895a2.15 2.15 0 002.01 1.592c.53.003 1.056.054 1.545-.118.655-.23 1.17-.8 1.34-1.474zM12.489 1.03c-1.303.023-2.468 1.148-2.476 2.502V5.1c-.028.416-.17.395-.575.574-2.602 1.163-4.412 3.858-4.44 6.77v8.093s-.105.474-.502.5c-1.365 0-2.968-.2-3.413.968-.336.884.375 2.002 1.368 2.033 6.712.127 13.427.127 20.138 0 1.133-.036 1.926-1.62 1.05-2.536a1.53 1.53 0 00-1.09-.465h-2.005c-.271-.017-.477-.136-.501-.5 0-2.698.008-5.395 0-8.093-.027-2.93-1.9-5.751-4.702-6.88 0 0-.29-.12-.313-.464 0-1.144.099-2.365-.588-3.18a2.457 2.457 0 00-1.95-.892z" fill="#000"/></svg>