<svg width="18" height="18" fill="none" xmlns="http://www.w3.org/2000/svg"><path fill-rule="evenodd" clip-rule="evenodd" d="M14.44.018c1.85.035 3.513 1.61 3.55 3.547.022 3.61 0 7.221 0 10.832-.011 1.873-1.606 3.556-3.55 3.593-3.611.023-7.223 0-10.835 0C1.733 17.978.048 16.384.01 14.442c-.023-3.61 0-7.221 0-10.831C.022 1.74 1.617.054 3.56.018a844.56 844.56 0 0110.88 0zM3.608.736C2.11.746.76 2.018.73 3.574c-.024 3.607 0 7.214 0 10.82.009 1.498 1.286 2.848 2.839 2.877 3.608.023 7.216 0 10.824 0 1.495-.01 2.848-1.286 2.878-2.838.022-3.607 0-7.214 0-10.82-.01-1.497-1.282-2.847-2.84-2.877-3.607-.023-7.216 0-10.824 0zm11.177 3.926c.267.037.418.35.25.584l-6.828 8.447a.379.379 0 01-.494.063l-4.135-3.055c-.289-.239-.03-.88.427-.579l3.859 2.851 6.611-8.18s.16-.136.31-.131z" fill="#D41367"/></svg>