<svg width="16" height="16" fill="none" xmlns="http://www.w3.org/2000/svg"><path d="M10.812.214H4.915C2.2.214 0 2.367 0 5.021v5.768c0 2.654 2.2 4.806 4.915 4.806h5.897c2.714 0 4.915-2.152 4.915-4.806V5.02c0-2.654-2.2-4.807-4.915-4.807zm3.44 10.575c0 1.855-1.543 3.364-3.44 3.364H4.915c-1.897 0-3.44-1.509-3.44-3.364V5.02c0-1.856 1.543-3.365 3.44-3.365h5.897c1.898 0 3.44 1.51 3.44 3.365v5.768z" fill="#fff" fill-opacity=".8"/><path d="M7.864 4.06c-2.172 0-3.932 1.721-3.932 3.845 0 2.123 1.76 3.845 3.932 3.845 2.17 0 3.931-1.722 3.931-3.845 0-2.124-1.76-3.846-3.931-3.846zm0 6.248c-1.355 0-2.458-1.079-2.458-2.403C5.406 6.579 6.51 5.5 7.864 5.5s2.457 1.078 2.457 2.404c0 1.324-1.103 2.403-2.457 2.403zm4.226-6.024c.29 0 .524-.23.524-.513a.518.518 0 00-.524-.512.519.519 0 00-.524.512c0 .283.235.513.524.513z" fill="#fff" fill-opacity=".8"/></svg>