<svg width="475" height="475" fill="none" xmlns="http://www.w3.org/2000/svg"><g clip-path="url(#clip0)" fill="#DC1764"><path d="M377.75 187.342h-.667a36.632 36.632 0 00-24.689 9.387c-5.486-15.181-19.426-26.094-35.754-26.094a37.094 37.094 0 00-26.5 11.401c-6.375-12.907-19.164-21.662-33.869-21.662h-.71a34.767 34.767 0 00-21.806 7.265V75.628c0-22.235-17.312-40.323-38.368-40.323-21.034 0-38.255 18.076-38.267 40.296l-.176 182.554-10.331-12.547a52.105 52.105 0 00-36.823-19.34 51.27 51.27 0 00-38.41 13.593l-8.99 7.448a7.99 7.99 0 00-1.99 9.84l87.4 167.997c15.981 30.702 46.386 49.855 79.35 49.855h98.495v-.086c49.941 0 90.431-43.335 90.482-96.545.019-23.807-.07-41.551-.055-55.933.051-38.477.012-52.675-.086-95.065-.05-22.185-17.237-40.03-38.235-40.03zm22.223 135.041c-.015 14.385-.039 32.2-.062 56.007-.043 44.411-33.569 80.626-74.735 80.626h-98.023c-26.983 0-51.957-15.86-65.172-41.251L77.555 255.533l4.167-3.476c.106-.086.207-.187.308-.277a35.473 35.473 0 0126.633-9.567 36.259 36.259 0 0125.578 13.547l24.459 29.761a7.989 7.989 0 0014.163-5.064l.144-204.849c.008-13.413 10.152-24.326 22.387-24.326 12.236 0 22.38 10.925 22.38 24.346V199.14c0 .429-.02.862-.02 1.299 0 .188.02.379.02.562v52.808a7.99 7.99 0 0015.981 0v-54.4c0-12.941 9.886-23.054 21.806-23.054h.71c12.243 0 22.43 10.671 22.43 24.092v48.321a7.99 7.99 0 0015.981 0v-37.912c0-13.425 9.699-24.345 22.008-24.345 12.24 0 21.939 10.916 21.939 24.345v35.766a7.991 7.991 0 0015.981 0v-19.367c0-13.426 10.23-23.932 22.473-23.932h.667c12.212 0 22.165 10.686 22.196 24.068.097 42.36.078 56.542.027 94.992z"/><path d="M131.736 79.077a7.99 7.99 0 007.99-7.99c.129-30.491 24.885-55.137 55.372-55.137 30.49 0 55.242 24.646 55.371 55.137a7.99 7.99 0 1015.98 0C266.301 31.782 234.402 0 195.098 0c-39.301 0-71.204 31.782-71.352 71.087a7.99 7.99 0 007.99 7.99z"/></g><defs><clipPath id="clip0"><path fill="#fff" d="M0 0h475v475H0z"/></clipPath></defs></svg>