<svg width="140" height="140" fill="none" xmlns="http://www.w3.org/2000/svg"><mask id="a" maskUnits="userSpaceOnUse" x="0" y="0" width="140" height="140"><path d="M139.553 69.776c0 38.537-31.24 69.778-69.776 69.778C31.24 139.554 0 108.313 0 69.776 0 31.24 31.24 0 69.777 0c38.536 0 69.776 31.24 69.776 69.776z" fill="#F46F3F"/></mask><g mask="url(#a)"><path d="M38.89 63.552c-.39.573-1.587 49.097 6.94 59.032h48.262s13.181-37.253 4.203-59.032H38.604h.287" fill="#150A05"/><path d="M58.235 108.229h26.72V90.224h-26.72v18.005z" fill="#F9B095"/><path d="M77.712 105.849l-.217-.002c-4.335-.036-8.754-1.004-12.78-2.6-2.207-.876-4.604-2.058-6.48-3.71v-9.312h26.72v14.898c-2.38.422-4.828.726-7.243.726" fill="#E4A187"/><path d="M100.52 56.348c.091-.663 1.216-1.741 1.707-2.105 1.098-.811 2.205.022 2.524 1.078.286.946.313 2.01.382 2.99.17 2.39-.194 4.737-1.272 6.893-.718 1.439-1.844 2.621-3.178 3.513 0 0-1.438.715-1.723-.928l1.56-11.441" fill="#F9B095"/><path d="M100.292 57.784c.064-.474.869-1.245 1.22-1.506.787-.58 1.577.016 1.808.772.205.675.224 1.437.273 2.138.119 1.71-.141 3.39-.91 4.933-.515 1.03-1.322 1.877-2.275 2.515 0 0-1.028.51-1.233-.665l1.117-8.187" fill="#DD9C83"/><path d="M41.992 56.348c-.09-.663-1.216-1.741-1.708-2.105-1.096-.811-2.201.022-2.523 1.078-.288.946-.314 2.01-.382 2.99-.167 2.39.194 4.737 1.27 6.893.719 1.439 1.846 2.621 3.18 3.513 0 0 1.438.715 1.723-.928l-1.56-11.441z" fill="#F9B095"/><path d="M42.22 57.784c-.064-.474-.868-1.245-1.221-1.506-.786-.58-1.578.016-1.806.772-.205.675-.222 1.437-.276 2.138-.117 1.71.142 3.39.912 4.933.515 1.03 1.32 1.877 2.276 2.515 0 0 1.028.51 1.234-.665l-1.119-8.187" fill="#DD9C83"/><path d="M101.397 58.5c0 7.544-1.301 15.172-4.86 21.7-3.109 5.708-7.774 10.279-12.784 13.93-4.062 2.962-8.421 6.411-13.561 5.991-5.363-.441-9.539-5.009-13.455-8.574-5.509-5.015-9.856-11.243-12.533-18.571-1.65-4.516-2.41-9.613-2.41-14.476 0-24.385 13.342-39.724 29.8-39.724 16.46 0 29.803 15.339 29.803 39.724m10.855 57.87l-29.015-8.708H59.956L30.94 116.37S17.493 122.087 16 140.186h111.192c-1.493-18.099-14.94-23.816-14.94-23.816" fill="#F9B095"/><path d="M112.252 116.37l-16.045-4.815-24.612 24.592-24.682-24.571-15.973 4.794S17.493 122.087 16 140.186h111.192c-1.493-18.099-14.94-23.816-14.94-23.816" fill="#ED3947"/><path d="M51.37 28.461s14.353 22.762 49.934 26.634c0 0 6.733-25.93-18.292-38.538 0 0-19.152-7.904-31.641 11.904" fill="#351F17"/><path d="M55.05 33.065s-9.267 5.996-13.291 22.73c0 0-4.312-31.532 17.993-35.471l-4.703 12.741zm36.367 19.407s9.552 60.751-5.54 77.944c0 0 19.295-2.865 20.25-29.42 0 0 3.438-54.255-9.619-72.979l-5.09 24.455" fill="#351F17"/><path d="M50.588 130.416s-22.213-2.633-16.1-70.95c0 0 1.528-37.942 23.747-38.815l-1.286 14.396S44.18 38.849 45.83 68.872c0 0-1.3 48.363 4.759 61.544" fill="#351F17"/></g></svg>