<svg width="26" height="23" fill="none" xmlns="http://www.w3.org/2000/svg"><path fill-rule="evenodd" clip-rule="evenodd" d="M12.445 12.728c5.587.03 10.85 3.679 12.651 9.43.062.196.15.399.089.582-.142.426-.735.325-.92-.281-1.248-4.018-4.463-7.462-8.667-8.485-3.726-.907-7.898-.167-10.762 2.29A12.825 12.825 0 00.889 22.44s-.317.61-.72.284c-.412-.332.025-1.087.313-1.788 1.886-4.598 6.28-8.115 11.672-8.207.097 0 .194-.002.291-.001zM12.422 0c2.626.025 5.105 2.025 5.608 4.626.49 2.541-1 5.324-3.408 6.336-2.668 1.12-6.112-.137-7.402-2.752-1.333-2.7-.073-6.374 2.737-7.677A5.826 5.826 0 0112.422 0zm-.069.878c-2.202.02-4.269 1.674-4.727 3.825-.462 2.17.798 4.582 2.867 5.45 2.691 1.131 6.258-.718 6.704-3.742C17.59 3.744 15.43.962 12.511.879a6.235 6.235 0 00-.157-.001z" fill="#000"/></svg>