<svg width="30" height="25" fill="none" xmlns="http://www.w3.org/2000/svg"><path fill-rule="evenodd" clip-rule="evenodd" d="M12.191 19.129c1.947.038 3.549 2.328 2.626 4.247-.774 1.61-3.148 2.185-4.571.979-1.76-1.493-.943-5.171 1.869-5.226h.076zm11.69 0c1.947.038 3.549 2.328 2.626 4.247-.774 1.61-3.148 2.185-4.571.979-1.76-1.493-.942-5.171 1.87-5.226h.075zM12.13 20.206c-1.428.028-2.483 2.066-1.29 3.234 1.173 1.148 3.995-.115 3.01-2.165a1.923 1.923 0 00-1.72-1.069zm11.69 0c-1.426.028-2.483 2.066-1.29 3.234 1.174 1.148 3.996-.115 3.01-2.165a1.923 1.923 0 00-1.72-1.069zm4.857-1.885H8.418c-.807-.016-1.312-1.157-.635-1.749l2.03-1.705c-.905-4.072-1.744-8.159-2.715-12.215-.225-.895-1.08-1.566-2-1.57H.466C-.105 1.04-.204.051.467.003c1.555 0 3.11-.009 4.666 0C6.527.027 7.818 1.045 8.15 2.428l.42 1.89a.475.475 0 01.043-.004c6.279 0 12.558-.04 18.837 0 .916.017 1.734.818 1.763 1.744.04 2.09 0 4.18 0 6.27-.01.892-.726 1.69-1.628 1.78l-16.961 1.483-1.966 1.652h20.018c.002 0 .309.024.452.247.206.321-.041.8-.452.83zM8.808 5.39l2.023 9.1c5.558-.482 11.123-.905 16.675-1.458a.736.736 0 00.632-.691c.026-2.088.065-4.178 0-6.266a.736.736 0 00-.702-.685H8.808z" fill="#000"/></svg>