<svg width="19" height="17" fill="none" xmlns="http://www.w3.org/2000/svg"><path fill-rule="evenodd" clip-rule="evenodd" d="M13.759 0c3.443.027 6.152 4.346 4.952 7.826-1.003 2.912-3.538 5.128-6.08 7.092a34.462 34.462 0 01-2.892 2.028s-.115.167-.512-.088c-3.06-1.983-6.023-4.273-7.983-7.303C.09 7.773-.42 5.463.549 3.317 1.45 1.319 3.609-.171 5.805.024c1.37.122 2.659.794 3.726 1.696 0 0 .56-.449 1.095-.774.945-.575 2.03-.948 3.133-.946zm-.057.613c-1.485.016-2.925.758-3.929 1.748 0 0-.266.155-.556-.102C7.745.966 5.7.17 3.794.977c-2.34.99-3.882 3.79-2.878 6.59.893 2.49 2.994 4.425 5.116 6.18a37.59 37.59 0 003.521 2.592c3.021-1.918 5.923-4.156 7.767-7.071.771-1.218 1.25-2.62 1.007-4.108-.38-2.332-2.218-4.53-4.571-4.547h-.054z" fill="#D41367"/></svg>