<svg width="29" height="24" fill="none" xmlns="http://www.w3.org/2000/svg"><path fill-rule="evenodd" clip-rule="evenodd" d="M12.275 23.13c-.607 0-1.493-.322-2.45-.799C8.506 21.691 0 16.55 0 8.111 0 2.806 4.12-.001 8.155.002c3.07 0 5.263 2.165 5.263 4.657 0 3.682-2.764 4.72-4.02 5.19a5.487 5.487 0 00-.458.186c-.7.326-1.314 1.288-1.314 2.328 0 3.939 3.427 8.118 4.649 8.922.434.32.878.8.878 1.204 0 .405-.35.64-.878.64zm15.36 0c-.615 0-1.493-.322-2.457-.799-1.314-.64-9.826-5.782-9.826-14.22 0-5.306 4.127-8.112 8.155-8.111 3.07 0 5.27 2.165 5.27 4.657 0 3.677-2.758 4.716-4.014 5.19-.196.074-.355.134-.462.188-.7.326-1.314 1.288-1.314 2.328 0 3.939 3.42 8.118 4.648 8.922.437.32.871.8.871 1.204 0 .405-.343.64-.871.64z" fill="#fff"/></svg>