<svg width="21" height="21" fill="none" xmlns="http://www.w3.org/2000/svg"><path fill-rule="evenodd" clip-rule="evenodd" d="M18.342 11.356c.216.094.232.132.247.35 0 1.742.006 3.485 0 5.227-.02 2.089-1.824 4.038-4.062 4.059-3.486.01-6.972.01-10.457 0-2.102-.02-4.04-1.819-4.062-4.058-.01-3.483-.01-6.966 0-10.449.02-2.107 1.82-4.05 4.087-4.057h8.213c.274.018.326.112.364.295.045.216-.132.431-.364.447-2.744 0-5.489-.008-8.234 0C2.354 3.186.77 4.66.752 6.49.74 9.97.74 13.45.752 16.93c.016 1.727 1.49 3.302 3.322 3.32 3.483.01 6.966.01 10.448 0 1.73-.017 3.318-1.537 3.324-3.343v-5.201a.385.385 0 01.496-.35zM19.29 0c1.238.025 2.23 1.58 1.409 2.758l-6.563 9.3a.368.368 0 01-.12.109l-2.988 1.691c-.261.13-.597-.09-.546-.403l.732-3.281a.37.37 0 01.059-.133l6.562-9.3c.33-.463.873-.745 1.455-.74zm-.035.742c-.32.006-.627.167-.814.429l-6.518 9.237-.534 2.392 2.188-1.238c2.174-3.08 4.366-6.148 6.52-9.241.397-.586-.003-1.543-.793-1.578h-.05z" fill="#000"/></svg>