<svg width="512" height="512" fill="none" xmlns="http://www.w3.org/2000/svg"><g clip-path="url(#clip0)" fill="#313E47"><path d="M256 206.631c48.049 0 87-38.951 87-87s-38.951-87-87-87-87 38.951-87 87 38.951 87 87 87zm176-.001c30.376 0 55-24.624 55-55s-24.624-55-55-55-55 24.624-55 55 24.624 55 55 55zm-352 0c30.376 0 55-24.624 55-55s-24.624-55-55-55-55 24.624-55 55 24.624 55 55 55zm54.19 49.391c-21.65-17.738-41.257-15.39-66.29-15.39-37.44 0-67.9 30.28-67.9 67.49v109.21c0 16.16 13.19 29.3 29.41 29.3 70.026 0 61.59 1.267 61.59-3.02 0-77.386-9.166-134.137 43.19-187.59z"/><path d="M279.81 241.03c-43.724-3.647-81.729.042-114.51 27.1-54.857 43.94-44.3 103.103-44.3 175.48 0 19.149 15.58 35.02 35.02 35.02 211.082 0 219.483 6.809 232-20.91 4.105-9.374 2.98-6.395 2.98-96.07 0-71.226-61.673-120.62-111.19-120.62zm164.29-.4c-25.17 0-44.669-2.324-66.29 15.39C429.775 309.076 421 361.955 421 443.61c0 4.314-7.003 3.02 60.54 3.02 16.8 0 30.46-13.61 30.46-30.34V308.12c0-37.21-30.46-67.49-67.9-67.49z"/></g><defs><clipPath id="clip0"><path fill="#fff" d="M0 0h512v512H0z"/></clipPath></defs></svg>