<svg width="18" height="18" fill="none" xmlns="http://www.w3.org/2000/svg"><path fill-rule="evenodd" clip-rule="evenodd" d="M9.008 0a.882.882 0 01.75.471c.771 1.56 1.44 3.171 2.268 4.702a.13.13 0 00.09.063c1.72.26 3.452.45 5.174.7.61.099.976.95.474 1.455-1.25 1.213-2.576 2.347-3.777 3.606a.13.13 0 00-.033.105c.283 1.716.64 3.418.933 5.131.096.62-.625 1.209-1.24.9-1.54-.814-3.03-1.721-4.601-2.473a.13.13 0 00-.11.001c-1.546.8-3.06 1.658-4.598 2.471-.556.28-1.346-.218-1.24-.899.292-1.715.7-3.41.933-5.135a.13.13 0 00-.036-.104C2.757 9.773 1.469 8.603.221 7.391c-.445-.447-.183-1.349.473-1.455 1.724-.25 3.465-.386 5.178-.7a.13.13 0 00.089-.066c.778-1.555 1.495-3.14 2.265-4.7A.88.88 0 019.008 0zM8.99.73a.13.13 0 00-.11.066c-.825 1.526-1.507 3.126-2.26 4.689a.885.885 0 01-.63.47c-1.724.26-3.454.468-5.18.7-.095.014-.146.142-.078.215 1.2 1.254 2.511 2.398 3.767 3.596.196.194.29.472.254.744-.283 1.717-.623 3.424-.934 5.136-.018.099.09.182.18.14 1.565-.752 3.06-1.644 4.59-2.466a.836.836 0 01.786-.012c1.548.8 3.07 1.65 4.604 2.475.086.046.2-.03.188-.128-.235-1.72-.62-3.414-.931-5.121a.831.831 0 01.232-.75c1.24-1.224 2.52-2.406 3.78-3.608.069-.067.033-.2-.064-.219-1.71-.308-3.443-.465-5.165-.698a.885.885 0 01-.643-.453C10.596 3.95 9.864 2.37 9.108.803A.129.129 0 008.99.729z" fill="#D41367"/></svg>