<svg width="471" height="300" fill="none" xmlns="http://www.w3.org/2000/svg"><g clip-path="url(#clip0)"><path d="M292.22 281.153l5.409.044-.04 4.909a.821.821 0 00.213.59.728.728 0 00.553.235l4.033.032a.737.737 0 00.545-.226.797.797 0 00.234-.585l.04-4.91 12.194.098a.726.726 0 00.557-.225.817.817 0 00.222-.586l.027-3.273a.823.823 0 00-.213-.589.732.732 0 00-.554-.235l-12.194-.099.024-3.017 8.21.066c3.22.026 5.856-.991 7.909-3.055 2.053-2.062 3.094-4.738 3.12-8.029.027-3.289-.97-5.981-2.99-8.078-2.019-2.095-4.639-3.157-7.858-3.183l-13.015-.105a.732.732 0 00-.558.225.827.827 0 00-.222.587l-.13 16.082-5.408-.044a.715.715 0 00-.558.238.837.837 0 00-.222.574l-.031 3.809a.825.825 0 00.213.59.73.73 0 00.554.234l5.409.044-.025 3.017-5.409-.044a.728.728 0 00-.557.227.819.819 0 00-.222.585l-.027 3.273a.825.825 0 00.213.59.73.73 0 00.554.234zm11.187-24.736l7.727.063c1.706.013 3.078.553 4.116 1.618 1.038 1.065 1.55 2.451 1.536 4.154-.014 1.705-.548 3.082-1.603 4.129-1.055 1.05-2.436 1.567-4.142 1.553l-7.727-.063.093-11.454z" fill="#FFA412"/></g><g clip-path="url(#clip1)"><path d="M140.842 213.693l5.189 1.529-1.387 4.71a.814.814 0 00.042.624.732.732 0 00.468.379l3.868 1.139c.201.06.396.037.586-.067a.795.795 0 00.386-.499l1.388-4.71 11.697 3.447a.73.73 0 00.598-.064.82.82 0 00.375-.503l.925-3.139a.821.821 0 00-.043-.625.73.73 0 00-.467-.378l-11.698-3.447.852-2.894 7.876 2.321c3.088.909 5.902.656 8.444-.764 2.541-1.418 4.277-3.706 5.207-6.863.929-3.154.711-6.017-.655-8.588-1.366-2.57-3.593-4.311-6.681-5.221l-12.485-3.678a.728.728 0 00-.597.064.822.822 0 00-.375.502l-4.545 15.428-5.189-1.529a.712.712 0 00-.601.076.83.83 0 00-.371.49l-1.077 3.654a.824.824 0 00.043.626.728.728 0 00.468.377l5.188 1.529-.852 2.894-5.189-1.529a.73.73 0 00-.598.065.823.823 0 00-.375.502l-.925 3.139a.824.824 0 00.043.626.722.722 0 00.467.377zm17.555-20.708l7.413 2.183c1.636.483 2.807 1.378 3.512 2.688.705 1.309.817 2.782.336 4.416-.482 1.636-1.375 2.813-2.677 3.53-1.303.719-2.772.836-4.409.354l-7.412-2.184 3.237-10.987z" fill="#FFA412"/></g><path d="M39.628 299.181s-39.702-76.345 2.176-142.329c180.953-285.116 446.882-99.555 367.283 22.806-32.82 50.456 70.476 61.389 39.497 119.647l-408.956-.124" fill="#EBF3FA"/><path d="M406.464 140.379l-45.411 15.019 9.115 7.599-39.294 41.133-34.442-29.574-137.488 112.655 1.21.018h34.25l101.69-83.32 36.313 31.178 55.077-57.66 9.838 8.201 9.142-45.249" fill="#C0D8FB"/><path d="M469.647 299.694H.659a.535.535 0 01-.533-.533v-.181c0-.294.24-.533.533-.533h468.988c.294 0 .532.239.532.533v.181a.534.534 0 01-.532.533z" fill="#2E3552"/><path d="M186.284 228.178l-10.681 70.989-94.637-14.242h-.001l-39.875-5.999 10.68-70.985 74.455 11.201 60.059 9.036" fill="#DCEAFF"/><path d="M168.446 283.055l6.253-41.562a5.163 5.163 0 00-4.339-5.875L63.123 219.481a5.259 5.259 0 00-5.983 4.417l-6.229 41.396a5.215 5.215 0 004.381 5.933l107.306 16.146a5.14 5.14 0 005.848-4.318zm8.953-48.096l-8.292 55.111-120.903-18.193 8.292-55.111 120.903 18.193" fill="#C0D8FB"/><path d="M110.57 268.246c-8.188-1.233-13.828-8.868-12.596-17.058 1.233-8.188 8.87-13.828 17.059-12.597 8.188 1.233 13.828 8.871 12.596 17.059-1.233 8.188-8.87 13.829-17.059 12.596" fill="#C0D8FB"/><path d="M194.994 228.51l-56.3 44.535-59.373-75.058v-.002l-25.018-31.626 56.3-44.534 46.71 59.051 37.681 47.634z" fill="#DCEAFF"/><path d="M144.474 256.392l32.963-26.075a5.167 5.167 0 00.848-7.256l-67.279-85.054a5.258 5.258 0 00-7.386-.86l-32.832 25.97a5.214 5.214 0 00-.855 7.325l67.322 85.107a5.14 5.14 0 007.219.843zm39.4-29.002l-43.709 34.574-75.852-95.891 43.709-34.574 75.852 95.891z" fill="#C0D8FB"/><path d="M112.333 206.035c-5.137-6.495-4.037-15.925 2.458-21.062 6.494-5.137 15.924-4.037 21.061 2.457 5.138 6.494 4.038 15.925-2.457 21.062-6.495 5.137-15.925 4.037-21.062-2.457" fill="#C0D8FB"/><path d="M316.703 149.429c.059-.124.131-.236.216-.338v-.001a1.58 1.58 0 01.207-.21l.312-.318.083.061c1.601-.783 4.908.047 8.25 2.23 4.04 2.639 6.636 6.273 5.887 8.202l.113.085-.448.448-.067.067-.011.012-.005.002a1.798 1.798 0 01-.389.27l-.002.002c-1.58.828-4.923.003-8.301-2.203-4.118-2.688-6.733-6.408-5.845-8.309" fill="#FFA412"/><path d="M326.251 150.372c-4.116-2.687-8.175-3.325-9.067-1.424-.889 1.901 1.727 5.621 5.843 8.309 4.118 2.687 8.177 3.326 9.066 1.424.892-1.901-1.724-5.621-5.842-8.309z" fill="#FFB93E"/><path d="M319.25 148.95c-.424.122-.715.351-.868.68-.318.696.025 1.819.938 3.081.953 1.312 2.408 2.645 4.104 3.755 2.108 1.381 4.303 2.196 5.795 2.196.3 0 .574-.032.811-.102.427-.123.718-.351.871-.679.318-.697-.025-1.82-.94-3.082-.951-1.312-2.409-2.646-4.102-3.754-2.11-1.382-4.303-2.197-5.795-2.197-.302 0-.576.033-.814.102zm4.008 7.768c-1.723-1.128-3.209-2.488-4.183-3.83-.995-1.373-1.339-2.575-.969-3.384.191-.412.548-.697 1.061-.845 1.518-.437 4.21.4 6.856 2.133 1.724 1.129 3.209 2.489 4.182 3.83.996 1.373 1.339 2.575.969 3.383-.19.414-.547.699-1.058.846a3.27 3.27 0 01-.906.114c-1.563 0-3.772-.819-5.952-2.247zM341.57 52.837a1.29 1.29 0 01.152-.242 1.26 1.26 0 01.147-.15l.223-.225.06.045c1.134-.558 3.483.033 5.857 1.582 2.869 1.872 4.71 4.454 4.178 5.822l.081.06-.318.32-.047.045-.01.01-.002.002a1.305 1.305 0 01-.278.192h-.002c-1.12.589-3.492.003-5.893-1.563-2.923-1.908-4.779-4.55-4.148-5.898z" fill="#FFA412"/><path d="M348.349 53.505c-2.922-1.907-5.802-2.36-6.437-1.012-.631 1.351 1.226 3.993 4.15 5.9 2.923 1.91 5.804 2.36 6.436 1.011.632-1.349-1.226-3.99-4.149-5.9z" fill="#FFB93E"/><path d="M343.38 52.495c-.301.087-.509.248-.616.483-.227.493.014 1.29.666 2.186.677.934 1.71 1.879 2.911 2.667 1.499.981 3.056 1.56 4.114 1.56.216 0 .41-.024.578-.074.301-.086.51-.249.616-.481.228-.495-.016-1.294-.665-2.189-.678-.93-1.711-1.878-2.912-2.665-1.499-.98-3.055-1.56-4.116-1.56-.214 0-.408.025-.576.073zm2.845 5.514c-1.225-.8-2.279-1.767-2.968-2.72-.709-.973-.953-1.825-.687-2.401.135-.291.386-.495.748-.6 1.08-.31 2.992.285 4.871 1.514 1.224.8 2.278 1.767 2.968 2.72.708.976.952 1.828.687 2.401-.133.294-.387.496-.751.6a2.25 2.25 0 01-.645.083c-1.106 0-2.676-.583-4.223-1.597zm5.838 71.397a1.025 1.025 0 00-.157-.247h.003l-.003-.001a1.098 1.098 0 00-.152-.153l-.227-.232-.06.044c-1.169-.572-3.584.035-6.03 1.63-2.952 1.928-4.847 4.583-4.302 5.994l-.083.061.33.327c.014.017.031.033.047.049l.01.009.002.002c.083.076.178.142.285.198l.002.001c1.156.605 3.597.002 6.064-1.611 3.011-1.964 4.921-4.682 4.271-6.071" fill="#FFA412"/><path d="M345.09 130.095c3.007-1.964 5.973-2.43 6.625-1.041.649 1.389-1.261 4.107-4.269 6.071-3.008 1.965-5.976 2.431-6.625 1.041-.652-1.389 1.261-4.107 4.269-6.071z" fill="#FFB93E"/><path d="M349.611 128.981c-1.09 0-2.693.596-4.236 1.605-1.237.811-2.3 1.785-2.995 2.744-.672.922-.922 1.743-.688 2.251.111.241.326.408.636.497.172.05.373.075.593.075 1.09 0 2.692-.596 4.236-1.606 1.236-.81 2.3-1.784 2.995-2.743.671-.922.92-1.743.686-2.251-.109-.241-.322-.408-.634-.498a2.147 2.147 0 00-.593-.074zm-6.683 7.393c-.243 0-.466-.027-.662-.084-.376-.108-.636-.315-.773-.617-.272-.591-.019-1.469.707-2.472.712-.981 1.794-1.975 3.054-2.799 1.934-1.267 3.901-1.878 5.012-1.559.375.108.635.316.775.618.269.591.019 1.469-.707 2.472-.711.981-1.796 1.974-3.056 2.799-1.594 1.043-3.208 1.642-4.35 1.642M317.982 75.47a.815.815 0 01.094-.15.965.965 0 01.093-.092l.139-.141.035.026c.711-.348 2.182.02 3.666.991 1.8 1.174 2.951 2.788 2.619 3.647l.053.037-.201.199-.031.028-.006.007v.002a.771.771 0 01-.174.119h-.002c-.701.37-2.187.002-3.689-.978-1.83-1.196-2.993-2.85-2.596-3.695" fill="#FFA412"/><path d="M322.226 75.89c-1.829-1.196-3.634-1.478-4.031-.634-.397.846.767 2.5 2.598 3.694 1.829 1.194 3.634 1.478 4.029.634.396-.846-.767-2.499-2.596-3.693z" fill="#FFB93E"/><path d="M319.115 75.256c-.19.055-.319.156-.385.304-.143.308.008.807.415 1.368.423.585 1.072 1.177 1.824 1.67.937.614 1.912.977 2.576.977.134 0 .257-.016.361-.047a.568.568 0 00.387-.301c.141-.31-.011-.81-.418-1.37-.422-.584-1.071-1.175-1.824-1.668-.937-.616-1.914-.977-2.576-.977-.134 0-.255.016-.36.044zm1.779 3.454c-.765-.502-1.425-1.106-1.856-1.703-.445-.609-.597-1.144-.432-1.504.086-.183.245-.308.471-.374.676-.196 1.872.176 3.049.948.764.501 1.426 1.104 1.857 1.703.442.609.596 1.143.431 1.502-.084.185-.242.31-.471.376a1.42 1.42 0 01-.402.05c-.693 0-1.677-.364-2.647-.998m-139.74 54.452a1.381 1.381 0 00-.178-.285v-.001a1.315 1.315 0 00-.175-.175l-.263-.268-.07.052c-1.344-.659-4.122.04-6.932 1.874-3.396 2.217-5.576 5.27-4.948 6.892l-.095.072.376.376.056.056.011.011.003.002c.096.088.205.163.328.226l.002.002c1.328.695 4.136.004 6.976-1.852 3.46-2.259 5.658-5.386 4.909-6.982" fill="#FFA412"/><path d="M173.132 133.954c3.459-2.257 6.87-2.794 7.619-1.197.749 1.598-1.451 4.725-4.91 6.984-3.46 2.259-6.871 2.793-7.62 1.197-.747-1.599 1.451-4.725 4.911-6.984z" fill="#FFB93E"/><path d="M178.333 132.674c-1.254 0-3.097.684-4.87 1.847-1.424.93-2.648 2.052-3.447 3.153-.769 1.062-1.057 2.006-.789 2.591.126.275.373.468.729.572.2.058.43.085.684.085 1.255 0 3.096-.684 4.871-1.847 1.422-.931 2.646-2.052 3.447-3.156.769-1.06 1.057-2.003.788-2.588-.127-.277-.372-.468-.73-.572a2.464 2.464 0 00-.683-.085zm-7.686 8.503c-.28 0-.536-.032-.761-.097-.432-.124-.731-.364-.889-.709-.313-.681-.024-1.69.813-2.844.818-1.127 2.065-2.27 3.514-3.219 2.223-1.458 4.486-2.16 5.762-1.792.432.124.731.363.891.709.311.68.023 1.69-.814 2.844-.817 1.127-2.066 2.271-3.513 3.218-1.833 1.201-3.69 1.89-5.003 1.89m-26.161-51.383a.855.855 0 00-.104-.165h-.001a.69.69 0 00-.101-.103l-.153-.154-.041.028c-.783-.383-2.4.024-4.037 1.091-1.977 1.293-3.247 3.07-2.881 4.014l-.056.041.22.22.033.032.006.008h.002a.883.883 0 00.19.133h.001c.774.405 2.408.002 4.063-1.078 2.014-1.316 3.294-3.136 2.859-4.067" fill="#FFA412"/><path d="M139.814 90.257c2.015-1.316 4.001-1.627 4.437-.697.435.93-.845 2.75-2.86 4.065-2.014 1.316-4 1.629-4.436.698-.436-.93.844-2.752 2.859-4.066" fill="#FFB93E"/><path d="M142.843 89.51c-.731 0-1.804.4-2.837 1.076-.828.542-1.541 1.196-2.007 1.837-.448.619-.615 1.168-.459 1.508.074.16.217.273.425.333.116.034.25.05.397.05.731 0 1.804-.4 2.837-1.076.828-.542 1.541-1.195 2.007-1.836.448-.618.615-1.168.459-1.508-.074-.16-.217-.274-.425-.334a1.484 1.484 0 00-.397-.05zm-4.476 4.952c-.163 0-.312-.018-.443-.056-.251-.072-.426-.212-.518-.414-.182-.396-.014-.985.474-1.656.476-.655 1.202-1.321 2.045-1.874 1.296-.847 2.613-1.258 3.356-1.044.252.074.426.213.518.414.182.396.014.985-.473 1.656-.476.657-1.203 1.322-2.046 1.874-1.067.699-2.149 1.1-2.913 1.1m39.218 7.913a.967.967 0 01.133-.211v-.002c.039-.047.083-.092.129-.131l.197-.198.05.038c1.001-.49 3.067.028 5.157 1.395 2.527 1.648 4.149 3.918 3.681 5.126l.07.052-.28.281-.042.04-.007.009-.004.001c-.07.065-.151.121-.243.17h-.001c-.987.518-3.075.003-5.188-1.377-2.574-1.68-4.209-4.005-3.652-5.193" fill="#FFA412"/><path d="M183.552 102.965c-2.573-1.681-5.111-2.079-5.667-.891-.556 1.188 1.078 3.514 3.652 5.193 2.573 1.681 5.111 2.079 5.667.891.556-1.188-1.078-3.514-3.652-5.193z" fill="#FFB93E"/><path d="M179.176 102.076c-.266.075-.448.219-.544.425-.199.435.015 1.137.587 1.926.596.82 1.505 1.654 2.563 2.347 1.32.862 2.691 1.371 3.624 1.371.189 0 .36-.019.507-.063.267-.075.449-.219.544-.424.198-.436-.014-1.138-.587-1.926-.596-.821-1.505-1.655-2.565-2.348-1.317-.864-2.689-1.373-3.621-1.373-.189 0-.36.022-.508.065zm2.504 4.854c-1.077-.705-2.005-1.555-2.614-2.394-.623-.856-.837-1.609-.605-2.115.119-.257.341-.435.663-.527.948-.274 2.631.25 4.286 1.332 1.076.706 2.005 1.557 2.613 2.394.621.859.837 1.611.605 2.117-.119.257-.34.434-.662.527a2.024 2.024 0 01-.566.072c-.975 0-2.358-.513-3.72-1.406z" fill="#FFA412"/><path d="M276.309 294.451v3.114c0 .248-.09.477-.246.669-.164.202-.398.36-.67.449a1.713 1.713 0 01-.261.063 1.752 1.752 0 01-.253.018H215.81c-.762 0-1.388-.506-1.428-1.138l-.002-.061v-3.114l.002-.063c.04-.632.666-1.138 1.428-1.138h59.069c.088 0 .169.007.253.02.09.013.177.032.261.061.272.088.506.247.67.448.156.193.246.423.246.672" fill="#FFB93E"/><path d="M247.302 298.763h-31.646c-.678 0-1.238-.505-1.274-1.137l-.002-.061v-3.114l.002-.063c.036-.632.596-1.138 1.274-1.138h27.76c.445 1.624 1.478 3.868 3.886 5.513m21.821 0h-.671v-5.513h.671v5.513zm-2.273 0h-.672v-5.513h.672v5.513m-2.726.001h-.671v-5.514h.671v5.514m-4.175-.001h-.673v-5.513h.673v5.513zm-4.419 0h-.671v-5.513h.671v5.513zm-6.773 0h-.672v-5.513h.672v5.513z" fill="#FFA412"/><path d="M242.417 298.763h-.671v-5.513h.671v5.513zm-5.661 0h-.671v-5.513h.671v5.513zm34.527.001h-.671v-5.514h.671v5.514zm1.429 0h-.672v-5.514h.672v5.514m1.382-.001h-.671v-5.513h.671v5.513zm1.038-5.493v5.476a1.738 1.738 0 01-.252.018h-.419v-5.514h.419c.087 0 .169.007.252.02zm.933.509v4.455c-.163.202-.397.36-.671.448v-5.351c.274.088.508.247.671.448z" fill="#FFA412"/><path d="M269.992 288.936v3.114c0 .248-.09.479-.244.669-.163.202-.398.36-.672.45a1.502 1.502 0 01-.261.061c-.082.013-.166.02-.252.02h-59.069c-.761 0-1.39-.507-1.427-1.139-.002-.02-.002-.04-.002-.061v-3.114c0-.02 0-.042.002-.062.037-.631.666-1.139 1.427-1.139h59.069c.038 0 .075.002.112.004l.051.005c.014 0 .033.002.052.006l.037.005c.09.012.177.034.261.061l.037.013.036.014.073.029.041.018.035.018c.024.013.047.023.069.036.026.014.049.03.073.047a.37.37 0 01.056.038l.004.001.035.027c.035.029.071.06.103.09l.028.029.029.029c.017.02.036.039.053.061.154.191.244.421.244.67" fill="#FFB93E"/><path d="M240.988 293.25h-31.646c-.68 0-1.24-.507-1.274-1.139-.002-.02-.002-.04-.002-.061v-3.114c0-.02 0-.042.002-.062.034-.631.594-1.139 1.274-1.139H237.1c.013.045.025.09.04.137.462 1.611 1.503 3.778 3.848 5.378m21.818 0h-.671v-5.515h.671v5.515zm-2.274 0h-.672v-5.515h.672v5.515zm-2.725 0h-.671v-5.515h.671v5.515zm-4.176 0h-.671v-5.515h.671v5.515zm-4.417 0h-.672v-5.515h.672v5.515zm-6.772 0h-.671v-5.515h.671v5.515z" fill="#FFA412"/><path d="M236.101 293.25h-.672v-5.515h.672v5.515zm-5.661 0h-.671v-5.515h.671v5.515zm34.529 0h-.671v-5.515h.671v5.515zm1.429 0h-.671v-5.515h.671v5.515zm1.379 0h-.673v-5.515h.673v5.515zm1.038-5.495v5.475c-.083.013-.165.02-.252.02h-.418v-5.515h.418c.087 0 .169.007.252.02zm.933.511v4.453c-.162.202-.397.36-.671.45v-5.353c.274.088.509.248.671.45z" fill="#FFA412"/><path d="M273.046 283.557v3.114c0 .248-.09.479-.245.67-.163.201-.397.36-.67.45a1.748 1.748 0 01-.514.081h-59.07c-.236 0-.462-.051-.659-.137-.419-.184-.716-.537-.763-.949l-.006-.054-.002-.061v-3.114l.002-.061c.04-.632.667-1.14 1.428-1.14h59.07a1.748 1.748 0 01.514.081c.273.089.507.249.67.45.155.191.245.422.245.67" fill="#FFB93E"/><path d="M244.039 287.872h-31.646a1.33 1.33 0 01-.587-.137 1.205 1.205 0 01-.682-.949l-.005-.054-.002-.061v-3.114l.002-.061c.034-.632.596-1.139 1.274-1.139h27.76c.432 1.578 1.42 3.745 3.692 5.378.064.047.129.092.194.137zm21.819 0h-.672v-5.515h.672v5.515zm-2.274 0h-.672v-5.515h.672v5.515zm-2.723 0h-.671v-5.516h.671v5.516zm-4.179 0h-.671v-5.515h.671v5.515zm-4.417 0h-.672v-5.515h.672v5.515zm-6.772 0h-.671v-5.515h.671v5.515z" fill="#FFA412"/><path d="M239.154 287.872h-.672v-5.515h.672v5.515zm-5.661 0h-.672v-5.515h.672v5.515zm34.527 0h-.671v-5.515h.671v5.515zm1.429 0h-.672v-5.515h.672v5.515zm1.382 0h-.672v-5.516h.672v5.516zm1.038-5.496v5.476c-.082.013-.165.02-.251.02h-.42v-5.515h.42c.086 0 .169.007.251.019m.931.512v4.453c-.164.202-.397.36-.672.45v-5.353c.275.088.508.248.672.45z" fill="#FFA412"/><path d="M274.46 278.042v3.114c0 .248-.091.479-.244.671a1.43 1.43 0 01-.672.449 1.713 1.713 0 01-.261.063c-.083.01-.166.018-.251.018H213.96c-.76 0-1.387-.506-1.426-1.138l-.002-.063v-3.114l.002-.061c.036-.585.575-1.062 1.258-1.131.055-.005.112-.007.168-.007h59.072a1.745 1.745 0 01.512.079c.273.09.508.249.672.45.153.193.244.422.244.67" fill="#FFB93E"/><path d="M245.454 282.356h-31.646c-.679 0-1.238-.505-1.274-1.137l-.002-.063v-3.114l.002-.061c.032-.584.514-1.062 1.123-1.131.05-.005.101-.007.151-.007h27.76l.003.007c.445 1.624 1.478 3.863 3.883 5.506m21.818.001h-.671v-5.515h.671v5.515zm-2.271-.001h-.671v-5.515h.671v5.515zm-2.726 0h-.67v-5.515h.67v5.515zm-4.178 0h-.67v-5.515h.67v5.515zm-4.417 0h-.67v-5.515h.67v5.515zm-6.772 0h-.671v-5.515h.671v5.515z" fill="#FFA412"/><path d="M240.568 282.356h-.671v-5.515h.671v5.515zm-5.66 0h-.672v-5.515h.672v5.515zm34.526.001h-.672v-5.516h.672v5.516zm1.429 0h-.671v-5.515h.671v5.515zm1.382-.001h-.671v-5.515h.671v5.515zm1.039-5.495v5.476a1.751 1.751 0 01-.253.019h-.418v-5.515h.418c.087 0 .17.007.253.02m.933.511v4.455c-.165.202-.397.36-.672.448v-5.353c.275.09.507.249.672.45z" fill="#FFA412"/><path d="M270.118 272.536v3.115c0 .247-.09.477-.245.67-.162.201-.395.36-.671.448a1.474 1.474 0 01-.262.063l-.082.011-.046.004-.049.001c-.024.002-.05.002-.074.002h-59.07c-.761 0-1.388-.506-1.427-1.137-.002-.022-.002-.042-.002-.062v-3.115c0-.02 0-.04.002-.062a.42.42 0 01.003-.05c.056-.508.497-.927 1.071-1.051l.043-.007a1.59 1.59 0 01.31-.029h59.07c.043 0 .085.001.126.003l.058.006.067.009c.09.014.18.034.262.063a1.4 1.4 0 01.671.448c.155.192.245.423.245.67z" fill="#FFB93E"/><path d="M241.11 276.85h-31.644c-.68 0-1.24-.505-1.274-1.137-.002-.022-.002-.042-.002-.061v-3.116c0-.02 0-.04.002-.061 0-.017.002-.035.004-.051.05-.518.459-.945.99-1.058l.054-.011c.073-.013.149-.018.226-.018h27.758l.013.038c.448 1.618 1.481 3.836 3.861 5.468l.012.007m21.82 0h-.672v-5.513h.672v5.513zm-2.274.001h-.671v-5.514h.671v5.514zm-2.725-.001h-.671v-5.513h.671v5.513zm-4.176 0h-.671v-5.513h.671v5.513zm-4.417 0h-.671v-5.513h.671v5.513zm-6.772 0h-.671v-5.513h.671v5.513z" fill="#FFA412"/><path d="M236.225 276.85h-.671v-5.513h.671v5.513zm-5.661 0h-.671v-5.513h.671v5.513zm34.531 0h-.672v-5.513h.672v5.513zm1.429 0h-.671v-5.513h.671v5.513zm1.379 0h-.673v-5.513h.673v5.513zm1.038-5.495v5.477a1.608 1.608 0 01-.252.018h-.418v-5.513h.418c.087 0 .169.005.252.018m.93.511v4.455a1.41 1.41 0 01-.671.449v-5.352c.276.088.509.247.671.448" fill="#FFA412"/><path d="M269.992 267.062v3.114c0 .249-.09.477-.244.67a1.444 1.444 0 01-.875.5h-.002l-.056.011a1.608 1.608 0 01-.252.018h-59.069c-.064 0-.125-.002-.185-.009-.024-.004-.046-.006-.071-.011-.641-.097-1.137-.558-1.171-1.118-.002-.019-.002-.041-.002-.061v-3.114c0-.021 0-.041.002-.063.037-.632.666-1.137 1.427-1.137h59.069c.038 0 .075.001.112.003l.051.004a.396.396 0 01.052.007l.037.005c.09.013.177.033.261.061l.037.013.036.013c.026.009.048.02.073.029l.076.037c.024.011.047.024.069.036l.073.045.056.038.004.004.035.027c.035.029.071.057.103.09l.028.027.029.028.053.062c.154.192.244.423.244.671" fill="#FFB93E"/><path d="M240.988 271.375h-31.646c-.025 0-.05 0-.075-.002-.027 0-.054-.004-.081-.007-.609-.07-1.088-.546-1.118-1.129-.002-.02-.002-.041-.002-.061v-3.114c0-.022 0-.041.002-.063.034-.632.594-1.138 1.274-1.138H237.1c.013.045.025.09.04.135.459 1.599 1.486 3.744 3.79 5.341l.058.038zm21.818.001h-.671v-5.515h.671v5.515zm-2.274 0h-.672v-5.515h.672v5.515zm-2.725.001h-.671v-5.516h.671v5.516zm-4.176 0h-.671v-5.516h.671v5.516zm-4.417 0h-.672v-5.516h.672v5.516zm-6.772 0h-.671v-5.516h.671v5.516z" fill="#FFA412"/><path d="M236.101 271.377h-.672v-5.516h.672v5.516zm-5.661 0h-.671v-5.516h.671v5.516zm34.529 0h-.671v-5.516h.671v5.516zm1.429 0h-.671v-5.515h.671v5.515m1.379 0h-.673v-5.515h.673v5.515zm1.038-5.496v5.476a1.608 1.608 0 01-.252.018h-.418v-5.513h.418c.087 0 .169.007.252.019m.933.51v4.455c-.162.201-.397.36-.671.45v-5.354c.274.089.509.247.671.449" fill="#FFA412"/><path d="M273.046 261.684v3.114c0 .246-.09.476-.245.669-.163.202-.397.36-.67.448a1.54 1.54 0 01-.514.081h-59.07c-.236 0-.462-.048-.659-.135-.419-.183-.716-.536-.763-.948l-.006-.054-.002-.061v-3.114l.002-.063c.04-.632.667-1.138 1.428-1.138h59.07c.086 0 .169.007.252.02.09.012.177.032.262.061.273.088.507.247.67.448.155.193.245.423.245.672" fill="#FFB93E"/><path d="M244.039 265.996h-31.646c-.212 0-.412-.048-.587-.135a1.203 1.203 0 01-.682-.948l-.005-.054-.002-.061v-3.114l.002-.063c.034-.632.596-1.138 1.274-1.138h27.76c.432 1.579 1.42 3.746 3.692 5.378l.194.135m21.819.002h-.672v-5.515h.672v5.515zm-2.274.001h-.672v-5.516h.672v5.516m-2.723-.001h-.671v-5.515h.671v5.515zm-4.179 0h-.671v-5.515h.671v5.515zm-4.417 0h-.672v-5.515h.672v5.515zm-6.772 0h-.671v-5.515h.671v5.515z" fill="#FFA412"/><path d="M239.154 265.998h-.672v-5.515h.672v5.515zm-5.661 0h-.672v-5.515h.672v5.515zm34.527 0h-.671v-5.515h.671v5.515zm1.429 0h-.672v-5.515h.672v5.515zm1.382 0h-.672v-5.515h.672v5.515zm1.038-5.496v5.476a1.595 1.595 0 01-.251.018h-.42v-5.513h.42c.086 0 .169.007.251.019zm.931.51v4.455a1.429 1.429 0 01-.672.45v-5.353c.275.088.508.247.672.448z" fill="#FFA412"/><path d="M277.873 256.168v3.114c0 .249-.09.479-.245.67-.163.201-.396.36-.67.45a1.611 1.611 0 01-.262.061 1.62 1.62 0 01-.253.02h-59.068c-.761 0-1.391-.508-1.427-1.14-.002-.019-.002-.039-.002-.061v-3.114c0-.02 0-.041.002-.061.034-.585.574-1.062 1.257-1.13.055-.006.113-.009.17-.009h59.068a1.751 1.751 0 01.515.081c.274.09.507.248.67.45.155.19.245.421.245.669z" fill="#FFB93E"/><path d="M248.867 260.483h-31.646c-.681 0-1.24-.508-1.275-1.14l-.001-.061v-3.114l.001-.061c.031-.585.513-1.062 1.124-1.13.048-.006.099-.009.151-.009h27.759l.002.009c.445 1.623 1.478 3.863 3.885 5.506zm21.817 0h-.671v-5.515h.671v5.515m-2.271 0h-.671v-5.515h.671v5.515m-2.725 0h-.671v-5.515h.671v5.515zm-4.178 0h-.671v-5.515h.671v5.515zm-4.418 0h-.671v-5.515h.671v5.515zm-6.771 0h-.672v-5.515h.672v5.515z" fill="#FFA412"/><path d="M243.981 260.483h-.671v-5.515h.671v5.515zm-5.662 0h-.67v-5.515h.67v5.515zm34.528 0h-.672v-5.515h.672v5.515zm1.431 0h-.671v-5.515h.671v5.515zm1.379 0h-.67v-5.515h.67v5.515zm1.039-5.495v5.475c-.082.013-.168.02-.251.02h-.42v-5.515h.42c.083 0 .169.007.251.02zm.933.511v4.453c-.164.202-.398.36-.671.45v-5.353c.273.09.507.248.671.45z" fill="#FFA412"/><path d="M270.118 250.662v3.114c0 .248-.09.479-.245.67a1.404 1.404 0 01-.671.45 1.472 1.472 0 01-.344.071c-.022.004-.044.004-.067.006l-.032.002c-.024.002-.046.002-.07.002h-59.07c-.761 0-1.388-.508-1.427-1.14-.002-.02-.002-.039-.002-.061v-3.114c0-.02 0-.041.002-.061.039-.632.666-1.14 1.427-1.14h59.07c.024 0 .05.002.074.004a1.564 1.564 0 01.439.077c.043.015.084.031.125.047.024.011.05.022.072.034l.008.004a.732.732 0 01.073.038l.011.005.065.04c.051.032.097.066.142.104l.039.036.008.005.026.024.003.004.041.044a1.058 1.058 0 01.303.735" fill="#FFB93E"/><path d="M241.11 254.977h-31.644c-.68 0-1.24-.508-1.274-1.14-.002-.019-.002-.039-.002-.061v-3.114c0-.02 0-.041.002-.061.034-.632.594-1.139 1.274-1.139h27.758c.013.043.024.084.038.127.461 1.61 1.498 3.777 3.836 5.379l.012.009m21.82 0h-.672v-5.515h.672v5.515zm-2.274 0h-.671v-5.515h.671v5.515zm-2.725 0h-.671v-5.515h.671v5.515zm-4.176 0h-.671v-5.515h.671v5.515zm-4.417 0h-.671v-5.515h.671v5.515zm-6.772 0h-.671v-5.515h.671v5.515z" fill="#FFA412"/><path d="M236.225 254.977h-.671v-5.515h.671v5.515zm-5.661 0h-.671v-5.515h.671v5.515zm34.531-.001h-.672v-5.515h.672v5.515zm1.429 0h-.671v-5.515h.671v5.515zm1.379 0h-.673v-5.515h.673v5.515m1.038-5.495v5.475c-.083.013-.165.02-.252.02h-.418v-5.515h.418c.087 0 .169.007.252.02zm.93.512v4.453a1.39 1.39 0 01-.671.45v-5.353c.276.09.509.248.671.45" fill="#FFA412"/><path d="M274.46 245.275v3.114c0 .248-.091.479-.244.671-.164.202-.399.36-.672.448a1.34 1.34 0 01-.261.061c-.083.013-.166.02-.251.02H213.96a1.62 1.62 0 01-.637-.127c-.43-.18-.74-.54-.786-.962a.387.387 0 00-.003-.048l-.002-.063v-3.114l.002-.061c.036-.585.575-1.062 1.258-1.131.055-.005.112-.007.168-.007h59.072a1.613 1.613 0 01.512.079c.273.09.508.249.672.45.153.193.244.421.244.67" fill="#FFB93E"/><path d="M245.454 249.589h-31.646c-.203 0-.398-.045-.569-.127a1.207 1.207 0 01-.702-.962l-.003-.048-.002-.063v-3.114l.002-.061c.032-.584.514-1.062 1.123-1.131.05-.005.101-.007.151-.007h27.76l.003.007c.432 1.582 1.426 3.75 3.701 5.379.059.043.121.086.182.127m21.818.001h-.671v-5.514h.671v5.514zm-2.271-.001h-.671v-5.513h.671v5.513zm-2.726 0h-.67v-5.513h.67v5.513zm-4.178 0h-.67v-5.513h.67v5.513zm-4.417 0h-.67v-5.513h.67v5.513zm-6.772 0h-.671v-5.513h.671v5.513z" fill="#FFA412"/><path d="M240.568 249.589h-.671v-5.513h.671v5.513zm-5.66 0h-.672v-5.513h.672v5.513zm34.526.001h-.672v-5.514h.672v5.514zm1.429 0h-.671v-5.514h.671v5.514zm1.382-.001h-.671v-5.513h.671v5.513zm1.039-5.495v5.476a1.751 1.751 0 01-.253.019h-.418v-5.515h.418c.087 0 .17.007.253.02zm.933.511v4.455a1.43 1.43 0 01-.672.448v-5.353c.275.09.507.248.672.45" fill="#FFA412"/><path d="M276.309 239.769v3.116c0 .246-.09.477-.246.669-.164.202-.398.36-.67.449a1.601 1.601 0 01-.345.073l-.045.004-.048.002c-.025.002-.049.001-.076.001H215.81c-.762 0-1.388-.505-1.428-1.137l-.002-.061v-3.116l.002-.061c.04-.632.666-1.138 1.428-1.138h59.069a1.62 1.62 0 01.514.081c.272.088.506.247.67.448.156.193.246.423.246.67" fill="#FFB93E"/><path d="M247.302 244.083h-31.646c-.678 0-1.238-.506-1.274-1.137l-.002-.062v-3.115l.002-.062c.036-.631.596-1.137 1.274-1.137h27.76c.443 1.62 1.472 3.861 3.874 5.506l.012.007m21.821 0h-.671v-5.514h.671v5.514m-2.273 0h-.672v-5.514h.672v5.514zm-2.726 0h-.671v-5.513h.671v5.513zm-4.175 0h-.671v-5.514h.671v5.514zm-4.419 0h-.671v-5.513h.671v5.513zm-6.772 0h-.673v-5.513h.673v5.513z" fill="#FFA412"/><path d="M242.417 244.083h-.671v-5.513h.671v5.513zm-5.661-5.513v5.513h-.671v-5.513h.671zm34.527 5.513h-.671v-5.513h.671v5.513zm1.429 0h-.672v-5.513h.672v5.513zm1.382 0h-.671v-5.513h.671v5.513zm1.038-5.495v5.477a1.608 1.608 0 01-.252.018h-.419v-5.513h.419c.087 0 .169.005.252.018m.933.511v4.455c-.163.201-.397.36-.671.448v-5.351c.274.088.508.246.671.448" fill="#FFA412"/><path d="M273.237 234.16v3.114c0 .248-.091.478-.245.671a1.41 1.41 0 01-.669.448 1.47 1.47 0 01-.264.062 1.468 1.468 0 01-.251.019h-59.069c-.761 0-1.391-.506-1.428-1.137-.002-.022-.002-.042-.002-.063v-3.114c0-.02 0-.04.002-.061.037-.632.667-1.138 1.428-1.138h59.069a1.578 1.578 0 01.515.081c.273.088.507.247.669.448.154.193.245.421.245.67" fill="#FFB93E"/><path d="M244.232 238.474h-31.646c-.681 0-1.24-.505-1.275-1.137l-.001-.063v-3.114l.001-.061c.035-.632.594-1.138 1.275-1.138h27.759c.443 1.624 1.476 3.868 3.887 5.513m21.816.001h-.672v-5.514h.672v5.514zm-2.27-.001h-.671v-5.513h.671v5.513zm-2.726 0h-.672v-5.513h.672v5.513zm-4.177 0h-.672v-5.513h.672v5.513zm-4.417 0h-.672v-5.513h.672v5.513zm-6.772 0h-.672v-5.513h.672v5.513z" fill="#FFA412"/><path d="M239.345 238.474h-.672v-5.513h.672v5.513zm-5.661 0h-.672v-5.513h.672v5.513zm34.53 0h-.671v-5.513h.671v5.513zm1.429 0h-.671v-5.513h.671v5.513zm1.379 0h-.672v-5.513h.672v5.513zm1.038-5.495v5.475a1.38 1.38 0 01-.251.02h-.421v-5.513h.421c.086 0 .17.005.251.018zm.933.511v4.455a1.41 1.41 0 01-.67.448v-5.352c.275.089.508.247.67.449z" fill="#FFA412"/><path d="M266.923 228.646v3.114c0 .249-.091.479-.248.67-.16.201-.395.36-.668.45a1.636 1.636 0 01-.262.061c-.083.013-.166.02-.251.02h-59.071c-.761 0-1.389-.508-1.428-1.139l-.001-.062v-3.114l.001-.063c.039-.63.667-1.137 1.428-1.137h59.071c.037 0 .075.001.111.003l.049.004.054.007.037.006c.09.012.177.032.262.061l.037.012.037.013.072.03.039.019.038.017.067.036.074.045a.481.481 0 00.055.038l.002.004.035.027c.039.029.072.059.105.09l.03.027.026.03c.018.02.037.04.051.062.157.19.248.421.248.669z" fill="#FFB93E"/><path d="M237.915 232.961h-31.646c-.68 0-1.24-.508-1.274-1.139l-.002-.062v-3.114l.002-.063c.034-.63.594-1.137 1.274-1.137h27.76l.038.136c.464 1.611 1.505 3.779 3.848 5.379m21.817 0h-.672v-5.515h.672v5.515zm-2.27 0h-.672v-5.515h.672v5.515zm-2.726 0h-.671v-5.515h.671v5.515zm-4.177 0h-.672v-5.515h.672v5.515zm-4.418 0h-.671v-5.515h.671v5.515zm-6.771 0h-.672v-5.515h.672v5.515z" fill="#FFA412"/><path d="M233.03 232.961h-.671v-5.515h.671v5.515zm-5.663 0h-.671v-5.515h.671v5.515zm34.53 0h-.672v-5.515h.672v5.515zm1.429 0h-.671v-5.515h.671v5.515zm1.382-.001h-.671v-5.515h.671v5.515zm1.038-5.495v5.476a1.759 1.759 0 01-.252.018h-.421v-5.513h.421c.085 0 .169.007.252.019zm.93.51v4.455c-.162.201-.396.36-.669.45v-5.354c.273.089.507.247.669.449" fill="#FFA412"/><path d="M269.974 223.267v3.115c0 .248-.089.478-.244.669-.162.202-.397.36-.672.45a1.577 1.577 0 01-.512.081h-59.07c-.237 0-.463-.05-.658-.137-.42-.183-.717-.536-.765-.948a.49.49 0 01-.004-.054c-.002-.02-.002-.042-.002-.061v-3.115c0-.021 0-.041.002-.063.038-.629.666-1.137 1.427-1.137h59.07c.085 0 .167.007.251.02.09.012.178.032.261.061.275.088.51.247.672.448.155.193.244.423.244.671z" fill="#FFB93E"/><path d="M240.966 227.583h-31.644c-.212 0-.412-.051-.588-.137a1.202 1.202 0 01-.682-.949c-.002-.018-.004-.036-.004-.054-.002-.02-.002-.041-.002-.061v-3.114c0-.022 0-.041.002-.063.034-.63.594-1.138 1.274-1.138h27.758c.432 1.579 1.422 3.746 3.694 5.379.063.045.128.09.192.137m21.82 0h-.672v-5.516h.672v5.516zm-2.274 0h-.672v-5.515h.672v5.515zm-2.725 0h-.671v-5.516h.671v5.516zm-4.176 0h-.671v-5.516h.671v5.516zm-4.417 0h-.671v-5.516h.671v5.516zm-6.771 0h-.672v-5.516h.672v5.516z" fill="#FFA412"/><path d="M236.081 227.583h-.671v-5.516h.671v5.516zm-5.661 0h-.671v-5.516h.671v5.516zm34.528 0h-.671v-5.515h.671v5.515zm1.432-.001h-.671v-5.515h.671v5.515zm1.376.001h-.672v-5.515h.672v5.515zm1.039-5.495v5.475a1.603 1.603 0 01-.253.018h-.418v-5.513h.418a1.6 1.6 0 01.253.02zm.933.509v4.455c-.162.201-.397.36-.671.448v-5.351c.274.088.509.246.671.448" fill="#FFA412"/><path d="M271.388 217.753v3.114c0 .248-.09.479-.245.669a1.404 1.404 0 01-.671.45c-.082.027-.17.049-.26.062a1.762 1.762 0 01-.253.019H210.89c-.761 0-1.389-.507-1.428-1.139v-3.236c.036-.585.575-1.062 1.259-1.131.056-.005.112-.009.169-.009h59.069a1.63 1.63 0 01.513.081c.275.09.51.249.671.45.155.191.245.421.245.67" fill="#FFB93E"/><path d="M242.383 222.067h-31.646c-.68 0-1.24-.507-1.274-1.139-.002-.02-.002-.04-.002-.061v-3.114c0-.02 0-.042.002-.061.03-.585.513-1.062 1.123-1.131.049-.005.099-.009.151-.009h27.76l.002.009c.444 1.622 1.477 3.863 3.884 5.506zm21.817.001h-.671v-5.516h.671v5.516zm-2.274 0h-.67v-5.515h.67v5.515zm-2.724-.001h-.671v-5.515h.671v5.515zm-4.176 0h-.671v-5.515h.671v5.515zm-4.417 0h-.671v-5.515h.671v5.515zm-6.772 0h-.671v-5.515h.671v5.515z" fill="#FFA412"/><path d="M237.496 222.067h-.672v-5.515h.672v5.515zm-5.661 0h-.671v-5.515h.671v5.515zm34.53 0h-.67v-5.515h.67v5.515zm1.429 0h-.672v-5.515h.672v5.515zm1.379 0h-.671v-5.515h.671v5.515zm1.039-5.495v5.475c-.08.013-.166.02-.252.02h-.42v-5.515h.42c.086 0 .172.007.252.02zm.93.512v4.453c-.163.201-.397.36-.672.45v-5.353c.275.09.509.248.672.45z" fill="#FFA412"/><path d="M267.046 212.246v3.114c0 .248-.09.479-.245.671-.161.202-.396.36-.669.448a1.448 1.448 0 01-.345.072l-.048.006-.045.002c-.026.002-.05.002-.075.002h-59.072c-.761 0-1.389-.508-1.426-1.138l-.002-.063v-3.114l.002-.061c0-.018.002-.035.004-.051.057-.507.497-.927 1.069-1.051l.045-.009a1.73 1.73 0 01.308-.027h59.072c.044 0 .084.002.127.004l.057.005h.002l.065.009c.09.014.177.034.262.061.273.09.508.249.669.45.155.193.245.422.245.67" fill="#FFB93E"/><path d="M238.039 216.561h-31.645c-.681 0-1.241-.507-1.275-1.137l-.002-.063v-3.114l.002-.062a.39.39 0 01.004-.05c.052-.52.461-.945.99-1.058l.054-.011c.074-.013.149-.018.227-.018h27.759l.011.038c.448 1.618 1.481 3.835 3.863 5.466l.012.009m21.819 0h-.671v-5.515h.671v5.515zm-2.272 0h-.672v-5.515h.672v5.515zm-2.725 0h-.672v-5.515h.672v5.515zm-4.178 0h-.672v-5.515h.672v5.515zm-4.418 0h-.671v-5.515h.671v5.515zm-6.771 0h-.671v-5.515h.671v5.515z" fill="#FFA412"/><path d="M233.154 216.561h-.671v-5.515h.671v5.515zm-5.663 0h-.671v-5.515h.671v5.515zm34.529.001h-.672v-5.516h.672v5.516zm1.429 0h-.671v-5.515h.671v5.515zm1.382-.001h-.671v-5.515h.671v5.515zm1.039-5.495v5.475c-.083.013-.168.02-.252.02h-.422v-5.515h.422c.084 0 .169.007.252.02zm.93.511v4.453a1.406 1.406 0 01-.67.45v-5.353c.273.09.507.248.67.45" fill="#FFA412"/><path d="M266.923 206.771v3.115c0 .247-.091.478-.248.67-.16.202-.395.36-.668.448a1.44 1.44 0 01-.203.052h-.002l-.057.011a1.613 1.613 0 01-.251.018h-59.071a1.414 1.414 0 01-.255-.02c-.641-.097-1.139-.559-1.173-1.117l-.001-.062v-3.115l.001-.062c.039-.631.667-1.137 1.428-1.137h59.071c.037 0 .075 0 .111.003l.049.004a.901.901 0 00.054.005l.037.006c.09.014.177.034.262.063l.037.012.037.013.072.029.077.038c.021.01.045.023.067.036.024.014.05.028.074.045a.655.655 0 00.055.037l.002.004.035.027a.83.83 0 01.105.09l.03.027.026.029c.018.02.037.041.051.061.157.193.248.423.248.67" fill="#FFB93E"/><path d="M237.915 211.086h-31.646c-.025 0-.05 0-.075-.002l-.081-.007c-.609-.071-1.086-.548-1.118-1.129l-.002-.061v-3.116l.002-.061c.034-.632.594-1.138 1.274-1.138h27.76l.038.135c.459 1.599 1.488 3.742 3.791 5.341l.057.038m21.817 0h-.672v-5.513h.672v5.513zm-2.27 0h-.672v-5.514h.672v5.514zm-2.726 0h-.671v-5.514h.671v5.514zm-4.177 0h-.672v-5.514h.672v5.514zm-4.418 0h-.671v-5.514h.671v5.514zm-6.771 0h-.672v-5.514h.672v5.514z" fill="#FFA412"/><path d="M233.03 211.086h-.671v-5.514h.671v5.514zm-5.663 0h-.671v-5.514h.671v5.514zm34.53-.001h-.672v-5.513h.672v5.513zm1.429.001h-.671v-5.514h.671v5.514zm1.382-.001h-.671v-5.513h.671v5.513zm1.038-5.495v5.477a1.625 1.625 0 01-.252.018h-.421v-5.513h.421c.085 0 .169.005.252.018m.93.511v4.455a1.41 1.41 0 01-.669.448v-5.351c.273.088.507.247.669.448z" fill="#FFA412"/><path d="M269.974 201.392v3.114c0 .249-.089.479-.244.672a1.423 1.423 0 01-.672.448 1.398 1.398 0 01-.261.061c-.084.014-.166.02-.251.02h-59.07c-.237 0-.463-.049-.658-.135-.42-.184-.717-.538-.765-.949a.49.49 0 01-.004-.054c-.002-.021-.002-.041-.002-.063v-3.114c0-.02 0-.04.002-.061.038-.632.666-1.138 1.427-1.138h59.07c.085 0 .167.006.251.018.09.015.178.035.261.063.275.089.51.247.672.449.155.192.244.421.244.669z" fill="#FFB93E"/><path d="M240.966 205.707h-31.644c-.212 0-.412-.048-.588-.135a1.202 1.202 0 01-.682-.948c-.002-.018-.004-.036-.004-.054-.002-.022-.002-.042-.002-.063v-3.114c0-.02 0-.04.002-.062.034-.631.594-1.137 1.274-1.137h27.758c.432 1.579 1.422 3.746 3.694 5.378l.192.135m21.82 0h-.672v-5.513h.672v5.513zm-2.274.001h-.672v-5.514h.672v5.514zm-2.725-.001h-.671v-5.513h.671v5.513zm-4.176 0h-.671v-5.513h.671v5.513zm-4.417 0h-.671v-5.513h.671v5.513zm-6.771 0h-.672v-5.513h.672v5.513z" fill="#FFA412"/><path d="M236.081 205.707h-.671v-5.513h.671v5.513zm-5.661 0h-.671v-5.513h.671v5.513zm34.528.001h-.671v-5.514h.671v5.514zm1.432-.001h-.671v-5.514h.671v5.514zm1.376.001h-.672v-5.514h.672v5.514zm1.039-5.496v5.478a1.732 1.732 0 01-.253.018h-.418v-5.514h.418c.088 0 .171.006.253.018zm.933.511v4.455a1.41 1.41 0 01-.671.448v-5.351c.274.088.509.247.671.448" fill="#FFA412"/><path d="M274.801 195.879v3.114c0 .249-.091.479-.245.67-.165.201-.398.36-.672.45a1.67 1.67 0 01-.512.081H214.3c-.761 0-1.386-.508-1.426-1.139l-.002-.062v-3.114l.002-.061c.036-.585.576-1.062 1.26-1.13a1.3 1.3 0 01.166-.009h59.072c.085 0 .169.007.252.02.089.012.178.032.26.061.274.088.507.246.672.45.154.19.245.421.245.669" fill="#FFB93E"/><path d="M245.794 200.194h-31.646c-.679 0-1.238-.508-1.274-1.14l-.002-.061v-3.114l.002-.061c.032-.585.514-1.062 1.123-1.13a.957.957 0 01.151-.009h27.76l.003.009c.445 1.621 1.478 3.862 3.883 5.506m21.818 0h-.671v-5.515h.671v5.515zm-2.271-.001h-.672v-5.515h.672v5.515zm-2.725 0h-.672v-5.515h.672v5.515zm-4.177.001h-.672v-5.515h.672v5.515zm-4.417 0h-.672v-5.515h.672v5.515zm-6.772 0h-.671v-5.515h.671v5.515z" fill="#FFA412"/><path d="M240.909 200.194h-.672v-5.515h.672v5.515zm-5.661 0h-.672v-5.515h.672v5.515zm34.53 0h-.671v-5.516h.671v5.516zm1.426 0h-.671v-5.515h.671v5.515zm1.381 0h-.671v-5.516h.671v5.516zm1.039-5.496v5.476a1.75 1.75 0 01-.253.02h-.419v-5.516h.419c.087 0 .17.008.253.02zm.933.509v4.455c-.164.202-.395.36-.672.45v-5.353c.277.088.508.247.672.448" fill="#FFA412"/><path d="M376.437 294.283v3.114c0 .25-.09.479-.247.672a1.414 1.414 0 01-.669.448 1.408 1.408 0 01-.262.061c-.081.014-.166.02-.252.02h-59.07c-.713 0-1.31-.445-1.415-1.021a.582.582 0 01-.013-.117v-3.238c0-.04.005-.079.013-.117.105-.576.702-1.021 1.415-1.021h59.07a1.589 1.589 0 01.514.08c.274.089.508.248.669.451.157.191.247.422.247.668" fill="#FFB93E"/><path d="M347.426 298.598h-31.644c-.588 0-1.081-.38-1.227-.889a.677.677 0 01-.035-.132 1.132 1.132 0 01-.014-.117v-3.238c.003-.039.007-.079.014-.117a.648.648 0 01.035-.129c.146-.512.639-.891 1.227-.891h27.76c.442 1.621 1.476 3.868 3.884 5.513m21.82 0h-.67v-5.513h.67v5.513zm-2.271 0h-.671v-5.513h.671v5.513m-2.726 0h-.671v-5.514h.671v5.514zm-4.177 0h-.673v-5.513h.673v5.513zm-4.416 0h-.672v-5.514h.672v5.514m-6.772 0h-.672v-5.513h.672v5.513z" fill="#FFA412"/><path d="M342.541 298.598h-.672v-5.513h.672v5.513zm-5.66 0h-.671v-5.514h.671v5.514zm34.53 0h-.671v-5.513h.671v5.513zm1.429 0h-.671v-5.513h.671v5.513zm1.38 0h-.669v-5.514h.669v5.514zm1.038-5.495v5.477a1.595 1.595 0 01-.251.018h-.42v-5.514h.42c.085 0 .17.008.251.019m.933.511v4.455c-.161.201-.395.36-.67.448v-5.352c.275.089.509.247.67.449" fill="#FFA412"/><path d="M370.118 288.77v3.114c0 .248-.09.479-.243.669a1.407 1.407 0 01-.672.45 1.71 1.71 0 01-.387.076 1.335 1.335 0 01-.127.005h-59.07c-.712 0-1.309-.446-1.413-1.022a.563.563 0 01-.013-.115l-.002-.063v-3.114l.002-.061c0-.04.005-.079.013-.117.104-.578.701-1.023 1.413-1.023h59.07c.04 0 .077.002.115.006l.039.003h.008l.054.006.035.005a1.6 1.6 0 01.263.061l.037.013.037.013.027.012.045.018.04.018.012.006.025.012c.025.011.044.024.067.036a1.415 1.415 0 01.238.173c.052.047.101.097.144.149.153.191.243.421.243.67" fill="#FFB93E"/><path d="M341.112 293.085h-31.643c-.589 0-1.084-.382-1.231-.891a1.42 1.42 0 01-.035-.132 1.118 1.118 0 01-.011-.115l-.002-.063v-3.114l.002-.061c.002-.04.005-.079.011-.117.01-.043.021-.088.035-.13.147-.513.642-.892 1.231-.892h27.756c.014.044.023.091.039.136.24.832.635 1.816 1.284 2.792a9.454 9.454 0 002.564 2.587m21.817-.001h-.672v-5.515h.672v5.515zm-2.271 0h-.67v-5.515h.67v5.515zm-2.725.001h-.671v-5.515h.671v5.515zm-4.176-.001h-.67v-5.515h.67v5.515zm-4.418 0h-.67v-5.515h.67v5.515zm-6.772 0h-.672v-5.515h.672v5.515" fill="#FFA412"/><path d="M336.227 293.084h-.672v-5.515h.672v5.515m-5.66 0h-.673v-5.515h.673v5.515zm34.528 0h-.671v-5.515h.671v5.515zm1.428 0h-.67v-5.515h.67v5.515zm1.382 0h-.67v-5.515h.67v5.515zm1.039-5.495v5.476a1.781 1.781 0 01-.252.019h-.421v-5.515h.421c.084 0 .168.008.252.02zm.93.511v4.454a1.45 1.45 0 01-.671.45v-5.353c.272.088.508.248.671.449" fill="#FFA412"/><path d="M373.172 283.392v3.114c0 .248-.09.478-.243.669-.167.202-.399.36-.672.448a1.617 1.617 0 01-.514.083h-59.07c-.237 0-.46-.049-.659-.137-.418-.183-.715-.536-.762-.948a.321.321 0 01-.005-.055l-.003-.06v-3.114c0-.02.003-.042.003-.064a.916.916 0 01.012-.115c.105-.576.702-1.022 1.414-1.022h59.07c.085 0 .17.007.252.018.09.014.177.036.262.063.273.088.505.247.672.45.153.191.243.421.243.67" fill="#FFB93E"/><path d="M344.166 287.706h-31.647c-.212 0-.411-.048-.587-.137a1.194 1.194 0 01-.68-.948.19.19 0 01-.007-.054v-3.238a.918.918 0 01.049-.247c.143-.511.64-.891 1.225-.891h27.761c.176.644.446 1.39.856 2.153a9.495 9.495 0 002.833 3.225c.067.047.13.092.197.137m21.818 0h-.673v-5.515h.673v5.515zm-2.274 0h-.669v-5.515h.669v5.515zm-2.723 0h-.671v-5.515h.671v5.515m-4.178 0h-.671v-5.515h.671v5.515zm-4.419 0h-.671v-5.515h.671v5.515m-6.769 0h-.67v-5.515h.67v5.515z" fill="#FFA412"/><path d="M339.278 287.706h-.671v-5.515h.671v5.515zm-5.66 0h-.672v-5.515h.672v5.515zm34.528.001h-.671v-5.516h.671v5.516zm1.432-.001h-.671v-5.515h.671v5.515zm1.376 0h-.671v-5.515h.671v5.515zm1.038-5.495v5.476a1.682 1.682 0 01-.251.019h-.421v-5.515h.421c.087 0 .172.007.251.02zm.933.511v4.453c-.162.202-.396.36-.671.45v-5.353c.275.088.509.247.671.45z" fill="#FFA412"/><path d="M374.586 277.878v3.114c0 .247-.088.477-.246.668a1.403 1.403 0 01-.669.45c-.085.029-.17.049-.263.063l-.123.013c-.043.001-.085.005-.128.005h-59.069c-.712 0-1.311-.445-1.414-1.021a.56.56 0 01-.013-.117l-.002-.061v-3.114l.002-.063a.76.76 0 01.01-.108c.093-.534.607-.956 1.249-1.022.055-.006.11-.008.168-.008h59.069c.085 0 .171.006.251.02.093.013.178.033.263.061.273.087.506.247.669.449.158.19.246.421.246.671" fill="#FFB93E"/><path d="M345.581 282.191h-31.648c-.584 0-1.08-.38-1.227-.891a1.174 1.174 0 01-.046-.247v-3.238c.002-.036.007-.074.011-.108.082-.533.543-.956 1.113-1.022.049-.006.101-.008.149-.008h27.761l.002.008c.154.556.378 1.186.701 1.841a9.463 9.463 0 003.184 3.665m21.817 0h-.672v-5.515h.672v5.515zm-2.271 0h-.671v-5.515h.671v5.515m-2.726 0h-.671v-5.515h.671v5.515zm-4.178 0h-.671v-5.515h.671v5.515zm-4.416 0h-.671v-5.515h.671v5.515zm-6.771 0h-.671v-5.515h.671v5.515z" fill="#FFA412"/><path d="M340.692 282.191h-.671v-5.515h.671v5.515zm-5.659 0h-.673v-5.515h.673v5.515zm34.53 0h-.671v-5.515h.671v5.515zm1.429 0h-.671v-5.515h.671v5.515zm1.379 0h-.671v-5.515h.671v5.515zm1.038-5.496v5.476c-.08.013-.165.02-.252.02h-.42v-5.515h.42c.087 0 .172.007.252.019zm.931.512v4.455c-.163.202-.396.36-.669.448v-5.353c.273.09.506.248.669.45" fill="#FFA412"/><path d="M370.244 272.37v3.114c0 .25-.092.479-.246.672-.164.199-.397.36-.67.448a1.367 1.367 0 01-.262.061l-.082.013h-.013a.737.737 0 01-.082.005.927.927 0 01-.076.002h-59.07c-.711 0-1.309-.445-1.413-1.021a.575.575 0 01-.013-.117v-3.238l.003-.05c.057-.51.496-.927 1.074-1.05l.039-.01a1.87 1.87 0 01.31-.027h59.07c.044 0 .089.001.129.003.019.002.037.002.054.007h.003a1.535 1.535 0 01.329.069c.273.09.506.248.67.451.154.191.246.422.246.668" fill="#FFB93E"/><path d="M341.238 276.685h-31.647c-.587 0-1.082-.38-1.227-.89a1.397 1.397 0 01-.034-.131c-.007-.038-.009-.079-.012-.117v-3.238c.003-.016.003-.034.003-.051.053-.518.46-.945.992-1.058l.055-.011c.074-.013.147-.018.223-.018h27.761l.012.04c.446 1.618 1.48 3.832 3.862 5.466l.012.008zm21.817 0h-.672v-5.514h.672v5.514zm-2.271 0h-.67v-5.514h.67v5.514zm-2.725 0h-.671v-5.514h.671v5.514zm-4.178 0h-.671v-5.514h.671v5.514zm-4.419 0h-.67v-5.513h.67v5.513zm-6.772 0h-.672v-5.513h.672v5.513z" fill="#FFA412"/><path d="M336.353 276.685h-.672v-5.514h.672v5.514zm-5.663 0h-.669v-5.514h.669v5.514zm34.528 0h-.671v-5.514h.671v5.514zm1.429 0h-.671v-5.513h.671v5.513zm1.382 0h-.671v-5.514h.671v5.514zm1.038-5.496v5.478a1.749 1.749 0 01-.252.018h-.42v-5.514h.42c.084 0 .171.006.252.018zm.933.512v4.454a1.412 1.412 0 01-.671.449v-5.352c.275.088.508.247.671.449" fill="#FFA412"/><path d="M370.118 266.896v3.115c0 .246-.09.477-.243.669-.164.202-.397.36-.672.45-.065.02-.134.038-.206.052-.017.004-.037.006-.057.009-.079.011-.164.02-.251.02h-59.07a1.48 1.48 0 01-.253-.022c-.602-.091-1.076-.502-1.163-1.015a.705.705 0 01-.01-.102l-.002-.061v-3.115l.002-.063c0-.037.005-.079.013-.115.104-.578.701-1.022 1.413-1.022h59.07c.04 0 .075.002.115.003l.012.002.035.002.054.006.035.007c.092.012.178.034.263.061l.037.011.037.014.027.011.045.018.002.002.035.016c.099.047.194.104.275.169.025.02.05.04.07.058.022.02.042.039.062.061l.027.029c.02.018.037.039.055.059.153.191.243.423.243.671" fill="#FFB93E"/><path d="M341.112 271.211h-31.643l-.076-.002c-.03-.003-.057-.005-.08-.009-.573-.065-1.034-.493-1.11-1.026a.883.883 0 01-.011-.102l-.002-.062v-3.114l.002-.063c.002-.037.005-.079.011-.115a1.4 1.4 0 01.035-.131c.147-.511.642-.891 1.231-.891h27.756c.014.043.023.09.039.135.458 1.598 1.489 3.742 3.793 5.34.018.013.034.026.055.04m21.817 0h-.672v-5.515h.672v5.515m-2.271 0h-.67v-5.515h.67v5.515zm-2.725 0h-.671v-5.515h.671v5.515zm-4.176 0h-.67v-5.516h.67v5.516zm-4.418 0h-.67v-5.515h.67v5.515zm-6.772 0h-.672v-5.515h.672v5.515z" fill="#FFA412"/><path d="M336.227 271.211h-.672v-5.515h.672v5.515zm-5.66 0h-.673v-5.515h.673v5.515zm34.528 0h-.671v-5.515h.671v5.515m1.428 0h-.67v-5.515h.67v5.515zm1.382 0h-.67v-5.515h.67v5.515zm1.039-5.496v5.476a1.643 1.643 0 01-.252.018h-.421v-5.513h.421c.084 0 .168.007.252.019zm.93.51v4.455c-.163.202-.399.36-.671.45v-5.353c.272.088.508.246.671.448z" fill="#FFA412"/><path d="M373.172 261.518v3.114c0 .248-.09.477-.243.669a1.447 1.447 0 01-.672.45 1.365 1.365 0 01-.262.06.872.872 0 01-.125.016 2.693 2.693 0 01-.127.004h-59.07c-.237 0-.46-.049-.659-.135-.418-.184-.715-.538-.762-.951a.292.292 0 01-.005-.054c0-.018-.003-.039-.003-.059v-3.114c0-.022.003-.043.003-.061a.874.874 0 01.012-.117c.105-.578.702-1.023 1.414-1.023h59.07c.085 0 .17.006.252.02a1.475 1.475 0 01.934.51c.153.192.243.421.243.671z" fill="#FFB93E"/><path d="M344.166 265.831h-31.647c-.212 0-.411-.049-.587-.135a1.199 1.199 0 01-.68-.951.181.181 0 01-.007-.054v-3.234a.87.87 0 01.049-.249c.143-.511.64-.891 1.225-.891h27.761c.429 1.579 1.418 3.746 3.689 5.379l.197.135m21.818.002h-.673v-5.515h.673v5.515zm-2.274 0h-.669v-5.515h.669v5.515zm-2.723 0h-.671v-5.516h.671v5.516zm-4.178 0h-.671v-5.516h.671v5.516zm-4.419 0h-.671v-5.515h.671v5.515zm-6.769-.001h-.67v-5.515h.67v5.515z" fill="#FFA412"/><path d="M339.278 265.833h-.671v-5.516h.671v5.516zm-5.66-.001h-.672v-5.515h.672v5.515zm34.528.001h-.671v-5.516h.671v5.516zm1.432 0h-.671v-5.516h.671v5.516zm1.376 0h-.671v-5.516h.671v5.516zm1.038-5.496v5.476a1.56 1.56 0 01-.251.018h-.421v-5.513h.421c.087 0 .172.007.251.019zm.933.51v4.455c-.162.201-.396.36-.671.448v-5.351c.275.088.509.246.671.448" fill="#FFA412"/><path d="M377.998 256.003v3.114c0 .248-.091.477-.245.669a1.437 1.437 0 01-.67.451 1.725 1.725 0 01-.513.08H317.5c-.713 0-1.309-.444-1.415-1.022a.548.548 0 01-.013-.115l-.002-.063v-3.114l.002-.061c.038-.585.574-1.062 1.256-1.133.056-.005.114-.007.172-.007h59.07c.086 0 .167.006.253.02.091.012.174.032.26.061.24.078.45.209.607.376.023.024.043.049.063.072.154.193.245.425.245.672" fill="#FFB93E"/><path d="M348.993 260.317h-31.645c-.588 0-1.083-.38-1.227-.891-.014-.043-.028-.086-.035-.131a.86.86 0 01-.014-.115l-.002-.064v-3.113l.002-.062c.005-.055.014-.108.026-.16.103-.509.547-.907 1.097-.972.052-.005.101-.007.153-.007h27.761l.002.007c.444 1.626 1.478 3.865 3.882 5.508m21.817.001h-.671v-5.515h.671v5.515zm-2.271-.001h-.672v-5.515h.672v5.515zm-2.726 0h-.672v-5.515h.672v5.515zm-4.178.001h-.672v-5.516h.672v5.516zm-4.415-.001h-.672v-5.515h.672v5.515zm-6.772 0h-.672v-5.515h.672v5.515z" fill="#FFA412"/><path d="M344.108 260.317h-.671v-5.515h.671v5.515m-5.663 0h-.672v-5.515h.672v5.515zm34.53 0h-.671v-5.515h.671v5.515zm1.429 0h-.671v-5.515h.671v5.515zm1.379 0h-.671v-5.515h.671v5.515zm1.039-5.495v5.475c-.083.013-.167.02-.252.02h-.419v-5.515h.419c.085 0 .169.007.252.02m.933.511v4.453c-.162.202-.397.36-.672.45v-5.353c.275.088.51.248.672.45z" fill="#FFA412"/><path d="M370.244 250.499v3.113c0 .247-.092.478-.246.668a1.411 1.411 0 01-.67.45 1.755 1.755 0 01-.262.063c-.028.004-.053.008-.082.009h-.005l-.042.004-.023.002-.032.002h-59.139c-.711 0-1.309-.445-1.413-1.021a.555.555 0 01-.013-.115v-3.238c0-.038.005-.08.013-.117.104-.576.702-1.021 1.413-1.021h59.07c.027 0 .052 0 .076.002h.008c.025.001.045.001.067.005a1.54 1.54 0 01.464.11l.022.011h.002c.221.091.407.23.546.401.154.191.246.421.246.672" fill="#FFB93E"/><path d="M341.238 254.809h-31.647c-.587 0-1.082-.378-1.227-.889a1.397 1.397 0 01-.034-.131c-.007-.036-.009-.078-.012-.116v-3.238c.003-.038.005-.079.012-.117.009-.045.021-.088.034-.131.145-.511.64-.889 1.227-.889h27.761l.037.127c.46 1.608 1.499 3.775 3.837 5.377l.012.007m21.817.002h-.672v-5.515h.672v5.515zm-2.271 0h-.67v-5.515h.67v5.515zm-2.725 0h-.671v-5.515h.671v5.515zm-4.178 0h-.671v-5.515h.671v5.515zm-4.419.001h-.67v-5.516h.67v5.516zm-6.772 0h-.672v-5.516h.672v5.516z" fill="#FFA412"/><path d="M336.353 254.811h-.672v-5.515h.672v5.515zm-5.663 0h-.669v-5.515h.669v5.515zm34.528 0h-.671v-5.515h.671v5.515zm1.429.001h-.671v-5.516h.671v5.516zm1.382-.001h-.671v-5.515h.671v5.515zm1.038-5.495v5.475c-.081.013-.168.02-.252.02h-.42v-5.515h.42c.084 0 .171.007.252.02zm.933.511v4.453a1.407 1.407 0 01-.671.45v-5.353c.275.09.508.248.671.45z" fill="#FFA412"/><path d="M374.586 245.109v3.116c0 .246-.088.477-.246.668a1.41 1.41 0 01-.669.45c-.085.027-.17.048-.263.063-.08.011-.166.02-.251.02h-59.069c-.231 0-.446-.047-.639-.128-.402-.171-.7-.497-.775-.886a.622.622 0 01-.01-.077l-.003-.049-.002-.061v-3.116l.002-.061a.76.76 0 01.01-.108c.093-.533.607-.958 1.249-1.023.055-.005.11-.007.168-.007h59.069a1.67 1.67 0 01.514.081c.273.089.506.247.669.449.158.19.246.421.246.669" fill="#FFB93E"/><path d="M345.581 249.426h-31.648c-.204 0-.398-.047-.568-.128a1.211 1.211 0 01-.689-.886c-.007-.025-.009-.05-.012-.077l-.004-.049v-3.238c.002-.036.007-.074.011-.108.082-.533.543-.958 1.113-1.022.049-.006.101-.008.149-.008h27.761l.002.008c.434 1.58 1.428 3.749 3.703 5.38l.182.128m21.817-.002h-.672v-5.515h.672v5.515zm-2.271 0h-.671v-5.515h.671v5.515zm-2.726 0h-.671v-5.515h.671v5.515zm-4.178 0h-.671v-5.515h.671v5.515zm-4.416 0h-.671v-5.516h.671v5.516zm-6.771 0h-.671v-5.516h.671v5.516z" fill="#FFA412"/><path d="M340.692 249.424h-.671v-5.515h.671v5.515zm-5.659 0h-.673v-5.515h.673v5.515zm34.53 0h-.671v-5.516h.671v5.516m1.429 0h-.671v-5.516h.671v5.516zm1.379 0h-.671v-5.516h.671v5.516zm1.038-5.496v5.476c-.08.012-.165.019-.252.019h-.42v-5.515h.42c.087 0 .172.008.252.02zm.931.512v4.455c-.163.202-.396.36-.669.448v-5.353c.273.09.506.248.669.45z" fill="#FFA412"/><path d="M376.437 239.605v3.113c0 .247-.09.478-.247.67a1.427 1.427 0 01-.669.45 1.407 1.407 0 01-.262.06l-.081.012-.038.002a1.898 1.898 0 01-.133.005h-59.07c-.053 0-.103-.002-.156-.007-.645-.061-1.161-.481-1.259-1.015a.567.567 0 01-.013-.117v-3.235c0-.039.005-.079.013-.117.105-.578.702-1.022 1.415-1.022h59.07c.086 0 .171.005.252.02.09.012.179.032.262.061a1.4 1.4 0 01.669.448c.157.193.247.421.247.672z" fill="#FFB93E"/><path d="M347.426 243.918h-31.644c-.047 0-.094-.002-.138-.007-.576-.059-1.039-.481-1.124-1.015a1.132 1.132 0 01-.014-.117v-3.235a1.1 1.1 0 01.014-.117.667.667 0 01.035-.131c.146-.512.639-.891 1.227-.891h27.76c.442 1.62 1.471 3.861 3.872 5.506l.012.007m21.82 0h-.67v-5.513h.67v5.513zm-2.271 0h-.671v-5.514h.671v5.514zm-2.726 0h-.671v-5.514h.671v5.514zm-4.177 0h-.673v-5.513h.673v5.513zm-4.416-.001h-.672v-5.513h.672v5.513zm-6.772 0h-.672v-5.513h.672v5.513z" fill="#FFA412"/><path d="M342.544 243.918h-.672v-5.514h.672v5.514m-5.663-5.514v5.514h-.671v-5.514h.671zm34.53 5.513h-.671v-5.513h.671v5.513zm1.429 0h-.671v-5.513h.671v5.513zm1.38 0h-.669v-5.513h.669v5.513zm1.038-5.495v5.477a1.595 1.595 0 01-.251.018h-.42v-5.513h.42c.085 0 .17.006.251.018m.933.511v4.455c-.161.202-.395.36-.67.448v-5.351c.275.088.509.246.67.448z" fill="#FFA412"/><path d="M190.215 294.285v3.114c0 .247-.09.477-.245.67-.162.201-.396.36-.671.448a1.617 1.617 0 01-.513.081h-59.069c-.762 0-1.389-.506-1.428-1.138a1.243 1.243 0 01-.002-.061v-3.114l.002-.063c.039-.632.666-1.137 1.428-1.137h59.069c.086 0 .169.007.252.018.09.014.178.034.261.063.275.088.509.246.671.448.155.192.245.423.245.671" fill="#FFB93E"/><path d="M161.208 298.598h-31.645c-.679 0-1.239-.506-1.274-1.138a1.243 1.243 0 01-.002-.061v-3.114l.002-.063c.035-.632.595-1.137 1.274-1.137h27.759c.445 1.623 1.478 3.868 3.886 5.513m21.82 0h-.672v-5.513h.672v5.513zm-2.274 0h-.671v-5.513h.671v5.513zm-2.725 0h-.671v-5.513h.671v5.513zm-4.176 0h-.671v-5.513h.671v5.513zm-4.417 0h-.671v-5.513h.671v5.513zm-6.771 0h-.672v-5.513h.672v5.513z" fill="#FFA412"/><path d="M156.323 298.598h-.671v-5.513h.671v5.513zm-5.661 0h-.671v-5.513h.671v5.513zm34.529 0h-.671v-5.513h.671v5.513zm1.43 0h-.672v-5.513h.672v5.513zm1.379 0h-.672v-5.513H188v5.513zm1.038-5.495v5.477a1.617 1.617 0 01-.252.018h-.419v-5.513h.419c.086 0 .169.007.252.018zm.932.511v4.455c-.162.201-.396.36-.671.448v-5.351c.275.088.509.246.671.448z" fill="#FFA412"/><path d="M183.899 288.77v3.114c0 .248-.09.479-.245.669-.162.202-.396.36-.669.45a1.65 1.65 0 01-.515.081h-59.069c-.762 0-1.389-.507-1.428-1.139l-.001-.061v-3.114l.001-.061c.039-.632.666-1.14 1.428-1.14h59.069c.038 0 .075.002.113.004l.049.005c.018 0 .036.002.052.006l.038.005c.09.013.178.034.263.061l.036.013.036.014a.902.902 0 01.072.029l.041.018.036.018.068.036c.026.014.049.031.074.047a.445.445 0 01.054.038l.004.001.036.027c.036.029.072.06.104.09l.029.029.027.029a1.056 1.056 0 01.297.731" fill="#FFB93E"/><path d="M154.894 293.084h-31.646c-.681 0-1.24-.507-1.275-1.139l-.001-.061v-3.114l.001-.061c.035-.632.594-1.14 1.275-1.14h27.758l.039.137c.463 1.611 1.505 3.778 3.849 5.378m21.818 0h-.672v-5.515h.672v5.515zm-2.272 0h-.671v-5.515h.671v5.515zm-2.725 0h-.671v-5.515h.671v5.515zm-4.178 0h-.671v-5.515h.671v5.515zm-4.417 0h-.672v-5.515h.672v5.515zm-6.772 0h-.671v-5.515h.671v5.515z" fill="#FFA412"/><path d="M150.007 293.084h-.67v-5.515h.67v5.515zm-5.661 0h-.671v-5.515h.671v5.515zm34.529 0h-.671v-5.515h.671v5.515zm1.429 0h-.671v-5.515h.671v5.515zm1.379 0h-.671v-5.515h.671v5.515zm1.039-5.495v5.476a1.727 1.727 0 01-.252.019h-.419v-5.515h.419c.086 0 .171.007.252.02m.932.511v4.454c-.162.201-.396.36-.669.45v-5.354c.273.089.507.249.669.45z" fill="#FFA412"/><path d="M186.952 283.391v3.114c0 .249-.09.479-.245.67-.164.202-.398.36-.671.45a1.481 1.481 0 01-.261.061c-.083.013-.166.02-.252.02h-59.07c-.237 0-.461-.05-.659-.137-.418-.183-.716-.536-.764-.948-.002-.018-.004-.036-.004-.054a1.284 1.284 0 01-.002-.062v-3.114l.002-.061c.038-.632.665-1.139 1.427-1.139h59.07c.086 0 .169.007.252.02.09.012.178.034.261.061.273.088.507.248.671.45.155.191.245.421.245.669" fill="#FFB93E"/><path d="M157.945 287.706H126.3c-.212 0-.412-.05-.588-.137a1.203 1.203 0 01-.682-.948c-.002-.018-.004-.036-.004-.054a1.284 1.284 0 01-.002-.062v-3.114l.002-.061c.034-.632.594-1.139 1.274-1.139h27.759c.432 1.578 1.42 3.747 3.692 5.378.064.047.129.092.194.137m21.819 0h-.671v-5.515h.671v5.515zm-2.273 0h-.671v-5.515h.671v5.515zm-2.725 0h-.672v-5.515h.672v5.515zm-4.176 0h-.672v-5.515h.672v5.515zm-4.417 0h-.672v-5.515h.672v5.515zm-6.774 0h-.669v-5.515h.669v5.515z" fill="#FFA412"/><path d="M153.06 287.706h-.672v-5.515h.672v5.515zm-5.661 0h-.672v-5.515h.672v5.515zm34.527 0h-.669v-5.515h.669v5.515zm1.429 0h-.671v-5.515h.671v5.515zm1.381 0h-.671v-5.515h.671v5.515zm1.039-5.495v5.475c-.083.013-.166.02-.252.02h-.42v-5.515h.42c.086 0 .169.007.252.02m.932.511v4.453c-.164.202-.398.36-.671.45v-5.353c.273.088.507.247.671.45z" fill="#FFA412"/><path d="M188.367 277.876v3.114c0 .249-.09.479-.245.672a1.42 1.42 0 01-.672.448 1.307 1.307 0 01-.261.061c-.082.013-.165.02-.252.02h-59.069c-.762 0-1.389-.506-1.428-1.138l-.001-.063v-3.114l.001-.061c.036-.585.575-1.062 1.259-1.13.055-.006.111-.009.169-.009h59.069a1.658 1.658 0 01.513.082c.276.089.508.247.672.449.155.192.245.421.245.669" fill="#FFB93E"/><path d="M159.36 282.191h-31.645c-.68 0-1.24-.506-1.275-1.138l-.001-.063v-3.114l.001-.061c.032-.583.514-1.062 1.124-1.13.049-.006.099-.009.151-.009h27.758l.004.009c.445 1.621 1.478 3.863 3.883 5.506zm21.819 0h-.671v-5.515h.671v5.515zm-2.273 0h-.672v-5.515h.672v5.515zm-2.725 0h-.672v-5.515h.672v5.515zm-4.176 0h-.672v-5.515h.672v5.515zm-4.418 0h-.671v-5.515h.671v5.515zm-6.771 0h-.671v-5.515h.671v5.515z" fill="#FFA412"/><path d="M154.475 282.191h-.672v-5.515h.672v5.515zm-5.662 0h-.671v-5.515h.671v5.515zm34.53 0h-.671v-5.515h.671v5.515zm1.427 0h-.669v-5.515h.669v5.515zm1.381 0h-.672v-5.515h.672v5.515zm1.038-5.496v5.476c-.082.013-.165.02-.252.02h-.419v-5.515h.419c.087 0 .17.007.252.019m.933.512v4.455c-.164.201-.396.36-.671.448v-5.353c.275.09.507.248.671.45z" fill="#FFA412"/><path d="M184.023 272.37v3.116c0 .247-.09.477-.245.67-.162.201-.396.36-.669.448a1.652 1.652 0 01-.263.063c-.027.003-.054.007-.083.009l-.047.005-.046.002c-.026.002-.051.002-.076.002h-59.069c-.762 0-1.389-.506-1.427-1.138l-.002-.061v-3.116l.002-.061.003-.05c.057-.508.497-.927 1.072-1.052l.043-.007c.1-.02.203-.029.309-.029h59.069c.043 0 .086.002.128.004l.057.005c.024.004.045.008.067.009.09.015.178.035.263.063.273.089.507.247.669.449.155.192.245.423.245.669" fill="#FFB93E"/><path d="M155.018 276.685h-31.646c-.68 0-1.24-.506-1.274-1.138l-.002-.061v-3.116l.002-.061.003-.05c.052-.519.46-.945.99-1.059l.055-.011c.073-.012.148-.018.226-.018h27.76l.011.038c.448 1.618 1.481 3.836 3.862 5.467l.013.009m21.818 0h-.671v-5.514h.671v5.514zm-2.272 0h-.671v-5.514h.671v5.514zm-2.725 0h-.671v-5.514h.671v5.514zm-4.178 0h-.671v-5.514h.671v5.514zm-4.417 0h-.671v-5.514h.671v5.514zm-6.771 0h-.672v-5.514h.672v5.514z" fill="#FFA412"/><path d="M150.131 276.685h-.672v-5.514h.672v5.514zm-5.661 0h-.671v-5.514h.671v5.514zm34.53 0h-.672v-5.514H179v5.514zm1.429 0h-.672v-5.514h.672v5.514zm1.378 0h-.671v-5.514h.671v5.514zm1.039-5.496v5.478a1.728 1.728 0 01-.252.018h-.419v-5.514h.419c.086 0 .171.006.252.018zm.933.512v4.455a1.42 1.42 0 01-.67.448v-5.352c.273.089.508.247.67.449z" fill="#FFA412"/><path d="M183.899 266.896v3.114c0 .249-.09.477-.245.67a1.41 1.41 0 01-.669.448c-.067.024-.135.04-.206.052l-.057.011a1.6 1.6 0 01-.252.018h-59.069c-.062 0-.125-.002-.185-.009-.024-.003-.047-.005-.07-.011-.643-.097-1.139-.558-1.173-1.117l-.001-.062v-3.114l.001-.063c.039-.631.666-1.137 1.428-1.137h59.069c.038 0 .075.002.113.003l.049.004a.73.73 0 01.052.007l.038.006c.09.012.178.032.263.061l.036.012.036.013.072.029c.027.012.052.025.077.038.023.01.045.023.068.036.026.014.049.03.074.045l.054.037.004.004.036.027a.987.987 0 01.104.09l.029.027.027.029.052.061c.155.193.245.423.245.671" fill="#FFB93E"/><path d="M154.894 271.209h-31.646c-.025 0-.051 0-.075-.002a.555.555 0 01-.082-.007c-.608-.07-1.086-.545-1.118-1.128l-.001-.062v-3.114l.001-.063c.035-.631.594-1.137 1.275-1.137h27.758l.039.135c.459 1.598 1.487 3.744 3.791 5.34l.058.038zm21.818.002h-.672v-5.515h.672v5.515zm-2.272 0h-.671v-5.515h.671v5.515zm-2.725 0h-.671v-5.515h.671v5.515zm-4.178 0h-.671v-5.515h.671v5.515zm-4.417 0h-.672v-5.515h.672v5.515zm-6.772 0h-.671v-5.515h.671v5.515z" fill="#FFA412"/><path d="M150.007 271.211h-.67v-5.515h.67v5.515zm-5.661 0h-.671v-5.515h.671v5.515zm34.529 0h-.671v-5.515h.671v5.515zm1.429 0h-.671v-5.515h.671v5.515zm1.379 0h-.671v-5.515h.671v5.515zm1.039-5.495v5.475a1.6 1.6 0 01-.252.018h-.419v-5.513h.419c.086 0 .171.007.252.02m.932.509v4.455c-.162.201-.396.36-.669.45v-5.353c.273.088.507.246.669.448z" fill="#FFA412"/><path d="M186.952 261.518v3.114c0 .247-.09.477-.245.67-.164.201-.398.36-.671.448a1.578 1.578 0 01-.513.081h-59.07c-.237 0-.461-.049-.659-.135-.418-.184-.716-.537-.764-.949-.002-.018-.004-.036-.004-.054l-.002-.061v-3.114l.002-.063c.038-.632.665-1.138 1.427-1.138h59.07c.086 0 .169.006.252.018.09.015.178.035.261.063.273.089.507.247.671.449.155.192.245.423.245.671" fill="#FFB93E"/><path d="M157.945 265.831H126.3c-.212 0-.412-.049-.588-.135a1.206 1.206 0 01-.682-.949c-.002-.018-.004-.036-.004-.054l-.002-.061v-3.114l.002-.063c.034-.632.594-1.138 1.274-1.138h27.759c.432 1.579 1.42 3.746 3.692 5.379l.194.135m21.819.002h-.671v-5.516h.671v5.516m-2.273 0h-.671v-5.516h.671v5.516m-2.725 0h-.672v-5.516h.672v5.516m-4.176 0h-.672v-5.516h.672v5.516m-4.417 0h-.672v-5.516h.672v5.516m-6.774 0h-.669v-5.516h.669v5.516" fill="#FFA412"/><path d="M153.06 265.833h-.672v-5.516h.672v5.516m-5.661 0h-.672v-5.516h.672v5.516m34.527 0h-.669v-5.516h.669v5.516m1.429 0h-.671v-5.516h.671v5.516m1.381 0h-.671v-5.516h.671v5.516m1.039-5.496v5.476a1.749 1.749 0 01-.252.018h-.42v-5.514h.42c.086 0 .169.008.252.02zm.932.51v4.455c-.164.201-.398.36-.671.448v-5.352c.273.089.507.247.671.449z" fill="#FFA412"/><path d="M191.779 256.003v3.114c0 .248-.09.479-.246.669-.162.202-.396.36-.67.45a1.601 1.601 0 01-.513.081h-59.07c-.762 0-1.389-.507-1.428-1.139l-.001-.061v-3.114l.001-.061c.036-.585.576-1.062 1.259-1.131.055-.005.112-.009.169-.009h59.07c.085 0 .169.007.252.02a1.6 1.6 0 01.261.061c.274.09.508.249.67.45.156.191.246.421.246.67" fill="#FFB93E"/><path d="M162.772 260.317h-31.645c-.68 0-1.24-.507-1.275-1.139l-.001-.061v-3.114l.001-.061c.032-.585.514-1.062 1.124-1.131.049-.005.099-.009.151-.009h27.759l.002.009c.445 1.622 1.48 3.863 3.884 5.506zm21.82 0h-.671v-5.515h.671v5.515zm-2.273 0h-.672v-5.515h.672v5.515zm-2.725 0h-.672v-5.515h.672v5.515zm-4.178 0h-.672v-5.515h.672v5.515zm-4.417 0h-.672v-5.515h.672v5.515zm-6.772 0h-.671v-5.515h.671v5.515z" fill="#FFA412"/><path d="M157.887 260.317h-.671v-5.515h.671v5.515zm-5.661 0h-.671v-5.515h.671v5.515zm34.528 0h-.671v-5.515h.671v5.515zm1.429 0h-.671v-5.515h.671v5.515zm1.381 0h-.672v-5.515h.672v5.515zm1.038-5.495v5.476a1.727 1.727 0 01-.252.019h-.419v-5.515h.419c.087 0 .17.007.252.02zm.933.511v4.453c-.164.202-.398.36-.672.45v-5.353c.274.088.508.249.672.45z" fill="#FFA412"/><path d="M184.023 250.497v3.114c0 .248-.09.478-.245.669a1.398 1.398 0 01-.669.45 1.546 1.546 0 01-.346.072c-.021.004-.043.004-.066.006l-.033.001c-.023.002-.047.002-.07.002h-59.069c-.762 0-1.389-.507-1.427-1.137l-.002-.063v-3.114l.002-.062c.038-.631.665-1.139 1.427-1.139h59.069l.076.002a1.664 1.664 0 01.635.16l.009.004c.023.01.047.023.072.037l.011.006c.021.012.043.027.065.039.05.033.097.067.142.105l.039.036.008.005.025.024.003.003.044.045c.019.022.037.042.055.065.155.191.245.421.245.67" fill="#FFB93E"/><path d="M155.018 254.811h-31.646c-.68 0-1.24-.507-1.274-1.137l-.002-.063v-3.114l.002-.062c.034-.631.594-1.139 1.274-1.139h27.76c.011.043.021.085.036.128.461 1.609 1.497 3.776 3.837 5.378l.013.009m21.818 0h-.671v-5.515h.671v5.515zm-2.272 0h-.671v-5.515h.671v5.515zm-2.725 0h-.671v-5.515h.671v5.515zm-4.178 0h-.671v-5.515h.671v5.515zm-4.417 0h-.671v-5.515h.671v5.515zm-6.771 0h-.672v-5.515h.672v5.515z" fill="#FFA412"/><path d="M150.131 254.811h-.672v-5.515h.672v5.515zm-5.661 0h-.671v-5.515h.671v5.515zm34.53 0h-.672v-5.515H179v5.515zm1.429 0h-.672v-5.515h.672v5.515zm1.378 0h-.671v-5.515h.671v5.515zm1.039-5.495v5.475c-.081.013-.166.02-.252.02h-.419v-5.515h.419c.086 0 .171.007.252.02m.933.511v4.453a1.401 1.401 0 01-.67.45v-5.353c.273.09.508.248.67.45z" fill="#FFA412"/><path d="M188.367 245.109v3.114c0 .249-.09.479-.245.672a1.42 1.42 0 01-.672.448 1.38 1.38 0 01-.261.061c-.082.013-.165.02-.252.02h-59.069c-.229 0-.446-.045-.639-.128-.43-.18-.738-.54-.785-.961l-.004-.049-.001-.063v-3.114l.001-.061c.036-.585.575-1.062 1.259-1.13.055-.006.111-.009.169-.009h59.069a1.727 1.727 0 01.513.081c.276.09.508.248.672.45.155.192.245.421.245.669z" fill="#FFB93E"/><path d="M159.36 249.424h-31.645c-.205 0-.399-.045-.57-.128a1.204 1.204 0 01-.701-.961l-.004-.049-.001-.063v-3.114l.001-.061c.032-.583.514-1.062 1.124-1.13.049-.006.099-.009.151-.009h27.758l.004.009c.432 1.582 1.426 3.749 3.701 5.378.059.043.12.086.182.128m21.819 0h-.671v-5.515h.671v5.515zm-2.273 0h-.672v-5.515h.672v5.515zm-2.725 0h-.672v-5.515h.672v5.515zm-4.176 0h-.672v-5.515h.672v5.515zm-4.418 0h-.671v-5.515h.671v5.515zm-6.771 0h-.671v-5.515h.671v5.515z" fill="#FFA412"/><path d="M154.475 249.424h-.672v-5.515h.672v5.515zm-5.662 0h-.671v-5.515h.671v5.515zm34.53 0h-.671v-5.515h.671v5.515zm1.427 0h-.669v-5.515h.669v5.515zm1.381 0h-.672v-5.515h.672v5.515zm1.038-5.496v5.476c-.082.013-.165.02-.252.02h-.419v-5.515h.419c.087 0 .17.007.252.019m.933.512v4.455c-.164.201-.396.36-.671.448v-5.353c.275.09.507.248.671.45z" fill="#FFA412"/><path d="M190.215 239.603v3.116c0 .246-.09.477-.245.669-.162.202-.396.36-.671.448a1.484 1.484 0 01-.344.072l-.047.006-.046.002-.076.001h-59.069c-.762 0-1.389-.505-1.428-1.137l-.002-.061v-3.116l.002-.061c.039-.632.666-1.138 1.428-1.138h59.069a1.617 1.617 0 01.513.081c.275.088.509.247.671.448.155.193.245.423.245.67" fill="#FFB93E"/><path d="M161.208 243.917h-31.645c-.679 0-1.239-.505-1.274-1.137l-.002-.061v-3.116l.002-.061c.035-.632.595-1.138 1.274-1.138h27.759c.443 1.62 1.474 3.859 3.874 5.504l.012.009m21.82 0h-.672v-5.513h.672v5.513zm-2.274 0h-.671v-5.513h.671v5.513zm-2.725 0h-.671v-5.513h.671v5.513zm-4.176 0h-.671v-5.513h.671v5.513zm-4.417 0h-.671v-5.513h.671v5.513zm-6.771 0h-.672v-5.513h.672v5.513z" fill="#FFA412"/><path d="M156.323 243.917h-.671v-5.513h.671v5.513zm-5.661-5.513v5.513h-.671v-5.513h.671zm34.529 5.513h-.671v-5.513h.671v5.513zm1.43 0h-.672v-5.513h.672v5.513zm1.379 0h-.672v-5.513H188v5.513zm1.038-5.495v5.477a1.617 1.617 0 01-.252.018h-.419v-5.513h.419c.086 0 .169.005.252.018zm.932.512v4.454c-.162.202-.396.36-.671.449v-5.352c.275.089.509.247.671.449" fill="#FFA412"/><path d="M278.678 269.314c0-16.274 13.193-29.464 29.464-29.464 16.273 0 29.467 13.19 29.467 29.464 0 16.272-13.194 29.464-29.467 29.464-16.271 0-29.464-13.192-29.464-29.464" fill="#E2810E"/><path d="M332.324 298.598h-16.54c-.451 0-.844-.221-1.072-.554a29.327 29.327 0 0010.843-4.959h10.656v1.114a31.25 31.25 0 01-3.887 4.399zm4.559-5.353v-.16h.107c-.034.054-.071.106-.107.16z" fill="#F09210"/><path d="M336.21 294.199v-1.115h.671v.161c-.216.324-.441.641-.671.954z" fill="#F09210"/><path d="M338.549 290.498a10.142 10.142 0 01-1.284-2.792h2.635a31.51 31.51 0 01-1.351 2.792" fill="#F09D26"/><path d="M336.989 293.084h-11.432a29.487 29.487 0 004.338-3.895v3.895h.672v-4.654c.201-.238.402-.481.599-.724h4.39v5.378h.672v-5.378h1.038c.238.832.635 1.816 1.284 2.792a32.606 32.606 0 01-1.561 2.586" fill="#F09210"/><path d="M336.227 293.084h-.672v-5.378h.672v5.378m-5.66 0h-.673v-3.895a27 27 0 00.673-.759v4.654z" fill="#F09210"/><path d="M341.134 284.344a10.2 10.2 0 01-.855-2.153h1.443c-.17.727-.369 1.446-.588 2.153z" fill="#F09D26"/><path d="M339.9 287.706h-.622v-5.515h-.672v5.515h-4.989v-3.576a29.7 29.7 0 001.035-1.939h5.627c.175.646.444 1.39.856 2.153a33.555 33.555 0 01-1.178 3.226c-.016.044-.037.091-.057.136zm-6.955 0h-1.782a29.863 29.863 0 001.782-2.48v2.48z" fill="#F09210"/><path d="M339.278 287.706h-.671v-5.515h.671v5.515zm-5.66 0h-.672v-2.48c.233-.362.456-.727.672-1.096v3.576z" fill="#F09210"/><path d="M342.396 278.526a10.6 10.6 0 01-.7-1.841h.892a34.647 34.647 0 01-.192 1.841" fill="#F09D26"/><path d="M341.723 282.191h-1.028v-5.506h1.003c.152.556.376 1.186.699 1.841a33.792 33.792 0 01-.674 3.665zm-1.7 0h-4.99v-.814a29.354 29.354 0 001.647-4.692h3.343v5.506" fill="#F09210"/><path d="M340.692 282.191h-.671v-5.506h.671v5.506zm-5.659 0h-.381c.129-.268.258-.54.381-.814v.814z" fill="#F09210"/><path d="M342.022 276.685h-.782l-.014-.008c-2.148-1.474-3.198-3.418-3.712-4.973.014-.164.023-.329.035-.493h4.473v5.474z" fill="#F09D26"/><path d="M341.238 276.685h-4.56a29.4 29.4 0 00.835-4.981c.514 1.555 1.566 3.499 3.714 4.973l.011.008m1.348 0h-.568v-5.474h.571a36.498 36.498 0 01-.003 5.467v.007z" fill="#F09210"/><path d="M342.588 271.211h-1.477a.929.929 0 00-.055-.039c-2.008-1.392-3.045-3.195-3.584-4.695-.023-.216-.043-.432-.071-.646h1.206v.002h.67v-.002h2.486c.046.194.088.391.132.587v4.793h.672v-.279.007c.007.078.014.155.018.233l.003.039" fill="#F09D26"/><path d="M341.112 271.211h-3.565a29.582 29.582 0 00-.076-4.734c.539 1.499 1.579 3.303 3.586 4.694.018.013.034.026.055.04zm1.455 0h-.672v-4.79c.319 1.467.545 2.974.672 4.511v.279zm-.803-5.38h-2.486v-5.514h.692a33.955 33.955 0 011.761 5.379c.012.043.021.09.033.135zm-3.159 0h-1.203a29.367 29.367 0 00-1.194-5.514h2.397v5.514zm.673.002h-.671v-5.516h.671v5.516zm.693-5.516h-3.763a29.5 29.5 0 00-2.411-5.507h1.883v.001h.67v-.001h.666c.259.39.511.788.757 1.195v4.312h.672v-3.149a33.384 33.384 0 011.526 3.149" fill="#F09210"/><path d="M338.445 260.317h-.672v-4.312c.233.381.455.766.672 1.162v3.15m-1.429-5.508h-.664v-.957c.225.313.446.63.66.95l.004.007zm-1.336 0h-1.882a29.53 29.53 0 00-3.109-4.466v-.918h1.814a31.387 31.387 0 013.177 3.527v1.857zm-5.661-5.234l-.136-.15h.136v.15z" fill="#F09210"/><path d="M336.353 254.811h-.672v-1.859c.231.296.454.595.672.899v.96zm-5.663-4.468a35.069 35.069 0 00-.669-.769v-.149h.669v.918z" fill="#F09210"/><path d="M332.501 249.426h-2.62a29.593 29.593 0 00-6.79-5.508h1.241c2.945 1.316 5.65 3.143 8.029 5.38.047.041.092.085.14.128" fill="#F09210"/><path d="M324.333 243.918h-1.243a28.953 28.953 0 00-2.736-1.427c1.36.372 2.682.847 3.963 1.42l.016.007z" fill="#F09210"/><path d="M314.713 298.044a1.168 1.168 0 01-.158-.335c-.013-.044-.027-.087-.034-.132a1.166 1.166 0 01-.014-.117v-3.238a.941.941 0 01.048-.246c.146-.512.641-.892 1.229-.892h-6.315c-.588 0-1.083-.381-1.229-.891a1.397 1.397 0 01-.034-.131 1.127 1.127 0 01-.014-.115v-3.238c.003-.04.007-.08.014-.117a1.46 1.46 0 01.034-.13c.146-.513.641-.893 1.229-.893h2.462a1.2 1.2 0 01-.679-.948.19.19 0 01-.007-.054v-3.238a.918.918 0 01.048-.247c.146-.511.641-.891 1.226-.891h1.414c-.584 0-1.081-.38-1.227-.891a1.556 1.556 0 01-.034-.13.876.876 0 01-.011-.117l-.002-.061v-3.114l.002-.063c.002-.036.004-.074.011-.108.08-.533.541-.956 1.113-1.022h-4.193c-.588 0-1.083-.38-1.229-.889a1.503 1.503 0 01-.034-.132c-.007-.038-.009-.079-.011-.117v-3.238c.002-.016.002-.034.002-.05.052-.519.461-.945.992-1.059-.572-.065-1.031-.493-1.108-1.026a1.77 1.77 0 01-.012-.102v-3.239a1.094 1.094 0 01.048-.246c.146-.511.641-.891 1.229-.891h2.462a1.206 1.206 0 01-.679-.951.181.181 0 01-.007-.054v-3.234a.89.89 0 01.048-.249c.146-.511.641-.891 1.226-.891h4.827c-.586 0-1.081-.379-1.227-.891a1.397 1.397 0 01-.034-.131c-.009-.036-.011-.078-.014-.115l-.002-.063v-3.114l.002-.061c.005-.056.014-.108.025-.161.103-.509.548-.907 1.099-.972h-7.603c-.588 0-1.083-.378-1.229-.889a1.397 1.397 0 01-.034-.131c-.007-.036-.009-.078-.011-.115v-3.239c.002-.037.004-.079.011-.117.009-.045.021-.088.034-.131.146-.511.641-.889 1.229-.889h3.773a1.221 1.221 0 01-.691-.886c-.004-.025-.009-.05-.009-.077l-.004-.049-.002-.061v-3.116l.002-.061c.002-.036.004-.074.011-.108.08-.533.541-.958 1.113-1.023.05-.005.1-.007.148-.007h1.712c-.577-.059-1.04-.48-1.124-1.015a1.1 1.1 0 01-.014-.117v-1.211c2.009.093 3.965.408 5.848.923a29.608 29.608 0 0110.335 7.853 29.82 29.82 0 013.109 4.466 29.608 29.608 0 012.412 5.508 29.445 29.445 0 011.193 5.514c.027.214.047.43.07.646.087.934.135 1.881.135 2.837 0 .637-.021 1.271-.062 1.897-.011.164-.02.329-.034.493a29.567 29.567 0 01-.834 4.981 29.35 29.35 0 01-5.515 11.021c-.196.243-.395.486-.598.724a29.494 29.494 0 01-5.011 4.654 29.338 29.338 0 01-10.842 4.96" fill="#E2810E"/><path d="M276.108 269.314c0-16.274 13.192-29.465 29.464-29.465 16.274 0 29.467 13.191 29.467 29.465 0 16.272-13.193 29.464-29.467 29.464-16.272 0-29.464-13.192-29.464-29.464z" fill="#FFB93E"/><path d="M305.571 244.418c-13.919 0-25.242 11.324-25.242 25.243 0 13.92 11.323 25.245 25.242 25.245s25.245-11.325 25.245-25.245c0-13.919-11.326-25.243-25.245-25.243zm0 52.088c-7.169 0-13.913-2.791-18.98-7.862-5.071-5.071-7.865-11.812-7.865-18.983 0-7.169 2.794-13.912 7.865-18.981 5.067-5.07 11.811-7.864 18.98-7.864 7.171 0 13.913 2.794 18.984 7.864 5.069 5.069 7.864 11.812 7.864 18.981 0 7.171-2.795 13.912-7.864 18.983-5.071 5.071-11.813 7.862-18.984 7.862" fill="#FFA412"/><path d="M127.595 205.103c0-18.391 14.909-33.3 33.3-33.3 18.393 0 33.302 14.909 33.302 33.3 0 18.392-14.909 33.301-33.302 33.301-18.391 0-33.3-14.909-33.3-33.301z" fill="#E2810E"/><path d="M124.69 205.103c0-18.391 14.909-33.3 33.3-33.3 18.392 0 33.302 14.909 33.302 33.3 0 18.392-14.91 33.301-33.302 33.301-18.391 0-33.3-14.909-33.3-33.301z" fill="#FFB93E"/><path d="M157.99 176.967c-15.731 0-28.53 12.798-28.53 28.53 0 15.732 12.799 28.53 28.53 28.53 15.732 0 28.532-12.798 28.532-28.53 0-15.732-12.8-28.53-28.532-28.53zm0 58.87c-8.104 0-15.723-3.157-21.453-8.886-5.731-5.731-8.887-13.351-8.887-21.454 0-8.104 3.156-15.723 8.887-21.455 5.73-5.729 13.349-8.886 21.453-8.886 8.105 0 15.723 3.157 21.454 8.886 5.731 5.732 8.887 13.351 8.887 21.455 0 8.103-3.156 15.723-8.887 21.454-5.731 5.729-13.349 8.886-21.454 8.886" fill="#FFA412"/><path d="M361.195 206.627s-3.13 4.407-5.998 4.468c-2.871.061-7.237-2.043-7.237-2.043s-2.633-5.872-.846-8.169c0 0 1.791-.786 3.666.602.322.241.649.541.969.93.456.546.965.857 1.506 1.021 2.049.622 4.478-.843 5.387.572a9.633 9.633 0 001.583 1.874c.56.5.97.745.97.745m-40.806 31.785s11.065-26.806 30.978-27.317c0 0 18.379 2.043 19.402 27.317h-50.38z" fill="#FFEDDC"/><path d="M345.911 211.914s7.98 1.775 10.444.731c0 0 .372-3.337-2.989-2.869-2.301.32-3.8-.785-4.682-1.234-1.246-.635-3.104 1.975-2.773 3.372z" fill="#DB6A1D"/><path d="M352.858 206.883c-.51.383-2.079-5.399-2.079-5.399.321.242.649.542.97.931.456.545.964.857 1.506 1.021.005.169.098 3.074-.397 3.447m7.366-1.001c-.111.067-3.804 2.277-4.303 2.277-.512 0 2.721-4.151 2.721-4.151a9.632 9.632 0 001.582 1.874z" fill="#E5C1A1"/><path d="M331.199 230.923c-.204-.175 7.83-11.83 10.043-11.914 2.212-.085 7.185 2.552 10.781 2.892 3.599.34 7.088-.68 7.769 1.448.681 2.127 2.553 9.669 1.406 10.877-1.151 1.206-25.58.47-29.999-3.303" fill="#F9DDBF"/><path d="M252.772 169.452s-2.475 3.484-4.744 3.533c-2.268.049-5.721-1.616-5.721-1.616s-2.082-4.643-.669-6.459c0 0 1.416-.623 2.898.475.253.191.513.429.766.737.36.432.764.676 1.192.806 1.618.493 3.541-.666 4.259.452a7.521 7.521 0 001.253 1.483c.442.394.766.589.766.589m-32.264 25.133s8.745-21.197 24.492-21.6c0 0 14.535 1.614 15.342 21.6h-39.834z" fill="#FFEDDC"/><path d="M240.687 173.631s6.311 1.404 8.259.58c0 0 .293-2.639-2.364-2.27-1.82.254-3.004-.621-3.702-.976-.985-.502-2.456 1.563-2.193 2.666z" fill="#DB6A1D"/><path d="M246.179 169.653c-.403.303-1.643-4.268-1.643-4.268.253.191.513.429.766.737.36.432.764.676 1.192.806.004.133.077 2.43-.315 2.725m5.827-.79c-.09.052-3.008 1.8-3.404 1.8-.405 0 2.151-3.283 2.151-3.283a7.555 7.555 0 001.253 1.483z" fill="#E5C1A1"/><path d="M229.052 188.663c-.162-.139 6.19-9.353 7.94-9.421 1.75-.067 5.681 2.019 8.527 2.288 2.845.27 5.605-.539 6.143 1.144.538 1.682 2.018 7.647 1.111 8.601-.909.954-20.227.372-23.721-2.612" fill="#F9DDBF"/><path d="M198.148 236.817s6.088 8.569 11.669 8.688c5.582.121 14.073-3.972 14.073-3.972s5.124-11.421 1.649-15.891c0 0-3.487-1.528-7.13 1.174a10.835 10.835 0 00-1.888 1.807c-.884 1.062-1.878 1.669-2.931 1.985-3.981 1.212-8.708-1.638-10.476 1.113a18.7 18.7 0 01-3.08 3.645c-1.092.974-1.886 1.451-1.886 1.451zm79.37 61.822s-21.52-52.14-60.251-53.134c0 0-35.754 3.973-37.742 53.134h97.993" fill="#FFEDDC"/><path d="M227.877 247.098s-15.525 3.453-20.315 1.424c0 0-.724-6.493 5.814-5.582 4.475.623 7.389-1.528 9.104-2.399 2.427-1.235 6.041 3.841 5.397 6.557" fill="#DB6A1D"/><path d="M214.366 237.313c.994.744 4.043-10.497 4.043-10.497a10.835 10.835 0 00-1.888 1.807c-.884 1.062-1.878 1.669-2.931 1.985-.009.328-.187 5.98.776 6.705m-14.332-1.947c.22.129 7.4 4.43 8.372 4.43.994 0-5.292-8.075-5.292-8.075a18.7 18.7 0 01-3.08 3.645z" fill="#E5C1A1"/><path d="M256.495 284.074c.398-.34-15.228-23.008-19.532-23.173-4.304-.166-13.973 4.964-20.974 5.626-7 .663-13.786-1.324-15.111 2.814-1.324 4.138-4.966 18.81-2.73 21.157 2.234 2.347 49.755.916 58.347-6.424" fill="#F9DDBF"/><path d="M195.646 170.864s-.491-2.422 5.083-9.876c1.203-1.608 4.871-7.663 4.871-7.663 1.451-.352 5.965 2.047 7.157 2.78.239.147.378.235.378.235s1.931 8.378-2.175 7.427a5.628 5.628 0 00-.383-.075c-3.971-.618-7.803 3.321-9.544 5.823-1.134 1.625-4.633 1.416-5.387 1.349m29.426-16.279s-.491-2.421 5.085-9.874c1.203-1.61 4.871-7.665 4.871-7.665 1.449-.351 5.965 2.049 7.155 2.779.239.148.378.238.378.238s1.931 8.375-2.173 7.425a4.829 4.829 0 00-.385-.074c-3.969-.619-7.801 3.321-9.543 5.821-1.134 1.626-4.633 1.417-5.388 1.35z" fill="#233862"/><path d="M287.881 113.123c-1.14-4.901-13.822-20.18-20.318-16.64-6.494 3.538-3.125 22.756 3.645 45.42.104.346.21.69.318 1.031-13.649-2.24-29.892-2.921-29.892-2.921l-1.711 7.892c12.299 3.398 36.19 15.209 46.208 20.294 3.832 1.737 8.332 1.737 9.247-1.633 3.068-11.284-7.497-53.443-7.497-53.443" fill="#ED7D2B"/><path d="M263.666 183.724s-29.028-13.099-46.729-18.393c-2.192-.653-4.208-1.186-5.976-1.564l1.863-7.59s1.734-.031 4.548-.027c11.022.03 38.617.648 43.549 6.057 6.187 6.793 2.745 21.517 2.745 21.517zM285.6 4.173c.955 2.196 1.716 5.075 1.068 6.593-.731 1.72-.529 2.965-.529 2.965l-1.56.381-1.864.455s-.099-.16-.249-.432-.348-.657-.546-1.107c0 0-.086-.823-.882-1.2-.793-.377-1.626-1.333-1.78-2.262-.153-.926-1.103-2.654-.834-2.835.655-.443 1.634 2.247 2.21 2.368.521.107.688-.26.714-.333l.005-.014c.905-2.198-.766-7.748.559-8.055.494-.115 3.282 2.542 3.688 3.476M185.15 48.475c1.622 1.759 3.947 3.62 5.596 3.642 1.87.027 2.929.714 2.929.714l.979-1.272 1.168-1.523s-.106-.155-.295-.401c-.187-.247-1.51-1.36-1.534-2.238-.021-.878-.561-2.029-1.346-2.543-.787-.513-1.984-2.081-2.259-1.908-.668.417 1.397 2.403 1.274 2.977-.111.52-.516.524-.594.518l-.014-.002c-2.378-.059-6.777-3.83-7.594-2.743-.304.407.999 4.03 1.69 4.78z" fill="#FFB27D"/><path d="M255.382 116.781c-7.16 1.857-5.365 10.467-4.295 34.096.121 2.674.37 5.256.722 7.719-10.492-2.108-26.626-2.425-34.436-2.446 0 0-1.297 2.885-1.24 5.191.119 4.908 2.626 8.154 2.626 8.154 17.699 5.293 44.908 14.229 44.908 14.229l.003-.022c1.815.472 3.522-.435 4.881-3.035 5.411-10.366 14.672-79.347 14.672-79.347.083-5.03-20.684 13.603-27.841 15.461" fill="#F99746"/><path d="M243.691 63.826s2.519-6.381-2.376-15.486l6.959 1.547 4.729 1.05s.781 1.612 1.803 4.607c.27.789 1.269 3.951 1.563 4.928 1.661.07-.735 2.589-4.147 3.084-3.797.55-8.531.27-8.531.27" fill="#FFB27D"/><path d="M253.003 50.936s.781 1.613 1.803 4.608c-4.06 1.213-11.305-2.736-11.305-2.736 1.634-1.494 3.254-2.421 4.773-2.922l4.729 1.05" fill="#ED975D"/><path d="M256.128 48.555s-8.062 8.917-13.537 3.81c-5.476-5.107-10.204-7.394-5.288-13.304 4.914-5.908 8.023-5.05 10.265-3.79 2.241 1.26 10.516 10.834 8.56 13.284z" fill="#FFB27D"/><path d="M242.136 51.815s.828-.916-.368-2.106c-1.194-1.19-2.557-2.908-1.234-3.435 1.321-.53 2.052.283 2.093-.563.042-.847-1.619-2.957 1.442-5.625 3.059-2.668 5.228-2.587 6.19-4.408.961-1.821-.737-4.119-.737-4.119s.215 1.132-.219 1.89c0 0-.21-5.326-4.898-5.374-4.689-.045-6.395 3.777-7.967 5.189-3.464 3.108-5.64 5.19-4.93 8.524.709 3.333 6.47 9.58 10.628 10.027" fill="#2B478B"/><path d="M251.089 46.699l2.992-2.816s1.217 1.867.362 2.677c-.853.81-3.354.139-3.354.139" fill="#fff"/><path d="M291.243 29.835c-1.278-7.914-5.129-16.615-5.129-16.615l-4.194-.19s.466 10.72.361 18.218c-.048 3.602-1.623 6.858-2.051 7.434-1.302 1.742-20.478 20.2-21.119 20.788l-.016.016h.004c-2.043.348-1.816 3.7-3.913 4.263-3.495.938-9.299-.77-12.407.381 0 0-24.899.029-28.688-1.787-3.79-1.815-18.565-12.708-18.565-12.708l-2.736 3.188s10.142 19.524 18.182 23.035c4.375 1.912 13.987 4.215 21.84 5.914a8.801 8.801 0 016.532 6.008c7.389 23.819 3.67 43.906 3.67 43.906s7.08.793 15.892-1.654c11.459-3.184 19.828-8.34 19.828-8.34 3.23-3.914 1.321-18.269 1.321-18.269s2.228 2.407 2.975 6.428a599.95 599.95 0 011.007 5.519 1.309 1.309 0 002.067.825c1.655-1.225 4.02-3.133 4.757-4.536 2.579-4.895-3.158-24.833-11.081-38.746a7.79 7.79 0 01.149-7.973c4.875-7.819 12.368-20.221 12.461-22.71.05-1.348-.41-7.846-1.147-12.394" fill="#2B478B"/><path d="M254.642 65.544s6.686 9.484 1.784 18.651c-4.903 9.167-24.159 7.902-27.724 19.352l2.168 7.13 8.049-4.361s.673-6.191 8.593-8.879c15.469-5.252 19.194-14.323 15.947-22.44-2.743-6.86-6.717-10.163-6.717-10.163l-2.1.71m-10.328-5.217l7.753 2.56.382 1.47-9.668-.229s.513-2.223 1.533-3.801m11.342-2.131l.259 4.008s1.015.83 1.003.72c-.015-.11 2.18-3.438 2.18-3.438s-1.822-.875-3.442-1.29z" fill="#F99746"/><path d="M252.067 62.888l3.951-1.335a.604.604 0 01.792.498l.326 2.657a.606.606 0 01-.405.646l-1.741.589a.603.603 0 01-.556-.09l-2.538-1.912a.603.603 0 01.171-1.053z" fill="#ED7D2B"/><path d="M281.728 12.468l-.35 3.329s4.202.063 4.202 0c0-.064.127-1.65.127-1.65l.701 1.84 1.558-.508-1.786-3.011s-1.781.841-4.452 0zm-86.201 37.167l-2.736 3.188.803 3.11 1.114-.763-.549-2.339 1.917 1.574 2.482-3.278-3.031-1.492z" fill="#233862"/><path d="M194.931 52.56a.255.255 0 11.51 0 .255.255 0 01-.51 0zm89.872-37.995a.2.2 0 11.401 0 .2.2 0 11-.401 0zm-6.607 77.494a.54.54 0 111.082-.003.54.54 0 01-1.082.003zm-4.301-8.952a.543.543 0 011.085 0 .542.542 0 01-1.085 0zm-5.917-6.775a.541.541 0 111.083.001.541.541 0 01-1.083 0z" fill="#EBF3FA"/><defs><clipPath id="clip0"><path fill="#fff" transform="rotate(.463 -30904.03 36036.559)" d="M0 0h34v36H0z"/></clipPath><clipPath id="clip1"><path fill="#fff" transform="rotate(16.416 -564.218 602.154)" d="M0 0h34v36H0z"/></clipPath></defs></svg>