<svg width="100" height="96" fill="none" xmlns="http://www.w3.org/2000/svg"><path d="M37.897 78.677a8.479 8.479 0 01-11.638-2.923c-2.407-4.025-1.1-9.242 2.92-11.652a8.478 8.478 0 0111.638 2.924c2.407 4.025 1.1 9.242-2.92 11.651zm4.805-12.782a10.03 10.03 0 00-.296-.468l1.333-1.52c-.323-.444-.673-.86-1.043-1.25l-1.73 1.046a10.678 10.678 0 00-.834-.728l.8-1.86a12.719 12.719 0 00-1.38-.865l-1.323 1.532a10.45 10.45 0 00-1.017-.433l.187-2.015a12.756 12.756 0 00-1.58-.397l-.785 1.865a10.58 10.58 0 00-1.1-.099l-.446-1.976c-.54.001-1.083.037-1.623.11l-.172 2.018c-.362.063-.721.145-1.079.247l-1.031-1.74a12.5 12.5 0 00-1.51.61l.459 1.97a10.038 10.038 0 00-.95.568l-1.517-1.334c-.444.324-.86.674-1.25 1.044l1.046 1.733c-.259.266-.5.546-.728.835l-1.858-.802a12.54 12.54 0 00-.862 1.382l1.53 1.326c-.162.332-.307.671-.433 1.017l-2.013-.186a12.642 12.642 0 00-.396 1.58l1.862.787c-.052.365-.084.733-.098 1.102l-1.974.446c.002.542.037 1.084.11 1.625l2.015.172c.064.362.146.723.248 1.08l-1.738 1.033c.169.511.37 1.016.608 1.512l1.967-.46a11.34 11.34 0 00.57.95l-1.334 1.52c.323.444.673.86 1.043 1.25l1.73-1.045c.267.258.546.501.835.728l-.801 1.86c.443.32.903.607 1.38.864l1.323-1.532c.333.162.672.307 1.017.434l-.186 2.014c.517.166 1.045.3 1.579.398l.785-1.865c.365.052.732.084 1.101.099l.445 1.976a12.667 12.667 0 001.624-.11l.171-2.018c.362-.064.722-.146 1.079-.248l1.031 1.74a12.64 12.64 0 001.51-.609l-.459-1.97a10.38 10.38 0 00.95-.57l1.518 1.336c.443-.325.858-.674 1.248-1.045l-1.044-1.732c.258-.267.5-.546.726-.835l1.859.801c.319-.443.606-.905.863-1.381l-1.53-1.326c.161-.332.306-.671.433-1.017l2.012.186c.166-.518.297-1.046.396-1.581l-1.861-.786c.051-.366.083-.733.097-1.103l1.974-.446a12.652 12.652 0 00-.109-1.624l-2.016-.173a10.637 10.637 0 00-.247-1.08l1.737-1.033a12.483 12.483 0 00-.608-1.51l-1.968.459a9.843 9.843 0 00-.272-.483" fill="#fff"/><path d="M55.09 91.404a6.733 6.733 0 01-9.006-3.113 6.75 6.75 0 013.11-9.017 6.733 6.733 0 019.005 3.113 6.75 6.75 0 01-3.11 9.017zm6.593-9.89a10.516 10.516 0 00-.297-.68c-.11-.224-.228-.44-.35-.653l-2.025.428a8.335 8.335 0 00-1.225-1.412l.71-1.952a10.192 10.192 0 00-1.225-.828l-1.545 1.388a8.356 8.356 0 00-1.763-.61l-.36-2.046c-.487-.07-.979-.106-1.473-.106l-.645 1.975a8.294 8.294 0 00-1.834.355l-1.33-1.588a10.65 10.65 0 00-.678.298c-.225.109-.44.228-.652.35l.426 2.028a8.264 8.264 0 00-1.41 1.226l-1.95-.71c-.305.39-.581.799-.826 1.225l1.386 1.548a8.456 8.456 0 00-.61 1.765l-2.043.36c-.07.487-.105.98-.105 1.475l1.972.646a8.32 8.32 0 00.354 1.837L42.6 89.165c.091.228.188.454.297.679.109.224.227.44.35.652l2.026-.427c.358.524.77.994 1.224 1.412l-.71 1.952c.39.306.799.583 1.224.827l1.545-1.388a8.368 8.368 0 001.764.61l.36 2.047c.487.07.979.105 1.474.105l.644-1.975a8.283 8.283 0 001.834-.354l1.33 1.588c.228-.092.454-.19.678-.298.224-.11.44-.228.652-.35l-.426-2.028c.522-.36.993-.773 1.41-1.227l1.95.711c.305-.39.581-.8.825-1.226l-1.386-1.547a8.357 8.357 0 00.61-1.765l2.043-.36c.071-.488.106-.98.106-1.476l-1.973-.645a8.306 8.306 0 00-.353-1.837l1.585-1.332m18.995-59.624c-4.778.185-8.8-3.544-8.984-8.328-.184-4.783 3.539-8.811 8.317-8.996 4.777-.184 8.8 3.544 8.984 8.328.185 4.783-3.54 8.812-8.317 8.996zm12.868-8.22c.01-.315.013-.632.002-.951-.013-.32-.04-.637-.075-.95l-2.603-.546a10.683 10.683 0 00-.711-2.296l1.843-1.929c-.3-.561-.638-1.099-1.012-1.607l-2.535.832a10.812 10.812 0 00-1.76-1.63l.634-2.595a13.12 13.12 0 00-1.678-.888L83.87 3.1a10.622 10.622 0 00-2.34-.533L80.786.009c-.314-.01-.632-.013-.95-.001-.32.013-.636.04-.949.075l-.546 2.606c-.8.151-1.567.394-2.292.712l-1.927-1.846c-.56.3-1.097.64-1.605 1.014l.831 2.538a10.767 10.767 0 00-1.629 1.762l-2.59-.635a13.256 13.256 0 00-.887 1.68l1.986 1.782a10.66 10.66 0 00-.531 2.343l-2.554.747c-.01.314-.014.63-.001.951.012.32.04.636.074.95l2.603.546c.152.802.394 1.57.712 2.296l-1.844 1.929c.3.561.639 1.098 1.012 1.607l2.535-.832a10.815 10.815 0 001.76 1.63l-.634 2.594c.535.335 1.097.632 1.679.888l1.778-1.99c.748.262 1.531.445 2.341.534l.745 2.557c.315.01.631.012.951 0 .32-.012.634-.04.948-.074l.545-2.607a10.614 10.614 0 002.293-.712l1.927 1.846c.56-.3 1.097-.639 1.605-1.014l-.831-2.537a10.795 10.795 0 001.629-1.762l2.59.634c.335-.536.63-1.097.886-1.68l-1.986-1.781c.261-.748.443-1.533.533-2.344l2.553-.746" fill="#2B6299"/><path d="M88.794 23.925l-.035-.025a14.54 14.54 0 01-.608-.261c-.02.018.148.115.643.286z" fill="#DB0081"/><path d="M4.613 55.522c-2.804-1.123-4.793-2.224-4.6-2.88.234-.796 1.546-1.094 3.141-1.094.949 0 1.997.105 2.979.275a35.573 35.573 0 00-1.52 3.699" fill="#D2BED8"/><path d="M19.166 59.343c-2.86 0-9.853-1.94-14.553-3.821a35.571 35.571 0 011.52-3.7c1.046.18 2.018.433 2.712.707 2.444.965 13.13.554 16.387 2.095 3.257 1.541-.04 4.574-5.924 4.718a5.968 5.968 0 01-.142.001" fill="url(#paint0_linear)"/><path d="M9.799 41.48l-.405.021c-.833.044-.083.005.405-.02z" fill="#DB0081"/><path d="M24.764 8.047c.78-.147 2.42-.923 2.11-1.833-.308-.91-1.139-.875-1.323-1.454-.185-.58-2.153-2.823-3.988-2.127-1.835.696-1.586 2.105-3.271 2.035-1.686-.07-3.79 3.698-3.644 5.182.145 1.484-2.194 2.863-2.022 4.744.32 3.514 3.258 3.542 4.115 3.346 6.685-1.523 8.023-9.893 8.023-9.893" fill="#000"/><path d="M21.567 12.428c3.102 2.142 4.607 9.62 4.807 10.988.252 1.713-.332 2.721-1.3 2.49-.969-.231-3.765-7.42-3.955-8.427-.19-1.006.448-5.05.448-5.05z" fill="#F4BA8E"/><path d="M21.87 12.528c1.87.864 3.81 5.87 3.802 5.961-.009.09-3.014 2.934-3.014 2.934l-1.96-1.654 1.172-7.241" fill="#EA6BB6"/><path d="M25.465 17.933c.186-.22.919 1.375.712 1.658-.206.284-3.665 3.48-3.665 3.48l-.732-1.333 3.685-3.805" fill="#FF98C6"/><path d="M31.755 27.111c1.911.137 3.457.315 3.845.022.387-.293.437-.757-.855-1.19-1.291-.434-5.796-1.724-7.067-1.98-1.271-.254-3.077-.13-3.339.94-.387 1.795 5.505 2.072 7.416 2.209" fill="#F4BA8E"/><path d="M33.704 27.241c.571.084.995.079 1.384.074.338-.005.65-.01 1.007.045.254.04 1.233.2 1.31.053.078-.146-1.063-.32-.98-.38.032-.024.343.02.685.062.434.054.918.108.95.028.055-.144-1.373-.421-1.322-.476.037-.039.408.002.793.042.436.046.89.092.896.021.017-.214-1.62-.305-1.597-.4.007-.025.2-.015.436-.005.37.017.845.033.882-.085.059-.194-1.887-.36-2.1-.342-.213.018.934-.826.67-1.099-.139-.143-.972.453-1.49.996-.401.422-.902.029-1.587-.179-.41-.124-.232 1.611-.232 1.611l.295.034M14.794 39.53c-.226-.3-1.022.311-1.288.152-.36.395-.564.631-.564.631s-3.043.227-4.727 1.49c-1.463 1.099-4.727 5.418-4.727 5.418l.964 1.388s7.638-4.006 8.59-4.299c.476-.147 2.204-.629 3.056-1.54.748-1.006-.717-2.11-1.304-3.24" fill="#F4BA8E"/><path d="M20.866 26.918c-3.069-2.642-6.599-1.832-7.706 1.511-1.197 3.614-.734 9.848-.513 12.1a2.53 2.53 0 01.99-.091c1.23.32 2.33.916 2.575 2.146 1.394-2.873 6.397-14.166 4.654-15.666" fill="#F4BA8E"/><path d="M22.211 26.742c2.265 1.153-.439 14.584-.359 16.931.034.996-.915 11.339-.915 11.339l-1.595.07s-1.457-6.01-1.729-7.82c-.312-2.085.613-4.205.613-4.205s-3.522-8.326-3.142-13.017c.284-3.511 3.52-5.136 7.127-3.298" fill="#F4BA8E"/><path d="M13.479 27.277c-.58.95-1.452 6.894-1.574 8.264l-.29 3.272s4.983 2.4 6.694 2.399c1.711-.002 4.156-.206 4.156-.206s1.762-10.506.351-13.163c-1.412-2.656-9.337-.566-9.337-.566" fill="#000"/><path d="M21.024 54.05c.792 1.934 3.552 2.521 3.226 3.063-.325.541-4.042.059-4.6-.503-.56-.56-.476-2.222-.476-2.222l1.85-.339" fill="#DB0081"/><path d="M13.466 27.69c-.004-2.797 1.646-2.933 1.669-4.848.023-1.915.053-3.803.023-5.115-.03-1.311-.46-5.84 4.116-6.435 3.952-.513 4.295 3.512 4.659 5.57.614 3.479-1.378 3.97-1.697 6.865-.09.808 1.336 4.814 1.336 4.814s-2.455 1.196-4.745 1.354c-1.823.126-5.36-2.204-5.36-2.204" fill="#FF98C6"/><path d="M21.288 12.611c-.354.394-1.953-.679-2.19-1.037-.24-.357.132-1.248.32-2.116.187-.868.723-.709 1.315-.435.591.274 1.045 3.042.555 3.588z" fill="#EE9956"/><path d="M22.617 3.898c1.258.161 2.555 1.383 2.156 3.081-.451 1.922-1.089 3.933-3.073 4.158-1.16.132-2.744-1.288-2.443-3.243.299-1.944-.488-1.426-.218-2.084.301-.737.497-.278.577-.425.61-1.129 1.532-1.676 3.001-1.487z" fill="#F4BA8E"/><path d="M23.285 8.394c.273.303-.02 1.978-.345 2-.326.02-.671-.058-.736-.203-.065-.144 1.015-1.87 1.081-1.797z" fill="#EE9956"/><path d="M18.395 12.464c2.309 3.397.982 10.507.648 11.976-.42 1.84-1.408 2.633-2.301 2.017-.893-.617-.908-9.02-.704-10.118.203-1.098 2.357-3.875 2.357-3.875z" fill="#F4BA8E"/><path d="M17.143 11.735c.795-.313 1.682.098 1.988.896.882 2.3.876 6.313.84 6.385-.043.09-4.214 1.794-4.214 1.794s-.544-3.43-.451-6.388c.051-1.625.996-2.357 1.837-2.688" fill="#EA6BB6"/><path d="M20.445 18.386c.276-.15.393 1.758.072 1.965-.321.207-5.091 2.09-5.091 2.09l-.219-1.643 5.238-2.412" fill="#FF98C6"/><path d="M23.055 30.314c1.887.892 3.387 1.682 3.896 1.537.508-.145.741-.596-.4-1.545-1.141-.95-5.21-4.036-6.4-4.796-1.191-.76-3.073-1.345-3.76-.362-1.1 1.671 4.776 4.275 6.664 5.166" fill="#F4BA8E"/><path d="M24.984 31.214c1.024.582 1.648.641 2.381 1.063.243.14 1.174.688 1.31.57.137-.117-.954-.744-.846-.772.095-.025 1.511.86 1.624.736.114-.125-1.227-.969-1.155-1.004.113-.054 1.628.86 1.69.73.103-.212-1.524-.95-1.463-1.037.04-.058 1.237.601 1.373.428.137-.173-1.774-1.11-1.997-1.175-.224-.065 1.272-.47 1.112-.852-.085-.2-1.166.077-1.904.425-.574.27-.929-.327-1.543-.807-.367-.287-.87 1.545-.87 1.545l.288.15" fill="#F4BA8E"/><path d="M4.943 48.351c-1.462 1.552-.716 4.247-1.34 4.148-.622-.1-1.568-3.73-1.258-4.46.31-.73 1.442-1.21 1.442-1.21l1.156 1.522z" fill="#DB0081"/><path d="M24.813 7.587c-.43.572-.876-1.253-1.474-1.264-.599-.01-1.976.51-3.11.207-.59-.159-.613-1.144-.613-1.144l.555-1.393s1.266-.933 1.53-.97c.267-.037 2.532.707 2.532.707l1.565 2.412-.985 1.445" fill="#000"/><path d="M46.62 43.196c-4.81-.429-8.363-4.68-7.935-9.495.427-4.816 4.673-8.373 9.483-7.945 4.81.427 8.362 4.679 7.934 9.495-.427 4.815-4.673 8.373-9.482 7.945zM48.883 17.7c-9.253-.823-17.42 6.02-18.243 15.284-.822 9.264 6.012 17.441 15.265 18.264 9.252.824 17.419-6.019 18.242-15.282.822-9.265-6.012-17.442-15.264-18.266" fill="#FFC228"/><path d="M40.668 27.39c.066.059.13.12.196.18-.063-.06-.13-.12-.196-.18z" fill="#DB0081"/><path d="M61.564 41.145c-.913-1.473-1.994-2.881-3.56-3.693-.668-.344-1.356-.548-2.09-.7l-.073-.016a8.709 8.709 0 01-1.764 3.384c.053.042.107.082.165.116.186.13.378.25.556.393.02.016.08.066.133.112l.072.07c.328.346.65.714.95 1.084.136.167.257.345.386.517l.12.207c.226.405.418.824.597 1.25.187.449.364.9.545 1.35.071.268.154.539.252.797.098.261.244.499.362.752.065.138.147.269.24.393a16.844 16.844 0 003.783-4.76c-.2-.44-.432-.863-.674-1.256M37.366 30.722c.486.51 1.03.995 1.595 1.436a8.725 8.725 0 012.465-4.08c-.07-.06-.142-.12-.189-.165a24.03 24.03 0 00-.373-.343c-.131-.079-.248-.242-.355-.353a11.898 11.898 0 01-.677-.756c-.131-.162-.58-.598-.596-.804l.146.232a9.524 9.524 0 01-.378-.67 8.245 8.245 0 01-.37-.838c-.092-.246-.3-.586-.32-.845.089.282.1.31.035.084a5.865 5.865 0 01-.131-.632c-.019-.119-.029-.238-.042-.357v-.186c.009-.28.038-.562.063-.84.013-.138.037-.271.052-.407-.044.4.052-.31.066-.395.02-.123.055-.256.047-.382-.006-.087-.014-.105-.02-.105l.023-.075a16.89 16.89 0 00-4.155 3.724c.013.975.166 1.818.51 2.747.553 1.49 1.517 2.862 2.604 4.01m.372 5.761l-.092.058.092-.058zm2.803 3.43a8.739 8.739 0 01-1.83-4.396l-.04.054c-.058.084-.349.41-.06.1l-.292.315c-.106.095-.211.188-.32.28l-.17.145-.055.029-.12.064c-.14.077-.278.155-.425.22l-.091.037c-.102.027-.272.077-.314.086-.139.03-.278.053-.418.075-.608.091-1.22.16-1.832.218a98.282 98.282 0 01-3.741.292 16.77 16.77 0 001.736 5 79.747 79.747 0 003.46-.406c1.632-.231 3.398-.837 4.511-2.114m7.91 11.372c.481-.68.873-1.42 1.131-2.236.534-1.687.539-3.344-.217-4.967-.155-.334-.33-.657-.518-.97a8.767 8.767 0 01-3.878-.223c.007.092.013.21.02.362.074.596.229 1.188.338 1.778a8.048 8.048 0 01.096.666c.014.17.013.112-.004-.17.081.123-.029.607-.04.757a9.06 9.06 0 01-.049.432c-.08.246-.155.49-.26.73l-.064.141a2.747 2.747 0 01-.075.13c-.15.244-.319.473-.491.702-.155.203-.37.404-.513.62.113-.165.23-.226-.004.007l-.033.05.027-.045a9.961 9.961 0 01-.29.28c-.445.409-.92.776-1.362 1.189 1.16.37 2.377.62 3.64.732.86.077 1.71.087 2.546.035m8.726-25.626c-1.4.56-2.534 1.594-3.515 2.714a8.783 8.783 0 012.066 3.449 13.416 13.416 0 01.823-.634c.037-.027.109-.083.165-.128.185-.122.398-.222.589-.32.48-.247 1.006-.39 1.49-.62.134-.033.246-.058.359-.08.218-.042.438-.067.658-.092.132.005.264.007.395.016.14.01.308.015.469.034a12.455 12.455 0 01.52.165c.102.034.203.078.303.124.01-.009.123.025.242.104l.133.05-.115-.039c.105.071.204.148.307.222.349.253.762.422 1.15.613.224.11.469.163.72.17a16.803 16.803 0 00-2.653-6.428c-1.392-.116-2.82.164-4.106.68m-10.069-8.021a10.89 10.89 0 00-2.136 3.682c-.56 1.623-.75 3.261-.639 4.954a8.698 8.698 0 013.836-.517l.002-.108c.001-.027-.004-.214-.004-.308.002-.342.017-.685.03-1.028.017-.37.05-.739.1-1.106.029-.196.065-.391.099-.587l.013-.084.03-.101c.18-.642.393-1.267.684-1.869l.067-.135.028-.052c.076-.124.145-.253.218-.38.142-.253.292-.502.455-.744.32-.476.63-.885.968-1.258a17.073 17.073 0 00-1.975-.295 17.275 17.275 0 00-1.776-.064" fill="#FFDC85"/><path d="M38.686 24.515l-.052-.134c-.092-.246-.3-.586-.32-.845l.076.235a4.783 4.783 0 01-.095-.369 5.854 5.854 0 01-.086-.471c.72-.56 1.478-1.075 2.265-1.534a19.47 19.47 0 013.3-1.552c.57-.202 1.161-.362 1.752-.492.116-.025.251-.059.396-.09-.308.52-.574 1.067-.795 1.636-.265.102-.529.208-.793.313a21.714 21.714 0 00-3.077 1.498 20.56 20.56 0 00-2.57 1.805z" fill="#FFD773"/><path d="M35.6 26.942c-.268 0-.506-.326-.4-.587.127-.314.203-.565.391-.856.176-.272.39-.505.61-.743.414-.452.852-.87 1.32-1.267.225-.19.454-.377.688-.558l.008.057a5.865 5.865 0 00.173.783c-.002 0-.027-.078-.076-.235.02.26.228.599.32.845l.052.134a29.534 29.534 0 00-1.513 1.343c-.218.203-.432.403-.665.589-.235.187-.478.286-.73.442a.336.336 0 01-.179.053m9.528-6.043c.221-.569.486-1.116.795-1.636.22-.047.464-.09.692-.09.24 0 .462.047.625.183.12.1.215.286.136.443-.245.492-.896.611-1.38.779-.291.101-.58.209-.868.32" fill="#FFE8B0"/><path d="M33.012 33.078a.263.263 0 01-.253-.202c-.217-.796-.095-1.468.135-2.25.172-.584.424-1.553 1.018-1.834a.257.257 0 01.11-.026c.12 0 .229.09.258.215.073.312-.062.613-.147.914-.095.332-.211.656-.3.99-.189.706-.293 1.363-.59 2.034a.25.25 0 01-.231.159m22.144 8.728a1.32 1.32 0 01-.08-.003c-.133-.01-.208-.126-.208-.25 0-.241.087-.459.209-.662.227.241.45.494.665.748a1.167 1.167 0 01-.586.167zm2.663-4.445a6.992 6.992 0 00-.943-.365c.085-.37.172-.74.288-1.106.031-.1.128-.152.224-.152.09 0 .178.044.215.134.191.461.248.973.216 1.49" fill="#FFD773"/><path d="M55.742 41.64a18.78 18.78 0 00-.665-.75c.135-.224.311-.431.46-.631.313-.422.578-.871.784-1.354.267-.623.407-1.266.555-1.91.32.1.635.219.943.366-.043.695-.247 1.398-.502 1.996-.28.658-.818 1.846-1.575 2.282" fill="#FFE8B0"/><path d="M51.98 44.138c-.229 0-.441-.063-.588-.246-.064-.08-.078-.209-.012-.293.254-.322.712-.31 1.077-.43.43-.139.796-.4 1.213-.565a.267.267 0 01.097-.019c.17 0 .332.157.253.341-.217.507-.684.828-1.19 1.018-.236.09-.556.194-.85.194" fill="#FFD773"/><path d="M90.501 87.058c-1.986 0-3.91-.222-5.288-.715-4.275-1.534-19.057-1.077-18.994-3.276.038-1.366 3.39-1.692 7.537-1.692 2.529 0 5.355.121 7.905.202 4.243.133 18.035.808 17.706 3.008-.222 1.491-4.683 2.473-8.866 2.473z" fill="url(#paint1_linear)"/><path d="M64.344 31.49c-.218-1.04.036-1.639-.215-1.731-.252-.093-.144.883-.298.948-.154.065-.876-1.712-1.047-1.632-.173.08.393 1.334.35 1.37-.044.035-.879-1.328-.994-1.235-.115.093.725 1.467.643 1.511-.083.044-1.123-1.212-1.205-1.058-.081.155.807 1.223.846 1.345.04.123-.733-.728-.843-.609-.11.119 1.5 1.68 2.191 1.918.693.238.67-.367.572-.827" fill="#F4BA8E"/><path d="M63.408 32.065c.858 1.615 2.558 7.555 3.527 8.283 1.166.876 8.256 3.806 9.123 2.683.867-1.121-.2-5.338-.2-5.338-3.11 1.508-6.868.52-7.46.035-.457-.374-3.04-4.192-4.02-5.895l-.97.232" fill="#F4BA8E"/><path d="M73.508 37.9c-1.109.144-2.586.457-2.923.348l-.416-.133s-.93 3.478-.792 3.614c.137.137 2.411 1.087 2.411 1.087l1.72-4.916z" fill="#EA6BB6"/><path d="M72.714 80.397c-.232 1.498-3.694 1.522-3.957 2.321-.33 1 6.22.575 6.404-.294.046-.216.059-1.238-.243-2.02-1.084.17-1.212.448-2.204-.007z" fill="#000"/><path d="M67.343 64.291a51.326 51.326 0 00-.989 1.89c-.385.807.32 1.597.421 1.79.673 1.273 6.134 11.54 6.344 12.733.042.24.427-.17 1.51.005-.132-2.529-.12-6.802-.774-8.765-.715-2.143-2.003-2.952-2.444-3.173.305-.266.645-.565 1.011-.887-2.063-.59-4.024-1.787-5.079-3.593" fill="#F4BA8E"/><path d="M73.837 54.841s-1.843 2.296-2.605 3.086c-.51.53-2.745 3.73-4.17 6.34 1.054 1.804 3.693 3.304 5.755 3.895 3.673-3.236 9.58-9.262 10.11-10.706.769-2.095-9.09-2.615-9.09-2.615zM90.8 81.42c.094.127.157.23.176.298.247.887-1.922 2.351-1.384 3.462.538 1.111 3.62-1.391 3.984-2.62.09-.305-.255-1.162-.864-2.293-.584.505-1.217.922-1.912 1.153" fill="#000"/><path d="M85.214 70.127a94.425 94.425 0 00-.324-3.012c-1.572 1.344-3.534 1.997-5.457 2.425.802 1.55 1.545 2.846 2.167 3.506l.09.097c2.174 1.67 8.6 6.956 9.66 8.442.7-.219.558-.575 1.15-1.07-1.722-3.336-4.204-10.042-7.286-10.388z" fill="#F4BA8E"/><path d="M80.718 54.514c-.52-1.232 1.257-1.48.702-2.945-1.335-3.528-2.462-10.888-4.16-13.096-1.68-2.181-4.24-.8-5.319 1.08-1.08 1.882.18 13.975.603 14.274.78.552 1.453 1.481 1.712 2.16 2.483.488 4.326.057 6.462-1.473" fill="#fff"/><path d="M85.591 66.707c-.493-4.014-1.954-7.976-2.522-9.299-.717-1.67-1.783-2.529-2.136-3.395-2.298 1.254-4.632 1.259-7.029.474.334 1.348.413 3.247.67 3.898.772 1.954.836 3.262 1.654 4.791 1.075 2.014 1.94 4.537 2.958 6.506 1.923-.427 4.833-1.631 6.405-2.975" fill="#000"/><path d="M73.35 54.34c-.288-.038-.258.961.06 1.091.317.129 2.48.577 4.437.174 1.956-.403 3.36-1.211 3.45-1.494.035-.113-.202-.875-.532-.76-.33.115-2.083 1.014-3.597 1.204-1.515.19-3.818-.215-3.818-.215z" fill="#DB0081"/><path d="M67.77 48.31c2.49-.05 6.49-2.004 9.218-4.576a2.847 2.847 0 00.127-4 1.874 1.874 0 00-2.77.015l-1.965 2.18s-1.775 2.566-5.06 3.582c-3.284 1.015-7.023.557-7.023.557l-.117 1.054s4.443 1.25 7.59 1.187" fill="#F4BA8E"/><path d="M60.297 46.068c-.824-.669-1.004-1.296-1.257-1.209-.253.086.443.777.365.924-.078.148-1.758-.776-1.84-.606-.084.17 1.144.787 1.132.843-.011.054-1.516-.477-1.547-.332-.03.145 1.487.682 1.45.768-.038.085-1.634-.234-1.601-.062.034.172 1.396.44 1.504.51.108.07-1.028-.103-1.04.06-.011.162 2.222.358 2.91.107.687-.252.288-.707-.076-1.003" fill="#F4BA8E"/><path d="M74.272 37.794c-.23.33.595.64.968.663.339.02 1.023-.586 1.086-.719.448-.96.122-3.518-.67-3.624-.178-.023-.334.074-.465.25-.615.83-.436 2.732-.919 3.43z" fill="#EE9956"/><path d="M73.039 36.394c1.831.994 5.841-.626 6.223-3.274.382-2.649-2.422-4.836-4.923-2.868-2.501 1.968-2.557 5.46-1.3 6.142z" fill="#F4BA8E"/><path d="M74.246 32.112c-.644.357-1.8 1.395-1.587 1.71.213.314.666.387.666.387s1.207-2.255.921-2.097" fill="#EE9956"/><path d="M77.046 39.23c-.762-.394-2.162-.75-4.056 1.674-1.225 1.566-1.888 2.16-2.204 2.384a.284.284 0 00-.066.391l2.147 3.145a.297.297 0 00.383.097c1.012-.521 4.543-2.728 5.008-4.807.388-1.735-.917-2.731-1.212-2.884" fill="#EA6BB6"/><path d="M74.382 30.072c-.162-.842 3.418-1.558 6.244.08 2.827 1.638 2.625 3.996 2.139 4.422-.487.428-1.374-.44-1.374-.44s2.69 2.06 1.29 2.792c-1.4.732-2.784-1.113-2.784-1.113s1.248 2.268-.03 2.529c-1.279.26-2.557-2.56-2.557-2.56s.71-2.178.614-2.996c-.095-.819-3.369-1.812-3.543-2.714" fill="#000"/><defs><linearGradient id="paint0_linear" x1="44.022" y1="9.497" x2="83.041" y2="132.739" gradientUnits="userSpaceOnUse"><stop stop-color="#798ABF"/><stop offset=".009" stop-color="#798ABF"/><stop offset=".947" stop-color="#5071B2"/><stop offset="1" stop-color="#5071B2"/></linearGradient><linearGradient id="paint1_linear" x1="44.022" y1="9.497" x2="83.041" y2="132.739" gradientUnits="userSpaceOnUse"><stop stop-color="#798ABF"/><stop offset=".009" stop-color="#798ABF"/><stop offset=".947" stop-color="#5071B2"/><stop offset="1" stop-color="#5071B2"/></linearGradient></defs></svg>