<svg width="917" height="471" fill="none" xmlns="http://www.w3.org/2000/svg"><path d="M121.707 467.636S-55.36 290.457 54.6 184.52c109.961-105.937 196.872 31.59 256.976 21.458C387.656 193.152 420.559.183 534.29.001c129.404-.21 224.386 76.271 173.796 258.411-37.317 134.339 219.176 24.329 181.505 211.837l-767.884-2.613z" fill="#EBF2F9"/><path d="M507.907 444.614c-24.069-3.876-42.242 4.555-59.715 2.131-13.938-1.932-21.198-16.025-39.926-20.018 4.452-2.626 9.643-5.911 12.124-8.299 4.82-4.641 11.739-13.923 0-14.289-8.447-.263-15.029 13.805-18.053 21.72-2.774-.232-5.776-.249-9.047-.007 3.867-12.457 11.404-36.564 13.248-41.194 2.508-6.303-8.028-27.314-20.448-3.733-8.714 16.538-2.8 35.652 1.51 45.592a68.954 68.954 0 00-9.68 2.299c-10.262-23.414-42.917-90.16-78.31-81.864-38.589 9.039 44.084 53.913 64.933 87.181-17.034 7.893-31.999 17.481-57.87 10.481-68.751-18.61-74.204 23.26-74.204 23.26l307.238.103s-7.728-19.491-31.8-23.363" fill="#ACD29A"/><path d="M424.328 293.955c.314 2.954 4.5 2.847 9.227 2.139 4.727-.708 3.506.534 10.156.405 6.646-.128 8.867-2.398 9.155-3.359.26-.851-2.965-1.456-6.418-2.175-.434-.089-.868-.185-1.306-.277-3.891-.854-6.547-3.658-9.932-6.07-3.211-2.286-5.371-12.76-5.371-12.76l-9.451-.056s2.968 9.472 4.517 12.766c.908 1.938-.061 4.426-.367 6.291-.163 1.014-.324 2.053-.21 3.096" fill="#FFB07B"/><path d="M433.555 296.094c4.727-.708 3.506.534 10.156.405 6.646-.128 8.867-2.398 9.155-3.359.26-.851-2.965-1.456-6.418-2.174l-.039.064s-4.2 2.437-9.693 2.071c-4.474-.299-9.088-2.011-12.178-2.242-.163 1.014-.323 2.053-.21 3.096.314 2.954 4.5 2.847 9.227 2.139" fill="#365DA4"/><path d="M350.434 293.485c.206 2.965 4.389 3.018 9.141 2.488 4.752-.53 3.485.665 10.134.786 6.646.125 8.949-2.064 9.277-3.01.288-.844-2.909-1.566-6.333-2.417-.431-.103-.861-.217-1.292-.327-3.859-1-6.407-3.901-9.7-6.439-3.118-2.405-.552-12.38-.552-12.38l-7.173-3.387s-.986 10.281-1.52 15.481c-.217 2.13-1.277 4.269-1.651 6.123-.203 1.007-.403 2.036-.331 3.082" fill="#FFB07B"/><path d="M359.575 295.973c4.752-.53 3.485.665 10.134.786 6.646.125 8.949-2.064 9.277-3.01.288-.844-2.909-1.566-6.333-2.417l-.039.064s-4.293 2.278-9.768 1.701c-4.46-.466-9.006-2.349-12.081-2.694-.203 1.007-.403 2.036-.331 3.082.206 2.965 4.389 3.018 9.141 2.488" fill="#365DA4"/><path d="M366.545 145.438s-1.987 9.616-3.977 58.387c0 0-3.691 9.03-6.368 20.071-2.677 11.041-4.563 57.113-4.563 57.113s1.068 1.538 4.307 1.732c2.645.159 4.706-1.001 4.706-1.001s18.606-60.342 27.662-83.769c9.059-23.429 14.367-56.878 14.367-56.878l-36.134 4.345z" fill="#2B478B"/><path d="M388.924 149.556s1.467 9.708 16.489 56.151c0 0-.335 9.748.979 21.033 1.313 11.285 16.52 55.716 16.52 55.716s2.018.702 5.048-.098c2.815-.743 5.026-2.437 5.026-2.437s-5.831-63.505-5.447-88.618c.385-25.113-6.222-58.332-6.222-58.332l-32.393 16.585" fill="#2B478B"/><path d="M415.529 15.053c-2.357-1.498-5.251-1.793-7.29-1.775.551-.513 1.591-.659 1.591-.659-1.253-.252-4.126.858-4.126.858-17.182-7.627-21.23 18.029-21.159 24.04.065 6.01-.234 12.911-9.251 17.847-17.738 9.716-4.14 28.902-4.14 28.902-3.193 9.16 8.629 20.381 8.629 20.381-.203-4.865 22.134-35.855 34.176-42.927 3.047-4.035 4.425-11.363 4.528-11.943-.783 5.83-1.947 9.06-2.933 10.865 10.326-8.591 6.215-41.62-.025-45.589" fill="#C65447"/><path d="M411.784 58.4c.061.028-5.631 2.986-9.917 1.815-4.03-1.1-6.664-6.324-6.607-6.335 1.705-.338 2.2-2.683 2.161-12.758l.772.153 12.505 2.477.467.089s-.296 4.082-.306 7.929c-.004.811.01 1.612.039 2.363.085 2.231.334 4.007.886 4.267" fill="#FFB07B"/><path d="M410.859 51.77c-.003.811.011 1.612.039 2.363-7.272-.292-11.465-8.609-13.049-12.257l12.85 1.876.466.089s-.295 4.082-.306 7.929z" fill="#EA8E50"/><path d="M396.855 39.862s-3.806-6.007-4.717-11.146c-.655-3.67 1.214-17.264 14.883-15.307 0 0 3.969.392 7.7 2.911 2.968 2.004 7.251 6.328 2.459 18.193l-1.242 4.007-19.083 1.342z" fill="#C65447"/><path d="M411.93 49.884s-17.029-2.25-15.463-12.83c1.566-10.58.42-17.997 11.359-17.008 10.939.99 12.448 5.339 12.786 8.997.335 3.659-4.214 21.154-8.682 20.84" fill="#FFB07B"/><path d="M415.6 20.94s-6.5 11.719-13.911 12.488c-7.412.772-10.22-1.602-10.22-1.602s6.122-3.53 8.39-10.95c0 0 13.114-6.364 15.741.064" fill="#C65447"/><path d="M414.298 21.776s3.061 3.288 3.506 6.107c.445 2.822 0 8.424 1.645 8.477 0 0 4.759-7.915 1.534-13.274-3.421-5.68-6.685-1.31-6.685-1.31" fill="#C65447"/><path d="M527.38 165.518c-3.574-7.567-13.506-13.826-21.871-13.826-6.179-.004-11.63 2.106-15.847 5.538-2.416 1.966-6.05.669-6.704-2.37l-7.327-34.021c-1.066-4.959-5.953-8.113-10.917-7.047l-118.503 25.499a8.977 8.977 0 00-6.889 10.666l25.475 118.347a9.324 9.324 0 006.291 6.92l-1.557.441h4.604l.037-.007a9.44 9.44 0 001.702-.203l2.579-.555 30.417-6.545c4.269-.918 5.997-6.08 3.132-9.372a24.503 24.503 0 01-5.614-11.577c-2.393-12.57 5.38-25.02 17.731-28.366 13.741-3.722 27.616 4.853 30.574 18.588a24.536 24.536 0 01-1.409 14.823c-.746 1.756-.13 3.579 1.152 4.618l-1.772.865 4.113-.002v-.001c.305.008.621-.018.948-.088l36.314-7.814a9.192 9.192 0 007.056-10.92l-7.279-33.808c-.673-3.129 2.181-5.871 5.28-5.075a24.541 24.541 0 0011.296.214c15.197-3.27 24.082-19.898 16.988-34.922" fill="#D86713"/><path d="M501.322 151.694c-6.181-.004-11.631 2.103-15.849 5.537-2.41 1.967-6.048.672-6.705-2.368l-7.321-34.018c-1.066-4.962-5.956-8.116-10.919-7.05l-118.502 25.499c-4.849 1.044-7.934 5.818-6.89 10.662l25.476 118.349c1.085 5.032 6.041 8.234 11.074 7.151l32.997-7.1c4.269-.918 6-6.08 3.133-9.372a24.52 24.52 0 01-5.613-11.577c-2.395-12.569 5.376-25.02 17.731-28.366 13.742-3.722 27.616 4.854 30.572 18.588a24.505 24.505 0 01-1.41 14.823c-1.251 2.936 1.321 6.063 4.443 5.392l36.314-7.814c4.963-1.068 8.122-5.957 7.052-10.919l-7.273-33.809c-.679-3.129 2.177-5.871 5.276-5.074a24.553 24.553 0 0011.299.214c15.196-3.27 24.078-19.898 16.982-34.921-3.572-7.567-13.502-13.827-21.867-13.827" fill="#F1A34F"/><path d="M457.96 106.7s7.394 1.21 9.33 6.015c1.937 4.808-.769 8.06-1.808 8.05-1.039-.011-3.036-.78-3.969-3.274-.936-2.492-3.553-10.791-3.553-10.791M356.2 128.142s8.297-.011 11.284 4.894c2.983 4.904.616 8.95-.523 9.124-1.14.175-3.46-.306-4.931-2.861-1.47-2.555-5.83-11.157-5.83-11.157z" fill="#FFB07B"/><path d="M458.167 112.277c-.734-.157-3.952-.534-8.042-1.178-7.535-1.182-18.036-3.263-21.56-6.513-.954-.882-3.179-5.736-5.489-11.302-2.336 12.32-2.467 21.772-1.848 28.968l-50.917 10.954c4.364-8.822 11.124-19.765 9.856-28.62-.469-3.281-2.271-7.786-2.943-12.847a37.096 37.096 0 01-.143-1.313c-7.141 5.879-15.388 12.363-15.588 13.659-.327 2.174 5.233 26.239 5.233 26.239-1.381 3.178-7.379 2.509-7.379 2.509-5.617-4.011-13.883-26.745-13.221-31.781.662-5.035 21.152-33.737 26.11-40.595 4.899-6.78 22.782-6.609 23.213-6.605h.011c14.221 8.537 15.502 1.441 15.502 1.441s12.833 2.438 15.036 6.228c2.207 3.79 11.879 32.528 12.562 33.538 1.431 2.118 24.807 10.584 25.227 13.036.424 2.452-3.524 4.627-5.62 4.182" fill="#80BDCC"/><path d="M388.063 129.406l-17.752 3.8c4.421-8.801 10.23-19.758 8.959-28.559-.473-3.285-1.541-7.171-2.054-12.257-.05-.487-.135-1.964-.135-1.964s12.573 9.893 12.794 20.598c.117 5.556-.855 12.819-1.812 18.382m62.532-18.243c-7.625-1.181-18.257-3.263-21.824-6.513-.965-.886-3.218-5.744-5.557-11.317 0 0-.818-8.957 1.524-8.623 2.342.335 5.788 16.221 8.248 17.225 2.199.9 14.366 5.57 17.609 9.228z" fill="#5F9AA8"/><path d="M826.232 452.426c-1.074 3.623-6.041 6.036-6.708 10.463-.325 2.16-1.13 3.836-2.155 4.989h-15.451c.154-.85.832-1.765 2.839-2.202 4.294-.94 5.909-6.14 5.65-10.969-.116-2.021-.061-4.331.038-6.328a99.08 99.08 0 01.359-4.936l9.122-2.146.96 1.232.915 1.185s5.501 5.093 4.431 8.712zm-71.945 15.452h-31.254c.705-.829 1.906-1.63 3.939-1.961 4.81-.779 13.138-3.569 14.998-9.719.061-.196.112-.398.157-.605 1.475-6.569 12.206 2.015 12.206 2.015s.035.263.086.708c.188 1.85.603 6.868-.132 9.562z" fill="#2C3A64"/><path d="M728.251 293.792s1.628 20.328 3.546 44.763c2.603 33.193 5.728 73.966 6.039 81.688.54 13.414 2.686 34.866 2.686 34.866s5.09 5.097 15.292 2.95c0 0 9.083-30.627 11.68-63.03.041-.534.077-1.067.124-1.601 2.411-32.99 6.164-102.452 6.164-102.452l-45.531 2.816" fill="#35488B"/><path d="M728.251 293.792s1.628 20.328 3.546 44.763l35.697 56.474c.041-.534.077-1.067.124-1.601 2.411-32.99 6.164-102.451 6.164-102.451l-45.531 2.815z" fill="#2C3A64"/><path d="M735.695 296.203s29.376 73.622 48.688 108.217c19.317 34.599 25.354 44.255 25.354 44.255s11.067-4.428 12.069-7.446c0 0-7.385-66.792-20.319-83.074-7.309-9.199-15.899-36.809-16.299-46.464-.4-9.655-2.613-28.763-2.613-28.763l-46.88 13.275" fill="#35488B"/><path d="M750.758 182.566c-1.308-7.709-1.349-12.279-1.349-12.279l14.903-12.008c-.55 16.511 10.032 24.451 10.032 24.451s-19.862 9.774-31.342 6.154c0 0 2.828-3.612 7.756-6.318" fill="#935C2F"/><path d="M745.903 170.013s18.961 3.149 20.74-8.686c1.78-11.835 5.427-19.399-6.606-21.91-12.028-2.511-15.065 1.651-16.617 5.456-1.557 3.807-2.401 24.015 2.483 25.14m-66.593 24.398l-4.038-2.499s-5.033-7.428-13.629-2.813c0 0-3.403 2.17-1.119 3.988 2.288 1.818 1.671.791 4.835 3.424 3.167 2.632 7.261 3.573 9.908 2.121l3.389-.32.654-3.901" fill="#A16D3C"/><path d="M674.522 195.188c1.037-3.253 1.532-3.539 1.532-3.539s32.646 3.856 35.724 4.083c3.073.228 45.818-8.576 45.818-8.576l20.177 24.5s-59.5 2.243-67.287 1.513c-12.864-1.205-36.203-13.182-36.203-13.182s-.578-2.245.239-4.799" fill="#D3782F"/><path d="M784.812 286.691c.058 1.264-2.547 2.652-3.682 3.16-8.518 3.819-16.454 6.474-25.419 7.335-10.64 1.093-23.208-1.299-27.52-1.242-.462 0-.861-.171-1.203-.459-.289-.231-.52-13.22-.289-29.597 0-.632 0-1.324.058-1.957v-.227c.016-1.705.042-3.439.079-5.188.105-4.787.283-9.7.494-14.583.309-7.199.74-14.274 1.333-20.542.62-6.546 1.403-12.215 2.401-16.236 2.3-9.253 7.589-15.346 12.415-19.829l3.965-3.502c3.971.803 8.167.572 12.363-1.495 4.543-2.242 9.485-4.656 10.289-4.081 6.129 4.579 10.252 14.976 12.368 28.188 1.14 7.111 1.691 15.035 1.66 23.311-.011 3.173-.11 6.395-.289 9.646-1.024 17.451.026 32.58.625 41.373.173 2.529.315 4.539.352 5.925" fill="#E69D43"/><path d="M684.02 125.371l-119.903-19.039c-5.105-.809-9.892 2.667-10.703 7.764l-5.307 33.412c-.248 1.548.15 5.897.15 5.897l4.319.643a5.704 5.704 0 003.162-.217 24.609 24.609 0 0112.857-1.055c12.623 2.314 21.457 14.089 20.108 26.847-1.494 14.192-14.534 24.058-28.45 21.849a24.6 24.6 0 01-13.354-6.686 3.898 3.898 0 00-2.337-1.104l-4.525-.679-5.63 40.758c-.801 5.027 2.628 9.749 7.658 10.548l34.253 5.438c3.171.503 4.703 4.164 2.834 6.774a24.605 24.605 0 00-4.29 10.483c-2.445 15.389 9.887 29.712 26.511 28.52 8.365-.598 17.817-7.615 20.848-15.436 2.243-5.775 2.243-11.634.557-16.82-.965-2.964 1.564-5.896 4.646-5.406l34.464 5.472c5.026.798 9.752-2.628 10.548-7.653l19.064-120.01a9.001 9.001 0 00-7.48-10.3" fill="#4A75CB"/><path d="M770.533 206.082s-9.192 42.882-43.698 52.434c.108-4.786.284-9.7.496-14.583.31-7.198.733-14.273 1.327-20.541.62-.318 1.193-.565 1.725-.739 11.706-3.86 40.15-16.571 40.15-16.571z" fill="#D3782F"/><path d="M617.785 279.419c2.24-5.775 2.244-11.633.558-16.819-.963-2.965 1.565-5.896 4.648-5.407l34.464 5.472c5.024.798 9.746-2.628 10.543-7.652l19.069-120.01c.777-4.909-2.571-9.521-7.479-10.3l-119.909-19.039a9.348 9.348 0 00-10.697 7.764l-5.308 33.412c-.685 4.322 3.516 7.812 7.632 6.322a24.618 24.618 0 0112.857-1.054c12.624 2.313 21.453 14.088 20.108 26.847-1.495 14.191-14.539 24.057-28.453 21.848a24.625 24.625 0 01-13.355-6.686c-2.291-2.233-6.147-.962-6.65 2.199l-5.839 36.777c-.797 5.026 2.631 9.749 7.655 10.547l34.255 5.439c3.171.503 4.703 4.164 2.836 6.773a24.538 24.538 0 00-4.289 10.483c-2.449 15.389 9.886 29.712 26.506 28.52 8.368-.598 17.821-7.615 20.848-15.436" fill="#699DEE"/><path d="M679.449 222.058l-4.932-.815s-5.619-8.132-15.414-3.57c0 0-3.887 2.172-1.317 4.206 2.57 2.034 1.884.912 5.443 3.852 3.56 2.94 8.193 4.114 11.2 2.677l3.845-.2 1.175-6.15" fill="#A16D3C"/><path d="M675.682 224.562c.156-3.627 2.09-4.014 2.09-4.014s37.349-2.47 40.569-3.094c3.22-.625 32.962-25.263 32.962-25.263s11.505-10.336 19.566-6.848c7.004 3.03 9.194 9.01 9.55 14.508.418 6.553-3.283 12.679-9.231 15.458-13.356 6.237-40.072 18.482-46.156 19.538-13.539 2.351-48.347-5.185-48.347-5.185s-1.129-2.252-1.003-5.1" fill="#E69D43"/><path d="M743.414 144.874s-7.693-5.705-2.674-14.569c0 0 6.05 2.007 14.649 0 8.604-2.007 16.297.836 17.301 3.846 0 0 3.345 1.339 3.683 6.356.333 5.017-9.733 20.821-9.733 20.821s-2.148-2.675-1.565-4.515c.587-1.84 2.429-5.937.171-5.937-2.257 0-3.012 3.345-3.932 2.007-.916-1.338.754-6.941-1.92-7.86-2.679-.92-12.968 1.543-15.98-.149" fill="#2C3A64"/><path d="M481.859 463.607l-33.895-153.858h9.33a4.032 4.032 0 004.023-4.022v-5.196a4.03 4.03 0 00-4.023-4.017H338.939a4.029 4.029 0 00-4.019 4.017v5.196a4.03 4.03 0 004.019 4.022h12.014l-33.895 153.858c-.456 2.068.857 4.136 2.919 4.591 2.064.459 4.125-.861 4.581-2.929l34.262-155.52h81.277l34.262 155.52c.456 2.068 2.517 3.388 4.578 2.929 2.065-.455 3.378-2.523 2.922-4.591" fill="#C3E0F4"/><path d="M706.632 369.384c-12.549-12.04-57.712 63.934-57.712 63.934s70.256-51.891 57.712-63.934z" fill="#ACD29A"/><path d="M705.124 404.507c-11.107-4.442-46.601 32.968-54.596 41.606-6.113-.812-12.825-1.339-20.177-1.47-56.202-1.004-81.698 24.445-81.698 24.445l156.786.534s-13.89-17.63-53.29-23.285c9.631-4.545 38.103-17.787 48.46-20.332 12.544-3.085 17.059-16.484 4.515-21.498" fill="#ACD29A"/><path d="M660.903 328.255h-33.842c-4.38 0-7.164 4.694-5.049 8.524 2.042 3.701-5.149 35.762-20.306 36.599-14.255.786-26.046-10.584-26.046-24.67 0-5.299 1.67-10.21 4.508-14.232 1.847-2.616-.013-6.221-3.211-6.221h-37.25a9.214 9.214 0 00-9.215 9.214s-3.38 39.969-6.25 38.535a24.564 24.564 0 00-9.739-2.555v-.004h-.036a24.797 24.797 0 00-1.256-.032c-.418 0-6.55-.106-6.55-.106l-.932 49.392 5.326.057c5.063-.153 9.457-.626 13.369-2.616 2.774-1.416 6.068.619 6.068 3.737v34.891c0 5.085 4.125 9.21 9.211 9.21h121.542a9 9 0 009.001-9V337.597c0-5.16-4.184-9.342-9.343-9.342z" fill="#D86713"/><path d="M501.163 422.122c6.059 1.306 11.844.388 16.704-2.089 2.777-1.416 6.073.623 6.073 3.741v34.886c0 5.09 4.125 9.215 9.211 9.215h121.541a9 9 0 009.003-9.001V337.493a9.345 9.345 0 00-9.346-9.345h-33.841c-4.378 0-7.164 4.694-5.045 8.527a24.63 24.63 0 013.057 12.53c-.307 12.826-10.55 23.393-23.368 24.069-14.251.747-26.045-10.584-26.045-24.67 0-5.299 1.672-10.21 4.513-14.232 1.844-2.616-.018-6.224-3.215-6.224h-37.249c-5.091 0-9.216 4.128-9.216 9.217v34.674c0 3.21-3.377 5.295-6.249 3.861a24.614 24.614 0 00-11.032-2.594c-15.582 0-27.795 14.427-24.013 30.652 1.908 8.167 10.316 16.399 18.517 18.164" fill="#F1A34F"/><path d="M149.253 468.554l21.844.16s-.76-5.284-15.464-6.648c-5.701-15.829-22.448-58.418-36.991-56.407-14.359 1.99 19.647 41.062 33.482 56.254a34.973 34.973 0 00-5.466.431c-3.333-6.634-9.941-16.011-20.546-15.584-11.287.456 4.09 10.762 14.676 17.089-5.362 1.922-8.258 4.584-8.258 4.584l16.475.121.299.16s-.017-.057-.051-.16" fill="#ACD29A"/><path d="M227.3 292.079l3.232 2.623s8.842-3.171 10.837 7.335c0 0 .532 4.477-2.305 4.484-2.836.011-1.666-.487-5.682-.37-4.017.117-7.346-2-7.934-5.26l-1.922-2.762 3.774-6.05" fill="#EA8E50"/><path d="M226.934 297.709c2.578-2.69 2.371-4.68 2.371-4.68s-29.86-24.441-32.888-26.433c-2.063-1.356-24.054-20.847-34.333-32.729-5.098-5.894-11.414-3.607-18.64-1.534l-5.951 1.707c-7.185 2.061-9.054 12.108-3.158 16.99 16.604 13.75 44.226 29.216 49.394 32.466 12.83 8.071 37.944 17.658 37.944 17.658s3.047-1.131 5.261-3.445" fill="#1E3D70"/><path d="M261.879 447.618s7.247 5.427 18.35 2.562c0 0 8.953-2.043 10.915 2.424 0 0-13.729 6.971-17.204 8.879-2.618 1.438-5.35 3.705-7.282 5.459a3.603 3.603 0 01-5.214-.402 70.698 70.698 0 01-2.053-2.651c-2.116-2.869-7.049-12.132-7.049-12.132l9.537-4.139z" fill="#233862"/><path d="M265.264 445.112s-4.413 10.171-14.598 8.303c0 0-20.784-17.161-35.041-34.987-4.63-5.79-8.572-11.651-10.889-17.015-9.454-21.883-34.97-54.521-51.194-71.062l40.59-14.68s13.001 26.146 30.3 58.265c12.467 23.139 27.161 49.382 40.832 71.176" fill="#2B478B"/><path d="M224.432 373.936l-8.807 44.492c-4.63-5.79-8.572-11.651-10.889-17.014-9.454-21.884-34.97-54.522-51.194-71.063l40.59-14.68s13.001 26.146 30.3 58.265zm-33.285 79.454s-.443 8.114 9.399 9.2c0 0 5.624.028 5.64 5.192l-28.604.093s-.831-2.086-1.032-6.549c-.155-3.427 3.323-12.388 3.323-12.388l11.274 4.452" fill="#233862"/><path d="M180.818 315.671s18.083 19.865 29.561 55.653c6.245 19.47-11.447 68.429-14.896 85.436 0 0-11.868 1.007-19.983-2.128 0 0-.616-35.133 4.13-62.212 2.656-15.153-23.809-32.41-35.373-59.792-7.867-18.626 1.704-18.31 13.465-18.758l23.096 1.801z" fill="#2B478B"/><path d="M159.944 227.046c-10.061 5.68-30.657.442-30.657.442s8.364-9.56 4.564-24.957l7.899 4.011 8.485 4.308s.548 2.719.93 7.603c.097 1.258.184 2.663.244 4.198 5.165 1.566 8.535 4.395 8.535 4.395" fill="#FFB07B"/><path d="M196.834 314.646c0 1.765-2.037 2.612-2.469 2.697-4.058.744-15.388 5.15-25.594 6.161-8.595.9-16.574.043-25.34-1.716-1.16-.234-3.886-.968-4.079-2.078-.242-1.217-33.812-68.421-7.715-97.29.612-.677 5.764.543 10.475 1.661 4.351 1.031 8.341.456 11.905-.973l4.418 2.324c5.425 3.023 15.691 13.761 16.892 22.187.611 4.285 3.062 7.458 3.771 11.228.263 1.394.532 2.756.806 4.083a227.382 227.382 0 001.653 7.437c1.534 6.373 3.155 11.859 4.746 16.599a175.958 175.958 0 004.837 12.719c1.924 4.541 3.55 7.936 4.566 10.534.717 1.829 1.128 3.263 1.128 4.427" fill="#2A4E96"/><path d="M195.706 310.219c-47.388-22.323-63.8-65.185-63.8-65.185s38.502 14.2 47.999 17.897c.534 2.603 1.086 5.08 1.652 7.436 1.535 6.373 3.155 11.859 4.746 16.599a176.43 176.43 0 004.837 12.719c1.924 4.541 3.55 7.936 4.566 10.534" fill="#1E3D70"/><path d="M329.563 262.745l-10.152-32.18c-.986-3.125-4.218-4.604-7.044-3.809l-.008.002a5.782 5.782 0 00-.444.149l-3.56 1.189s-5.575 5.737-9.572 6.894c-12.295 3.556-23.965-2.995-28.45-14.979-4.99-13.329.799-27.966 14.2-32.191 4.585-1.446 13.609 1.248 13.609 1.248l3.624-1.203c1.968-.598 3.318-2.721 2.616-4.949l-11.174-35.417a9.191 9.191 0 00-11.532-6.004l-32.989 10.402c-3.053.961-6.05-1.623-5.546-4.783a24.53 24.53 0 00-.842-11.263c-4.675-14.823-22.064-22.111-36.365-13.645-7.199 4.26-12.506 14.73-11.727 23.058.575 6.153 3.183 11.381 6.997 15.256 2.181 2.217 1.231 5.961-1.735 6.894l-33.195 10.466c-4.84 1.527-7.526 6.687-5.999 11.526l36.458 115.581c1.491 4.726 6.534 7.349 11.263 5.858l115.48-36.409c4.909-1.548 7.636-6.782 6.087-11.691z" fill="#4A75CB"/><path d="M190.694 146.434c.575 6.154 3.183 11.382 6.998 15.257 2.18 2.217 1.23 5.958-1.736 6.894l-33.194 10.466c-4.84 1.527-7.526 6.687-6 11.526l36.458 115.581c1.491 4.726 6.534 7.349 11.263 5.858l115.48-36.409a9.317 9.317 0 006.087-11.691l-10.152-32.18c-1.313-4.163-6.614-5.406-9.625-2.243a24.55 24.55 0 01-11.003 6.668c-12.295 3.556-25.421-3.018-29.906-15.002-4.99-13.329 2.255-27.943 15.657-32.168a24.533 24.533 0 0114.893.02c3.04.971 5.916-1.88 4.955-4.924l-11.174-35.421a9.192 9.192 0 00-11.531-6l-32.99 10.402c-3.052.961-6.05-1.623-5.546-4.783a24.52 24.52 0 00-.842-11.264c-4.675-14.822-22.063-22.111-36.364-13.648-7.2 4.264-12.507 14.734-11.728 23.061" fill="#699DEE"/><path d="M223.432 297.282l4.095 1.502s8.201-5.797 13.306 3.63c0 0 1.847 4.118-1.076 5.011-2.924.897-1.861.053-5.97 1.424-4.108 1.366-8.156.38-9.708-2.552l-2.783-2.043 2.136-6.972" fill="#FFB07B"/><path d="M226.802 303.072c1.514-3.95 2.206-5.74 2.206-5.74s-30.943-25.215-34.095-27.378c-2.149-1.473-23.538-17.457-33.966-29.914a21.827 21.827 0 00-21.217-7.35l-6.495 1.362c-7.843 1.644-10.392 11.569-4.308 16.784 17.136 14.687 46.037 31.721 51.426 35.264 13.378 8.794 42.967 21.118 42.967 21.118s2.294-1.046 3.482-4.146z" fill="#2A4E96"/><path d="M151.166 218.453c-9.893.556-16.327-7.611-16.327-7.611s4.473-2.477 6.912-4.3l8.485 4.308s.548 2.719.93 7.603" fill="#EA8E50"/><path d="M155.38 208.298s-14.99 10.755-21.546 1.319c-6.555-9.436-12.905-14.403-3.611-21.669 9.294-7.267 13.674-4.97 16.629-2.353 2.954 2.618 12.258 19.662 8.528 22.703" fill="#FFB07B"/><path d="M148.435 177.072c-.537-3.626-1.746-6.178-1.746-6.178s-.941 3.897-8.063 3.36c-7.121-.538-18.408.697-22.17 8.812-.24.516-.453 1.048-.642 1.591-.682-1.798-.846-4.496-.846-4.496-1.353 3.495 0 7.864 0 7.864h.001c-.02.127-.037.255-.056.382-1.571 1.329-2.892 5.458-2.892 5.458.475-1.151 1.632-1.903 2.663-2.366-.032 6.313 2.529 12.485 7.023 14.322 6.573 2.687 6.521.638 13.131 5.021 0 0 1.773-2.199.564-3.677-1.21-1.478-5.778-3.627-3.225-5.777 2.553-2.149 3.493.269 4.434-1.209.941-1.478-3.762-5.776 2.284-9.806 6.047-4.03 10.078-9.674 9.54-13.301" fill="#233862"/><path d="M534.329 467.931s-7.582-11.203-19.444-10.299c-3.607.274-9.465 1.153-16.271 2.089-5.134-17.908-19.28-60.472-38.363-62.871-19.485-2.445 18.648 44.892 34.243 63.426-2.842.374-5.799.74-8.778 1.064-8.258-8.815-22.646-21.872-34.66-20.869-12.04 1.007 10.506 13.456 26.784 21.599-9.989.747-19.458.665-25.242-1.57-14.172-5.477-27.197 7.431-27.197 7.431h108.928" fill="#82B378"/><path d="M915.567 470.306H1.039A1.042 1.042 0 010 469.266v-.352c0-.573.468-1.039 1.039-1.039h914.528c.57 0 1.043.466 1.043 1.039v.352c0 .573-.473 1.04-1.043 1.04z" fill="#2E3552"/></svg>