<svg width="541" height="208" fill="none" xmlns="http://www.w3.org/2000/svg"><path d="M53.693 112.222l-31.045 69.724H0l34.099-74.56c-16.032-8.143-26.72-22.902-26.72-50.13C7.38 19.086 31.555 0 60.31 0h29.264v181.946H69.979v-69.724H53.693zM69.98 16.541H59.545C43.77 16.54 28.5 26.974 28.5 57.256c0 29.263 13.996 38.678 31.045 38.678H69.98V16.541zm114.001 37.151v128.253h-19.594v-57.51h-29.519v57.51H115.02V53.692h19.848v54.456h29.519V53.692h19.594zm102.042 153.446H268.21v-25.193h-54.965v25.193h-17.813v-41.479h7.889c11.705-27.228 12.977-66.926 12.977-101.025V53.692h59.547v111.967h10.178v41.479zM256.25 69.724h-22.139v2.29c0 26.974-1.272 66.417-11.96 93.645h34.099V69.724zm84.484 114.002c-26.465 0-42.75-21.121-42.75-60.563 0-41.224 11.451-71.252 38.679-71.252 21.375 0 35.371 16.031 35.371 59.546V122.4h-53.439c0 29.008 8.143 44.278 23.92 44.278 11.196 0 20.103-5.09 25.192-8.653l4.582 15.268a50.504 50.504 0 01-31.555 10.433zm-21.885-77.613h32.827c0-21.885-3.563-37.916-15.013-37.916-12.215 0-16.541 15.014-17.814 37.916zm93.391 11.961v63.871h-19.849V53.692h19.849v59.292l30.79-59.292h20.103l-31.808 60.31 36.388 67.943h-21.63l-33.843-63.871zm58.018-.254c0-40.207 15.523-65.909 45.551-65.909 11.45 0 18.067 3.054 23.665 6.616l-2.799 18.83c-5.344-4.58-12.978-8.905-21.121-8.905-14.25 0-24.429 16.031-24.429 48.349 0 32.063 7.634 50.384 23.665 50.384a32.405 32.405 0 0021.63-7.888l4.58 14.76a38.828 38.828 0 01-26.719 9.669c-27.483 0-44.023-22.138-44.023-65.906z" fill="#2C292C"/></svg>