<svg width="1000" height="673" fill="none" xmlns="http://www.w3.org/2000/svg"><path d="M774.373 559.699c-70.136-1.864-287.464-8.647-419.234-20.743-244.335-22.502-444.58 5.563-313.866 43.052 36.51 10.482-70.136 68.359 188.61 85.72 227.118 15.238 459.193-6.495 571.498-15.632 112.305-9.137 164.292-27.583 188.484-35.894 21.245-7.311 29.675-49.999-215.492-56.503z" fill="#E8EFEF"/><path d="M405.839 486.441a8.225 8.225 0 00.144-3.382c-1.624-6.841-.125-6.793-4.602-19.754-4.391-12.586-12.75-31.186-27.748-52.602a27.003 27.003 0 00-4.947-5.592c-10.569-.509-20.657 2.959-31.274 4.554a32.103 32.103 0 00-7.84 12.644c-8.166 22.549-11.971 35.549-13.335 46.463-1.461 10.569-.471 19.004-1.172 24.634 33.646 22.665 57.589-6.725 90.774-6.965z" fill="#163F59"/><path d="M242.107 419.115c-1.749-1.076-7.734 5.592-10.28 11.529-4.987 11.53-6.265 17.967-8.205 30.745-3.065 20.234-8.254 52.372-9.964 66.054-1.547 12.326-6.514 26.901.904 24.845-.116-16.919 7.686-42.437 12.182-55.84 15.411-45.819 20.763-74.037 15.363-77.333zm-44.176 10.166a407.34 407.34 0 012.008-9.607c2.296-4.583 4.294-6.995 5.822-6.64 5.765 1.365 11.02 27.517-7.148 89.631-.913 3.123-13.105 57.272-13.019 55.946 2.104-34.79 2.604-81.195 12.337-129.33z" fill="#E9D6B8"/><path d="M186.08 559.664c-3.141 6.351-7.042 10.818-8.723 9.992-1.682-.826-.49-6.649 2.651-12.99 3.142-6.341 7.033-10.818 8.715-9.992 1.681.827.49 6.649-2.643 12.99z" fill="#FEC12F"/><path d="M187.033 555.897c-1.604 4.977-5.015 8.561-6.725 7.735-1.71-.827-1.057-5.083 1.46-9.656 3.19-5.765 4.401-7.446 4.679-11.587.279-3.891 6.639-5.198.586 13.508zm40.254-3.214a34.833 34.833 0 00-6.322-1.595c-2.709-.519-4.803-.499-5.764-1.518-1.614-1.681-.721-5.765-1.508-5.563-3.844.875-5.169 9.848-2.931 10.972 2.239 1.125 14.892-.374 15.94-.451 1.047-.077.864-2.085.585-1.845z" fill="#E9D6B8"/><path d="M224.684 551.867c.72 3.026-8.551 1.806-10.953 1.018a27.926 27.926 0 00-3.757-.961h-.288a1.63 1.63 0 000 .221c0 1.653-.73 3.844 1.921 3.844h16.622c13.528-.029-3.603-4.189-3.545-4.122z" fill="#FEC12F"/><path d="M317.678 615.953a40.433 40.433 0 017.263-1.403c3.113-.404 5.439-.26 6.611-1.345 1.921-1.807 1.825-8.532 2.238-8.426 4.324 1.124 4.525 14.882 2.431 14.843-2.882 0-16.852-1.392-18.024-1.546-1.172-.154-.865-2.412-.519-2.123z" fill="#E9D6B8"/><path d="M338.498 500.66c1.441 1.768 6.908 6.658 8.013 12.259 2.171 10.992 2.69 16.66 1.172 27.863-2.402 17.793-6.812 46.165-8.83 58.107-1.825 10.761-.538 24.279-8.089 20.676 4.948-14.21 3.141-37.595 2.565-50.046-3.911-84.952 2.623-72.02 5.169-68.859z" fill="#E9D6B8"/><path d="M320.723 615.194c-1.009 3.391 9.607 2.603 12.346 1.863a31.17 31.17 0 014.323-.874h.317c.005.083.005.167 0 .25-.105 1.874.577 4.429-2.431 4.256l-18.84-1.076c-15.373-.865 4.304-4.496 4.285-4.419z" fill="#194866"/><path d="M340.708 385.829c3.612-.961 3.689 2.21 6.293 10.078 5.101 15.45 7.993 38.306 6.225 62.672-2.084 28.544-6.456 57.166-12.326 72.826-4.804-11.298-8.743-21.502-11.443-46.463-5.986-55.283.144-96.183 11.251-99.113z" fill="#E9D6B8"/><path d="M339.517 389.845c3.296-.702 3.286 1.921 5.438 8.598 4.228 13.048 6.265 32.254 4.045 52.584-2.603 23.827-7.772 50.21-14.133 50.45-2.44.096-3.459-17.726-4.4-32.666-2.95-46.454-1.067-76.805 9.05-78.966zm43.032 231.786s2.094-.586 6.821-1.671c3.315-.759 4.968-1.259 5.765-2.594 1.278-2.201.692-8.542 1.585-8.551 4.305-.048 5.563 11.347 4.525 13.153-1.354 2.383-15.372 3.43-17.514 2.306-1.048-.519-1.576-2.806-1.182-2.643z" fill="#E9D6B8"/><path d="M379.024 508.259c2.008-.894 0-9.147 3.843-3.709 6.178 8.858 11.386 28.977 12.269 39.853 1.413 17.294 3.997 44.667 4.564 56.33.509 10.569 4.506 22.972-3.343 21.137.384-14.796-4.305-36.211-7.927-47.673-12.451-39.114-15.584-63.2-9.406-65.938z" fill="#E9D6B8"/><path d="M382.569 621.631c4.189 4.381 12.298 1.21 14.921.173 4.496-1.797 4.218-3.238 4.237-3.161.432 1.767 1.114 4.342-1.47 5.659-2.344 1.201-4.958 1.124-7.859 1.537-2.604.365-17.813 1.768-18.303-.154-.701-2.728 8.416-4.141 8.474-4.054z" fill="#194866"/><path d="M371.337 394.514c3.459-1.028 3.623 2.018 6.361 9.521 5.399 14.729 8.868 36.683 7.897 60.212-1.153 27.574-5.073 51.718-10.261 66.995-5.015-10.751-8.493-16.891-11.856-40.862-7.513-53.102-2.805-92.715 7.859-95.866z" fill="#E9D6B8"/><path d="M375.047 496.298c1.835-1.067 5.303 3.584 7.888 8.147 5.054 8.935 7.023 20.071 9.608 35.462 3.055 18.015 4.054 34.127 3.151 44.647-3.968-7.83-7.254-17.956-11.837-28.419-27.708-63.248-14.44-56.58-8.81-59.837z" fill="#E9D6B8"/><path d="M370.453 391.16c3.439-.845 3.506 1.922 5.995 8.859 4.871 13.575 7.686 33.684 5.976 55.129-1.557 20.061-4.804 38.075-8.878 51.555-1.028 3.401-4.804 3.507-5.495.413-2.095-9.752-3.392-20.762-4.526-32.666-4.63-48.731-3.651-80.696 6.928-83.29z" fill="#E9D6B8"/><path d="M296.095 192.801c-38.92 3.71-103.664 6.121-130.904 2.355-27.516-3.878-40.392-47.373-25.015-59.878 15.634-12.365 64.965-19.486 89.639-22.296 61.507-7.008 117.67-8.25 114.663 26.118-3.127 35.688-6.208 49.689-48.383 53.701z" fill="#0C6D6A"/><path d="M172.985 187.674s1.643 20.346 32.666 31.967c0 0-16.083-28.267-1.633-42.135 8.685-8.323-31.033 10.168-31.033 10.168z" fill="#0C6D6A"/><path d="M78.736 10.329c42.31-7.939 121.743-16.732 148.017-3.614 26.502 13.381 13.922 96.217-9.681 115.686-23.8 19.195-117.132 22.995-144.67 22.568-68.564-1.128-42.922-125.41 6.334-134.64z" fill="#D0D0D0"/><path d="M65.13 141.897s1.633 22.867 32.666 35.933c0 0-16.083-31.782-1.633-47.366 8.676-9.396-31.033 11.433-31.033 11.433z" fill="#D0D0D0"/><path d="M262.771 223.707l-3.564-24.644c-4.525-4.804-10.319-7.302-16.209-6.447-11.375 1.643-18.802 15.267-16.611 30.437 2.19 15.171 13.191 26.124 24.557 24.481 7.955-1.153 13.979-8.176 16.131-17.477a8.986 8.986 0 01-4.304-6.35z" fill="#163F59"/><path d="M217.613 237.936c-.433 3.939 3.718 7.629 9.271 8.234l12.663 1.403c5.554.605 10.415-2.085 10.838-6.024l3.958-35.933c.442-3.94-3.718-7.619-9.262-8.234l-12.673-1.393c-5.553-.615-10.404 2.085-10.837 6.024l-3.958 35.923z" fill="#163F59"/><path d="M250.654 253.356c7.513 3.257 11.27 2.239 5.534 4.66-2.757 3.382-38.017-1.326-39.939-5.697-.317-.74 13.998-2.883 14.075-3.382.884-6.351 1.22-11.712-.547-18.812a1.048 1.048 0 01.96-.961c2.671.077 5.362.096 8.052.173.442 0 5.687 1.182 4.525 3.699-.596 6.889-.605 16.881 7.34 20.32z" fill="#E9D6B8"/><path d="M253.047 232.518c.124-.25.24-.509.355-.759 0-.077.067-.154.106-.24.144-.317.278-.634.413-.961.026-.092.058-.181.096-.269.086-.25.182-.509.269-.769.086-.259.106-.278.144-.422.039-.144.144-.442.212-.673.067-.23.096-.307.134-.451a32.86 32.86 0 00.404-1.576c.048-.231.105-.413.144-.615.038-.202.086-.423.134-.634.048-.211.067-.365.106-.557l.086-.442c.433-2.556-.432-14.594-2.459-20.34a1.839 1.839 0 00-2.028-1.124c-6.197.682-25.076-.192-20.176 17.015 0 0 .279 1.518.433 2.2a1 1 0 000 .173c.153.683.317 1.355.499 2.008v.135c.192.663.385 1.316.596 1.922v.067c2.709 8.109 7.436 13.451 12.49 13.114 2.882-.201 5.486-2.315 7.417-5.707a.31.31 0 000-.086c.144-.25.288-.519.432-.788l.193-.221zM149.801 246.93s-1.307.624-1.864-.365c-.903-1.653-1.23-5.41-1.288-6.726-.067-1.499.808-8.599.808-8.599a8.346 8.346 0 011.104 5.083c-.49 4.179 1.24 10.607 1.24 10.607z" fill="#E9D6B8"/><path d="M149.678 245.968c-1.201-2.421-.576-5.486 1.019-8.916 1.518-3.257.413-5.294.413-5.294a43.124 43.124 0 00-3.027 7.292 13.26 13.26 0 00-.961 4.689c.231 4.717 5.631 8.474 2.556 2.229zm141.618 65.007c12.749 10.405 67.802 24.73 67.802 24.73s11.865-2.988-57.868-32.128c-3.487-1.46-13.086 4.842-9.934 7.398zm71.126 27.468s4.401 1.643 5.765 3.584c.961 1.355 4.208 8.445 4.208 8.445a9.202 9.202 0 01-3.949-4.083 31.112 31.112 0 00-6.024-7.946z" fill="#E9D6B8"/><path d="M366.129 342.287c2.882.749 4.938 3.458 6.62 7.225 1.604 3.574 4.073 4.141 4.073 4.141a47.27 47.27 0 00-3.843-7.687 69.524 69.524 0 00-2.767-4.362c-3.17-4.669-11.423-1.229-4.083.683z" fill="#E9D6B8"/><path d="M358.06 336.617c.48 2.008 3.66 4.304 3.564 5.591a13.99 13.99 0 01-1.499 5.659c4.314-.509 4.228-6.725 5.871-8.781 1.642-2.056-9.166-7.677-7.936-2.469z" fill="#E9D6B8"/><path d="M336.001 326.375c7.504 1.921 16.16 3.977 19.754 6.725 5.121 3.843 6.072 8.109 10.376 9.224.465.149.92.325 1.364.528 1.201.49 2.652.817 3.132 1.086.481.269 1.922 1.325 1.547.691-3.545-5.668-8.08-11.654-9.502-12.422-2.882-1.576-19.456-9.608-26.21-11.347-7.619-1.97-10.597 2.93-.461 5.515z" fill="#E9D6B8"/><path d="M366.254 341.652s.413-1.547 1.633-1.288c1.999.442 5.333 2.883 6.486 3.776 1.153.894 6.523 6.822 6.523 6.822a9.196 9.196 0 01-4.996-2.729c-3.084-3.401-9.646-6.581-9.646-6.581zm-40.237-26.181c-4.938 1.998-19.311-1.922-19.35.912 13.201 7.898 53.256 14.412 53.256 14.412l-33.906-15.324zm-125.831-39.719c-6.86 5.063-12.923 22.876-17.64 34.165-2.652 6.361-1.672 11.155-1.672 11.155s2.325 14.911 20.09-25.73c4.448-10.184 1.797-21.512-.778-19.59z" fill="#E9D6B8"/><path d="M186.505 320.39c-.087-15.017-26.96-54.572-26.96-54.572s-14.123-11.924 11.645 46.203c7.744 17.458 15.344 12.068 15.315 8.369z" fill="#E9D6B8"/><path d="M149.716 243.028l-1.144.73-.768 4.592s2.075 8.138 3.958 10.934c1.883 2.796 4.736 15.373 5.495 16.746.759 1.374 8.186 1.326 8.186 1.326s-5.957-11.933-7.916-16.861c-1.96-4.929-2.345-12.923-3.036-14.883-1.192-3.353-1.605-5.111-1.605-5.111s-1.701.884-.144 6.245c.413 1.412-1.384 1.114-1.384 1.114l-1.642-4.832z" fill="#E9D6B8"/><path d="M213.04 301.424l47.059-.394 5.755-53.823-55.84 5.304 3.026 48.913z" fill="#FEC12F"/><path d="M262.77 461.758c-23.145 3.622-27.325.548-53.919-3.247-2.508 0-13.287-25.845-5.707-94.156 1.566-14.066 12.202-25.365 9.771-63.555l47.443-.961c-6.235 34.799 31.331 40.189 2.412 161.919zm27.804-151.899l-26.556-39.574-6.812-17.832a6.927 6.927 0 012.777-3.612l.903-.586c3.488-2.239 8.33-.731 10.818 3.382l30.418 50.152-11.548 8.07zm-96.307 4.708l16.189-34.453 6.514-24.02a7.446 7.446 0 00-3.517-2.719l-.961-.384a7.5 7.5 0 00-9.655 4.391l-19.485 47.462 10.915 9.723z" fill="#FEC12F"/><path d="M149.399 248.851s-1.297-4.093-.644-6.149c.461-1.432 3.728-7.802 3.728-7.802a8.426 8.426 0 01-.711 5.16 28.33 28.33 0 00-2.373 8.791zm1.922-.961s1.191.278 1.585-.096a6.339 6.339 0 01-.115 1.124c-.077.711.317 5.524.317 5.524-.4-1.477-.885-2.93-1.451-4.352a19.953 19.953 0 01-.961-3.228 5.872 5.872 0 010-.702l.625 1.73z" fill="#E9D6B8"/><path d="M152.743 246.747c-1.047-3.603-.624-5.179-.231-5.842.241.855.664 2.22 1.326 4.112.334 1.261.565 2.546.692 3.844.058.336-1.22.653-1.71 3.554-.096.519-1.057-2.623-1.22-4.534.48.009 1.46-.048 1.143-1.134z" fill="#E9D6B8"/><path d="M241.401 227.713a8.997 8.997 0 01-4.304-6.36l-3.564-24.644c-.221-.221-.452-.423-.673-.634h-.432c-5.554-.615-10.406 2.084-10.838 6.024l-3.958 35.923c-.337 3.046 2.075 5.909 5.764 7.35a14.056 14.056 0 001.922-.144c7.907-1.24 13.931-8.263 16.083-17.515z" fill="#163F59"/><path d="M586.455 96.837c49.826-26.422 99.671-28.939 144.059-17.294 44.388 11.644 61.374 22.559 55.081 75.526-6.293 52.968-23.875 83.126-48.999 82.137-71.761-2.882-89.948-4.477-127.639-1.316l12.038 27.439-30.36-25.941c-37.739 1.413-43.466-15.881-45.848-29.515-.019-.009-8.196-84.605 41.668-111.036z" fill="#79CCCA"/><path d="M418.225 29.12c-40.757 5.708-76.18 22.473-99.258 40.353-23.261 18.15-34.194 37.375-30.322 54.832 3.91 17.63 21.627 31.609 45.204 44.195 23.741 12.298 53.343 23.232 84.683 27.911 61.115 10.655 117.368-18.918 129.887-76.41 12.654-57.205-46.934-104.245-130.194-90.88z" fill="#FEC12F"/><path d="M440.677 186.343s1.028 22.905-28.285 39.488c0 0 12.297-33.435-3.844-47.251-9.723-8.291 32.129 7.763 32.129 7.763z" fill="#FEC12F"/><path d="M336.586 252.394a19.84 19.84 0 005.812 14.026 19.82 19.82 0 0014.028 5.805l4.958-9.416c10.953 0 19.84-16.515 19.84-27.468v-7.437a19.852 19.852 0 00-19.84-19.84h-4.958a19.843 19.843 0 00-19.84 19.84v24.49z" fill="#137F7F"/><path d="M333.579 267.527c-14.104 18.092-15.478 58.608-15.478 58.608s6.61 7.628 9.608 4.803c3.843-3.564 12.105-24.787 20.176-54.61 4.986-18.437-11.952-11.827-14.306-8.801z" fill="#163F59"/><path d="M327.142 320.515c10.299 11.279 5.553 30.745 5.553 30.745s-3.843.739-6.13-1.192c-2.882-2.45-4.804-8.983-8.388-24.115-2.238-9.329 7.206-7.331 8.965-5.438z" fill="#163F59"/><path d="M327.143 337.626s2.959-.538 7.014 11.664c4.054 12.201 3.151 27.016 3.151 27.016l-9.099-23.673s-4.15-10.694-1.066-15.007z" fill="#E9D6B8"/><path d="M377.265 227.31c1.36-.19 2.73-.299 4.103-.327-.046 1.725.047 3.45.278 5.16 2.402 16.756 17.227 28.708 34.079 28.295a33.625 33.625 0 01-29.016 32.416c-18.485 2.652-35.548-9.877-38.171-27.968-2.623-18.091 10.232-34.924 28.727-37.576z" fill="#137F7F"/><path d="M344.513 215.599c.029 1.872.19 3.741.48 5.591 1.999 12.731 9.742 22.406 18.255 23.597.259 5.765 2.306 10.77 2.805 15.372 1.105 9.992 12.183 11.059 12.183 11.059 1.431 8.897-33.55 21.223-32.839 19.792.711-1.432 8.176-11.914 10.616-21.531a19.557 19.557 0 00-3.046-16.035 16.24 16.24 0 00-11.586-5.487 2.259 2.259 0 01-1.672-.73 14.039 14.039 0 01-.625-4.141v-16.333a14.041 14.041 0 015.429-11.154z" fill="#E9D6B8"/><path d="M387.41 321.389l14.834-28.871c4.42-8.58 1.221-16.891-7.09-18.476l-47.03-8.916c-5.198-.49-13.105 8.263-10.828 18.111l11.289 32.022 38.825 6.13z" fill="#E9D6B8"/><path d="M394.185 276.358c-9.262 28.823 20.868 68.474 20.868 68.474s9.435.135 10.338-4.198c1.143-5.496-7.071-16.958-17.534-49.96-6.476-20.484-12.394-18.322-13.672-14.316z" fill="#163F59"/><path d="M347.877 355.621c0 6.524.355 14.412 3.218 14.268l19.657-2.834c2.883-.135 12.279.816 12.26-5.765l5.524-27.046c0-6.533-2.344-11.712-5.207-11.529l-35.77-14.316c-2.882.135-5.178 5.544-5.159 12.068l5.477 35.154z" fill="#7DCCD0"/><path d="M340.247 278.029c.387-1.715.974-3.38 1.749-4.958 23.385 18.255 39.824 10.646 51.69 7.638.115.769.202 1.566.25 2.393.48 9.012-.048 18.024.336 27.036.355 7.167-8.81 13.384-13.22 13.556-16.449.692-20.177-.403-36.049-5.178-4.246-1.287-12.163-8.916-10.568-15.488 1.979-8.307 3.916-16.64 5.812-24.999z" fill="#7DCCD0"/><path d="M380.119 270.526s18.889-.577 22.194 8.474c3.305 9.05-4.727 22.223-4.727 22.223s-4.804 16.775-6.12 25.873c-1.316 9.099 4.468 17.736 2.68 15.959-.355-.365-4.63 0-11.442-3.142s-3.036-15.593-2.364-19.6c.673-4.006 3.997-23.664 3.257-26.902-.74-3.237-3.478-22.885-3.478-22.885zm-45.088 7.801c1.921-6.072 7.551-15.631 11.126-14.574 3.574 1.056 7.686 1.979 7.686 1.979s-12.49 5.438-11.991 31.321c.087 4.429-.528 13.268.961 20.176 1.489 6.908 2.018 20.33 2.018 20.33s-7.475 1.538-7.811 2.633c-.337 1.095.96-7.158-2.268-18.601-7.215-25.431-3.219-32.167.279-43.264z" fill="#194866"/><path d="M426.62 272.534h-2.882v-2.047h-19.447v17.208a4.016 4.016 0 003.699 4.256h12.048a4.015 4.015 0 003.7-4.256v-1.307h2.882a2.823 2.823 0 002.594-2.998v-7.868a2.813 2.813 0 00-2.594-2.988zm.403 10.856a.43.43 0 01-.403.471h-2.882v-8.81h2.882a.445.445 0 01.403.471v7.868z" fill="#FFC40E"/><path d="M425.506 312.829c1.739-6.581 4.679-13.374 4.132-17.294-.769-5.582-3.613-8.119-2.642-11.904.089-.418.15-.842.182-1.269.144-1.133.509-2.382.509-2.882 0-.499-.182-2.075.135-1.499 2.825 5.15 5.476 11.174 5.457 12.596 0 2.882-.961 19.033-2.517 24.98-1.777 6.678-7.542 6.159-5.256-2.728z" fill="#E9D6B8"/><path d="M430.712 294.391s1.278.567 1.768-.413c.817-1.605 1.009-5.217 1.018-6.505 0-1.441-1.047-8.214-1.047-8.214a8.045 8.045 0 00-.903 4.909c.615 3.988-.836 10.223-.836 10.223z" fill="#E9D6B8"/><path d="M429.829 326.183a61.481 61.481 0 01-6.581-3.074c4.688-17.217 9.434-31.6 9.434-31.6l-2.853 34.674zm2.142-40.19l-1.681-9.608-3.738-.903-1.297.644-.153 1.028s.48.634.384.634c-.528 0-.365 1.643.096 1.643a15.673 15.673 0 00-.327 2.239c.327.788 1.807.644 2.46 2.325s-.259 3.612.644 3.737 3.612-1.739 3.612-1.739z" fill="#E9D6B8"/><path d="M430.675 321.87c-.221-1.422-8.263-1.922-9.195.624l-.96 1.864s-7.369 16.333 1.402 19.34c.029-.038 9.503-.691 8.753-21.828z" fill="#163F59"/><path d="M464.87 616.385c.788-.96.221-3.449.221-3.449s-13.691-1.527-18.091-.49a23.328 23.328 0 00-4.9 2.306c-.298.173-.846 1.22-1.144 1.403-.547.327-.845-.231-1.306.067-.732.429-1.433.911-2.095 1.441-1.201 6.284.394 8.811.394 8.811s11.27 3.506 13.835 1.172c6.534-5.899 11.376-9.185 13.086-11.261zm43.292 5.179l1.921 10.193h10.396s.576-1.441 1.451-1.441c.874 0 1.7 1.441 2.709 1.441h26.45s.471-2.142-.106-2.882a9.988 9.988 0 00-3.189-1.364c-5.381-1.508-20.743-6.226-23.414-11.356-3.219-6.246-16.218 5.409-16.218 5.409z" fill="#161711"/><path d="M516.414 277.885l2.489-12.355s8.781.682 10.482-4.055c3.439-9.473.566-24.615-1.518-28.823-5.919-12.077-8.417-33.233-36.097-16.41-10.52 6.399 5.765 37.47 6.947 44.196 1.182 6.725-2.393 14.411-2.393 14.411l6.476 4.862 13.614-1.826z" fill="#E9D6B8"/><path d="M467.232 394.82l-.96 38.96s-14.671-16.199-16.093-34.588c-1.422-18.389 16.121-5.813 17.053-4.372z" fill="#E2C59C"/><path d="M483.749 475.094s4.055 1.768-7.878 58.405c-8.647 40.785-15.958 70.617-19.388 84.126-1.336 5.246-2.825 4.294-2.825 4.294l-11.376 1.269-5.418-4.689 16.256-92.417 30.629-50.988z" fill="#163F59"/><path d="M558.142 369.437l-23.279 44.667s44.426-32.129 41.63-49.816c-2.796-17.688-18.351 5.149-18.351 5.149z" fill="#E9D6B8"/><path d="M466.973 289.934s-9.435 5.764-16.237 52.64c-6.803 46.877-2.46 45.09-2.46 45.09l1.24 10.674 17.639 1.921 9.531-40.468-9.713-69.857z" fill="#F8C44F"/><path d="M510.324 411.664s-26.037 107.847-46.482 156.183c-11.981 28.314-12.086-26.037-12.086-26.037l18.61-156.606 54.36-2.633s-6.168 1.912-14.402 29.093z" fill="#163F59"/><path d="M491.367 382.888s19.677 139.61 21.742 145.913c7.004 21.319 17.784-6.63 20.253-13.73 2.47-7.1 6.591-59.702 5.765-98.076l-.826-38.373-46.934 4.266z" fill="#163F59"/><path d="M511.13 493.848s-2.969 16.65-5.448 37.921c-1.816 15.622-1.864 60.241 1.018 91.274.173 1.921 19.879-3.843 19.879-3.843s7.187-86.739 8.839-106.166c1.653-19.427-11.933-33.031-24.288-19.186z" fill="#163F59"/><path d="M466.396 290.02l23.241-10.569 6.409-6.062 24.701-.596 4.333 7.119 19.197 8.33s4.717 7.427.614 35.011c-4.554 30.553-5.514 76.737-5.514 76.737l-72.414 3.497s6.216-98.633-.567-113.467z" fill="#F4DA80"/><path d="M538.062 288.3s4.313-4.804 14.805 8.253c17.909 22.242 26.566 49.835 28.42 55.177 1.854 5.342 4.237 12.894-3.094 21.771-5.592 6.793-7.407 9.08-7.407 9.08l-16.064-10.012 2.526-4.804 1.806-2.382s-8.646-18.985-17.918-36.202c-9.271-17.217-3.074-40.881-3.074-40.881z" fill="#F4DA80"/><path d="M520.085 236.168s-3.133-1.921-3.613.481c-.48 2.401 1.211 7.686 2.642 8.176 1.432.49 1.922 6.975 1.922 6.975l-3.843 7.215h-19.485s-6.014-2.642-6.504-6.975c-.49-4.333-5.285-34.876-5.285-34.876l13.711-7.225a90.65 90.65 0 0112.269-5.054c7.753-2.21 9.377 1.922 9.137 4.093-.24 2.172 2.171 2.402 5.294 2.402 3.122 0 6.984 2.412 5.293 3.843-.701.596 2.412 2.498 1.182 4.804-1.768 3.286-7.686 4.352-8.157 9.608-.211 2.431-1.201 10.376-4.563 6.533z" fill="#194866"/><path d="M711.28 589.655c-.567.759-.144 2.758-.144 2.758s9.973 1.249 13.172.432a15.878 15.878 0 003.555-1.816c.231-.144.615-.96.836-1.124.404-.259.615.183.961-.057a11.424 11.424 0 001.518-1.144c.855-5.005-.308-7.033-.308-7.033s-8.493-3.122-10.078-.96c-3.738 5.053-8.263 7.292-9.512 8.944zm-52.478-6.455l-1.48 8.099h-3.843s-.442-1.143-1.105-1.143-1.287 1.143-2.056 1.143h-20.032s-.365-1.7.077-2.287a7.32 7.32 0 012.421-1.085c4.064-1.201 15.709-4.948 17.736-9.032 2.431-5.005 8.282 4.305 8.282 4.305z" fill="#163F59"/><path d="M713.027 404.698l8.302-4.612.98-1.037-1.153-1.845-1.816.221.317-5.4-8.705-1.556-4.458-2.075 4.122 14.661 2.411 1.643z" fill="#E9D6B8"/><path d="M674.53 272.794s9.309 10.251-19.351 37.316c-28.659 27.065-33.876 19.139-33.876 19.139l-8.647-5.765-6.418-30.12 13.825-3.209 1.509 1.777s2.969.289 4.467-1.825c1.499-2.114 10.982-9.243 24.663-26.825 6.303-8.099 22.05 7.523 23.828 9.512z" fill="#E2E3E4"/><path d="M608.516 295.093s-28.901-.529-31.207-30.61c-.682-8.945-2.968-.289-4.544 8.243-1.576 8.532 3.699 32.666 19.148 42.274 15.45 9.608 22.031 12.039 27.997 8.1 5.967-3.94-11.394-28.007-11.394-28.007z" fill="#E9D6B8"/><path d="M651.144 583.2s4.487 6.504 7.782.413c7.61-14.018 18.918-48.654 19.293-64.42.547-22.607-3.286-38.325-3.286-38.325l-24.087-7.859.298 110.191z" fill="#163F59"/><path d="M651.942 369.408l-1.096 103.591 21.896 12.086a149.16 149.16 0 0014.787-56.262c.701-13.394 1.037-43.437-6.457-53.65-10.146-13.845-29.13-5.765-29.13-5.765z" fill="#163F59"/><path d="M659.925 369.409l3.583 35.856 9.733 38.892 10.357 36.356 36.99 100.881 10.77.874s-1.364-75.747-14.498-97.826c-6.956-11.692-6.946-37.633-10.155-65.563-.586-5.034 2.267-16.4 1.806-20.993a74.794 74.794 0 00-11.126-31.657l-37.46 3.18z" fill="#194866"/><path d="M651.587 370.985l47.443-1.048 20.253-67.84s13.144-41.016-12.038-41.544c-25.182-.528-54.207-.519-54.207-.519s-20.801 38.258-1.451 110.951z" fill="#E2E3E4"/><path d="M736.711 351.163l-30.063 36.567s1.076 5.332 3.497 2.498c.288-.336-1.172-1.412.663-2.411 7.379-4.026 24.721-10.233 31.129-16.43a106.939 106.939 0 0014.412-17.745l-19.638-2.479z" fill="#E9D6B8"/><path d="M677.364 269.555s-22.098 38.066-15.805 80.186c.49 3.315 4.439 5.688 4.439 5.688l5.438-4.737s-.442-47.674 5.928-81.137z" fill="#0C6D6A"/><path d="M678.151 268.546l1.201 8.407 14.422-13.662v-2.095l-15.623 7.35zm-4.544-5.419l-2.526 10.934 6.398-5.515-3.872-5.419zm-42.784 37.115l-3.756-6.802-1.663-2.632a5.695 5.695 0 01-3.843 1.134l3.747 4.534 3.43 6.159 1.922 9.396.163-11.789z" fill="#D0D0D0"/><path d="M716.996 300.896l16.497 47.52 3.574 1.422-1.989 3.161 20.349 3.535 8.945-15.526-23.77-64.497s-9.185-13.556-29.649-15.804c-14.873-1.634 4.852 36.24 6.043 40.189z" fill="#E2E3E4"/><path d="M756.667 345.514s-13.873 2.603-21.137 3.699l1.556.624-1.988 3.161 7.052 1.163 10.261.23 1.595-3.795-2.998-.749 5.659-4.333z" fill="#D0D0D0"/><path d="M695.56 251.031a54.513 54.513 0 01-2.555 9.003c-1.643 3.679-15.882 8.406-18.073 8.935-2.19.528.548-11.039.548-13.672 0-2.008 1.297-1.383-.259-4.266h20.339z" fill="#E9D6B8"/><path d="M671.233 245.17a4.131 4.131 0 003.42 4.737l18.361 2.94a4.11 4.11 0 003.079-.726 4.11 4.11 0 001.657-2.694l4.362-27.2a4.129 4.129 0 00-3.43-4.727l-18.35-2.949a4.113 4.113 0 00-3.08.732 4.13 4.13 0 00-1.657 2.698l-4.362 27.189z" fill="#E9D6B8"/><path d="M674.663 223.581s-2.037-3.036-2.229-4.717a6.123 6.123 0 013.42-4.679c2.229-.865 3.574 1.614 3.574 1.614s-3.545 1.288-3.843 1.922c-.298.634-.922 5.86-.922 5.86z" fill="#163F59"/><path d="M702.016 234.766s4.458-10.002 4.439-13.144c-.019-3.141 0-5.322-3.699-6.264-5.525-1.412-5.765-.231-8.224-2.363-2.46-2.133-6.678-7.014-8.301-7.687-2.7-1.133-7.235-.903-8.254 4.343a5.869 5.869 0 01-1.071 2.715 5.88 5.88 0 01-2.243 1.868c.144.509 1.095 1.124 2.738 2.296 4.689 3.372 7.686 4.372 11.741 3.978 4.054-.394 11.712-1.432 12.096 1.585.384 3.017-1.374 11.818-1.143 12.548.23.73 1.162.528 1.921.125z" fill="#194866"/><path d="M694.926 242a1.387 1.387 0 001.144 1.576l3.968.634a1.363 1.363 0 001.575-1.134l1.173-7.254a1.398 1.398 0 00-1.144-1.585l-3.968-.634a1.387 1.387 0 00-1.575 1.143L694.926 242zm-23.644-3.796a1.362 1.362 0 001.134 1.576l3.968.634a1.374 1.374 0 001.027-.241 1.353 1.353 0 00.548-.902l1.163-7.244a1.385 1.385 0 00-1.144-1.586l-3.958-.634a1.394 1.394 0 00-1.585 1.143l-1.153 7.254z" fill="#E9D6B8"/><path d="M699.922 236.869s-1.719 10.703-2.296 14.277c-.519 3.228-2.94 10.098-21.137 7.177-10.799-1.729-9.127-9.608-8.714-12.202.317-1.988 3.516-7.57 4.804-8.522l-.711 4.41a8.738 8.738 0 018.06-3.113c8.282 1.326 9.387 6.466 13.048 6.976 2.786.374 5.63-3.863 6.946-9.003z" fill="#194866"/><path d="M682.187 246.467l-5.669-.961a1.384 1.384 0 01-1.143-1.576l.125-.797 8.388 1.345-.125.797a1.38 1.38 0 01-.538.927 1.394 1.394 0 01-1.038.265zm-104.436 23.068s2.728-9.242 1.316-11.529c-1.412-2.286-7.1-10.376-7.1-10.376l-1.633-1.922s-2.959.769.961 6.149c3.919 5.381.653 3.843.653 3.843l-5.236-3.43-6.726-3.67-2.786-2.037s-1.509-1.287-2.104-1.268c-1.73.077-1.038 1.47-1.038 1.47l10.223 8.916-11.529-5.467s-1.586-.432-2.076.317c-.49.75 0 .961 0 .961l11.674 9.483-6.236-2.104s-1.556-.384-2.075.327c-.519.71-.74.96-.74.96l22.972 11.654 1.48-2.277z" fill="#E9D6B8"/><path d="M562.609 257.496l-8.301-3.343a6.916 6.916 0 00-2.883-.855 1.236 1.236 0 00-1.191 1.287l12.077 6.361.298-3.45zm219.854 327.5l-5.765 31.322-19.859 5.121-10.568.326s19.369-8.32 23.183-12.595c5.765-6.476 4.17-32.177 4.17-32.177l8.839 8.003z" fill="#E9D6B8"/><path d="M777.014 621.439l-4.17.327-2.238-2.883-17.621 5.208-11.222.884a9.67 9.67 0 011.518-2.335c2.056-1.662 10.175-4.718 10.175-4.718s-.154 2.566 1.124 2.883c1.278.317 13.451-3.046 16.333-4.17 4.967-1.921 6.111-3.478 6.408-3.199.808.72-.307 8.003-.307 8.003z" fill="#161711"/><path d="M792.157 383.541l-10.165 104.965-11.529 100.43 15.372 1.921s18.985-100.881 21.089-109.528c2.104-8.647 23.52-78.313 15.843-96.673-7.676-18.361-30.61-1.115-30.61-1.115z" fill="#163F59"/><path d="M837.813 582.24l-1.595 33.329-19.869 5.121-10.569.317s18.813-7.811 21.772-12.711c3.929-6.514 0-28.478 0-28.478l10.261 2.422z" fill="#E9D6B8"/><path d="M836.535 620.67l-4.17.317-2.238-2.882-15.949 4.487-13.537.634a2.425 2.425 0 01.566-1.518c1.999-1.768 11.933-4.727 11.933-4.727s-.394 3.036.884 3.362c1.278.327 13.538-3.362 16.42-4.486 4.967-1.922 6.11-3.478 6.408-3.209.807.701-.317 8.022-.317 8.022z" fill="#161711"/><path d="M840.06 384.972l-2.882 91.802s3.843 24.894 4.121 33.186c.702 18.687-.096 74.767-.096 74.767l-16.602.663s-11.692-101.343-13.191-110.124c-1.499-8.782-18.485-79.389-8.647-96.961 9.838-17.573 37.297 6.667 37.297 6.667z" fill="#194866"/><path d="M817.214 292.575c0 13.374 11.068 24.221 24.74 24.221 13.672 0 24.74-10.847 24.74-24.221s-11.078-24.221-24.74-24.221c-13.662 0-24.74 10.837-24.74 24.221zm-18.178-49.489a17.81 17.81 0 0017.813 17.812l4.458-8.464c4.724 0 9.255-1.877 12.596-5.217a17.817 17.817 0 005.217-12.596v-6.725a17.815 17.815 0 00-17.813-17.813h-4.458a17.813 17.813 0 00-17.813 17.813v15.19z" fill="#163F59"/><path d="M839.12 234.592v-6.725a17.815 17.815 0 00-17.813-17.813h-4.458a17.703 17.703 0 00-10.808 3.679 39.75 39.75 0 00.96 12.154c2.979 12.98 11.683 22.636 21.349 25.038a17.82 17.82 0 0010.77-16.333z" fill="#163F59"/><path d="M817.503 260.379c0 12.807 10.569 23.193 23.693 23.193s23.693-10.386 23.693-23.193a23.45 23.45 0 00-14.703-21.505 23.453 23.453 0 00-8.99-1.688c-13.076-.019-23.693 10.357-23.693 23.193z" fill="#163F59"/><path d="M813.18 291.288c0 13.201 10.933 23.904 24.413 23.904s24.413-10.703 24.413-23.904-10.924-23.904-24.413-23.904-24.413 10.703-24.413 23.904z" fill="#11374F"/><path d="M841.599 247.102c-8.81-5.966-19.043-6.216-22.867-.576-3.823 5.639.212 15.055 9.022 21.021 8.811 5.967 19.043 6.226 22.867.587 3.824-5.64-.221-15.056-9.022-21.032z" fill="#11374F"/><path d="M806.157 216.866c.019 1.68.16 3.356.422 5.016 1.807 11.442 8.753 20.176 16.334 21.204.24 4.686 1.09 9.32 2.526 13.787 1.422 4.516 6.726 9.291 6.726 9.291 1.287 7.984-25.941 19.705-25.259 18.418.682-1.288 7.35-10.694 9.541-19.331a17.573 17.573 0 00-2.729-14.412 14.547 14.547 0 00-10.415-4.929 2.054 2.054 0 01-1.499-.653 12.731 12.731 0 01-.567-3.728v-14.69a12.595 12.595 0 014.92-9.973z" fill="#E9D6B8"/><path d="M800.525 380.477l-12.759 3.276s8.311-36.279 10.636-50.45c2.325-14.172 2.056-18.812 1.278-23.193-.779-4.381-2.825-9.541 0-14.412 2.824-4.871 7.263-13.018 9.021-13.652 2.883-1.028 5.928-2.316 8.253-4.641 1.269-1.316-16.429 103.072-16.429 103.072z" fill="#FFC40E"/><path d="M796.077 383.359s6.187-34.021 8.935-51.21c2.748-17.188 10.309-49.816 10.991-53.938a51.109 51.109 0 013.094-9.607s6.533-4.804 12.375-3.776c5.841 1.028 10.645 14.085 13.057 26.796 2.411 12.711-15.123 48.116-15.123 51.2 0 3.084 12.375 29.207 12.375 36.768v8.647s-30.591-14.824-45.704-4.88z" fill="#E2E3E4"/><path d="M830.607 259.842l-4.986 3.113-7.129 4.871 1.364 7.571 13.336-11.943-2.585-3.612z" fill="#D0D0D0"/><path d="M860.747 343.468s-11.174 14.892-17.035 14.306a47.3 47.3 0 01-5.717-.961c-3.996-.769-4.803-.721-7.945-1.153a29.624 29.624 0 00-3.565-.394s0 1.806 1.211 2.287c1.211.48 3.776.768 4.679 1.153.903.384-2.277-.26-7.042.125-3.843.317-7.652.96-11.386 1.921-1.249.346-1.422.423-1.422.49 0 .586.049 1.115.625 1.22.576.106 2.315 0 2.21.048a23.887 23.887 0 01-3.728 1.403c-.519.125-1.23.269-1.662.423-.875.307-.471 1.374 1.056 1.806 0 0 .356.75.817.903.231.077.404.144.644.212.24.067.586.076.855.144 1.005.226 2.027.371 3.055.432.404 0 3.968-.24 3.968 0 0 0-2.805.634-2.748.845.106.481.644 1.067 1.134 1.029.961-.087 2.277-.173 6.015-.644 4.121-.519 4.986-.961 10.27-.308 4.602.567 4.161 1.518 7.427.26 4.381-1.681 20.321-14.047 23.28-15.978 2.959-1.931-4.996-9.569-4.996-9.569z" fill="#E9D6B8"/><path d="M866.693 331.746l-35.828-38.921s-4.342-10.242-4.121-15.459c.259-6.178 7.686-10.828 7.686-10.828s16.333 14.7 35.654 35.827c19.321 21.128 29.89 30.409 19.321 38.662-10.568 8.253-27.314 18.812-27.314 18.812l-6.447-16.496 11.049-11.597z" fill="#D0D0D0"/><path d="M134.025 366.065l3.671 47.405s12.797-25.403 14.171-43.235c1.374-17.832-18.197-4.881-17.842-4.17zm-84.778-27.027l23.28 37.845s-34.588-16.631-32.83-32.109c1.758-15.478 9.55-5.736 9.55-5.736zm58.926-89.823c-.452 5.41-3.363 10.098-6.419 10.319H93.05c-3.055-.221-5.967-4.909-6.418-10.319-.711-8.916-1.425-17.835-2.143-26.757-.47-5.352 1.614-16.083 6.245-19.216a11.532 11.532 0 0113.326 0c4.631 3.171 6.726 13.903 6.255 19.216-.717 8.916-1.431 17.835-2.142 26.757z" fill="#E9D6B8"/><path d="M133.421 262.792s11.337 7.456 17.899 52.746c6.562 45.291 2.393 43.562 2.393 43.562l-1.192 10.328-16.717 1.72-9.55-38.988 7.167-69.368z" fill="#D0D0D0"/><path d="M137.591 263.358l-26.325-11.884-13.586 4.064-16.794-1.922-18.505 8.023s-8.358 8.032-.595 33.829c7.763 25.796 6.6 68.397 6.6 68.397l67.197 4.266s-4.554-90.457 2.008-104.773z" fill="#E2E3E4"/><path d="M74.314 262.791s-10.146-5.765-20.292 6.879c-17.294 21.492-25.662 48.154-27.46 53.323-1.796 5.169-4.169 20.637 2.989 25.22l7.158 4.583 14.93-9.166-2.392-4.592-1.191-2.882s8.358-18.351 17.293-34.973c8.936-16.621 8.965-38.392 8.965-38.392z" fill="#E2E3E4"/><path d="M94.355 254.951l-6.64 7.254-6.638-9.57 3.987-5.899 9.29 8.215zm14.585-7.648l-12.769 8.234 6.034 7.244 9.963-11.308-3.228-4.17z" fill="#D0D0D0"/><path d="M98.678 196.901v-6.187h13.365a8.137 8.137 0 018.138 8.138v6.187h-13.365a8.137 8.137 0 01-8.138-8.138z" fill="#163F59"/><path d="M85.872 234.439a7.242 7.242 0 007.244 7.235h16.42a7.239 7.239 0 007.196-7.235V201.6a7.242 7.242 0 00-2.115-5.122 7.227 7.227 0 00-5.12-2.123h-16.42a7.247 7.247 0 00-7.243 7.245l.038 32.839z" fill="#E9D6B8"/><path d="M98.16 190.714a8.153 8.153 0 00-6.803 3.68h-2.796a6.303 6.303 0 00-6.302 6.302v15.584h4.439v-6.331a4.438 4.438 0 014.438-4.439h13.394a8.138 8.138 0 008.137-8.138v-6.658H98.159z" fill="#163F59"/><path d="M88.093 220.326a3.844 3.844 0 00-3.843-3.844h-.317a3.843 3.843 0 00-3.843 3.844v4.688a3.845 3.845 0 003.843 3.843h.317a3.838 3.838 0 003.535-2.296l.308-6.235z" fill="#E9D6B8"/><path d="M92.51 392.41s20.244 71.702 36.462 97.365c16.218 25.662 21.877-7.686 21.877-7.686l-20.176-119.233-47.078-.297s1.191 2.411 8.916 29.851z" fill="#163F59"/><path d="M114.878 362.809S101.36 480.398 99.371 486.345c-6.562 19.994-21.57 7.081-23.885.413-2.315-6.668-6.178-55.975-5.4-91.956.779-35.981.76-33.627.76-33.627l44.032 1.634z" fill="#194866"/><path d="M73.555 593.768c-.702.846-.192 3.075-.192 3.075s12.201 1.354 16.121.432a20.56 20.56 0 004.372-2.037c.269-.163.759-1.095 1.018-1.258.49-.288.75.201 1.163-.068a13.01 13.01 0 001.873-1.287c1.067-5.601-.355-7.85-.355-7.85s-10.396-3.449-12.337-1.047c-4.583 5.65-10.136 8.176-11.663 10.04zm75.844-5.044l1.729 9.099h9.271s.51-1.288 1.307-1.288c.654 0 1.509 1.288 2.402 1.288h23.578s.422-1.922-.087-2.575a9.208 9.208 0 00-2.882-1.22c-4.804-1.336-18.486-5.544-20.868-10.107-2.854-5.525-14.45 4.803-14.45 4.803z" fill="#161711"/><path d="M102.811 436.201s-3.007 44.609-2.575 68.215c.317 17.784.355 51.882-2.354 80.946-.163 1.777-14.671.432-14.671.432s-9.742-111.2-11.29-129.416c-1.546-18.217 19.303-33.234 30.89-20.177z" fill="#194866"/><path d="M145.833 485.537s-4.093.893-16.996 2.017c-5.87.5 17.198 102.918 17.198 102.918l18.255-7.878-13.749-103.158-4.708 6.101z" fill="#163F59"/><path d="M315.67 485.769a21.778 21.778 0 01-.298-5.573c1.307-11.174 1.518-22.607 5.419-43.744 3.843-20.522 11.99-50.979 26.056-85.557 1.364-3.526 27.593-1.547 38.316 1.556a163.972 163.972 0 015.764 19.802c9.224 37.47 13.634 59.097 15.507 77.092 1.922 17.448 1.345 31.302 2.296 40.603-12.201 26.181-57.089-21.079-93.06-4.179z" fill="#194866"/><path d="M338.142 373.04c.048 1.172-.797 2.747-1.21 4.371a69.333 69.333 0 01-3.536 9.416 55.65 55.65 0 00-2.267 6.264c-.961-3.296.682-5.15.845-6.726.164-1.575.289-.96-1.748.856-1.153 1.047-1.249 4.746-1.614 7.119a6.49 6.49 0 01-.961 2.882 31.34 31.34 0 01-.154-6.408 39.04 39.04 0 011.874-8.916 65.92 65.92 0 014.362-7.446 12.733 12.733 0 00.96-9.867c-.826-2.604 3.257 3.141 3.449 8.455z" fill="#E9D6B8"/><path d="M329.736 381.716s-3.104 5.188-3.315 6.418c-.144.855-.144 5.005-.144 5.005a7.982 7.982 0 001.383-3.478c.096-1.662 2.076-7.945 2.076-7.945z" fill="#E9D6B8"/><path d="M776.612 190.772c41.582 1.076 130.348 0 160.593-8.503 30.572-8.647 33.474-116.811 19.052-133.25-14.728-16.237-66.995-21.08-93.262-22.434-65.487-3.363-126.227 1.038-129.176 50.565-3.056 51.402-2.191 112.45 42.793 113.622z" fill="#0C6D6A"/><path d="M894.2 177.475s-1.633 22.866-32.666 35.943c0 0 16.083-31.783 1.642-47.376-8.685-9.358 31.024 11.433 31.024 11.433z" fill="#0C6D6A"/></svg>