<svg width="845" height="161" fill="none" xmlns="http://www.w3.org/2000/svg"><path d="M380.687 80.987c0 32.042-19.542 47.19-44.002 47.19h-14.948v-19.226h13.783c14.754 0 24.588-7.961 24.588-27.964 0-19.81-9.3-29.716-25.025-29.716-15.142 0-25.965 9.323-25.965 29.327V161h-20.383V34.569h20.383v10.877h2.912c6.795-9.128 16.841-13.207 27.324-13.207 22.519 0 41.333 16.313 41.333 48.748zm-133.964-8.353l-13.589-1.36c-10.677-.97-16.307-3.884-16.307-10.099 0-7.38 7.183-11.652 17.472-11.652 10.677 0 17.471 5.05 18.054 12.235h19.607c-.776-18.255-14.947-29.52-37.467-29.52-22.713 0-38.05 12.042-38.05 29.715 0 14.76 9.319 24.275 30.479 26.412l13.783 1.36c8.348.776 13.978 2.524 13.978 10.486 0 7.187-5.242 12.429-19.025 12.429-12.692 0-18.946-5.761-21.141-13.484h-21.212c2.114 17.654 16.938 31.352 42.353 31.352 23.878 0 39.408-12.624 39.408-31.267 0-16.508-10.871-24.86-28.343-26.607zm212.909 26.522c-3.198 7.347-10.838 12.903-21.681 12.903-14.947 0-26.013-9.711-26.013-30.685 0-20.004 10.289-31.074 26.207-31.074 14.172 0 22.325 8.545 23.102 21.363h-36.691v14.761h56.686v-9.712c0-26.995-17.86-44.474-43.291-44.474-23.683 0-46.397 16.12-46.397 49.136 0 33.014 22.714 49.134 46.397 49.134 21.663 0 37.11-13.349 41.909-31.352h-20.228zm-321.33-66.918c-22.324 0-39.02 11.654-40.96 29.52h21.936c1.553-6.601 7.571-11.457 19.024-11.457 14.755 0 19.608 7.77 19.608 17.285v32.043c-8.347 9.517-18.054 13.983-27.761 13.983-10.094 0-17.083-4.855-17.083-13.593 0-8.353 5.435-13.595 15.918-13.595h16.307V71.663h-16.889c-23.296 0-36.302 11.654-36.302 29.52 0 16.701 12.618 29.325 33.39 29.325 11.648 0 21.937-4.659 29.508-10.293h2.912v7.962h20.383V65.643c0-23.111-15.724-33.404-39.991-33.404zM0 128.178h20.384V0H0v128.177zM85.61 34.57H60.764L31.06 73.606v12.235l30.478 42.336h25.237l-35.72-48.551L85.61 34.569zm736.871 0l-16.696 37.094c-4.076 8.935-7.957 17.672-9.122 23.5h-2.915c-1.165-5.828-5.24-14.372-9.316-23.304l-16.696-37.29h-22.519l39.215 84.092L765.018 161h21.743L845 34.569h-22.519zm-81.772 0H715.86l-29.702 39.037v12.235l30.478 42.336h25.238l-35.721-48.551 34.556-45.057zM613.086 72.634l-13.589-1.36c-10.678-.97-16.307-3.884-16.307-10.099 0-7.38 7.183-11.652 17.472-11.652 10.676 0 17.471 5.05 18.054 12.235h19.606c-.776-18.255-14.947-29.52-37.467-29.52-22.713 0-38.049 12.042-38.049 29.715 0 14.76 9.319 24.275 30.478 26.412l13.784 1.36c8.347.776 13.977 2.524 13.977 10.486 0 7.187-5.241 12.429-19.025 12.429-12.692 0-18.946-5.761-21.14-13.484h-21.212c2.113 17.654 16.938 31.352 42.352 31.352 23.878 0 39.409-12.624 39.409-31.267 0-16.508-10.872-24.86-28.343-26.607zm42.011 55.543h20.384V0h-20.384v128.177zm-134.415-82.73h-2.912V34.568h-20.383v93.608h20.383v-48.94c0-16.702 7.715-26.412 22.908-26.412h12.904V32.238h-7.468c-14.098 0-20.089 5.32-25.432 13.208z" fill="#2C292C"/></svg>