<svg width="717" height="127" fill="none" xmlns="http://www.w3.org/2000/svg"><path d="M0 63.5C0 99.837 28.584 127 66.343 127c13.42 0 25.045-2.903 35.121-10.043V93.233c-9.85 6.355-22.97 10.465-35.34 10.465-23.935 0-41.803-16.752-41.803-40.198 0-23.448 17.868-40.196 41.803-40.196 12.37 0 25.49 4.11 35.34 10.464V10.043C91.388 2.905 79.764 0 66.343 0 28.584 0 0 27.164 0 63.5zm569.062-32.482c-27.029 0-48.951 21.54-48.951 47.991S542.034 127 569.062 127c27.025 0 48.949-21.539 48.949-47.991 0-26.453-21.926-47.991-48.949-47.991zm0 76.333c-15.688 0-28.161-12.659-28.161-28.342 0-15.68 12.473-28.34 28.161-28.34 15.686 0 28.159 12.66 28.159 28.34 0 15.683-12.475 28.342-28.159 28.342zm126.851-74.442l-40.637 59.708V32.908h-20.465v92.204H655.6l40.61-59.52v59.52H717V32.909h-21.087zM194.781 76.555c5.103-3.025 10.017-10.016 10.017-17.762 0-14.925-11.339-25.885-26.837-25.885h-51.897v92.201h53.973c15.5 0 27.218-11.146 27.218-26.448.001-10.392-6.236-18.705-12.474-22.106zm-47.927-25.508h27.894c5.289 0 9.259 3.778 9.259 8.88 0 5.1-3.97 8.882-9.259 8.882h-27.894V51.047zm29.216 55.927h-29.216V86.946h29.216c6.049 0 10.394 4.343 10.394 10.013 0 5.668-4.345 10.015-10.394 10.015zm81.779-74.064c-18.333 0-32.132 13.791-32.132 31.741 0 14.567 9.292 26.449 22.747 30.255l-25.2 30.206h26.838l24.118-28.908h11.531v28.908h20.79V32.91h-48.692zm2.834 18.137h25.068v27.02h-25.068c-8.314 0-14.173-6.236-14.173-13.414-.002-7.559 5.859-13.606 14.173-13.606zM441.91 32.908h-20.789v92.204h20.789v-37.41h40.61v37.41h20.79V32.909h-20.79v36.655h-40.61V32.909zM327.089 119.74V99.342c8.115 4.25 18.037 8.009 29.381 8.009 13.787 0 22.488-4.115 22.488-11.434 0-6.53-7.602-9.035-17.28-9.035h-15.863V68.744h15.863c9.856 0 15.376-3.618 15.376-8.568 0-7.262-8.711-9.506-18.78-9.506-11.639 0-21.087 3.372-28.802 7.127V38.025c8.003-3.94 18.605-7.007 31.803-7.007 20.127 0 36.483 10.702 36.483 25.457 0 10.755-6.303 17.372-11.367 19.602 6.495 3.063 13.837 10.696 13.837 21.73 0 17.298-16.614 29.192-40.93 29.192-13.951.001-24.161-3.016-32.209-7.26m347.096-91.817c15.977 0 28.164-9.878 29.482-24.37l-16.655-2.077c0 6.264-5.683 11.074-12.827 11.074-7.143 0-12.828-4.81-12.828-11.074l-16.655 2.078c1.321 14.49 13.508 24.369 29.483 24.369" fill="#2C292C"/></svg>