<svg width="403" height="288" fill="none" xmlns="http://www.w3.org/2000/svg"><path d="M285.082 220.943c-4.384-3.669-6.633-7.064-7.039-7.708l15.421-9.746s-.021-.036-.068-.102c.015.019 1.298 1.909 3.865 3.948 3.279 2.603 7.091 4.264 11.327 4.94 5.393.858 10.958-.941 14.678-2.601 4.143-1.852 6.924-3.925 6.949-3.946l13.674 2.644-2.57 11.834c-5.342 4.103-13.836 8.156-21.707 9.719-13.06 2.593-25.528-1.448-34.53-8.982z" fill="#B75742"/><path d="M307.394 92.546l3.619-1.876 3.598 1.92a.56.56 0 00.815-.587l-.665-4.025 2.934-2.828a.56.56 0 00-.304-.959l-4.031-.609-1.783-3.668a.56.56 0 00-1.005-.006l-1.824 3.647-4.037.562a.56.56 0 00-.316.955l2.901 2.863-.712 4.016a.56.56 0 00.81.595" fill="#86B1F2"/><path d="M299.805 166.225H121.727v18.649h178.078v-18.649" fill="#F47257"/><path d="M252.438 232.233c-40.157-21.243-83.774-34.318-128.554-38.537l4.978-58.321c51.776 4.879 102.206 19.997 148.636 44.559l-25.06 52.299z" fill="#3C8F7C"/><path d="M127.832 183.032l3.392-36.373c4.706.484 8.922-2.554 9.434-6.91 43.165 5.424 85.233 18.036 124.624 37.361-1.751 3.983.303 8.902 4.543 11.101l-15.385 32.777c-3.902-2.025-8.519-.351-10.269 3.63-34.59-16.97-71.533-28.045-109.439-32.809.512-4.351-2.57-8.332-6.9-8.777" fill="#96D9C9"/><path d="M220.497 185.033c-3.62 10.43-14.783 15.742-25.136 12.558-10.347-3.21-16.995-14.023-14.669-24.85 2.32-10.81 13.806-17.287 25.448-13.684 11.647 3.589 17.972 15.566 14.357 25.976z" fill="#50BFA5"/><path d="M195.275 193.919l.866-3.492a18.87 18.87 0 01-4.22-1.977c-.986-.629-1.344-1.908-.811-2.926l.064-.123c.588-1.12 2.031-1.48 3.122-.761 1.11.73 2.415 1.385 3.869 1.791 2.114.592 3.768.21 4.151-1.256.361-1.391-.602-2.626-3.161-4.324-3.699-2.445-6.061-4.995-5.245-8.582.737-3.249 3.734-5.193 8.101-4.811l.856-3.497c1.284.356 2.566.719 3.847 1.089l-.824 3.228c1.399.468 2.513.99 3.418 1.524 1.105.652 1.495 2.015.891 3.043-.626 1.061-2.063 1.365-3.177.672a12.706 12.706 0 00-3.261-1.438c-2.506-.712-3.57.103-3.82 1.131-.298 1.217.862 2.349 3.791 4.454 4.124 2.854 5.357 5.438 4.452 8.717-.903 3.25-3.981 5.289-8.38 4.805l-.965 3.74a386.815 386.815 0 00-3.564-1.007" fill="#3C8F7C"/><path d="M174.561 172.336a367.69 367.69 0 00-30.975-5.767l.721-5.607a372.57 372.57 0 0131.41 5.847l-1.156 5.527zm79.809 28.352a375.27 375.27 0 00-29.049-12.719l1.866-5.308a379.428 379.428 0 0129.455 12.898l-2.272 5.129z" fill="#50BFA5"/><path d="M271.202 165.509c-41.431 8.66-80.885 26.015-116.282 51.152l-28.691-49.533c40.926-29.064 86.543-49.131 134.447-59.144l10.526 57.525z" fill="#3C8F7C"/><path d="M151.916 205.671l-17.681-31.075c3.742-2.61 5.168-7.707 3.129-11.496 34.873-23.151 72.925-39.89 112.726-49.588.918 4.281 5.165 6.883 9.515 5.935l6.834 35.847c-4.005.874-6.484 5.142-5.567 9.42-34.95 8.517-68.366 23.216-98.99 43.546-2.038-3.786-6.521-4.991-9.966-2.589z" fill="#96D9C9"/><path d="M221.428 148.306c3.116 10.594-2.174 21.919-11.584 25.974-9.418 4.032-20.327-.334-24.619-10.422-4.287-10.07.597-22.528 11.19-27.071 10.59-4.556 21.906.942 25.013 11.519zm-40.953 19.13a342.153 342.153 0 00-26.066 15.123l-2.579-4.918a346.592 346.592 0 0126.431-15.333c.737 1.709 1.475 3.419 2.214 5.128m74.645-28.234a327.408 327.408 0 00-28.502 8.368l-1.568-5.407a332.16 332.16 0 0128.9-8.486c.392 1.842.78 3.683 1.17 5.525" fill="#50BFA5"/><path d="M277.812 201.745c-43.087-2.613-86.238 3.714-127.181 18.648l-16.91-55.55c47.338-17.267 97.231-24.583 147.05-21.563-.985 19.489-1.972 38.977-2.959 58.465z" fill="#3C8F7C"/><path d="M150.212 208.963l-10.293-34.766c4.318-1.534 6.917-6.09 5.778-10.298 39.961-13.151 81.58-19.254 123.294-18.079-.088 4.388 3.517 8.034 8.05 8.269l-1.572 36.506c-4.173-.217-7.623 3.256-7.71 7.64-36.632-1.033-73.18 4.327-108.27 15.876-1.139-4.204-5.304-6.56-9.277-5.148" fill="#96D9C9"/><path d="M232.476 171.888c.624 11.08-7.258 20.637-17.53 22.066-10.275 1.402-20.074-5.719-21.979-16.621-1.905-10.883 5.836-21.643 17.396-23.23 11.558-1.598 21.496 6.725 22.113 17.785m-45.052 7.648a342.737 342.737 0 00-29.36 7.719l-1.412-5.444a347.695 347.695 0 0129.771-7.826l1.001 5.551zm80.573-7.518a336.85 336.85 0 00-30.204.535l-.294-5.649a342.127 342.127 0 0130.625-.544c-.041 1.887-.086 3.771-.127 5.658" fill="#50BFA5"/><path d="M121.727 166.225v78.412h178.078v-78.412H121.727z" fill="#F47257"/><path d="M299.805 224.618h-44.066c-1.953 0-3.537 1.659-3.537 3.705 0 2.048 1.584 3.707 3.537 3.707h-5.713c-1.953 0-3.539 1.659-3.539 3.707 0 2.046 1.586 3.706 3.539 3.706h.99c-1.954 0-3.537 1.659-3.537 3.705 0 .53.106 1.033.298 1.489h52.028v-20.019m-9.408-48.443H128.289v-6.089h162.108v6.089z" fill="#B75742"/><path d="M198.905 243.664H125.75a5.985 5.985 0 01-5.983-5.986v-36.726a5.985 5.985 0 015.983-5.986h73.155a5.984 5.984 0 015.983 5.986v36.726a5.984 5.984 0 01-5.983 5.986" fill="#3C8F7C"/><path d="M146.201 216.844H125.24V204.65h20.961v12.194zm53.298-13.006h-37.172v-2.277h37.172v2.277zm-2.762 26.547h-68.41v-2.812h68.41v2.812zm0 6.622h-68.41v-2.813h68.41v2.813z" fill="#F7CC7F"/><path d="M205.933 188.266h-75.585v-2.021h75.585v2.021z" fill="#B75742"/><path d="M262.977 146.671c5.342 7.613 3.503 18.118-4.109 23.46-7.61 5.344-18.107 3.504-23.447-4.109-5.342-7.614-3.502-18.119 4.107-23.461 7.61-5.344 18.109-3.504 23.449 4.11z" fill="#FAE0B2"/><path d="M260.761 148.227c4.482 6.39 2.937 15.202-3.448 19.687-6.385 4.484-15.195 2.939-19.677-3.449-4.481-6.39-2.939-15.204 3.448-19.687 6.384-4.484 15.194-2.939 19.677 3.449z" fill="#F7CC7F"/><path d="M278.858 200.573c5.341 7.613 3.501 18.117-4.109 23.461-7.611 5.342-18.109 3.502-23.448-4.112-5.342-7.613-3.502-18.116 4.108-23.46 7.609-5.343 18.107-3.502 23.449 4.111" fill="#FAE0B2"/><path d="M276.641 202.13c4.482 6.388 2.938 15.202-3.446 19.686-6.387 4.484-15.196 2.939-19.677-3.45-4.483-6.388-2.939-15.202 3.447-19.686 6.383-4.483 15.195-2.94 19.676 3.45z" fill="#F7CC7F"/><path d="M266.71 220.189l-.617-2.278a11.41 11.41 0 01-3.008.265 1.434 1.434 0 01-1.36-1.416l-.002-.09a1.436 1.436 0 011.522-1.453 8.372 8.372 0 002.721-.255c1.365-.369 2.156-1.149 1.897-2.108-.245-.912-1.168-1.279-3.104-1.399-2.797-.17-4.87-.895-5.497-3.221-.573-2.11.467-4.166 2.895-5.363l-.616-2.278 2.349-.635.57 2.11a10.544 10.544 0 012.272-.275 1.432 1.432 0 011.432 1.417 1.434 1.434 0 01-1.464 1.454 7.623 7.623 0 00-2.186.271c-1.557.422-1.879 1.228-1.698 1.899.214.792 1.189 1.069 3.433 1.285 3.125.235 4.63 1.243 5.213 3.4.577 2.134-.439 4.364-3.066 5.59l.661 2.445-2.347.635" fill="#fff"/><path d="M249.196 189.163c0 9.302-7.536 16.842-16.834 16.842-9.297 0-16.834-7.54-16.834-16.842 0-9.301 7.537-16.841 16.834-16.841 9.298 0 16.834 7.54 16.834 16.841z" fill="#FAE0B2"/><path d="M246.489 189.162c0 7.805-6.325 14.134-14.126 14.134-7.8 0-14.125-6.329-14.125-14.134 0-7.805 6.325-14.132 14.125-14.132 7.801 0 14.126 6.327 14.126 14.132z" fill="#F7CC7F"/><path d="M290.397 239.754h-76.241v-40.878h76.241v40.878z" fill="#F48C7F"/><path d="M252.202 228.324c0 2.047 1.583 3.706 3.536 3.706h-5.713c-1.953 0-3.539 1.659-3.539 3.707 0 2.046 1.586 3.706 3.539 3.706h.99a3.4 3.4 0 00-1.422.311h40.804v-15.135h-34.659c-1.953 0-3.536 1.658-3.536 3.705" fill="#B75742"/><path d="M59.4 243.442c0 .66.497 1.195 1.11 1.195h276.41c.614 0 1.11-.535 1.11-1.195 0-.661-.496-1.195-1.11-1.195H60.509c-.612 0-1.108.534-1.108 1.195z" fill="#13375B"/><path d="M300.25 246.855h-45.505a3.306 3.306 0 01-3.306-3.308 3.307 3.307 0 013.306-3.307h45.505a3.306 3.306 0 013.306 3.307 3.306 3.306 0 01-3.306 3.308z" fill="#F7CC7F"/><path d="M299.327 240.239h-45.505a3.307 3.307 0 010-6.615h45.505a3.308 3.308 0 010 6.615z" fill="#FAE0B2"/><path d="M304.667 233.624h-45.506a3.305 3.305 0 01-3.305-3.308 3.306 3.306 0 013.305-3.307h45.506a3.307 3.307 0 010 6.615z" fill="#F7CC7F"/><path d="M246.787 90.394l.58 3.918-6.201 1.629.141 5.834-4.441 1.977 1.001 2.249 5.938-2.645-.132-5.528 6.45-1.694-.872-5.897-2.464.157" fill="#466EB6"/><path d="M171.212 80.114l-3.76.382-1.281-5.983-5.564-.12-1.691-4.32-2.187.856 2.262 5.778 5.273.114 1.334 6.225 5.655-.574-.041-2.358" fill="#50BFA5"/><path d="M214.651 75.64l4.022 1.326s6.377-2.066 7.003-3.367c.628-1.3.805-4.454 1.713-4.54.908-.087 2.66.209 3.078 2.367.303 1.568-1.991 6.097-1.632 6.58.224.301 2.512 1.13 4.195 1.709a3.134 3.134 0 012.075 2.53v.002a1.726 1.726 0 01-1.078 1.856l-1.157.447.371 1.194a1.728 1.728 0 01-1.091 2.141l-.896.3.287.728a1.726 1.726 0 01-1.114 2.282l-.782.228.031.209a1.72 1.72 0 01-1.254 1.927l-.776.205-10.711-3.537a7.637 7.637 0 01-2.714-1.577l-3.556-1.878a.884.884 0 01-.415-1.074l3.297-9.5a.883.883 0 011.104-.559" fill="#FAE0B2"/><path d="M151.036 118.199l.852-4.222 3.958-1.692a.593.593 0 00.059-1.061l-3.751-2.114-.384-4.29a.592.592 0 00-.99-.383l-3.17 2.915-4.197-.959a.592.592 0 00-.67.824l1.792 3.915-2.209 3.698a.592.592 0 00.576.891l4.277-.494 2.831 3.245a.592.592 0 001.026-.273" fill="#F7CC7F"/><path d="M99.37 221.908s-5.276 3.806-6.107 4.942c-1.197 1.636 8.94 4.695 7.834 2.78-.255-.441-.985-1.923-1.016-2.068-.17-.781 1.98-2.88 1.98-2.88l-2.69-2.774" fill="#F7A491"/><path d="M103.838 232.831l-3.583-5.066s-2.237-.521-4.533-3.106c0 0-2.064.789-3.334 2.497 0 0 2.4 2.586 6.095 5.498 0 0 2.19 1.941 5.219 2.965 3.028 1.024.136-2.788.136-2.788z" fill="#F7CC7F"/><path d="M55.271 152.536s.649.575.879.749c.269.204 1.12.757 1.12.757s3.08 1.753 3.184 1.523c.105-.231.1-.896-.052-1.07-.152-.176-.596-.356-.748-.532-.152-.174-.205-.527-.009-.723.196-.195 1.249.381 1.249.381s.852.473 1.209 1.045c1.235 1.983.86 2.098 1.026 2.349.195.296 4.515 2.258 4.515 2.258s12.915 5.372 13.611 5.665h.01c.093.599-.227 1.149-.391 1.679-.309 1.846-.858 1.968-1.277 3.748-1.98-1.002-15.694-8.561-17.087-9.349 0 0-2.089-.355-3.394-.623-1.305-.267-2.442-1.093-2.8-1.224-.053-.019-1.22-.523-2.504-1.518-1.107-.858.322-.536.322-.536s2.325 1.234 2.385 1.039c.047-.152-1.26-.752-2.494-1.688-.318-.242-.63-.481-.915-.703-.748-.582-.618-1.192.26-.704.309.173.817.471 1.15.733.36.285.78.433 1.117.626.671.385 1.156.674 1.156.638 0-.046.184-.062-.145-.327-.396-.319-1.382-.819-1.928-1.333-.31-.291-.994-.861-.994-.861s-.877-1.05-.834-1.119c.232-.377 1.03.179 1.4.626.38.17 1.082.791 1.082.791s1.695.946 1.825.714c.056-.098-.917-.8-1.767-1.633-.79-.774-1.464-1.68-1.34-1.853.214-.294 1.18.475 1.18.475z" fill="#F8A492"/><path d="M91.3 182.788l.835 4.13 20.983 19.095-15.02 15.208 4.056 4.146s22.183-16.296 22.983-18.432c1.231-3.289-15.902-25.069-15.902-25.069l-17.935.922z" fill="#B75742"/><path d="M76.75 232.733s-4.234 4.615-5.065 5.751c-1.197 1.636 7.742 4.051 6.636 2.136-.254-.441-.984-1.924-1.016-2.07-.17-.779 1.98-2.88 1.98-2.88l-2.536-2.937" fill="#F7A491"/><path d="M83.034 240.473l-5.827-2.131s-2.202 1.002-5.56.181c0 0-1.184 1.665-1.258 3.792 0 0 11.043 1.409 14.116.53 3.073-.88-1.471-2.372-1.471-2.372" fill="#F7CC7F"/><path d="M92.018 184.702l.942 26.056-18.618 22.84 5.037 2.759s20.595-17.686 22.857-22.612c1.403-3.056 6.122-30.676 6.122-30.676l-16.34 1.633z" fill="#F47458"/><path d="M108.943 182.563c-1.706-3.853-1.509-31.48-8.151-37.951-2.337.396-4.003.616-4.393.72-.347 2.845-.728 13.288-.962 22.86-.156 6.375.005 13.062-.78 16.587-.487 2.185 15.845 1.305 14.286-2.216z" fill="#FAE0B2"/><path d="M90.965 146.758c-1.865.424-3.238.722-5.681 4.335-2.34 3.458-7.535 11.663-7.535 11.663l-13.683-6.081-.64 6.933s15.48 8.051 17.664 7.326c2.184-.726 8.324-9.706 8.778-10.312.107-.143-.515 9.592-.515 11.147 0 1.554-2.968 15.094-2.968 15.094s7.53 1.855 9-1.513c4.505-10.327 1.047-40.028 1.047-40.028s-4.126 1.129-5.467 1.436" fill="#466EB6"/><path d="M119.07 117.19c-.575-.481-.826-1.636-.921-2.379l-.256-.983c.234-.097 4.797-.746 6.173-.782.134.436.201.805.158 1.039-.205 1.125-1.641 8.432-1.641 8.432l-3.93.077s.855-4.331.417-5.404" fill="#F7A491"/><path d="M102.332 146.229s2.696 7.677 4.915 6.571c2.219-1.106 14.684-13.821 14.808-14.435.123-.615.986-16.221.986-16.221l-4.931-.983-2.835 12.78s-9.122 8.724-10.971 9.585c-1.849.86-1.972 2.703-1.972 2.703" fill="#466EB6"/><path d="M109.611 184.411c1.492 0 2.043-.208 3.037-.506 0 0-2.842-16.028-4.495-31.923-.652-6.279-1.258-8.853-3.847-8.398-.749.131-2.777.904-3.514 1.028 6.507 18.418 6.529 32.593 7.45 36.704.462 2.064.865 3.108 1.369 3.095" fill="#466EB6"/><path d="M100.106 141.83l.682 2.782s.155 2.424-.969 2.641c-1.355.262-3.37-1.767-3.37-1.767l-1.166-7.848 4.823 4.192z" fill="#F7A491"/><path d="M100.106 141.83l.682 2.782s.155 2.424-.969 2.641c-1.355.262-3.37-1.767-3.37-1.767l-1.166-7.848 4.823 4.192z" fill="#F7A491"/><path d="M95.295 137.674l4.811 4.156.509 2.078c-1.839-.442-4.46-2.467-5.32-6.234z" fill="#F47458"/><path d="M100.122 130.455c1.164-.004 2.211.804 2.62 1.966.339.962.774 2.39 1.05 4.028.509 3.018-1.209 5.781-2.703 6.002-1.495.22-5.055-.771-5.842-5.046-.338-1.832-.781-4.235.725-5.498 1.172-.982 2.813-1.449 4.15-1.452" fill="#F7A491"/><path d="M95.733 140.662s-5.269-4.697-5.499-8.366c-.23-3.671 3.158-5.636 6.054-5.739 1.309-.046 2.194.013 3.546.183 2.902.366 4.783 1.653 4.12 4.032-.888 3.194-6.912.5-8.143 1.491-1.017.819.631 2.786-.356 3.536-.928.706-.456.467-.148 1.809.307 1.342.425 3.054.425 3.054" fill="#184655"/><path d="M93.7 136.407c.132.88.669 1.529 1.201 1.45.532-.078.858-.855.727-1.734-.13-.88-.667-1.529-1.2-1.45-.532.078-.858.856-.727 1.734z" fill="#F7A491"/><path d="M119.337 113.816s.853.484 1.702 1.609c0 0 2.222-1.425 2.144-1.877-.103-.599-2.375.513-2.375.513l-1.471-.245" fill="#F47458"/><path d="M62.047 84.303l59.992 30.905c3.228 1.663 7.309.166 9.116-3.344l15.319-29.77c1.807-3.508.654-7.702-2.574-9.365L83.908 41.825c-3.228-1.664-7.31-.166-9.115 3.343l-15.32 29.768c-1.807 3.511-.654 7.705 2.574 9.367z" fill="#96D9C9"/><path d="M131.499 111.194L59.817 74.268l4.647-9.032 71.683 36.928-4.648 9.03z" fill="#355389"/><path d="M94.003 62.995l-15.797-8.154 4.522-8.767 15.797 8.156-4.522 8.766z" fill="#F7CC7F"/><path d="M119.32 113.769c-.104-.283-.309-.677-.208-.831.639-.978-.05-2.041-.516-1.21-.27.484-.743 1.547-.703 2.1.029.4.435 1.926.435 1.926s1.584-.386.992-1.985m180.723 102.837s-.37 4.602-.069 6.097c.159.801 1.053 2.45.643 3.203-.408.753-.879.942-.879.942l-10.621.168c-.578.009-.198-.357.27-.694.762-.553 1.379-.919 3.819-2.079.16-.077.739-.438.947-.563.53-.319 1.062-.82 1.52-1.321.763-.837.829-4.889.829-4.889l3.541-.864" fill="#F7A491"/><path d="M291.741 155.447s-4.567-2.252-3.688 2.645c.878 4.899 7.567 59.976 7.567 59.976l6.265.347s.801-18.363.624-20.999c-.174-2.637-1.212-6.717-1.212-6.717l-.531-16.29-5.911-20.114-3.114 1.152z" fill="#355389"/><path d="M294.153 223.678c2.809.71 4.886.228 6.049-.233.299.835.696 1.883.485 2.487-.256.74-.594 1.07-.917 1.077-2.566.066-9.431-.004-11.388.02a.313.313 0 01-.247-.517c.485-.57 5.809-2.707 6.018-2.834" fill="#3C8F7C"/><path d="M288.053 122.346s-3.859-7.431-4.459-10.159c-.599-2.729-2.673-16.467-2.498-17.35.175-.887 3.455-3.016 3.05-3.767-.405-.751-3.529-.753-4.245-.69-.716.066-2.152.483-2.767.99-.615.508.692 16.972 1.081 20.517.391 3.544 5.189 14.46 5.189 14.46l4.649-4.001m30.076 57.916s3.185-3.341 3.895-4.69c.377-.723.722-2.566 1.515-2.893.792-.327 1.275-.179 1.275-.179l8.355 6.565c.456.359-.072.402-.647.37-.942-.053-1.65-.157-4.276-.793-.172-.042-.849-.125-1.089-.16-.612-.086-1.34-.033-2.012.068-1.119.168-3.723 3.273-3.723 3.273l-3.293-1.561z" fill="#F7A491"/><path d="M327.157 178.482c-1.736-2.321-3.651-3.256-4.846-3.63.295-.838.615-1.933 1.16-2.27.666-.412 1.125-.327 1.383-.128 2.034 1.565 7.359 5.849 8.894 7.063a.315.315 0 01-.131.559c-.738.137-6.219-1.56-6.46-1.594" fill="#3C8F7C"/><path d="M318.204 120.083c-1.981-4.159-6.372-6.449-10.626-5.341-1.526-2.066-3.885-3.511-6.342-3.859-4.844-.687-11.095 1.664-10.456 6.723-1.53 3.539-1.157 8.416 1.9 10.806-.56 4.652 4.1 8.778 9.619 8.221 2.22 3.066 6.079 4.864 9.689 4.164.866-.168 2.181-.484 2.408-.445-.283-.031 6.291 4.277 10.826-3.395 4.628-7.829.071-16.581-7.018-16.874" fill="#184655"/><path d="M289.901 157.223s10.239-4.555 10.4-4.037c1.284 4.137 5.278 2.802 7.65 10.089.991 3.051 2.013 23.348 2.013 23.348s4.036-3.352 9.806-9.21c.442-.45 4.781 3.677 4.781 3.677-11.453 15.482-16.393 16.29-18.305 15.423-3.988-1.809-12.406-27.12-12.392-27.117-1.012-1.97-3.953-12.173-3.953-12.173" fill="#466EB6"/><path d="M306.879 128.629s14.799-.019 17.97-.202c2.865-.165 14.243.125 14.686.073.446-.052 3.384-5.034 3.875-4.499.486.535-1.637 2.471-.979 2.973.656.502 7.714-.623 7.622-.101-.177.977-4.294.853-4.29 1.325.005.471 4.311-.265 4.602.518.292.783-4.141.319-4.32.669-.176.349 4.115.989 3.674 1.717-.238.396-3.801-.66-3.782-.121.018.539 2.616 1.766 2.298 2.195-.321.43-2.042-1.318-3.55-1.34-1.505-.021-2.588-.808-4.993-.148-1.189.327-10.263 1.436-17.933 2.092-7.86.672-14.306.886-14.306.886l-.574-6.037" fill="#F7A491"/><path d="M284.93 139.098c-.195-2.377.273-4.209.379-4.997-.718-2.47-2.247-7.739-2.797-8.774 0 0 2.577-4.954 5.215-4.92 0 0 2.694 6.075 4.777 7.162.029-.008.736.315 1.047.313 2.01-.015 9.039-.228 10.35-.251l-.738 9.974c-5.092 9.988-3.714 15.228-1.777 17.166.913.912-12.706 4.613-13.333 3.321-.74-1.522-2.726-14.188-3.123-18.994" fill="#F7CC7F"/><path d="M300.331 128.007c1.295-.619 10.676-.309 10.676-.309s1.311 6.536.251 8.106c0 0-8.386 1.249-8.149 1.937l-2.778-9.734" fill="#F7CC7F"/><path d="M297.872 123.808s-.166 3.564.002 5.048c.166 1.485-1.521 4.966-4.666 5.026-3.145.061-.463-3.339-.187-4.8.276-1.461.605-7.18.605-7.18l4.246 1.906z" fill="#F7A491"/><path d="M293.626 121.902s-.076 1.328-.186 2.867c.99 1.184 2.516 1.788 4.368 1.068.02-1.104.063-2.029.063-2.029l-4.245-1.906" fill="#F47458"/><path d="M298.132 113.188s1.781.532 2.779 2.314c.999 1.783 1.42 6.856-2.419 8.945-3.841 2.09-6.473-1.422-6.297-4.658.174-3.236 1.165-7.503 5.937-6.601z" fill="#F7A491"/><path d="M291.423 118.718c.259.802.848 1.329 1.316 1.178.466-.152.635-.925.374-1.726-.259-.802-.85-1.329-1.316-1.178-.468.152-.635.925-.374 1.726" fill="#F7A491"/><path d="M297.596 113.044s1.949 5.334 3.945 5.936c1.991.602 1.783 3.204 1.783 3.204s.37-6.017-1.435-7.527c-1.804-1.51-4.293-1.613-4.293-1.613" fill="#184655"/><path d="M300.661 120c-.324.822-.136 1.666.42 1.885.554.22 1.268-.269 1.591-1.091.325-.822.138-1.666-.418-1.885-.554-.22-1.268.269-1.593 1.091z" fill="#F7A491"/><path d="M276.576 92.638s4.336.19 4.846.19c.508 0 1.991-1.532 1.991-1.532l-6.837 1.342z" fill="#F47458"/><path d="M290.769 66.31c5.34 7.613 3.5 18.116-4.108 23.46-7.61 5.343-18.108 3.502-23.449-4.111-5.342-7.614-3.502-18.118 4.108-23.461 7.609-5.343 18.108-3.502 23.449 4.111z" fill="#FAE0B2"/><path d="M288.552 67.865c4.482 6.39 2.939 15.203-3.448 19.687-6.386 4.484-15.195 2.939-19.677-3.45-4.482-6.389-2.937-15.202 3.448-19.686 6.386-4.484 15.197-2.94 19.677 3.45z" fill="#F7CC7F"/><path d="M281.422 92.826l1.79-1.608s-.844-1.01-.494-1.204c.572-.316 1.549.904 1.462 1.2-.088.297-1.137 1.253-1.137 1.253l-1.621.36" fill="#F7A491"/><g clip-path="url(#clip0)"><path d="M244.908 164.075l2.496-1.043.947 2.265c.046.11.117.186.213.229a.363.363 0 00.301-.001l1.86-.778a.366.366 0 00.206-.211.397.397 0 00-.007-.315l-.947-2.265 5.625-2.352a.362.362 0 00.212-.213.412.412 0 00-.013-.313l-.631-1.51a.41.41 0 00-.214-.229.363.363 0 00-.301.001l-5.625 2.352-.582-1.392 3.787-1.584c1.485-.621 2.497-1.607 3.035-2.959.539-1.352.491-2.787-.144-4.305-.634-1.517-1.622-2.559-2.962-3.126-1.341-.566-2.754-.539-4.239.082l-6.004 2.51a.37.37 0 00-.212.214.412.412 0 00.013.313l3.102 7.419-2.495 1.043a.359.359 0 00-.209.219.413.413 0 00.011.307l.734 1.758a.41.41 0 00.214.229.363.363 0 00.301-.001l2.495-1.043.582 1.391-2.495 1.044a.362.362 0 00-.212.213.407.407 0 00.013.313l.631 1.51c.046.11.117.187.214.229a.361.361 0 00.3-.001zm.28-13.571l3.565-1.49c.787-.329 1.524-.351 2.21-.066.687.286 1.195.822 1.523 1.608.329.787.354 1.525.075 2.214-.279.69-.812 1.199-1.599 1.528l-3.564 1.49-2.21-5.284z" fill="#fff"/></g><g clip-path="url(#clip1)"><path d="M223.247 191.242l2.459 1.127-1.023 2.232a.408.408 0 00-.024.312c.034.1.102.174.205.221l1.833.84a.395.395 0 00.521-.211l1.023-2.231 5.543 2.54a.366.366 0 00.3.012.416.416 0 00.222-.222l.681-1.488a.408.408 0 00.024-.312.367.367 0 00-.204-.221l-5.543-2.541.628-1.371 3.732 1.711c1.464.67 2.874.746 4.234.225 1.358-.521 2.38-1.529 3.066-3.024.685-1.495.782-2.928.29-4.298-.493-1.368-1.47-2.389-2.934-3.06l-5.915-2.712a.369.369 0 00-.301-.011.41.41 0 00-.221.222l-3.351 7.31-2.459-1.127a.357.357 0 00-.303-.006.422.422 0 00-.218.216l-.794 1.732a.408.408 0 00-.024.312.363.363 0 00.205.221l2.458 1.127-.628 1.371-2.459-1.127a.366.366 0 00-.3-.011.412.412 0 00-.222.222l-.682 1.487a.415.415 0 00-.023.313c.034.1.102.173.204.22zm10.167-8.994l3.512 1.61c.775.355 1.291.882 1.546 1.581.256.698.206 1.435-.149 2.209-.355.775-.881 1.294-1.577 1.556s-1.431.216-2.207-.14l-3.512-1.61 2.387-5.206z" fill="#fff"/></g><path d="M270.159 82.136h2.705v2.455c0 .12.036.217.109.294a.364.364 0 00.277.115h2.017a.395.395 0 00.386-.409v-2.455h6.097a.365.365 0 00.278-.115.409.409 0 00.109-.294v-1.636a.408.408 0 00-.109-.294.364.364 0 00-.278-.115h-6.097v-1.509h4.105c1.61 0 2.924-.52 3.942-1.56 1.018-1.039 1.527-2.381 1.527-4.026s-.509-2.987-1.527-4.027c-1.018-1.04-2.332-1.56-3.942-1.56h-6.508a.363.363 0 00-.277.115.41.41 0 00-.109.294v8.041h-2.705a.355.355 0 00-.277.122.415.415 0 00-.109.287v1.905c0 .12.036.217.109.294a.362.362 0 00.277.115h2.705v1.509h-2.705a.363.363 0 00-.277.115.408.408 0 00-.109.294v1.636c0 .12.036.217.109.294a.363.363 0 00.277.115zm5.494-12.413h3.863c.854 0 1.542.264 2.065.793.523.528.785 1.219.785 2.07 0 .853-.262 1.544-.785 2.072s-1.211.793-2.065.793h-3.863v-5.728z" fill="#fff"/><g clip-path="url(#clip2)"><path d="M183.174 73.106l3.59.708-.633 3.211a.542.542 0 00.068.413.5.5 0 00.339.224l2.677.527a.527.527 0 00.618-.434l.633-3.211 8.093 1.595c.15.03.283.004.399-.077a.544.544 0 00.22-.357l.422-2.14a.543.543 0 00-.069-.413.496.496 0 00-.339-.224l-8.093-1.595.389-1.974 5.449 1.075c2.137.42 4.014.085 5.635-1.01 1.619-1.092 2.641-2.715 3.066-4.867.424-2.151.094-4.04-.989-5.668-1.084-1.626-2.694-2.65-4.831-3.072l-8.638-1.702a.5.5 0 00-.399.077.547.547 0 00-.22.356l-2.073 10.52-3.59-.708a.485.485 0 00-.4.086.554.554 0 00-.219.348l-.491 2.492a.54.54 0 00.069.413c.076.12.189.193.339.223l3.59.708-.389 1.973-3.59-.708a.498.498 0 00-.399.079.543.543 0 00-.22.355l-.422 2.141a.54.54 0 00.069.413c.076.12.189.194.339.223zm10.493-14.8l5.128 1.01c1.133.224 1.978.75 2.536 1.578.558.828.728 1.8.508 2.914-.22 1.115-.745 1.95-1.576 2.504-.831.555-1.812.72-2.945.497l-5.128-1.011 1.477-7.492z" fill="#96D9C9"/></g><g clip-path="url(#clip3)"><path d="M181.674 115.336l3.072-1.697 1.518 2.749c.073.133.175.22.305.26a.475.475 0 00.387-.045l2.29-1.265a.48.48 0 00.237-.299.503.503 0 00-.051-.401l-1.518-2.748 6.927-3.825a.477.477 0 00.244-.303.52.52 0 00-.058-.397l-1.012-1.832a.518.518 0 00-.305-.261.482.482 0 00-.387.045l-6.926 3.825-.933-1.689 4.663-2.575c1.829-1.009 3.001-2.415 3.515-4.218.514-1.802.263-3.625-.755-5.467-1.016-1.84-2.425-3.024-4.224-3.55-1.799-.524-3.614-.283-5.442.727l-7.393 4.082a.477.477 0 00-.244.303.52.52 0 00.058.397l4.971 9.003-3.072 1.696a.469.469 0 00-.241.31.528.528 0 00.055.39l1.177 2.133c.074.133.175.22.305.261.13.04.259.025.387-.046l3.072-1.696.933 1.688-3.073 1.697a.479.479 0 00-.244.303.523.523 0 00.058.397l1.012 1.832a.518.518 0 00.305.261c.13.041.259.026.387-.045zm-1.433-17.342l4.389-2.424c.969-.535 1.914-.67 2.835-.408.921.264 1.645.873 2.172 1.826.527.955.656 1.892.388 2.811-.267.921-.886 1.648-1.855 2.183l-4.389 2.424-3.54-6.412z" fill="#86B1F2"/></g><defs><clipPath id="clip0"><path fill="#fff" transform="rotate(-22.691 494.18 -517.8)" d="M0 0h17v18H0z"/></clipPath><clipPath id="clip1"><path fill="#fff" transform="rotate(24.628 -291.171 611.886)" d="M0 0h17v18H0z"/></clipPath><clipPath id="clip2"><path fill="#fff" transform="rotate(11.152 -178.692 976.765)" d="M0 0h23v24H0z"/></clipPath><clipPath id="clip3"><path fill="#fff" transform="rotate(-28.907 277.775 -282.158)" d="M0 0h22.06v23.019H0z"/></clipPath></defs></svg>