<svg width="516" height="322" fill="none" xmlns="http://www.w3.org/2000/svg"><path d="M60.179 275.661s-56.176-56.278-9.5-117.208c41.414-54.06 89.698-50.365 125.124-28.427 15.087 9.344 58.589 1.152 95.613-53.857 50.493-75.017 225.515-29.519 193.603 85.897-15.442 55.852 46.999 57.882 15.182 113.712l-420.022-.117" fill="#EBF3FA"/><path d="M310.7 252.052c-.002-.032.176-3.666-1.582-4.502l.124-.119c.805.28 1.697 1.15 2.057 2.375.263.911.063 1.111.063 1.145l-.662 1.101" fill="#A4C8FC"/><path d="M299.043 242.634s.602 4.678 3.458 6.048c2.857 1.369 6.89-1.089 6.89-1.089s-.601-4.678-3.458-6.048c-2.858-1.37-6.89 1.089-6.89 1.089zm11.358 16.235c-.034-.182-.669-4.462.954-9.232 1.558-4.582.695-8.469.688-8.507h1.147c.031.165.11 3.979-1.113 9.206-1.097 4.704.956 8.533.517 8.533h-2.193" fill="#A4C8FC"/><path d="M312.809 246.235c.005-.024.554-3.16 2.026-3.518-.659.085-1.495.557-1.963 1.433-.347.652-.226.836-.231.861l.168 1.224" fill="#A4C8FC"/><path d="M317.536 246.558c-2.202-.444-3.431-3.553-3.431-3.553s2.34-2.389 4.543-1.946c2.201.444 3.43 3.555 3.43 3.555s-2.339 2.389-4.542 1.944z" fill="#A4C8FC"/><path d="M300.431 236.425c-3.506-5.314-2.033-12.461 3.291-15.963 5.324-3.5 12.481-2.029 15.987 3.286 3.507 5.316 2.034 12.463-3.29 15.963s-12.483 2.03-15.988-3.286" fill="#FFB93E"/><path d="M304.706 221.955c-4.555 2.994-5.819 9.13-2.82 13.677 2.999 4.546 9.143 5.809 13.698 2.814 4.553-2.995 5.819-9.129 2.82-13.675-2.999-4.547-9.145-5.811-13.698-2.816zm11.223 17.014a10.454 10.454 0 01-7.905 1.515 10.449 10.449 0 01-6.663-4.508 10.419 10.419 0 01-1.518-7.892 10.431 10.431 0 014.518-6.653 10.46 10.46 0 017.905-1.514 10.448 10.448 0 016.66 4.509 10.418 10.418 0 011.519 7.892 10.422 10.422 0 01-4.516 6.651z" fill="#FFA412"/><path d="M321.934 257.756l-.002.01-.229 3.531-.853 13.107h-15.977l-.942-12.929-.257-3.563-.011-.156h18.271" fill="#B4C9F7"/><path d="M321.931 257.766l-.229 3.531c-1.205-.419-4.549-1.425-8.905-1.425-5.503 0-8.866 1.604-8.866 1.604l-.259-3.563 18.259-.147" fill="#9BB8EA"/><path d="M322.488 259.622h-19.406l-.222-2.252h19.875l-.247 2.252zm-1.393 15.48h-16.564l-.191-.784h16.966l-.211.784z" fill="#B4C9F7"/><path d="M494.35 276.24H30.838a.527.527 0 01-.527-.526v-.179c0-.288.237-.525.527-.525H494.35c.289 0 .526.237.526.525v.179c0 .29-.237.526-.526.526z" fill="#2E3552"/><path d="M421.121 190.706l-1.552 1.258s-4.242-1.518-5.2 3.515c0 0-.254 2.146 1.106 2.15 1.362.004.802-.235 2.727-.178 1.93.056 3.526-.958 3.809-2.52l.921-1.323-1.811-2.902" fill="#EA8E50"/><path d="M421.298 193.406c-1.236-1.291-1.138-2.245-1.138-2.245s14.33-11.712 15.785-12.667c.988-.65 11.541-9.99 16.474-15.685 2.446-2.824 5.476-1.729 8.943-.736l2.857.818c3.447.989 4.344 5.803 1.515 8.144-7.968 6.59-21.223 14-23.704 15.559-6.154 3.866-18.205 8.462-18.205 8.462s-1.463-.543-2.527-1.65" fill="#1E3D70"/><path d="M404.947 265.368s-3.477 2.602-8.806 1.227c0 0-4.297-.977-5.239 1.163 0 0 6.588 3.34 8.256 4.255 1.256.689 2.568 1.776 3.495 2.616a1.73 1.73 0 002.502-.192c.289-.355.621-.78.985-1.271 1.015-1.375 3.382-5.816 3.382-5.816l-4.575-1.982" fill="#233862"/><path d="M444.618 170.333c0-13.406-10.886-24.274-24.312-24.274-13.428 0-24.315 10.868-24.315 24.274 0 13.407 10.887 24.276 24.315 24.276 13.426 0 24.312-10.869 24.312-24.276z" fill="#E2810E"/><path d="M446.739 170.333c0-13.406-10.883-24.274-24.313-24.274-13.427 0-24.313 10.868-24.313 24.274 0 13.407 10.886 24.276 24.313 24.276 13.43 0 24.313-10.869 24.313-24.276z" fill="#FFB93E"/><path d="M401.596 170.62c0 11.468 9.345 20.798 20.83 20.798 11.486 0 20.83-9.33 20.83-20.798 0-11.467-9.344-20.797-20.83-20.797-11.485 0-20.83 9.33-20.83 20.797zm5.169 15.639a21.938 21.938 0 01-6.489-15.639 21.945 21.945 0 016.489-15.639c4.181-4.177 9.745-6.477 15.661-6.477 5.919 0 11.48 2.3 15.664 6.477 4.184 4.178 6.489 9.732 6.489 15.639a21.95 21.95 0 01-6.489 15.639 22.02 22.02 0 01-15.664 6.479c-5.916 0-11.48-2.301-15.661-6.479z" fill="#FFA412"/><path d="M402.906 264.046s2.117 4.875 7.004 3.979c0 0 9.974-8.224 16.816-16.767 2.221-2.774 4.114-5.583 5.226-8.153 4.537-10.488 16.779-26.128 24.565-34.056l-19.476-7.036s-6.24 12.531-14.541 27.922c-5.983 11.091-13.035 23.667-19.594 34.111z" fill="#2B478B"/><path d="M422.5 229.935l4.226 21.323c2.221-2.774 4.114-5.583 5.226-8.153 4.537-10.487 16.779-26.128 24.565-34.056l-19.476-7.036s-6.24 12.531-14.541 27.922zm15.92 38.262s.213 3.89-4.51 4.41c0 0-2.7.013-2.705 2.489l13.725.043s.397-.998.495-3.138c.074-1.642-1.593-5.936-1.593-5.936l-5.412 2.132" fill="#233862"/><path d="M443.428 202.013s-8.676 9.52-14.184 26.671c-3 9.332 5.491 32.793 7.145 40.946 0 0 5.696.481 9.591-1.021 0 0 .297-16.837-1.981-29.814-1.275-7.262 11.424-15.532 16.973-28.655 3.775-8.927-.819-8.776-6.461-8.99l-11.083.863" fill="#2B478B"/><path d="M453.445 159.54c4.828 2.722 14.711.212 14.711.212s-4.013-4.581-2.189-11.96l-3.791 1.922-4.073 2.065s-.261 1.303-.445 3.643a54.564 54.564 0 00-.118 2.012c-2.478.75-4.095 2.106-4.095 2.106" fill="#FFB07B"/><path d="M435.742 201.522c0 .847.977 1.252 1.186 1.293 1.947.356 7.384 2.468 12.283 2.951 4.125.431 7.952.022 12.159-.821.556-.113 1.863-.464 1.957-.997.117-.581 16.225-32.789 3.704-46.625-.294-.324-2.769.26-5.028.796-2.089.494-4.004.219-5.714-.466l-2.121 1.113c-2.604 1.449-7.529 6.595-8.105 10.633-.294 2.054-1.468 3.574-1.81 5.381-.126.668-.255 1.321-.385 1.957a105.207 105.207 0 01-.794 3.565 94.63 94.63 0 01-2.277 7.955 84.242 84.242 0 01-2.322 6.094c-.923 2.176-1.703 3.803-2.191 5.049-.345.876-.542 1.563-.542 2.122" fill="#D2E3FC"/><path d="M436.282 199.4c22.743-10.698 30.618-31.239 30.618-31.239s-18.476 6.806-23.033 8.577a112.96 112.96 0 01-.794 3.564 94.52 94.52 0 01-2.277 7.955 84.02 84.02 0 01-2.323 6.094c-.922 2.177-1.701 3.803-2.191 5.049" fill="#A4C8FC"/><path d="M422.979 193.2l-1.966.719s-3.933-2.778-6.384 1.741c0 0-.887 1.974.515 2.402 1.405.428.895.026 2.864.681 1.972.655 3.915.184 4.662-1.224l1.334-.977-1.025-3.342z" fill="#FFB07B"/><path d="M421.36 195.974l-1.055-2.75s14.846-12.083 16.361-13.12c1.029-.707 11.293-8.367 16.297-14.337a10.488 10.488 0 0110.183-3.523l3.116.654c3.764.787 4.987 5.545 2.067 8.043-8.222 7.039-22.091 15.202-24.678 16.901-6.418 4.215-20.617 10.122-20.617 10.122s-1.101-.502-1.674-1.99z" fill="#D2E3FC"/><path d="M457.654 155.423c4.749.266 7.837-3.648 7.837-3.648s-2.148-1.187-3.316-2.061l-4.072 2.065s-.263 1.303-.449 3.644" fill="#EA8E50"/><path d="M455.635 150.555s7.192 5.154 10.338.632c3.146-4.522 6.193-6.902 1.735-10.384-4.461-3.482-6.564-2.382-7.98-1.128-1.417 1.255-5.883 9.423-4.093 10.88" fill="#FFB07B"/><path d="M458.967 135.592c.257-1.739.836-2.962.836-2.962s.453 1.867 3.87 1.61c3.417-.258 8.833.335 10.639 4.223.117.248.216.503.31.763.327-.862.403-2.154.403-2.154.652 1.674 0 3.768 0 3.768.012.061.018.122.03.183.751.637 1.385 2.616 1.385 2.616-.228-.552-.783-.912-1.277-1.134.014 3.026-1.213 5.983-3.37 6.864-3.154 1.287-3.131.305-6.302 2.406 0 0-.851-1.054-.269-1.762.579-.709 2.771-1.739 1.546-2.769-1.225-1.03-1.678.129-2.128-.579-.45-.708 1.807-2.768-1.096-4.7-2.902-1.931-4.834-4.635-4.577-6.373" fill="#233862"/><path d="M149.242 271.135v2.807a.957.957 0 01-.22.602 1.282 1.282 0 01-.606.405 1.534 1.534 0 01-.463.073H94.657c-.687 0-1.253-.457-1.288-1.026l-.001-.054v-2.807l.001-.054c.035-.57.601-1.028 1.288-1.028h53.296a1.534 1.534 0 01.463.074c.248.081.459.223.606.405.139.172.22.38.22.603" fill="#FFB93E"/><path d="M123.071 275.022H94.519c-.613 0-1.118-.457-1.15-1.026l-.001-.054v-2.807l.001-.054c.032-.57.537-1.028 1.15-1.028h25.046c.4 1.464 1.332 3.486 3.506 4.969m19.686 0h-.606v-4.967h.606v4.967zm-2.05 0h-.606v-4.967h.606v4.967zm-2.459 0h-.605v-4.967h.605v4.967zm-3.769 0h-.605v-4.967h.605v4.967zm-3.985 0h-.606v-4.967h.606v4.967zm-6.11 0h-.606v-4.967h.606v4.967z" fill="#FFA412"/><path d="M118.663 275.022h-.605v-4.967h.605v4.967zm-5.108 0h-.606v-4.967h.606v4.967zm31.154 0h-.605v-4.967h.605v4.967zm1.289 0h-.605v-4.967h.605v4.967zm1.245 0h-.605v-4.967h.605v4.967zm.938-4.951v4.933c-.074.011-.15.018-.228.018h-.378v-4.969h.378c.078 0 .154.007.228.018zm.841.461v4.012a1.284 1.284 0 01-.605.405v-4.821c.247.08.458.222.605.404" fill="#FFA412"/><path d="M143.544 266.168v2.805a.951.951 0 01-.221.604 1.29 1.29 0 01-.605.404 1.423 1.423 0 01-.464.072H88.959c-.687 0-1.253-.455-1.288-1.025l-.002-.055v-2.805c0-.019 0-.038.002-.056.035-.568.6-1.026 1.288-1.026h53.295c.035 0 .069.002.103.004.014.001.029.001.043.003l.048.006c.011 0 .023.004.034.005a1.421 1.421 0 01.269.066l.033.013c.021.008.044.016.065.026a.314.314 0 01.037.018.144.144 0 01.033.016c.02.009.04.021.06.032a.937.937 0 01.117.076l.002.001.033.024a1.062 1.062 0 01.119.107l.025.025c.017.02.033.037.048.057a.95.95 0 01.221.603" fill="#FFB93E"/><path d="M117.373 270.053H88.821c-.614 0-1.119-.455-1.15-1.025l-.002-.055v-2.805c0-.019 0-.038.002-.056.031-.568.536-1.026 1.15-1.026h25.045l.035.123c.418 1.45 1.357 3.403 3.472 4.844m19.686 0h-.606v-4.967h.606v4.967zm-2.05 0h-.606v-4.967h.606v4.967zm-2.459 0h-.606v-4.967h.606v4.967zm-3.769 0h-.606v-4.967h.606v4.967zm-3.985 0h-.606v-4.967h.606v4.967zm-6.11 0h-.606v-4.967h.606v4.967z" fill="#FFA412"/><path d="M112.965 270.053h-.606v-4.967h.606v4.967zm-5.108 0h-.606v-4.967h.606v4.967zm31.154 0h-.606v-4.967h.606v4.967zm1.289 0h-.606v-4.967h.606v4.967zm1.245 0h-.606v-4.967h.606v4.967zm.937-4.949v4.933a1.411 1.411 0 01-.227.016h-.379v-4.967h.379c.078 0 .153.007.227.018zm.841.461v4.012a1.29 1.29 0 01-.605.404v-4.822c.247.081.458.224.605.406" fill="#FFA412"/><path d="M146.298 261.322v2.807a.953.953 0 01-.222.602 1.274 1.274 0 01-.605.405 1.534 1.534 0 01-.463.073H91.712c-.213 0-.416-.044-.594-.122-.377-.166-.647-.483-.69-.855a.572.572 0 01-.005-.103v-2.807l.001-.056c.035-.568.601-1.026 1.288-1.026h53.296a1.534 1.534 0 01.463.074c.248.079.459.223.605.405.14.172.222.38.222.603z" fill="#FFB93E"/><path d="M120.127 265.209H91.574a1.2 1.2 0 01-.53-.122 1.086 1.086 0 01-.621-.958v-2.807l.001-.056c.032-.568.537-1.026 1.15-1.026h25.046c.389 1.424 1.282 3.377 3.331 4.847.058.041.116.082.176.122m19.686 0h-.606v-4.969h.606v4.969zm-2.051 0h-.605v-4.969h.605v4.969zm-2.459 0h-.605v-4.969h.605v4.969zm-3.769 0h-.605v-4.969h.605v4.969zm-3.985 0h-.606v-4.969h.606v4.969zm-6.11 0h-.606v-4.969h.606v4.969z" fill="#FFA412"/><path d="M115.719 265.209h-.606v-4.969h.606v4.969zm-5.108 0h-.606v-4.969h.606v4.969zm31.153 0h-.605v-4.969h.605v4.969zm1.29 0h-.606v-4.969h.606v4.969zm1.245 0h-.606v-4.969h.606v4.969zm.937-4.951v4.933c-.074.011-.15.018-.228.018h-.378v-4.969h.378c.078 0 .154.007.228.018zm.841.461v4.012a1.284 1.284 0 01-.605.405v-4.821c.247.078.458.222.605.404" fill="#FFA412"/><path d="M147.574 256.354v2.806a.951.951 0 01-.221.604 1.273 1.273 0 01-.605.404 1.4 1.4 0 01-.463.072H92.989c-.687 0-1.253-.455-1.288-1.025l-.001-.055v-2.806l.001-.055c.032-.526.52-.956 1.136-1.017.05-.007.1-.008.152-.008h53.296a1.535 1.535 0 01.463.072c.248.081.459.224.605.406a.95.95 0 01.221.602" fill="#FFB93E"/><path d="M121.403 260.24H92.851c-.613 0-1.119-.455-1.15-1.025l-.001-.055v-2.806l.001-.055c.029-.526.463-.956 1.014-1.017a.873.873 0 01.136-.008h25.046l.002.008c.401 1.46 1.334 3.479 3.504 4.958zm19.686 0h-.606v-4.966h.606v4.966zm-2.05 0h-.606v-4.966h.606v4.966zm-2.459 0h-.606v-4.966h.606v4.966zm-3.769 0h-.605v-4.966h.605v4.966zm-3.985 0h-.606v-4.966h.606v4.966zm-6.11 0h-.606v-4.966h.606v4.966z" fill="#FFA412"/><path d="M116.995 260.24h-.605v-4.966h.605v4.966zm-5.108 0h-.606v-4.966h.606v4.966zm31.154 0h-.606v-4.966h.606v4.966zm1.289 0h-.605v-4.966h.605v4.966zm1.245 0h-.605v-4.966h.605v4.966zm.937-4.949v4.933a1.42 1.42 0 01-.227.016h-.379v-4.966h.379c.077 0 .153.004.227.017zm.841.459v4.014a1.285 1.285 0 01-.605.404v-4.822a1.3 1.3 0 01.605.404z" fill="#FFA412"/><path d="M143.656 251.395v2.805a.95.95 0 01-.221.603 1.286 1.286 0 01-.605.406 1.421 1.421 0 01-.311.065l-.042.003-.042.003-.068.002H89.071c-.687 0-1.254-.458-1.288-1.026l-.002-.056v-2.805l.002-.056.003-.045c.052-.458.448-.836.967-.947l.039-.008a1.59 1.59 0 01.279-.026h53.296c.039 0 .077.002.115.005l.051.005h.001c.02.001.04.005.06.008.081.011.16.03.236.055.247.08.458.223.605.405.14.173.221.38.221.604" fill="#FFB93E"/><path d="M117.485 255.282H88.933c-.614 0-1.119-.458-1.15-1.026l-.002-.056v-2.805l.002-.056.003-.045c.047-.469.415-.852.893-.953a1.241 1.241 0 01.253-.028h25.047c.002.013.006.024.01.036.404 1.457 1.336 3.455 3.485 4.925a.033.033 0 01.011.008m19.686 0h-.606v-4.969h.606v4.969zm-2.051 0h-.605v-4.969h.605v4.969zm-2.458 0h-.606v-4.969h.606v4.969zm-3.769 0h-.606v-4.969h.606v4.969zm-3.986 0h-.605v-4.969h.605v4.969zm-6.109 0h-.606v-4.969h.606v4.969z" fill="#FFA412"/><path d="M113.077 255.282h-.605v-4.969h.605v4.969zm-5.108 0h-.606v-4.969h.606v4.969zm31.154 0h-.606v-4.969h.606v4.969zm1.289 0h-.605v-4.969h.605v4.969zm1.245 0h-.606v-4.969h.606v4.969zm.937-4.951v4.933c-.074.011-.15.018-.227.018h-.379v-4.969h.379c.077 0 .153.007.227.018zm.841.46v4.013a1.282 1.282 0 01-.605.404v-4.822c.247.08.458.223.605.405z" fill="#FFA412"/><path d="M143.544 246.462v2.806c0 .223-.081.43-.221.602a1.286 1.286 0 01-.605.406 1.24 1.24 0 01-.184.047h-.002l-.05.008c-.074.011-.15.018-.228.018H88.959a1.525 1.525 0 01-.23-.018c-.58-.089-1.028-.504-1.058-1.008l-.002-.055v-2.806c0-.018 0-.037.002-.055.035-.57.6-1.027 1.288-1.027h53.295c.035 0 .069.002.103.005.014.002.029.002.043.003l.048.005.034.005a1.53 1.53 0 01.269.068l.033.011c.022.008.044.018.065.027l.07.032.06.033.067.041.05.034c0 .002.002.002.002.003l.033.025a1.042 1.042 0 01.144.132c.017.017.033.037.048.054.14.173.221.38.221.604" fill="#FFB93E"/><path d="M117.373 250.349H88.821c-.023 0-.046 0-.068-.002-.025-.002-.05-.003-.074-.006-.549-.063-.98-.493-1.008-1.018l-.002-.055v-2.806c0-.018 0-.037.002-.055.031-.57.536-1.027 1.15-1.027h25.045l.035.124c.415 1.44 1.342 3.371 3.421 4.809l.051.036m19.686 0h-.606v-4.967h.606v4.967zm-2.05 0h-.606v-4.967h.606v4.967zm-2.459 0h-.606v-4.967h.606v4.967zm-3.769 0h-.606v-4.967h.606v4.967zm-3.985 0h-.606v-4.967h.606v4.967zm-6.11 0h-.606v-4.967h.606v4.967z" fill="#FFA412"/><path d="M112.965 250.349h-.606v-4.967h.606v4.967zm-5.108 0h-.606v-4.967h.606v4.967zm31.154 0h-.606v-4.967h.606v4.967zm1.289 0h-.606v-4.967h.606v4.967zm1.245 0h-.606v-4.967h.606v4.967zm.937-4.951v4.933a1.534 1.534 0 01-.227.018h-.379v-4.967h.379c.078 0 .153.005.227.016zm.841.46v4.012a1.286 1.286 0 01-.605.406v-4.822c.247.081.458.222.605.404z" fill="#FFA412"/><path d="M146.298 241.617v2.805a.952.952 0 01-.222.604 1.265 1.265 0 01-.605.404 1.377 1.377 0 01-.236.056 1.41 1.41 0 01-.227.018H91.712c-.213 0-.416-.045-.594-.124-.377-.164-.647-.483-.69-.853a.51.51 0 01-.005-.105v-2.805l.001-.056c.035-.568.601-1.025 1.288-1.025h53.296a1.535 1.535 0 01.463.072c.248.08.459.224.605.406.14.172.222.38.222.603" fill="#FFB93E"/><path d="M120.127 245.504H91.574a1.19 1.19 0 01-.53-.124 1.083 1.083 0 01-.621-.958v-2.805l.001-.056c.032-.568.537-1.025 1.15-1.025h25.046c.389 1.423 1.282 3.374 3.331 4.844l.176.124m19.686 0h-.606v-4.968h.606v4.968zm-2.051 0h-.605v-4.968h.605v4.968zm-2.459 0h-.605v-4.968h.605v4.968zm-3.769 0h-.605v-4.968h.605v4.968zm-3.985 0h-.606v-4.968h.606v4.968zm-6.11 0h-.606v-4.968h.606v4.968z" fill="#FFA412"/><path d="M115.719 245.504h-.606v-4.968h.606v4.968zm-5.108 0h-.606v-4.968h.606v4.968zm31.153 0h-.605v-4.968h.605v4.968zm1.29 0h-.606v-4.968h.606v4.968zm1.245 0h-.606v-4.968h.606v4.968zm.937-4.951v4.933c-.074.012-.15.018-.228.018h-.378v-4.968h.378c.078 0 .154.006.228.017zm.841.461v4.012a1.275 1.275 0 01-.605.404v-4.822c.247.081.458.224.605.406z" fill="#FFA412"/><path d="M150.653 236.649v2.806c0 .223-.081.43-.221.602a1.286 1.286 0 01-.605.406 1.545 1.545 0 01-.463.073H96.068c-.687 0-1.253-.458-1.288-1.026l-.002-.055v-2.806l.002-.056c.032-.525.519-.955 1.135-1.018a1.54 1.54 0 01.153-.008h53.296a1.545 1.545 0 01.463.074c.247.079.458.222.605.404.14.173.221.38.221.604" fill="#FFB93E"/><path d="M124.482 240.536H95.93c-.613 0-1.119-.458-1.15-1.026l-.002-.055v-2.806l.002-.056c.028-.525.463-.955 1.013-1.018a1.23 1.23 0 01.137-.008h25.046l.002.008c.401 1.462 1.334 3.479 3.504 4.961m19.686 0h-.606v-4.967h.606v4.967zm-2.05 0h-.606v-4.967h.606v4.967zm-2.459 0h-.606v-4.967h.606v4.967zm-3.769 0h-.605v-4.967h.605v4.967zm-3.985 0h-.606v-4.967h.606v4.967zm-6.11 0h-.606v-4.967h.606v4.967z" fill="#FFA412"/><path d="M120.074 240.536h-.605v-4.967h.605v4.967zm-5.108 0h-.606v-4.967h.606v4.967zm31.154 0h-.606v-4.967h.606v4.967zm1.289 0h-.605v-4.967h.605v4.967zm1.246 0h-.606v-4.967h.606v4.967zm.936-4.951v4.933a1.534 1.534 0 01-.227.018h-.379v-4.969h.379c.078 0 .153.007.227.018zm.841.46v4.012a1.286 1.286 0 01-.605.406v-4.822c.247.079.458.222.605.404z" fill="#FFA412"/><path d="M143.656 231.689v2.806c0 .224-.081.43-.221.604a1.29 1.29 0 01-.605.404 1.423 1.423 0 01-.236.056c-.025.003-.05.007-.075.008a.405.405 0 01-.06.005l-.03.003H89.071c-.687 0-1.254-.455-1.288-1.025l-.002-.055v-2.806l.002-.055c.034-.57.6-1.025 1.288-1.025h53.296a1.565 1.565 0 01.227.016 1.33 1.33 0 01.414.128l.007.004a.567.567 0 01.065.033l.011.007a1.08 1.08 0 01.229.166c.008.006.014.013.022.021.001.001.002.003.004.003a.955.955 0 01.31.702" fill="#FFB93E"/><path d="M117.485 235.575H88.933c-.614 0-1.119-.455-1.15-1.025l-.002-.055v-2.806l.002-.055c.031-.57.537-1.025 1.15-1.025h25.046c.01.037.02.075.032.114.416 1.449 1.353 3.402 3.463 4.844.003.003.007.007.011.008m19.686 0h-.606v-4.966h.606v4.966zm-2.051 0h-.605v-4.966h.605v4.966zm-2.458 0h-.606v-4.966h.606v4.966zm-3.769 0h-.606v-4.966h.606v4.966zm-3.986 0h-.605v-4.966h.605v4.966zm-6.109 0h-.606v-4.966h.606v4.966z" fill="#FFA412"/><path d="M113.077 235.575h-.605v-4.966h.605v4.966zm-5.108 0h-.606v-4.966h.606v4.966zm31.154 0h-.606v-4.966h.606v4.966zm1.289 0h-.605v-4.966h.605v4.966zm1.245 0h-.606v-4.966h.606v4.966zm.937-4.95v4.934c-.074.011-.15.016-.227.016h-.379v-4.966h.379c.077 0 .153.004.227.016zm.841.46v4.014a1.29 1.29 0 01-.605.404v-4.822c.247.08.458.224.605.404z" fill="#FFA412"/><path d="M147.574 226.836v2.806c0 .223-.081.43-.221.602a1.276 1.276 0 01-.605.406 1.534 1.534 0 01-.463.073H92.989c-.207 0-.403-.042-.576-.115-.388-.164-.666-.487-.708-.867a.679.679 0 01-.004-.044l-.001-.055v-2.806l.001-.056c.032-.527.52-.955 1.136-1.018.05-.005.1-.008.152-.008h53.296a1.534 1.534 0 01.463.074c.248.079.459.222.605.404.14.173.221.38.221.604" fill="#FFB93E"/><path d="M121.403 230.723H92.851a1.2 1.2 0 01-.514-.115 1.088 1.088 0 01-.636-.911l-.001-.055v-2.806l.001-.056c.029-.525.463-.955 1.014-1.018.044-.005.09-.008.136-.008h25.046l.002.008c.391 1.425 1.287 3.378 3.341 4.846.053.039.108.078.163.115m19.686 0h-.606v-4.969h.606v4.969zm-2.05 0h-.606v-4.969h.606v4.969zm-2.459 0h-.606v-4.969h.606v4.969zm-3.769 0h-.605v-4.969h.605v4.969m-3.985 0h-.606v-4.969h.606v4.969zm-6.11 0h-.606v-4.969h.606v4.969z" fill="#FFA412"/><path d="M116.995 230.723h-.605v-4.969h.605v4.969zm-5.108 0h-.606v-4.969h.606v4.969zm31.154 0h-.606v-4.969h.606v4.969zm1.289 0h-.605v-4.969h.605v4.969zm1.245 0h-.605v-4.969h.605v4.969zm.937-4.951v4.933c-.074.011-.15.018-.227.018h-.379v-4.969h.379c.077 0 .153.007.227.018zm.841.46v4.013a1.286 1.286 0 01-.605.405v-4.822c.248.079.458.222.605.404z" fill="#FFA412"/><path d="M149.242 221.876v2.806a.96.96 0 01-.22.604c-.147.18-.358.323-.606.404a1.377 1.377 0 01-.236.056c-.025.003-.05.007-.075.008l-.041.005-.043.002-.068.001H94.657c-.687 0-1.253-.455-1.288-1.025l-.001-.055v-2.806l.001-.055c.035-.57.601-1.026 1.288-1.026h53.296a1.378 1.378 0 01.463.073c.248.08.459.222.606.404a.96.96 0 01.22.604" fill="#FFB93E"/><path d="M123.071 225.762H94.519c-.613 0-1.118-.455-1.15-1.025l-.001-.055v-2.806l.001-.055c.032-.57.537-1.026 1.15-1.026h25.046c.399 1.461 1.329 3.478 3.495 4.959l.011.008m19.686 0h-.606v-4.967h.606v4.967zm-2.05 0h-.606v-4.967h.606v4.967zm-2.459 0h-.605v-4.967h.605v4.967zm-3.769 0h-.605v-4.967h.605v4.967zm-3.985 0h-.606v-4.967h.606v4.967zm-6.11 0h-.606v-4.967h.606v4.967z" fill="#FFA412"/><path d="M118.663 225.762h-.605v-4.967h.605v4.967zm-5.108-4.967v4.967h-.606v-4.967h.606zm31.154 4.967h-.605v-4.967h.605v4.967zm1.289 0h-.605v-4.967h.605v4.967zm1.245 0h-.605v-4.967h.605v4.967zm.938-4.951v4.933c-.075.013-.15.018-.228.018h-.378v-4.967h.378c.078 0 .153.005.228.016zm.841.461v4.014c-.147.18-.358.323-.605.404v-4.822c.247.08.458.222.605.404" fill="#FFA412"/><path d="M64.948 249.745c0-13.968 11.34-25.29 25.33-25.29 13.988 0 25.329 11.322 25.329 25.29 0 13.967-11.341 25.29-25.33 25.29-13.989 0-25.33-11.323-25.33-25.29" fill="#E2810E"/><path d="M62.738 249.745c0-13.968 11.34-25.29 25.33-25.29 13.989 0 25.329 11.322 25.329 25.29 0 13.967-11.34 25.29-25.33 25.29-13.988 0-25.329-11.323-25.329-25.29" fill="#FFB93E"/><path d="M88.067 228.375c-11.965 0-21.7 9.721-21.7 21.668s9.734 21.667 21.7 21.667c11.967 0 21.702-9.72 21.702-21.667 0-11.947-9.735-21.668-21.702-21.668zm0 44.71c-6.164 0-11.96-2.397-16.318-6.749-4.359-4.352-6.76-10.138-6.76-16.293 0-6.155 2.401-11.94 6.76-16.294A22.949 22.949 0 0188.068 227a22.95 22.95 0 0116.318 6.749c4.359 4.354 6.759 10.139 6.759 16.294 0 6.155-2.4 11.941-6.759 16.293-4.359 4.352-10.154 6.749-16.319 6.749z" fill="#FFA412"/><path d="M134.644 215.019c-2.594 4.508-5.856 6.247-5.856 6.247h-13.571s21.406-9.685 19.427-6.247z" fill="#233862"/><path d="M124.221 249.891c-.354.404-.399.857-.224 1.34.001.001.002.005.004.006.323.894 1.393 1.89 2.635 2.887.159.127.3.243.423.351l.095.085.073.066c1.158 1.066.722 1.311 2.803 3.475 2.373 2.465 4.007 2.508 4.472 2.284.393-.191-.406-1.499-1.291-2.968l-.129-.215c-.118-.194-.235-.392-.352-.589-1.038-1.769-.771-2.598-.525-5.231.2-2.138 3.332-11.948 3.332-11.948l-4.547-.782s-1.369 7.812-2.878 9.014c-.807.641-1.71.649-2.485 1.124a6.408 6.408 0 00-.162.103c-.44.292-.889.593-1.244.998" fill="#FFB27D"/><path d="M124.221 249.891c-.354.404-.399.857-.224 1.34.001.001.002.005.004.006.396.892 1.439 1.884 2.639 2.877.157.131.296.25.419.361l.095.085.073.066c1.158 1.066.722 1.311 2.803 3.475 2.373 2.465 4.007 2.508 4.472 2.284.393-.191-.406-1.499-1.291-2.968-.462-.17-2.608-1.039-4.23-3.113-1.429-1.819-2.382-4.158-3.354-5.514a6.408 6.408 0 00-.162.103c-.44.292-.889.593-1.244.998" fill="#233862"/><path d="M160.887 247.055c.281 1.402 2.282 1.168 4.517.623 2.235-.546 1.704.103 4.886-.25 3.179-.351 4.144-1.536 4.24-2.008.088-.418-1.485-.566-3.17-.759-.213-.025-.425-.052-.638-.078-1.905-.238-3.298-1.465-5.026-2.471-1.639-.955-4.083-4.841-4.083-4.841l-4.363.344s2.289 3.473 3.175 4.982c.521.888.493 2.062.428 2.968-.034.493-.066.997.034 1.49" fill="#FFB27D"/><path d="M165.404 247.678c2.234-.546 1.704.103 4.885-.25 3.18-.351 4.145-1.536 4.241-2.008.087-.418-1.485-.566-3.17-.759l-.016.032s-1.908 1.351-4.555 1.413c-2.159.052-4.446-.565-5.936-.541-.034.493-.066.997.034 1.49.28 1.402 2.282 1.168 4.517.623zm-21.237-28.476l-4.079 10.957-5.324 14.308s-1.445.139-2.829-.259c-1.274-.367-2.736-1.33-2.736-1.33s1.479-15.361 4.237-24.18c.707-2.264 1.499-4.095 2.373-5.125 4.276-5.046 8.358 5.629 8.358 5.629z" fill="#233862"/><path d="M140.02 201.799c-2.672-.861-10.292.245-17.948 1.74l-1.603-2.64-16.535-1.288s-5.456 12.081-2.469 19.779c.439 1.132 1.526 1.608 3.013 1.632l.002.002s9.866.242 13.062.242c8.223 0 17.403-5.645 18.591-5.882 1.944-.388 2.721 3.494 4.665 7.569 1.944 4.076 18.271 18.05 18.271 18.05s2.51.024 3.547-.364c1.114-.417 1.522-.96 1.522-.96s-18.092-35.94-24.118-37.88" fill="#2B478B"/><path d="M118.712 152.419a5.856 5.856 0 00-3.179-.82 9.706 9.706 0 01-1.579-.104c-6.266-.841-10.037 8.251-10.259 11.006-.409 5.076-3.099 5.85-6.885 9.03-7.593 6.376-5.366 13.785-1.215 16.536 2.491 1.652 6.882 0 6.882 0 .062.044 12.007-6.667 17.895-9.903 8.827-1.254 1.887-23.638-1.66-25.745" fill="#233862"/><path d="M115.437 175.408c.026.018-2.897 1.013-4.852.15-1.839-.812-3.231-3.832-3.204-3.834.836-.038 1.754-.769 2.462-5.561l.356.129 5.988 2.151s-.433 1.919-.714 3.745c-.236 1.534-.363 3.004-.036 3.22z" fill="#FFB27D"/><path d="M116.188 168.443s-.434 1.919-.715 3.745c-3.44-.618-4.79-4.04-5.274-5.896l5.989 2.151z" fill="#ED975D"/><path d="M117.079 170.348s-8.193-1.098-7.43-6.183c.764-5.084.22-8.649 5.484-8.162 5.263.484 5.986 2.577 6.145 4.335.158 1.759-2.048 10.164-4.199 10.01" fill="#FFB27D"/><path d="M120.979 157.551s-5.245 4.513-8.813 4.877c-3.567.364-4.918-.779-4.918-.779s2.103-1.744 3.368-4.556a2.506 2.506 0 012.068-1.477c2.548-.22 7.377-.32 8.295 1.935z" fill="#233862"/><path d="M117.701 157.147s1.754 1.694 2.307 2.951c.533 1.213.693 4.112.268 5.264 0 0 2.734-5.309 1.186-7.886-1.641-2.736-3.761-.329-3.761-.329z" fill="#233862"/><path d="M122.336 187.459c-.247 16.56-.068 13.1-1.882 14.672-.437.378-1.666.604-3.284.71-5.085.336-14.025-.499-14.365-1.438-1.173-3.247-.345-4.257-1.324-9.227a39.786 39.786 0 00-.377-1.724c-.815-3.415-1.61-4.576 1.285-10.061 2.626-4.969 5.353-9.002 5.598-8.857 6.927 4.106 7.486.656 7.486.656s6.985 7.191 6.863 15.269z" fill="#fff"/><path d="M140.088 230.159l-5.324 14.308s-1.445.139-2.829-.259c-1.274-.367-2.736-1.33-2.736-1.33s1.479-15.361 4.237-24.18l6.652 11.461" fill="#2B478B"/><path d="M115.473 172.188s7.127 1.207 7.964 4.271l5.762 21.077s-3.623.649-5.297-1.023c-1.674-1.671-5.824-15.506-5.824-15.506l-2.605-8.819z" fill="#fff"/><path d="M117.17 202.841c-5.085.336-14.025-.499-14.365-1.438-1.173-3.247-.345-4.257-1.324-9.227l2.453-6.897s-.406 7.68 1.863 9.7c2.266 2.021 9.287 3.9 10.39 5.587.532.81.881 1.623.983 2.275" fill="#EBF3FF"/><path d="M111.343 199.611s5.018-1.116 5.827-.671c.81.444 2.789 2.064 3.036 2.627.248.564-1.802-.428-2.469-.607-.432-.116-1.569.279-2.131.467-2.368.787-3.819.382-3.819.382l-.444-2.198z" fill="#FFB27D"/><path d="M107.983 171.531s-6.737.414-9.069 3.663c-3.283 4.571-9.796 24.055-6.063 26.653 4.203 2.927 19.13.767 19.13.767s.497-2.319-.194-3.441c-.691-1.12-11.923-2.932-12.441-3.45-.518-.517 6.48-10.093 6.48-11.645 0-1.552 2.157-12.547 2.157-12.547" fill="#fff"/><path d="M117.413 200.334s1.051 1.354 1.396 1.515c.345.163.567.122.567.122l-.708-1.273-1.255-.364zm-.243-1.394l3.057 1.481s-.13.212-.506.196c-.377-.017-1.326-.364-1.326-.364l-1.225-1.313" fill="#FFB27D"/><path d="M118.809 203.924h24.178l7.273-18.059h-24.14l-7.311 18.059z" fill="#F99746"/><path d="M143.27 203.221h-31.927v.703h31.644l.283-.703z" fill="#ED7D2B"/><path d="M136.884 194.894c.182-.635-.186-1.148-.821-1.148-.636 0-1.299.513-1.482 1.148-.182.636.186 1.149.821 1.149.636 0 1.299-.513 1.482-1.149z" fill="#fff"/><path d="M257.548 205.653c-.003-.096.534-11.046-4.765-13.565l.374-.358c2.427.845 5.118 3.462 6.194 7.155.8 2.745.192 3.347.195 3.45l-1.998 3.318z" fill="#A4C8FC"/><path d="M243.713 183.965s-.605 5.633 2.35 8.029 8.352.647 8.352.647.605-5.631-2.351-8.027c-2.954-2.396-8.351-.649-8.351-.649m12.931 42.227c-.1-.55-2.011-13.445 2.878-27.816 4.695-13.807 2.094-25.513 2.076-25.629h3.455c.088.499.329 11.99-3.353 27.737-3.31 14.169 2.874 25.708 1.557 25.708h-6.613" fill="#A4C8FC"/><path d="M263.904 188.125c.016-.074 1.666-9.522 6.104-10.597-1.983.257-4.504 1.676-5.914 4.316-1.047 1.963-.679 2.52-.699 2.597l.509 3.684zm-17.762-25.061s-4.788-6.747-10.224-8.729c0 0 2.034 15.828-.94 16.024-2.973.195-.991-17.8-.991-17.8s-14.163-7.851-19.913-7.633c0 0 8.141 15.815 5.211 15.274-2.929-.541-12.166-16.606-12.166-16.606s-14.78-3.635-17.697 5.064c-2.915 8.7.698 13.347 2.88 14.029 2.18.683 16.394 1.329 15.919 3.149-.478 1.82-10.243 4.206-15.495 2.235 0 0 5.049 14.896 12.839 14.613 7.791-.284 10.47-4.932 15.288-5.02 4.818-.089 8.246 1.407 5.773 2.555-2.474 1.149-10.54-.192-14.606 2.869-4.067 3.062-7.321 4.904-.213 6.799 7.106 1.893 17.834-.245 22.925-3.633.014-.009 4.168-.339 7.438 18.858 1.261 7.402.292 18.38.292 18.38l2.638-.402c1.463-21.518-6.316-39.408-6.316-39.408s13.198-9.742 7.358-20.618" fill="#A4C8FC"/><path d="M289.301 191.465s-15.9-6.67-10.21-18.805c0 0 4.794-7.599 10.571-10.066 0 0-1.273 17.28 1.965 17.317 3.234.039.025-19.357.025-19.357s14.894-9.344 21.141-9.446c0 0-7.897 17.627-4.751 16.869 3.145-.76 12.213-18.72 12.213-18.72s15.812-4.811 19.487 4.451c3.676 9.261.031 14.513-2.295 15.379-2.324.868-17.7 2.404-17.074 4.351.624 1.944 11.352 3.958 16.933 1.513 0 0-4.597 16.448-13.063 16.597-8.463.15-11.642-4.733-16.871-4.545-5.229.189-8.86 2.01-6.11 3.109 2.751 1.102 11.417-.827 16.006 2.254 4.591 3.08 8.229 4.887.634 7.358-7.597 2.471-21.665 3.054-25.133-2.602l-3.468-5.657" fill="#D2E3FC"/><path d="M332.705 157.527s-40.333 18.269-43.403 33.938c0 0 .966 6.746-2.341 14.982l.339 2.987s3.235-10.649 5.47-12.312c0 0-10.861-12.08 39.935-39.595" fill="#A4C8FC"/><path d="M286.962 206.447s-5.347 10.519-.313 22.02l1.609-.633s-3.099-12.944-.471-19.927c2.63-6.983-.825-1.46-.825-1.46m-58.286-87.241c6.517 6.923 3.127 20.674 3.127 20.674s-13.956 2.526-20.474-4.398c-6.516-6.925-3.127-20.676-3.127-20.676s13.957-2.525 20.474 4.4" fill="#A4C8FC"/><path d="M228.677 119.206c6.516 6.923 3.126 20.674 3.126 20.674l-23.6-25.074s13.956-2.525 20.474 4.4z" fill="#D2E3FC"/><path d="M312.725 145.58c-3.403 3.933-11.087 2.875-11.087 2.875s-2.171-7.435 1.231-11.369c3.4-3.934 11.086-2.875 11.086-2.875s2.17 7.435-1.23 11.369zm-40.195 34.602c-2.281.631-4.92-1.704-4.92-1.704s1.058-3.358 3.338-3.989c2.278-.633 4.918 1.703 4.918 1.703s-1.058 3.359-3.336 3.99zm-40.259-73.817c1.562 3.7-1.805 8.65-1.805 8.65s-5.901-1.048-7.464-4.748c-1.562-3.699 1.804-8.65 1.804-8.65s5.902 1.048 7.465 4.748z" fill="#A4C8FC"/><path d="M229.148 141.98c-2.399-19.025 11.104-36.392 30.161-38.787 19.054-2.395 36.446 11.087 38.847 30.112 2.399 19.026-11.104 36.391-30.159 38.787-19.057 2.395-36.448-11.085-38.849-30.112" fill="#E2810E"/><path d="M226.14 142.358c-2.399-19.027 11.102-36.393 30.16-38.788 19.053-2.394 36.446 11.087 38.847 30.113 2.398 19.026-11.103 36.391-30.16 38.786-19.054 2.396-36.447-11.084-38.847-30.111" fill="#FFB93E"/><path d="M256.972 108.912c-16.301 2.051-27.89 16.957-25.84 33.232 2.052 16.275 16.983 27.848 33.283 25.799 16.302-2.05 27.893-16.957 25.838-33.231-2.052-16.274-16.981-27.847-33.281-25.8zm7.679 60.903c-8.396 1.056-16.703-1.217-23.389-6.398-6.684-5.182-10.948-12.653-12.006-21.036-1.056-8.386 1.22-16.677 6.411-23.353 5.189-6.675 12.671-10.931 21.068-11.987 8.398-1.056 16.704 1.216 23.388 6.399 6.686 5.181 10.949 12.652 12.006 21.035 1.058 8.385-1.219 16.678-6.408 23.353-5.189 6.674-12.672 10.931-21.07 11.987" fill="#FFA412"/><path d="M291.398 222.84l-.004.028-.692 10.635-2.574 39.492h-48.133l-2.833-38.951-.781-10.734-.034-.47h55.051" fill="#739AF0"/><path d="M291.395 222.868l-.692 10.635c-3.627-1.261-13.703-4.29-26.83-4.29-16.581 0-26.712 4.831-26.712 4.831l-.779-10.734 55.013-.442" fill="#618DD8"/><path d="M293.072 228.462h-58.471l-.668-6.788h59.88l-.741 6.788" fill="#739AF0"/><path d="M288.868 275.102h-49.904l-.572-2.363h51.11l-.634 2.363z" fill="#618DD8"/><path d="M202.538 253.103c-.045-.248-.905-6.048 1.295-12.513 2.112-6.209.943-11.476.933-11.527h1.555c.04.224.148 5.393-1.508 12.476-1.49 6.374 1.292 11.564.7 11.564h-2.975" fill="#A4C8FC"/><path d="M205.803 235.979c.008-.032.75-4.282 2.746-4.765-.891.116-2.025.753-2.66 1.941-.471.883-.307 1.132-.315 1.168l.229 1.656zm-3.688-.993s-1.952-3.168-4.336-4.215c0 0 .454 7.165-.886 7.166-1.34.002.071-8.019.071-8.019s-6.13-3.934-8.718-4.001c0 0 3.196 7.333 1.897 7.007-1.298-.329-4.98-7.806-4.98-7.806s-6.529-2.061-8.09 1.76c-1.562 3.822-.074 6.012.886 6.38.959.371 7.32 1.071 7.053 1.875-.266.803-4.718 1.592-7.02.555 0 0 1.836 6.833 5.339 6.931 3.506.098 4.844-1.911 7.008-1.811 2.166.1 3.662.869 2.518 1.314-1.144.444-4.725-.392-6.639.864-1.914 1.257-3.428 1.99-.294 3.046 3.137 1.056 8.013.406 10.396-.967.008-.004 1.882-.033 2.793 8.681.35 3.357-.403 8.257-.403 8.257l1.196-.104c1.281-9.617-1.691-17.871-1.691-17.871s6.206-3.991 3.9-9.042" fill="#A4C8FC"/><path d="M209.685 232.407c-1.026.283-2.214-.767-2.214-.767s.475-1.51 1.501-1.795c1.025-.283 2.212.767 2.212.767s-.475 1.511-1.499 1.795m11.795-23.088c-3.58 2.341-3.551 8.712-3.551 8.712s5.836 2.573 9.417.232c3.582-2.341 3.551-8.712 3.551-8.712s-5.836-2.573-9.417-.232z" fill="#A4C8FC"/><path d="M221.48 209.319c-3.58 2.341-3.551 8.712-3.551 8.712l12.968-8.48s-5.836-2.573-9.417-.232" fill="#D2E3FC"/><path d="M221.266 203.325c-1.074 1.454-.124 3.974-.124 3.974s2.691.162 3.765-1.291c1.074-1.453.124-3.972.124-3.972s-2.691-.165-3.765 1.289" fill="#A4C8FC"/><path d="M190.172 215.223c-1.081-8.559 4.994-16.369 13.566-17.447 8.57-1.077 16.394 4.987 17.473 13.545 1.079 8.558-4.994 16.37-13.566 17.447-8.571 1.077-16.394-4.986-17.473-13.545z" fill="#E2810E"/><path d="M188.817 215.394c-1.078-8.559 4.994-16.371 13.566-17.448 8.571-1.077 16.395 4.987 17.473 13.545 1.081 8.559-4.993 16.369-13.564 17.448-8.572 1.077-16.396-4.988-17.475-13.545z" fill="#FFB93E"/><path d="M202.686 200.35c-7.332.921-12.545 7.627-11.623 14.947.924 7.321 7.639 12.526 14.971 11.605 7.332-.922 12.547-7.628 11.623-14.949-.923-7.319-7.639-12.526-14.971-11.603zm3.454 27.394a14.17 14.17 0 01-10.52-2.879 14.132 14.132 0 01-5.4-9.462 14.112 14.112 0 012.883-10.503 14.16 14.16 0 019.477-5.394 14.184 14.184 0 0110.52 2.879 14.132 14.132 0 015.4 9.462 14.118 14.118 0 01-2.883 10.505 14.168 14.168 0 01-9.477 5.392z" fill="#FFA412"/><path d="M218.171 251.595l-.001.013-.311 4.783-1.158 17.763H195.05l-1.274-17.52-.352-4.828-.016-.211h24.763z" fill="#B4C9F7"/><path d="M218.17 251.608l-.311 4.783c-1.632-.567-6.165-1.93-12.068-1.93-7.458 0-12.015 2.173-12.015 2.173l-.352-4.828 24.746-.198" fill="#9BB8EA"/><path d="M218.923 254.124h-26.299l-.301-3.054h26.933l-.333 3.054m-1.89 20.978h-22.448l-.256-1.062h22.989l-.285 1.062z" fill="#B4C9F7"/><path d="M307.38 183.794s-2.473-.481-3.038 0c-.566.482-3.249 3.201-2.673 4.095.574.893 3.327-.739 3.9-.894.571-.153 2.172-.777 2.172-.777l-.361-2.424z" fill="#FFB27D"/><path d="M333.652 271.069l2.649.986s11.512-15.941 12.929-29.967c.253-2.504.17-4.93-.379-7.171 0 0 .113-.641.309-1.776a8514.418 8514.418 0 011.81-10.302c1.355-7.677 3.108-17.49 4.473-24.703l-.715-.23-7.726-2.487-1.597-5.065-5.754-1.512s-1.285 2.51-2.434 14.369a89.352 89.352 0 00-.549 5.131c-.45 5.677-.482 12.721.547 20.772.264 2.061.597 4.19 1.01 6.376.303 1.604.349 3.787.22 6.295-.578 11.465-4.793 29.284-4.793 29.284" fill="#2B478B"/><path d="M336.668 208.342l12.493 24.799c.091-.53.203-1.166.331-1.897.375-2.141.89-5.069 1.479-8.405 1.354-7.677 3.107-17.49 4.472-24.703l-.715-.23-7.726-2.487-1.596-5.065-5.755-1.512s-1.284 2.51-2.434 14.369a89.352 89.352 0 00-.549 5.131z" fill="#233862"/><path d="M342.165 192.024l.288-2.477c4.846 1.286 17.794-3.591 17.794-3.591s4.694 4.12 4.078 13.996c-.302 4.821-.852 25.303-1.424 31.365a199.71 199.71 0 01-.464 4.384l-.002.006c-.023.19.045.37.141.536a28.44 28.44 0 012.117 4.449c5.635 14.987-.868 33.444-.868 33.444l-1.686-.679s-3.698-20.541-6.704-29.615c-.509-1.539-1-2.748-1.45-3.471-1.304-2.106-2.517-5.548-3.619-9.64-2.079-7.738-3.755-17.804-4.869-25.574-.154.008-3.332-13.133-3.332-13.133" fill="#2B478B"/><path d="M307.381 183.794l.361 2.423s.16 0 .441-.021c.882-.06 3.029-.179 5.455-.439 3.649-.361 7.983-1.002 9.708-2.063 2.626-1.602 6.939-6.509 9.748-11.415.081-.121.14-.241.2-.361 1.463-2.603 2.488-5.187 2.566-7.249.062-1.263-.078-2.343-.34-3.285a8.365 8.365 0 00-1.484-2.963 1.46 1.46 0 00-.282-.341c-.963-1.141-1.904-1.622-1.904-1.622-.483-.2-1.002.04-1.544.621v.02c-.443.461-.923 1.161-1.385 2.043-.021.02-.039.04-.039.06-.101.18-.202.38-.322.6-.039.041-.059.101-.08.141-.221.46-.441.941-.662 1.441-2.466 5.368-5.094 13.499-7.281 15.922-.941 1.04-5.253 3.083-8.684 4.606a168.45 168.45 0 01-4.472 1.882" fill="#FFB27D"/><path d="M332.907 161.987c1.521.705 3.36 1.185 5.581 1.306 8.33.455 10.223-6.836 10.566-11.676-1.202-.434-2.253-.393-2.859-.361-.591.033-1.206.093-1.716.156-1.019-.532-2.85-3.113-3.908-7.432l-.359.166-6.011 2.822s.638 1.953 1.111 3.822c.368 1.462.632 2.875.411 3.271-.473.192-.758.313-.758.313l-.002.006c-.06.154-1.366 3.479-2.056 7.607" fill="#FFB27D"/><path d="M330.824 167.445c.063.166.132.328.208.494 2.109 4.537 6.013 23.331 6.013 23.331-.555 3.379 25.434-.664 25.501-3.74.916-3.262-3.247-8.503-5.595-11.132a7.667 7.667 0 01-.787-1.059 7.388 7.388 0 01-1.066-3.103c-.461-4.361-.285-8.447-.323-10.933-.46-.34-.903-.653-1.316-.951-.633-.46-1.191-.89-1.601-1.327-.452-.475-.736-.961-.769-1.51a7.795 7.795 0 01.033-1.266c.018-.201.045-.402.076-.602.323-2.111 1.206-4.025 1.206-4.025-2.236-.903-6.21-.366-6.21-.366s.005.221.007.582c.013 1.449 0 5.172-.466 5.876-.582.877-11.229 4.721-11.791 3.531-.556-1.172.963-6.657 1.019-6.865l.002-.006c-3.566 1.398-4.841 2.571-4.841 2.571 2.15 1.391-.963 6.098.7 10.5" fill="#F99746"/><path d="M337.997 128.242c.013-.361.292-4.247 6.218-4.45 0 0-2.912.347-3.418 1.627 0 0 1.986-1.581 3.604-1.073 1.615.509 2.565 3.336 2.573 4.266.011.931-.887 3.929-1.914 4.184-.387.096-.836.07-1.243.001.273.426.541.895.796 1.419 2.368 4.848-.072 9.586-2.075 9.063-1.284-.336-1.648 1.852-1.648 1.852l-12.478-10.085s4.583-9.469 9.585-6.804" fill="#2C3A64"/><path d="M334.201 146.97s.64 1.951 1.11 3.821c3.515-.979 4.579-4.666 4.901-6.643l-6.011 2.822" fill="#ED985F"/><path d="M333.459 149.035s8.409-1.942 7.114-7.15c-1.289-5.208-1.075-8.967-6.497-7.947-5.422 1.02-5.967 3.265-5.961 5.108.009 1.843 3.125 10.36 5.344 9.989" fill="#FFB27D"/><path d="M327.643 136.089c.904-1.887 1.968-1.787 2.631-1.452 3.952-3.649 7.824-.668 7.824-.668 1.493 3.597 4.724 5.067 4.724 5.067s-1.29 1.32-5.036 1.29c-1.142-.008-2.29-.532-3.337-1.255 2.019 2.029 4.383 3.264 4.383 3.264-4.686-.895-7.826-6.311-8.15-6.886-.396.585-1.155 1.831-1.218 2.883-.088 1.43.406 4.206-.414 4.311 0 0-2.764-3.723-1.407-6.554" fill="#2C3A64"/><path d="M330.123 156.944s-2.023 3.525-2.326 4.433c0 0 2.623-.102 3.686 1.914 0 0 .252-5.872-1.36-6.347" fill="#F99746"/><path d="M344.042 184.956c5.127-.055 9.466-5.37 12.121-9.617a7.37 7.37 0 01-1.066-3.102c-.461-4.362-.284-8.448-.324-10.934-.459-.339-.902-.653-1.315-.951-.634-.46-1.191-.89-1.602-1.326-4.197 7.085-14.764 26.002-7.814 25.93" fill="#ED7D2B"/><path d="M324.669 187.739l.702 2.563s.881-.159 2.285-.42c.42-.081.662-.14.662-.14 1.123-.221 2.466-.52 3.931-.841h.022c2.507-.602 5.313-1.321 7.68-2.123 1.664-.581 3.109-1.201 4.092-1.823a2.3 2.3 0 00.28-.199c2.348-1.702 5.136-6.709 7.301-12.077.303-.741.582-1.481.863-2.203 1.003-2.683 1.805-5.325 2.287-7.608.301-1.362.501-2.605.543-3.626.017-.36.039-.7.017-1.021-.039-5.808-2.928-6.608-2.928-6.608a1.82 1.82 0 00-.2-.06c-.502-.081-1.023.26-1.563.921-.683.821-1.404 2.162-2.146 3.784-1.144 2.584-2.348 5.929-3.47 9.253-.624 1.821-1.226 3.644-1.825 5.326a109.175 109.175 0 01-1.005 2.864c-.621 1.683-1.182 3.043-1.683 3.905-.323.561-1.245 1.342-2.468 2.223-2.126 1.542-5.234 3.405-7.942 4.927a171.519 171.519 0 01-3.067 1.701c-1.426.781-2.368 1.282-2.368 1.282" fill="#FFB27D"/><path d="M348.502 156.267c3.863-1.063 6.841 1.947 6.841 1.947-.048-5.798-2.939-6.592-2.939-6.592-1.164-.48-2.511 1.53-3.902 4.645z" fill="#F99746"/><path d="M354.016 275.511h13.35s.32-2.03-.377-3.572c-.668-1.478-1.714-2.15-1.464-3.94-.848.873-2.231 1.849-4.16 1.589-.237.383-1.527 2.431-2.316 2.998-.873.626-4.762.404-5.033 2.925m-28.661 0h13.35s.5-2.125-.379-3.572c-.774-1.28-.478-2.008.098-3.067-.605.246-1.386.471-2.249.423-.664-.039-1.368-.34-1.986-.697-.574.654-3.034 3.437-3.802 3.988-.872.626-4.763.404-5.032 2.925z" fill="#233862"/><path d="M306.698 193.353l-3.606 1.478a2.11 2.11 0 00-1.245 2.465l-.387.158c-1.468-5.091.323-10.225 4.35-11.872a6.805 6.805 0 011.736-.459c1.855-.243 3.786.254 5.524 1.336 1.649 1.027 3.122 2.581 4.183 4.531l-.531.217a2.12 2.12 0 00-2.617-.884l-3.611 1.478a1.79 1.79 0 00-2.324-.972l-.5.204a1.783 1.783 0 00-.972 2.32zm17.176 6.263l-3.172-7.726a2.149 2.149 0 00-2.55-1.249c-1.051-1.973-2.499-3.575-4.139-4.7-1.729-1.188-3.668-1.844-5.585-1.836a7.912 7.912 0 00-2.981.59c-4.51 1.845-6.533 7.535-4.877 13.123l-.245.1s-.774-.053-2.067-.053c-4.083 0-13.371.542-19.884 5.06 0 0-.411.435-.427 1.099-.008.221.03.467.137.73 0 0 10.459-6.762 20.132.187.595.425 1.169.819 1.73 1.183l.867 2.115c1.441 3.505 5.488 5.197 9.001 3.761l8.859-3.625 1.845-.755c3.128-1.28 4.638-4.882 3.356-8.004" fill="#C94C43"/><path d="M299.948 206.123a45.315 45.315 0 01-1.729-1.183c-9.674-6.949-20.133-.187-20.133-.187a1.774 1.774 0 01-.137-.729c1.465-.963 6.951-4.166 13.749-3.071 7.968 1.283 9.409 2.389 8.25 5.17zm20.57 1.497l-1.845.755c2.767-1.509-.662-7.883-2.665-12.091-2.005-4.207-5.037-2.285-5.037-2.285-.694-1.41-2.182-1.333-2.182-1.333-.08-1.359-1.119-1.633-1.119-1.633l.5-.204a1.79 1.79 0 012.324.972l3.611-1.478a2.121 2.121 0 012.617.884l.531-.217c-1.062-1.95-2.534-3.504-4.183-4.531-1.738-1.082-3.669-1.579-5.524-1.336a3.93 3.93 0 00.882-1.017c1.917-.008 3.856.647 5.585 1.835 1.64 1.125 3.088 2.727 4.139 4.7a2.149 2.149 0 012.55 1.249l3.171 7.726c1.283 3.122-.227 6.724-3.355 8.004" fill="#B23B38"/><path d="M316.367 190.222c1.283.54 3.09 2.424 5.976 1.282 2.067-.802 4.252-1.362 5.315-1.623.421-.08.663-.14.663-.14l-1.144-3.325s-.04.022-.139.041c-.743.161-4.514.961-6.28.56-1.984-.46-5.314 1.924-5.314 1.924s-.362.76.923 1.281" fill="#FFB27D"/><path d="M280.129 210.333c0-1.203-2.181-4.915-2.181-4.915s-2.18 3.712-2.18 4.915a2.18 2.18 0 004.361 0z" fill="#AFCDFB"/><path d="M332.922 81.419a8.409 8.409 0 011.452-2.47c.138-.168.311-.34.502-.513.835-.73 2.048-1.394 2.994-1.595 7.229-1.526 12.023 6.253 7.529 11.979-.077.094-.151.185-.23.277-.73.866-2.245 1.772-3.349 2.017a9.086 9.086 0 01-1.687.214c-5.437.142-8.996-5.076-7.211-9.91zM339.36 66.1l-3.203.695-.076.018a.78.78 0 00-.607.844l.287 2.716a.766.766 0 01-.506.803 13.706 13.706 0 00-4.628 2.773.792.792 0 01-.96.07l-1.892-1.273a.797.797 0 00-.826-.028.853.853 0 00-.208.175l-2.158 2.554a.797.797 0 00.048 1.076l2.151 2.143a.768.768 0 01.178.807c-.14.407-.267.82-.373 1.245a13.73 13.73 0 00-.37 2.382l-.002.002a.787.787 0 01-.552.706l-2.948.91-.147.048a.768.768 0 00-.528.899l.714 3.267c.088.396.46.67.868.626l3.027-.322a.784.784 0 01.795.453 13.718 13.718 0 002.346 3.504.78.78 0 01.07.962l-1.507 2.244a.793.793 0 00.149 1.054l2.567 2.163a.766.766 0 001.032-.044l2.525-2.52a.802.802 0 01.819-.192c.353.12.715.225 1.085.317.696.17 1.391.287 2.078.35a.757.757 0 01.669.536l1.093 3.539a.784.784 0 00.915.531l3.284-.711a.787.787 0 00.608-.842l-.352-3.355a.77.77 0 01.462-.802c.074-.035.147-.064.221-.105a13.734 13.734 0 002.504-1.492.757.757 0 01.889-.02l2.377 1.588a.793.793 0 001.051-.148l.482-.569 1.669-1.984a.784.784 0 00-.044-1.06l-2.118-2.11a.757.757 0 01-.151-.856 13.815 13.815 0 001.172-4.306l.618-.19 2.536-.786a.756.756 0 00.522-.896l-.71-3.29a.793.793 0 00-.848-.61l-2.07.223a.779.779 0 01-.808-.498 13.713 13.713 0 00-2.118-3.77.75.75 0 01-.037-.908l1.903-2.837a.755.755 0 00-.14-.993l-2.6-2.18a.762.762 0 00-1.036.041l-2.629 2.622a.776.776 0 01-.858.167 13.145 13.145 0 00-1.994-.656 14.37 14.37 0 00-1.117-.23.786.786 0 01-.622-.536l-1.047-3.39a.797.797 0 00-.924-.544" fill="#DFEDFB"/><path d="M375.44 99.418c.642-1.24 1.534-2.421 2.697-3.506.243-.233.543-.463.869-.69 1.416-.962 3.405-1.742 4.888-1.87 11.371-.955 17.222 11.88 9.235 19.791-.134.128-.265.257-.404.383-1.284 1.185-3.778 2.282-5.517 2.448-.913.085-1.79.081-2.624.003-8.358-.821-12.808-9.499-9.144-16.56zm12.799-22.235l-5.037.453-.119.012a1.204 1.204 0 00-1.094 1.175l-.081 4.217c0 .07-.008.137-.018.203a1.187 1.187 0 01-.912.931 21.103 21.103 0 00-7.62 3.363c-.096.066-.2.116-.303.153-.4.135-.855.05-1.183-.23l-2.654-2.314a1.232 1.232 0 00-1.259-.2 1.344 1.344 0 00-.356.227l-3.794 3.5a1.227 1.227 0 00-.131 1.66l2.879 3.694c.285.365.331.858.121 1.27a22.76 22.76 0 00-.809 1.835 20.793 20.793 0 00-1.026 3.577v.006a1.215 1.215 0 01-.986.973l-4.69.832-.235.044a1.187 1.187 0 00-.978 1.276l.462 5.142a1.242 1.242 0 001.211 1.124l4.698.089c.523.009.981.351 1.132.844a21.105 21.105 0 002.922 5.818 1.205 1.205 0 01-.078 1.488l-2.74 3.149a1.229 1.229 0 00.025 1.644l3.521 3.804a1.175 1.175 0 001.584.129l4.355-3.375c.367-.288.87-.339 1.292-.138a21.315 21.315 0 004.718 1.626c.473.1.844.472.923.951l.993 5.627a1.213 1.213 0 001.299.993l5.168-.462a1.215 1.215 0 001.08-1.001.829.829 0 00.015-.174l.101-5.207c.007-.484.296-.917.743-1.098.04-.017.078-.034.121-.043.122-.036.238-.069.359-.118a21.091 21.091 0 004.122-1.806 1.171 1.171 0 011.37.142l3.334 2.888c.467.411 1.18.396 1.64-.03l.844-.777 2.942-2.72a1.213 1.213 0 00.134-1.633l-2.838-3.639a1.163 1.163 0 01-.069-1.339 21.273 21.273 0 001.757-3.541c.356-.931.647-1.884.864-2.831l.986-.173 4.034-.717a1.176 1.176 0 00.973-1.273l-.455-5.178a1.222 1.222 0 00-1.183-1.095l-3.212-.055a1.211 1.211 0 01-1.148-.92 21.095 21.095 0 00-2.52-6.182 1.172 1.172 0 01.117-1.397l3.465-3.98a1.164 1.164 0 00-.028-1.547l-3.564-3.84a1.175 1.175 0 00-1.594-.133l-4.529 3.512c-.39.306-.92.339-1.35.09-.92-.531-1.898-.99-2.924-1.385a21.23 21.23 0 00-1.671-.564 1.217 1.217 0 01-.849-.942l-.955-5.395a1.227 1.227 0 00-1.312-1.01" fill="#CDE3FD"/><g clip-path="url(#clip0)"><path d="M411.909 180.227h4.455v4.091c0 .199.059.362.179.49A.596.596 0 00417 185h3.321a.606.606 0 00.447-.192.669.669 0 00.189-.49v-4.091H431a.594.594 0 00.457-.192.687.687 0 00.179-.49v-2.727a.688.688 0 00-.179-.49.597.597 0 00-.457-.192h-10.043v-2.514h6.761c2.652 0 4.816-.866 6.493-2.6 1.677-1.731 2.516-3.969 2.516-6.711 0-2.741-.839-4.978-2.516-6.712-1.677-1.732-3.841-2.599-6.493-2.599H417a.602.602 0 00-.458.191.697.697 0 00-.179.491v13.402h-4.454a.58.58 0 00-.457.202.699.699 0 00-.18.48v3.174c0 .199.06.362.18.49a.596.596 0 00.457.192h4.455v2.514h-4.455a.596.596 0 00-.457.192.687.687 0 00-.18.49v2.727c0 .199.06.362.18.49a.592.592 0 00.457.192zm9.048-20.688h6.364c1.405 0 2.538.44 3.4 1.321.862.88 1.293 2.031 1.293 3.451 0 1.421-.431 2.572-1.293 3.452-.862.881-1.995 1.321-3.4 1.321h-6.364v-9.545z" fill="#FFA412"/></g><g clip-path="url(#clip1)"><path d="M308.566 235.975l1.573-1.049.955 1.432c.047.07.106.113.178.129a.251.251 0 00.206-.04l1.172-.782a.259.259 0 00.113-.173.28.28 0 00-.047-.216l-.956-1.432 3.545-2.365a.255.255 0 00.116-.175.284.284 0 00-.051-.214l-.637-.955a.292.292 0 00-.177-.129.258.258 0 00-.207.041l-3.545 2.365-.587-.88 2.387-1.592c.935-.625 1.497-1.438 1.684-2.439.187-1.002-.039-1.982-.68-2.942-.64-.96-1.458-1.545-2.455-1.757-.997-.211-1.963-.005-2.899.62l-3.783 2.524a.253.253 0 00-.117.175.292.292 0 00.051.214l3.131 4.691-1.572 1.049a.25.25 0 00-.115.179.298.298 0 00.049.21l.742 1.111a.286.286 0 00.177.129.254.254 0 00.207-.041l1.572-1.049.587.88-1.572 1.05a.255.255 0 00-.117.175.29.29 0 00.051.213l.638.955a.29.29 0 00.177.129.252.252 0 00.206-.041zm-1.638-9.372l2.246-1.499c.496-.331.998-.444 1.508-.339.51.106.931.407 1.263.904.332.497.449 1.002.35 1.513-.098.511-.396.932-.892 1.263l-2.246 1.499-2.229-3.341z" fill="#FFA412"/></g><path d="M78.773 259.545h4.136v3.819c0 .186.055.338.166.457a.556.556 0 00.425.179h3.084c.16 0 .298-.06.415-.179a.626.626 0 00.176-.457v-3.819H96.5a.552.552 0 00.425-.179.642.642 0 00.166-.457v-2.546a.646.646 0 00-.166-.457.555.555 0 00-.425-.179h-9.326v-2.347h6.279c2.462 0 4.471-.808 6.029-2.426 1.557-1.616 2.336-3.704 2.336-6.264 0-2.558-.779-4.646-2.336-6.264-1.558-1.616-3.567-2.426-6.03-2.426H83.5a.555.555 0 00-.425.179.645.645 0 00-.166.457v12.509h-4.136a.54.54 0 00-.425.189.655.655 0 00-.166.447v2.963c0 .186.055.338.166.457.111.12.252.179.425.179h4.136v2.347h-4.136a.555.555 0 00-.425.179.646.646 0 00-.166.457v2.546c0 .186.055.338.166.457a.55.55 0 00.425.179zm8.401-19.309h5.91c1.304 0 2.357.411 3.157 1.233.8.822 1.2 1.896 1.2 3.221 0 1.326-.4 2.401-1.2 3.222-.8.823-1.853 1.233-3.158 1.233h-5.909v-8.909zm110.917-20.941h2.545v2.319c0 .113.034.205.103.277A.34.34 0 00201 222h1.898a.346.346 0 00.255-.109.376.376 0 00.108-.277v-2.319H209a.343.343 0 00.261-.108.387.387 0 00.103-.278v-1.546a.385.385 0 00-.103-.277.34.34 0 00-.261-.109h-5.739v-1.425h3.864c1.515 0 2.751-.49 3.71-1.473.958-.981 1.437-2.249 1.437-3.803 0-1.553-.479-2.821-1.437-3.803-.959-.981-2.195-1.473-3.71-1.473H201a.344.344 0 00-.262.109.388.388 0 00-.102.277v7.595h-2.545a.336.336 0 00-.262.115.394.394 0 00-.102.271v1.799a.39.39 0 00.102.278.345.345 0 00.262.108h2.545v1.425h-2.545a.344.344 0 00-.262.109.388.388 0 00-.102.277v1.546a.39.39 0 00.102.278.347.347 0 00.262.108zm5.17-11.723h3.636c.803 0 1.451.249 1.944.748.492.5.738 1.152.738 1.956 0 .805-.246 1.458-.738 1.956-.493.5-1.141.749-1.944.749h-3.636v-5.409zm43.33-55.936h6.046v5.455c0 .265.081.483.243.653a.817.817 0 00.621.256h4.507a.829.829 0 00.607-.256.882.882 0 00.256-.653v-5.455H272.5a.817.817 0 00.621-.256.904.904 0 00.243-.653v-3.637a.904.904 0 00-.243-.652.818.818 0 00-.621-.257h-13.629v-3.352h9.176c3.598 0 6.535-1.154 8.812-3.466 2.275-2.309 3.414-5.292 3.414-8.949 0-3.654-1.139-6.637-3.414-8.948-2.277-2.31-5.214-3.466-8.812-3.466H253.5a.818.818 0 00-.62.255.914.914 0 00-.243.654v17.87h-6.046a.795.795 0 00-.62.269.924.924 0 00-.243.639v4.233c0 .265.08.483.243.654a.814.814 0 00.62.255h6.046v3.352h-6.046a.816.816 0 00-.62.257.908.908 0 00-.243.652v3.637c0 .265.08.483.243.653a.815.815 0 00.62.256zm12.28-27.584h8.636c1.907 0 3.445.587 4.615 1.761 1.169 1.174 1.754 2.709 1.754 4.602 0 1.894-.585 3.429-1.754 4.602-1.17 1.175-2.708 1.762-4.615 1.762h-8.636v-12.727z" fill="#FFA412"/><defs><clipPath id="clip0"><path fill="#fff" transform="translate(410 155)" d="M0 0h28v30H0z"/></clipPath><clipPath id="clip1"><path fill="#fff" transform="rotate(-33.717 526.527 -384.496)" d="M0 0h11.881v12.624H0z"/></clipPath></defs></svg>