<svg width="1581" height="571" fill="none" xmlns="http://www.w3.org/2000/svg"><path d="M1461.16 443.338s.98-4.803-10.09-19.579c-2.39-3.186-9.67-15.19-9.67-15.19-2.89-.713-11.85 4.057-14.22 5.51l-.75.467s-3.83 16.606 4.32 14.722c.25-.06.51-.107.76-.15 7.89-1.223 15.5 6.584 18.95 11.543 2.26 3.222 9.21 2.826 10.7 2.677zm-58.43-32.271s.97-4.799-10.1-19.575c-2.39-3.19-9.67-15.193-9.67-15.193-2.88-.714-11.85 4.06-14.21 5.509-.48.293-.75.471-.75.471s-3.84 16.603 4.31 14.719c.26-.061.51-.107.77-.147 7.86-1.227 15.49 6.584 18.94 11.54 2.26 3.222 9.21 2.808 10.71 2.676z" fill="#233862"/><path d="M1278 328.875c2.26-9.713 27.45-40 40.35-32.985 12.9 7.015 6.2 45.109-7.24 90.036-.21.688-.42 1.366-.63 2.044 27.1-4.442 59.36-5.787 59.36-5.787l3.39 15.632c-24.42 6.737-71.84 30.147-91.76 40.227-7.61 3.444-16.54 3.444-18.36-3.236-6.09-22.362 14.89-105.931 14.89-105.931z" fill="#137F7F"/><path d="M1326.09 468.821s57.64-25.965 92.79-36.459c4.36-1.295 8.36-2.352 11.87-3.101l-3.7-15.047s-3.44-.06-9.03-.053c-21.89.06-76.69 1.284-86.48 12.007-12.29 13.473-5.45 42.653-5.45 42.653z" fill="#FFB27D"/><path d="M1282.53 112.901c-1.9 4.353-3.41 10.058-2.13 13.066 1.45 3.411 1.05 5.881 1.05 5.881l3.1.756 3.71.899s.19-.314.49-.856.69-1.303 1.07-2.191c.08-.509.28-.991.58-1.406.31-.416.71-.751 1.17-.978 1.58-.742 3.22-2.644 3.54-4.481.32-1.838 2.19-5.263 1.65-5.624-1.29-.874-3.24 4.461-4.38 4.696-1.04.218-1.37-.514-1.43-.656v-.029c-1.79-4.36 1.52-15.343-1.11-15.971-.97-.225-6.51 5.042-7.31 6.894zm199.48 87.822c-3.22 3.486-7.84 7.176-11.12 7.222-3.71.05-5.81 1.428-5.81 1.428l-1.95-2.523-2.32-3.019s.21-.307.59-.795c.37-.489 3-2.694 3.04-4.436.05-1.741 1.12-4.021 2.68-5.041 1.56-1.021 3.93-4.125 4.48-3.783 1.33.828-2.77 4.764-2.53 5.902.23 1.031 1.03 1.038 1.18 1.031h.03c4.72-.121 13.46-7.596 15.08-5.441.61.788-1.98 7.971-3.35 9.455z" fill="#E9D6B8"/><path d="M1342.54 336.125c14.22 3.682 10.65 20.749 8.53 67.592-.25 5.298-.74 10.419-1.43 15.3 20.84-4.179 52.88-4.807 68.39-4.849 0 0 2.57 5.709 2.46 10.29-.24 9.731-5.22 16.164-5.22 16.164-35.15 10.494-89.18 28.188-89.18 28.188v-.042c-3.6.935-6.99-.864-9.69-6.016-10.75-20.549-29.14-157.288-29.14-157.288-.18-9.956 41.06 26.982 55.28 30.661z" fill="#198D8D"/><path d="M1365.75 231.153s-5-12.649 4.72-30.686l-13.82 3.065-9.39 2.08a88.07 88.07 0 00-3.57 9.135c-.54 1.562-2.51 7.832-3.11 9.769-3.3.139 1.46 5.131 8.22 6.112 7.56 1.085 16.95.525 16.95.525z" fill="#E9D6B8"/><path d="M1347.26 205.602a88.054 88.054 0 00-3.57 9.134c8.06 2.405 22.45-5.423 22.45-5.423-3.25-2.962-6.46-4.8-9.48-5.792l-9.4 2.081z" fill="#DFCAA8"/><path d="M1341.06 200.884s16.01 17.677 26.88 7.554c10.87-10.123 20.26-14.658 10.5-26.372-9.76-11.715-15.93-10.013-20.37-7.515-4.45 2.498-20.9 21.473-17.01 26.333z" fill="#E9D6B8"/><path d="M1368.84 207.343s-1.64-1.817.71-4.175c2.36-2.359 5.08-5.766 2.45-6.812-2.62-1.045-4.07.564-4.16-1.117-.08-1.68 3.22-5.859-2.86-11.147-6.07-5.288-10.38-5.127-12.29-8.738-1.91-3.611 1.46-8.168 1.46-8.168s-.42 2.245.44 3.747c0 0 .42-10.558 9.72-10.651 9.31-.093 12.71 7.493 15.83 10.284 6.87 6.158 11.19 10.29 9.79 16.898-1.41 6.609-12.84 18.99-21.09 19.879z" fill="#233862"/><path d="M1351.06 197.202l-5.94-5.581s-2.42 3.7-.72 5.306c1.71 1.606 6.66.275 6.66.275z" fill="#fff"/><path d="M1271.32 163.768c2.54-15.7 10.18-32.934 10.18-32.934l8.33-.378s-.92 21.252-.71 36.113c.09 7.137 3.21 13.599 4.07 14.74 2.59 3.454 40.67 40.042 41.94 41.206l.03.032c4.06.688 3.61 7.332 7.77 8.449 6.94 1.856 18.47-1.527 24.64.753 0 0 49.45.057 56.97-3.54 7.53-3.596 36.87-25.191 36.87-25.191l5.4 6.323s-20.13 38.7-36.1 45.672c-8.69 3.793-27.78 8.353-43.37 11.725-3.02.659-5.82 2.11-8.1 4.203a17.417 17.417 0 00-4.87 7.708c-14.66 47.217-7.29 87.035-7.29 87.035s-14.06 1.569-31.56-3.283c-22.75-6.309-39.38-16.528-39.38-16.528-6.41-7.761-2.62-36.217-2.62-36.217s-4.42 4.771-5.91 12.746c-1.07 5.741-1.64 8.92-2 10.936-.07.435-.26.844-.54 1.187-.28.343-.64.609-1.05.773a2.606 2.606 0 01-2.51-.322c-3.29-2.43-7.98-6.216-9.45-8.992-5.12-9.705 6.27-49.24 22.01-76.808a15.417 15.417 0 00-.3-15.807c-9.68-15.5-24.56-40.081-24.74-45.016-.09-2.683.83-15.564 2.29-24.585z" fill="#79CCCA"/><path d="M1344.01 234.56s-13.28 18.804-3.54 36.973c9.73 18.17 47.97 15.665 55.04 38.362l-4.29 14.133-15.99-8.638s-1.34-12.275-17.06-17.606c-30.72-10.408-38.12-28.391-31.67-44.48 5.45-13.599 13.34-20.15 13.34-20.15l4.17 1.406zm20.5-10.343l-15.39 5.077-.76 2.912 19.2-.453s-1.02-4.407-3.05-7.536zm-22.52-4.225l-.51 7.947s-2.02 1.644-1.99 1.427c.02-.218-4.33-6.815-4.33-6.815a44.17 44.17 0 016.83-2.559z" fill="#FFCF50"/><path d="M1349.12 229.294l-7.86-2.648a1.219 1.219 0 00-1.03.121 1.227 1.227 0 00-.55.868l-.64 5.266c-.04.273.02.549.17.783.15.233.37.409.63.498l3.46 1.167c.18.062.38.078.57.047.19-.031.38-.108.53-.226l5.04-3.789c.18-.13.31-.304.39-.505.09-.201.11-.421.08-.635a1.183 1.183 0 00-.79-.947z" fill="#F9BB41"/><path d="M1290.23 129.347l.7 6.597s-8.35.129-8.35 0c0-.128-.25-3.272-.25-3.272l-1.39 3.65-3.1-1.009 3.55-5.966s3.52 1.666 8.84 0zm171.17 73.674l5.44 6.32-1.6 6.166-2.21-1.513 1.09-4.635-3.81 3.118-4.93-6.498 6.02-2.958z" fill="#2A425B"/><path d="M1462.58 208.82c0-.1-.03-.197-.08-.28a.55.55 0 00-.23-.185.501.501 0 00-.55.109c-.07.07-.12.16-.14.257a.484.484 0 00.03.291c.04.092.11.171.19.226a.495.495 0 00.63-.064.48.48 0 00.15-.354zm-178.47-75.317a.428.428 0 00-.06-.222.452.452 0 00-.18-.147.432.432 0 00-.24-.023.399.399 0 00-.2.111.344.344 0 00-.11.205.37.37 0 00.02.232c.03.073.09.135.15.178.07.044.15.066.23.066a.42.42 0 00.28-.119.41.41 0 00.11-.281zm13.12 153.616c0-.211-.06-.418-.18-.594a1.06 1.06 0 00-.48-.395 1.08 1.08 0 00-1.17.232c-.15.15-.25.341-.29.548-.04.208-.02.423.06.619s.22.363.39.48a1.083 1.083 0 001.36-.133c.2-.201.31-.473.31-.757zm8.54-17.758c0-.211-.07-.418-.18-.594a1.122 1.122 0 00-.48-.395 1.08 1.08 0 00-1.17.233c-.15.149-.26.34-.3.548-.04.207-.02.423.06.618.09.196.22.363.4.48.18.118.38.181.6.181.28 0 .55-.113.75-.314.2-.2.32-.473.32-.757zm11.75-13.417c0-.211-.06-.418-.18-.594a1.01 1.01 0 00-.48-.394 1.055 1.055 0 00-.62-.061 1.064 1.064 0 00-.84.841c-.04.207-.02.422.06.618s.22.363.4.48a1.065 1.065 0 001.66-.89z" fill="#EBF3FA"/><path d="M1370.38 519.206c-41.77-1.806-276.18 8.299-229.18 28.508 46.99 20.209 220.41 33.682 196.37 12.799-24.05-20.883 272.44-6.063 241.11-24.25-31.33-18.188-208.3-17.057-208.3-17.057z" fill="#F0F0F0"/><path d="M71.754 29.86h-3.3l-4.32-5.4v-1.65l4.32-5.43h3.3l-4.89 6.24 4.89 6.24zm7.17 0h-3.3l-4.32-5.4v-1.65l4.32-5.43h3.3l-4.86 6.24 4.86 6.24zM86.5 31h-3.3V10h3.3v8.58L95.11 10h4.23l-9.72 9.6L100.9 31h-4.5l-9.9-10.08V31zm31.279-2.52c.32 0 .61-.07.87-.21v2.46c-.44.32-1.07.48-1.89.48-1.68 0-2.71-.7-3.09-2.1-1.34 1.52-3.15 2.28-5.43 2.28-1.58 0-2.9-.44-3.96-1.32-1.04-.86-1.56-2.07-1.56-3.63s.57-2.76 1.71-3.6c1.12-.86 2.52-1.29 4.2-1.29 1.78 0 3.35.38 4.71 1.14v-.81c0-2.14-1.44-3.21-4.32-3.21-1.68 0-3.23.44-4.65 1.32v-2.85c1.46-.84 3.25-1.26 5.37-1.26 2.08 0 3.73.5 4.95 1.5 1.24.98 1.86 2.36 1.86 4.14v5.49c0 .46.11.82.33 1.08.24.26.54.39.9.39zm-4.44-1.65v-1.8c-1.24-.7-2.55-1.05-3.93-1.05-1.08 0-1.93.2-2.55.6-.6.4-.9.96-.9 1.68 0 .76.28 1.34.84 1.74.58.4 1.36.6 2.34.6.8 0 1.58-.16 2.34-.48.76-.34 1.38-.77 1.86-1.29zm12.35 4.17h-3.24V16.27h3.24v5.58l5.82-5.58h4.14l-6.99 6.6 8.04 8.13h-4.44l-6.57-6.66V31zm17.529 0h-3.03V16.27h3.24v9.99l7.95-9.99h3.03V31h-3.24V20.98L143.217 31zm15.358-7.38c0-2.22.7-4.06 2.1-5.52 1.42-1.48 3.24-2.22 5.46-2.22 1.52 0 2.81.4 3.87 1.2 2.08 1.48 3.12 3.7 3.12 6.66v.84h-11.28c.2 1.24.79 2.21 1.77 2.91 1 .7 2.26 1.05 3.78 1.05 1.68 0 3.26-.44 4.74-1.32v2.73c-1.36.96-3.17 1.44-5.43 1.44s-4.19-.72-5.79-2.16c-1.56-1.44-2.34-3.31-2.34-5.61zm3.3-1.5h7.98c-.04-.92-.39-1.73-1.05-2.43-.68-.72-1.62-1.08-2.82-1.08-1.14 0-2.09.34-2.85 1.02-.74.66-1.16 1.49-1.26 2.49zm27.15 8.88h-3.24V16.27h3.24v5.58l5.82-5.58h4.14l-6.99 6.6 8.04 8.13h-4.44l-6.57-6.66V31zm22.988-15.12c2.08 0 3.79.75 5.13 2.25 1.34 1.48 2.01 3.32 2.01 5.52 0 2.18-.67 4.01-2.01 5.49-1.34 1.5-3.05 2.25-5.13 2.25-2.26 0-4.01-.8-5.25-2.4V37h-3.24V16.27h3.24v2.01c1.24-1.6 2.99-2.4 5.25-2.4zm-.87 2.85c-.94 0-1.8.25-2.58.75-.78.48-1.38 1.11-1.8 1.89v4.56c.42.76 1.02 1.39 1.8 1.89.8.48 1.66.72 2.58.72 1.36 0 2.49-.47 3.39-1.41.9-.96 1.35-2.12 1.35-3.48 0-1.38-.45-2.54-1.35-3.48-.9-.96-2.03-1.44-3.39-1.44zm15.2 12.27h-3.03V16.27h3.24v9.99l7.95-9.99h3.03V31h-3.24V20.98L226.344 31zm22.918 0h-3.24V19.12h-4.98v-2.85h13.17v2.85h-4.95V31zm7.19-7.38c0-2.22.7-4.06 2.1-5.52 1.42-1.48 3.24-2.22 5.46-2.22 1.52 0 2.81.4 3.87 1.2 2.08 1.48 3.12 3.7 3.12 6.66v.84h-11.28c.2 1.24.79 2.21 1.77 2.91 1 .7 2.26 1.05 3.78 1.05 1.68 0 3.26-.44 4.74-1.32v2.73c-1.36.96-3.17 1.44-5.43 1.44s-4.19-.72-5.79-2.16c-1.56-1.44-2.34-3.31-2.34-5.61zm3.3-1.5h7.98c-.04-.92-.39-1.73-1.05-2.43-.68-.72-1.62-1.08-2.82-1.08-1.14 0-2.09.34-2.85 1.02-.74.66-1.16 1.49-1.26 2.49zm24.008-6.24c2.08 0 3.79.75 5.13 2.25 1.34 1.48 2.01 3.32 2.01 5.52 0 2.18-.67 4.01-2.01 5.49-1.34 1.5-3.05 2.25-5.13 2.25-2.26 0-4.01-.8-5.25-2.4V37h-3.24V16.27h3.24v2.01c1.24-1.6 2.99-2.4 5.25-2.4zm-.87 2.85c-.94 0-1.8.25-2.58.75-.78.48-1.38 1.11-1.8 1.89v4.56c.42.76 1.02 1.39 1.8 1.89.8.48 1.66.72 2.58.72 1.36 0 2.49-.47 3.39-1.41.9-.96 1.35-2.12 1.35-3.48 0-1.38-.45-2.54-1.35-3.48-.9-.96-2.03-1.44-3.39-1.44zM298.09 31h-3.03V16.27h3.24v9.99l7.95-9.99h3.03V31h-3.24V20.98L298.09 31zm19.438 0h-3.03V16.27h3.24v9.99l7.95-9.99h3.029V31h-3.239V20.98L317.528 31zm26.24 4.05h-3.12v-6.9h1.92c.78-1.18 1.32-2.63 1.62-4.35.3-1.66.47-4.17.51-7.53h11.73v11.88h2.55v6.9h-3.06V31h-12.15v4.05zm2.22-6.9h7.2v-9.03h-5.52c0 3.82-.56 6.83-1.68 9.03zm27.513-9.03h-5.55l-.06 2.13c-.02 2.12-.24 3.94-.66 5.46-.7 2.8-2.39 4.25-5.07 4.35-.42 0-.76-.04-1.02-.12v-2.79c.22.06.44.09.66.09 1.06 0 1.81-.54 2.25-1.62.44-1.1.68-2.95.72-5.55l.09-4.8h11.88V31h-3.24V19.12zM384.426 31h-3.72l4.17-5.73c-1.04-.26-1.85-.77-2.43-1.53-.56-.76-.84-1.7-.84-2.82 0-1.42.47-2.55 1.41-3.39.96-.84 2.34-1.26 4.14-1.26h7.74V31h-3.24v-5.07h-3.57l-3.66 5.07zm3.18-7.68h4.05v-4.44h-4.05c-.86 0-1.53.2-2.01.6-.46.38-.69.92-.69 1.62 0 .7.23 1.25.69 1.65.48.38 1.15.57 2.01.57zM416.998 31h-8.49V16.27h8.04c1.44 0 2.57.35 3.39 1.05.82.68 1.23 1.58 1.23 2.7 0 .72-.18 1.37-.54 1.95-.34.56-.79.97-1.35 1.23 1.92.56 2.88 1.82 2.88 3.78 0 1.26-.46 2.25-1.38 2.97-.9.7-2.16 1.05-3.78 1.05zm-5.25-6.24v3.63h4.68c.76 0 1.35-.16 1.77-.48.44-.32.66-.76.66-1.32 0-.58-.22-1.03-.66-1.35-.42-.32-1.01-.48-1.77-.48h-4.68zm0-5.88v3.27h4.02c.7 0 1.24-.14 1.62-.42.4-.3.6-.7.6-1.2 0-1.1-.74-1.65-2.22-1.65h-4.02zm28.621 9.6c.32 0 .61-.07.87-.21v2.46c-.44.32-1.07.48-1.89.48-1.68 0-2.71-.7-3.09-2.1-1.34 1.52-3.15 2.28-5.43 2.28-1.58 0-2.9-.44-3.96-1.32-1.04-.86-1.56-2.07-1.56-3.63s.57-2.76 1.71-3.6c1.12-.86 2.52-1.29 4.2-1.29 1.78 0 3.35.38 4.71 1.14v-.81c0-2.14-1.44-3.21-4.32-3.21-1.68 0-3.23.44-4.65 1.32v-2.85c1.46-.84 3.25-1.26 5.37-1.26 2.08 0 3.73.5 4.95 1.5 1.24.98 1.86 2.36 1.86 4.14v5.49c0 .46.11.82.33 1.08.24.26.54.39.9.39zm-4.44-1.65v-1.8c-1.24-.7-2.55-1.05-3.93-1.05-1.08 0-1.93.2-2.55.6-.6.4-.9.96-.9 1.68 0 .76.28 1.34.84 1.74.58.4 1.36.6 2.34.6.8 0 1.58-.16 2.34-.48.76-.34 1.38-.77 1.86-1.29zm16.011 4.56c-2.22 0-4.1-.73-5.64-2.19-1.54-1.48-2.31-3.35-2.31-5.61 0-2.26.77-4.11 2.31-5.55 1.56-1.44 3.45-2.16 5.67-2.16 1.68 0 3.16.34 4.44 1.02v2.79c-1.34-.64-2.66-.96-3.96-.96-1.48 0-2.72.46-3.72 1.38-1 .94-1.5 2.11-1.5 3.51 0 1.42.5 2.6 1.5 3.54 1 .92 2.24 1.38 3.72 1.38 1.58 0 2.98-.37 4.2-1.11v2.76c-1.4.8-2.97 1.2-4.71 1.2zM192.561 69h-8.49V54.27h8.04c1.44 0 2.57.35 3.39 1.05.82.68 1.23 1.58 1.23 2.7 0 .72-.18 1.37-.54 1.95-.34.56-.79.97-1.35 1.23 1.92.56 2.88 1.82 2.88 3.78 0 1.26-.46 2.25-1.38 2.97-.9.7-2.16 1.05-3.78 1.05zm-5.25-6.24v3.63h4.68c.76 0 1.35-.16 1.77-.48.44-.32.66-.76.66-1.32 0-.58-.22-1.03-.66-1.35-.42-.32-1.01-.48-1.77-.48h-4.68zm0-5.88v3.27h4.02c.7 0 1.24-.14 1.62-.42.4-.3.6-.7.6-1.2 0-1.1-.74-1.65-2.22-1.65h-4.02zm28.622 9.6c.32 0 .61-.07.87-.21v2.46c-.44.32-1.07.48-1.89.48-1.68 0-2.71-.7-3.09-2.1-1.34 1.52-3.15 2.28-5.43 2.28-1.58 0-2.9-.44-3.96-1.32-1.04-.86-1.56-2.07-1.56-3.63s.57-2.76 1.71-3.6c1.12-.86 2.52-1.29 4.2-1.29 1.78 0 3.35.38 4.71 1.14v-.81c0-2.14-1.44-3.21-4.32-3.21-1.68 0-3.23.44-4.65 1.32v-2.85c1.46-.84 3.25-1.26 5.37-1.26 2.08 0 3.73.5 4.95 1.5 1.24.98 1.86 2.36 1.86 4.14v5.49c0 .46.11.82.33 1.08.24.26.54.39.9.39zm-4.44-1.65v-1.8c-1.24-.7-2.55-1.05-3.93-1.05-1.08 0-1.93.2-2.55.6-.6.4-.9.96-.9 1.68 0 .76.28 1.34.84 1.74.58.4 1.36.6 2.34.6.8 0 1.58-.16 2.34-.48.76-.34 1.38-.77 1.86-1.29zm11.6 4.17h-3.99l7.02-7.89-6.18-6.84h3.81l5.16 5.76v-5.76h3.24v5.76l5.16-5.76h3.81l-6.24 6.84 7.08 7.89h-4.02l-5.79-6.57V69h-3.24v-6.57l-5.82 6.57zm25.813 0h-3.24V54.27h3.24v5.76h7.47v-5.76h3.24V69h-3.24v-6.12h-7.47V69zm33.994 0h-3.24V54.27h3.24V69zm-11.1 0h-6.96V54.27h3.24v4.47h3.57c1.8 0 3.24.47 4.32 1.41 1.08.92 1.62 2.16 1.62 3.72 0 1.46-.51 2.69-1.53 3.69-1.02.96-2.44 1.44-4.26 1.44zm-3.72-7.53v4.8h3.21c.94 0 1.68-.21 2.22-.63.54-.44.81-1.03.81-1.77 0-.76-.27-1.35-.81-1.77-.52-.42-1.26-.63-2.22-.63h-3.21zm24.206 7.77c-.6 0-1.1-.2-1.5-.6-.4-.42-.6-.93-.6-1.53 0-.58.2-1.07.6-1.47.4-.42.9-.63 1.5-.63.58 0 1.07.21 1.47.63.42.4.63.89.63 1.47 0 .6-.21 1.11-.63 1.53-.4.4-.89.6-1.47.6zm1.47-6.99h-3.12V57.9c1.38-.26 2.6-.77 3.66-1.53s1.59-1.65 1.59-2.67c0-.96-.36-1.71-1.08-2.25-.72-.56-1.69-.84-2.91-.84-1.76 0-3.51.57-5.25 1.71v-2.85c1.6-1.18 3.53-1.77 5.79-1.77 1.9 0 3.5.52 4.8 1.56 1.32 1.04 1.98 2.45 1.98 4.23 0 1.46-.54 2.71-1.62 3.75-1.04 1.02-2.32 1.77-3.84 2.25v2.76zm23.021-1.44v1.65l-4.319 5.4h-3.3l4.89-6.24-4.89-6.24h3.3l4.319 5.43zm-7.169 0v1.65l-4.32 5.4h-3.3l4.86-6.24-4.86-6.24h3.3l4.32 5.43zm324.804-30.95h-3.3l-4.32-5.4v-1.65l4.32-5.43h3.3l-4.89 6.24 4.89 6.24zm7.17 0h-3.3l-4.32-5.4v-1.65l4.32-5.43h3.3l-4.86 6.24 4.86 6.24zm9.014-3.78c1.42 1.48 3.16 2.22 5.22 2.22 2.06 0 3.8-.74 5.22-2.22 1.42-1.52 2.13-3.38 2.13-5.58 0-2.22-.71-4.07-2.13-5.55-1.42-1.5-3.16-2.25-5.22-2.25-2.06 0-3.8.75-5.22 2.25-1.4 1.46-2.1 3.31-2.1 5.55 0 2.24.7 4.1 2.1 5.58zm12.9 2.19c-2.04 2.08-4.6 3.12-7.68 3.12s-5.64-1.04-7.68-3.12c-2.02-2.12-3.03-4.71-3.03-7.77 0-3.08 1.01-5.66 3.03-7.74 2.04-2.1 4.6-3.15 7.68-3.15s5.64 1.05 7.68 3.15c2.04 2.08 3.06 4.66 3.06 7.74s-1.02 5.67-3.06 7.77zm24.146 6.78h-3.15V31h-13.17V16.27h3.24v11.88h7.26V16.27h3.24v11.88h2.58v6.9zm2.8-11.43c0-2.22.7-4.06 2.1-5.52 1.42-1.48 3.24-2.22 5.46-2.22 1.52 0 2.81.4 3.87 1.2 2.08 1.48 3.12 3.7 3.12 6.66v.84h-11.28c.2 1.24.79 2.21 1.77 2.91 1 .7 2.26 1.05 3.78 1.05 1.68 0 3.26-.44 4.74-1.32v2.73c-1.36.96-3.17 1.44-5.43 1.44s-4.19-.72-5.79-2.16c-1.56-1.44-2.34-3.31-2.34-5.61zm3.3-1.5h7.98c-.04-.92-.39-1.73-1.05-2.43-.68-.72-1.62-1.08-2.82-1.08-1.14 0-2.09.34-2.85 1.02-.74.66-1.16 1.49-1.26 2.49zM712.5 31h-3.24V16.27h3.24v5.76h7.47v-5.76h3.24V31h-3.24v-6.12h-7.47V31zm18.964 0h-3.03V16.27h3.24v9.99l7.95-9.99h3.03V31h-3.24V20.98L731.464 31zm22.918 0h-3.24V19.12h-4.98v-2.85h13.17v2.85h-4.95V31zm7.191-7.38c0-2.22.7-4.06 2.1-5.52 1.42-1.48 3.24-2.22 5.46-2.22 1.52 0 2.81.4 3.87 1.2 2.08 1.48 3.12 3.7 3.12 6.66v.84h-11.28c.2 1.24.79 2.21 1.77 2.91 1 .7 2.26 1.05 3.78 1.05 1.68 0 3.26-.44 4.74-1.32v2.73c-1.36.96-3.17 1.44-5.43 1.44s-4.19-.72-5.79-2.16c-1.56-1.44-2.34-3.31-2.34-5.61zm3.3-1.5h7.98c-.04-.92-.39-1.73-1.05-2.43-.68-.72-1.62-1.08-2.82-1.08-1.14 0-2.09.34-2.85 1.02-.74.66-1.16 1.49-1.26 2.49zm27.901 9.27c-1.76 0-3.32-.39-4.68-1.17V27.4c1.3.76 2.69 1.14 4.17 1.14 1.32 0 2.45-.33 3.39-.99.96-.68 1.53-1.57 1.71-2.67h-6.21v-2.61h6.21c-.24-1.1-.82-1.96-1.74-2.58-.92-.64-2.04-.96-3.36-.96-1.36 0-2.65.32-3.87.96v-2.82c1.28-.66 2.74-.99 4.38-.99 2.2 0 4.07.72 5.61 2.16 1.54 1.44 2.31 3.29 2.31 5.55s-.77 4.13-2.31 5.61c-1.52 1.46-3.39 2.19-5.61 2.19zm18.178-.39h-3.24V19.12h-4.98v-2.85h13.17v2.85h-4.95V31zm11.534 0h-3.03V16.27h3.24v9.99l7.95-9.99h3.03V31h-3.24V20.98L822.486 31zm28.041 0h-3.24V16.27h3.24v5.58l5.82-5.58h4.14l-6.99 6.6 8.04 8.13h-4.44l-6.57-6.66V31zm22.989-15.12c2.08 0 3.79.75 5.13 2.25 1.34 1.48 2.01 3.32 2.01 5.52 0 2.18-.67 4.01-2.01 5.49-1.34 1.5-3.05 2.25-5.13 2.25-2.26 0-4.01-.8-5.25-2.4V37h-3.24V16.27h3.24v2.01c1.24-1.6 2.99-2.4 5.25-2.4zm-.87 2.85c-.94 0-1.8.25-2.58.75-.78.48-1.38 1.11-1.8 1.89v4.56c.42.76 1.02 1.39 1.8 1.89.8.48 1.66.72 2.58.72 1.36 0 2.49-.47 3.39-1.41.9-.96 1.35-2.12 1.35-3.48 0-1.38-.45-2.54-1.35-3.48-.9-.96-2.03-1.44-3.39-1.44zM887.845 31h-3.03V16.27h3.24v9.99l7.95-9.99h3.03V31h-3.24V20.98L887.845 31zm22.918 0h-3.24V19.12h-4.98v-2.85h13.17v2.85h-4.95V31zm7.191-7.38c0-2.22.7-4.06 2.1-5.52 1.42-1.48 3.24-2.22 5.46-2.22 1.52 0 2.81.4 3.87 1.2 2.08 1.48 3.12 3.7 3.12 6.66v.84h-11.28c.2 1.24.79 2.21 1.77 2.91 1 .7 2.26 1.05 3.78 1.05 1.68 0 3.26-.44 4.74-1.32v2.73c-1.36.96-3.17 1.44-5.43 1.44s-4.19-.72-5.79-2.16c-1.56-1.44-2.34-3.31-2.34-5.61zm3.3-1.5h7.98c-.04-.92-.39-1.73-1.05-2.43-.68-.72-1.62-1.08-2.82-1.08-1.14 0-2.09.34-2.85 1.02-.74.66-1.16 1.49-1.26 2.49zm24.008-6.24c2.08 0 3.79.75 5.13 2.25 1.34 1.48 2.01 3.32 2.01 5.52 0 2.18-.67 4.01-2.01 5.49-1.34 1.5-3.05 2.25-5.13 2.25-2.26 0-4.01-.8-5.25-2.4V37h-3.24V16.27h3.24v2.01c1.24-1.6 2.99-2.4 5.25-2.4zm-.87 2.85c-.94 0-1.8.25-2.58.75-.78.48-1.38 1.11-1.8 1.89v4.56c.42.76 1.02 1.39 1.8 1.89.8.48 1.66.72 2.58.72 1.36 0 2.49-.47 3.39-1.41.9-.96 1.35-2.12 1.35-3.48 0-1.38-.45-2.54-1.35-3.48-.9-.96-2.03-1.44-3.39-1.44zM959.591 31h-3.03V16.27h3.24v9.99l7.95-9.99h3.03V31h-3.24V20.98L959.591 31zm19.438 0h-3.03V16.27h3.24v9.99l7.95-9.99h3.03V31h-3.24V20.98L979.029 31zm26.301 6.15c-1.22 0-2.11-.16-2.67-.48v-2.85c.64.32 1.35.48 2.13.48.82 0 1.51-.3 2.07-.9.58-.6 1.16-1.58 1.74-2.94l-6.45-14.19h3.6l4.44 10.38 4.29-10.38h3.51l-7.05 16.32c-1.32 3.04-3.19 4.56-5.61 4.56zM774.05 69h-3.24V54.27h3.24v5.76h7.47v-5.76h3.24V69h-3.24v-6.12h-7.47V69zm29.764-2.52c.32 0 .61-.07.87-.21v2.46c-.44.32-1.07.48-1.89.48-1.68 0-2.71-.7-3.09-2.1-1.34 1.52-3.15 2.28-5.43 2.28-1.58 0-2.9-.44-3.96-1.32-1.04-.86-1.56-2.07-1.56-3.63s.57-2.76 1.71-3.6c1.12-.86 2.52-1.29 4.2-1.29 1.78 0 3.35.38 4.71 1.14v-.81c0-2.14-1.44-3.21-4.32-3.21-1.68 0-3.23.44-4.65 1.32v-2.85c1.46-.84 3.25-1.26 5.37-1.26 2.08 0 3.73.5 4.95 1.5 1.24.98 1.86 2.36 1.86 4.14v5.49c0 .46.11.82.33 1.08.24.26.54.39.9.39zm-4.44-1.65v-1.8c-1.24-.7-2.55-1.05-3.93-1.05-1.08 0-1.93.2-2.55.6-.6.4-.9.96-.9 1.68 0 .76.28 1.34.84 1.74.58.4 1.36.6 2.34.6.8 0 1.58-.16 2.34-.48.76-.34 1.38-.77 1.86-1.29zm16.011 4.56c-2.22 0-4.1-.73-5.64-2.19-1.54-1.48-2.31-3.35-2.31-5.61 0-2.26.77-4.11 2.31-5.55 1.56-1.44 3.45-2.16 5.67-2.16 1.68 0 3.16.34 4.44 1.02v2.79c-1.34-.64-2.66-.96-3.96-.96-1.48 0-2.72.46-3.72 1.38-1 .94-1.5 2.11-1.5 3.51 0 1.42.5 2.6 1.5 3.54 1 .92 2.24 1.38 3.72 1.38 1.58 0 2.98-.37 4.2-1.11v2.76c-1.4.8-2.97 1.2-4.71 1.2zm13.163-.15c-.6 0-1.1-.2-1.5-.6-.4-.42-.6-.93-.6-1.53 0-.58.2-1.07.6-1.47.4-.42.9-.63 1.5-.63.58 0 1.07.21 1.47.63.42.4.63.89.63 1.47 0 .6-.21 1.11-.63 1.53-.4.4-.89.6-1.47.6zm1.47-6.99h-3.12V57.9c1.38-.26 2.6-.77 3.66-1.53s1.59-1.65 1.59-2.67c0-.96-.36-1.71-1.08-2.25-.72-.56-1.69-.84-2.91-.84-1.76 0-3.51.57-5.25 1.71v-2.85c1.6-1.18 3.53-1.77 5.79-1.77 1.9 0 3.5.52 4.8 1.56 1.32 1.04 1.98 2.45 1.98 4.23 0 1.46-.54 2.71-1.62 3.75-1.04 1.02-2.32 1.77-3.84 2.25v2.76zm23.021-1.44v1.65l-4.32 5.4h-3.3l4.89-6.24-4.89-6.24h3.3l4.32 5.43zm-7.17 0v1.65l-4.32 5.4h-3.3l4.86-6.24-4.86-6.24h3.3l4.32 5.43zm506.511-.9c-7.06 0-12.93-2.21-17.61-6.63-4.68-4.507-7.02-10.183-7.02-17.03 0-6.933 2.31-12.61 6.95-17.03 4.68-4.42 10.57-6.63 17.68-6.63 4.42 0 8.43.953 12.03 2.86v9.425c-3.51-2.34-7.5-3.51-11.96-3.51-4.29 0-7.91 1.408-10.86 4.225-2.86 2.773-4.29 6.327-4.29 10.66s1.47 7.908 4.42 10.725c2.9 2.773 6.61 4.16 11.12 4.16 4.98 0 9.14-1.322 12.48-3.965v9.425c-3.69 2.21-8 3.315-12.94 3.315zm37.29 0c-6.84 0-12.61-1.625-17.29-4.875v-9.75c1.91 1.647 4.42 3.077 7.54 4.29 3.17 1.17 6.29 1.755 9.36 1.755 2.56 0 4.66-.455 6.31-1.365 1.65-.953 2.47-2.253 2.47-3.9 0-1.777-.78-3.033-2.34-3.77-.65-.39-1.52-.78-2.6-1.17l-1.56-.52-3.64-1.105-3.38-1.105c-.48-.13-1.5-.498-3.06-1.105-1.34-.52-2.31-.975-2.92-1.365-2.25-1.56-3.68-2.882-4.29-3.965-1.04-2.08-1.56-4.203-1.56-6.37 0-4.03 1.54-7.193 4.61-9.49 3.08-2.34 7.26-3.51 12.55-3.51 5.33 0 10.29 1.257 14.88 3.77v9.1c-4.63-2.86-9.55-4.29-14.75-4.29-5.16 0-7.74 1.495-7.74 4.485 0 1.3.81 2.34 2.41 3.12.95.52 2.19.975 3.7 1.365 2.04.563 3.69 1.04 4.94 1.43 3.77 1.17 7.07 2.752 9.88 4.745 3.04 2.123 4.55 5.287 4.55 9.49 0 4.377-1.71 7.822-5.13 10.335-3.42 2.513-7.74 3.77-12.94 3.77zm36.72-.91h-9.29V13.5h9.29V59z" fill="#6A6A6A"/><path d="M957 534.504c0 12.981-209.306 23.503-467.5 23.503-258.194 0-467.5-10.522-467.5-23.503 0-12.975 209.306-23.497 467.5-23.497 258.194 0 467.5 10.522 467.5 23.497z" fill="#F0F0F0"/><path d="M340.554 526h-5.949V255.552h5.949V526z" fill="#706865"/><path d="M348.917 481.362H188.858c-9.862 0-17.858-7.993-17.858-17.858V160.427c0-9.862 7.996-17.858 17.858-17.858h160.059c9.862 0 17.86 7.996 17.86 17.858v303.077c0 9.865-7.998 17.858-17.86 17.858z" fill="#BDAFAA"/><path d="M343.76 468.126H194.017c-9.744 0-17.645-7.902-17.645-17.645V165.669c0-9.744 7.901-17.645 17.645-17.645H343.76c9.744 0 17.643 7.901 17.643 17.645v284.812c0 9.743-7.899 17.645-17.643 17.645z" fill="#fff"/><path d="M298.058 153.173h-58.339V140h58.339v13.173z" fill="#706865"/><path d="M219.518 292.248c-.007-.001-.014-.003-.025 0 .114.05.131.056.025 0z" fill="#323657"/><path d="M198.58 201.24c-2.04 0-3.753-.68-5.14-2.04-1.36-1.36-2.04-3.093-2.04-5.2 0-2.093.68-3.82 2.04-5.18 1.373-1.373 3.087-2.06 5.14-2.06 1.52 0 2.827.347 3.92 1.04v1.52c-1.227-.787-2.527-1.18-3.9-1.18-1.6 0-2.953.56-4.06 1.68-1.093 1.093-1.64 2.487-1.64 4.18 0 1.707.547 3.107 1.64 4.2 1.107 1.107 2.473 1.66 4.1 1.66 1.627 0 3.013-.467 4.16-1.4V200c-1.147.827-2.553 1.24-4.22 1.24zm8.089-8.64c.973-1 2.226-1.5 3.76-1.5 1.533 0 2.786.5 3.76 1.5.973.973 1.46 2.167 1.46 3.58 0 1.413-.487 2.607-1.46 3.58-.987.987-2.24 1.48-3.76 1.48-1.52 0-2.774-.493-3.76-1.48-.974-.973-1.46-2.167-1.46-3.58 0-1.413.486-2.607 1.46-3.58zm7.5 3.58c0-1.067-.354-1.967-1.06-2.7-.707-.72-1.6-1.08-2.68-1.08s-1.974.36-2.68 1.08c-.707.733-1.06 1.633-1.06 2.7 0 1.053.353 1.947 1.06 2.68.706.72 1.6 1.08 2.68 1.08s1.973-.36 2.68-1.08c.706-.733 1.06-1.627 1.06-2.68zm6.001-1.7V201h-1.44v-9.66h1.44v1.48c1.027-1.147 2.314-1.72 3.86-1.72 1.187 0 2.094.353 2.72 1.06.64.693.96 1.68.96 2.96V201h-1.44v-5.56c0-1.987-.913-2.98-2.74-2.98-.666 0-1.313.207-1.94.62-.64.413-1.113.88-1.42 1.4zm15.008 6.76c-.894 0-1.574-.26-2.04-.78-.454-.533-.68-1.267-.68-2.2v-5.66h-2.28v-1.26h2.28v-2.98h1.44v2.98h3.38v1.26h-3.38v5.22c0 .773.126 1.307.38 1.6.266.307.7.46 1.3.46.586 0 1.113-.133 1.58-.4v1.32c-.414.293-1.074.44-1.98.44zm8.413-1.3c.667 0 1.3-.153 1.9-.46.6-.307 1.087-.693 1.46-1.16v-1.34c-.986-.64-2.033-.96-3.14-.96-.88 0-1.58.173-2.1.52-.506.347-.76.82-.76 1.42 0 .627.247 1.113.74 1.46.494.347 1.127.52 1.9.52zm-.4 1.3c-1.026 0-1.9-.28-2.62-.84-.706-.587-1.06-1.373-1.06-2.36 0-.973.374-1.753 1.12-2.34.747-.573 1.694-.86 2.84-.86 1.254 0 2.414.313 3.48.94v-.96c0-1.613-1.06-2.42-3.18-2.42-1.133 0-2.186.327-3.16.98v-1.4c.947-.587 2.1-.88 3.46-.88 1.32 0 2.367.313 3.14.94.787.613 1.18 1.493 1.18 2.64v3.98c0 .373.08.667.24.88.174.213.4.32.68.32.214 0 .4-.04.56-.12v1.12c-.213.147-.533.22-.96.22-.48 0-.886-.127-1.22-.38-.32-.267-.52-.653-.6-1.16-.973 1.133-2.273 1.7-3.9 1.7zm13.855 0c-1.48 0-2.706-.48-3.68-1.44-.973-.973-1.46-2.187-1.46-3.64 0-1.44.494-2.64 1.48-3.6.974-.973 2.2-1.46 3.68-1.46 1.12 0 2.094.233 2.92.7v1.34c-.866-.493-1.773-.74-2.72-.74-1.12 0-2.046.36-2.78 1.08-.733.693-1.1 1.593-1.1 2.7 0 1.08.367 1.98 1.1 2.7.747.707 1.674 1.06 2.78 1.06 1.067 0 2.034-.28 2.9-.84v1.32c-.906.547-1.946.82-3.12.82zm10.289 0c-.894 0-1.574-.26-2.04-.78-.454-.533-.68-1.267-.68-2.2v-5.66h-2.28v-1.26h2.28v-2.98h1.44v2.98h3.38v1.26h-3.38v5.22c0 .773.126 1.307.38 1.6.266.307.7.46 1.3.46.586 0 1.113-.133 1.58-.4v1.32c-.414.293-1.074.44-1.98.44zm17.707 0c-2.04 0-3.754-.68-5.14-2.04-1.36-1.36-2.04-3.093-2.04-5.2 0-2.093.68-3.82 2.04-5.18 1.373-1.373 3.086-2.06 5.14-2.06 1.52 0 2.826.347 3.92 1.04v1.52c-1.227-.787-2.527-1.18-3.9-1.18-1.6 0-2.954.56-4.06 1.68-1.094 1.093-1.64 2.487-1.64 4.18 0 1.707.546 3.107 1.64 4.2 1.106 1.107 2.473 1.66 4.1 1.66 1.626 0 3.013-.467 4.16-1.4V200c-1.147.827-2.554 1.24-4.22 1.24zm11.948 0c-1.506 0-2.773-.473-3.8-1.42-1.013-.933-1.52-2.147-1.52-3.64 0-1.44.454-2.647 1.36-3.62.92-.973 2.1-1.46 3.54-1.46.774 0 1.46.16 2.06.48.6.307 1.074.713 1.42 1.22.347.507.607 1.047.78 1.62a5.7 5.7 0 01.26 1.7v.4h-7.94c.08 1.04.494 1.873 1.24 2.5.76.613 1.72.92 2.88.92 1.12 0 2.154-.3 3.1-.9v1.28c-.786.613-1.913.92-3.38.92zm-3.82-5.9h6.46c-.04-.747-.32-1.42-.84-2.02-.493-.613-1.253-.92-2.28-.92-.96 0-1.746.293-2.36.88-.6.6-.926 1.287-.98 2.06zm12.466-.86V201h-1.44v-9.66h1.44v1.48c1.027-1.147 2.313-1.72 3.86-1.72 1.187 0 2.093.353 2.72 1.06.64.693.96 1.68.96 2.96V201h-1.44v-5.56c0-1.987-.913-2.98-2.74-2.98-.667 0-1.313.207-1.94.62-.64.413-1.113.88-1.42 1.4zm15.007 6.76c-.893 0-1.573-.26-2.04-.78-.453-.533-.68-1.267-.68-2.2v-5.66h-2.28v-1.26h2.28v-2.98h1.44v2.98h3.38v1.26h-3.38v5.22c0 .773.127 1.307.38 1.6.267.307.7.46 1.3.46.587 0 1.113-.133 1.58-.4v1.32c-.413.293-1.073.44-1.98.44zm9.579 0c-1.507 0-2.774-.473-3.8-1.42-1.014-.933-1.52-2.147-1.52-3.64 0-1.44.453-2.647 1.36-3.62.92-.973 2.1-1.46 3.54-1.46.773 0 1.46.16 2.06.48.6.307 1.073.713 1.42 1.22.346.507.606 1.047.78 1.62.173.56.26 1.127.26 1.7v.4h-7.94c.08 1.04.493 1.873 1.24 2.5.76.613 1.72.92 2.88.92 1.12 0 2.153-.3 3.1-.9v1.28c-.787.613-1.914.92-3.38.92zm-3.82-5.9h6.46c-.04-.747-.32-1.42-.84-2.02-.494-.613-1.254-.92-2.28-.92-.96 0-1.747.293-2.36.88-.6.6-.927 1.287-.98 2.06zm12.465 5.66h-1.44v-9.66h1.44v1.84c.36-.627.894-1.127 1.6-1.5a4.598 4.598 0 012.24-.58v1.46c-.44 0-.84.06-1.2.18-.613.16-1.153.44-1.62.84-.466.387-.806.827-1.02 1.32v6.1zm-137.998 40h-1.44v-14h1.28l8.84 11.44V227h1.44v14h-1.26l-8.86-11.48V241zm18.628.24c-1.013 0-1.987-.133-2.92-.4-.92-.28-1.673-.64-2.26-1.08v-1.66c.56.48 1.287.893 2.18 1.24.96.347 1.927.52 2.9.52 1.107 0 2.013-.24 2.72-.72.707-.48 1.06-1.12 1.06-1.92.08-.747-.307-1.38-1.16-1.9-.173-.133-.453-.267-.84-.4l-.88-.3a3.294 3.294 0 00-.24-.06c-.12-.04-.253-.08-.4-.12a3.9 3.9 0 00-.42-.14 65.08 65.08 0 01-1.48-.44c-.427-.147-.84-.313-1.24-.5-.44-.213-.787-.447-1.04-.7-.587-.613-.88-1.373-.88-2.28 0-1.053.427-1.92 1.28-2.6.853-.68 2.04-1.02 3.56-1.02 1.68 0 3.133.387 4.36 1.16v1.52c-1.387-.867-2.827-1.3-4.32-1.3-1.08 0-1.913.213-2.5.64-.587.427-.88.973-.88 1.64-.08.533.22 1.06.9 1.58.107.093.327.2.66.32l.68.26.86.24.84.24a47.59 47.59 0 011.38.44c.387.133.793.313 1.22.54.44.227.8.48 1.08.76.653.6.98 1.4.98 2.4 0 1.253-.507 2.24-1.52 2.96-1 .72-2.227 1.08-3.68 1.08zm10.279-.24h-1.48v-14h6.26c1.36 0 2.433.347 3.22 1.04.8.68 1.2 1.6 1.2 2.76 0 1-.294 1.833-.88 2.5-.574.667-1.38 1.087-2.42 1.26l4.52 6.44h-1.74l-4.4-6.3h-4.28v6.3zm0-12.66v5.02h4.7c.96 0 1.7-.213 2.22-.64.533-.44.8-1.06.8-1.86s-.267-1.42-.8-1.86c-.534-.44-1.274-.66-2.22-.66h-4.7zm22.8 11.86h-1.5l-3.02-3.66v-.74l3.02-3.66h1.5l-3.28 4.04 3.28 4.02zm4.62 0h-1.54l-3.02-3.66v-.74l3.02-3.66h1.54l-3.28 4.04 3.28 4.02zm4.776.8h-1.48v-14h6.26c1.36 0 2.433.347 3.22 1.04.8.68 1.2 1.6 1.2 2.76 0 1-.294 1.833-.88 2.5-.574.667-1.38 1.087-2.42 1.26l4.52 6.44h-1.74l-4.4-6.3h-4.28v6.3zm0-12.66v5.02h4.7c.96 0 1.7-.213 2.22-.64.533-.44.8-1.06.8-1.86s-.267-1.42-.8-1.86c-.534-.44-1.274-.66-2.22-.66h-4.7zm13.579 4.26c.974-1 2.227-1.5 3.76-1.5 1.534 0 2.787.5 3.76 1.5.974.973 1.46 2.167 1.46 3.58 0 1.413-.486 2.607-1.46 3.58-.986.987-2.24 1.48-3.76 1.48-1.52 0-2.773-.493-3.76-1.48-.973-.973-1.46-2.167-1.46-3.58 0-1.413.487-2.607 1.46-3.58zm7.5 3.58c0-1.067-.353-1.967-1.06-2.7-.706-.72-1.6-1.08-2.68-1.08s-1.973.36-2.68 1.08c-.706.733-1.06 1.633-1.06 2.7 0 1.053.354 1.947 1.06 2.68.707.72 1.6 1.08 2.68 1.08s1.974-.36 2.68-1.08c.707-.733 1.06-1.627 1.06-2.68zm6.002 4.82h-1.44v-9.66h1.44v1.44c.8-1.12 1.96-1.68 3.48-1.68.787 0 1.447.167 1.98.5.547.333.92.8 1.12 1.4a4.123 4.123 0 011.52-1.38c.654-.347 1.387-.52 2.2-.52 1.08 0 1.92.34 2.52 1.02.6.667.9 1.62.9 2.86V241h-1.44v-5.7c0-1.893-.8-2.84-2.4-2.84-.586 0-1.173.207-1.76.62-.573.4-1.006.887-1.3 1.46v.46c.014.173.02.307.02.4.014.093.02.167.02.22V241h-1.44v-5.7c0-1.893-.8-2.84-2.4-2.84-.56 0-1.133.2-1.72.6a3.95 3.95 0 00-1.3 1.4V241zm20.599-1.06c.667 0 1.3-.153 1.9-.46.6-.307 1.087-.693 1.46-1.16v-1.34c-.986-.64-2.033-.96-3.14-.96-.88 0-1.58.173-2.1.52-.506.347-.76.82-.76 1.42 0 .627.247 1.113.74 1.46.494.347 1.127.52 1.9.52zm-.4 1.3c-1.026 0-1.9-.28-2.62-.84-.706-.587-1.06-1.373-1.06-2.36 0-.973.374-1.753 1.12-2.34.747-.573 1.694-.86 2.84-.86 1.254 0 2.414.313 3.48.94v-.96c0-1.613-1.06-2.42-3.18-2.42-1.133 0-2.186.327-3.16.98v-1.4c.947-.587 2.1-.88 3.46-.88 1.32 0 2.367.313 3.14.94.787.613 1.18 1.493 1.18 2.64v3.98c0 .373.08.667.24.88.174.213.4.32.68.32.214 0 .4-.04.56-.12v1.12c-.213.147-.533.22-.96.22-.48 0-.886-.127-1.22-.38-.32-.267-.52-.653-.6-1.16-.973 1.133-2.273 1.7-3.9 1.7zm10.855-6.76V241h-1.44v-9.66h1.44v1.48c1.027-1.147 2.314-1.72 3.86-1.72 1.187 0 2.094.353 2.72 1.06.64.693.96 1.68.96 2.96V241h-1.44v-5.56c0-1.987-.913-2.98-2.74-2.98-.666 0-1.313.207-1.94.62-.64.413-1.113.88-1.42 1.4zm14.987-2.34h1.5l3.02 3.66v.74l-3.02 3.66h-1.5l3.28-4.04-3.28-4.02zm-4.62 0h1.54l3.02 3.66v.74l-3.02 3.66h-1.54l3.28-4.04-3.28-4.02zM242.324 279h-6.68v-14h6.06c1.24 0 2.22.307 2.94.92.72.6 1.08 1.427 1.08 2.48 0 .72-.167 1.34-.5 1.86-.32.52-.767.887-1.34 1.1.933.147 1.673.553 2.22 1.22.547.667.82 1.507.82 2.52 0 1.187-.413 2.133-1.24 2.84-.827.707-1.947 1.06-3.36 1.06zm-5.2-6.78v5.44h4.94c1.04 0 1.847-.24 2.42-.72s.86-1.153.86-2.02c0-.853-.287-1.513-.86-1.98-.573-.48-1.38-.72-2.42-.72h-4.94zm0-5.88v4.58h4.34c.893 0 1.58-.193 2.06-.58.493-.387.74-.947.74-1.68 0-.747-.247-1.32-.74-1.72-.48-.4-1.167-.6-2.06-.6h-4.34zM251.716 279h-1.44v-9.66h1.44v1.84c.36-.627.893-1.127 1.6-1.5a4.593 4.593 0 012.24-.58v1.46c-.44 0-.84.06-1.2.18a4 4 0 00-1.62.84c-.467.387-.807.827-1.02 1.32v6.1zm9.603-1.06c.666 0 1.3-.153 1.9-.46.6-.307 1.086-.693 1.46-1.16v-1.34c-.987-.64-2.034-.96-3.14-.96-.88 0-1.58.173-2.1.52-.507.347-.76.82-.76 1.42 0 .627.246 1.113.74 1.46.493.347 1.126.52 1.9.52zm-.4 1.3c-1.027 0-1.9-.28-2.62-.84-.707-.587-1.06-1.373-1.06-2.36 0-.973.373-1.753 1.12-2.34.746-.573 1.693-.86 2.84-.86 1.253 0 2.413.313 3.48.94v-.96c0-1.613-1.06-2.42-3.18-2.42-1.134 0-2.187.327-3.16.98v-1.4c.946-.587 2.1-.88 3.46-.88 1.32 0 2.366.313 3.14.94.786.613 1.18 1.493 1.18 2.64v3.98c0 .373.08.667.24.88.173.213.4.32.68.32.213 0 .4-.04.56-.12v1.12c-.214.147-.534.22-.96.22-.48 0-.887-.127-1.22-.38-.32-.267-.52-.653-.6-1.16-.974 1.133-2.274 1.7-3.9 1.7zm10.855-6.76V279h-1.44v-9.66h1.44v1.48c1.026-1.147 2.313-1.72 3.86-1.72 1.186 0 2.093.353 2.72 1.06.64.693.96 1.68.96 2.96V279h-1.44v-5.56c0-1.987-.914-2.98-2.74-2.98-.667 0-1.314.207-1.94.62-.64.413-1.114.88-1.42 1.4zm15.607 6.76c-1.48 0-2.707-.48-3.68-1.44-.974-.973-1.46-2.187-1.46-3.64 0-1.44.493-2.64 1.48-3.6.973-.973 2.2-1.46 3.68-1.46 1.12 0 2.093.233 2.92.7v1.34c-.867-.493-1.774-.74-2.72-.74-1.12 0-2.047.36-2.78 1.08-.734.693-1.1 1.593-1.1 2.7 0 1.08.366 1.98 1.1 2.7.746.707 1.673 1.06 2.78 1.06 1.066 0 2.033-.28 2.9-.84v1.32c-.907.547-1.947.82-3.12.82zm7.888-6.76V279h-1.44v-14h1.44v5.82c1.027-1.147 2.313-1.72 3.86-1.72 1.187 0 2.093.353 2.72 1.06.64.693.96 1.68.96 2.96V279h-1.44v-5.56c0-1.987-.913-2.98-2.74-2.98-.667 0-1.313.207-1.94.62-.64.413-1.113.88-1.42 1.4zM240.852 320h-1.48v-14h1.48v14zm11.125 0h-6.68v-14h6.06c1.24 0 2.22.307 2.94.92.72.6 1.08 1.427 1.08 2.48 0 .72-.167 1.34-.5 1.86-.32.52-.767.887-1.34 1.1.933.147 1.673.553 2.22 1.22.546.667.82 1.507.82 2.52 0 1.187-.414 2.133-1.24 2.84-.827.707-1.947 1.06-3.36 1.06zm-5.2-6.78v5.44h4.94c1.04 0 1.846-.24 2.42-.72.573-.48.86-1.153.86-2.02 0-.853-.287-1.513-.86-1.98-.574-.48-1.38-.72-2.42-.72h-4.94zm0-5.88v4.58h4.34c.893 0 1.58-.193 2.06-.58.493-.387.74-.947.74-1.68 0-.747-.247-1.32-.74-1.72-.48-.4-1.167-.6-2.06-.6h-4.34zm13.052 15.46h-1.5l8.42-18.64h1.5l-8.42 18.64zm12.454-2.8h-1.46v-14h1.46l5.06 6.78 5.06-6.78h1.44v14h-1.46v-11.76l-4.58 6.12h-.9l-4.62-6.12V320zm22.573 0h-6.68v-14h6.06c1.24 0 2.22.307 2.94.92.72.6 1.08 1.427 1.08 2.48 0 .72-.166 1.34-.5 1.86a2.59 2.59 0 01-1.34 1.1c.934.147 1.674.553 2.22 1.22.547.667.82 1.507.82 2.52 0 1.187-.413 2.133-1.24 2.84-.826.707-1.946 1.06-3.36 1.06zm-5.2-6.78v5.44h4.94c1.04 0 1.847-.24 2.42-.72.574-.48.86-1.153.86-2.02 0-.853-.286-1.513-.86-1.98-.573-.48-1.38-.72-2.42-.72h-4.94zm0-5.88v4.58h4.34c.894 0 1.58-.193 2.06-.58.494-.387.74-.947.74-1.68 0-.747-.246-1.32-.74-1.72-.48-.4-1.166-.6-2.06-.6h-4.34z" fill="#47423F"/><path d="M774.831 250.252l-35.84 19.698L703 213.309l43.535-15.119 28.296 52.062z" fill="#292C47"/><path d="M772.561 248.549l-33.515 18.423-33.662-52.968 40.713-14.141 26.464 48.686z" fill="#fff"/><path d="M784.832 238.644s-6.235-2.982-8.976-4.541c-2.737-1.564-9.781-3.705-10.349-4.213-.568-.508-20.877-1.76-22.11-2.823-1.233-1.063-2.431 2.49 2.833 3.646 5.264 1.151 12.588 3.971 12.99 6.027.402 2.059-5.408 2.548-5.994 4.243-.591 1.691.161 1.311.997 1.675.83.365 6.908-3.002 9.579-2.044 2.671.954 6.755-.368 8.801.334 2.046.698 12.006 4.049 12.006 4.049l.223-6.353zm-47.585 24.2s-5.24-4.716-7.776-6.691c-2.536-1.974-7.294-7.776-7.998-8.117-.7-.338-9.789-18.989-11.271-19.733-1.482-.749 1.404-3.262 4.536 1.248 3.141 4.515 8.649 10.321 10.74 9.894 2.099-.423.296-6.085 1.667-7.299 1.363-1.214 1.301-.357 1.964.287.667.644-.136 7.679 1.803 9.824 1.939 2.145 2.284 6.508 3.746 8.164 1.457 1.656 8.488 9.735 8.488 9.735l-5.899 2.688z" fill="#EEA886"/><path d="M850.107 514.951s1.138 7.87 1.279 9.053c.141 1.183 12.613-.698 12.613-.698l1.007-9.367s-13.337-.097-14.899 1.012z" fill="#424773"/><path d="M851.253 523.003s-3.951 4.739-7.771 6.806c-3.824 2.068-9.826 2.886-12.087 5.027-1.627 1.543-5.939 8.191 9.929 8.059 15.872-.136 23.525.939 25.22-1.613 1.705-2.548-2.456-18.811-2.456-18.811s-3.761 1.35-12.835.532z" fill="#292C47"/><path d="M760.765 514.952s1.135 7.869 1.273 9.052c.143 1.183 12.611-.698 12.611-.698l1.01-9.367s-13.336-.096-14.894 1.013z" fill="#424773"/><path d="M761.906 523.003s-3.946 4.74-7.77 6.807c-3.824 2.067-17.881 3.766-20.144 5.903-1.63 1.547-4.344 7.761 17.985 7.183 15.869-.416 23.522.938 25.221-1.614 1.704-2.548-2.458-18.81-2.458-18.81s-3.543 1.443-12.834.531zm77.873-210.237s11.721 18.612 10.848 35.441c-.878 16.825 4.244 35.197 6.004 52.774 1.966 19.597 9.994 65.987 10.282 76.47.293 10.48-1.244 43.951-1.244 43.951l-16.076.369s-13.496-81.102-16.993-89.379c-3.497-8.273-20.837-67.271-21.417-73.892-.581-6.62 28.596-45.734 28.596-45.734z" fill="#292C47"/><path d="M778.109 315.285s-8.831 46.119-9.994 56.416c-1.167 10.301-1.945 49.842-2.524 56.276-.589 6.439-3.887 84.232-7 93.793h20.553s15.774-56.552 15.774-83.309c0-26.758 12.186-58.169 20.054-75.824 7.868-17.655 25.877-18.073 30.708-50.827 0 0-61.022-6.915-67.571 3.475z" fill="#292C47"/><path d="M820.235 156.258s-15.729-5.874-22.975 6.097c-7.255 11.971-6.557 35.937 1.372 38.884 7.925 2.947 19.836 1.407 23.896-6.085 4.055-7.49 7.72-18.319 7.543-25.557-.176-7.236-5.706-11.25-9.836-13.339z" fill="#EEA886"/><path d="M800.334 201.789s.659 4.245-.427 6.339c-1.081 2.09 20.378 2.144 20.378 2.144s1.741-11.377 5.045-20.989c3.3-9.612-24.996 12.506-24.996 12.506z" fill="#EEA886"/><path d="M825.33 189.283s-1.483 2.443-7.523 1.494c-6.05-.947-13.419-8.989-15.946-9.873-2.526-.882-2.549-2.365-2.549-2.365l-1.58 2.309-2.68.169s2.447-7.194-1.245-10.128c-3.687-2.934 3.832-23.285 23.217-16.509 0 0 14.887 4.104 14.346 12.572-.541 8.467-2.708 18.113-6.04 22.331z" fill="#3A3F47"/><path d="M798.635 207.877s.065-3.998 1.879-4.383c1.81-.379 19.993-2.129 22.217-1.255v4.657s-4.286 2.633-24.096.981z" fill="#E2D2CA"/><path d="M799.711 175.46c.342-1.42 3.951-5.479 5.333-1.133 1.383 4.346-2.09 10.192-4.027 9.692-1.937-.501-2.166-4.957-1.306-8.559z" fill="#EEA886"/><path d="M726.473 255.092l.028-.004c-.125.055-.145.063-.028.004z" fill="#323657"/><path d="M852.997 357.112s-9.64 2.839-26.09 4.65c-16.446 1.811-57.537-.655-57.797-2.599-.26-1.942 8.841-72.347 8.326-75.974-.52-3.626-.799-16.545-.799-16.545-.202 3.541-3.812 18-8.162 25.885-1.574 2.846-6.849 11.771-9.395 9.742-12.311-9.828-31.37-46.867-32.578-47.181 1.011-.442 9.034-4.134 10.16-4.507.982-.33 9.866 9.072 15.242 14.901a571.28 571.28 0 014.106 4.487c1.554-3.494 7.214-25.519 8.971-33.144 3.965-17.19 3.359-17.903 3.359-17.903 12.032-3.642 30.292-11.046 30.292-11.046l24.097-.985s22.115 4.871 30.826 8.804c.828.372.833 19.729 3.1 24.806l-7.22 15.235s-4.177 30.178-5.039 43.597c-.399 6.163 8.601 57.777 8.601 57.777z" fill="#FFDF69"/><path d="M857.661 265.629c-.636 2.032-3.49 3.751-5.345 4.499a6.91 6.91 0 01-3.859.388l-.946-.175-16.51-3.063s-3.612-41.612 22.558-51.584c.69.225 9.879 31.303 4.102 49.935z" fill="#FFDF69"/><path d="M852.311 270.13a6.9 6.9 0 01-3.857.388l-.943-.175 1.627-21.265 3.173 21.052zm-96.3-.159l-2.018 8.548s-2.19-8.579-2.085-13.036a589.113 589.113 0 014.103 4.488z" fill="#AB9546"/><path d="M824.71 157.673s20.609-2.58.346 31.846l-.346-31.846z" fill="#3A3F47"/><path d="M719.568 210.271l-2.094-3.599 16.504-5.694 2.094 3.58-16.504 5.713z" fill="#292C47"/><path d="M151.555 534.772h2.82v-13.313s5.538 3.69 9.009 8.794c3.474 5.099 8.248 4.668 15.522 4.339 7.273-.325 6.948-3.255 6.298-7.379-.654-4.124-8.033-5.429-10.423-6.079-2.385-.65-7.81-9.991-9.553-12.267-2.377-3.102-3.634-6.079-3.634-6.079s-1.356-5.534-8.089 0c-6.729 5.538-4.774 16.176-4.014 17.152.76.979 2.064 14.832 2.064 14.832z" fill="#163342"/><path d="M165.773 521.134c2.495 1.63 9.008 0 9.008 0-1.844-2.389-13.187-18.346-13.187-18.346-6.894-4.015-9.616 1.512-9.616 1.512 2.812.862 11.3 15.205 13.795 16.834zm72.577-245.55s4.52.866 6.063-1.257c1.313-1.806 4.313-3.192 5.237-3.619 1.234-.576 4.367-3.744 5.108-2.193.736 1.547-4.916 5.475-5.938 6.533-1.022 1.061 5.542 1.531 6.678 2.561 1.132 1.03-.262 11.86-4.732 11.018-4.469-.846-8.683-4.696-9.498-4.688-.818.008-3.278-.486-3.278-.486l.36-7.869z" fill="#EEA886"/><path d="M254.495 277.168s13.511 3.49 14.216 4.473c.706.987.475 1.707-.803 1.433s-13.15-2.992-13.15-2.992 15.294 6.815 16.051 7.496c.439.4.075 1.822-.623 1.74-.698-.083-16.24-5.974-16.24-5.974s14.268 6.392 14.73 7.149c.404.666-.262 1.888-1.352 1.484-1.094-.399-14.672-5.585-14.672-5.585s10.092 5.307 10.104 6.176c.008.533-.251 1.779-2.811.329-2.561-1.453-8.967-4.238-8.967-4.238l3.517-11.491z" fill="#EEA886"/><path d="M114.984 535.681h1.735v-9.772s3.091 3.18 4.501 7.845c1.41 4.669 6.462 6.051 14.17 5.836 7.709-.215 7.814-3.259 7.164-7.818-.65-4.559-7.164-6.948-7.164-6.948-2.929-2.605-10.203-13.403-10.203-13.403s-4.669-1.25-8.331 1.707c-3.662 2.958-2.522 9.636-2.416 11.371.109 1.739.544 11.182.544 11.182z" fill="#163342"/><path d="M120.303 302.954s-9.185 11.939-11.676 26.106c-2.491 14.167 1.473 61.708 1.363 68.711-.11 7-6.619 24.421-5.319 37.609 1.304 13.192 6.443 78.833 6.443 78.833l14.073-2.793s-.814-66.922 0-72.456c.815-5.534 2.448-25.713 2.773-27.993.325-2.28 20.673-62.136 20.673-72.35 0-10.211-6.189-52.328-28.33-35.667z" fill="#1D3B54"/><path d="M166.435 307.624s15.087 57.585 16.881 65.563c1.79 7.975 4.383 14.555 4.383 17.943 0 7.861-2.918 20.481-2.918 20.481l-19.161 91.632h-18.248s10.168-54.972 10.442-65.723c.274-10.771 8.566-26.07 6.94-30.629-1.629-4.559-26.214-57.154-26.214-57.154s-18.617-58.829 27.895-42.113z" fill="#1D3B54"/><path d="M135.39 524.824l-10.203-13.403-8.331 1.708s2.241 6 6.291 10.512c4.798 5.347 12.243 1.183 12.243 1.183z" fill="#EEA886"/><path d="M160.203 209.764s6.22.588 10.92 5.625 9.114 13.066 10.344 15.753c1.23 2.687 18.487 27.578 19.384 28.138.893.556 9.569 3.454 15.315 5.389 8.871 2.985 26.649 9.447 26.649 9.447l-3.532 11.179s-33.43-10.94-41.804-13c-10.238-2.522-33.806-32.76-33.806-32.76s-17.57-20.594-3.47-29.771z" fill="#285173"/><path d="M149.35 205.399s8.057 3.808 10.853 4.364c2.797.56 13.654 14.66 15.558 19.811 1.899 5.146 0 12.87-3.917 21.934-3.917 9.063-.227 12.087-2.017 21.15-1.79 9.067-1.215 42.979-.878 48.016.337 5.033-52.382 12.667-62.789 3.49 0 0 7.046-30.563 15.389-39.286 1.801-1.884 1.613-14.456.38-17.59-1.23-3.133-15.107-26.524-15.107-26.524s-1.019-23.724 5.037-28.424c5.26-4.085 19.595-5.542 22.168-6.439 2.574-.893 10.063-1.285 15.323-.502z" fill="#FFBF55"/><path d="M153.196 196.102s-.243 2.221-.521 5.217c-.106 1.187-.223 2.495-.329 3.839-.321 4.018-.58 8.331-.423 10.54 0 0-8.374 8.393-17.896-9.792 0 0 4.003-7.501.991-17.708-3.016-10.215 18.178 7.904 18.178 7.904z" fill="#EEA886"/><path d="M176.63 254.854s2.017-13.408-.125-21.562c0 0 0 7.011-3.847 16.967l3.972 4.595z" fill="#183C59"/><path d="M127.592 207.195s5.762 17.01 21.574 15.761c15.816-1.253 7.496-14.367 7.496-14.367s-3.94-2.26-5.048-2.471c-1.109-.216-17.485-.419-17.485-.419l-6.537 1.496z" fill="#EEA886"/><path d="M156.662 208.589s8.284 22.913 8.284 46.265c0 23.348.666 61.387 3.557 73.396 2.894 12.013 11.123 49.159 11.123 49.159l6.451-3.337s-15.51-59.284-16.681-63.561c-1.171-4.273.889-49.437 2.001-53.217 1.113-3.784 5.84-20.614 5.108-25.287-.929-5.887-6.436-14.598-15.334-22.086l-4.509-1.332zm-25.944-2.111s5.15 16.485 7.755 37.593c2.608 21.111-8.006 119.105-15.123 141.348l-27.585-4.449s5.937-69.265 13.998-81.869c8.061-12.608 10.626-23.759 1.923-50.068-8.699-26.308 3.815-39.34 3.815-39.34s12.8-2.941 15.217-3.215z" fill="#285173"/><path d="M143.894 314.851s-1.52.007-2.19-.314c0 0-1.167-.677-2.025-1.112a6.814 6.814 0 00-.677-.302c-.682-.239-2.252-.552-3.729-1.578-1.477-1.026-6.713-7.09-6.713-7.09l2.471-3.76 1.814-3.85s10.994.709 12.482 1.504c.145.083.286.165.412.251 1.194.795 1.746 1.892 2.326 2.381.212.181 2.197 2.119 2.127 2.946-.094 1.147-.627 1.903-1.316 2.283 0 0-.286 2.237-1.391 3.279 0 0-.195 2.071-1.934 2.98 0 0-.435 2.08-1.657 2.382z" fill="#EEA886"/><path d="M121.231 209.764s-10.156-2.906-15.976 8.284c-5.82 11.19-5.793 15.964-6.569 21.432-.736 5.159-4.05 19.247-4.386 20.7-.333 1.457-7.842 18.805-4.399 24.868 3.459 6.094 38.612 24.037 38.388 25.38-.223 1.34 6.087-13.563 6.087-13.563s-14.222-7.932-16.552-10.372c-3.784-3.964-11.766-8.237-10.125-13.156 1.923-5.777 7.712-25.271 9.055-28.127 1.344-2.851 13.035-31.808 4.477-35.446z" fill="#285173"/><path d="M154.445 152.034s18.08 5.684 8.265 36.885c-9.816 31.204-34.507-3.616-31.926-22.628 2.585-19.008 23.661-14.257 23.661-14.257z" fill="#EEA987"/><path d="M164.559 170.239s-8.985 8.817-24.018 9.921c0 0-5.781 6.776-6.224 9.436 0 0-13.415-22.866 3.075-36.575 16.489-13.709 33.23 11.57 27.167 17.218z" fill="#0E2D3D"/><path d="M140.721 180.779c-.117-2.272-1.516-7.438-4.892-5.993-3.376 1.45.208 11.974 2.448 11.324 0 0 2.718.043 2.444-5.331z" fill="#EEA987"/><path d="M152.675 201.319c-.106 1.187-.223 2.495-.329 3.838 0 0-7.982-.478-13.317-12.349.349.521 6.196 9.11 13.646 8.511z" fill="#A77860"/><path d="M559.214 305.8h-19.6V266h-39.6v-19.4h39.6v-39.8h19.6v39.8h39.8V266h-39.8v39.8zm539.796-59.6h-99v-19.4h99v19.4zm0 45.6h-99v-19.4h99v19.4z" fill="#F70263"/></svg>