<svg width="2291" height="967" fill="none" xmlns="http://www.w3.org/2000/svg"><path d="M1766.99 833.032c-160.04-2.204-655.94-10.224-956.621-24.527-557.532-26.606-1014.457 6.578-716.19 50.905 83.308 12.394-160.04 80.829 430.376 101.357 518.245 18.017 1047.805-7.68 1304.065-18.483 256.26-10.804 374.89-32.616 430.09-42.442 48.47-8.645 67.72-59.119-491.72-66.81z" fill="#F0F0F0"/><path d="M363.476 858.211c-.912 1.267-.232 4.604-.232 4.604s16.048 2.086 21.196.722a25.254 25.254 0 005.721-3.032c.371-.241.989-1.605 1.345-1.877.649-.434.989.304 1.546-.097a18.374 18.374 0 002.443-1.909c1.376-8.359-.495-11.744-.495-11.744s-13.667-5.215-16.218-1.605c-6.015 8.439-13.296 12.178-15.306 14.938zM273 850.581L270.625 864h-6.169s-.709-1.894-1.773-1.894-2.067 1.894-3.3 1.894h-32.156s-.586-2.817.124-3.788a11.544 11.544 0 013.886-1.799c6.524-1.99 25.215-8.198 28.469-14.963 3.902-8.294 13.294 7.131 13.294 7.131z" fill="#163F59"/><path d="M2069.62 389.122s15.07-30.121 17.41-41.177c2.34-11.055 10.44-66.748 9.74-70.307-.71-3.558-13.49-12.214-11.91-15.261 1.58-3.047 13.78-3.053 16.57-2.791 2.8.261 8.38 1.947 10.81 4.01 2.42 2.062-2.7 68.789-4.23 83.158-1.52 14.369-20.25 58.614-20.25 58.614l-18.14-16.246z" fill="#E9D6B8"/><path d="M2089.7 260.642l-1.17-4.626c-2.84.007-5.67-.439-8.37-1.323l-4.87-3.593c-1.03-.445-2.48.674-2.48 1.793 0 1.12 1.38 3.222 2.08 3.773 0 0 8.71 7.179 11.75 9.356 1.52 1.082 6.3 3.995 6.3 3.995l2.77-5.201-6.01-4.174z" fill="#E9D6B8"/><path d="M1906.38 486.26c28.45 29.627 53.42 3.376 52.18 3.815.98-.414 7.21-.383 11.28-.544 16.94-.668 32.36-12.795 39.1-28.886 25.36-3.32 41.93-26.739 34.51-46.998 11.2-13.945 7.75-36.207-2.86-50.468-2.47-23.363-33-27.32-54.02-19.133-10.66 4.15-19.73 13.116-24.4 23.994-20.26-.488-37.56 14.409-42.07 35.15-31.52 8.781-42.75 52.824-13.72 83.07z" fill="#2A425B"/><path d="M2089.09 773.357a201.606 201.606 0 01-8.7 31.737c-.33.791-3.51 3.71-3.87 4.52 1.71 19.511 14.14 31.093 25.82 39.361-2.54-9.845-8.17-21.13-7.42-23.319a279.012 279.012 0 0115.28-39.374c-9.74-1.095-13.2-7-21.11-12.925z" fill="#E9D6B8"/><path d="M2053.53 541.217l-67.47 46.058s32.86 21.335 44.12 32.07c11.27 10.736 71.57 59.422 72.54 61.878.73 1.855-5.56 24.915-20.09 98.838 6.42 6.555 20.53 12.987 28.9 15.089 17.53-39.435 37.33-121.491 35.1-130.519-3.44-14.007-93.1-123.414-93.1-123.414z" fill="#2A425B"/><path d="M1882.67 633.908c1.99 1.936 15.16 27.575 20.17 41.303 7.33-4.619 11.75-10.117 19.96-13.221-6.46-9.357-19.07-31.86-20.11-37.216-2.48-12.708-5.35-14.582-5.35-14.582s-42.61 14.415-45.45 18.454c-2.84 4.038 22.82-2.499 30.78 5.262z" fill="#E9D6B8"/><path d="M1903.19 627.594c3.3 0-.29-14.928-1.04-18.373-.86-3.871-3.1-5.028-3.66-5.164-1.51-.377-48.87 15.64-56.88 21.397a9.745 9.745 0 00-1.66 1.899c-4.38 8.169 34.65 9.727 40.28 6.184 5-3.21 8.09-5.986 22.96-5.943z" fill="#003F1C"/><path d="M2065.79 555.625s-57.17-22.503-57.91-20.11c-5.91 19.059-24.34 12.912-35.26 46.479-4.58 14.056-8.19 51.166-11.27 78.685-2.12 18.911-5.09 34.068-5.09 34.068s-13.23-19.566-38.14-47.617c-1.93-2.17-22.04 16.944-22.04 16.944 39.67 78.642 68.61 89.761 74.93 87.621 28.67-9.684 66.68-141.508 66.62-141.496 4.65-9.084 28.16-54.574 28.16-54.574z" fill="#2A425B"/><path d="M1977.57 422.385s-68.25-.087-82.86-.928c-13.22-.766-65.67.569-67.72.334-2.05-.235-15.61-23.19-17.86-20.728-2.25 2.461 7.54 11.384 4.51 13.697-3.03 2.313-35.58-2.869-35.15-.464.81 4.502 19.8 3.927 19.8 6.104s-19.88-1.237-21.23 2.387c-1.34 3.624 19.11 1.472 19.92 3.092.82 1.62-18.96 4.558-16.93 7.909 1.09 1.856 17.52-3.042 17.44-.556-.08 2.486-12.07 8.132-10.6 10.111 1.48 1.978 9.41-6.073 16.37-6.184 6.96-.112 11.93-3.711 23.03-.681 5.48 1.503 47.32 6.617 82.68 9.635 36.25 3.092 65.96 4.081 65.96 4.081l2.64-27.809z" fill="#E9D6B8"/><path d="M2078.76 483.025c.9-10.952-1.24-31.804-1.75-35.434 3.32-11.379 10.37-35.651 12.9-40.419 0 0-11.88-22.825-24.04-22.67 0 0-12.42 27.989-22.03 32.998-.13-.038-3.39 1.447-4.83 1.44-9.28-.068-41.67-1.051-47.72-1.156l3.4 45.953c12.77 33.845 10.44 63.807 8.19 74.208-1.23 5.801 55.02 23.227 63.67 17.668.34-.192 10.38-50.443 12.21-72.588z" fill="#137F7F"/><path d="M2007.76 419.529c-5.98-2.857-49.23-1.429-49.23-1.429s-6.05 30.11-1.17 37.345c0 0 38.68 5.752 37.58 8.924l12.82-44.84z" fill="#137F7F"/><path d="M2015.29 398.46s4.5 15.812 5.31 22.645c.81 6.834 11.24 28.125 25.41 25.083 14.18-3.043-.61-22.924-3.39-29.189-2.77-6.264-10.28-31.538-10.28-31.538l-17.05 12.999z" fill="#E9D6B8"/><path d="M2035.49 395.812a1181.78 1181.78 0 01-3.15-10.376l-17.05 13.023s.83 2.907 1.86 6.765c8.99 1.225 15.16-3.085 18.34-9.412z" fill="#DFCAA8"/><path d="M2002.93 351.102a24.127 24.127 0 00-10.04 13.308c-2.61 9.048.86 32.238 20.29 37.568 19.44 5.331 27.56-13.197 23.36-27.531-4.2-14.335-13.14-32.423-33.61-23.345z" fill="#E9D6B8"/><path d="M2038.91 368.819c-.33 3.871-2.41 6.852-4.67 6.667-2.26-.186-3.82-3.476-3.5-7.347.32-3.871 2.41-6.858 4.67-6.666 2.26.191 3.79 3.494 3.5 7.346z" fill="#E9D6B8"/><path d="M2080.24 805.572c-1.23-3.092-13.57 6.715-16.48 8.7-3.28 2.233-3.52 4.744-3.44 5.313.21 1.502 31.63 40.195 40.83 45.526a5.32 5.32 0 003.23.309c5.11-1.966-3.2-33.61-9.9-39.862-4.35-4.038-8.74-6.178-14.24-19.986z" fill="#003F1C"/><path d="M2005.18 349.89s-3.13 25.972-11.44 30.777c-8.31 4.805-4.64 16.252-4.64 16.252s-8-26.591-1.49-35.249c6.51-8.657 17.57-11.78 17.57-11.78z" fill="#2A425B"/><path d="M1998.76 384.323c2.32 3.339 2.37 7.328.11 8.893-2.27 1.564-5.98.136-8.3-3.21-2.33-3.345-2.37-7.328-.12-8.899 2.26-1.57 5.99-.13 8.31 3.216z" fill="#E9D6B8"/><path d="M258.991 846.309s7.678 11.131 13.317.707c13.022-23.987 32.372-83.257 33.013-110.237.938-38.685-5.622-65.582-5.622-65.582l-41.218-13.449.51 188.561z" fill="#B91819"/><path d="M260.356 480.466l-1.875 177.266 37.469 20.683a255.264 255.264 0 0025.303-96.278c1.2-22.919 1.775-74.33-11.049-91.807-17.361-23.691-49.848-9.864-49.848-9.864z" fill="#B91819"/><path d="M274.017 480.466l6.132 61.358 16.655 66.553 17.723 62.213 63.298 172.63 18.43 1.496s-2.335-129.621-24.81-167.402c-11.903-20.009-11.886-64.399-17.377-112.193-1.003-8.615 3.879-28.065 3.09-35.923a128.005 128.005 0 00-19.038-54.174l-64.103 5.442z" fill="#D22C2D"/><path d="M280.326 328.212s16.858 14.066-22.204 62.846c-39.062 48.78-49 37.487-49 37.487l-14.864-7.141-16.692-45.883 21.032-8.078 2.79 2.45s4.742-.189 6.61-3.842c1.867-3.653 15.23-16.924 32.867-47.524 8.078-14.122 36.234 7.008 39.461 9.685z" fill="#D05556"/><path d="M280.326 328.212c-2.503-2.141-15.059-4.67-13.447-3.301 0 0 16.868 14.053-22.194 62.833-21.808 27.232-34.537 35.728-41.532 37.941l5.976 2.921s9.928 11.307 49.001-37.487c39.072-48.794 22.196-62.907 22.196-62.907z" fill="#CE3031"/><path d="M181.545 377.715s-45.497 5.504-55.707-41.229c-3.056-13.899-4.742.189-5.347 13.95-.605 13.761 12.962 50.398 39.341 62.204 26.378 11.807 37.247 14.087 45.748 6.589 8.501-7.497-24.035-41.514-24.035-41.514z" fill="#E9D6B8"/><path d="M261.206 481.806l78.868-6.406 16.951-110.957s11.644-67.291-28.019-62.589c-39.663 4.703-85.236 11.044-85.236 11.044s-28.871 58.99 17.436 168.908z" fill="#D05557"/><path d="M459.062 378.253l66.807-34.189s7.864 3.477 2.683 6.254c-.622.341-1.787-2.235-3.959.223-8.732 10.071-24.207 34.831-35.985 42.672a168.911 168.911 0 01-32.428 16.386l2.882-31.346z" fill="#E9D6B8"/><path d="M284.098 322.222s7.763 65.663-23.697 125.35c-2.472 4.695-13.797 5.339-13.797 5.339l-.974-14.69s30.463-62.582 38.468-115.999z" fill="#7DCCD0"/><path d="M285.081 320.772l3.732 12.933 19.643-24.615-1.86-3.929-21.515 15.611zm-67.37 60.134l-7.39-9.849-3.199-3.779a8.927 8.927 0 01-5.83 2.628l6.877 6.311 6.75 8.92 5.112 14.32-2.32-18.551z" fill="#CE3031"/><path d="M387.842 330.684l68.044 41.613.99 6.044 5.583-1.966-1.394 32.72-27.075 8.61-91.916-58.7s-17.874-18.811-14.459-51.276c2.5-23.518 54.514 19.776 60.227 22.955z" fill="#D05556"/><path d="M443.558 407.227s8.719-20.627 12.884-31.533l.43 2.623 5.583-1.966-.58 11.313-3.119 15.967-6.424 1.2-.138-4.921-8.636 7.317z" fill="#CE3031"/><path d="M308.574 289.443a84.31 84.31 0 01-2.039 14.69c-1.764 6.146-23.09 16.694-26.412 18.006-3.323 1.312-1.56-17.466-2.139-21.6-.411-3.145 1.742-2.451-1.339-6.641l31.929-4.455z" fill="#E9D6B8"/><path d="M269.085 285.577a6.546 6.546 0 006.431 6.677l29.468.61a6.559 6.559 0 006.679-6.42l.898-43.669a6.558 6.558 0 00-3.923-6.131 6.564 6.564 0 00-2.496-.548l-29.467-.597a6.564 6.564 0 00-6.693 6.409l-.897 43.669z" fill="#E9D6B8"/><path d="M269.731 250.917s-3.874-4.308-4.538-6.925c-.345-1.313 1.026-6.309 4.347-8.102 3.321-1.793 5.973 1.761 5.973 1.761s-5.288 2.805-5.59 3.894c-.302 1.089-.192 9.372-.192 9.372z" fill="#163F59"/><path d="M315.159 262.513s4.803-16.682 4.081-21.625c-.721-4.943-1.193-8.352-7.181-9.012-8.974-1.01-9.119.899-13.431-1.945-4.311-2.843-12.029-9.537-14.716-10.259-4.49-1.19-11.561.168-12.007 8.636a9.36 9.36 0 01-4.193 7.958c.335.771 1.965 1.521 4.803 3.014 8.09 4.262 13.025 5.171 19.296 3.646 6.27-1.526 18.073-4.838 19.342-.151 1.268 4.686.432 18.848.947 19.954.515 1.105 1.95.559 3.059-.216z" fill="#194866"/><path d="M305.61 275.395a2.193 2.193 0 002.127 2.191l6.376.128a2.177 2.177 0 002.189-2.139l.24-11.651a2.193 2.193 0 00-2.127-2.191l-6.376-.128a2.194 2.194 0 00-2.19 2.139l-.239 11.651zm-37.972-.768a2.18 2.18 0 002.139 2.19l6.364.129a2.18 2.18 0 002.189-2.139l.229-11.637a2.193 2.193 0 00-2.127-2.191l-6.376-.128a2.201 2.201 0 00-2.189 2.139l-.229 11.637z" fill="#E9D6B8"/><path d="M312.265 266.25s-.352 17.197-.478 22.931c-.1 5.175-2.394 16.502-31.674 15.917-17.334-.359-16.421-13.086-16.351-17.268.077-3.184 3.875-12.646 5.738-14.446l-.144 7.094a13.845 13.845 0 0111.98-6.669c13.285.272 16.152 8.108 22.051 8.088 4.47-.005 7.998-7.283 8.878-15.647z" fill="#194866"/><path d="M286.569 285.199l-9.087-.18a2.18 2.18 0 01-2.139-2.189l.035-1.24 13.46.287-.035 1.239a2.176 2.176 0 01-2.234 2.083zm-158.95 59.129s2.267-15.114-.468-18.46c-2.735-3.347-13.439-14.737-13.439-14.737l-2.978-2.659s-4.479 1.821 2.814 9.509c7.292 7.688 1.875 5.929 1.875 5.929l-8.977-4.245-11.379-4.288-4.822-2.591s-2.69-1.685-3.582-1.519c-2.714.491-1.323 2.532-1.323 2.532l18.012 11.754-19.323-6.113s-2.586-.327-3.209.952c-.622 1.279.202 1.542.202 1.542l20.407 12.317-10.243-1.943s-2.505-.265-3.195.974c-.69 1.239-1.013 1.689-1.013 1.689l38.633 13.263 2.008-3.906z" fill="#E9D6B8"/><path d="M101.223 328.818l-13.771-3.419s-3.014-1.136-4.688-.72a1.96 1.96 0 00-1.267.811 1.941 1.941 0 00-.311 1.471l20.335 7.337-.298-5.48zm416.998 24.263s-5.086-14.411-3.037-18.186c2.049-3.775 10.402-17.02 10.402-17.02l2.425-3.17s4.745.971-.963 9.807-.721 6.182-.721 6.182l8.011-5.865 10.374-6.299 4.252-3.458s2.273-2.163 3.222-2.176c2.75-.027 1.774 2.237 1.774 2.237l-15.463 14.954 17.784-9.59s2.461-.817 3.315.331c.855 1.148.078 1.533.078 1.533l-17.666 15.959 9.698-3.826s2.445-.753 3.328.329a41.659 41.659 0 001.243 1.48l-35.486 20.281-2.57-3.503z" fill="#E9D6B8"/><path d="M541.203 332.831l12.888-5.961s2.743-1.681 4.47-1.599c.259-.003.516.045.756.141a1.976 1.976 0 011.075 1.057c.1.238.152.494.154.753l-18.59 11.079-.753-5.47z" fill="#E9D6B8"/><path d="M276.76 313.243l-1.579 17.728 8.844-10.061-7.265-7.667z" fill="#CE3031"/><path d="M702.681 855.919c-5.007 10.121-11.223 17.242-13.903 15.925-2.679-1.317-.781-10.596 4.226-20.702 5.007-10.106 11.209-17.242 13.888-15.925 2.68 1.317.781 10.596-4.211 20.702z" fill="#B91819"/><path d="M790.761 634.433c-2.787-1.715-12.326 8.911-16.384 18.374-7.947 18.375-9.984 28.634-13.077 49-4.884 32.247-13.153 83.467-15.879 105.271-2.465 19.646-10.381 42.875 1.44 39.598-.184-26.965 12.249-67.634 19.416-88.995 24.56-73.024 33.089-117.996 24.484-123.248zm-70.406 16.202a666.364 666.364 0 013.2-15.313c3.66-7.304 6.845-11.147 9.28-10.581 9.187 2.175 17.563 43.855-11.393 142.849-1.454 4.976-20.886 91.276-20.748 89.163 3.354-55.446 4.15-129.404 19.661-206.118z" fill="#E9D6B8"/><path d="M702.987 852.428c-2.557 7.932-7.993 13.644-10.718 12.327-2.726-1.317-1.684-8.101 2.327-15.389 5.084-9.188 7.014-11.867 7.458-18.467.444-6.201 10.58-8.284.933 21.529z" fill="#E9D6B8"/><path d="M762.993 846.005c1.148 4.824-13.628 2.879-17.456 1.623a44.433 44.433 0 00-5.988-1.531h-.459a2.953 2.953 0 000 .352c0 2.634-1.164 6.125 3.062 6.125h26.491c21.559-.046-5.742-6.676-5.65-6.569z" fill="#B91819"/><path d="M812.074 339.815l-5.681-39.276c-7.212-7.656-16.445-11.638-25.832-10.275-18.129 2.619-29.966 24.331-26.475 48.51 3.491 24.178 21.024 41.634 39.139 39.015 12.678-1.837 22.279-13.031 25.709-27.853a14.334 14.334 0 01-6.86-10.121z" fill="#163F59"/><path d="M740.103 362.493c-.689 6.278 5.926 12.157 14.776 13.122l20.182 2.236c8.85.964 16.599-3.323 17.272-9.601l6.309-57.268c.704-6.278-5.926-12.143-14.761-13.123l-20.197-2.22c-8.851-.98-16.583 3.323-17.272 9.601l-6.309 57.253z" fill="#163F59"/><path d="M792.763 387.069c11.974 5.191 17.961 3.568 8.819 7.426-4.394 5.39-60.59-2.113-63.652-9.08-.506-1.179 22.309-4.593 22.432-5.39 1.409-10.121 1.944-18.665-.873-29.981a1.67 1.67 0 011.531-1.531c4.257.122 8.545.153 12.832.275.704 0 9.065 1.884 7.212 5.896-.949 10.978-.965 26.903 11.699 32.385z" fill="#E9D6B8"/><path d="M796.575 353.858c.199-.398.383-.812.567-1.21 0-.122.107-.245.169-.382.229-.506.444-1.011.658-1.532a3.57 3.57 0 01.153-.428c.138-.398.291-.812.429-1.225.138-.414.168-.444.23-.674.061-.23.229-.704.336-1.072.108-.367.153-.49.215-.72.137-.474.26-.949.382-1.424.123-.474.184-.719.261-1.087.077-.367.168-.658.23-.98.061-.321.137-.674.214-1.01.076-.337.107-.582.168-.889.062-.306.092-.474.138-.704.689-4.073-.689-23.259-3.92-32.416a2.924 2.924 0 00-3.231-1.792c-9.876 1.088-39.965-.306-32.156 27.119 0 0 .445 2.419.69 3.506a1.59 1.59 0 000 .276c.245 1.087.505 2.159.796 3.2v.214c.306 1.057.612 2.098.949 3.063v.107c4.318 12.924 11.852 21.437 19.906 20.901 4.594-.321 8.743-3.69 11.821-9.095a.531.531 0 000-.138c.23-.398.46-.827.689-1.256l.306-.352zm-164.547 22.968s-2.082.995-2.97-.582c-1.439-2.633-1.96-8.621-2.052-10.718-.107-2.389 1.286-13.705 1.286-13.705a13.307 13.307 0 011.761 8.1c-.781 6.661 1.975 16.905 1.975 16.905z" fill="#E9D6B8"/><path d="M631.833 375.293c-1.914-3.858-.919-8.743 1.623-14.209 2.419-5.191.658-8.438.658-8.438a68.717 68.717 0 00-4.823 11.623 21.096 21.096 0 00-1.531 7.472c.367 7.518 8.973 13.505 4.073 3.552zm225.702 103.605c20.319 16.583 108.059 39.413 108.059 39.413s18.91-4.762-92.226-51.204c-5.558-2.327-20.856 7.718-15.833 11.791zm113.357 43.778s7.013 2.618 9.187 5.711c1.532 2.159 6.707 13.46 6.707 13.46a14.67 14.67 0 01-6.293-6.508 49.586 49.586 0 00-9.601-12.663z" fill="#E9D6B8"/><path d="M976.8 528.8c4.594 1.195 7.87 5.513 10.55 11.515 2.557 5.696 6.492 6.6 6.492 6.6a75.405 75.405 0 00-6.125-12.25 111.547 111.547 0 00-4.409-6.952c-5.053-7.442-18.207-1.96-6.508 1.087z" fill="#E9D6B8"/><path d="M963.939 519.764c.766 3.201 5.834 6.86 5.681 8.912a22.318 22.318 0 01-2.389 9.019c6.876-.812 6.738-10.719 9.356-13.996 2.618-3.277-14.608-12.234-12.648-3.935z" fill="#E9D6B8"/><path d="M928.784 503.441c11.958 3.062 25.755 6.339 31.482 10.718 8.161 6.125 9.677 12.924 16.537 14.7.741.238 1.467.52 2.174.843 1.914.781 4.226 1.301 4.992 1.73.766.429 3.063 2.113 2.466 1.102-5.651-9.034-12.878-18.573-15.145-19.798-4.593-2.512-31.007-15.313-41.771-18.084-12.143-3.139-16.89 4.67-.735 8.789z" fill="#E9D6B8"/><path d="M976.999 527.789s.658-2.465 2.603-2.052c3.185.705 8.498 4.594 10.336 6.018 1.837 1.424 10.392 10.872 10.392 10.872a14.66 14.66 0 01-7.957-4.349c-4.916-5.421-15.374-10.489-15.374-10.489zm-64.127-41.726c-7.87 3.185-30.778-3.063-30.839 1.454 21.039 12.587 84.876 22.969 84.876 22.969l-54.037-24.423zm-200.543-63.302c-10.933 8.07-20.595 36.459-28.114 54.451-4.226 10.137-2.664 17.777-2.664 17.777s3.705 23.765 32.018-41.006c7.089-16.231 2.863-34.284-1.24-31.222z" fill="#E9D6B8"/><path d="M690.525 493.902c-.138-23.933-42.966-86.974-42.966-86.974s-22.509-19.002 18.558 73.637c12.342 27.822 24.454 19.232 24.408 13.337z" fill="#E9D6B8"/><path d="M631.892 370.607l-1.822 1.164-1.225 7.319s3.308 12.97 6.309 17.425c3.001 4.456 7.549 24.5 8.758 26.69 1.21 2.189 13.046 2.113 13.046 2.113s-9.493-19.018-12.617-26.873c-3.124-7.855-3.736-20.595-4.838-23.719-1.899-5.344-2.558-8.146-2.558-8.146s-2.71 1.409-.229 9.953c.658 2.251-2.205 1.776-2.205 1.776l-2.619-7.702z" fill="#E9D6B8"/><path d="M732.816 463.676l74.999-.628 9.172-85.779-88.995 8.452 4.824 77.955z" fill="#D05556"/><path d="M812.072 719.207c-36.888 5.773-43.549.873-85.933-5.176-3.996 0-21.177-41.19-9.095-150.06 2.496-22.417 19.447-40.424 15.573-101.29l75.611-1.532c-9.937 55.461 49.934 64.052 3.844 258.058zm44.312-242.087l-42.323-63.071-10.856-28.42a11.036 11.036 0 014.425-5.757l1.44-.934c5.558-3.568 13.275-1.164 17.241 5.39l48.479 79.93-18.406 12.862zm-153.489 7.503l25.802-54.91 10.381-38.281a11.869 11.869 0 00-5.604-4.333l-1.531-.612a11.957 11.957 0 00-15.389 6.997l-31.053 75.643 17.394 15.496z" fill="#D05556"/><path d="M631.387 379.888s-2.067-6.523-1.025-9.8c.735-2.282 5.941-12.434 5.941-12.434.5 2.792.103 5.671-1.133 8.223a45.178 45.178 0 00-3.783 14.011zm3.064-1.532s1.898.444 2.526-.153a10.065 10.065 0 01-.184 1.791c-.122 1.133.506 8.805.506 8.805a64.097 64.097 0 00-2.312-6.937 31.773 31.773 0 01-1.532-5.144 9.477 9.477 0 010-1.118l.996 2.756z" fill="#E9D6B8"/><path d="M636.717 376.535c-1.669-5.743-.995-8.254-.367-9.31.383 1.362 1.057 3.537 2.113 6.553.531 2.009.9 4.057 1.103 6.125.092.536-1.945 1.041-2.726 5.666-.153.827-1.684-4.181-1.945-7.228.766.016 2.328-.076 1.822-1.806z" fill="#E9D6B8"/><path d="M778.016 346.2a14.334 14.334 0 01-6.86-10.137l-5.681-39.276c-.352-.352-.719-.673-1.072-1.01h-.689c-8.85-.98-16.583 3.323-17.272 9.601l-6.309 57.252c-.536 4.854 3.308 9.417 9.188 11.714a22.25 22.25 0 003.062-.23c12.602-1.975 22.203-13.168 25.633-27.914z" fill="#163F59"/><path d="M1207.09 495.356l5.74 74.17s20.03-39.745 22.18-67.646c2.15-27.9-28.48-7.636-27.92-6.524zm-132.65-42.286l36.43 59.213s-54.12-26.021-51.37-50.239c2.75-24.217 14.94-8.974 14.94-8.974zm92.2-140.537c-.71 8.463-5.26 15.799-10.04 16.144h-13.62c-4.78-.345-9.34-7.681-10.04-16.144-1.11-13.95-2.23-27.905-3.35-41.866-.74-8.373 2.52-25.164 9.77-30.064a18.042 18.042 0 0120.85 0c7.24 4.96 10.52 21.752 9.78 30.064-1.12 13.951-2.24 27.906-3.35 41.866z" fill="#E9D6B8"/><path d="M1209.97 334s15.76 11.628 24.89 82.267c9.12 70.639 3.32 67.942 3.32 67.942l-1.65 16.109-23.25 2.682-13.28-60.809L1209.97 334z" fill="#EFB419"/><path d="M1213 334.644L1173.07 316l-20.61 6.375-25.48-3.014-28.07 12.585s-12.68 12.6-.9 53.067c11.78 40.468 10.01 107.295 10.01 107.295L1209.95 499s-6.9-141.9 3.05-164.356z" fill="#FFCF50"/><path d="M1113.66 333.772s-15.87-9.019-31.74 10.764c-27.06 33.627-40.16 75.342-42.97 83.429-2.81 8.088-6.52 32.29 4.68 39.46l11.2 7.171 23.36-14.341-3.75-7.185-1.86-4.51s13.08-28.712 27.06-54.718c13.98-26.006 14.02-60.07 14.02-60.07z" fill="#FFCF50"/><path d="M1145.02 321.506l-10.39 11.349-10.38-14.972 6.23-9.23 14.54 12.853zm22.82-11.967l-19.98 12.883 9.44 11.334 15.59-17.693-5.05-6.524z" fill="#D0D0D0"/><path d="M1151.79 230.681V221h20.91c3.37 0 6.61 1.341 9 3.729a12.725 12.725 0 013.73 9.003v9.681h-20.91c-3.38 0-6.62-1.341-9-3.729a12.724 12.724 0 01-3.73-9.003z" fill="#163F59"/><path d="M1131.75 289.413c0 3.004 1.2 5.883 3.32 8.005a11.348 11.348 0 008.01 3.315h25.69a11.315 11.315 0 0011.26-11.32v-51.38c0-1.488-.29-2.962-.85-4.337a11.396 11.396 0 00-2.46-3.677 11.334 11.334 0 00-3.67-2.458c-1.38-.57-2.85-.863-4.34-.863h-25.69c-3 0-5.89 1.194-8.01 3.32a11.316 11.316 0 00-3.32 8.015l.06 51.38z" fill="#E9D6B8"/><path d="M1150.97 221a12.762 12.762 0 00-10.64 5.757h-4.37a9.849 9.849 0 00-9.86 9.862v24.382h6.94v-9.906a6.95 6.95 0 012.03-4.911 6.967 6.967 0 014.92-2.034h20.95c3.38 0 6.62-1.342 9-3.729a12.725 12.725 0 003.73-9.003V221h-22.7z" fill="#163F59"/><path d="M1135.22 267.33c0-1.594-.63-3.124-1.76-4.252a6.006 6.006 0 00-4.25-1.761h-.5c-1.59 0-3.12.634-4.25 1.761a6.004 6.004 0 00-1.76 4.252v7.336c0 1.595.63 3.124 1.76 4.252a6.02 6.02 0 004.25 1.761h.5a6.007 6.007 0 003.3-.97 5.955 5.955 0 002.23-2.623l.48-9.756z" fill="#E9D6B8"/><path d="M1149.14 536.575s31.67 112.187 57.04 152.339c25.38 40.151 34.23-12.026 34.23-12.026l-31.57-186.552-73.65-.466s1.86 3.773 13.95 46.705z" fill="#084949"/><path d="M1177.13 490.261s-21.15 183.982-24.26 193.287c-10.27 31.282-33.75 11.079-37.37.646-3.62-10.432-9.67-87.579-8.45-143.875 1.22-56.296 1.19-52.613 1.19-52.613l68.89 2.555z" fill="#137F7F"/><path d="M1112.48 851.624c-1.1 1.323-.3 4.811-.3 4.811s19.09 2.119 25.22.676c2.4-.791 4.69-1.86 6.84-3.187.42-.255 1.19-1.713 1.59-1.969.77-.451 1.18.316 1.82-.105a19.755 19.755 0 002.93-2.014c1.67-8.764-.55-12.282-.55-12.282s-16.27-5.397-19.3-1.638c-7.17 8.839-15.86 12.792-18.25 15.708zm121.66-7.893l2.71 14.236h14.51s.79-2.014 2.04-2.014c1.02 0 2.36 2.014 3.76 2.014h36.89s.66-3.006-.14-4.028a14.383 14.383 0 00-4.51-1.91c-7.51-2.089-28.92-8.673-32.65-15.814-4.46-8.643-22.61 7.516-22.61 7.516z" fill="#161711"/><path d="M1158.25 605.093s-4.7 69.795-4.03 106.73c.5 27.825.56 81.175-3.68 126.648-.26 2.781-22.95.676-22.95.676s-15.25-173.985-17.67-202.486c-2.42-28.502 30.2-51.997 48.33-31.568z" fill="#137F7F"/><path d="M1233.56 685.283s-6.4 1.398-26.59 3.157c-9.18.781 26.91 161.027 26.91 161.027l28.56-12.327-21.51-161.403-7.37 9.546z" fill="#084949"/><path d="M1634.01 851.451s-7.29 10.715-12.65.68c-12.37-23.093-30.74-80.152-31.35-106.125-.89-37.243 5.34-63.137 5.34-63.137l39.14-12.947-.48 181.529z" fill="#163F59"/><path d="M1632.71 499.25l1.78 170.655-35.58 19.911a248.42 248.42 0 01-24.03-92.687c-1.14-22.064-1.69-71.557 10.49-88.382 16.49-22.808 47.34-9.497 47.34-9.497z" fill="#163F59"/><path d="M1619.74 499.251l-5.83 59.069-15.81 64.071-16.83 59.893-60.12 166.191-17.5 1.441s2.22-124.787 23.56-161.159c11.31-19.262 11.29-61.997 16.51-108.009.95-8.294-3.69-27.018-2.94-34.583a124.364 124.364 0 0118.08-52.153l60.88 5.239z" fill="#194866"/><path d="M1633.29 501.847l-77.1-1.725-32.92-111.761s-21.36-67.568 19.57-68.439c40.92-.87 88.09-.855 88.09-.855s33.8 63.027 2.36 182.78z" fill="#E2E3E4"/><path d="M1494.95 469.192l48.86 60.241s-1.75 8.784-5.69 4.115c-.46-.554 1.91-2.327-1.07-3.973-11.99-6.632-40.18-16.856-50.59-27.065a175.287 175.287 0 01-23.42-29.234l31.91-4.084z" fill="#E9D6B8"/><path d="M1591.4 334.751s35.91 62.71 25.68 132.099c-.79 5.46-7.21 9.37-7.21 9.37l-8.84-7.803s.72-78.538-9.63-133.666z" fill="#0C6D6A"/><path d="M1590.12 333.09l-1.95 13.849-23.44-22.507v-3.451l25.39 12.109zm7.38-8.928l4.11 18.012-10.4-9.085 6.29-8.927zm69.53 61.145l6.11-11.207 2.7-4.336a9.151 9.151 0 006.24 1.868l-6.09 7.47-5.57 10.146-3.12 15.479-.27-19.42z" fill="#D0D0D0"/><path d="M1526.99 386.382l-26.81 78.284-5.81 2.343 3.24 5.207-33.07 5.825-14.54-25.578 38.63-106.252s14.93-22.333 48.18-26.037c24.17-2.69-7.88 59.703-9.82 66.208z" fill="#E2E3E4"/><path d="M1462.52 459.886s22.55 4.289 34.35 6.093l-2.53 1.029 3.23 5.207-11.46 1.916-16.67.38-2.59-6.253 4.87-1.234-9.2-7.138z" fill="#D0D0D0"/><path d="M1561.83 304.235a90.608 90.608 0 004.15 14.831c2.67 6.062 25.81 13.849 29.37 14.72 3.56.87-.89-18.186-.89-22.523 0-3.308-2.11-2.279.42-7.028h-33.05z" fill="#E9D6B8"/><path d="M1601.36 294.581a6.857 6.857 0 01-1.18 5.068 6.727 6.727 0 01-4.38 2.734l-29.83 4.844c-.88.144-1.77.113-2.62-.092a6.715 6.715 0 01-2.39-1.104 6.787 6.787 0 01-1.78-1.947 6.922 6.922 0 01-.91-2.492l-7.09-44.808a6.855 6.855 0 011.2-5.064 6.693 6.693 0 014.37-2.724l29.82-4.859a6.672 6.672 0 012.63.098 6.698 6.698 0 014.16 3.059c.46.763.77 1.61.91 2.494l7.09 44.793z" fill="#E9D6B8"/><path d="M1595.79 259.014s3.31-5.001 3.62-7.771c-.23-1.65-.85-3.217-1.82-4.562a10.022 10.022 0 00-3.74-3.146c-3.62-1.424-5.81 2.659-5.81 2.659s5.76 2.121 6.25 3.166c.48 1.044 1.5 9.654 1.5 9.654z" fill="#163F59"/><path d="M1551.34 277.44s-7.25-16.477-7.22-21.653c.03-5.175 0-8.768 6.01-10.319 8.98-2.327 9.37-.38 13.37-3.894 4-3.514 10.85-11.554 13.49-12.662 4.39-1.868 11.76-1.488 13.41 7.154.2 1.615.8 3.154 1.74 4.473a9.605 9.605 0 003.65 3.077c-.24.839-1.78 1.852-4.45 3.783-7.62 5.555-12.49 7.201-19.08 6.552-6.59-.649-19.04-2.358-19.66 2.612-.62 4.97 2.23 19.468 1.86 20.671-.38 1.203-1.89.87-3.12.206z" fill="#194866"/><path d="M1562.86 289.358c.09.594-.06 1.199-.41 1.685-.34.486-.87.814-1.45.911l-6.45 1.045a2.205 2.205 0 01-1.67-.392 2.455 2.455 0 01-.59-.647 2.427 2.427 0 01-.3-.829l-1.91-11.95c-.09-.596.06-1.203.41-1.692.34-.488.87-.819 1.45-.92l6.45-1.044c.59-.092 1.18.055 1.66.407.48.353.81.883.9 1.476l1.91 11.95zm38.42-6.254c.05.294.04.594-.02.883-.07.29-.19.564-.36.805-.18.242-.39.446-.64.602-.25.156-.53.26-.82.306l-6.45 1.045a2.196 2.196 0 01-2.26-1.05 2.26 2.26 0 01-.3-.834l-1.89-11.934c-.09-.596.05-1.206.4-1.695.35-.49.87-.82 1.46-.917l6.43-1.044c.59-.092 1.19.054 1.67.407.48.352.81.882.91 1.476l1.87 11.95z" fill="#E9D6B8"/><path d="M1554.74 280.905s2.79 17.632 3.73 23.52c.84 5.318 4.78 16.635 34.35 11.824 17.55-2.849 14.83-15.828 14.16-20.102-.51-3.276-5.71-12.472-7.81-14.039l1.16 7.265a14.198 14.198 0 00-5.88-4.321 14.01 14.01 0 00-7.22-.807c-13.46 2.184-15.25 10.652-21.2 11.491-4.53.617-9.15-6.363-11.29-14.831z" fill="#194866"/><path d="M1583.56 296.716l9.21-1.583a2.242 2.242 0 001.46-.911c.35-.486.49-1.091.4-1.685l-.2-1.313-13.63 2.215.2 1.314a2.232 2.232 0 00.87 1.526 2.24 2.24 0 001.69.437zm183.09 43.703s-4.44-15.226-2.14-18.993c2.29-3.767 11.54-17.094 11.54-17.094l2.65-3.166s4.81 1.266-1.56 10.13c-6.37 8.864-1.06 6.331-1.06 6.331l8.51-5.65 10.93-6.047 4.52-3.355s2.46-2.121 3.42-2.089c2.81.126 1.69 2.421 1.69 2.421l-16.61 14.688 18.73-9.005s2.58-.713 3.38.522c.79 1.234 0 1.583 0 1.583l-18.97 15.622 10.13-3.467s2.53-.633 3.37.538c.84 1.172 1.2 1.583 1.2 1.583l-37.33 19.199-2.4-3.751z" fill="#E9D6B8"/><path d="M1769.76 338.703l13.49-5.508a11.104 11.104 0 014.69-1.409c.26.01.52.073.76.185a2.018 2.018 0 011.05 1.148c.09.252.13.52.12.788l-19.62 10.478-.49-5.682z" fill="#E9D6B8"/><path d="M1606.18 340.167s-15.12 16.889 31.45 61.476c46.58 44.586 55.05 31.528 55.05 31.528l14.06-9.496 10.43-49.62-22.47-5.287-2.45 2.928s-4.83.475-7.26-3.007c-2.44-3.482-17.85-15.226-40.08-44.191-10.25-13.343-35.84 12.393-38.73 15.669z" fill="#E2E3E4"/><path d="M1713.46 376.903s46.97-.871 50.72-50.428c1.11-14.735 4.82-.474 7.38 13.581 2.56 14.055-6.01 53.814-31.11 69.642-25.11 15.828-35.81 19.832-45.5 13.343-9.7-6.49 18.51-46.138 18.51-46.138z" fill="#E9D6B8"/><path d="M1536.14 860.994c.92 1.25.23 4.542.23 4.542s-16.21 2.058-21.41.713a25.661 25.661 0 01-5.77-2.992c-.38-.238-1-1.583-1.36-1.852-.66-.427-1 .301-1.56-.095-.88-.557-1.7-1.187-2.47-1.883-1.39-8.247.5-11.586.5-11.586s13.8-5.144 16.38-1.583c6.07 8.325 13.43 12.013 15.46 14.736zm85.28-10.635l2.4 13.342h6.25s.72-1.883 1.79-1.883c1.08 0 2.1 1.883 3.35 1.883h32.55s.59-2.801-.12-3.767c-1.2-.834-2.53-1.44-3.94-1.788-6.6-1.979-25.53-8.151-28.82-14.878-3.95-8.247-13.46 7.091-13.46 7.091z" fill="#163F59"/><path d="M270.549 95.775c0 50.684-41.089 91.773-91.774 91.773-50.686 0-91.775-41.089-91.775-91.773C87 45.088 128.089 4 178.775 4c50.685 0 91.774 41.088 91.774 91.775z" fill="#FAD012"/><path d="M126.964 66.57l13.123 7.446-12.948 7.338a5.808 5.808 0 105.728 10.106l21.858-12.39a5.798 5.798 0 002.944-5.05 5.803 5.803 0 00-2.942-5.053l-22.031-12.5a5.808 5.808 0 00-5.732 10.102zm103.639 14.873l-12.972-7.532 12.801-7.427a5.74 5.74 0 10-5.761-9.93l-21.358 12.388a5.729 5.729 0 00-2.86 4.965 5.729 5.729 0 002.858 4.965l21.525 12.5a5.742 5.742 0 005.767-9.93zm-80.23 51.885l-.089-.027.089.028v-.001l-.089-.027.089.028c.091-.342 1.866-5.865 6.272-10.985 2.202-2.569 5.028-5.044 8.638-6.883 3.616-1.836 8.024-3.076 13.638-3.082 5.802.006 10.295 1.317 13.943 3.233 2.732 1.441 4.989 3.245 6.857 5.169 2.8 2.883 4.708 6.047 5.883 8.463a30.895 30.895 0 011.244 2.911c.125.344.211.605.263.768l.052.168.006.024 2.022-.578-2.027.559.005.019 2.022-.578-2.027.559a4.667 4.667 0 108.997-2.481c-.116-.371-1.922-6.951-7.472-13.782-2.777-3.405-6.528-6.869-11.47-9.477-4.938-2.611-11.056-4.317-18.298-4.311-7.246-.006-13.385 1.715-18.345 4.343-3.724 1.965-6.785 4.42-9.265 6.964-3.722 3.821-6.152 7.839-7.686 10.931-1.532 3.093-2.165 5.272-2.226 5.481a4.667 4.667 0 008.974 2.564z" fill="#392F17"/><path d="M248.914 215.023l-57.471-48.66 19.197-16.192 38.274 64.852zm482.591 10.317l-51.699-54.753 20.88-13.956 30.819 68.709z" fill="#FAD012"/><path d="M768.548 95.775c0 50.684-41.089 91.773-91.775 91.773-50.685 0-91.773-41.089-91.773-91.773C585 45.088 626.088 4 676.773 4c50.686 0 91.775 41.088 91.775 91.775z" fill="#FAD012"/><path d="M634.996 96.405c-3.667 0-6.667-3-6.667-6.666V66.628c0-3.667 3-6.667 6.667-6.667s6.667 3 6.667 6.667v23.11c0 3.667-3 6.667-6.667 6.667zm83.556 0c-3.667 0-6.667-3-6.667-6.666V66.628c0-3.667 3-6.667 6.667-6.667s6.667 3 6.667 6.667v23.11c0 3.667-3 6.667-6.667 6.667zm-70.179 36.923l-.088-.025.087.026.001-.001-.088-.025.087.026c.092-.342 1.867-5.865 6.273-10.985 2.2-2.569 5.027-5.044 8.636-6.883 3.616-1.836 8.026-3.076 13.64-3.082 5.8.006 10.295 1.317 13.943 3.233 2.732 1.441 4.989 3.245 6.857 5.169 2.8 2.883 4.707 6.047 5.882 8.463a30.895 30.895 0 011.244 2.911c.125.344.212.605.264.768l.05.168.008.024 2.022-.578-2.027.559.005.019 2.022-.578-2.027.559a4.667 4.667 0 108.997-2.481c-.116-.371-1.922-6.951-7.472-13.782-2.778-3.405-6.528-6.869-11.472-9.477-4.936-2.611-11.056-4.317-18.296-4.311-7.246-.006-13.385 1.715-18.345 4.343-3.724 1.965-6.785 4.42-9.265 6.964-3.722 3.821-6.152 7.839-7.686 10.931-1.532 3.093-2.166 5.272-2.226 5.481a4.666 4.666 0 108.974 2.564z" fill="#392F17"/><path d="M1242.55 95.773c0 50.686-41.09 91.775-91.78 91.775-50.68 0-91.77-41.089-91.77-91.775C1059 45.088 1100.09 4 1150.77 4c50.69 0 91.78 41.088 91.78 91.773z" fill="#FAD012"/><path d="M1109 101.429c-3.67 0-6.67-3-6.67-6.667v-16c0-3.667 3-6.667 6.67-6.667 3.66 0 6.66 3 6.66 6.667v16c0 3.667-3 6.667-6.66 6.667zm83.55 0c-3.66 0-6.66-3-6.66-6.667v-16c0-3.667 3-6.667 6.66-6.667 3.67 0 6.67 3 6.67 6.667v16c0 3.667-3 6.667-6.67 6.667zm-94.33 24.562h105.11a4 4 0 100-8h-105.11a4 4 0 100 8z" fill="#392F17"/><path d="M1791.55 95.775c0 50.684-41.09 91.773-91.78 91.773-50.68 0-91.77-41.089-91.77-91.773C1608 45.088 1649.09 4 1699.77 4c50.69 0 91.78 41.088 91.78 91.775z" fill="#FAD012"/><path d="M1658 97.107c-3.67 0-6.67-3-6.67-6.666v-16c0-3.667 3-6.667 6.67-6.667 3.66 0 6.66 3 6.66 6.667v16c0 3.666-3 6.666-6.66 6.666zm83.55 0c-3.66 0-6.66-3-6.66-6.666v-16c0-3.667 3-6.667 6.66-6.667 3.67 0 6.67 3 6.67 6.667v16c0 3.666-3 6.666-6.67 6.666zm-13.01 21.5l.09.024-.09-.026v.002l.09.024-.09-.026c-.09.342-1.86 5.865-6.27 10.985-2.2 2.569-5.03 5.044-8.64 6.884-3.61 1.835-8.02 3.075-13.64 3.081-5.8-.006-10.29-1.317-13.94-3.233-2.73-1.441-4.99-3.245-6.86-5.169-2.8-2.883-4.7-6.047-5.88-8.463a29.884 29.884 0 01-1.24-2.911c-.13-.344-.22-.605-.27-.768l-.05-.168v-.024l-2.03.578 2.03-.559v-.019l-2.03.578 2.03-.559a4.662 4.662 0 00-5.74-3.257 4.674 4.674 0 00-3.26 5.738c.12.371 1.93 6.951 7.48 13.782 2.77 3.405 6.52 6.869 11.47 9.477 4.93 2.611 11.05 4.317 18.29 4.311 7.25.006 13.39-1.715 18.35-4.343 3.72-1.965 6.78-4.419 9.26-6.964 3.73-3.821 6.16-7.839 7.69-10.931 1.53-3.093 2.16-5.272 2.23-5.481.7-2.477-.73-5.06-3.21-5.768a4.668 4.668 0 00-5.77 3.205z" fill="#392F17"/><path d="M1639.54 228.56l34.97-66.689 19.99 15.21-54.96 51.479zm507 3l34.97-66.689 19.99 15.21-54.96 51.479z" fill="#FAD012"/><path d="M2290.55 91.775c0 50.684-41.09 91.773-91.78 91.773-50.68 0-91.77-41.089-91.77-91.773C2107 41.088 2148.09 0 2198.77 0c50.69 0 91.78 41.088 91.78 91.775z" fill="#FAD012"/><path d="M2165.68 105.445c-1.46.006-2.46 2.019-1.91 3.86 2.87 9.564 12.46 33.644 36.25 33.644 23.77 0 33.57-24.246 36.54-33.896.56-1.849-.45-3.886-1.92-3.88l-68.96.272zm66.31-20.789l-3.6.094h3.61l-.01-.094-3.6.094h3.61c-.01-.001 0-.749.16-1.806.12-.795.33-1.758.66-2.692a10.1 10.1 0 01.95-1.986c.57-.906 1.24-1.609 2.12-2.126.89-.511 2.05-.908 3.94-.918 1.1 0 1.96.146 2.65.356 1.21.378 1.97.927 2.65 1.671.5.559.92 1.245 1.27 2.005.52 1.136.83 2.426.99 3.456.15 1.031.16 1.796.16 1.884v.023l1.78.012-1.78-.023v.011l1.78.012-1.78-.023a4.671 4.671 0 004.61 4.727 4.663 4.663 0 004.72-4.605l.01-.134c-.01-.454-.03-1.693-.29-3.373-.2-1.259-.53-2.768-1.12-4.387a18.648 18.648 0 00-1.84-3.748c-1.2-1.884-2.94-3.746-5.3-5.088-2.35-1.35-5.26-2.117-8.51-2.109-1.97-.001-3.8.272-5.47.795a15.055 15.055 0 00-6.94 4.521c-1.26 1.437-2.15 2.98-2.81 4.46-.98 2.225-1.44 4.324-1.69 5.95-.24 1.627-.26 2.79-.26 3.135v.15a4.67 4.67 0 004.79 4.544 4.66 4.66 0 004.54-4.788zm-82 0l-3.6.094h3.61l-.01-.094-3.6.094h3.61c-.01-.001 0-.749.16-1.806.12-.795.33-1.758.66-2.692a10.1 10.1 0 01.95-1.986c.57-.906 1.24-1.609 2.12-2.126.89-.511 2.05-.908 3.94-.918 1.1 0 1.96.146 2.65.356 1.21.378 1.97.927 2.65 1.671.5.559.92 1.245 1.27 2.005.52 1.136.83 2.426.99 3.456.15 1.031.16 1.796.16 1.884v.023l1.78.012-1.78-.023v.011l1.78.012-1.78-.023a4.671 4.671 0 004.61 4.727 4.663 4.663 0 004.72-4.605l.01-.134c-.01-.454-.03-1.693-.29-3.373-.2-1.259-.53-2.768-1.12-4.387a18.648 18.648 0 00-1.84-3.748c-1.2-1.884-2.94-3.746-5.3-5.088-2.35-1.35-5.26-2.117-8.51-2.109-1.97-.001-3.8.272-5.47.795a15.055 15.055 0 00-6.94 4.521c-1.26 1.437-2.15 2.98-2.81 4.46-.98 2.225-1.44 4.324-1.69 5.95-.24 1.627-.26 2.79-.26 3.135v.15a4.67 4.67 0 004.79 4.544 4.66 4.66 0 004.54-4.788z" fill="#392F17"/><path d="M2134.52 118.914c-7.38 0-13.36-5.979-13.36-13.355s5.98-13.353 13.36-13.353c7.37 0 13.35 5.977 13.35 13.353 0 7.376-5.98 13.355-13.35 13.355zm128.51 0c-7.38 0-13.35-5.979-13.35-13.355s5.97-13.353 13.35-13.353 13.35 5.977 13.35 13.353c0 7.376-5.97 13.355-13.35 13.355z" fill="#F6894E"/></svg>