<svg width="436" height="224" fill="none" xmlns="http://www.w3.org/2000/svg"><path d="M271.724 142.603a1.528 1.528 0 00-.234.03c-1.118.056-4.683-.49-4.683-.49s1.123 4.743 1.74 4.924c1.671.494 3.078 1.971 4.484 2.311a1.727 1.727 0 002.104-1.351c.029-.102.051-.206.059-.313a1.698 1.698 0 00-.18-.955l-1.662-3.227a1.728 1.728 0 00-1.628-.929" fill="#E7B2B6"/><path d="M266.005 141.442l2.894.606.589 5.436-3.578-.016.095-6.026" fill="#D0D6EC"/><path d="M266.004 141.444l-.095 6.024s-5.116.198-10.245-.007c-4.506-.177-9.023-.667-10.085-1.875-1.211-1.378-2.083-11.98-2.631-21.571-.48-8.387-.711-16.001-.711-16.001s3.866 1.814 4.554 2.281c2.928 1.988 7.271 27.502 7.271 27.502s10.53 3.089 11.942 3.647z" fill="#DFE5F4"/><path d="M282.183 204.755l1.146 4.378 11.9.005s-2.974-5.784-13.046-4.383z" fill="#221E50"/><path d="M231.215 206.669s-.641.57-2.16.57c-1.721 0-2.159-.57-2.159-.57v-24.206h4.319v24.206z" fill="#B9C0D6"/><path d="M254.975 172.627l-.007.055a22.907 22.907 0 01-.619 2.998c-.495 1.782-1.143 3.233-1.746 4.251-2.338 3.953-6.773 8.35-17.409 9.786a52.064 52.064 0 01-4.932.423c-.069.005-.138.006-.21.008-3.094-.077-6.555-.645-10.416-1.564-7.923-1.882-13.086-5.76-16.349-10.476l-.002-.002c-.278-.4-.54-.807-.792-1.219a25.994 25.994 0 01-1.698-3.311c-1.813-4.242-2.508-8.816-2.572-13.058.061-4.026.683-7.658 1.378-10.243.539-2.015 1.378-3.931 2.518-5.618.299-.443.619-.873.963-1.283a14.26 14.26 0 013.908-3.297c3.785-2.16 16.235-4.314 26.781 1.261 19.41 10.261 22.333 22.936 21.204 31.289z" fill="#B7451D"/><path d="M246.657 209.138h-35.824c-.836 0-1.52-.685-1.52-1.523 0-.837.684-1.522 1.52-1.522h35.824c.836 0 1.52.685 1.52 1.522 0 .838-.684 1.523-1.52 1.523" fill="#B9C0D6"/><path d="M254.967 175.735c-.435 2.613-1.45 4.709-2.366 5.983-2.338 3.259-6.773 6.889-17.408 8.075a66.566 66.566 0 01-4.724.342c-.068.002-.139.005-.208.005-.068.005-.139.006-.211.008-3.092-.077-6.554-.645-10.414-1.564-7.925-1.882-13.086-5.76-16.351-10.476l-.002-.002a24.84 24.84 0 01-.791-1.219c6.011-1.437 18.852-3.956 31.61-2.926 6.92.558 14.098 1.176 20.245 1.719l.62.055z" fill="#C5592D"/><path d="M211.749 136.305c-.192 2.714.217 1.566.209 3.601a34.61 34.61 0 01-2.004-.732c-.686-.28-1.14-.523-1.237-.704 0 0 1.271-1.895 2.473-4.098.544-.999 1.076-2.06 1.469-3.037-.541 1.349-.726 2.383-.91 4.97zm30.488-28.291s-3.319-.93-3.457-.942c.154.238-1.412 2.006-4.704 2.472-.008.001-.689.628-1.148.652-4.169.215-8.933-1.997-9.423-3.329-10.846 2.126-11.581 3.132-11.869 3.427-8.173 8.43-12.928 28.562-13.782 32.432a.985.985 0 00.426 1.037c1.219.79 4.383 2.615 9.222 3.83 1.428.36 3.001.667 4.714.877.57 4.872 1.84 7.755 3.049 9.269 0 0 5.384-.076 11.254-.3 6.67-.257 14.968-.475 15.718-1.227 1.054-1.06 4.857-26.914 0-48.198" fill="#DFE5F4"/><path d="M234.789 101.296s.91 7.477 1.013 8.534l-6.04.934-3.966-3.291s1.954-3.684 1.56-9.155l7.433 2.978" fill="#D98789"/><path d="M226.518 157.439c-5.869.224-11.145 2.567-11.145 2.567-1.209-1.514-2.587-6.664-3.156-11.536a38.373 38.373 0 01-4.716-.877c.884-3.062 1.797-6.182 2.454-8.419.541.223 1.229.471 2.003.732.008-2.035-.402-.887-.209-3.601.184-2.587.908-6.777 2.26-7.028 1.355-.251 1.69 6.148 2.303 12.019.301 2.902.673 5.68 1.274 7.48.215.645.459 1.165.74 1.519 2.52 3.174 8.877 5.199 8.192 7.144" fill="#D0D6EC"/><path d="M235.54 101.879s-8.651.396-8.814-5.005c-.164-5.402-1.39-8.989 4.126-9.47 5.518-.481 6.653 1.547 7.146 3.337.492 1.79-.212 10.896-2.458 11.138z" fill="#E7B2B6"/><path d="M226.725 96.873s.647-7.207 8.355-6.949c7.707.259 4.373-7.045-2.251-8.12 0 0 .691 2.573-3.473 2.98-8.745.852-3.407 10.946-2.631 12.09" fill="#555CA5"/><path d="M230.848 110.274l3.973-.423s.498.11.401.737c-.094.627-1.404 2.324-1.897 2.409-.495.085-3.553-1.57-2.477-2.723z" fill="#C5592D"/><path d="M216.439 162.076s5.005 13.05 21.364 13.362c25.691.488 25.689.585 25.689.585s-1.959 12.458 16.268 29.366h10.263l-19.702-48.117-33.529-1.265s-23.438-.529-25.283 2.71c-.401.704 4.93 3.359 4.93 3.359" fill="#333383"/><path d="M235.193 189.718c0 .061-2.092.361-3.236.412a26.264 26.264 0 01-1.535.025c-.122-.004-.246-.005-.371-.008-3.092-.077-6.554-.645-10.415-1.564-10.35-2.459-15.988-8.322-18.842-15.007-1.813-4.243-2.506-8.817-2.571-13.058.061-4.026.683-7.659 1.377-10.243.539-2.016 1.378-3.931 2.518-5.618.225-.334.463-.661.715-.975.081-.104.163-.205.248-.307 7.131 7.471 28.682 31.227 32.112 46.343" fill="#E09139"/><path d="M234.654 189.718c0 .061-2.093.361-3.238.412a22.664 22.664 0 01-.993.025l-.372-.008c-3.092-.077-6.553-.645-10.415-1.563-10.349-2.46-15.987-8.323-18.842-15.009-1.813-4.242-2.506-8.816-2.571-13.058.061-4.025.683-7.658 1.377-10.242.539-2.016 1.377-3.931 2.517-5.618.227-.334.464-.661.716-.975 7.41 7.795 28.435 31.12 31.821 46.036" fill="#D5652C"/><path d="M235.332 105.808s-.661 2.957-2.405 4.388l2.689 3.504s3.258-3.863 3.163-6.628c0 0-2.584-1.162-3.447-1.264" fill="#D0D6EC"/><path d="M235.332 105.808s-.502 2.784-2.247 4.214l2.584 3.186s2.836-3.301 3.11-6.136c0 0-2.584-1.161-3.447-1.264z" fill="#DFE5F4"/><path d="M226.284 105.808s4.111 3.904 6.801 4.215l-1.841 4.603s-8.01-4.754-8.035-7.602c0 0 2.205-1.19 3.075-1.216z" fill="#D0D6EC"/><path d="M226.576 105.652s3.819 4.06 6.509 4.371l-1.49 4.242s-8.068-4.55-8.091-7.398c0 0 2.205-1.19 3.072-1.215zm-19.333 32.63s11.953 3.272 13.051 4.578l-.094 6.024s-12.495.792-21.527-4.872a.74.74 0 01-.004-1.252c2.179-1.388 7.414-4.627 8.574-4.478" fill="#DFE5F4"/><path d="M255.664 147.461c-4.506-.177-9.272-.487-10.085-1.875-2.723-4.653-.045-16.506-.593-26.097 4.317 8.802 1.119 15.82 1.944 20.417.818 4.558 4.903 6.626 8.734 7.555" fill="#D0D6EC"/><path d="M260.865 169.605c-.462-.064-.963-.287-1.449-.503-.451-.202-.919-.409-1.315-.467-5.098-.745-9.719-1.656-13.796-2.461-1.069-.21-2.115-.416-3.143-.614a2058.857 2058.857 0 00-14.594-2.778c.053.007 5.356.672 14.645 2.464 1.028.198 2.074.405 3.144.616 4.074.803 8.689 1.714 13.78 2.457.444.065.931.284 1.404.493.465.207.945.42 1.356.477 1.342.186 1.312.502-.032.316m-3.333-27.21l-.117-.335-.03-.078-.02-.06-.032-.09-.025-.072-.017-.047.241.682" fill="#2B295E"/><path d="M257.292 141.712l.016.047.027.073.03.09.022.059c.008.025.017.052.028.079l.119.334.058.165-.3-.847zm-.001.001l.017.047-.017-.047zm24.029 59.883l-.088.023c-3.141-5.618-6.526-12.4-9.665-19.603-.482-1.1-.967-2.237-1.446-3.375a308.56 308.56 0 01-1.569-3.788c-.138-.337-.202-.745-.25-1.162v-.001a36.3 36.3 0 00.27-.411c0 .01 0 .021.004.031.053.505.107 1.027.266 1.414a324.242 324.242 0 001.565 3.784c.482 1.137.968 2.271 1.446 3.371 3.135 7.194 6.329 14.108 9.467 19.717" fill="#2B295E"/><path d="M232.71 112.531s-.753 7.119-.887 9.502c-.376 6.701-.514 26.842-.514 26.842s-.199 1.758.973 3.16c1.172 1.403 2.394 2.364 2.394 2.364s1.72-1.508 2.402-4.338c.453-1.884-.636-17.698-1.734-28.233-.553-5.294-1.465-9.441-1.465-9.441s-.898-.157-1.169.144" fill="#D5652C"/><path d="M229.329 147.83l-1.493-2.901a1.552 1.552 0 00-1.464-.835c-.07.004-4.42-.413-4.42-.413s2.302 5.792 2.723 6.226a.806.806 0 00.573.247c1.014.007 4.004-.069 4.189-1.185a1.523 1.523 0 00-.108-1.139z" fill="#E7B2B6"/><path d="M220.296 142.859l2.895.605.588 5.437-3.58-.017.097-6.025" fill="#D0D6EC"/><path d="M118.868 151.567a.882.882 0 00-.108.072c-.531.294-2.398.878-2.398.878s.146 1.979.188 2.011l5.509-.241-.241-.889a.933.933 0 00-.36-.59l-1.577-1.176a.936.936 0 00-1.013-.065m-5.302 42.416l.822 6.489 3.367.104 2.176-9.394-6.365 2.801" fill="#E7B2B6"/><path d="M114.065 197.869l-.499 3.607 9.479 4.371s-.463-5.387-8.98-7.978" fill="#D35C2B"/><path d="M134.263 203.542l4.574 4.669 2.743-1.957-3.939-8.8-3.378 6.088z" fill="#E7B2B6"/><path d="M136.877 206.324l1.051 3.486h10.435s-2.67-4.701-11.486-3.486z" fill="#D35C2B"/><path d="M90.08 206.44s-.658.584-2.216.584c-1.767 0-2.217-.584-2.217-.584v-24.854h4.433v24.854z" fill="#B9C0D6"/><path d="M114.476 171.487c-.004.017-.005.037-.008.056-.446 3.251-1.489 5.861-2.428 7.445-2.401 4.056-6.955 8.571-17.874 10.047a57.173 57.173 0 01-4.85.425c-.142.006-.285.013-.43.015-3.175-.08-6.729-.662-10.693-1.604-8.135-1.934-13.435-5.915-16.786-10.755l-.002-.001a26.257 26.257 0 01-2.557-4.653c-1.861-4.357-2.573-9.053-2.64-13.407.062-4.133.701-7.864 1.413-10.517.554-2.069 1.416-4.036 2.587-5.767.306-.456.636-.896.989-1.317a14.661 14.661 0 014.012-3.386c3.886-2.219 16.668-4.43 27.495 1.295 19.93 10.533 22.93 23.548 21.772 32.124" fill="#B7451D"/><path d="M105.936 208.973H69.155c-.858 0-1.56-.703-1.56-1.562 0-.861.702-1.564 1.56-1.564h36.781c.858 0 1.56.703 1.56 1.564 0 .859-.702 1.562-1.56 1.562z" fill="#B9C0D6"/><path d="M114.468 171.543c-.446 3.251-1.489 5.861-2.428 7.445-2.401 4.056-6.955 8.571-17.874 10.047a57.166 57.166 0 01-4.85.425c-.142.006-.285.013-.43.015-3.175-.08-6.729-.662-10.693-1.604-8.135-1.934-13.435-5.915-16.786-10.755l-.002-.001a26.22 26.22 0 01-1.93-3.804c5.57-1.692 19.619-5.339 33.57-3.976 7.345.718 14.973 1.518 21.423 2.208z" fill="#C5592D"/><path d="M100.208 127.748c-2.477-2.459-2.158-21.581-2.187-22.749-.082-3.378-1.356-4.788-1.356-4.788-.653-1.789-11.296-2.698-13.966 4.125-1.713 4.379-6.093 12.891-6.093 12.891-17.904 24.888-10.79 37.166-10.79 37.166l.765-.084c-.263-.815-.47-1.967-.202-2.455l.73 2.437 13.225-1.704c.1-2.546 1.121-6.517 1.121-6.517l.063 6.74 1.775.094c-.703-14.211 2.31-21.189 3.203-22.919-.766 7.901 3.051 20.784 3.051 20.784l.547-.123-1.24-6.441 1.586 6.363 1.537-.35a84.292 84.292 0 01-.675-2.509l.675 2.509c3.295-3.592 9.331-3.274 9.331-3.274 3.28-4.619-1.1-19.196-1.1-19.196" fill="#D35C2B"/><path d="M92.613 113.09s-1.026 5.973 2.685 8.791l-3.535 6.217-6.5-7.655s.813-3.718.645-9.399l6.705 2.046" fill="#D98789"/><path d="M94.797 115.855s-8.054 1.474-8.892-3.565c-.839-5.039-2.443-8.243 2.664-9.397 5.106-1.152 6.428.603 7.116 2.217.689 1.613 1.185 10.232-.888 10.745" fill="#E7B2B6"/><path d="M96.165 102.336s-10.031 7.744-9.145 13.465c.832 5.374-.747 5.852-1.92 6.365-3.029 1.323-6.998-1.095-8.572-1.017-1.12.055 1.757-1.294 3.586-3.743 4.867-6.511 4.393-15.309 5.364-15.943 6.618-4.316 10.687.873 10.687.873" fill="#D35C2B"/><path d="M116.771 154.695s-5.873-.305-9.443-1.31c-6.874-1.936-7.885-2.831-8.896-9.53-1.054-6.988-.826-13.991-.525-18.113.034-.486.07-.931.105-1.331.131-1.496.25-2.367.25-2.367s4.01 1.131 4.758 5.841c.885 5.578 1.49 16.062 2.093 17.982.344 1.093 11.249 6.65 11.249 6.65l.315 1.679.094.499" fill="#DFE5F4"/><path d="M116.771 154.695s-5.873-.305-9.443-1.31c-6.874-1.936-7.885-2.831-8.896-9.53-1.054-6.988-.826-13.991-.525-18.113 1.067.465 2.118 2.004 2.625 5.883 1.244 9.503-.933 15.424 2.955 18.15 3.242 2.274 10.269 3.873 13.19 4.421l.094.499" fill="#D0D6EC"/><path d="M74.841 145.043a18.193 18.193 0 00-2.695-.558c5.614-7.861 6.137-8.347 6.19-8.411l.003.009c.069.265 1.584 6.084 1.584 8.708 0 .464.025 1.195-.075 1.792-1.106-.499-3.22-1.027-5.007-1.54zm25.544-15.676a3.629 3.629 0 01-.178-.338 5.57 5.57 0 01-.468-1.672c-.288-2.228-1.478-5.313-1.478-5.313l-4.448-1.791c.06.096 2.177 3.466-3.234 3.425-2.098-.015-2.975-1.917-3.577-3.335l-6.636 1.57s-3.667.681-4.51 2.077c-6.184 10.253-9.834 19.703-10.585 22.702-.12.479.132 1.256.529 1.552 1.114.83 1.952 1.042 5.495 1.687a24.16 24.16 0 001.723.252c2.528.282 4.542.111 5.838-.1-1.18 3.911-2.918 8.022-2.918 8.022s.527.364 1.95.746c.34.092 13.99 2.326 14.44 2.414 1.722.341 7.745-3.016 7.745-3.016s-3.908-4.812-.785-14.999c1.541-5.026 2.592-11.323 1.097-13.883" fill="#DFE5F4"/><path d="M85.263 150.372c-.75 2.805-2.33 6.648-4.857 7.894-.592.292-1.49.476-2.518.585-1.423-.382-1.95-.746-1.95-.746s4.273-8.676 3.984-13.314c-.162-2.618-1.514-8.443-1.583-8.708.332-.632.778-1.21 1.302-1.187 1.14.052 6.373 12.672 5.622 15.476" fill="#D0D6EC"/><path d="M75.938 158.105c-.48 1.006-6.803 12.403 3.694 15.441 10.496 3.038 33.199 2.217 33.199 2.217s2.408 9.532 5.378 13.722c4.769 6.729 13.271 14.275 13.271 14.275h9.734s-16.838-36.538-20.259-39.031c-2.503-1.824-15.092-5.051-22.052-6.132-1.695-.264-11.955-.575-14.701-.684-4.304-.169-7.998-.366-8.264.192" fill="#555CA5"/><path d="M98.904 158.596s21.424-6.557 25.515-4.203c7.268 4.186-5.172 41.403-5.172 41.403l-7.169-1.151s-1.342-10.066-.271-16.825c.622-3.925 2.883-14.056 2.883-14.056s-5.473-2.226-7.362-2.774c-2.372-.689-8.424-2.394-8.424-2.394" fill="#333383"/><path d="M94.166 189.035c0 .061-2.149.37-3.323.423a25.643 25.643 0 01-1.576.025l-.38-.008c-3.176-.08-6.73-.662-10.694-1.604-10.626-2.526-16.415-8.547-19.345-15.409-1.861-4.357-2.573-9.053-2.64-13.407.062-4.133.701-7.864 1.413-10.517.554-2.069 1.416-4.036 2.587-5.767a14.676 14.676 0 01.989-1.317c7.322 7.672 29.447 32.061 32.97 47.581" fill="#E09139"/><path d="M93.611 189.035c0 .061-2.15.37-3.323.423a21.927 21.927 0 01-1.02.025l-.382-.008c-3.175-.08-6.729-.662-10.693-1.604-10.626-2.526-16.415-8.547-19.345-15.409-1.861-4.357-2.573-9.053-2.64-13.407.062-4.133.701-7.864 1.413-10.517.554-2.069 1.416-4.036 2.587-5.767.23-.343.474-.679.734-1.003 7.606 8.004 29.193 31.953 32.67 47.267" fill="#D5652C"/><path d="M82.703 147.655a1.096 1.096 0 00-.128-.013c-.597-.109-1.716-.671-1.716-.671l-.36 1.962c.005.051-.23.668.03 1.017 1.652 2.221 2.254 1.924 2.254 1.924l1.052-.932a.93.93 0 00.093-.684l-.48-1.911a.938.938 0 00-.745-.692" fill="#E7B2B6"/><path d="M117.154 171.918c-.474-.066-.989-.296-1.488-.518-.464-.206-.942-.419-1.35-.479-5.234-.764-9.978-1.7-14.163-2.526a672.486 672.486 0 00-3.227-.632 2166.2 2166.2 0 00-14.984-2.852c.054.007 5.498.69 15.036 2.53 1.055.204 2.13.416 3.228.633 4.182.824 8.921 1.759 14.147 2.523.455.066.958.29 1.443.507.476.211.968.43 1.392.489 1.377.19 1.345.515-.034.325m-8.553-32.169l.017.047-.017-.047zm24.672 61.48l-.091.025c-3.225-5.768-6.699-12.731-9.923-20.126a325.244 325.244 0 01-3.095-7.354c-.141-.346-.208-.766-.258-1.194v-.001c.095-.139.186-.28.278-.423l.003.033c.056.52.112 1.055.274 1.452a341.873 341.873 0 001.608 3.885c.493 1.167.993 2.331 1.483 3.462 3.22 7.384 6.5 14.482 9.721 20.241m-24.655-61.433l-.017-.047.017.047z" fill="#333383"/><path d="M67.018 144.517s3.006-1 9.305.947c5.11 1.581 4.536 1.507 4.536 1.507l-.453 2.674s-6.118 2.062-12.747-.481c0 0-2.984-.661-2.31-2.768.674-2.108 1.669-1.879 1.669-1.879z" fill="#DFE5F4"/><path d="M410.11 151.562H49.611v57.913H410.11v-57.913z" fill="#555CA5"/><path d="M426.537 209.475H10.86c-.562 0-1.022.473-1.022 1.053s.46 1.053 1.023 1.053h415.676c.561 0 1.023-.473 1.023-1.053s-.462-1.053-1.023-1.053z" fill="#D0D6EC"/><path d="M418.583 152.275H45.298v-4.31h373.285v4.31z" fill="#333383"/><path d="M97.716 129.272h27.113l-5.923 18.693H91.302l6.414-18.693zm158.741-.001h27.114l-7.05 18.694h-26.478l6.414-18.694z" fill="#D35C2B"/><path d="M110.966 117.457h10.48s6.418 4.636 5.261 13.648l-11.66.851s2.557-7.5-4.081-14.499z" fill="#DFE5F4"/><path d="M142.655 113.253s1.685 5.984 3.387 9.412l4.481-1.541s-.87-3.979-.691-10.061l-7.177 2.19zm19.623 44.174s-32.456 4.415-36.774 11.431c0 0-2.139 3.153 1.201 12.207 3.34 9.055 11.822 23.92 11.822 23.92h4.839s-7.427-28.763-7.676-30.014c0 0 24.461 2.87 27.707-1.854 3.248-4.725-1.119-15.69-1.119-15.69" fill="#D98789"/><path d="M151.783 157.427s-31.446 4.415-35.763 11.431c0 0-2.141 3.153 1.199 12.207 3.341 9.055 11.823 23.92 11.823 23.92h4.838s-7.426-28.763-7.676-30.014c0 0 24.461 2.87 27.709-1.854 3.246-4.725-1.119-15.69-1.119-15.69h-1.011m-11.174-36.094c-2.551 1.278-15.78 14.244-15.78 14.244s-6.592-8.759-7.605-10.554a.934.934 0 01-.048-.301c.004-1.049-.857-2.278-2.088-3.031-1.282-.784-.871-.691-1.77-1.266-.899-.576-1.098.845-1.098.845-.18 2.735 1.66 3.862 2.465 4.223a.611.611 0 01.362.565s3.724 14.617 9.782 17.566c0 0 15.191-8.916 15.78-13.568.59-4.653 5.407-9.757 5.407-9.757s-2.933-.205-5.407 1.034" fill="#E7B2B6"/><path d="M162.381 175.289c-4.129 3.063-33.424 1.313-33.424 1.313.305-.694.191-2.318-.108-4.216-.643-4.089-2.141-9.446-2.141-9.446 6.184-2.456 22.092-5.05 22.249-6.025.12-.762-4.878-9.778-7.521-14.197l-.01-.018-.002-.003c-.724-1.212-1.271-2.072-1.482-2.318-.979-1.136-.407-5.73-.582-5.949l-.003-.003c-.209-.178-2.846 2.496-2.846 2.496-.262-2.25-4.395-8.584-4.395-8.584s7.524-6.9 8.632-7.551c1.57-.926 10.304-2.282 16.418-2.632 3.467-.198 4.321 4.724 4.614 10.515.222 4.423.119 9.353.601 12.9 1.111 8.192 7.185 16.833 7.535 22.257.35 5.424-3.405 8.399-7.535 11.461" fill="#F2D370"/><path d="M141.561 115.777s8.622 1.577 9.52-3.818c.898-5.394 2.615-8.824-2.852-10.059-5.467-1.234-6.882.645-7.619 2.372-.737 1.727-1.269 10.955.951 11.505z" fill="#E7B2B6"/><path d="M160.271 134.178l-1.762.107-.514-1.955v1.985l-6.129.368c-.007-2.948-.612-7.645-.883-9.595.183 2.473.402 7.439.288 9.689l-1.801.051s-2.104-20.802-5.634-23.276c-5.579-3.912-3.531-7.28-3.531-7.28 1.838-4.817 9.578-4.697 12.362-2.302 5.456 4.69 7.604 32.208 7.604 32.208" fill="#555CA5"/><path d="M150.857 124.198c.059.233.101.534.127.89-.073-.52-.122-.846-.127-.89z" fill="#555CA5"/><path d="M145.696 177.1c-3.364 0-6.717-.079-9.529-.176-4.213-.143-7.21-.322-7.21-.322.125-.285.18-.725.18-1.277 0-.795-.112-1.819-.288-2.939 5.886-.038 22.994-.232 27.312-1.188 5.241-1.162 5.108-13.771 1.965-20.691-1.941-4.274-.079-11.355 1.621-16.297l.524-.032s-.032-.421-.1-1.168c.866-2.396 1.596-4.082 1.609-4.339.222 4.423.119 9.353.601 12.9 1.111 8.192 7.185 16.833 7.535 22.257.016.233.022.462.023.686.004 4.994-3.606 7.845-7.558 10.775-1.926 1.429-9.334 1.811-16.685 1.811" fill="#EEC565"/><path d="M159.747 134.21c.143-.416.285-.817.424-1.2.068.747.1 1.168.1 1.168l-.524.032z" fill="#70668F"/><path d="M141.424 142.697c-.725-1.212-1.271-2.072-1.482-2.319-.494-.572-.593-2.022-.593-3.348.001-.905.047-1.752.047-2.224 0-.208-.009-.342-.036-.376l-.003-.003c.268-.34.652-.617 1.195-.617.049 0 .099.002.151.006 1.44.133-.604 6.612.721 8.881" fill="#EEC565"/><path d="M144.266 204.512l-1.222 4.963H130.92s3.101-6.695 13.346-4.963z" fill="#C5592D"/><path d="M135.186 204.512l-1.222 4.963h-12.125s3.102-6.695 13.347-4.963z" fill="#D35C2B"/><path d="M170.947 207.899c0 .914-.747 1.662-1.659 1.662h-39.116a1.664 1.664 0 01-1.659-1.662c0-.915.745-1.663 1.659-1.663h17.538v-25.802h4.714v25.802h16.864c.912 0 1.659.748 1.659 1.663z" fill="#B9C0D6"/><path d="M192.129 144.524c-2.03 12.654-4.972 30.884-5.469 33.307-.767 3.762-8.2 3.685-26.135 3.358-3.015-.055-5.71-.086-8.101-.103-1.724-.01-3.293-.015-4.714-.01-8.324.019-11.591.255-11.591.255s-5.023-9.278 24.406-6.232c3.336.343 4.796-16.47 5.428-29.564.4-8.287 7.508-14.635 15.773-14.091.948.063 1.86.241 2.722.519 5.173 1.664 8.587 6.921 7.681 12.561" fill="#D35C2B"/><path d="M104.402 29.514V11.15h-3.752v18.364H51.399v38.249H152.06v-38.25h-47.659z" fill="#D0D6EC"/><path d="M150.444 65.821H53.205V31.138h97.239v34.683z" fill="#DFE5F4"/><path d="M73.967 62.035H57.528V34.269h16.44v27.766zm73.17-24.273H78.013V34.27h69.124v3.493m-.001 6.497H78.013v-3.494h69.123v3.494m.001 7.385H78.013v-3.493h69.124v3.493zm207.055-22.132V11.148h-3.755v18.365h-49.25v38.248h100.662V29.514h-47.657z" fill="#D0D6EC"/><path d="M400.231 65.822h-97.239V31.139h97.239v34.683z" fill="#DFE5F4"/><path d="M323.755 62.035h-16.44V34.27h16.44v27.765zm73.169-24.272h-69.123V34.27h69.123v3.493zm0 6.497h-69.123v-3.493h69.123v3.493zm0 7.386h-69.123v-3.494h69.123v3.494zM230.822 29.513V11.15h-3.752v18.364h-49.252v38.249h100.661v-38.25h-47.657z" fill="#D0D6EC"/><path d="M276.861 65.822h-97.238V31.138h97.238v34.684z" fill="#DFE5F4"/><path d="M189.749 49.883v6.556h4.279c.645 0 1.201-.08 1.666-.242a3.318 3.318 0 001.166-.668c.311-.283.541-.617.69-1 .151-.384.225-.804.225-1.26 0-.523-.066-.992-.199-1.41a2.703 2.703 0 00-.626-1.067c-.282-.294-.651-.52-1.105-.675-.457-.156-1.001-.234-1.633-.234h-4.463zm0-3.536h3.697c1.276-.023 2.226-.292 2.848-.809.622-.517.931-1.254.931-2.21 0-1.101-.319-1.894-.958-2.378-.638-.483-1.645-.725-3.021-.725h-3.497v6.122zm-4.995 14.111V36.171h8.492c1.409 0 2.669.133 3.78.4 1.11.267 2.05.676 2.823 1.227a5.426 5.426 0 011.764 2.077c.405.834.608 1.817.608 2.952 0 .556-.069 1.09-.208 1.602a5.2 5.2 0 01-.633 1.434 5.213 5.213 0 01-1.075 1.21 5.55 5.55 0 01-1.547.892c.709.178 1.317.447 1.822.808.507.362.922.782 1.249 1.26.329.479.566.999.716 1.56a6.67 6.67 0 01.225 1.727c0 2.358-.757 4.136-2.272 5.337-1.516 1.202-3.672 1.801-6.47 1.801h-9.274m28.04-9.056h6.061l-3.047-9.092-3.014 9.092zm7.409 4.052h-8.758l-1.664 5.005h-5.312l9.024-24.288h4.63l9.074 24.288h-5.312l-1.682-5.005zm28.974 5.003h-4.996l-9.722-15.98v15.98h-4.997V36.171h4.997l9.739 16.013V36.171h4.979v24.286m11.952-9.739l-2.595 2.802v6.939h-4.997V36.17h4.997v11.01l2.196-3.02 6.179-7.99h6.143l-8.608 10.792 8.858 13.496h-5.944l-6.229-9.741" fill="#D0D6EC"/><path d="M192.129 144.524c-2.03 12.654-4.972 30.884-5.469 33.307-.767 3.762-8.2 3.685-26.135 3.358-3.015-.055-24.406.142-24.406.142s-5.023-9.278 24.406-6.232c10.409 2.375 8.069-30.451 11.986-37.302 2.751-4.814 8.584-5.835 11.937-5.834 5.173 1.664 8.587 6.921 7.681 12.561" fill="#B65224"/><path d="M310.053 188.881l.016-.016 9.209.012.016.015-.004 1.939-9.239-.011.002-1.939zm18.014 1.961l-7.068-.009.002-1.938c0-.952-.772-1.729-1.721-1.729l-9.209-.012a1.73 1.73 0 00-1.727 1.725l-.002 1.939-7.066-.009a1.963 1.963 0 00-1.964 1.963l-.018 14.702a1.962 1.962 0 001.96 1.968l26.789.033a1.967 1.967 0 001.966-1.964l.016-14.701a1.962 1.962 0 00-1.958-1.968z" fill="#D5652C"/><path d="M330.018 198.328l-30.714-.038v-.575l30.716.038-.002.575z" fill="#C5592D"/><path d="M344.995 154.065s-40.003 14.465-40.465 15.597l-14.983 35.75c-4.097 1.346-5.493 4.063-5.493 4.063l12.411-.006 1.023-3.904h2.699c15.329-14.22 16.967-25.422 17.028-29.226a1.481 1.481 0 011.436-1.461c2.417-.075-2.206-.233 14.341-.548 17.062-.325 22.594-16.037 22.594-16.037l-10.591-4.228" fill="#2B295E"/><path d="M286.71 204.904l-1.196 4.565-12.411.006s3.101-6.033 13.607-4.571z" fill="#221E50"/><path d="M355.273 160.395s-5.221 13.61-22.28 13.935c-16.55.315-22.875.473-25.294.548a1.48 1.48 0 00-1.434 1.462c-.061 3.803-1.701 15.005-17.03 29.225h-10.701l17.14-42.869c.464-1.133 38.372-8.631 38.372-8.631l21.227 6.33z" fill="#333383"/><path d="M308.942 168.248c.48-.068 1.004-.301 1.512-.526.469-.209.958-.427 1.37-.487 5.317-.776 10.136-1.727 14.387-2.566 1.114-.219 2.206-.434 3.278-.642a2136.512 2136.512 0 0115.22-2.896c-.055.007-5.585.7-15.273 2.57-1.072.206-2.163.422-3.28.642-4.246.838-9.062 1.788-14.368 2.563-.463.068-.975.295-1.467.514-.483.216-.984.438-1.415.497-1.398.195-1.364.524.036.331zm-21.333 33.361l.092.025c3.276-5.859 6.804-12.932 10.08-20.444a318.27 318.27 0 003.143-7.47c.144-.351.212-.779.262-1.212v-.001c-.096-.141-.188-.286-.282-.429l-.004.032c-.056.528-.113 1.072-.277 1.475a318.596 318.596 0 01-1.634 3.946c-.5 1.185-1.009 2.369-1.506 3.517-3.27 7.5-6.602 14.711-9.874 20.561" fill="#2B295E"/><path d="M327.987 112.896c-2.366-3.514-3.265-6.406-3.265-6.406l5.959-3.523c2.103 4.418 7.036 7.723 7.036 7.723s-9.705 2.244-9.73 2.206z" fill="#91562D"/><path d="M322.903 106.775s9.358.428 9.534-5.415c.177-5.843 1.504-9.722-4.464-10.243-5.968-.52-7.197 1.674-7.73 3.61-.53 1.936.23 11.786 2.66 12.048" fill="#A05F32"/><path d="M320.244 94.727s3.141.495 4.168 4.183c1.028 3.689 5.443 7.365 6.807 7.183 0 0 8.089-10.931-.15-15.426-6.102-3.328-11.776.6-10.825 4.06z" fill="#555CA5"/><path d="M288.309 147.992c.525-1.46 1.043-3.641 1.043-3.641s-3.564.545-4.681.489a1.725 1.725 0 00-1.864.899l-1.161 2.253h6.663" fill="#A05F32"/><path d="M348.739 117.495c-.391-.594-.772-1.17-1.143-1.724-1.981-2.968-2.977-4.755-4.467-6.061-3.04-2.667-8.882-1.96-8.906-1.957 0 0-2.341.826-3.449 1.096a39.39 39.39 0 00-4.394 1.332c-.149.04-9.078 2.482-9.894 5.781-1.385 5.586-10.342 24.15-10.342 24.15s-13.384 2.973-17.252 4.351l-.796 3.529 22.576-.027s6.865-6.924 10.787-13.034c.015.04.031.081.044.121.891 2.522 1.768 5.06 2.468 7.43 1.856 6.302 3.365 11.851 7.04 12.6 2.286.465 4.262.866 5.982 1.194 13.211 2.528 10.943.753 13.488-9.136.991-3.845.921-7.685.228-11.397a30.279 30.279 0 002.172-.89c.932-.431 1.755-.892 2.391-1.377 2.317-1.771-2.462-9.772-6.533-15.981" fill="#F2D370"/><path d="M352.88 134.853c-3.033-6.592-4.954-15.454-5.725-19.478.504.673 1.037 1.383 1.585 2.12 3.332 5.081 7.135 11.363 7.139 14.448 0 .684-.187 1.212-.609 1.533a.815.815 0 01-.059.046c-.626.468-1.43.914-2.331 1.331" fill="#EEC565"/><path d="M325.659 147.965c-.577-1.679-1.117-3.546-1.686-5.483-.699-2.37-1.576-4.908-2.468-7.43.892 2.522 1.769 5.06 2.468 7.43.569 1.937 1.109 3.804 1.686 5.483z" fill="#EEE1D4"/><path d="M336.994 156.276a528.093 528.093 0 01-5.982-1.194c-2.545-.52-4.052-3.339-5.354-7.117-.577-1.678-1.117-3.545-1.687-5.483-.697-2.37-1.576-4.908-2.467-7.43.372-1.155 1.046-2.172 2.264-2.521a.596.596 0 01.172-.024c2.993 0 13.016 18.961 13.054 23.769" fill="#EEC565"/><path d="M344.812 206.237h-16.816v-25.803h-4.715v25.803h-17.495c-.846 0-1.59.617-1.692 1.459a1.667 1.667 0 001.648 1.865h39.115c.978 0 1.767-.861 1.648-1.865-.102-.842-.846-1.459-1.693-1.459" fill="#B9C0D6"/><path d="M367.657 144.783c-2.03 12.642-4.935 30.642-5.427 33.049-.585 2.859-5.017 3.499-14.986 3.499-3.146 0-6.846-.063-11.151-.142-17.936-.326-24.404.142-24.404.142s-5.023-9.278 24.404-6.232c3.356.346 4.815-16.674 5.439-29.8.388-8.154 7.37-14.405 15.501-13.871 3.656.239 6.775 2.155 8.702 4.922a11.509 11.509 0 011.922 8.433" fill="#D35C2B"/><path d="M367.657 144.783c-2.03 12.642-4.935 30.642-5.427 33.049-.585 2.859-5.017 3.499-14.986 3.499h-35.555s-5.023-9.278 24.404-6.232c10.995 2.252 8.709-28.735 8.958-31.31.25-2.574 4.93-8.989 10.22-10.313 5.29-1.324 10.46 2.873 10.46 2.873l.004.001a11.509 11.509 0 011.922 8.433" fill="#B65224"/></svg>