<svg width="365" height="312" fill="none" xmlns="http://www.w3.org/2000/svg"><path d="M296.978 312c-47.58-.002-77.211-32.963-83.828-32.963-86.425 0-101.175-5.055-103.835-13.868-3.868-12.813 44.579-16.667 95.327-16.667 50.573 0 103.428 3.83 109.017 6.434 11.197 5.217 44.021 52.555-8.405 56.733-2.817.226-5.572.331-8.276.331" fill="url(#paint0_linear)"/><path d="M73.414 229.494h252.721c7.011 0 12.692-5.688 12.692-12.705V73.269c0-7.018-5.681-12.706-12.692-12.706H73.414c-7.008 0-12.69 5.688-12.69 12.705V216.79c0 7.017 5.682 12.705 12.69 12.705" fill="#000"/><path d="M76.42 208.906h246.708a5.324 5.324 0 005.321-5.327V73.724a5.324 5.324 0 00-5.321-5.327H76.419a5.324 5.324 0 00-5.32 5.327V203.58a5.324 5.324 0 005.32 5.327z" fill="#993FD1"/><path d="M206.366 220.029a6.594 6.594 0 01-6.59 6.598 6.594 6.594 0 01-6.593-6.598 6.595 6.595 0 016.593-6.601c3.641 0 6.59 2.955 6.59 6.601z" fill="#F9D6EB"/><path d="M308.391 112.738H186.04c-3.656 0-6.618 2.968-6.618 6.629v66.896a6.621 6.621 0 006.618 6.627h122.351a6.621 6.621 0 006.619-6.627v-66.896a6.623 6.623 0 00-6.619-6.629z" fill="#FFB800"/><path d="M240.155 135.833h60.71a4.143 4.143 0 004.14-4.146v-3.415a4.141 4.141 0 00-4.14-4.146h-60.71a4.143 4.143 0 00-4.14 4.146v3.415a4.144 4.144 0 004.14 4.146zm0 15.217h60.71a4.142 4.142 0 004.14-4.145v-2.26a4.143 4.143 0 00-4.14-4.146h-60.71a4.144 4.144 0 00-4.14 4.146v2.26a4.144 4.144 0 004.14 4.145zm0 14.953h60.71a4.14 4.14 0 004.14-4.143v-2.26a4.141 4.141 0 00-4.14-4.146h-60.71a4.143 4.143 0 00-4.14 4.146v2.26a4.142 4.142 0 004.14 4.143zm0 14.955h60.71a4.142 4.142 0 004.14-4.145v-2.26a4.143 4.143 0 00-4.14-4.146h-60.71a4.144 4.144 0 00-4.14 4.146v2.26a4.144 4.144 0 004.14 4.145z" fill="#fff"/><path d="M92.26 168.114h122.353c3.656 0 6.618-2.968 6.618-6.629V94.587a6.623 6.623 0 00-6.618-6.627H92.26a6.623 6.623 0 00-6.62 6.627v66.898a6.624 6.624 0 006.62 6.629z" fill="#FFC840"/><path d="M163.818 132.671h39.747a4.142 4.142 0 004.14-4.145v-2.258a4.142 4.142 0 00-4.14-4.145h-39.747a4.142 4.142 0 00-4.14 4.145v2.258a4.142 4.142 0 004.14 4.145zm0 14.953h39.747a4.142 4.142 0 004.14-4.143v-2.26a4.144 4.144 0 00-4.14-4.146h-39.747a4.144 4.144 0 00-4.14 4.146v2.26a4.143 4.143 0 004.14 4.143zm0 14.955h39.747a4.144 4.144 0 004.14-4.145v-2.26a4.142 4.142 0 00-4.14-4.144h-39.747a4.143 4.143 0 00-4.14 4.144v2.26a4.144 4.144 0 004.14 4.145zm-63.809-29.908h39.746a4.142 4.142 0 004.14-4.145v-2.258a4.142 4.142 0 00-4.14-4.145h-39.746a4.14 4.14 0 00-4.138 4.145v2.258a4.14 4.14 0 004.138 4.145zm0 14.953h39.746a4.142 4.142 0 004.14-4.143v-2.26a4.144 4.144 0 00-4.14-4.146h-39.746a4.142 4.142 0 00-4.138 4.146v2.26a4.14 4.14 0 004.138 4.143zm0 14.955h39.746a4.144 4.144 0 004.14-4.145v-2.26a4.142 4.142 0 00-4.14-4.144h-39.746a4.14 4.14 0 00-4.138 4.144v2.26a4.142 4.142 0 004.138 4.145z" fill="#fff"/><path d="M165.874 248.331h67.799v-18.837h-67.799v18.837z" fill="#000"/><path d="M133.971 266.609h131.607a5.53 5.53 0 005.528-5.532v-3.348c0-7.942-6.432-14.383-14.367-14.383h-113.93c-7.934 0-14.367 6.441-14.367 14.383v3.348a5.53 5.53 0 005.529 5.532z" fill="#000"/><path d="M188.373 208.906h-14.982c-2.746-4.352-5.526-8.684-8.39-12.963-6.279-9.38-12.69-18.668-19.278-27.829h15.052a785.433 785.433 0 0110.072 14.328c5.95 8.674 11.871 17.491 17.526 26.464z" fill="#A658D7"/><path d="M160.776 168.114h-15.052a874.698 874.698 0 00-4.276-5.897 4.145 4.145 0 002.447-3.784v-2.26a4.142 4.142 0 00-4.14-4.143h-5.887a865.754 865.754 0 00-3.359-4.406h9.246a4.142 4.142 0 003.836-2.578 884.107 884.107 0 0117.185 23.068" fill="#FFCF59"/><path d="M140.874 87.96h-15.797c-6.329-6.313-12.53-12.784-18.242-19.562h12.979c7.218 6.291 14.135 13.001 21.06 19.562z" fill="#A658D7"/><path d="M137.666 137.075h-14.863c-.618-1.333-.97-2.773-.859-4.404h17.811a4.142 4.142 0 004.14-4.145v-2.258a4.142 4.142 0 00-1.25-2.97c2.862-.145 5.726-.29 8.589-.445 1.574-.086 6.684.013 7.639-1.64-.02.033-.044.048-.072.048-.199 0-.613-.789-1.143-1.401-1.469-1.694-3.26-3.207-4.863-4.774-3.505-3.427-7.025-6.844-10.52-10.281-5.657-5.564-11.481-11.14-17.198-16.845h15.797a729.7 729.7 0 005.379 5.053c6.571 6.094 13.384 12.186 19.534 18.708 2.794 2.964 4.622 6.719 4.528 10.402h-6.496a4.142 4.142 0 00-4.14 4.145v2.258a4.147 4.147 0 002.761 3.911c-4.526 1.953-9.927 2.043-14.713 2.33-3.14.186-7.046.971-10.476.971-.176 0-.351-.002-.522-.007.32.432.633.89.937 1.344" fill="#FFCF59"/><path d="M162.439 132.437a4.148 4.148 0 01-2.761-3.911v-2.258a4.142 4.142 0 014.14-4.145h6.496c-.063 2.543-1.046 5.053-3.257 7.243-1.367 1.354-2.932 2.341-4.618 3.071zm-22.684.234h-17.811c.007-.083.013-.166.022-.252.782-8.115 9.885-8.567 16.121-8.889 1.519-.079 3.039-.156 4.558-.232a4.143 4.143 0 011.251 2.97v2.258a4.143 4.143 0 01-4.141 4.145zm0 14.953h-9.246a831.187 831.187 0 00-3.799-4.904c-1.438-1.841-2.975-3.621-3.908-5.645h14.864c.674 1.013 1.294 2.008 1.806 2.662a1059.12 1059.12 0 014.118 5.309 4.14 4.14 0 01-3.835 2.578zm1.692 14.593a798.105 798.105 0 00-7.175-9.652c-.136-.18-.272-.357-.405-.535h5.887a4.142 4.142 0 014.14 4.144v2.26a4.144 4.144 0 01-2.447 3.783" fill="#fff"/><path d="M300.911 208.906h-79.217a1434.887 1434.887 0 01-13.182-16.016h76.303c5.445 5.355 10.923 10.783 16.096 16.016zm-35.341-96.168h-44.338v-18.15c0-3.66-2.962-6.628-6.618-6.628h-35.71c-7.601-6.815-15.161-13.591-21.732-19.563h66.97l.252.27c18.467 18.1 31.89 32.749 41.176 44.071" fill="#A658D7"/><path d="M284.814 192.89h-76.303c-7.015-8.657-13.759-17.22-19.403-24.776h25.505c3.656 0 6.618-2.968 6.618-6.629v-30.524c1.104-.541 1.682-1.093 1.583-1.663-.061-.349-.613-1.094-1.583-2.175v-14.385h44.338c3.499 4.266 6.408 8.058 8.779 11.388h-34.194a4.143 4.143 0 00-4.14 4.146v3.415a4.143 4.143 0 004.14 4.145h41.319c.919 2.044 1.335 3.596 1.3 4.668h-42.619a4.143 4.143 0 00-4.14 4.145v2.26a4.143 4.143 0 004.14 4.145h3.026c.85 1.092 2.17 2.585 3.873 4.404h-6.899a4.143 4.143 0 00-4.14 4.146v2.26a4.142 4.142 0 004.14 4.143h17.255c1.419 1.41 2.91 2.88 4.455 4.404h-21.71a4.144 4.144 0 00-4.14 4.145v2.26a4.144 4.144 0 004.14 4.146h32.478a5093.58 5093.58 0 0112.182 11.932" fill="#FFC121"/><path d="M281.473 135.833h-41.318a4.144 4.144 0 01-4.14-4.146v-3.415a4.143 4.143 0 014.14-4.146h34.194c3.494 4.904 5.819 8.802 7.124 11.707m-38.292 15.217h-3.026a4.144 4.144 0 01-4.14-4.145v-2.26a4.144 4.144 0 014.14-4.146h42.619c-.011.382-.079.702-.202.961-2.174 4.607-39.341 3.551-40.477 7.635-.079.28.304.949 1.086 1.955m14.229 14.953h-17.255a4.142 4.142 0 01-4.14-4.143v-2.26a4.143 4.143 0 014.14-4.146h6.899c2.636 2.813 6.191 6.412 10.356 10.549zm15.223 14.955h-32.478a4.144 4.144 0 01-4.14-4.145v-2.26a4.144 4.144 0 014.14-4.146h21.71c3.359 3.306 6.989 6.855 10.768 10.551" fill="#fff"/><path d="M214.613 168.114h-25.505a400.588 400.588 0 01-4.061-5.535h18.518a4.144 4.144 0 004.14-4.146v-2.26a4.142 4.142 0 00-4.14-4.143h-25.673c-1.02-1.651-1.866-3.128-2.511-4.406h28.184a4.142 4.142 0 004.14-4.143v-2.26a4.144 4.144 0 00-4.14-4.146h-9.822c11.002-2.063 23.201-4.005 27.488-6.114v30.524c0 3.661-2.962 6.629-6.618 6.629zm6.618-40.991c-5.438-6.07-23.998-22.726-42.328-39.163h35.71a6.623 6.623 0 016.618 6.627v32.536z" fill="#FFCF59"/><path d="M203.566 147.624h-28.184c-1.41-2.793-1.861-4.628-1.086-5.211 2.61-1.955 10.647-3.685 19.448-5.338h9.822a4.144 4.144 0 014.14 4.146v2.26a4.142 4.142 0 01-4.14 4.143zm-.001 14.955h-18.518c-2.864-3.974-5.299-7.548-7.155-10.549h25.673a4.143 4.143 0 014.14 4.144v2.26a4.144 4.144 0 01-4.14 4.145z" fill="#fff"/><path d="M315.569 51.91c-.009 4.137-.412 10.126-1.962 13.223-1.552 3.1-7.77 6.257-7.77 6.257l-3.271-15.084 13.003-4.396m-2.38 226.5c-3.234 9.779-2.879 15.759.696 19.578 3.575 3.819 11.547-7.434 9.202-12.506-2.345-5.073-4.79-13.258-4.79-13.258l-5.108 6.186m-37.194 6.767c-9.552 3.529-18.888 6.215-17.57 8.929 1.316 2.711 19.199 1.99 22.096-.443 2.899-2.433 2.023-11.965 2.023-11.965l-6.549 3.479z" fill="#000"/><path d="M291.086 77.778c-19.066 4.548-33.899 35.081-37.437 41.337-4.434 7.844-5.874 19.168-.742 19.87 5.132.701 32.184-28.901 34.998-33.428 2.811-4.529 3.181-27.78 3.181-27.78z" fill="#2B6299"/><path d="M287.266 151.932c-9.863 7.074 15.714 77.617 17.754 81.918 2.039 4.303 5.949 49.488 5.949 49.488l13.161-.005s3.595-28.142 3.582-36.885c-.018-10.062-7.887-22.335-7.887-22.335s8.605-39.858 3.455-61.731c-3.855-16.369-20.302-21.716-36.014-10.45" fill="#000"/><path d="M280.946 150.525c-11.26 4.529-4.07 69.55-5.44 80.675-.58 4.726-3.387 53.918-3.387 53.918l13.585 1.822s6.391-28.382 8.447-36.879c2.366-9.779-1.139-20.251-1.139-20.251s20.265-38.112 20.441-60.584c.133-16.818-14.578-25.916-32.507-18.701" fill="#000"/><path d="M321.463 157.171c1.202-13.3-.239-15.826.462-24.945.7-9.117-1.163-27.424-.462-33.65.7-6.225-5.196-25.674-21.619-23.43-18.855 2.577-20.812 10.922-22.914 27.661-2.102 16.737-2.967 23.586-2.667 37.493.084 3.88 3.291 14.152 3.291 14.152s7.335 10.783 18.155 12.502c8.617 1.368 25.754-9.783 25.754-9.783z" fill="#3C93E8"/><path d="M312.361 78.73c-10.255 1.312-6.005 16.578 2.124 21.377 6.748 3.983 24.377 18.421 31.107 24.179 1.76-4.472 7.932-6.23 12.184-4.305-9.651-14.192-35.37-42.539-45.415-41.252" fill="#F4BA8E"/><path d="M292.335 83.622c1.515 2.021 9.57-2.405 10.857-4.007 1.285-1.6 2.275-5.811 1.752-10.02-.528-4.207-5.522-3.856-8.454-2.804-2.929 1.05-6.257 14.025-4.155 16.831" fill="#EE9956"/><path d="M296.554 35.778c-7.081-.763-15.755 4.207-15.794 13.995-.044 11.079 4.284 27.16 12.026 27.136 6.546-.021 19.166-4.881 20.821-19.83.156-1.414 3.103-3.529 2.488-7.473-.686-4.417-4.865-.874-5.108-1.78-1.855-6.96-6.17-11.156-14.433-12.048z" fill="#F4BA8E"/><path d="M289.598 56.31c-2.564 1.028-5.774 12.11-3.849 13.21 1.924 1.102 4.26 1.653 5.086.964.823-.688-.618-14.424-1.237-14.174" fill="#EE9956"/><path d="M312.061 77.539c-10.294-.952-6.062 18.887.105 26.042 6.669 7.739 26.696 16.014 33.424 21.773 1.76-4.474 12.442-2.992 16.692-1.068-8.863-17.804-37.851-45.6-50.221-46.747" fill="#2B6299"/><path d="M344.591 122.057c.556 1.727.913 2.907.999 3.297.429 1.962-19.096 10.608-28.213 18.175-1.522 1.263 2.358 6.007 2.27 6.296-.608 2.004 40.331-11.48 44.5-21.601.39-.945-3.218-7.638-6.634-12.711-2.608-3.871-9.079 3.659-12.922 6.544" fill="#2B6299"/><path d="M319.521 156.632c2.158-1.018 2.038-3.661 1.847-4.931-.19-1.267-2.809-3.674-2.809-3.674l-2.351 2.892 3.313 5.713z" fill="#EE9956"/><path d="M317.378 143.529c-3.297 2.135-6.021 3.718-6.332 7.081-.313 3.358 4.381 5.787 7.35 6.101 2.973.313.992-2.348 1.095-3.286.105-.939-1.406-2.662 2.358-3.699 2.401-.66 2.482-10.697-4.471-6.197m-75.155-52.802c-.779-5.575.053-8.458-.532-12.456-.195-1.32-.987-6.428-.228-6.827.756-.398 1.627 5.55 1.938 5.123.28-.381-1.156-8.229-.407-8.516.751-.287 2.139 7.16 2.419 6.899.438-.406-.95-8.747-.265-8.797 1.119-.084 1.533 8.448 2.028 8.328.33-.08-.497-6.555.512-6.857 1.009-.3 1.802 9.838 1.701 10.945-.103 1.107 4.32-4.834 5.73-3.448.744.73-2.387 5.044-5.228 7.718-2.205 2.078-.18 4.705.873 8.278.629 2.137-8.379 1.15-8.379 1.15l-.162-1.54" fill="#F4BA8E"/><path d="M242.825 100.885c-.639-9.959-2.318-14.562-.784-16.57 1.535-2.008 5.89-3.01 6.963 1.04 1.819 6.854 8.744 30.246 10.023 36.875 1.281 6.629.567 16.023-5.003 17.353-9.336 1.951-10.562-28.739-11.199-38.698" fill="#2B6299"/><path d="M322.941 284.118l-.552-.024c.359-8.983.39-18.094.096-27.073-.175-5.395-.481-11.105-2.108-16.424-.764-2.496-1.833-4.956-2.868-7.332-1.649-3.788-3.352-7.708-3.865-11.88-.466-3.799-.365-7.056.307-9.965 4.133-17.868 5.294-36.085 3.188-49.972l.545-.084c2.117 13.956.952 32.245-3.195 50.181-.659 2.843-.755 6.039-.297 9.772.501 4.093 2.189 7.973 3.822 11.728 1.04 2.39 2.115 4.863 2.89 7.39 1.647 5.384 1.956 11.136 2.133 16.568.291 8.993.26 18.116-.096 27.115" fill="#fff"/><path d="M290.772 33.33c-5.947.559-16.638 9.093-13.218 15.075 3.418 5.985 14.492 2.892 17.999 1.032 2.507-1.328 8.335 2.04 11.455 4.07a2.685 2.685 0 003.569-.6c1.89-2.382 4.939-5.787 5.46-3.662.482 1.957-2.112-9.102-5.007-11.371-2.894-2.273-13.694-5.165-20.258-4.544z" fill="#000"/><path d="M193.618 55.55c2.969-.014 5.511.854 7.615 2.593 2.104 1.742 3.162 4.408 3.177 7.995.007 1.488-.164 2.626-.512 3.415-.604 1.84-1.909 3.398-3.915 4.674-2.005 1.277-4.053 1.92-6.15 1.926-3.063.014-5.535-.938-7.42-2.856-1.887-1.916-2.879-4.538-2.98-7.863l-.004-.919c-.007-1.661.425-2.977 1.296-3.943 1.563-2.37 3.61-3.907 6.141-4.617.789-.267 1.706-.401 2.752-.406zM201.264 0c3.231-.013 5.745.285 7.542.888 1.791.605 3.873 1.822 6.24 3.65 2.277 1.743 4.033 3.486 5.264 5.228 2.723 3.753 4.096 7.905 4.113 12.454.016 3.852-.779 7.31-2.384 10.38-1.607 3.069-4.282 5.835-8.028 8.3-2.442 1.672-4.141 3.08-5.097 4.22-.957 1.141-1.739 2.588-2.341 4.34-.519 1.49-.996 2.43-1.432 2.828-.435.394-1.265.594-2.487.6-.963.002-3.564-.248-7.803-.756-4.243-.509-6.754-.849-7.542-1.02-.786-.173-1.312-.519-1.577-1.045a3.487 3.487 0 01-.4-1.574c-.003-.787.556-2.931 1.679-6.436 1.121-3.503 2.075-5.74 2.857-6.706.869-1.14 2.437-2.284 4.707-3.43 2.093-1.06 3.595-2.048 4.508-2.973.915-.921 1.456-2.083 1.625-3.484l.131-.526-.002-.392c-.009-2.276-1.15-3.409-3.422-3.4-1.835.008-4.315 2.249-7.446 6.723-1.042 1.493-1.826 2.238-2.349 2.24l-.395-.129-.394.002c-1.659-.256-4.773-2.475-9.331-6.657-1.581-1.48-2.371-2.66-2.375-3.534-.003-.872.514-2.278 1.556-4.207 1.734-3.242 4.388-6.296 7.959-9.152 3.573-2.858 7.148-4.774 10.728-5.752 1.747-.445 3.711-.673 5.896-.68" fill="#fff"/><path d="M352.605 266.344c1.738-.631 3.409-.655 5.005-.076 1.598.581 2.776 1.92 3.536 4.02.313.87.451 1.572.413 2.107.031 1.205-.407 2.393-1.315 3.56-.909 1.17-1.977 1.975-3.204 2.42-1.793.649-3.441.609-4.945-.121-1.509-.725-2.639-2.054-3.392-3.983l-.195-.537c-.35-.973-.372-1.833-.063-2.582.42-1.717 1.298-3.047 2.634-3.994.405-.32.913-.592 1.526-.814zm-7.133-34.16c1.893-.684 3.428-1.039 4.606-1.059 1.178-.022 2.652.255 4.421.831 1.701.544 3.093 1.197 4.179 1.962 2.38 1.627 4.053 3.773 5.014 6.436.814 2.254 1.071 4.446.773 6.581-.298 2.137-1.29 4.319-2.969 6.548-1.082 1.493-1.784 2.672-2.106 3.542-.324.871-.478 1.881-.464 3.034.006.983-.075 1.636-.248 1.958-.173.322-.619.614-1.333.872-.565.204-2.139.601-4.731 1.193-2.593.592-4.136.919-4.633.984-.499.064-.878-.03-1.145-.282a2.184 2.184 0 01-.561-.838c-.168-.462-.287-1.837-.361-4.126-.079-2.288.013-3.796.271-4.528.272-.851.951-1.851 2.041-2.997 1.005-1.059 1.679-1.956 2.023-2.688.341-.732.418-1.525.223-2.383l-.035-.333-.083-.232c-.482-1.331-1.386-1.756-2.715-1.274-1.075.388-2.062 2.223-2.958 5.5-.3 1.094-.602 1.695-.911 1.807l-.256.006-.232.084c-1.027.197-3.315-.45-6.859-1.947-1.237-.535-1.947-1.061-2.133-1.572-.184-.513-.173-1.442.035-2.793.338-2.264 1.255-4.608 2.75-7.032 1.496-2.422 3.192-4.297 5.084-5.619.931-.627 2.034-1.17 3.313-1.635M30.238 102.238c2.74-1.083 5.399-1.201 7.971-.353 2.57.851 4.51 2.929 5.818 6.237.543 1.374.792 2.486.76 3.34.102 1.919-.541 3.83-1.932 5.733-1.394 1.907-3.056 3.24-4.991 4.007-2.825 1.116-5.452 1.129-7.885.04-2.434-1.09-4.297-3.153-5.59-6.189l-.332-.848c-.606-1.532-.68-2.903-.225-4.11.59-2.756 1.926-4.915 4.01-6.487.629-.53 1.43-.986 2.396-1.37zm-12.96-54.09c2.98-1.179 5.413-1.812 7.287-1.902 1.876-.088 4.239.283 7.085 1.116 2.732.787 4.98 1.762 6.748 2.929 3.868 2.483 6.634 5.824 8.289 10.02 1.401 3.553 1.916 7.037 1.539 10.45-.377 3.417-1.852 6.942-4.427 10.573-1.653 2.426-2.715 4.34-3.188 5.74-.473 1.402-.672 3.022-.597 4.856.056 1.566-.047 2.61-.305 3.13-.26.525-.952 1.01-2.082 1.454-.887.353-3.38 1.059-7.481 2.122-4.103 1.063-6.547 1.66-7.337 1.782-.788.128-1.401-.004-1.832-.394a3.428 3.428 0 01-.938-1.309c-.286-.725-.543-2.911-.77-6.554-.226-3.644-.151-6.053.223-7.23.392-1.366 1.428-2.99 3.111-4.871 1.553-1.734 2.584-3.192 3.098-4.376.51-1.181.591-2.448.243-3.805l-.067-.533-.145-.364c-.83-2.098-2.29-2.731-4.388-1.903-1.692.671-3.179 3.637-4.455 8.903-.425 1.758-.88 2.729-1.364 2.92l-.41.024-.363.142c-1.629.364-5.303-.56-11.024-2.777C1.734 77.493.58 76.69.26 75.88c-.317-.804-.345-2.288-.078-4.447C.615 67.81 1.966 64.03 4.236 60.1c2.27-3.93 4.883-6.995 7.839-9.191 1.453-1.042 3.187-1.962 5.204-2.76" fill="#9E005D"/><path d="M30.97 187.374c2.075.504 3.7 1.546 4.871 3.124 1.17 1.58 1.452 3.623.843 6.131-.252 1.042-.567 1.807-.944 2.298-.74 1.179-1.918 2.045-3.54 2.589-1.62.545-3.161.642-4.628.285-2.137-.52-3.7-1.612-4.688-3.275-.99-1.664-1.232-3.666-.729-6.007l.156-.642c.282-1.16.807-2.006 1.585-2.53 1.497-1.385 3.192-2.107 5.084-2.166.593-.05 1.256.013 1.99.193zm14.899-37.479c2.26.548 3.962 1.19 5.114 1.92 1.147.735 2.39 1.942 3.73 3.628 1.293 1.609 2.216 3.128 2.777 4.56 1.257 3.091 1.5 6.228.729 9.406-.652 2.692-1.802 4.97-3.45 6.838-1.651 1.867-3.996 3.336-7.037 4.413-1.993.747-3.42 1.435-4.285 2.069-.865.631-1.66 1.506-2.382 2.626-.62.951-1.114 1.528-1.484 1.728-.375.201-.99.199-1.844-.011-.672-.163-2.443-.787-5.32-1.875-2.873-1.085-4.572-1.756-5.09-2.012-.52-.254-.828-.59-.922-1.002a2.5 2.5 0 01-.009-1.166c.134-.55.893-1.953 2.281-4.207 1.386-2.253 2.435-3.65 3.15-4.191.802-.645 2.094-1.173 3.876-1.583 1.644-.379 2.864-.811 3.66-1.298.798-.486 1.376-1.205 1.735-2.155l.182-.344.065-.274c.386-1.589-.214-2.58-1.804-2.964-1.283-.313-3.402.825-6.356 3.411-.985.862-1.661 1.248-2.027 1.16l-.254-.16-.274-.066c-1.118-.465-2.907-2.554-5.372-6.258-.85-1.309-1.2-2.267-1.051-2.879.148-.611.75-1.501 1.81-2.67 1.77-1.966 4.147-3.639 7.136-5.02 2.984-1.379 5.81-2.102 8.48-2.168 1.295-.006 2.707.173 4.236.544" fill="#fff"/><defs><linearGradient id="paint0_linear" x1="96.932" y1="-41.868" x2="368.68" y2="292.771" gradientUnits="userSpaceOnUse"><stop stop-color="#AB267C"/><stop offset=".068" stop-color="#AB267C"/><stop offset=".361" stop-color="#AB267C"/><stop offset=".989" stop-color="#C562B8"/><stop offset=".99" stop-color="#C562B8"/><stop offset="1" stop-color="#C562B8"/></linearGradient></defs></svg>