<svg width="321" height="214" fill="none" xmlns="http://www.w3.org/2000/svg"><g clip-path="url(#clip0)"><path d="M321 214H0V0h321v214z" fill="#fff"/><path d="M283.157 194.512s56.246-86.318-3.468-109.926c-15.041-5.947-20.288-89.199-87.1-47.573-14.387 8.964-32.201 7.2-51.33 5.437-16.197-1.493-33.338-2.987-50.137 2.034C57.474 54.54 56.7 83.546 60.955 93.989c4.649 11.41-13.89 25.052-32.874 34.421-29.78 14.697-7.882 66.347 20.252 66.594 28.134.247 234.824-.492 234.824-.492z" fill="#EBF3FA"/><path d="M215.325 73.043s20.988-33.93 32.182-30.082c11.194 3.847-27.285 30.782-27.285 30.782l-4.897-.7zm17.492-1.4s14.692-15.041 21.686-11.543c6.997 3.498-4.196 10.144-21.686 11.543zM94.206 194.552l151.332.233s-10.959-8.628-18.888-5.596c-7.927 3.031-23.551.932-25.649-5.364-2.099-6.296-9.793-12.824-29.613-13.757-19.82-.933-28.682 10.26-38.475 13.291-6.062 1.876-11.498 1.609-14.761 1.131-4.014-14.48-14.035-43.06-30.503-42.538-22.037.7-3.148 9.795 3.498 13.993 4.242 2.679 13.188 17.615 19.104 28.069-2.445.241-4.52.693-6.281 1.28-4.316-7.514-12.48-18.978-21.918-18.506-13.992.7-4.547 8.745 2.799 12.943 3.816 2.181 9.709 5.305 14.49 7.805-4.552 3.101-5.135 7.016-5.135 7.016z" fill="#A8D29F"/><path d="M291.414 195.135H20.568a.322.322 0 010-.642h270.846a.322.322 0 010 .642z" fill="#202F4E"/><path d="M172.638 110.002a47.885 47.885 0 01-8.757 6.941 138.866 138.866 0 00-24.406-14.29 138.184 138.184 0 003.46-6.795c7.816 1.036 15.331 1.657 22.19 1.818 1.79.052 3.529.052 5.216.04 4.372-.053 8.266-.312 11.599-.78-2.334 4.84-5.463 9.226-9.302 13.066zm-15.297 10.315c-5.943 2.518-12.236 3.789-18.736 3.789-5.008 0-9.9-.756-14.599-2.253 3.561-1.867 7.14-6.154 9.895-10.105a92.088 92.088 0 004.245-6.725 136.016 136.016 0 0123.161 13.399 48.417 48.417 0 01-3.966 1.895zm-63.11-25.625a50.69 50.69 0 01-.322-.786c4.224.172 11.245.866 19.451 2.741.595.136 1.188.278 1.782.422a91.685 91.685 0 00-.991 7.517c-.389 4.481-.417 9.649.833 13.338a48.028 48.028 0 01-10.425-7.922 48.011 48.011 0 01-10.328-15.31zm-1.7-10.886c1.246.467 2.517.934 3.828 1.388 6.024 2.088 12.777 4.028 20 5.75-.263 1.17-.504 2.322-.727 3.458-.589-.143-1.18-.283-1.772-.418-9.986-2.272-17.48-2.735-20.953-2.813a47.075 47.075 0 01-1.894-7.949l1.518.584zm-6.98-5.514c-9.2-4.49-13.403-8.823-11.522-11.898 1.518-2.492 7.046-4.178 15.505-4.8a49.702 49.702 0 00-1.92 10.794 55.164 55.164 0 00-.13 3.282v.286c0 1.103.039 2.207.104 3.296-.7-.311-1.375-.636-2.037-.96zm8.68-21.072a54.42 54.42 0 011.35-2.906v-.002c5.947 7.433 14.712 15.03 24.953 21.621a165.396 165.396 0 00-3.691 12.925c-7.45-1.802-14.355-3.841-20.406-6.025a119.51 119.51 0 01-3.685-1.388 79.04 79.04 0 01-2.063-.843 42.164 42.164 0 01-.208-3.14c-.013-.507-.026-1-.026-1.506 0-.583.013-1.18.026-1.764a48.69 48.69 0 012.206-12.767c.22-.7.454-1.389.714-2.077.259-.713.532-1.426.83-2.128zm-2.659-23.388c1.565-2.485 5.063-3.767 9.974-3.767 2.349 0 5.023.293 7.961.89a60.59 60.59 0 013.415.797l.003.001a50.208 50.208 0 00-10.468 8.069 40.11 40.11 0 00-1.92 2.023 51.5 51.5 0 00-5.398 7.188l-.002.005c-4.34-6.444-5.644-11.907-3.565-15.206zm47.033-6.025c3.335 0 6.615.336 9.82 1.001-3.781 1.646-7.642 6.229-10.573 10.43-2.999 4.3-5.996 9.563-8.823 15.453a53.465 53.465 0 01-5.411-3.36c-5.626-3.992-8.996-8.171-10.833-10.975a28.361 28.361 0 01-2.051-3.666 48.044 48.044 0 016.222-3.755l.002.001a47.809 47.809 0 012.699-1.255l.199-.086c.015-.006.031-.012.046-.02a46.67 46.67 0 01.745-.304c5.697-2.297 11.743-3.464 17.958-3.464zm34.033 14.103a48.035 48.035 0 0112.481 21.585c-11.098.81-21.266.557-30.355-.76 1.442-5.893 2.412-11.438 2.838-16.334.471-5.408.413-11.813-1.779-15.418a47.814 47.814 0 0116.815 10.927zm-26.435 21.98a94.61 94.61 0 005.205 1.05 173.876 173.876 0 01-4.577 14.527 185.905 185.905 0 01-2.141 5.615c-6.728-2.47-13.87-6.004-20.892-10.368.363-1.062.737-2.126 1.125-3.193a174.36 174.36 0 015.364-13.14c4.772 2.313 10.095 4.157 15.916 5.509zm5.802-32.866c1.477.535 2.226 2.655 2.596 4.338.582 2.66.688 6.396.304 10.806-.42 4.826-1.386 10.306-2.825 16.143a93.288 93.288 0 01-5.085-1.017c-5.708-1.312-10.912-3.108-15.56-5.363 2.773-5.783 5.706-10.94 8.638-15.143 2.532-3.63 5.008-6.43 7.16-8.098 1.124-.87 2.635-1.802 3.959-1.802.281 0 .554.042.813.136zm-43.479 7.335a31.832 31.832 0 001.882 3.31c3.518 5.438 8.166 9.38 11.445 11.73a55.891 55.891 0 006.022 3.749 177.587 177.587 0 00-5.498 13.45 193.18 193.18 0 00-.928 2.621c-10.167-6.619-18.777-14.214-24.424-21.564l-.002-.003a48.449 48.449 0 014.85-6.834 48.766 48.766 0 012.349-2.57l.337-.337a48.729 48.729 0 013.967-3.552zm17 52.442a259.491 259.491 0 01-6.048-1.32 161.24 161.24 0 013.419-12.061c6.96 4.278 14.038 7.76 20.742 10.228a164.62 164.62 0 01-2.587 5.86c-5.09-.73-10.3-1.636-15.526-2.707zm11.465 10.754a134.282 134.282 0 00-18.731-6.486c.224-1.151.469-2.322.735-3.511 1.764.4 3.552.789 5.363 1.162a272.904 272.904 0 0015.762 2.75 132.762 132.762 0 01-3.129 6.085zm-17.243 18.41c-1.476-.535-2.226-2.655-2.594-4.338-.584-2.66-.688-6.396-.305-10.806.193-2.23.506-4.601.925-7.08a131.386 131.386 0 0117.879 6.187 89.852 89.852 0 01-3.972 6.273c-2.533 3.63-5.009 6.43-7.16 8.098-1.363 1.055-3.296 2.201-4.773 1.666zm63.242-25.337c-3.463.623-7.783.986-12.831 1.038-7.831.095-16.827-.523-26.304-1.772a172.2 172.2 0 002.342-5.346c2.942.985 5.795 1.764 8.519 2.317 3.118.632 5.964.946 8.505.946 5.954 0 10.22-1.72 12.327-5.065.347-.55.63-1.135.848-1.752h-3.035a5.413 5.413 0 01-.16.273c-1.564 2.484-5.063 3.767-9.974 3.766-2.349 0-5.023-.293-7.961-.89-2.562-.519-5.248-1.249-8.017-2.168.73-1.829 1.441-3.693 2.127-5.585a176.394 176.394 0 004.717-15.015c5.839.86 12.108 1.293 18.768 1.293 4.146 0 8.446-.168 12.888-.503.659 3.197.993 6.469.993 9.792 0 6.475-1.26 12.754-3.752 18.67zm12.211-8.369l-3.957-.09c1.271 1.647 1.557 3.165.765 4.45-.792 1.31-2.686 2.387-5.514 3.204 2.14-5.695 3.217-11.703 3.217-17.866 0-6.902-1.348-13.598-4.021-19.89a50.688 50.688 0 00-10.951-16.244 51.113 51.113 0 00-16.244-10.965 50.921 50.921 0 00-19.891-4.009c-6.902 0-13.597 1.35-19.903 4.01a58.56 58.56 0 00-2.232 1.012l-.007.003a68.578 68.578 0 00-6.405-1.639c-10.428-2.116-17.828-.654-20.834 4.118-2.86 4.538-1.303 11.37 4.373 19.337l-.002.005a50.01 50.01 0 00-2.089 4.372 47.47 47.47 0 00-1.297 3.412c-10.665.636-16.374 2.513-18.45 5.912-2.414 3.958.882 9.268 11.43 14.433a99.955 99.955 0 004.645 2.115 49.98 49.98 0 003.672 13.909 50.886 50.886 0 0010.951 16.257 51.256 51.256 0 0016.245 10.951c6.306 2.659 13.001 4.009 19.903 4.009a50.93 50.93 0 0019.891-4.009 51.285 51.285 0 0016.244-10.951 50.886 50.886 0 0010.742-15.777c5.204-1.077 8.629-2.764 9.991-4.996.948-1.544.831-3.256-.272-5.073z" fill="#ADCBF9"/><path d="M127.529 21.807l-12.092 2.053 7.909-5.703.456 1.75 2.966.456.761 1.444z" fill="#456AA3"/><path d="M115.436 23.86l9.963-5.475 9.887-.76-19.85 6.236z" fill="#ADCBF9"/><path d="M123.347 18.157l-7.91 5.704 6.008-8.746 1.902 3.042z" fill="#ADCBF9"/><path d="M74.43 51.305l11.446 4.41-6.623-7.158-.793 1.624-2.998-.141-1.032 1.265z" fill="#456AA3"/><path d="M85.876 55.715l-8.68-7.341-9.54-2.705 18.22 10.046zm-6.622-7.158l6.622 7.158-4.156-9.764-2.466 2.606z" fill="#ADCBF9"/><path d="M296.226 89.337h-27.473c-.643 0-1.17.526-1.17 1.169v11.885c0 .643.527 1.169 1.17 1.169h1.559v3.117l4.859-3.117h21.055c.642 0 1.167-.526 1.167-1.169V90.506c0-.643-.525-1.17-1.167-1.17z" fill="#F7C78F"/><path d="M293.497 94.11h-22.018a.78.78 0 01-.778-.779c0-.428.35-.779.778-.779h22.018a.78.78 0 010 1.559zm0 2.826h-22.018a.78.78 0 01-.778-.78c0-.428.35-.779.778-.779h22.018a.78.78 0 01.778.78.78.78 0 01-.778.779zm0 2.825h-22.018a.781.781 0 01-.778-.78c0-.428.35-.779.778-.779h22.018c.428 0 .778.351.778.78 0 .428-.35.779-.778.779z" fill="#E2923D"/><path d="M27.39 54.357h27.47c.643 0 1.17.526 1.17 1.169V67.41c0 .643-.527 1.169-1.17 1.169h-1.558v3.118l-4.86-3.118H27.389a1.172 1.172 0 01-1.169-1.169V55.525c0-.642.526-1.168 1.17-1.168z" fill="#F7C78F"/><path d="M30.117 59.13h22.016c.429 0 .78-.35.78-.779a.782.782 0 00-.78-.78H30.117a.782.782 0 00-.78.78c0 .428.351.78.78.78zm0 2.825h22.016c.429 0 .78-.35.78-.779a.781.781 0 00-.78-.779H30.117a.78.78 0 00-.78.78c0 .427.351.778.78.778zm0 2.826h22.016c.429 0 .78-.35.78-.78a.782.782 0 00-.78-.779H30.117a.782.782 0 00-.78.779c0 .43.351.78.78.78z" fill="#E2923D"/><path d="M187.03 110.402l6.666 79.267s.698 4.804-2.876 4.813c-5.876.014-29.25 0-29.25 0s4.423-1 4.371-3.251c-.063-2.652-7.793-81.579-7.793-81.579l28.882.75z" fill="#D86713"/><path d="M188.876 193.044c-5.723.074-28.046.003-29.203 0 .435 0 3.793-.082 4.267-2.61.038-.198.058-.411.057-.641-.003-.494-.274-3.63-.715-8.409-.394-4.286-.925-9.892-1.519-16.096-2.303-24.045-5.559-57.074-5.559-57.074l28.882.749 4.737 56.325.924 10.993.832 9.89.174 2.06s.815 4.766-2.877 4.813z" fill="#EE9849"/><path d="M257.168 67.269l-16.238 65.226-2.225 8.933-7.562 30.381H90.633l27.876-104.54h138.659z" fill="#F1A34F"/><path d="M257.167 67.268l2.252.75-25.284 106.06-2.991-2.269 26.023-104.54z" fill="#EE9849"/><path d="M234.135 174.078H94.49l-3.857-2.269h140.51l2.992 2.269z" fill="#D86713"/><path d="M185.096 194.513h-30.235v-1.437h30.235v1.437z" fill="#F1A34F"/><path d="M190.935 174.032l-.188 2.25-.007.082s-19.64 1.883-27.459 5.02c-.196-2.148-.428-4.63-.686-7.352h28.34z" fill="#D86713"/><path d="M181.798 193.076h-6.615c-7.385-.006-14.853-.03-15.51-.032.436 0 3.793-.082 4.268-2.61.48.026 1.419.063 2.718.063 4.915 0 14.989-.537 24.92-4.326l.175 2.06s.076.448.076 1.071c-.001 1.408-.394 3.71-2.953 3.742-1.473.019-4.049.028-7.079.032z" fill="#E58433"/><path d="M178.715 193.077l-3.533-.001h6.616l-3.083.001zm52.245-21.268h-47.305c20-6.355 29.469-15.651 33.285-20.523h19.129l-5.109 20.523z" fill="#E78B37"/><path d="M118.51 67.268l-22.437 84.018h-.06l22.3-84.018h.197zm137.599 1.382l-20.04 82.636H97.783l22.456-82.636h135.87z" fill="#9ED9F0"/><path d="M96.073 151.286h1.71l-.342 1.26-1.655-.188.287-1.072zm161.32-84.018v1.382h-1.284l.335-1.382h.949z" fill="#F1A34F"/><path d="M121.382 145.173h51.538l17.272-69.278h-51.536l-17.274 69.278z" fill="#fff"/><path d="M173.711 107.825h-34.14c-.423 0-.684-.346-.577-.77l.071-.288c.106-.423.539-.769.962-.769h34.14c.423 0 .683.346.576.769l-.072.288c-.104.424-.537.77-.96.77zm3.036-12.181h-34.14c-.424 0-.682-.346-.578-.77l.072-.288c.106-.423.538-.77.962-.77h34.139c.424 0 .684.347.578.77l-.072.288c-.106.424-.538.77-.961.77zm-1.055 4.232h-34.141c-.423 0-.682-.347-.577-.77l.072-.288c.106-.423.538-.77.962-.77h34.139c.423 0 .684.347.577.77l-.071.288c-.105.423-.538.77-.961.77zm-.99 3.974h-34.14c-.424 0-.684-.347-.578-.77l.072-.288c.106-.424.538-.77.961-.77h34.14c.423 0 .683.346.579.77l-.073.288c-.105.423-.538.77-.961.77zm-3.012 12.077h-34.139c-.424 0-.684-.347-.578-.769l.072-.289c.105-.423.538-.77.96-.77h34.141c.423 0 .683.347.578.77l-.073.289c-.105.422-.538.769-.961.769zm.991-3.975h-34.14c-.423 0-.683-.347-.577-.769l.071-.289c.106-.423.538-.77.962-.77h34.14c.423 0 .683.347.577.77l-.071.289c-.106.422-.538.769-.962.769zm-29.809 16.467h-8.293c-.502 0-.811-.412-.685-.914s.639-.913 1.141-.913h8.293c.501 0 .811.411.685.913-.125.502-.638.914-1.141.914zm25.401 0h-8.291c-.503 0-.811-.412-.686-.914s.639-.913 1.142-.913h8.291c.503 0 .811.411.686.913s-.639.914-1.142.914z" fill="#B4CEF6"/><path d="M131.074 132.425c-.623 0-1.254.506-1.409 1.129l-.872 3.496c-.076.302-.027.584.138.794.156.201.401.311.69.311h12.092c.622 0 1.254-.506 1.409-1.129l.871-3.495c.076-.303.027-.585-.137-.795-.157-.2-.402-.311-.69-.311h-12.092zm10.639 5.828h-12.092c-.319 0-.592-.125-.767-.349-.183-.235-.238-.546-.155-.878l.872-3.495c.164-.664.838-1.203 1.503-1.203h12.092c.319 0 .591.124.766.349.183.233.239.546.156.877l-.872 3.496c-.166.663-.84 1.203-1.503 1.203zm14.806-5.828c-.622 0-1.255.506-1.41 1.129l-.871 3.496c-.076.302-.026.584.137.794.158.201.403.311.69.311h12.093c.622 0 1.254-.506 1.409-1.129l.872-3.495c.076-.303.026-.585-.138-.795-.157-.2-.402-.311-.69-.311h-12.092zm10.639 5.828h-12.093c-.318 0-.59-.125-.766-.349-.183-.235-.238-.546-.156-.878l.872-3.495c.166-.664.84-1.203 1.504-1.203h12.092c.318 0 .591.124.767.349.183.233.237.546.155.877l-.872 3.496c-.165.663-.839 1.203-1.503 1.203zm-22.066-55.281c.411-1.252 1.692-2.278 3.045-2.278.831 0 1.193.315 1.47.718l-.798.667c-.238-.308-.468-.491-.971-.491-.743 0-1.48.617-1.733 1.384-.247.756.069 1.386.824 1.386.503 0 .878-.203 1.327-.517l.4.661c-.612.485-1.203.75-2.052.75-1.296 0-1.931-1.001-1.512-2.28zm8.189 0c.248-.754-.1-1.384-.88-1.384-.781 0-1.525.617-1.776 1.384-.248.756.099 1.386.881 1.386.78 0 1.523-.618 1.775-1.386zm-3.669 0c.411-1.252 1.735-2.278 3.095-2.278 1.359 0 2.002 1.013 1.587 2.278-.411 1.253-1.736 2.28-3.094 2.28-1.36 0-2.003-1.014-1.588-2.28zm6.268-2.202h.893l1.175 2.713.89-2.713h.957l-1.446 4.405h-.825l-1.214-2.8-.919 2.8h-.957l1.446-4.405zm5.705.893h-1.341l.293-.893h3.651l-.293.893h-1.341l-1.152 3.512h-.969l1.152-3.512zm4.596 1.247c.471 0 .825-.252.951-.636.136-.416-.084-.63-.555-.63h-.963l-.416 1.266h.983zm-1.25-2.14h2.015c.559 0 .942.157 1.137.446.165.246.183.592.043 1.02-.233.711-.764 1.159-1.392 1.366l.559 1.573h-1.132l-.494-1.409h-.749l-.463 1.41h-.969l1.445-4.406zm6.241 2.562l-.117-1.429-1.053 1.429h1.17zm-.169-2.594h.893l.433 4.437h-1.014l-.078-.987h-1.862l-.728.987h-.988l3.344-4.437zm2.251 2.234c.41-1.252 1.692-2.278 3.045-2.278.83 0 1.193.315 1.47.718l-.798.667c-.239-.309-.468-.49-.972-.49-.743 0-1.48.615-1.732 1.383-.247.756.069 1.385.824 1.385.504 0 .879-.201 1.328-.516l.399.661c-.612.485-1.202.748-2.051.748-1.297 0-1.932-1-1.513-2.278zm6.294-1.308h-1.34l.293-.894h3.651l-.293.894h-1.341l-1.151 3.512h-.97l1.151-3.512z" fill="#476BA7"/><path d="M160.83 135.096c-.021.101-.044.202-.007.275a1.669 1.669 0 01-.181.12 1.054 1.054 0 01.021-.338c.083-.099.162-.201.235-.305-.03.085-.053.17-.068.248zm.531-.454a1.41 1.41 0 01-.113.253c.028-.086.065-.17.113-.253zm8.416-2.778a86.332 86.332 0 00-5.47 2.487c.072-.202.137-.405.194-.607.045-.164-.175-.272-.311-.094a2.843 2.843 0 01-.191.228c.045-.145-.127-.226-.275-.119-.01.006-.018.013-.028.021.072-.196-.233-.226-.347-.035l-.17.283a1.19 1.19 0 01-.548.366.972.972 0 01-.08-.305c-.007-.083-.067-.128-.141-.129-.003-.1-.093-.159-.226-.1a1.252 1.252 0 00-.416.307c-.091-.169-.382-.048-.537.115l.013-.028c.073-.156-.064-.336-.248-.178a2.234 2.234 0 00-.676.991 3.84 3.84 0 01-.345.342c-.06.051-.341.311-.406.288-.061-.021-.029-.183-.001-.296l.03-.042c.233-.324 1.357-1.851.565-1.837a.279.279 0 00-.219.134c-.29.445-.514.915-.65 1.382-.026.09-.062.206-.091.327l-.069.093c-.315.412-.749 1.007-1.259 1.21-.047-.646.278-1.41.525-2.088.106-.292.217-.583.331-.875a.238.238 0 00.11-.057c.55-.463.775-1.15.526-1.612-.072-.133-.291-.012-.354.129-.379.85-.724 1.705-1.031 2.561-.272.758-.581 1.56-.467 2.261.011.074.098.101.178.083.581-.126 1.087-.643 1.495-1.159a.24.24 0 00.159.141c.27.08.639-.221.906-.472.005.087.02.173.047.254.029.089.121.11.228.067.251-.101.487-.262.685-.458.262-.081.492-.297.683-.549.122-.106.234-.218.338-.336a.523.523 0 00.094.171c.099.113.348.011.508-.062a1.69 1.69 0 00.417-.274.836.836 0 00.288-.078.23.23 0 00.068.071c.1.066.217.04.332-.031-.026.073-.052.147-.081.221-.263.133-.527.266-.789.402-.174.09-.215.356-.02.341l.724-.055a.29.29 0 00.243-.183c.043-.096.084-.194.123-.29a86.144 86.144 0 015.716-2.612c.246-.101.164-.416-.08-.315zm-37.319 4.362c.023.085-.059.197-.128.276-.025.029-.046.054-.077.076a.233.233 0 01-.055.032l-.017.004c-.014-.026-.039-.037-.068-.038l.087-.187c.042-.09.212-.343.258-.163zm3.521-5.488c-.65 1.209-1.015 2.449-1.543 3.672a9.856 9.856 0 01-.955 1.754c-.275.392-.872 1.243-1.379 1.059-.126-.046-.16-.154-.12-.302.009-.033.021-.066.032-.099.064.038.163.022.263-.031a.948.948 0 00.374-.416c.076-.164.063-.335-.069-.409-.117-.064-.29-.006-.412.117-.136.135-.198.31-.265.467-.081.193-.19.401-.178.588.018.279.32.377.614.313.357-.079.674-.39.915-.675.283-.336.532-.693.75-1.058.441-.742.753-1.512 1.046-2.276.34-.884.657-1.774 1.125-2.643.077-.142-.121-.203-.198-.061zm3.719 3.75c.014-.023.078-.095.069-.046a.446.446 0 01-.092.114.162.162 0 01.023-.068zm-.542.007a1.567 1.567 0 01-.288.27c.059-.13.196-.278.288-.27zm-1.977.447c-.025.117-.166.273-.243.348l-.046.044c.085-.133.189-.264.289-.392zm-1.27.596a1.97 1.97 0 01.471-.584c.083.093.159.219.046.368-.064.082-.164.15-.244.215l-.281.221c-.024.02-.05.038-.074.057-.032-.064.047-.207.082-.277zm4.425-1.024c-.133.07-.275.149-.413.171a.342.342 0 01-.106.003c.098-.097.189-.211.204-.32.025-.175-.169-.216-.333-.126a.509.509 0 00-.249.378.264.264 0 00.019.125c-.14.102-.383.241-.533.214.191-.13.361-.296.492-.485.024-.036.025-.084.006-.11-.082-.108-.249-.115-.413-.032-.176.091-.286.265-.354.427a.6.6 0 00-.045.156 1.235 1.235 0 01-.525.119v-.003c.055-.052.11-.103.162-.156.079-.08.032-.16-.042-.171-.166-.021-.289.12-.337.265a5.05 5.05 0 01-.83.601c-.074.042-.173.128-.223.074a2.46 2.46 0 00.337-.299c.201-.209.398-.586.162-.717a.14.14 0 00-.168.041l-.311.414c-.091.12-.185.24-.24.372a.499.499 0 00-.034.13 2.332 2.332 0 01-.329.17l-.029.012.183-.148c.172-.14.328-.304.337-.498.009-.182-.108-.31-.217-.418-.03-.029-.099-.015-.142.019-.333.252-.604.591-.74.948-.042.113-.058.231-.01.31-.296.226-.595.446-.898.661-.031.023-.109.094-.141.084-.029-.011-.017-.08-.017-.111a2.448 2.448 0 01.153-.821c.06-.166.137-.331.23-.491.035.016.082.012.127-.023.227-.186.34-.429.318-.656-.008-.08-.135-.068-.195 0-.564.64-.9 1.433-.869 2.123.007.152.075.279.28.195.092-.039.179-.11.264-.169a39.463 39.463 0 00.945-.699c.114.003.246-.039.363-.081a2.46 2.46 0 00.421-.202c.039.072.111.116.219.105.112-.01.265-.123.368-.186a5.606 5.606 0 00.695-.494c.024.034.067.044.141.046.1.003.206-.01.311-.033.113-.026.225-.067.335-.118a.19.19 0 00.055.037c.124.06.295.033.454-.027a1.76 1.76 0 00.425-.24.433.433 0 00.126.033c.212.024.445-.09.661-.204.148-.078.098-.274-.05-.195z" fill="#365DA2"/><path d="M193.677 109.065h24.676l8.27-33.17h-24.675l-8.271 33.17z" fill="#fff"/><path d="M219.794 85.282h-16.345c-.203 0-.329-.165-.277-.368l.035-.138a.503.503 0 01.459-.369h16.347c.202 0 .326.166.276.369l-.035.138a.504.504 0 01-.46.368zm1.454-5.832H204.9c-.201 0-.326-.166-.274-.368l.034-.138a.504.504 0 01.459-.369h16.346c.203 0 .327.166.277.369l-.034.138a.507.507 0 01-.46.368zm-.504 2.025h-16.347c-.203 0-.327-.165-.277-.368l.035-.138a.504.504 0 01.46-.368h16.347c.202 0 .326.165.276.368l-.034.138a.505.505 0 01-.46.368zm-.476 1.905h-16.346c-.203 0-.327-.167-.276-.37l.033-.137a.506.506 0 01.461-.369h16.346c.203 0 .328.166.277.369l-.035.138a.504.504 0 01-.46.368zm-1.442 5.782H202.48c-.202 0-.327-.166-.276-.369l.035-.138a.503.503 0 01.46-.368h16.346c.202 0 .326.165.276.368l-.035.138a.503.503 0 01-.46.368zm.475-1.904h-16.344c-.204 0-.328-.166-.278-.369l.034-.138a.507.507 0 01.461-.368h16.346c.203 0 .327.166.277.368l-.035.138a.505.505 0 01-.461.369zm-15.335 13.785h-3.969c-.241 0-.39-.196-.329-.437a.6.6 0 01.546-.437h3.971c.239 0 .387.197.327.437a.599.599 0 01-.546.437zm12.162.001h-3.972c-.239 0-.387-.197-.327-.437a.6.6 0 01.546-.438h3.971c.241 0 .388.197.328.438a.6.6 0 01-.546.437z" fill="#B4CEF6"/><path d="M198.316 102.962c-.298 0-.601.243-.675.541l-.417 1.674a.43.43 0 00.066.38.405.405 0 00.329.149h5.79c.299 0 .601-.242.675-.541l.418-1.674a.43.43 0 00-.066-.38.406.406 0 00-.33-.149h-5.79zm5.093 2.79h-5.79a.452.452 0 01-.366-.166.482.482 0 01-.074-.421l.418-1.674c.079-.317.401-.575.719-.575h5.79c.152 0 .282.059.367.167a.476.476 0 01.073.42l-.416 1.674c-.08.317-.403.575-.721.575zm7.09-2.79c-.298 0-.6.243-.674.54l-.418 1.675a.43.43 0 00.067.38.405.405 0 00.329.149h5.791c.298 0 .6-.243.674-.541l.418-1.674a.44.44 0 00-.066-.38.41.41 0 00-.331-.149h-5.79zm5.095 2.79h-5.791a.452.452 0 01-.367-.167.48.48 0 01-.074-.42l.418-1.674c.078-.317.401-.575.719-.575h5.79c.152 0 .282.059.367.166a.478.478 0 01.075.42l-.418 1.675c-.08.317-.401.575-.719.575z" fill="#476BA7"/><path d="M212.563 104.241c-.01.048-.022.097-.003.132a.914.914 0 01-.086.057.497.497 0 01.009-.162c.041-.047.078-.096.113-.146a.895.895 0 00-.033.119zm.255-.217c-.009.024-.018.049-.029.072l-.025.049a.5.5 0 01.054-.121zm4.029-1.331a41.6 41.6 0 00-2.619 1.192c.035-.097.065-.195.092-.292.023-.078-.084-.13-.148-.044-.029.038-.06.075-.092.109.022-.07-.061-.109-.131-.058l-.012.011c.033-.094-.113-.108-.168-.017l-.081.136a.569.569 0 01-.263.175.49.49 0 01-.038-.146c-.003-.04-.032-.062-.067-.062-.001-.048-.045-.076-.109-.048a.606.606 0 00-.198.147c-.044-.081-.184-.023-.258.055l.006-.013c.036-.075-.029-.161-.117-.085a1.067 1.067 0 00-.325.474c-.05.058-.106.113-.165.164-.029.024-.164.149-.194.138-.03-.01-.014-.088-.002-.142l.016-.02c.111-.155.649-.886.271-.88a.138.138 0 00-.107.064 2.577 2.577 0 00-.31.662c-.012.043-.029.099-.044.157l-.033.044c-.151.197-.358.482-.602.58-.023-.31.133-.675.252-1 .05-.14.103-.279.158-.419a.124.124 0 00.052-.027c.264-.222.371-.551.252-.772-.035-.064-.14-.006-.17.062-.182.407-.346.816-.493 1.226-.131.363-.279.747-.224 1.082.005.036.046.049.085.04.278-.06.521-.308.716-.555a.12.12 0 00.076.068c.129.038.306-.106.434-.227.003.043.01.084.023.123.013.042.057.052.109.031.12-.048.233-.125.328-.219.126-.039.235-.142.327-.263a1.53 1.53 0 00.161-.161c.011.031.025.06.045.083.048.054.167.005.243-.03a.822.822 0 00.201-.132.378.378 0 00.137-.037c.009.013.02.025.033.034.048.032.103.019.159-.015-.012.035-.024.071-.039.106a33.19 33.19 0 00-.377.193c-.084.043-.104.17-.01.163l.347-.027a.14.14 0 00.116-.087c.021-.046.04-.093.058-.139.904-.453 1.818-.87 2.738-1.251.117-.048.078-.199-.039-.151zm-17.867 2.089c.009.041-.03.094-.062.132-.012.014-.022.026-.037.037l-.026.015-.009.002c-.007-.013-.018-.018-.033-.018a3.4 3.4 0 00.042-.09c.021-.043.102-.164.125-.078zm1.685-2.627c-.312.578-.487 1.172-.739 1.758-.124.285-.269.57-.457.839-.132.188-.418.596-.661.508-.059-.022-.076-.074-.058-.145l.015-.048c.032.019.08.011.127-.014a.454.454 0 00.179-.2c.035-.078.03-.16-.032-.195-.057-.031-.14-.004-.199.055-.065.066-.093.149-.125.224-.04.092-.093.193-.087.282.009.133.153.181.295.15.171-.038.323-.188.437-.324.137-.16.256-.331.36-.506.21-.355.361-.724.501-1.09.163-.423.314-.849.539-1.266.036-.068-.058-.096-.095-.028zm1.781 1.794c.007-.011.038-.045.033-.022a.19.19 0 01-.044.055.086.086 0 01.011-.033zm-.26.003a.657.657 0 01-.138.13c.03-.062.095-.133.138-.13zm-.946.215a.44.44 0 01-.115.166l-.023.021c.04-.063.091-.126.138-.187zm-.608.285a.971.971 0 01.225-.28c.041.045.077.105.024.176-.031.04-.079.072-.118.103a4.858 4.858 0 01-.17.134c-.016-.031.023-.1.039-.133zm2.118-.491c-.062.034-.131.072-.197.083a.215.215 0 01-.051.001c.048-.047.091-.101.099-.153.011-.084-.081-.103-.16-.06a.234.234 0 00-.119.181.104.104 0 00.009.059c-.068.049-.183.116-.255.103a.977.977 0 00.235-.232c.012-.018.012-.041.003-.053-.039-.052-.12-.055-.197-.015a.397.397 0 00-.17.204.227.227 0 00-.022.075.58.58 0 01-.251.056v-.001c.026-.025.053-.049.077-.074.038-.038.016-.077-.02-.082-.08-.011-.138.057-.161.126a2.33 2.33 0 01-.398.288c-.035.021-.082.062-.106.036.059-.043.112-.091.162-.143.095-.101.189-.281.077-.343a.067.067 0 00-.081.019l-.149.198c-.042.058-.087.115-.115.178a.27.27 0 00-.016.062 1.076 1.076 0 01-.158.082l-.012.005.087-.07c.081-.067.157-.145.16-.239.004-.087-.051-.148-.103-.2-.015-.013-.047-.007-.068.009-.16.121-.29.283-.354.454-.02.054-.028.111-.005.148-.142.109-.285.214-.43.317-.015.011-.053.045-.067.04-.014-.005-.009-.038-.009-.053a1.252 1.252 0 01.073-.393c.029-.08.066-.158.111-.235.017.007.04.006.06-.011.109-.089.163-.205.153-.314-.004-.038-.066-.033-.094 0-.27.306-.43.686-.415 1.016.002.073.036.134.133.094.044-.019.086-.053.127-.082.052-.037.106-.075.158-.114.098-.072.197-.145.294-.22a.485.485 0 00.174-.039c.068-.025.137-.057.201-.096.019.034.054.055.105.05.054-.005.127-.059.177-.089a2.697 2.697 0 00.332-.237c.012.017.032.021.068.022a.549.549 0 00.149-.016.824.824 0 00.16-.056.12.12 0 00.026.018c.06.029.142.015.217-.013a.833.833 0 00.205-.115.23.23 0 00.06.016c.101.011.213-.043.316-.098.071-.037.047-.131-.025-.094z" fill="#365DA2"/><path d="M184.386 145.584h24.676l8.27-33.171h-24.676l-8.27 33.171z" fill="#fff"/><path d="M210.995 122.106h-16.346c-.202 0-.327-.166-.276-.369l.034-.138a.504.504 0 01.46-.368h16.347c.202 0 .326.166.276.368l-.034.138a.506.506 0 01-.461.369zm1.454-5.833h-16.346c-.203 0-.327-.166-.276-.368l.034-.138a.505.505 0 01.46-.368h16.346c.202 0 .328.166.277.368l-.035.138a.505.505 0 01-.46.368zm-.505 2.026h-16.346c-.202 0-.327-.166-.276-.368l.035-.138a.505.505 0 01.46-.369h16.347c.202 0 .327.166.276.369l-.035.138a.504.504 0 01-.461.368zm-.476 1.904h-16.344c-.203 0-.328-.166-.277-.369l.033-.138a.506.506 0 01.461-.368h16.346c.204 0 .328.166.277.368l-.034.138a.506.506 0 01-.462.369zm-1.439 5.782h-16.348c-.201 0-.326-.166-.275-.369l.034-.138a.504.504 0 01.46-.368h16.347c.202 0 .327.165.275.368l-.033.138a.507.507 0 01-.46.369zm.474-1.904h-16.346c-.204 0-.327-.166-.277-.368l.035-.138a.505.505 0 01.459-.369h16.347c.203 0 .327.166.277.369l-.034.138a.507.507 0 01-.461.368zm-15.827 13.481h-3.971c-.241 0-.388-.196-.328-.437a.599.599 0 01.546-.438h3.971c.24 0 .388.197.328.438a.599.599 0 01-.546.437zm12.161.001h-3.97c-.241 0-.388-.197-.329-.438a.6.6 0 01.548-.438h3.969c.241 0 .388.197.328.438a.599.599 0 01-.546.438z" fill="#B4CEF6"/><path d="M189.026 139.48c-.297 0-.6.243-.674.541l-.418 1.674a.442.442 0 00.065.38.41.41 0 00.331.15h5.791c.297 0 .6-.243.674-.541l.417-1.674a.435.435 0 00-.066-.38.404.404 0 00-.33-.15h-5.79zm5.095 2.791h-5.791a.455.455 0 01-.367-.167.477.477 0 01-.074-.42l.417-1.674c.079-.318.403-.576.72-.576h5.79c.153 0 .284.059.366.167a.477.477 0 01.076.42l-.417 1.674c-.079.318-.403.576-.72.576zm7.087-2.791c-.296 0-.599.243-.673.541l-.418 1.674a.44.44 0 00.065.38c.077.096.193.15.331.15h5.789c.298 0 .601-.243.676-.541l.418-1.674a.432.432 0 00-.068-.38.405.405 0 00-.329-.15h-5.791zm5.094 2.791h-5.789a.457.457 0 01-.368-.167.483.483 0 01-.073-.42l.417-1.674c.08-.318.402-.576.719-.576h5.791a.45.45 0 01.366.167.476.476 0 01.075.42l-.417 1.674c-.079.318-.402.576-.721.576z" fill="#476BA7"/><path d="M203.273 140.759c-.009.049-.021.097-.002.132a.914.914 0 01-.086.057.449.449 0 01.009-.162 2.55 2.55 0 00.112-.145c-.013.041-.026.081-.033.118zm.254-.217a.37.37 0 01-.028.072.33.33 0 01-.026.049.916.916 0 01.054-.121zm4.03-1.331c-.879.364-1.754.761-2.618 1.192a3.94 3.94 0 00.092-.292c.022-.078-.084-.129-.149-.044a1.072 1.072 0 01-.092.11c.023-.07-.06-.11-.13-.058l-.014.01c.035-.094-.112-.108-.165-.017l-.082.136a.57.57 0 01-.262.176.415.415 0 01-.039-.147c-.005-.04-.032-.062-.067-.062-.003-.047-.045-.076-.11-.047a.59.59 0 00-.199.147c-.043-.082-.182-.023-.256.054l.007-.013c.034-.075-.032-.16-.12-.084a1.07 1.07 0 00-.324.474 1.802 1.802 0 01-.164.163c-.03.025-.165.149-.194.138-.03-.01-.014-.087-.001-.142l.014-.019c.112-.156.65-.887.27-.881a.135.135 0 00-.105.064 2.535 2.535 0 00-.31.663c-.013.043-.03.098-.044.156l-.034.045c-.149.197-.358.481-.603.579-.022-.309.134-.675.252-1 .051-.14.104-.279.16-.419a.13.13 0 00.052-.027c.262-.221.371-.551.251-.772-.034-.063-.139-.006-.168.062-.182.407-.347.816-.495 1.226-.131.363-.279.747-.224 1.083.005.035.047.048.085.039.28-.059.52-.308.717-.555a.113.113 0 00.076.068c.129.038.306-.105.433-.226a.624.624 0 00.022.122c.014.042.059.052.111.032.12-.048.232-.126.327-.22.125-.038.236-.142.328-.263.057-.05.111-.104.162-.16.01.031.024.059.044.082.047.054.167.004.242-.03a.747.747 0 00.2-.132.383.383 0 00.139-.037.103.103 0 00.032.034c.049.032.103.02.16-.015l-.039.106a33.71 33.71 0 00-.378.193c-.083.043-.103.17-.009.163l.347-.026c.052-.004.093-.038.115-.088.021-.046.04-.092.059-.139.904-.453 1.817-.87 2.737-1.25.118-.049.078-.2-.039-.152zm-17.868 2.089c.011.041-.029.096-.061.133-.012.014-.022.026-.037.036l-.026.015-.008.002a.04.04 0 00-.035-.018l.043-.09c.02-.043.101-.163.124-.078zm1.685-2.627c-.311.579-.485 1.173-.738 1.758a4.784 4.784 0 01-.457.84c-.131.188-.418.595-.66.508-.061-.023-.079-.075-.058-.145l.014-.048c.032.018.079.011.127-.015a.451.451 0 00.179-.199c.036-.079.029-.161-.033-.196-.056-.031-.14-.003-.197.056-.065.065-.096.148-.127.223-.039.093-.092.193-.086.282.009.134.153.181.294.15.171-.038.323-.187.439-.324.135-.16.254-.331.358-.506.212-.355.361-.724.502-1.089.162-.424.315-.85.538-1.266.037-.068-.057-.097-.095-.029zm1.783 1.795c.006-.011.037-.046.032-.022a.189.189 0 01-.044.054.07.07 0 01.012-.032zm-.26.003a.74.74 0 01-.138.13c.028-.062.094-.134.138-.13zm-.946.215a.468.468 0 01-.117.167l-.022.02c.04-.063.09-.126.139-.187zm-.608.285c.053-.105.13-.2.225-.28.04.045.076.105.022.176-.031.039-.079.072-.118.103a6.861 6.861 0 01-.133.106l-.037.027c-.014-.03.023-.099.041-.132zm2.118-.491c-.064.034-.132.072-.198.083a.21.21 0 01-.05.001c.046-.046.089-.102.097-.153.012-.084-.08-.103-.16-.06a.241.241 0 00-.119.181.115.115 0 00.01.059c-.068.049-.184.116-.256.102a.861.861 0 00.234-.232c.013-.017.013-.04.005-.053-.039-.051-.12-.055-.198-.015a.4.4 0 00-.191.28.627.627 0 01-.252.057v-.003c.027-.023.052-.049.078-.073.038-.039.016-.078-.02-.082-.079-.011-.138.057-.161.126-.124.11-.257.207-.397.288-.036.021-.084.061-.108.036.058-.043.113-.091.163-.143.095-.101.19-.281.076-.343a.064.064 0 00-.08.019c-.05.066-.1.132-.148.198-.044.058-.089.114-.117.178a.267.267 0 00-.015.062 1.08 1.08 0 01-.158.082l-.013.005.087-.07c.083-.068.157-.146.162-.239.004-.086-.052-.148-.104-.2-.015-.014-.048-.007-.069.009a1.076 1.076 0 00-.354.453c-.02.055-.027.112-.004.149-.142.108-.286.214-.431.317-.014.01-.052.045-.066.039-.014-.004-.01-.037-.01-.052a1.185 1.185 0 01.074-.393c.028-.08.066-.158.109-.235a.06.06 0 00.062-.012c.109-.089.164-.204.153-.313-.005-.039-.065-.033-.095 0-.269.306-.43.685-.415 1.016.003.073.035.134.133.093.045-.018.086-.052.128-.081l.157-.114c.099-.072.198-.145.295-.22a.463.463 0 00.174-.04c.068-.024.136-.056.2-.095.019.033.054.055.106.049.053-.005.127-.058.177-.088a2.693 2.693 0 00.331-.237c.012.016.033.022.068.023a.7.7 0 00.31-.073c.007.006.015.013.026.018.059.028.141.015.217-.014a.841.841 0 00.204-.114c.019.008.04.014.06.016.101.01.214-.043.317-.098.07-.037.046-.131-.024-.094z" fill="#365DA2"/><path d="M71.547 192.172l2.526-.034s-3.798-4.215-4.963-6.359l-3.207-5.922-4.197 1.038 5.327 7.549 4.514 3.728z" fill="#E49963"/><path d="M47.856 76.938c-.968-.55-2.128-.61-2.94-.563.21-.215.62-.294.62-.294-.503-.075-1.626.425-1.626.425-7-2.697-8.1 7.609-7.953 10.004.146 2.394-2.352 3.176-5.994 5.063-6.948 3.6-7.558 8.42-7.558 8.42.054.031.11.067.17.109.345-.585 1.055-1.681 1.653-1.847-.023.053-.707 1.51-.962 2.345 2.05 1.559 5.884 5.015 8.557 7.465-.012-.48.007-1.159.182-1.518l.33 1.988a369.05 369.05 0 012.416 2.24c-.176-1.935 8.752-12.146 13.41-15.204 1.134-1.67 1.536-4.619 1.567-4.851-.196 2.339-.596 3.65-.954 4.39 3.945-3.631 1.648-16.714-.918-18.172z" fill="#163560"/><path d="M47.885 95.723c.023.011-2.25 1.19-3.958.722-1.608-.437-2.658-2.522-2.636-2.527.68-.135.877-1.07.863-5.09l.307.06 5.176 1.024s-.118 1.629-.122 3.163c-.003 1.288.075 2.51.37 2.648z" fill="#E49963"/><path d="M42.032 78.626s2.553-2.718 5.759-.14c0 0-1.866-.321-5.759.14z" fill="#E37970"/><path d="M47.637 89.912s-.118 1.629-.122 3.163c-2.896-.081-4.426-2.723-5.054-4.188l5.176 1.025z" fill="#D68D5D"/><path d="M41.927 88.324s-1.518-2.398-1.882-4.449c-.26-1.464.485-6.89 5.938-6.109 0 0 1.584.157 3.073 1.163 1.184.799 2.892 2.525.982 7.26l-.496 1.6-7.615.535z" fill="#163560"/><path d="M68.264 183.708l-2.743.085-2.97.091s-6.858-7.637-10.706-19.879c-.09-.284-.184-.572-.284-.863-2.106-6.14-6.471-13.847-8.771-20.822a115.336 115.336 0 01-1.264-4.082c-1.695-5.89-2.186-9.758-2.639-13.889l14.689.118s4.603 28.229 14.688 59.241z" fill="#80BDCC"/><path d="M53.172 114.937c.195 7.902 1.16 11.295 1.16 11.295s-7.112 3.614-15.565.955c-.1-.032.548-32.654 2.945-33.552.552.685 2.195 1.353 3.657 1.321 1.684-.037 2.23-.759 2.142-1.545 1.795.998 5.383 10.212 5.661 21.526z" fill="#E7F1FD"/><path d="M48.604 91.365s-6.852.114-6.857-4.155c-.005-4.268-.892-7.128 3.482-7.38 4.375-.253 5.227 1.374 5.575 2.799.348 1.424-.418 8.597-2.2 8.736z" fill="#E49963"/><path d="M50.6 80.255c-1.057-1.281-1.857-1.002-2.306-.618-1.48-2.213-6.16.987-6.16.987-2.303 2.194-2.667 4.818-2.667 4.818s1.249.771 4.128.03c2.266-.582 3.91-3.807 4.508-5.155.407.362 1.267 1.199 1.525 2.018.341 1.088.495 3.325 1.147 3.249 0 0 1.414-3.404-.175-5.329z" fill="#163560"/><path d="M76.176 98.449s.966-3.481 4.793-2.99c.44.138 1.723.65.903 2.024-.605 1.013-.867.49-1.818 1.852-.951 1.361-1.984 1.668-3.163 1.505l-.715-2.391zM43.47 191.928c-.233-1.282-.677-3.5-.677-3.5l.103-7.87h-4.78l1.79 7.533c.036.35.134 1.707-.368 3.145 0 0-.46 2.092 1.6 2.13 2.06.04 2.565-.155 2.332-1.438z" fill="#E49963"/><path d="M39.538 191.236s-.408 2.207-.175 3.257h4.327s.018-2.397-.36-3.311c0 0-1.46 2.192-3.792.054zm34.577.924a.278.278 0 01-.042-.022c-1.011.032-2.029-.339-2.951-1.377-2.805-3.161-4.382-3.514-4.932-3.512-.474.976-.997 2.073-.324 3.308l1.005 3.936h1.083l.01-3.716c.714.188 1.41.529 1.72 1.15.758 1.515 1.284 2.566 1.988 2.566h4.869s-.094-1.283-2.426-2.333z" fill="#C45446"/><path d="M76.176 98.448s-4.498 2.516-6.104 3.24a505.34 505.34 0 00-4.51 2.099 2.317 2.317 0 01-2.746-.592c-2.438-2.849-8.756-9.026-15.275-9.784l.008.016-.038-.016s3.965 9.794 4.081 11.775c.117 1.982.467 32.412.467 32.412s-.233 1.399 2.448.816c2.682-.583 3.381-1.165 3.381-1.165s-2.565-18.771-1.865-25.3c.138-1.287.012-2.734-.277-4.228 3.971 2.415 8.671 3.489 8.671 3.489s3.514-1.533 8.317-5.052c1.507-1.104 4.157-5.318 4.157-5.318l-.715-2.392z" fill="#E37970"/><path d="M65.52 183.793l-2.968.091s-6.86-7.637-10.707-19.879c-.09-.284-.184-.572-.284-.863-2.106-6.14-6.471-13.847-8.771-20.822a116.107 116.107 0 01-1.264-4.082l2.446-1.856s7.344 11.892 9.617 23.083c1.975 9.721 9.885 21.418 11.932 24.328z" fill="#5F9AA8"/><path d="M57.724 110.131l-.145.444-7.687-2.5s-.102-.117-.049-.272c.058-.172.193-.171.193-.171l7.688 2.499z" fill="#163560"/><path d="M44.227 160.508c.042 5.442-.233 17.954-.942 23.134h-2.63c-1.454 0-2.18-.02-2.18-.02-1.777-9.007-3.042-16.459-3.963-22.881-.756-5.27-1.427-9.788-1.944-13.677-.52-3.914-.881-7.191-1.01-9.961a42.353 42.353 0 01-.05-2.478l14.351-1.399c-.18 9.536-1.655 24.119-1.632 27.282z" fill="#80BDCC"/><path d="M40.655 183.642c-1.454 0-2.18-.02-2.18-.02-1.777-9.007-3.042-16.459-3.963-22.881-.756-5.27-1.427-9.788-1.944-13.677-.52-3.914-.881-7.191-1.01-9.961l5.266 3.098s-3.361 1.187-2.079 10.164c1.283 8.977 4.125 32.007 5.91 33.277z" fill="#5F9AA8"/><path d="M41.333 137.016s-1.011 3.652-4.509 3.185c-3.497-.465-8.471-2.565-8.471-2.565s1.495-4.723 3.353-10.928c2.25-7.511 5.035-17.195 6.348-23.303.369-1.711.62-3.141.714-4.165l2.944-5.605s4.284 9.686 4.517 12.135c.233 2.448-4.896 31.246-4.896 31.246z" fill="#E37970"/><path d="M41.178 110.899c-.157 3.964-1.09 11.659-9.406 15.778-.022.011-.044.023-.066.031 2.25-7.511 5.035-17.195 6.348-23.303 1.527 2.283 3.209 5.311 3.124 7.494z" fill="#C45446"/><path d="M56.226 108.731c-.004.475-1.375 3.788-3.79 5.766-.467.384-.842.57-1.14.621-3.932 1.346-7.345 2.045-10.115 2.385v-4.387c3.422-.219 7.638-.448 9.373-.541.286-.455.62-1.099.733-1.75.208-1.207.854-2.101 2.537-2.323 1.683-.221 2.407-.245 2.402.229z" fill="#E49963"/><path d="M79.472 94.334l7.775 5.056c.098.063.169.286.135.398l-3.74 12.659c-.053.178-.233.208-.381.097l-7.542-5.648c-.088-.065-.153-.138-.123-.243l3.435-12.119c.05-.17.291-.297.44-.2z" fill="#163560"/><path d="M79.198 94.151l7.842 5.106a.265.265 0 01.11.298l-3.742 12.659a.265.265 0 01-.413.137l-7.536-5.647a.265.265 0 01-.096-.284l3.435-12.119a.265.265 0 01.4-.15z" fill="#1C468A"/><path d="M79.151 94.708l7.608 4.853-3.454 11.144-7.17-5.188 3.016-10.81z" fill="#fff"/><path d="M78.563 108.315a.31.31 0 11.622 0 .31.31 0 01-.622 0z" fill="#163560"/><path d="M81.728 108.971l-3.67-2.565 2.53-10.243 3.67 2.564-2.53 10.244z" fill="#fff"/><path d="M82.478 103.013a.034.034 0 01-.018-.006l-2.431-1.699c-.03-.021-.042-.089-.027-.152l.01-.043c.013-.049.04-.081.065-.081.006 0 .013.002.019.006l2.43 1.699c.03.02.043.089.027.152l-.01.042c-.013.05-.04.082-.065.082zm.445-1.802a.043.043 0 01-.019-.005l-2.43-1.7c-.03-.02-.042-.09-.027-.151l.01-.043c.013-.05.04-.081.065-.081a.04.04 0 01.019.005l2.43 1.699c.03.022.042.09.027.152l-.01.043c-.013.05-.04.081-.065.081zm-.154.626a.033.033 0 01-.019-.006l-2.43-1.698c-.03-.022-.043-.09-.027-.152l.01-.043c.013-.05.039-.082.064-.082.007 0 .013.002.019.006l2.43 1.699c.03.022.043.09.027.152l-.01.043c-.013.05-.039.081-.064.081zm-.145.588a.028.028 0 01-.02-.006l-2.43-1.699c-.03-.021-.042-.09-.027-.152l.01-.043c.013-.05.04-.081.065-.081a.03.03 0 01.019.007l2.43 1.698c.03.021.043.089.027.152l-.01.042c-.013.051-.039.082-.064.082zm-.441 1.786a.035.035 0 01-.02-.007l-2.43-1.698c-.03-.021-.042-.09-.026-.152l.01-.043c.012-.05.039-.081.064-.081.006 0 .013.001.019.005l2.43 1.699c.03.022.043.09.027.152l-.01.043c-.013.05-.039.082-.064.082zm.145-.588a.035.035 0 01-.02-.006l-2.43-1.698c-.03-.022-.042-.09-.026-.152l.01-.043c.013-.05.039-.083.064-.083.007 0 .013.003.019.007l2.43 1.699c.03.02.043.089.027.152l-.01.043c-.012.049-.039.081-.064.081zm-.608 2.429a.033.033 0 01-.023-.008l-.59-.413c-.036-.024-.05-.105-.032-.179.015-.06.046-.098.076-.098.008 0 .016.002.023.008l.59.413c.036.024.05.106.032.18-.015.06-.046.097-.076.097zm-1.809-1.264a.046.046 0 01-.022-.007l-.59-.413c-.036-.025-.05-.106-.032-.181.014-.059.046-.096.076-.096.007 0 .015.002.022.007l.59.412c.036.026.05.107.032.181-.015.059-.046.097-.076.097z" fill="#B4CEF6"/><path d="M80.843 106.149c-.037 0-.075.05-.092.12l-.128.517c-.022.091-.005.194.038.225l.861.601.026.009c.036 0 .074-.05.092-.12l.127-.517c.023-.091.005-.195-.038-.225l-.86-.601-.026-.009zm.705 1.482a.053.053 0 01-.032-.01l-.86-.602c-.048-.033-.067-.139-.043-.236l.127-.517c.02-.076.06-.127.103-.127a.06.06 0 01.031.009l.861.603c.048.033.067.139.043.235l-.128.518c-.019.076-.06.127-.102.127zm-2.517-2.747c-.037 0-.074.049-.092.119l-.127.517c-.023.091-.005.194.038.225l.86.601.026.009c.037 0 .075-.049.092-.12l.128-.517c.022-.092.005-.195-.038-.225l-.862-.601-.025-.008zm.705 1.482a.055.055 0 01-.031-.011l-.861-.602c-.048-.033-.067-.139-.043-.236l.128-.517c.019-.076.06-.127.102-.127a.06.06 0 01.032.009l.86.603c.048.033.067.139.043.235l-.127.517c-.02.077-.06.129-.103.129zm1.121-8.788c.045-.186.15-.29.246-.223.06.042.081.111.096.19l-.066.071c-.013-.063-.027-.104-.063-.13-.053-.036-.113.028-.141.142-.028.112-.014.231.04.268.036.025.065.011.101-.019l.02.129c-.05.049-.095.063-.156.021-.092-.064-.124-.26-.077-.45zm.583.407c.027-.112.01-.232-.045-.272-.055-.038-.117.026-.144.14-.028.112-.012.232.044.271.055.039.117-.025.145-.139zm-.262-.183c.046-.185.154-.288.25-.22.097.068.13.266.084.454-.046.185-.154.287-.25.219-.097-.067-.13-.265-.084-.453zm.476-.049l.063.044.048.504.1-.401.067.048-.16.65-.06-.04-.049-.52-.102.414-.068-.048.16-.65zm.394.43l-.095-.066.032-.133.26.182-.032.132-.096-.067-.128.52-.07-.049.13-.519zm.311.434c.033.023.062 0 .076-.057.015-.062.002-.108-.031-.132l-.069-.048-.046.187.07.05zm-.06-.415l.142.101c.04.028.066.073.076.13a.416.416 0 01-.01.17c-.027.105-.07.152-.118.155l.02.285-.081-.055-.017-.257-.053-.037-.052.208-.069-.048.161-.651zm.41.732l.01-.24-.094.181.084.06zm.022-.434l.063.045-.027.749-.072-.05.007-.166-.132-.093-.065.126-.07-.05.296-.561zm.131.478c.045-.184.15-.289.246-.221.06.04.081.11.096.19l-.066.07c-.013-.062-.027-.104-.063-.129-.053-.037-.113.027-.141.141-.028.112-.014.23.04.268.036.026.065.01.102-.018l.02.128c-.05.05-.096.063-.157.02-.092-.064-.124-.26-.077-.449zm.465.099l-.095-.067.032-.131.26.18-.032.133-.096-.066-.128.519-.07-.048.129-.52z" fill="#476BA7"/><path d="M81.15 106.819c-.003.016-.006.031-.004.045l-.015.011c0-.018.003-.037.006-.055a.376.376 0 00.02-.038.555.555 0 00-.007.037zm.043-.048l-.006.022-.005.014a.356.356 0 01.011-.036zm.636-.037a2.8 2.8 0 00-.422.137l.022-.091c.005-.025-.009-.053-.021-.03-.005.009-.01.019-.017.027.005-.022-.006-.043-.018-.033l-.002.002c.008-.028-.013-.049-.024-.023l-.016.038c-.012.021-.028.032-.044.032a.344.344 0 01-.001-.053c0-.014-.004-.025-.009-.029.001-.016-.004-.03-.015-.027a.067.067 0 00-.033.029c-.004-.032-.027-.027-.04-.007l.001-.005c.008-.021 0-.057-.015-.04a.3.3 0 00-.061.128.254.254 0 01-.03.039l-.032.028c-.004-.007 0-.031.004-.05l.003-.005c.02-.041.12-.236.064-.273-.006-.004-.013 0-.017.011a1.035 1.035 0 00-.065.195l-.01.049-.007.012c-.028.051-.066.127-.105.135.005-.108.038-.217.065-.316.01-.043.023-.085.035-.128l.008-.003c.046-.049.07-.151.059-.238-.004-.026-.02-.018-.027.003a8.318 8.318 0 00-.107.369c-.03.111-.062.227-.063.348 0 .013.005.021.011.022.043.009.086-.051.122-.115a.07.07 0 00.01.031c.018.026.048-.005.07-.032v.043c.001.016.007.024.016.023.019-.004.038-.019.054-.042.02 0 .04-.023.056-.056a.28.28 0 00.029-.038c0 .012.002.022.004.033.006.024.025.018.037.015a.086.086 0 00.034-.024l.021.001.004.015c.006.016.015.018.024.011l-.009.032a.84.84 0 01-.061.027c-.014.007-.02.048-.006.056l.052.027c.008.004.015-.004.02-.019l.013-.041a3.02 3.02 0 01.44-.145c.02-.004.018-.06 0-.055zm-2.699-1.13a.07.07 0 01-.013.038l-.007.009-.004.003h-.001l-.005-.01.009-.026c.004-.013.02-.046.02-.014zm.322-.726c-.062.166-.104.351-.158.526a1.652 1.652 0 01-.09.24c-.025.051-.08.161-.113.105a.072.072 0 01-.004-.055l.003-.014.02.007c.012-.006.024-.028.031-.049.008-.024.01-.053 0-.071-.007-.016-.02-.016-.03-.002-.012.016-.018.042-.025.064-.008.028-.019.057-.02.088-.003.046.017.078.039.081.026.006.053-.03.074-.065a.956.956 0 00.067-.136c.041-.099.074-.211.105-.322.036-.128.07-.258.115-.378.007-.019-.006-.039-.014-.019zm.216.801l.005-.005-.008.014.003-.009zm-.039-.026a.14.14 0 01-.024.03c.006-.018.018-.037.024-.03zm-.147-.026a.122.122 0 01-.021.046l-.004.005a.578.578 0 01.026-.051zm-.098.036a.224.224 0 01.041-.073c.005.019.009.044-.001.063-.006.01-.014.016-.02.022l-.023.023-.006.005c-.002-.012.006-.031.01-.04zm.329.051c-.01.005-.022.012-.032.008l-.007-.005a.095.095 0 00.018-.043c.004-.026-.009-.043-.022-.036-.011.005-.02.028-.023.049v.022c-.011.009-.03.02-.04.008a.164.164 0 00.04-.054l.003-.019c-.005-.022-.017-.031-.03-.025-.013.006-.023.029-.03.052l-.005.024a.042.042 0 01-.04-.007v-.001l.014-.017v-.03c-.012-.012-.023.005-.028.026a.258.258 0 01-.067.058c-.006.003-.014.012-.017.001.01-.009.02-.02.028-.033.017-.024.036-.075.021-.109l-.012-.002-.028.053a.278.278 0 00-.022.049l-.004.019-.026.012h-.002l.015-.015a.099.099 0 00.03-.064.222.222 0 00-.01-.081l-.01-.003a.257.257 0 00-.065.119.124.124 0 00-.005.05 1.675 1.675 0 01-.072.065l-.011.006v-.019a.63.63 0 01.044-.196l.01.002a.139.139 0 00.03-.092c.001-.014-.008-.018-.013-.01a.68.68 0 00-.09.305c-.001.026.002.051.018.046l.02-.014.027-.023a.968.968 0 00.05-.045l.027.005a.088.088 0 00.033-.013c.001.014.006.025.014.029l.029-.013a.16.16 0 00.028-.02l.027-.026.01.014.023.011.025-.003.003.009c.008.015.021.02.033.018a.06.06 0 00.034-.019l.008.012c.015.015.033.008.05 0 .011-.005.01-.04-.001-.035z" fill="#365DA2"/><path d="M58.276 110.559l-.552-.428-.144.444.697-.016z" fill="#163560"/><path d="M41.712 93.635s-7.142.476-8.851 4.284c-1.71 3.809-2.254 16.478-.078 20.209 0 0 2.996.853 8.295-.138l.196-.037s1.69-4.139.175-4.955c0 0-4.469.233-4.003-1.244.467-1.477 4.267-18.12 4.267-18.12z" fill="#E37970"/><path d="M213.028 189.389s.305 5.038-.612 5.111c-.123.01-4.657.01-4.657.01l-5.786-.037s.038-1.496 1.729-1.813c1.692-.317 4.663-1.478 5.165-4.063.504-2.585 4.161.792 4.161.792zm-11.019 0s.305 5.038-.614 5.111c-.121.01-4.655.01-4.655.01l-5.787-.037s.037-1.496 1.729-1.813c1.692-.317 4.663-1.478 5.167-4.063.503-2.585 4.16.792 4.16.792z" fill="#163560"/><path d="M226.184 152.871l5.07 1.748s3.228-6.568 4.014-7.461c.897-1.017 1.54-8.85 1.946-15.933.354-6.195.528-11.819.528-11.819s-1.726.392-2.855 3.307c-1.931 4.996-1.916 14.751-2.991 19.781-.618 2.897-4.667 9.965-5.712 10.377z" fill="#699DEE"/><path d="M231.254 154.62c1.933-2.25 3.227-6.569 4.014-7.462.895-1.017 5.139-6.8 1.174-15.894-1.942 5.751-.321 8.885-.932 12.28-.606 3.367-4.079 8.826-4.256 11.076z" fill="#3B76CA"/><path d="M245.897 192.276s.474.421 1.598.421c1.273 0 1.597-.421 1.597-.421v-17.88h-3.195v17.88z" fill="#D86713"/><path d="M228.317 167.131l.005.04c.111.796.268 1.538.459 2.215.365 1.316.842 2.388 1.29 3.141 1.731 2.919 5.013 6.167 12.882 7.228.382.05.776.098 1.179.139a42.267 42.267 0 002.471.173c.052.003.103.004.156.005 2.289-.056 4.851-.476 7.707-1.154 5.864-1.391 9.684-4.254 12.099-7.738l.002-.002c.204-.296.399-.596.587-.899.481-.792.899-1.611 1.255-2.446 1.342-3.134 1.856-6.512 1.904-9.645-.045-2.974-.506-5.658-1.02-7.566-.4-1.489-1.02-2.904-1.864-4.15a11.283 11.283 0 00-.713-.948 10.518 10.518 0 00-2.892-2.435c-2.801-1.597-12.012-3.187-19.816.932-14.365 7.578-16.527 16.94-15.691 23.11z" fill="#E57970"/><path d="M230.73 173.537c2.291 2.666 4.353 5.398 12.223 6.273a49.31 49.31 0 003.494.253c.053.002.104.004.156.004.051.003.103.004.156.005 2.288-.056 4.849-.476 7.706-1.154 5.864-1.391 9.683-4.255 12.101-7.738v-.001c.205-.297.4-.596.586-.9-4.449-1.062-13.95-2.923-23.391-2.163-5.12.413-10.434.869-14.98 1.27-.154.013 1.193 3.272 1.949 4.151z" fill="#C65447"/><path d="M257.675 126.784a28.218 28.218 0 00-.235-.891c-1.125-3.978-2.958-6.862-5.837-7.335-.362.984-3.887 2.619-6.972 2.459-.341-.017-.843-.479-.85-.482-2.435-.343-3.595-1.649-3.481-1.825-.101.008-2.558.697-2.558.697-2.13 9.319-2.385 14.498.18 27.79.935 4.854-.496 7.492-.18 7.81.555.556 6.695.715 11.632.907.593.021 1.177.043 1.746.061 3.609.119 6.581.16 6.581.16.245-.306.697-3.122 1.004-7.088.493-6.334.622-15.598-1.03-22.263z" fill="#699DEE"/><path d="M249.907 119.007l-2.935 2.431-4.469-.691c.042-.43.265-2.296.457-3.887.156-1.3.293-2.416.293-2.416l5.338-2.136.161-.064-.004.08c-.016.214-.025.423-.029.629-.091 3.647 1.188 6.054 1.188 6.054z" fill="#E49963"/><path d="M237.587 169.209c-14.939 1.072-19.59.878-20.114 1.596-3.298 4.52-3.631 5.3-10.321 14.355a1433.684 1433.684 0 01-4.587 6.17h-6.985s7.536-14.379 13.56-24.12c2.378-3.846 4.522-6.968 5.872-8.199 4.669-4.255 23.271-4.157 23.271-4.157s16.15-.39 17.421 2.002c.276.521-6.868 11.543-18.117 12.353z" fill="#1C468A"/><path d="M237.587 169.209c-14.939 1.072-19.59.878-20.114 1.596-3.298 4.52-3.631 5.3-10.321 14.355l1.988-17.95c2.378-3.846 4.522-6.968 5.872-8.199 4.669-4.255 23.271-4.156 23.271-4.156s16.15-.391 17.421 2.001c.276.521-6.868 11.543-18.117 12.353z" fill="#163560"/><path d="M246.169 121.075l-2.941-.312s-.368.081-.297.544c.07.462 1.04 1.716 1.406 1.779.364.062 2.628-1.16 1.832-2.011z" fill="#365DA4"/><path d="M257.083 159.338s-.498 9.047-11.747 9.855c-14.938 1.074-18.021.719-18.997 1.633-4.803 4.488-1.629 5.441-12.888 20.504h-7.07s8.631-28.588 12.54-32.008c4.746-4.154 24.137-4.467 24.137-4.467s12.925-.995 14.196 1.397c.276.52-.171 3.086-.171 3.086z" fill="#1C468A"/><path d="M242.952 179.755c0 .045 1.55.267 2.396.305a18.946 18.946 0 001.41.013c2.29-.058 4.85-.478 7.708-1.155 7.658-1.817 11.83-6.148 13.941-11.086 1.342-3.134 1.856-6.512 1.904-9.645-.045-2.974-.506-5.658-1.018-7.566-.4-1.489-1.02-2.903-1.864-4.15a10.26 10.26 0 00-.531-.72c-.058-.077-.121-.152-.182-.227-5.277 5.519-21.225 23.066-23.764 34.231z" fill="#E57970"/><path d="M243.353 179.755c0 .044 1.549.267 2.395.305a17.058 17.058 0 00.736.018l.273-.006c2.291-.057 4.851-.477 7.709-1.154 7.658-1.817 11.83-6.148 13.941-11.086 1.342-3.134 1.856-6.513 1.904-9.645-.045-2.974-.506-5.658-1.018-7.566-.4-1.489-1.02-2.903-1.864-4.15a10.26 10.26 0 00-.531-.72c-5.481 5.758-21.039 22.987-23.545 34.004z" fill="#E57970"/><path d="M242.849 117.776s.489 2.185 1.78 3.241l-1.99 2.589s-2.41-2.853-2.34-4.896c0 0 1.912-.858 2.55-.934z" fill="#3B76CA"/><path d="M242.85 117.776s.372 2.057 1.662 3.114l-1.912 2.353s-2.097-2.439-2.301-4.533c0 0 1.912-.858 2.551-.934z" fill="#699DEE"/><path d="M249.546 117.776s-3.043 2.884-5.033 3.114l1.362 3.399s5.928-3.512 5.945-5.615c0 0-1.631-.879-2.274-.898z" fill="#3B76CA"/><path d="M249.33 117.66s-2.826 2.999-4.816 3.229l1.102 3.133s5.971-3.361 5.988-5.464c0 0-1.632-.879-2.274-.898z" fill="#699DEE"/><path d="M258.705 149.047c-.307 3.966-.226 6.039-1.449 7.205 0 0-2.479.932-6.136-.277-1.249-.638-2.223-1.515-2.705-2.716-2.411-5.984 2.175-10.959 2.409-14.923.234-3.965 3.867-6.86 3.867-6.86s4.507 11.237 4.014 17.571z" fill="#3B76CA"/><path d="M244.792 122.743s.557 5.258.655 7.018c.281 4.95.382 19.826.382 19.826s.147 1.299-.72 2.335c-.867 1.035-1.773 1.745-1.773 1.745s-1.272-1.113-1.776-3.204c-.335-1.392.471-13.073 1.283-20.854a69.954 69.954 0 011.083-6.973s.664-.116.866.107z" fill="#365DA4"/><path d="M265.578 194.493h-34.952c1.663-3.638 8.855-6.374 17.476-6.374 8.62 0 15.812 2.736 17.476 6.374z" fill="#F1A34F"/><path d="M247.597 149.84s-2.371.621-3.148 1.048c-.777.428-2.337 2.479-1.988 2.8 1.756 1.608 2.026-.176 4.183-.759.391-.106 2.195-2.118 2.195-2.118l-1.242-.971z" fill="#E49963"/><path d="M245.669 154.801l-3.558-12.307h-20.338l3.672 12.806h26.7v-.499h-6.476z" fill="#C65447"/><path d="M231.914 148.689c-.129-.45.132-.815.58-.815.451 0 .921.365 1.05.815.129.449-.131.814-.582.814-.449 0-.919-.365-1.048-.814z" fill="#F1A34F"/><path d="M251.602 118.558s4.039.657 6.06 2.757c2.02 2.098 5.441 19.276 4.585 21.684-.854 2.41-7.694 7.307-12.592 9.327 0 0-2.408-1.088-2.564-2.953 0 0 8.317-6.995 8.706-8.86.388-1.865-4.195-21.955-4.195-21.955z" fill="#699DEE"/><path d="M248.749 112.324a12.46 12.46 0 00-.029.628c-1.033 1.113-3.461 3.487-5.76 3.908l.295-2.416 5.338-2.136.156.016z" fill="#D68D5D"/><path d="M242.697 114.874s6.402.292 6.523-3.697c.12-3.99 1.029-6.639-3.055-6.995-4.081-.355-4.922 1.143-5.286 2.465-.365 1.322.157 8.048 1.818 8.227z" fill="#E49963"/><path d="M249.218 111.177s-.477-5.324-6.181-5.133c-5.702.191-3.235-5.203 1.665-5.998 0 0-.512 1.901 2.572 2.201 6.47.63 2.52 8.085 1.944 8.93z" fill="#1C468A"/><path d="M157.163 161.907c.401-2.061 2.395-3.731 4.456-3.731 2.061 0 3.406 1.67 3.006 3.731-.4 2.06-2.396 3.73-4.457 3.73-2.059 0-3.405-1.67-3.005-3.73z" fill="#D86713"/></g><defs><clipPath id="clip0"><path fill="#fff" d="M0 0h321v214H0z"/></clipPath></defs></svg>