<svg width="219" height="192" fill="none" xmlns="http://www.w3.org/2000/svg"><path d="M92.21.552C59.37 1.4 52.203 33.64 43.879 47.208c-7.09 11.551-17.93 20.828-21.903 33.94-10.814 35.694 32.748 67.896 69.82 40.081 5.542-4.156 10.57-9.426 17.034-11.642 21.174-7.26 38.204 18.564 57.311 24.121 28.362 8.247 53.891-22.262 42.427-51.8-5.091-13.115-17.322-22.76-30.646-24.369-7.913-.955-17.2.211-22.561-6.016-4.411-5.124-3.954-12.886-4.507-19.79-.553-6.902-3.231-15.518-11.425-12.822-4.666 1.535-10.214 1.348-14.115-3.12C117.097 6.377 105.262.54 93.173.54c-.32 0-.64.003-.962.012" fill="url(#paint0_linear)"/><path d="M99.883 108.326l-42.829 9.663-16.161-71.756 42.828-9.662 16.162 71.755z" fill="#fff"/><path d="M35.636 36.565c-5.7 1.285-9.279 6.953-7.994 12.657 1.285 5.706 6.947 9.288 12.647 8.002l35.437-7.995-4.653-20.66-35.437 7.996z" fill="#9CA4BB"/><path d="M63.079 41.228c-1.285-5.705 2.294-11.372 7.994-12.658 5.7-1.287 11.363 2.296 12.647 8 1.286 5.705-2.294 11.372-7.994 12.659-5.7 1.286-11.362-2.297-12.647-8.001z" fill="#fff"/><path d="M68.868 58.814l-20.521 4.63-.301-1.336 20.521-4.63.301 1.336zm.828 3.673l-20.522 4.63-.3-1.336 20.52-4.63.302 1.336zm.827 3.673l-20.521 4.631-.301-1.336 20.52-4.63.302 1.336zm.827 3.675l-20.52 4.629-.302-1.335 20.521-4.63.302 1.336zm9.672 2.905L51.92 79.308l-.3-1.336 29.1-6.566.302 1.336zm6.223-1.403l-2.897.653-.3-1.335L86.944 70l.3 1.336zm-5.132 6.246L53.01 84.15l-.3-1.336 29.102-6.565.3 1.335zm6.223-1.403l-2.896.653-.3-1.336 2.895-.654.301 1.336zm-5.132 6.246L54.1 88.992l-.3-1.336 29.101-6.566.302 1.336zm6.223-1.404l-2.897.653-.3-1.336 2.895-.653.302 1.336zm-5.133 6.246L55.19 93.835l-.3-1.337 29.101-6.566.302 1.336zm6.223-1.404l-2.896.653-.301-1.335 2.895-.654.302 1.336zm-5.132 6.246l-29.102 6.567-.301-1.337 29.102-6.565.3 1.335zm6.223-1.404l-2.897.654-.3-1.336 2.896-.653.3 1.335zm-5.133 6.247l-29.102 6.566-.3-1.336 29.101-6.566.301 1.335zm6.223-1.404l-2.896.654-.3-1.337 2.895-.653.301 1.336z" fill="#9CA4BB"/><path d="M109.324 44.62c-1.46 1.736-3.058 4.066-3.943 7.064-1.066 3.672-1.092 7.237-.809 10.121.091.972.213 1.86.332 2.677a119.258 119.258 0 00-3.296-9.578c-.07-1.298.091-3.031.398-4.985.394-2.66 1.071-5.674 1.545-8.94.411-2.666.411-5.11.463-7.225.034-2.108.158-3.837.605-4.763-.443.922-1.766 2.06-3.103 3.864-1.346 1.78-2.744 4.25-3.216 7.335a20.309 20.309 0 00-.035 5.403c.119.853.276 1.668.463 2.44-.462-1.638-.97-3.704-1.713-6.052-1.149-3.68-2.916-8.043-5.785-12.254-2.357-3.435-5.13-5.902-7.51-7.718-2.382-1.828-4.4-3.003-5.37-4.056.972 1.055 2.018 3.137 3.331 5.761 1.324 2.623 2.927 5.754 5.167 9.016 2.724 3.999 5.519 7.48 7.812 10.476.767.995 1.472 1.927 2.11 2.8 2.874 5.599 5.047 11.227 6.665 16.272a34.532 34.532 0 00-1.291-2.574c-.763-1.41-1.765-2.88-2.988-4.346a23.731 23.731 0 00-4.501-4.057c-2.903-1.958-5.967-2.737-8.435-3.037-2.481-.324-4.41-.15-5.516-.472 1.112.323 2.68 1.436 4.503 2.93 1.842 1.48 3.93 3.268 6.466 4.977 1.544 1.067 3.05 2.047 4.485 2.992 1.412.966 2.785 1.86 3.986 2.76 1.704 1.24 3.125 2.429 4.105 3.474 2.658 8.98 3.497 15.546 3.512 15.674l.75-.092c-.015-.118-.728-5.732-2.932-13.685.321-1.27.911-2.855 1.624-4.654 1.02-2.609 2.296-5.617 3.275-8.987.813-2.752 1.079-5.328 1.289-7.518.199-2.186.362-3.956.836-4.903-.472.945-1.821 2.111-3.279 3.86zm62.759-7.89c0 6.645-6.725 12.031-15.022 12.031-8.296 0-15.022-5.386-15.022-12.031 0-6.645 6.726-12.031 15.022-12.031 8.297 0 15.022 5.386 15.022 12.03z" fill="#C69B71"/><path d="M161.612 41.165h-7.641a1.387 1.387 0 01-1.343-1.041l-2.141-7.877a1.06 1.06 0 00-1.026-.796h-.804" stroke="#fff" stroke-width="1.333" stroke-miterlimit="10" stroke-linecap="round"/><path d="M149.288 31.451a.631.631 0 11-1.262.002.631.631 0 011.262-.002zm5.744 10.58a.826.826 0 11-1.652 0 .826.826 0 011.652 0zm6.58 0a.826.826 0 11-1.652 0 .826.826 0 011.652 0z" fill="#fff"/><path d="M150.853 33.236h12.558c.336 0 .567.336.447.649l-2.011 5.267a.476.476 0 01-.445.307h-8.945m-1.275-4.946h12.435" stroke="#fff" stroke-width="1.333" stroke-miterlimit="10" stroke-linecap="round" stroke-linejoin="round"/><path d="M61.657 65.874l-4.586-1.17-3.36 3.332-4.58-1.173-3.358 3.332-4.581-1.173-3.358 3.331-4.58-1.172 15.77 58.082 31.766-8.64-15.77-58.08-3.363 3.331z" fill="#8C1314"/><path d="M50.997 78.535l-4.731.092-2.355 4.106-4.726.088-2.353 4.105-4.727.089-2.352 4.104-4.727.089 30.628 51.797 28.328-16.78-30.629-51.796-2.356 4.106z" fill="#0F3893"/><path d="M62.168 67.327a5.337 5.337 0 00-5.335 5.34v75.472a5.337 5.337 0 005.335 5.339h128.109a5.337 5.337 0 005.335-5.339V72.667c0-2.95-2.389-5.34-5.335-5.34H62.167z" fill="url(#paint1_linear)"/><path d="M195.612 97.04H56.832V80.733h138.78V97.04z" fill="#0D1053"/><path d="M46.408 188.629C39.182 172.511 7.207 164.844.543 143.808c10.859 17.484 28.074 2.347 31.598 20.969.75 3.971 6.31 2.609 9.703 5.024 4.068 2.862 1.587 12.378 4.564 18.828zm128.281-32.897c.321-26.46 12.066-52.298 31.786-69.925-10.304 15.728-5.005 25.543-10.462 33.409-4.054 5.545-9.286 2.122-9.364 9.571.114 10.736.523 7.241-5.743 13.62-3.895 3.974-5.99 7.83-6.217 13.325z" fill="#C69B71"/><path d="M176.972 187.337c26.381-15.804 36.242-30.466 41.423-60.415a45.713 45.713 0 00-2.73-.082c-31.311.003-51.334 32.749-38.693 60.497z" fill="url(#paint2_linear)"/><path d="M210.752 153.393c.66-1.574-13.593-1.05-21.371 7.025 6.763-11.412 10.003-15.334 16.55-17.573 5.699-2.021 8.621-.501 9.026-1.879-3.949-.208-9.702.48-14.474 3.856 12.724-15.368 20.366-17.817 17.385-17.918-26.775 21.365-16.072 24.614-14.456 2.064-1.81.562-.045 10.863-6.709 19.463-15.051 19.617-3.389 13.814-6.309-13.163-1.664 1.224 1.373 10.15-1.493 21.72-1.266 5.867-3.027 7.629-6.751 15.717-3.647 7.769 2.923-3.849-3.57-24.481-1.046 1.889 3.598 13.54 1.997 25.212-.62 4.937-1.301 5.815-3.81 13.415.846 1.994 1.266-3.355 3.763-8.231 7.338-13.433 22.504-12.306 23.66-13.733-20.327.353-25.971 17.822-21.408 8.105 3.793-8.237 8.646-20.168 27.97-19.599z" fill="#fff"/><path d="M44.235 178.828c20.91-23.234 4.343-59.522-28.249-61.568 1.37 29.004 6.856 40.75 28.249 61.568" fill="url(#paint3_linear)"/><path d="M42.912 129.565c-1.34-1.322-4.43 13.859-3.625 22.304-4.159-11.581-7.396-12.814-8.175-21.625-.723-9.714.985-8.386-.643-9.131-1.535 22.481 8.037 17.311-13.964-3.807-2.72-.242 5.572 4.321 14.324 18.723-3.532-3.331-8.75-5.232-13.462-5.597.404 2.913 12.02-4.119 21.27 21.644-4.382-6.229-11.592-9.686-19.457-10.545.304 1.319 16.522 1.378 21.157 15.608 1.109 3.657 1.71 6.707 1.893 7.568 2.004 9.008.193-7.615-18.845-11.366.812 1.442 15.823 3.139 19.665 16.891 1.192 4.932.176 9.784 1.508 8.215-.465-7.903-.884-8.184-.306-12.856 1.167-10.783 7.999-20.521 7.33-22.501-10.545 17.969-6.988 29.091-8.677 21.499-1.882-8.88-5.987-15.41.007-35.024z" fill="#fff"/><path d="M12.968 175.45c5.394 10.846 16.073 15.092 27.421 10.95.999 2.01-.3-2.002-4.165-6.014-3.154-3.276-8.018-6.552-14.74-6.551-2.565 0-5.402.478-8.516 1.615z" fill="url(#paint4_linear)"/><path d="M24.345 174.123c-.7-.078 1.633 5.313 5.126 7.769-5.428-2.168-8.145-2.542-10.48-7.745-.688.076 1.474 3.488 3.395 4.915-9.833-3.927-9.598-3.947-9.32-3.425 14.697 5.87 8.781 2.357 3.188 4.687.452.544 3.848-1.877 7.94-.243 10.098 4.033 3.71-.095-4.131 3.986.653.512 5.727-3.348 11.437-1.068 8.917 3.561 1.841-.711-5.93 4.02.963.3 6.284-3.878 12.224-1.506 3.256 1.3 3.635 1.154.102-.257-5.985-2.39-6.92-9.066-7.83-9.514 2.358 8.699 10.477 10.572 1.536 7.001-4.404-1.759-6.515-6.515-7.257-8.62z" fill="#fff"/><path d="M183.442 188.723c14.314.427 23.357-4.675 30.613-16.674-3.13-1.447-6.329-2.119-9.426-2.119-10.367.001-19.583 7.535-21.187 18.793" fill="url(#paint5_linear)"/><path d="M205.851 181.977c-3.294-1.675-7.411-2.399-10.914-1.271a81.392 81.392 0 015.797-3.176c4.844-2.419 8.674.742 9.248.062-1.708-.809-4.335-1.6-7.049-1.12 7.6-3.553 10.757-3.837 11.123-4.423-.163-.325-6.207 1.763-11.26 4.125 1.66-1.379 5.017-5.869 4.054-5.977-3.393 6.763-5.982 6.541-12.082 10.226 2.698-2.653 4.585-6.492 5.765-10.057-1.04.195.099.474-2.84 5.648-2.907 5.059-5.03 5.468-9.648 8.873 2.572-3.024 4.327-7.766 5.025-11.635-1.71 1.147.686 6.77-9.587 15.225-.294 1.771 2.979-4.561 10.88-3.896 3.844.312 5.005 1.59 5.814 1.231-3.299-1.64-8.134-2.27-11.938-.661 12.545-9.249 16.164-1.899 17.612-3.174z" fill="#fff"/><path d="M43.941 104.921a5.339 5.339 0 00-5.336 5.34v75.472a5.338 5.338 0 005.336 5.339H172.05a5.337 5.337 0 005.336-5.339v-75.472a5.338 5.338 0 00-5.336-5.34H43.941z" fill="url(#paint6_linear)"/><path d="M43.941 104.921a5.339 5.339 0 00-5.336 5.34v75.472a5.338 5.338 0 005.336 5.339H172.05a5.337 5.337 0 005.336-5.339v-5.591c0-33.206-58.286-75.221-84.55-75.221H43.94z" fill="url(#paint7_linear)"/><path d="M67.433 147.865H53.76a3.749 3.749 0 01-3.748-3.75v-8.036a3.748 3.748 0 013.748-3.75h13.673a3.747 3.747 0 013.746 3.75v8.036a3.748 3.748 0 01-3.746 3.75z" fill="#CED2DD"/><path d="M60.596 143.236c-4.152 0-4.146-6.278 0-6.278 4.152 0 4.147 6.278 0 6.278zm7.618-6.278c3.558 0 2.966.292 2.966-.88-4.918 0-4.42-.164-6.727 2.912a4.022 4.022 0 00-3.417-2.887c0-4.526.292-3.774-.88-3.774v3.774a4.022 4.022 0 00-3.417 2.887c-1.149-1.533-1.848-2.912-3.76-2.912-3.559 0-2.967-.292-2.967.88 2.759 0 3.902-.272 4.79.911 2.102 2.805 2.102 1.65 0 4.455-.892 1.189-2.052.912-4.79.912 0 1.171-.593.879 2.966.879 1.913 0 2.612-1.38 3.761-2.911a4.024 4.024 0 003.417 2.886v3.775c1.172 0 .88.754.88-3.775a4.024 4.024 0 003.417-2.886c2.38 3.174 1.899 2.911 6.727 2.911 0-1.171.593-.879-2.966-.879-1.507 0-2.02-1.176-3.493-3.139 1.576-2.102 2.042-3.139 3.493-3.139z" fill="#fff"/><path d="M73.204 163.975h-21.38a2.022 2.022 0 01-2.021-2.024v-4.304c0-1.118.905-2.023 2.021-2.023h21.38c1.117 0 2.022.905 2.022 2.023v4.304a2.022 2.022 0 01-2.022 2.024zm30.321 0h-21.38a2.022 2.022 0 01-2.022-2.024v-4.304c0-1.118.905-2.023 2.022-2.023h21.38c1.116 0 2.021.905 2.021 2.023v4.304a2.022 2.022 0 01-2.021 2.024zm30.32 0h-21.38a2.022 2.022 0 01-2.022-2.024v-4.304c0-1.118.905-2.023 2.022-2.023h21.38c1.117 0 2.021.905 2.021 2.023v4.304a2.021 2.021 0 01-2.021 2.024zm30.32 0h-21.379a2.022 2.022 0 01-2.022-2.024v-4.304c0-1.118.905-2.023 2.022-2.023h21.379c1.118 0 2.022.905 2.022 2.023v4.304a2.021 2.021 0 01-2.022 2.024zm-60.126 9.916H51.326a1.314 1.314 0 010-2.629h52.713a1.314 1.314 0 010 2.629z" fill="#9CE8F5"/><path d="M73.914 181.456H51.325a1.314 1.314 0 010-2.628h22.589c.725 0 1.312.588 1.312 1.314 0 .726-.587 1.314-1.312 1.314z" fill="#244AB5"/><path d="M164.77 120.345h-22.588a1.313 1.313 0 01-1.313-1.314c0-.726.587-1.314 1.313-1.314h22.588a1.313 1.313 0 010 2.628zm-65.161 3.156H51.667a1.655 1.655 0 01-1.654-1.655v-5.629c0-.915.74-1.656 1.654-1.656H99.61c.913 0 1.654.741 1.654 1.656v5.629c0 .914-.741 1.655-1.654 1.655zm55.238 52.942a6.456 6.456 0 01-6.453 6.457 6.454 6.454 0 01-6.451-6.457 6.454 6.454 0 016.451-6.457 6.456 6.456 0 016.453 6.457z" fill="#fff"/><path d="M158.556 169.986a6.455 6.455 0 00-6.452 6.457 6.455 6.455 0 006.452 6.457 6.455 6.455 0 006.452-6.457 6.455 6.455 0 00-6.452-6.457zm0 1.572a4.889 4.889 0 014.881 4.885 4.888 4.888 0 01-4.881 4.885 4.888 4.888 0 01-4.881-4.885 4.889 4.889 0 014.881-4.885zm-14.562-79.796c9.118 0 6.861 10.764 6.861 10.764 5.236-12.63-6.5-20.21-6.59-24.823-.091-4.613 3.671-7.897 3.376-12.835-.293-4.939 3.988-10.064 3.988-10.064-.19-.984-6.69-4.24-11.697-5.093h-10.679c-5.007.853-10.762 4.18-11.696 5.093 0 0 4.281 5.125 3.988 10.064-.295 4.938 3.466 8.222 3.376 12.835-.09 4.613-12.628 14.06-6.591 24.823 0 0-2.257-10.764 6.862-10.764h18.802z" fill="#fff"/><path d="M135.111 47.002c.37.559.977.813 1.573 1.07.573.247 2.68 3.7 3.874 3.7.619 0 1.096-.507 1.653-.507.896 0 2.059 1.544 3.035 1.544.921 0 1.735-1.507 1.735-2.326 0-1.41-1.776-1.99-1.776-3.223 0-1.699 2.338-1.794 2.338-3.703 0-2.916-4.003-2.129-4.837-4.36-.526-1.404.376-10.628-8.113-10.628-8.49 0-7.588 9.224-8.113 10.629-.836 2.23-4.838 1.443-4.838 4.359 0 1.909 2.339 2.004 2.339 3.703 0 1.233-1.777 1.813-1.777 3.223 0 .819.814 2.326 1.734 2.326.977 0 2.14-1.544 3.037-1.544.557 0 1.033.507 1.651.507 1.195 0 3.302-3.453 3.876-3.7.596-.257 1.202-.511 1.573-1.07h1.036z" fill="#0D1053"/><path d="M138.528 43.556s-.446 7.715 2.031 8.217v3.031c0 1.292-1.727 3.969-5.966 3.969s-5.966-2.677-5.966-3.969v-3.031c2.477-.502 2.031-8.217 2.031-8.217h7.87z" fill="#FFB7A4"/><path d="M130.501 48.067c-.992 4.498 3.099 6.254 5.504 5.736 1.711-.37 3.31-2.255 2.72-5.446-.277-1.496-.196-3.092-.196-4.8h-7.872s.087 3.408-.156 4.51z" fill="#E08D7E"/><path d="M140.434 38.557c.182 3.654-.852 7.43-2.677 9.075-1.826 1.644-2.739 1.644-3.164 1.644-.426 0-1.34 0-3.165-1.644-1.825-1.645-2.859-5.42-2.677-9.075 0 0 3.498.304 5.842-1.827 0 0 1.489 1.462 5.841 1.827" fill="#FFB7A4"/><path d="M132.775 146.646c-.062-2.277-3.724-4.066-6.074-1.925-2.664 6.087-6.636 12.311-2.142 12.811 6.044.672 8.059-1.613 9.884-5.915.977-2.306.921-3.876.652-5.294-.645 1.366-2.285 1.609-2.32.323z" fill="#244AB5"/><path d="M129.953 157.048c2.166-.9 3.365-2.781 4.49-5.43.978-2.307.921-3.877.652-5.296-.645 1.367-2.285 1.609-2.32.325-.061-2.278-3.724-4.066-6.075-1.927-.288.66-.592 1.32-.899 1.976-.487 3.089 6.496 7.661 4.152 10.352z" fill="#0F3893"/><path d="M128.589 138.713c-.207 1.826-.97 3.909-1.888 6.008 2.349-2.14 6.012-.352 6.073 1.926.036 1.285 1.676 1.042 2.32-.324-.234-1.227-.626-2.34-.651-3.712-.028-1.536.502-3.442 1.763-6.23a1098.91 1098.91 0 00-7.018-1.469c-.271 1.461-.482 2.759-.599 3.801z" fill="#E08D7E"/><path d="M145.048 91.816h-10.605v16.249c0 4.017-3.678 18.315-5.255 26.847 1.855.378 5.005 1.042 7.019 1.469 1.167-2.581 2.962-5.915 5.544-10.438 5.372-9.41 1.88-16.533 2.417-18.818.537-2.286 4.596-1.136 6.687-4.599.978-3.09.827-10.71-5.807-10.71z" fill="#244AB5"/><path d="M144.295 103.842c-1.118 1.877-.945 2.861-.105 4.923-.084-.685-.116-1.239-.022-1.64.538-2.285 4.596-1.136 6.688-4.599.453-1.434.662-3.841.096-6.011-1.364 3.948-5.987 6.204-6.657 7.327zm-9.852-12.026v16.249c0 4.017-3.678 18.315-5.255 26.847 1.855.378 5.005 1.042 7.019 1.469.68-1.503 1.58-3.272 2.716-5.372-3.078-8.28-.793-17.269-1.135-18.733-.365-1.562-1.402-2.499-2.203-7.551-.27-1.703-.474-10.894 4.657-12.909h-5.799z" fill="#0F3893"/><path d="M140.627 144.985c-.145-.887-.717-2.443-2.838-3.859-3.039-1.596-6.088.013-7.03 3.838-.539 1.886-.014 3.942.445 5.2.233.636.99.896 1.562.534l7.378-4.659a1.05 1.05 0 00.483-1.054zm-6.034-16.865c.426-5.863.106-11.086 0-16.418-.107-5.33 0-19.885 0-19.885s-1.176-.055-9.401-.055-7.921 8.127-6.862 10.764c1.148 2.858 5.692 5.002 5.692 5.002 0 2.025-3.489 7.266.878 17.18 1.907 4.331 3.428 8.174 4.467 11.377l5.148-2.595c-.106-1.654-.061-3.466.078-5.37z" fill="#244AB5"/><path d="M128.05 91.816c3.773 0 7.143 9.134 6.005 14.614-1.137 5.48-1.975 3.394.666 10.109V91.816h-6.671zm-4.363 11.487c-1.658-.692-4.008-3.042-5.708-6.023-.405 2.044-.095 4.134.352 5.246 1.147 2.857 5.692 5.001 5.692 5.001 0 .327-.091.738-.226 1.238.373-1.351 1.547-4.771-.11-5.462z" fill="#0F3893"/><path d="M134.516 133.49l-5.15 2.595c1.338 4.13 1.872 7.198 1.393 8.879.942-3.825 3.991-5.434 7.029-3.838-2.157-1.44-3.05-4.195-3.272-7.636z" fill="#FFB7A4"/><path d="M122.136 68.855c-.411-1.238-.677-2.54-.592-3.987.294-4.939-3.987-10.064-3.987-10.064-2.964 1.837-4.467 25.904-4.745 28.14l7.401-3.355 1.923-10.734z" fill="#fff"/><path d="M121.544 64.867c.135-2.262-.691-4.557-1.625-6.387.805 1.899-1.74 16.256-1.914 18.053-.167 1.72-4.451.78-5.12 5.675a25.1 25.1 0 01-.073.736l7.401-3.355 1.923-10.734c-.412-1.237-.677-2.54-.592-3.988z" fill="#E3E5EC"/><path d="M112.812 82.944c0 2.254 11.737 6.43 11.737 6.43h6.836s-4.332-6.269-11.172-9.785c-2.748-1.413-7.401-.402-7.401 3.355z" fill="#fff"/><path d="M114.55 79.788c-1.026.649-1.738 1.69-1.738 3.156 0 2.254 11.737 6.429 11.737 6.429h3.501s-14.832-8.402-13.5-9.585" fill="#E3E5EC"/><path d="M147.049 68.855c.411-1.238.678-2.54.592-3.987-.294-4.939 3.988-10.064 3.988-10.064 2.963 1.837 4.466 25.904 4.745 28.14l-7.402-3.355-1.923-10.734z" fill="#fff"/><path d="M147.641 64.867c-.135-2.262.692-4.557 1.625-6.387-.805 1.899 1.74 16.256 1.914 18.053.167 1.72 4.451.78 5.121 5.675.029.332.054.586.073.736l-7.402-3.355-1.923-10.734c.412-1.237.678-2.54.592-3.988z" fill="#E3E5EC"/><path d="M156.374 82.944c0 2.254-11.738 6.43-11.738 6.43H137.8s4.332-6.269 11.172-9.785c2.749-1.413 7.402-.402 7.402 3.355z" fill="#fff"/><path d="M154.635 79.788c1.027.649 1.739 1.69 1.739 3.156 0 2.254-11.738 6.429-11.738 6.429h-3.501s14.832-8.402 13.5-9.585" fill="#E3E5EC"/><path d="M149.465 96.514h-30.119c-.821 0-1.542-.67-1.609-1.5l-1.373-17.11c-.079-.982.59-1.785 1.493-1.785h33.097c.904 0 1.572.803 1.493 1.785l-1.372 17.11c-.067.83-.787 1.5-1.61 1.5z" fill="#9CA4BB"/><path d="M119.347 96.514s2.843.766 15.461.766c12.619 0 14.657-.766 14.657-.766h-30.118z" fill="#0F3893"/><path d="M180.486 137.909c0 7.365 5.966 13.336 13.325 13.336 7.359 0 13.325-5.971 13.325-13.336s-5.966-13.336-13.325-13.336c-7.359 0-13.325 5.971-13.325 13.336z" fill="url(#paint8_linear)"/><path d="M180.486 140.735c0 7.364 5.966 13.336 13.325 13.336 7.359 0 13.325-5.972 13.325-13.336v-2.827c0 7.366-5.966 13.337-13.325 13.337-7.359 0-13.325-5.971-13.325-13.337v2.827z" fill="#C69B71"/><path d="M183.612 137.909c0 5.638 4.566 10.207 10.199 10.207s10.198-4.569 10.198-10.207c0-5.637-4.565-10.207-10.198-10.207s-10.199 4.57-10.199 10.207z" fill="url(#paint9_linear)"/><path d="M173.598 151.895c0 7.365 5.966 13.336 13.326 13.336 7.358 0 13.324-5.971 13.324-13.336s-5.966-13.336-13.324-13.336c-7.36 0-13.326 5.971-13.326 13.336" fill="url(#paint10_linear)"/><path d="M173.598 154.721c0 7.364 5.966 13.336 13.326 13.336 7.358 0 13.324-5.972 13.324-13.336v-2.827c0 7.366-5.966 13.337-13.324 13.337-7.36 0-13.326-5.971-13.326-13.337v2.827z" fill="#C69B71"/><path d="M176.725 151.895c0 5.638 4.565 10.207 10.198 10.207s10.199-4.569 10.199-10.207c0-5.637-4.566-10.208-10.199-10.208s-10.198 4.571-10.198 10.208z" fill="url(#paint11_linear)"/><defs><linearGradient id="paint0_linear" x1="115.836" y1="144.371" x2="115.836" y2="-15.229" gradientUnits="userSpaceOnUse"><stop stop-color="#fff"/><stop offset=".97" stop-color="#39D0EB"/><stop offset="1" stop-color="#39D0EB"/></linearGradient><linearGradient id="paint1_linear" x1="126.222" y1="199.306" x2="126.222" y2="33.94" gradientUnits="userSpaceOnUse"><stop stop-color="#244AB5"/><stop offset=".001" stop-color="#244AB5"/><stop offset=".871" stop-color="#39D0EB"/><stop offset=".975" stop-color="#39D0EB"/><stop offset="1" stop-color="#39D0EB"/></linearGradient><linearGradient id="paint2_linear" x1="195.763" y1="114.36" x2="195.763" y2="193.291" gradientUnits="userSpaceOnUse"><stop stop-color="#C69B71"/><stop offset=".989" stop-color="#fff"/><stop offset="1" stop-color="#fff"/></linearGradient><linearGradient id="paint3_linear" x1="34.752" y1="112.881" x2="34.752" y2="197.456" gradientUnits="userSpaceOnUse"><stop stop-color="#C69B71"/><stop offset=".989" stop-color="#fff"/><stop offset="1" stop-color="#fff"/></linearGradient><linearGradient id="paint4_linear" x1="26.84" y1="118.068" x2="26.84" y2="196.999" gradientUnits="userSpaceOnUse"><stop stop-color="#C69B71"/><stop offset=".989" stop-color="#fff"/><stop offset="1" stop-color="#fff"/></linearGradient><linearGradient id="paint5_linear" x1="198.749" y1="114.36" x2="198.749" y2="193.291" gradientUnits="userSpaceOnUse"><stop stop-color="#C69B71"/><stop offset=".989" stop-color="#fff"/><stop offset="1" stop-color="#fff"/></linearGradient><linearGradient id="paint6_linear" x1="107.995" y1="236.9" x2="107.995" y2="71.534" gradientUnits="userSpaceOnUse"><stop stop-color="#244AB5"/><stop offset=".001" stop-color="#244AB5"/><stop offset=".871" stop-color="#39D0EB"/><stop offset=".975" stop-color="#39D0EB"/><stop offset="1" stop-color="#39D0EB"/></linearGradient><linearGradient id="paint7_linear" x1="107.995" y1="213.282" x2="107.995" y2="47.916" gradientUnits="userSpaceOnUse"><stop stop-color="#244AB5"/><stop offset=".001" stop-color="#244AB5"/><stop offset=".871" stop-color="#39D0EB"/><stop offset=".975" stop-color="#39D0EB"/><stop offset="1" stop-color="#39D0EB"/></linearGradient><linearGradient id="paint8_linear" x1="193.811" y1="164.061" x2="193.811" y2="131.46" gradientUnits="userSpaceOnUse"><stop stop-color="#C69B71"/><stop offset=".989" stop-color="#E2C686"/><stop offset="1" stop-color="#E2C686"/></linearGradient><linearGradient id="paint9_linear" x1="193.811" y1="125.33" x2="193.811" y2="148.061" gradientUnits="userSpaceOnUse"><stop stop-color="#C69B71"/><stop offset=".989" stop-color="#E2C686"/><stop offset="1" stop-color="#E2C686"/></linearGradient><linearGradient id="paint10_linear" x1="186.923" y1="178.047" x2="186.923" y2="145.446" gradientUnits="userSpaceOnUse"><stop stop-color="#C69B71"/><stop offset=".989" stop-color="#E2C686"/><stop offset="1" stop-color="#E2C686"/></linearGradient><linearGradient id="paint11_linear" x1="186.923" y1="139.316" x2="186.923" y2="162.047" gradientUnits="userSpaceOnUse"><stop stop-color="#C69B71"/><stop offset=".989" stop-color="#E2C686"/><stop offset="1" stop-color="#E2C686"/></linearGradient></defs></svg>