<svg width="717" height="143" fill="none" xmlns="http://www.w3.org/2000/svg"><g clip-path="url(#clip0)"><path d="M246.916 90.813V38.627h7.53c6.095 0 7.529.829 7.529 4.35 0 5.425 1.065 5.446 6.334.12 8.478-8.569 29.004-8.41 39.971.309 18.877 15.009 17.842 53.454-1.829 67.937-8.603 6.334-26.98 6.028-35.844-.596l-6.481-4.843V143h-17.21V90.813zm51.463 7.028c7.195-7.272 9.764-19.151 6.661-30.797-4.643-17.43-22.684-23.259-34.625-11.189-5.538 5.597-6.279 7.87-6.212 19.027.085 14.123 3.252 21.65 10.917 25.944 8.418 4.715 16.691 3.654 23.259-2.985zm52.501 16.676c-3.755-1.099-9.558-4.921-12.895-8.495-26.296-28.16-3.476-75.472 33.061-68.544 10.251 1.944 23.067 14.756 26.211 26.204 4.653 16.94 5.722 16.26-25.567 16.26h-27.967v5.603c0 3.293 2.592 8.223 6.289 11.959 8.786 8.881 19.831 8.815 28.132-.167 4.19-4.534 8.062-6.524 12.695-6.524 7.845 0 8.053.937 2.311 10.455-7.537 12.497-25.548 18.141-42.27 13.249zm31.566-48.877c0-6.467-11.973-16.14-19.978-16.14-8.315 0-18.745 8.634-18.745 15.517 0 3.653 1.907 4.052 19.362 4.052 16.196 0 19.361-.56 19.361-3.429zm83.886 49.235c-23.76-7.305-36.423-25.668-36.51-52.943-.106-33.09 19.376-54.44 49.699-54.462 21.299-.016 42.758 15.236 42.758 30.392 0 4.468-1.028 5.114-8.133 5.114-7.032 0-8.458-.87-10.53-6.416-3.605-9.655-14.687-15.756-26.724-14.713-18.308 1.587-27.779 13.336-29.418 36.496-.868 12.252-.225 16.428 3.83 24.896 5.793 12.095 15.031 18.43 26.874 18.43 12.362 0 21.355-6.357 25.86-18.282 3.443-9.112 4.389-9.969 11.004-9.969 6.31 0 7.237.706 7.237 5.506 0 24.24-30.432 43.796-55.947 35.951zm85.507-1.076c-10.613-3.828-13.928-6.803-19.184-17.216-5.794-11.48-4.902-35.284 1.655-44.162 7.79-10.545 15.11-14.546 28.277-15.455 28.431-1.962 47.113 22.305 39.415 51.2-6.078 22.816-27.551 33.788-50.163 25.633zm23.91-13.038c7.481-3.91 11.068-11.783 11.068-24.292 0-17.028-7.77-26.97-21.081-26.97-20.168 0-29.102 32.24-13.346 48.165 6.831 6.905 14.204 7.883 23.359 3.097zM24.122 64.177C14.975 36.37 7.046 12.398 6.502 10.903c-1.668-4.584 16.135-3.53 18.38 1.088 1.018 2.093 7.074 20.684 13.457 41.314 6.384 20.63 12.15 37.508 12.815 37.508.665 0 7-18.346 14.08-40.77l12.872-40.77 9.393-.683c7.064-.513 9.127.026 8.317 2.174-.592 1.572-8.706 25.597-18.03 53.39L60.83 114.687l-10.04.023-10.04.022-16.63-50.555zM98.478 76.68V38.627h17.211v76.105H98.478V76.68zm27.967 0V38.627h7.529c6.702 0 7.53.63 7.53 5.733v5.732l5.715-5.776c3.143-3.177 8.036-6.366 10.873-7.085 7.762-1.97 20.031.693 25.132 5.453 4.499 4.2 4.586 4.192 12.001-1 13.016-9.116 32.8-5.677 38.365 6.667 1.6 3.55 2.57 17.15 2.57 36.041v30.34h-14.637l-.749-29.024c-.851-32.994-2.153-36.209-14.662-36.209-13.966 0-16.083 4.644-16.958 37.192l-.754 28.041h-14.627V86.948c0-32.265-1.931-37.449-13.949-37.449-5.272 0-8.469 1.565-11.71 5.73-3.965 5.094-4.459 8.708-4.459 32.616v26.887h-17.21V76.68zm278.014-14.678l.576-52.73 8.067-.674 8.067-.675v106.809h-17.286l.576-52.73zM610.481 76.68V38.627h7.53c6.701 0 7.529.63 7.529 5.733v5.732l5.715-5.776c3.144-3.177 8.037-6.366 10.873-7.085 7.763-1.97 20.032.693 25.133 5.453 4.499 4.2 4.586 4.192 12-1 13.016-9.116 32.8-5.677 38.365 6.667 1.6 3.55 2.57 17.15 2.57 36.041v30.34h-14.637l-.748-29.024c-.852-32.994-2.154-36.209-14.663-36.209-13.966 0-16.083 4.644-16.958 37.192l-.754 28.041h-14.627V86.948c0-32.265-1.93-37.449-13.949-37.449-5.271 0-8.469 1.565-11.71 5.73-3.965 5.094-4.458 8.708-4.458 32.616v26.887h-17.211V76.68zM99.316 22.477c-.648-1.707-.86-5.376-.47-8.154.576-4.109 2.213-5.176 8.775-5.725l8.068-.675v8.829c0 8.655-.15 8.829-7.597 8.829-4.597 0-8.063-1.226-8.776-3.104z" fill="#2C292C"/></g><defs><clipPath id="clip0"><path fill="#fff" d="M0 0h717v143H0z"/></clipPath></defs></svg>