<svg width="383" height="186" fill="none" xmlns="http://www.w3.org/2000/svg"><g clip-path="url(#clip0)" fill="#2C292C"><path d="M198.737 161.255c-7.401-.491-15.937-1.783-22.668-3.724-1.261-.364-6.482-2.275-7.81-2.882-23.437-10.81-39.764-34.408-39.764-61.785 0-37.551 30.68-68.138 68.415-68.138 37.399 0 67.872 30.065 68.396 67.191h24.716C289.498 41.227 247.944.146 196.91.146c-51.339 0-93.124 41.584-93.124 92.718 0 35.251 19.909 65.91 49.059 81.574 5.264 2.772 12.818 5.629 15.383 6.412 8.31 2.463 18.508 4.101 27.585 4.786 3.083.231 13.848.352 16.985.364H383v-24.514H213.084c-2.26 0-12.135-.085-14.347-.231zm14.347-38.491c-1.797 0-11.197-.06-12.933-.206-2.943-.248-7.207-.685-9.949-1.31-3.094-.825-6-1.917-7.31-2.633-9.181-4.944-15.438-14.614-15.438-25.751 0-16.204 13.178-29.343 29.456-29.343 15.937 0 28.895 12.624 29.413 28.396h23.747c-.5-28.815-24.089-52.037-53.16-52.037-29.395 0-53.221 23.72-53.221 52.983 0 20.638 11.88 38.461 29.181 47.191 2.663 1.553 7.67 3.178 9.096 3.548 4.886 1.28 11.447 2.154 16.771 2.542 1.968.164 11.606.237 13.641.249v.036h170.616v-23.665h-169.91zM88.555 185.909h-24.88V24.781H27.317V0h61.238v185.909zM0 37.162v23.829h27.317v124.918h23.906V37.162H0zM339.037 1.73c-8.962 0-16.394 7.116-16.394 16.046s7.432 16.33 16.394 16.33c9.235 0 16.382-7.4 16.382-16.33 0-8.93-7.147-16.046-16.382-16.046zm0 29.744c-7.402 0-13.781-5.794-13.781-13.698 0-7.504 6.379-13.443 13.781-13.443 7.396 0 13.744 5.939 13.744 13.443 0 7.904-6.348 13.698-13.744 13.698z"/><path d="M345.279 22.173c0-1.801-.268-3.476-2.339-4.137 2.595-.898 2.851-2.59 2.851-3.616 0-4.143-3.777-4.67-5.331-4.67h-7.146v16.045h2.979v-6.582h2.345c3.376 0 3.656 1.547 3.656 2.96 0 2.736 0 3.252.646 3.622h2.985c-.646-.65-.39-1.153-.646-3.622zm-5.471-5.302h-3.515v-5.053h3.01c2.083 0 3.496.655 3.496 2.603 0 1.025-.505 2.45-2.991 2.45"/></g><defs><clipPath id="clip0"><path fill="#fff" d="M0 0h383v186H0z"/></clipPath></defs></svg>