<svg width="95" height="79" fill="none" xmlns="http://www.w3.org/2000/svg"><path d="M70.723 78.797a7.284 7.284 0 01-1.473-.142c-4.967-1.034-13.256-5.564-23.053-5.564-1.249 0-2.52.074-3.815.238-1.03.13-2.131.19-3.273.19-11.539 0-27.25-6.115-16.706-7.25 2.469-.267 6.353-.441 10.967-.511a3.03 3.03 0 00-1.638 2.693c0 .644.52 1.166 1.164 1.166h23.402c.643 0 1.165-.522 1.165-1.166 0-.917-.408-1.74-1.052-2.296 11.586.564 21.915 1.699 23.959 3.52 3.999 3.567-3.977 9.121-9.647 9.122" fill="url(#paint0_linear)"/><path d="M21.808 62.922h45.578a2.291 2.291 0 002.29-2.293V34.748a2.292 2.292 0 00-2.29-2.295H21.808a2.292 2.292 0 00-2.29 2.294V60.63a2.291 2.291 0 002.29 2.293z" fill="#fff"/><path d="M22.35 59.209h44.495c.53 0 .96-.43.96-.962V34.828a.96.96 0 00-.96-.961H22.349a.96.96 0 00-.96.961v23.42c0 .53.43.961.96.961z" fill="#993FD1"/><path d="M45.786 61.215a1.19 1.19 0 11-2.378 0 1.19 1.19 0 112.377 0z" fill="#F4B3D9"/><path d="M25.269 56.202h22.065c.66 0 1.195-.536 1.195-1.197V42.941c0-.66-.534-1.196-1.195-1.196H25.27c-.66 0-1.195.536-1.195 1.196v12.064c0 .66.535 1.197 1.195 1.197" fill="#F9D6EB"/><path d="M37.574 52.036H26.626a.748.748 0 00-.748.748v.615c0 .414.335.749.747.749h10.95a.748.748 0 00.747-.749v-.615a.748.748 0 00-.748-.748zm0-2.744H26.626a.748.748 0 00-.748.748v.406c0 .413.335.748.747.748h10.95a.748.748 0 00.747-.748v-.406a.748.748 0 00-.748-.748zm0-2.697H26.626a.747.747 0 00-.748.748v.406c0 .413.335.749.747.749h10.95a.748.748 0 00.747-.749v-.406a.747.747 0 00-.748-.748zm0-2.697H26.626a.748.748 0 00-.748.748v.406c0 .413.335.748.747.748h10.95a.748.748 0 00.747-.748v-.406a.748.748 0 00-.748-.748z" fill="#F4B3D9"/><path d="M42.302 50.298h22.065c.66 0 1.195-.536 1.195-1.196V37.038c0-.66-.535-1.196-1.195-1.196H42.302c-.66 0-1.195.535-1.195 1.196v12.064c0 .66.534 1.196 1.195 1.196" fill="#EA6BB6"/><path d="M56.392 41.161h7.167a.747.747 0 00.747-.748v-2.726a.748.748 0 00-.747-.749h-7.167a.748.748 0 00-.748.749v2.726c0 .414.335.748.748.748zm0 2.745h7.167a.747.747 0 00.747-.748v-.407a.747.747 0 00-.747-.748h-7.167a.748.748 0 00-.748.748v.407c0 .413.335.748.748.748zm0 2.697h7.167a.747.747 0 00.747-.748v-.407a.748.748 0 00-.747-.748h-7.167a.748.748 0 00-.748.748v.407c0 .413.335.748.748.748zm0 2.697h7.167a.747.747 0 00.747-.748v-.407a.747.747 0 00-.747-.748h-7.167a.748.748 0 00-.748.748v.407c0 .413.335.748.748.748zm-12.599-5.394h7.167a.748.748 0 00.748-.748v-.407a.748.748 0 00-.748-.748h-7.167a.748.748 0 00-.747.748v.407c0 .413.335.748.747.748zm0 2.697h7.167a.748.748 0 00.748-.748v-.407a.748.748 0 00-.748-.748h-7.167a.748.748 0 00-.747.748v.407c0 .413.335.748.747.748zm0 2.697h7.167a.748.748 0 00.748-.748v-.407a.748.748 0 00-.748-.748h-7.167a.748.748 0 00-.747.748v.407c0 .413.335.748.747.748z" fill="#F4B3D9"/><path d="M38.483 66.32H50.71v-3.398H38.483v3.398z" fill="#fff"/><path d="M32.896 69.617h23.402c.643 0 1.165-.522 1.165-1.166a3.029 3.029 0 00-3.027-3.03H34.758a3.029 3.029 0 00-3.026 3.03c0 .644.52 1.166 1.164 1.166z" fill="#fff"/><path d="M42.54 59.209h-2.7a100.309 100.309 0 00-1.964-3.007h2.704a123.01 123.01 0 011.961 3.007zm-4.013-17.464h-2.959c-.448-.437-.896-.873-1.342-1.312-2.149-2.114-4.43-4.239-6.392-6.566h2.341c1.639 1.428 3.192 2.976 4.769 4.44 1.185 1.098 2.414 2.197 3.523 3.374l.06.064" fill="#BD82E1"/><path d="M40.579 56.202h-2.704c-.464-.688-.932-1.373-1.405-2.054h1.105a.748.748 0 00.747-.748v-.483a193.486 193.486 0 012.257 3.285zm-2.875-4.155a.707.707 0 00-.13-.01h-2.593c-.202-.282-.404-.563-.608-.843h2.715l.616.853zm-2.023-2.755h-2.714l-.184-.245-.418-.55h2.715c.202.264.402.53.601.795zm-2.06-2.697h-2.714c-.161-.245-.288-.503-.333-.795h5.282c-.22.014-.436.025-.646.037-.567.034-1.272.176-1.89.176l-.094-.001c.143.192.279.413.395.583zm4.69-1.42a.756.756 0 00.011-.123v-.406a.748.748 0 00-.748-.748h-5.146c.358-.052.722-.071 1.043-.088.79-.04 1.58-.079 2.37-.121.285-.016 1.207.002 1.38-.296-.004.006-.009.009-.014.009-.036 0-.11-.143-.206-.253-.265-.306-.588-.579-.877-.861l-.556-.543h2.959c.808.9 1.123 2.173.169 3.118a2.44 2.44 0 01-.384.312" fill="#FBE4F2"/><path d="M37.574 54.148H36.47a163.67 163.67 0 00-1.489-2.112h2.593c.045 0 .088.004.13.011.206.29.413.579.618.87v.482a.748.748 0 01-.748.749m-.486-2.954h-2.715c-.463-.637-.932-1.272-1.406-1.902h2.714c.474.63.943 1.265 1.407 1.902zm-2.008-2.696h-2.715c-.313-.41-.628-.82-.946-1.226-.176-.225-.36-.445-.512-.677h2.714c.035.052.068.099.1.14.457.584.91 1.172 1.36 1.763zm.776-2.698h-5.282a1.547 1.547 0 01-.01-.386c.1-1.046.967-1.386 1.864-1.516h5.147c.412 0 .747.334.747.748v.406a.756.756 0 01-.01.123c-.707.469-1.602.572-2.456.625" fill="#F8CEE6"/><path d="M62.839 59.209H48.55a259.543 259.543 0 01-2.473-3.007h1.257c.66 0 1.195-.536 1.195-1.197v-4.707h5.297c2.09 2.138 5.862 5.725 9.013 8.911zM41.107 37.641a887.151 887.151 0 01-4.194-3.774h12.08l.044.048c.682.669 1.326 1.31 1.933 1.927h-8.668c-.66 0-1.195.535-1.195 1.196v.603z" fill="#BD82E1"/><path d="M47.334 56.202h-1.257c-3.527-4.36-6.647-8.557-6.075-8.986.205-.154.597-.3 1.104-.44v2.326c0 .66.535 1.196 1.196 1.196h6.227v4.707c0 .66-.535 1.197-1.195 1.197" fill="#FBE4F2"/><path d="M53.826 50.298H42.302c-.66 0-1.195-.536-1.195-1.196v-2.326a27.964 27.964 0 012.095-.464c.136.177.35.291.591.291h7.167a.748.748 0 00.748-.748v-.407a.748.748 0 00-.748-.748h-2.292c-.123-.168-.376-.44-.731-.794h3.023a.748.748 0 00.748-.748v-.407a.748.748 0 00-.748-.748h-5.03a503.501 503.501 0 00-4.823-4.362v-.603c0-.66.534-1.196 1.195-1.196h8.668c2.426 2.463 4.266 4.513 5.608 6.161h-.187a.748.748 0 00-.746.748v.407c0 .413.334.748.746.748h1.648c.202.283.382.548.543.794h-2.19a.748.748 0 00-.748.748v.407c0 .413.335.748.748.748h3.144c.044.196.042.343-.005.441-.069.146-.33.26-.716.353h-2.423a.747.747 0 00-.65.377c-1.726.146-3.41.284-3.512.647-.04.143.58.839 1.596 1.877zm-10.033-2.9a.748.748 0 00-.747.747v.407c0 .413.335.748.747.748h7.167a.748.748 0 00.748-.748v-.407a.748.748 0 00-.748-.748h-7.167z" fill="#F19FCF"/><path d="M58.04 43.906h-1.648a.748.748 0 01-.748-.748v-.407c0-.413.335-.748.748-.748h.186a37.806 37.806 0 011.461 1.903m1.497 2.697h-3.145a.748.748 0 01-.746-.748v-.407c0-.413.334-.748.746-.748h2.19c.556.856.862 1.49.955 1.903m-3.793 1.171a.747.747 0 01.649-.377h2.423c-.732.177-1.912.28-3.072.377zm-4.783-3.868h-3.023a74.766 74.766 0 00-2.007-1.903h5.03c.413 0 .748.335.748.748v.407a.748.748 0 01-.747.748m-.001 2.697h-7.167a.745.745 0 01-.591-.291c2.562-.49 5.641-.938 5.55-1.461a.443.443 0 00-.084-.151h2.292c.413 0 .748.335.748.748v.407a.748.748 0 01-.748.748m0 2.697h-7.167a.748.748 0 01-.747-.748v-.407c0-.413.335-.748.747-.748h7.167c.413 0 .748.335.748.748v.407a.748.748 0 01-.748.748z" fill="#F8CEE6"/><path d="M68.397 45.238c-1.962.7-3.487 14.48-3.398 15.145.164 1.218 8.535 12.305 8.535 12.305l1.31-1.62-4.925-10.654s4.004-10.163 4.188-11.821c.184-1.659.08-5.419-5.71-3.355" fill="#EE9956"/><path d="M74.291 44.514c2.43 1.437 1.288 7.461.46 9.948-.828 2.487-2.392 4.33-1.931 5.343.46 1.013 1.38 4.422.92 6.172-.46 1.75-2.024 7.553-2.024 7.553h-1.748s-.737-10.961-1.013-12.343c-.275-1.382-1.104-11.975 0-14.923.463-1.235 3.313-2.948 5.336-1.75z" fill="#F4BA8E"/><path d="M72.017 27.534c2.726.611 4.048 3.234 2.844 6.55-1.364 3.76-.07 11.148-.07 11.148s-2.48.827-3.994.757c-1.513-.068-3.294-1.11-3.294-1.11s-.617-7.809-1.65-10.426c-1.034-2.618.316-8.227 6.164-6.919" fill="#66007A"/><path d="M66.975 40.431c1.686.832 5.51.516 7.354-.392 1.476 4.528 2.564 12.007 2.196 14.218-.368 2.211-.519 3.332-.808 3.578-.065.055-.397.085-.874.1-.219.006-.025-2.575-.292-2.575-.174.001-.8 2.583-.986 2.581-1.667-.017-3.69-.106-3.69-.106s-5.793-1.004-6.11-1.29c-.317-.287 1.787-5.148 2.64-6.985 1.012-2.182.57-9.129.57-9.129" fill="#000"/><path d="M68.274 27.768c-2.697 1.158-4.198 4.842-4.183 6.408.014 1.566 0 1.105 0 1.105l2.774-.46 1.41-7.053m2.147-.428c3.133 0 4.886 1.755 5.617 4.826.407 1.705.67 2.655.67 2.655H73.12l-2.7-7.481z" fill="#66007A"/><path d="M70.833 27.064c.453.036.606.676.668 1.2.061.523-.9 2.673-1.08 2.673-.177 0-1.067-1.136-1.067-1.136l-1.08 1.28s-.435-2.858-.352-3.144c.082-.285.526-1.061 2.91-.873" fill="#DB0081"/><path d="M69.252 29.34c1.173.38 1.292-.37 1.566-.902.274-.53-.313-3.887-.653-4.092-.34-.205-1.24.286-1.404.573-.163.287-.776 4.012.491 4.422zm-4.989 6.442c-.081 1.296.123 4.858.45 5.186.327.326 1.621-4.83 1.621-4.83l-2.07-.355z" fill="#EE9956"/><path d="M69.605 40.614c-.032-.37-.027-.832-.022-1.32.009-.796.018-1.621-.126-2.187l-.085-.34c-.327-1.294-.476-1.886-.647-3.361-.078-.68.039-1.862.092-2.338.026-.228.027-.405.029-.562.003-.416.006-.667.445-1.136l.157.148c-.38.408-.383.602-.386.99a5.209 5.209 0 01-.03.584c-.053.47-.167 1.631-.092 2.289.169 1.46.317 2.048.642 3.334l.086.338c.15.594.14 1.432.131 2.244-.005.482-.009.938.021 1.298l-.215.019m-3.576-5.654l.305 1.177-2.243.465c-.017-.046-.076-1.197 0-1.32.075-.123 1.938-.322 1.938-.322" fill="#DB0081"/><path d="M65.332 36.198c.397-2.223 2.453-4.63 2.109-5.59a1.058 1.058 0 01-.036-.492 2.55 2.55 0 01-.222-1.311c.01-.103.096-.188.205-.157.25.07.258.349.307.569.439-.78 1.212-1.502 1.644-1.216.689.456.31 2.048-.207 2.47-.517.422-.657 1.337-.724 3.291-.047 1.401-1.32 7.99-2.988 7.943-1.667-.047-.287-4.389-.088-5.507" fill="#F4BA8E"/><path d="M76.564 35.89c.173.594.768 5.118-.014 5.804-.782.686-9.249.17-10.307.133-2.363-.082-2.92-1.406-2.69-1.596.23-.192.578.462 1.26.51.51.038 1.04.083 1.288.1.58.04-1.01-.563-.989-.802.021-.239 1.268 0 1.69.392.666.619 6.912-.191 7.254-.612.343-.422-.05-4.037-.05-4.037l2.558.107" fill="#EE9956"/><path d="M67.098 22.73c-.896-2.112 1.571-4.618 4.028-3.777 1.954.67 2.59 2.492 2.59 2.492s1.406-1.688 3.114-.912c2.857 1.3.332 5.175-.684 6.023-1.017.848-.312 3.252-.312 3.252s-1.95-.387-2.256-2.188c-.307-1.802 1.53-3.997 1.534-4.61.006-1.08-1.55-.867-1.55-.867s.075 1.853-.388 2.625c-.463.771-2.227 1.165-2.227 1.165l-3.85-3.203" fill="#000"/><path d="M73.692 35.108a.38.38 0 01.37-.286c.658.002 2.216.007 2.558-.001.437-.01.324 1.054.267 1.218-.041.122-1.944.102-2.907.085a.433.433 0 01-.41-.542l.122-.474z" fill="#DB0081"/><path d="M68.508 26.882c-.993-.27-2.005-1.803-1.496-3.998.509-2.195 1.596-3.597 3.406-3.063 1.81.534 2.363 1.49 2.234 3.363-.128 1.874-2.834 4.053-4.144 3.698" fill="#F4BA8E"/><path d="M72.57 22.969c.704-.047.822.065.583.767s-1.013.616-1.013.616l.43-1.383z" fill="#F4BA8E"/><path d="M69.911 19.562c-.352.955.664 2.599 1.308 3.155.644.556 1.513.172 1.513.172l.327-.977-.915-1.744-1.559-.963-.674.357" fill="#000"/><path d="M69.911 19.562s-.36.985-.906 1.472c-.545.489-1.63.668-1.63.668s.695-1.907 1.391-2.132c.696-.224 1.145-.008 1.145-.008" fill="#000"/><path d="M68.153 23.028c.074.116.166 2.258-.017 2.324-.183.066-.82.039-.934-.106-.115-.145.797-2.46.951-2.218z" fill="#EE9956"/><path d="M71.858 73.003s-.398.266-.889.266c-.49 0-1.037-.266-1.037-.266s.056 1.618-.68 1.944c-.736.328-2.086.696-2.167.983a.988.988 0 000 .533s4.007.286 4.498 0c.49-.288.275-3.46.275-3.46m2.684-2.588c.46.359 1.702 1.731 1.58 2.272-.123.541-2.74 3.366-2.986 3.284-.117-.039-.233-.208-.324-.375a.565.565 0 01.06-.63c.343-.415.948-1.19.918-1.436-.04-.343-.656-1.375-.656-1.375s.37-.237.82-.605c.45-.369.588-1.135.588-1.135z" fill="#DB0081"/><path d="M27.922 4.057c.422.045 2.757.832 2.318 1.282-.44.451-.249 1.39.34 1.678.59.289.983 1.224.643 1.623-.34.398-1.087 1.26-.642 1.55.446.292.42 1.763 0 1.75-.42-.014-.708.182-.564.95.145.769.032 1.002-.381 1.346-.414.344-4.6.771-4.92 0-.32-.77-2.607.229-2.799-.118-.192-.347-1.258-1.969-1.446-1.936-.188.033-.606-.417-.505-1.095.1-.677.621-1.835.505-2.447-.116-.612-.139-1.48.413-2.128.553-.65.625-.323.697-1.173.072-.849.09-1.196.874-1.311.784-.115.879-.476 1.372-.837.494-.362 1.102-.794 1.699-.362.597.434 1.734 1.158 2.396 1.228" fill="#000"/><path d="M26.305 12.722c2.041-.19 8.216 7.12 7.381 7.817-.834.697-3.469-.706-5.01-2.838-1.54-2.13-2.37-4.98-2.37-4.98z" fill="#fff"/><path d="M24.54 12.187c-2.855.13-2.653 4.829-2.418 6.634.54 4.15-1.623 6.858-1.23 11.17.079.855 8.841.31 9.447-.556.335-.48-1.63-2.603-1.796-5.374-.135-2.243.913-3.812.87-5.854-.039-1.838-1.065-6.193-4.874-6.02" fill="#fff"/><path d="M22.15 28.159c-1.501.884 4.727 3.096 5.246 4.309.52 1.213 9.003 1.56 10.56 1.3 1.559-.26 3.81-.699 3.03-2.69-.411-1.052-7.592-3.152-10.405-3.143-3.858.012-7.737-.185-8.43.224" fill="#5E1473"/><path d="M21.683 28.308c-1.501.884-.519 2.947 0 4.16.52 1.213 9.002 1.56 10.56 1.3 1.559-.26 3.81-.699 3.03-2.69-.779-1.99-12.118-3.636-13.59-2.77" fill="#5E1473"/><path d="M31.14 33.717c.517-3.165 3.796-3.485 4.252-2.483.61 1.344.058 6.75-.483 10.598a20.452 20.452 0 01-3.542-.341c-.317-2.755-.505-6.06-.226-7.774" fill="#5E1473"/><path d="M34.093 41.832c-.308 2.19.205 3.876.122 4.024-.23.405-1.426.652-1.968.141-.249-.234-.61-2.172-.88-4.506 1.17.215 1.543.332 2.726.34zm7.042 3.868c-.19.427-1.228.386-1.817-.071-.262-.204-.81-1.919-1.316-4.04 1.212-.209 1.779-.3 2.877-.8-.093 2.718.336 4.732.256 4.911z" fill="#F4BA8E"/><path d="M36.919 33.912c.212-3.2 3.446-3.832 3.994-2.879.67 1.164.702 5.757.573 9.5-1.099.5-2.272.847-3.484 1.056-.631-2.638-1.2-5.903-1.083-7.677z" fill="#5E1473"/><path d="M32.027 46.29c-.302 1.531.738 1.25 1.126 1.377.745.244 4.574.168 4.709-.304.302-1.062-2.494-1.75-3.418-1.913-.923-.162-2.344.47-2.417.84z" fill="#DB0081"/><path d="M24.006 27.271c.072.063.125.11.151.135.311.3.816-.247 1.44-.343.621-.096 1.62.819 1.562 1.306-.06.487-2.046.41-2.477.281a13.184 13.184 0 01-.833-.362c-.039-.314.118-.669.157-1.017" fill="#F4BA8E"/><path d="M17.277 22.767c.126-.414 2.532-6.531 4.383-8.837.895-1.116 3.21-.351 2.395 2.023-.253.738-3.596 6.286-3.602 6.644-.006.327 3.242 4.09 3.939 4.888-.086.339-.635.587-.64.904-1.882-1.197-6.579-5.282-6.475-5.622" fill="#fff"/><path d="M39.454 45.765c-.756 1.363.557 1.264 1.057 1.414.751.225 4.005 1.4 4.277.992.614-.916-2.812-2.866-3.693-3.189-.269-.099-1.457.453-1.641.783z" fill="#DB0081"/><path d="M24.331 12.534c-.046.738 1.003 1.3 1.392 1.235.39-.065.926-.232.96-.615.04-.467.209-3.285-.375-3.74-.585-.456-1.843.998-1.977 3.12" fill="#EE9956"/><path d="M35.437 13.49c.189-.85.096-1.307.236-1.917.046-.202.232-.98.12-1.052-.113-.07-.32.837-.364.768-.038-.063.28-1.257.169-1.31-.112-.055-.42 1.079-.46 1.035-.062-.068.255-1.34.15-1.355-.172-.028-.34 1.285-.416 1.26-.05-.016.158-1.005.006-1.065-.153-.059-.4 1.498-.398 1.67.002.172-.608-.8-.843-.604-.123.104.306.81.712 1.258.316.348-.03.728-.236 1.267-.124.322 1.28.282 1.28.282l.044-.236" fill="#F4BA8E"/><path d="M26.258 11.673c.06.191.216.565.334.848.34.813-.48.838-.287 1.207.178.34.533.458.885.493.52.052-.075-2.268-.425-2.468-.473-.27-.507-.08-.507-.08" fill="#DB0081"/><path d="M35.219 15.052c.221-1.531.319-2.171.319-2.171l-1.199-.337s-1.607 4.596-1.887 5.605c-.28 1.008-.285 2.468.558 2.742 1.419.417 1.987-4.309 2.209-5.84z" fill="#fff"/><path d="M23.482 8.047c-.375 1.793.588 3.513 2.153 3.842 1.565.33 2.528-.987 2.904-2.78.375-1.794.022-3.386-1.543-3.715-1.564-.329-3.138.86-3.514 2.653z" fill="#F4BA8E"/><path d="M28.068 9.068c-.273-.053-1.276 1.847-1.257 2.026.018.178.57.332.83.162.258-.17.427-2.188.427-2.188z" fill="#EE9956"/><path d="M28.677 6.512c-.079.566-.535 1.047-.931.902-.397-.144-.596-.397-.82 0-.225.397-.334.577-.694.614-.36.036-.63-.433-.964 0-.334.433-.569-.756-.938-.757-.37-.001-.802 1.15-.442 1.369.361.218.469.657.108.654-.36-.003-.29.394-.595.43-.306.036-.946-.394-.946-.394V7.956l.712-1.444 1.163-1.48.944-.47.765-.252 2.537.685.251 1.517h-.15" fill="#000"/><path d="M27.274 27.93c-.03-.2-.07-.426-.116-.673-.202-1.095-.479-2.595-.1-4.349.31-1.431.218-2.944.13-4.406l-.012-.177c-.076-1.282-.317-3.129-1.033-4.644l.23-.108c.733 1.55.98 3.432 1.057 4.737l.011.176c.09 1.48.182 3.01-.135 4.476-.367 1.704-.096 3.175.102 4.248.046.252.088.482.117.686l-.251.034" fill="#DB0081"/><path d="M24.513 11.423c.505.543 2.043 1.55 1.713 2.509-.113.327-.112.694-.3.575-.517-.325-1.893-1.531-1.695-2.325.103-.414.282-.76.282-.76z" fill="#DB0081"/><path d="M34.311 65.453c.387-.71 1.349-.757 2.078-.785.256-.009.486-.012.705-.012.274 0 .53.005.797.01.189.004.383.008.592.01v.627c-.457-.004-.91-.012-1.337-.019-.251-.004-.512-.018-.771-.018-.379 0-.755.029-1.095.155h-.522a3.05 3.05 0 00-.447.032" fill="url(#paint1_linear)"/><path d="M38.932 65.305c-.15 0-.3 0-.45-.002v-.627l.27.001c.371 0 .797-.007 1.321-.03h.015c.362 0 .425.624.084.637-.395.016-.815.021-1.24.021m-4.452.611c-.157 0-.29-.196-.215-.369.014-.032.03-.063.046-.094.146-.021.295-.032.447-.032h.522c-.233.086-.45.218-.638.417a.224.224 0 01-.162.078m8.814-.614c-.657 0-1.331-.014-1.947-.018-.55-.003-.614-.638-.018-.638.854 0 1.09.035 1.683.035.294 0 .675-.009 1.262-.035h.014c.363 0 .425.625.085.638-.345.013-.71.018-1.079.018" fill="#fff"/><path d="M85.394 46.366c.756.123 1.366.452 1.828.984.461.532.618 1.255.47 2.168-.062.38-.153.661-.274.848-.232.442-.63.784-1.194 1.024s-1.113.316-1.647.23c-.78-.128-1.368-.475-1.767-1.043-.4-.567-.541-1.277-.426-2.127l.038-.234c.069-.423.234-.739.496-.949.498-.536 1.084-.84 1.759-.914.21-.034.45-.03.717.013zm4.294-13.81c.823.134 1.45.316 1.882.546.43.23.908.628 1.433 1.193.506.54.879 1.058 1.119 1.554a5.382 5.382 0 01.52 3.343c-.16.98-.508 1.826-1.046 2.54-.538.713-1.336 1.303-2.394 1.771-.691.322-1.183.608-1.475.858-.292.25-.552.585-.78 1.006-.195.356-.356.576-.483.658-.128.082-.347.098-.659.047-.245-.04-.896-.214-1.953-.523-1.058-.31-1.683-.502-1.876-.58-.193-.076-.312-.187-.357-.332a.906.906 0 01-.035-.417c.032-.2.265-.723.7-1.566.432-.845.77-1.373 1.01-1.586.269-.253.716-.478 1.342-.673.577-.181 1.002-.369 1.273-.565a1.49 1.49 0 00.561-.818l.055-.128.016-.101c.094-.579-.148-.916-.727-1.01-.466-.075-1.193.39-2.178 1.396-.329.335-.56.491-.693.47l-.095-.05-.1-.016c-.412-.136-1.11-.832-2.093-2.09-.34-.443-.491-.776-.455-1 .036-.221.227-.557.574-1.004.578-.751 1.382-1.415 2.412-1.992 1.03-.575 2.02-.91 2.973-1.008a6.309 6.309 0 011.529.077" fill="#3C36BA"/><path d="M82.64 23.107c.462-.153.901-.147 1.317.018.417.165.717.526.9 1.084.077.233.108.418.094.559-.001.317-.126.626-.374.927a1.875 1.875 0 01-.861.613c-.476.157-.91.134-1.3-.07-.392-.202-.68-.56-.864-1.073l-.047-.144c-.085-.258-.084-.484.002-.68.124-.449.365-.792.724-1.031.11-.082.245-.15.409-.203zm-1.622-9.046c.503-.167.91-.247 1.22-.245.31.004.696.088 1.158.253.443.156.804.338 1.085.547a3.423 3.423 0 011.272 1.732c.197.6.249 1.18.154 1.739-.095.56-.372 1.127-.831 1.702-.296.384-.49.69-.581.916-.091.227-.14.492-.145.795-.005.26-.032.43-.08.514-.048.083-.167.157-.357.22-.15.049-.568.141-1.255.277-.686.137-1.095.211-1.227.224-.131.014-.23-.014-.298-.082a.58.58 0 01-.143-.225c-.04-.123-.061-.485-.064-1.089-.002-.603.033-.999.106-1.19.078-.222.264-.48.56-.774.273-.27.456-.501.553-.692a.945.945 0 00.076-.625l-.006-.089-.02-.061c-.117-.354-.353-.473-.706-.356-.286.094-.56.57-.82 1.426-.087.286-.171.442-.253.468h-.068l-.06.02c-.273.046-.87-.143-1.793-.563-.32-.151-.504-.294-.549-.43-.045-.136-.035-.381.03-.735.106-.594.365-1.204.777-1.831.412-.626.872-1.107 1.38-1.441.25-.158.545-.293.885-.405" fill="#fff"/><path d="M88.272 5.865c.321.12.56.318.716.593.156.274.16.606.015.993a1.01 1.01 0 01-.194.348c-.141.174-.346.289-.614.344-.27.055-.517.04-.744-.044-.33-.125-.559-.33-.684-.614s-.125-.608 0-.971l.038-.1c.067-.18.167-.303.301-.372a1.233 1.233 0 011.166-.177zm3.1-5.684c.35.131.61.268.778.406.169.14.344.356.525.65.174.282.292.542.354.78.14.518.118 1.023-.066 1.514a2.52 2.52 0 01-.683 1.023c-.299.265-.7.455-1.206.567-.332.08-.573.162-.723.246-.15.084-.294.208-.431.372-.117.14-.207.222-.27.246-.064.025-.161.013-.294-.037a10.922 10.922 0 01-.81-.402 14.796 14.796 0 01-.773-.42c-.078-.05-.121-.11-.128-.177a.407.407 0 01.021-.186c.032-.085.18-.294.445-.626s.46-.534.584-.607c.14-.087.356-.146.648-.177.27-.028.472-.073.608-.136a.666.666 0 00.319-.309l.036-.051.015-.043c.092-.246.016-.415-.23-.507-.199-.075-.558.065-1.08.42-.173.119-.288.167-.345.145l-.037-.03-.042-.016c-.17-.096-.415-.463-.736-1.102-.11-.224-.147-.384-.111-.479.036-.094.149-.224.34-.39.32-.28.732-.5 1.234-.661.503-.162.968-.223 1.394-.181.207.023.429.08.665.168" fill="#3C36BA"/><path d="M7.704 46.236c1.005-.445 1.897-.525 2.675-.242.778.284 1.366.874 1.762 1.772.425.963.448 1.92.07 2.871a3.623 3.623 0 01-1.974 2.051c-.35.155-.664.242-.943.261-.69.095-1.414-.036-2.173-.393-.759-.358-1.258-.81-1.5-1.358-.299-.679-.352-1.42-.158-2.225a4.181 4.181 0 011.199-2.08c.235-.234.583-.454 1.042-.657zM4.81 28.486c.393-.174.659-.253.797-.236.076-.006.167.11.272.35.194.439.504 1.348.93 2.73 1.964 5.932 3.066 9.97 3.306 12.113l.046.725-1.935.856-1.199.569c-.415.183-.726.262-.934.236-.207-.025-.4-.181-.58-.47-.179-.286-.437-.813-.775-1.578l-.463-1.052a250.347 250.347 0 01-2.438-5.748C.936 34.79.396 33.434.218 32.91c-.181-.47-.25-.832-.205-1.086.12-.498.874-1.158 2.262-1.982.99-.595 1.836-1.047 2.536-1.357" fill="#fff"/><path d="M9.089 21.52c.514.137.874.378 1.082.722.207.343.25.744.126 1.203-.132.492-.413.86-.844 1.104-.43.243-.886.3-1.366.172a1.392 1.392 0 01-.434-.188c-.29-.175-.522-.444-.7-.81-.177-.364-.228-.687-.153-.967.093-.346.298-.641.615-.886a2.03 2.03 0 011.082-.42c.16-.016.357.006.592.07zm4.291-7.568c.201.053.325.105.372.154.03.02.03.091-.004.214-.06.224-.218.66-.477 1.31-1.059 2.833-1.867 4.69-2.426 5.57l-.203.287-.988-.265-.624-.15c-.213-.057-.354-.122-.424-.195-.07-.073-.096-.19-.076-.353a7.01 7.01 0 01.186-.83l.144-.538c.225-.838.5-1.808.824-2.907.325-1.099.533-1.774.625-2.026.073-.232.158-.389.252-.471.196-.152.68-.17 1.452-.06.554.077 1.01.164 1.367.26" fill="#3C36BA"/><path d="M49.809 25.115l.896-2.63a3.246 3.246 0 011.69-2.278 8.506 8.506 0 004.49-5.96c.935-4.798-2.346-9.44-7.261-10.088-4.137-.545-8.132 2.077-9.276 6.094a8.52 8.52 0 001.706 7.893 3.33 3.33 0 01.752 2.795l-.158 2.772c2.255.636 4.73 1.285 7.161 1.402" fill="#FFC228"/><path d="M52.437 13.785a.172.172 0 00-.235-.064l-4.49 2.565-2.939-4.013a.172.172 0 10-.276.204l2.983 4.075-1.058 5.428a.172.172 0 00.136.202.172.172 0 00.201-.136l1.058-5.424 4.556-2.602a.172.172 0 00.064-.235" fill="#fff"/><path d="M42.648 23.713l-.131 2.302a2.997 2.997 0 002.364 3.516l.674.132a2.994 2.994 0 003.512-2.368l.742-2.18c-2.43-.116-4.906-.766-7.16-1.402" fill="#FFC228"/><path d="M50.281 23.803l-7.578-1.481a.809.809 0 01-.638-.949l.172-.883a.808.808 0 01.947-.639l7.58 1.482c.437.085.722.51.637.948l-.172.883a.807.807 0 01-.948.639" fill="#fff"/><path d="M49.833 26.1l-7.578-1.48a.808.808 0 01-.638-.95l.172-.883a.807.807 0 01.947-.639l7.58 1.482a.81.81 0 01.637.949l-.172.882a.808.808 0 01-.948.64z" fill="#fff"/><path d="M49.386 28.398l-7.579-1.482a.808.808 0 01-.638-.948l.172-.883a.808.808 0 01.948-.64l7.578 1.482c.438.085.724.51.638.949l-.172.883a.807.807 0 01-.947.639" fill="#fff"/><path d="M50.888 21.37c.02.101.022.208.001.314l-.172.883a.808.808 0 01-.948.64l-7.578-1.482-.125-.038c.063.312.306.57.637.635l7.578 1.48c.438.086.862-.2.948-.638l.172-.883a.808.808 0 00-.513-.91z" fill="#FFC228"/><path d="M50.441 23.662a.8.8 0 01.002.314l-.173.883a.808.808 0 01-.947.639l-7.578-1.482-.126-.037c.063.311.307.57.637.634l7.579 1.48c.438.086.862-.2.947-.638l.172-.883a.807.807 0 00-.513-.91" fill="#FFC228"/><path d="M49.993 25.959c.02.1.023.207.002.314l-.172.883a.808.808 0 01-.948.639l-7.578-1.482-.125-.037c.063.311.306.57.636.634l7.579 1.481c.438.086.862-.2.947-.639l.172-.883a.806.806 0 00-.513-.91z" fill="#FFC228"/><path d="M45.33 12.095c.102-.145.136-.113.248.005.226.24.042.024.105.218l.03.117c.051.1.162.162.27.179.385.057.707-.439.943-.667.044-.044.114-.141.17-.162.096-.037.065-.037.078.026.014.072-.085.246-.108.318-.075.232-.14.466-.144.712-.009.389.129.759.439 1.004.258.205.608.286.908.12.32-.175.428-.523.549-.844.059-.159.118-.353.242-.475.129-.125.184-.12.174.052-.007.135-.042.268-.046.404-.01.349.186.745.576.76a.569.569 0 00.406-.162c.12-.106.196-.309.328-.394.293-.187.707.7 1.046.206.057-.084.01-.18-.092-.185-.405-.016-.523-.597-.992-.462-.223.065-.566.676-.77.495-.303-.27.195-.882-.207-1.156-.282-.191-.629.027-.798.263-.208.288-.232.67-.443.953-.362.488-.854-.085-.876-.503-.012-.255.056-.518.12-.764.044-.174.119-.366.048-.546-.115-.293-.438-.211-.63-.043-.23.2-.382.511-.628.69l-.142.068c-.11.111-.173.097-.188-.04-.069-.13-.022-.085-.05-.174-.02-.066-.032-.126-.077-.182-.182-.225-.488-.157-.6.094-.03.066.065.14.111.075m.54-5.605c.245-.314-.077-.757-.45-.619-1.132.421-2.59 1.188-3.444 2.51-1.542 2.39.433 3.299 1.704 1.379.79-1.196 1.517-2.415 2.19-3.27" fill="#fff"/><defs><linearGradient id="paint0_linear" x1="10.782" y1="76.413" x2="97.452" y2="13.935" gradientUnits="userSpaceOnUse"><stop stop-color="#7F7AD8"/><stop offset=".418" stop-color="#7F7AD8"/><stop offset="1" stop-color="#6840CC"/></linearGradient><linearGradient id="paint1_linear" x1="10.782" y1="76.413" x2="97.452" y2="13.935" gradientUnits="userSpaceOnUse"><stop stop-color="#B4C2FF"/><stop offset=".418" stop-color="#B4C2FF"/><stop offset="1" stop-color="#9F8EF4"/></linearGradient></defs></svg>