<svg width="1683" height="640" fill="none" xmlns="http://www.w3.org/2000/svg"><path d="M838.953 517.196c-75.986-2.02-311.437-9.372-454.197-22.483-264.711-24.389-481.655 6.029-340.04 46.663 39.553 11.361-75.986 74.093 204.338 92.91 246.059 16.516 497.488-7.039 619.159-16.943 121.671-9.903 177.997-29.897 204.207-38.905 23.01-7.924 32.15-54.192-233.467-61.242z" fill="#F0F0F0"/><path d="M247.298 505.971s4.487 6.505 7.782.414c7.61-14.018 18.918-48.654 19.292-64.42.548-22.607-3.285-38.326-3.285-38.326L247 395.78l.298 110.191z" fill="#B91819"/><path d="M248.095 292.18L247 395.771l21.896 12.086a149.183 149.183 0 0014.787-56.263c.701-13.393 1.037-43.437-6.457-53.65-10.146-13.844-29.131-5.764-29.131-5.764z" fill="#B91819"/><path d="M256.079 292.18l3.583 35.856 9.733 38.893 10.357 36.355 36.99 100.882 10.77.874s-1.364-75.748-14.498-97.826c-6.956-11.693-6.946-37.634-10.155-65.563-.586-5.035 2.267-16.401 1.806-20.993A74.817 74.817 0 00293.539 289l-37.46 3.18z" fill="#D22C2D"/><path d="M1412.25 521.627c-53.52-3.468-353.79 15.938-293.59 54.75 60.2 38.811 282.35 64.685 251.55 24.58-30.8-40.105 349.01-11.644 308.87-46.573-40.14-34.93-266.83-32.757-266.83-32.757z" fill="#F0F0F0"/><path d="M1282.25 241.884s11-21.148 12.71-28.91c1.7-7.762 7.61-46.864 7.1-49.362-.52-2.498-9.84-8.576-8.69-10.715 1.15-2.139 10.05-2.143 12.09-1.96 2.04.184 6.12 1.368 7.89 2.816 1.76 1.448-1.98 48.296-3.09 58.385-1.11 10.088-14.77 41.152-14.77 41.152l-13.24-11.406z" fill="#E9D6B8"/><path d="M1302.1 152.862c-.24.153-1.17.424-1.38.623l-1.69.531s4.34-.111 6.91 2.643a11.72 11.72 0 00-3.84-3.797z" fill="#F47257"/><path d="M1401.68 159.789c1.7-1.299 2.57-4.557 2.94-6.662l.86-2.77c-.66-.302-13.58-2.754-17.5-3.037-.44 1.227-.68 2.266-.59 2.942.43 3.231 3.57 24.241 3.57 24.241l11.2.738s-1.86-12.457-.48-15.452z" fill="#E9D6B8"/><path d="M1401.96 150.968s-2.29 1.047-4.87 4.141c0 0-6.15-4.351-5.87-5.627.38-1.692 6.7 1.773 6.7 1.773l4.04-.287z" fill="#F47458"/><path d="M1456.58 458.192s15.07 10.861 17.44 14.1c3.43 4.664-25.53 13.37-22.37 7.926.73-1.256 2.81-5.481 2.9-5.898.48-2.227-5.65-8.216-5.65-8.216l7.68-7.912z" fill="#E9D6B8"/><path d="M1443.82 489.348l10.23-14.451s6.39-1.482 12.95-8.855c0 0 5.89 2.246 9.52 7.12a167.167 167.167 0 01-17.41 15.662 48.327 48.327 0 01-14.9 8.462c-8.65 2.937-.39-7.938-.39-7.938z" fill="#003F1C"/><path d="M1579.6 190.315s-3.9 6.421-4.33 6.032c-.33-.302 1.99-3.687 3.64-7.785.43-1.055.84-2.098 1.22-3.056.99-2.522-.23-3.82-1.67-1.349a29.756 29.756 0 00-1.76 3.484c-.46 1.222-1.28 2.2-1.82 3.17-1.08 1.91-1.85 3.339-1.91 3.251-.07-.088-.54.119-.12-1.012.5-1.364 2.18-4.026 2.77-6.085.34-1.169 1.18-3.564 1.18-3.564s.61-3.855.41-3.962c-1.13-.584-2.27 1.941-2.52 3.584-.68.974-1.5 3.518-1.5 3.518s-2.77 4.798-3.44 4.419c-.28-.156 1.08-3.3 1.95-6.585.8-3.056 1.14-6.257.56-6.494-.95-.409-2.19 2.888-2.19 2.888s-.76 2.357-1.05 3.121c-.37.894-1.64 3.495-1.64 3.495s-4.97 8.786-5.58 8.404c-.61-.382-1.56-2.048-1.44-2.697.12-.649.94-1.742 1.06-2.395.12-.653-.28-1.593-1.04-1.784-.76-.191-2.51 2.758-2.51 2.758s-1.39 2.407-1.43 4.332c-.13 6.662.96 6.398.92 7.258-.04 1.008-7.76 12.136-7.76 12.136l-.15.172 9.17 6.662c3.06-4.966 5.44-8.859 6.12-10.077 0 0 4.58-3.927 7.4-6.494 2.82-2.567 4.39-6.253 5.08-7.098a35.016 35.016 0 003.91-7.384c1.5-3.759-1.53-.863-1.53-.863z" fill="#E9D6B8"/><path d="M1479.6 346.953l-2.38 11.785-59.91 54.469 42.89 43.384-11.59 11.842s-63.33-46.493-65.61-52.582c-3.52-9.394 45.39-71.526 45.39-71.526l51.21 2.628z" fill="#005F2B"/><path d="M1523.74 490.769s15.06 10.86 17.43 14.099c3.44 4.664-25.52 13.393-22.36 7.93.73-1.256 2.81-5.485 2.9-5.901.48-2.224-5.65-8.217-5.65-8.217l7.68-7.911z" fill="#E9D6B8"/><path d="M1510.97 521.982l10.24-14.451s6.79-1.223 13.35-8.595c0 0 5.48 1.986 9.11 6.856a167.395 167.395 0 01-17.4 15.685 48.52 48.52 0 01-14.91 8.458c-8.65 2.918-.39-7.953-.39-7.953z" fill="#003F1C"/><path d="M1477.57 352.057l.94 77.42 47.58 59.676-11.2 12.442s-58.93-48.976-65.38-63.03c-4.01-8.718-18.59-91.169-18.59-91.169l46.65 4.661z" fill="#005F2B"/><path d="M1429.25 345.956c4.87-10.994 4.3-89.801 23.27-108.263 6.67 1.146 11.43 1.758 12.54 2.052.99 8.117 2.08 37.909 2.75 65.211.45 18.191 0 37.264 2.23 47.322 1.38 6.23-45.24 3.717-40.79-6.322z" fill="#00B450"/><path d="M1448.12 242.309s-7.69 21.896-14.03 18.741c-6.34-3.155-41.93-39.411-42.28-41.176-.35-1.765-2.81-46.271-2.81-46.271l14.07-2.808 8.1 36.458s26.04 24.891 31.33 27.344a9.83 9.83 0 013.82 3.125 9.808 9.808 0 011.8 4.587z" fill="#029443"/><path d="M1427.34 351.224c-4.26 0-5.83-.589-8.67-1.444 0 0 3.06-44.159 12.13-91.061 3.44-17.683 4.29-25.254 11.69-23.959 2.13.382 7.92 2.578 10.03 2.933-18.58 52.541-18.64 92.979-21.27 104.706-1.32 5.883-2.47 8.863-3.91 8.825z" fill="#017937"/><path d="M1454.48 229.756l-1.95 7.927s-.44 6.91 2.77 7.533c3.87.764 9.62-5.039 9.62-5.039l3.33-22.385-13.77 11.964z" fill="#E9D6B8"/><path d="M1454.72 229.999l-1.94 7.927s-.45 6.91 2.76 7.533c3.87.764 9.62-5.039 9.62-5.039l3.33-22.385-13.77 11.964z" fill="#E9D6B8"/><path d="M1468.21 217.902l-13.73 11.842-1.46 5.933c5.26-1.253 12.74-7.029 15.19-17.775z" fill="#DFCAA8"/><path d="M1454.42 197.309c-3.33 0-6.31 2.292-7.48 5.607a70.128 70.128 0 00-3 11.491c-1.45 8.61 3.44 16.491 7.72 17.117 4.27.627 14.43-2.196 16.68-14.39.96-5.225 2.23-12.082-2.07-15.685-3.33-2.803-8.03-4.129-11.85-4.14z" fill="#E9D6B8"/><path d="M1466.97 226.429s15.04-13.401 15.69-23.872c.66-10.47-9.01-16.074-17.28-16.368-3.38-.13-6.77.045-10.12.523-8.29 1.043-13.66 4.718-11.77 11.502 2.54 9.111 19.73 1.425 23.25 4.252 2.9 2.334-1.8 7.945 1.02 10.088 2.65 2.014 1.3 1.33.42 5.157-.59 2.877-1 5.789-1.21 8.718z" fill="#2A425B"/><path d="M1472.76 214.289c-.38 2.505-1.91 4.358-3.44 4.137-1.53-.222-2.45-2.441-2.08-4.966.38-2.525 1.91-4.359 3.44-4.134 1.53.226 2.46 2.453 2.08 4.963zm-68.49-67.546c-1.35-2.361-3.36.065-2.06 3.133.03.117.03.241 0 .359-.34.806-3.47 3.3-3.47 3.3s2.51 7.01 3.92 5.169c1.41-1.842 2.48-7.816 2.48-7.816l-.87-4.145z" fill="#E9D6B8"/><path d="M1562.83 218.44l-10.25-10.134s-19.46 27.92-29.33 32.764c-9.59 4.71-41.55 2.999-42.67 2.743-3.82-.875-15.61-4.095-15.61-4.095s-9.87 84.727 2.99 114.187c4.2 9.607 30.3 3.236 30.3 3.236s-8.06-35.278-8.48-39.897c-.42-4.415-2.66-39.403-2.3-39.762.94-.94 36.57-8.706 46.34-16.12 10.32-7.835 29.01-42.922 29.01-42.922z" fill="#027937"/><path d="M1300.18 157.526l-.71-2.857c-1.76.004-3.51-.272-5.17-.817l-3.02-2.22c-.63-.275-1.52.417-1.52 1.108 0 .691.85 1.99 1.28 2.33 0 0 5.38 4.435 7.26 5.78.94.668 3.89 2.468 3.89 2.468l1.71-3.213-3.72-2.579z" fill="#E9D6B8"/><path d="M1186.94 296.895c17.58 18.302 33 2.086 32.24 2.357.6-.256 4.45-.237 6.96-.336 10.47-.413 20-7.904 24.16-17.843 15.67-2.051 25.9-16.518 21.32-29.032 6.92-8.614 4.78-22.366-1.77-31.175-1.52-14.432-20.38-16.877-33.37-11.819-6.58 2.563-12.19 8.102-15.07 14.821-12.52-.301-23.2 8.901-25.99 21.713-19.47 5.425-26.41 32.631-8.48 51.314z" fill="#2A425B"/><path d="M1299.81 474.243a125.463 125.463 0 01-5.37 19.604c-.21.489-2.17 2.292-2.39 2.793 1.05 12.052 8.73 19.207 15.95 24.314-1.57-6.081-5.05-13.053-4.59-14.405a173.502 173.502 0 019.44-24.322c-6.02-.676-8.15-4.324-13.04-7.984z" fill="#E9D6B8"/><path d="M1277.84 330.844l-41.68 28.451s20.3 13.179 27.26 19.811c6.96 6.631 44.21 36.706 44.81 38.223.45 1.146-3.44 15.39-12.41 61.055 3.96 4.049 12.68 8.022 17.85 9.32 10.83-24.36 23.06-75.047 21.69-80.625-2.13-8.652-57.52-76.235-57.52-76.235z" fill="#005F2B"/><path d="M1172.3 388.102c1.23 1.196 9.36 17.033 12.46 25.514 4.53-2.854 7.26-6.25 12.33-8.167-3.99-5.78-11.78-19.681-12.42-22.989-1.53-7.85-3.31-9.008-3.31-9.008s-26.32 8.905-28.07 11.399c-1.76 2.495 14.09-1.543 19.01 3.251z" fill="#E9D6B8"/><path d="M1184.98 384.201c2.04 0-.18-9.221-.65-11.349-.53-2.391-1.91-3.106-2.26-3.19-.93-.233-30.19 9.661-35.13 13.218-.39.343-.74.737-1.03 1.172-2.71 5.047 21.4 6.009 24.88 3.82 3.09-1.982 5-3.697 14.19-3.671z" fill="#003F1C"/><path d="M1285.42 339.745s-35.32-13.901-35.77-12.423c-3.66 11.773-15.04 7.976-21.79 28.711-2.82 8.683-5.05 31.607-6.96 48.606-1.31 11.681-3.14 21.044-3.14 21.044s-8.17-12.086-23.56-29.414c-1.19-1.341-13.62 10.467-13.62 10.467 24.51 48.579 42.39 55.447 46.29 54.126 17.71-5.982 41.19-87.414 41.15-87.406 2.87-5.611 17.4-33.711 17.4-33.711z" fill="#005F2B"/><path d="M1230.92 257.439s-42.16-.054-51.18-.573c-8.17-.474-40.57.351-41.84.206-1.26-.145-9.64-14.325-11.03-12.805-1.39 1.521 4.66 7.033 2.79 8.462-1.88 1.428-21.98-1.773-21.71-.287.49 2.781 12.23 2.426 12.23 3.771 0 1.344-12.28-.764-13.12 1.474-.83 2.239 11.81.909 12.31 1.91s-11.72 2.815-10.46 4.886c.67 1.146 10.82-1.88 10.77-.344-.05 1.536-7.45 5.023-6.54 6.246.91 1.222 5.81-3.752 10.1-3.82 4.3-.069 7.38-2.292 14.23-.42 3.39.928 29.24 4.087 51.08 5.951 22.39 1.91 40.74 2.521 40.74 2.521l1.63-17.178z" fill="#E9D6B8"/><path d="M1293.43 294.898c.56-6.765-.77-19.646-1.08-21.889 2.05-7.029 6.41-22.022 7.97-24.967 0 0-7.34-14.1-14.85-14.004 0 0-7.68 17.289-13.61 20.383-.08-.023-2.1.894-2.98.89-5.74-.042-25.75-.649-29.48-.714l2.1 28.386c7.89 20.907 6.45 39.415 5.06 45.84-.77 3.583 33.98 14.348 39.32 10.914.21-.118 6.42-31.16 7.55-44.839z" fill="#017937"/><path d="M1249.57 255.674c-3.7-1.765-30.41-.882-30.41-.882s-3.73 18.599-.72 23.069c0 0 23.89 3.553 23.21 5.512l7.92-27.699z" fill="#017937"/><path d="M1254.22 242.66s2.78 9.767 3.28 13.988 6.94 17.374 15.7 15.494c8.76-1.879-.38-14.161-2.09-18.03-1.71-3.87-6.35-19.482-6.35-19.482l-10.54 8.03z" fill="#E9D6B8"/><path d="M1266.7 241.024c-1.1-3.564-1.94-6.41-1.94-6.41l-10.54 8.045s.52 1.796 1.15 4.179c5.55.757 9.36-1.906 11.33-5.814z" fill="#DFCAA8"/><path d="M1246.59 213.406a14.857 14.857 0 00-6.2 8.221c-1.62 5.588.52 19.913 12.53 23.206 12.01 3.293 17.02-8.152 14.43-17.007-2.6-8.854-8.12-20.028-20.76-14.42z" fill="#E9D6B8"/><path d="M1268.81 224.35c-.2 2.392-1.49 4.233-2.88 4.118-1.4-.114-2.36-2.147-2.16-4.538.2-2.391 1.49-4.236 2.88-4.118 1.4.118 2.34 2.158 2.16 4.538z" fill="#E9D6B8"/><path d="M1294.35 494.142c-.77-1.91-8.39 4.148-10.18 5.375-2.03 1.379-2.18 2.93-2.13 3.281.13.928 19.54 24.83 25.22 28.123.63.27 1.33.336 2 .191 3.15-1.215-1.98-20.762-6.12-24.624-2.68-2.494-5.4-3.816-8.79-12.346z" fill="#003F1C"/><path d="M1247.98 212.657s-1.93 16.044-7.07 19.012c-5.14 2.969-2.87 10.039-2.87 10.039s-4.94-16.426-.92-21.774c4.02-5.348 10.86-7.277 10.86-7.277z" fill="#2A425B"/><path d="M1244.01 233.927c1.44 2.063 1.47 4.527.07 5.493-1.4.967-3.69.084-5.13-1.982-1.44-2.067-1.46-4.527-.07-5.498 1.4-.97 3.7-.08 5.13 1.987z" fill="#E9D6B8"/><path d="M259.766 203.206s9.851 8.22-12.976 36.726-28.635 21.907-28.635 21.907l-8.686-4.173-9.755-26.814 12.291-4.72 1.631 1.432s2.771-.111 3.862-2.245c1.092-2.135 8.901-9.89 19.207-27.772 4.721-8.253 21.175 4.095 23.061 5.659z" fill="#D05556"/><path d="M259.766 203.206c-1.463-1.252-8.801-2.729-7.859-1.929 0 0 9.858 8.212-12.969 36.718-12.744 15.914-20.183 20.879-24.271 22.172l3.493 1.707s5.801 6.608 28.634-21.907c22.834-28.514 12.972-36.761 12.972-36.761z" fill="#CE3031"/><path d="M202.04 232.135s-26.588 3.216-32.554-24.094c-1.786-8.122-2.771.11-3.125 8.152-.353 8.042 7.575 29.452 22.99 36.351 15.415 6.899 21.767 8.232 26.735 3.851 4.967-4.382-14.046-24.26-14.046-24.26z" fill="#E9D6B8"/><path d="M248.592 292.963l46.089-3.744 9.906-64.841s6.805-39.323-16.374-36.575c-23.178 2.748-49.81 6.453-49.81 6.453s-16.872 34.473 10.189 98.707z" fill="#D05557"/><path d="M364.215 232.449l39.041-19.979s4.595 2.032 1.568 3.655c-.364.199-1.044-1.307-2.314.13-5.103 5.885-14.146 20.355-21.029 24.937a98.73 98.73 0 01-18.95 9.575l1.684-18.318z" fill="#E9D6B8"/><path d="M261.97 199.706s4.536 38.371-13.848 73.251c-1.445 2.744-8.063 3.12-8.063 3.12l-.569-8.584s17.802-36.572 22.48-67.787z" fill="#7DCCD0"/><path d="M262.544 198.858l2.181 7.558 11.479-14.384-1.087-2.297-12.573 9.123zm-39.369 35.141l-4.319-5.755-1.87-2.209a5.21 5.21 0 01-3.406 1.536l4.019 3.688 3.944 5.212 2.987 8.369-1.355-10.841z" fill="#CE3031"/><path d="M322.596 204.65l39.763 24.318.579 3.533 3.262-1.149-.814 19.12-15.822 5.032-53.714-34.303s-10.446-10.993-8.45-29.965c1.461-13.743 31.857 11.557 35.196 13.414z" fill="#D05556"/><path d="M355.155 249.381s5.095-12.054 7.529-18.427l.252 1.533 3.262-1.15-.339 6.611-1.822 9.331-3.755.701-.081-2.875-5.046 4.276z" fill="#CE3031"/><path d="M276.273 180.55a49.188 49.188 0 01-1.192 8.584c-1.03 3.592-13.493 9.756-15.434 10.523-1.942.766-.912-10.207-1.25-12.623-.241-1.838 1.018-1.432-.782-3.881l18.658-2.603z" fill="#E9D6B8"/><path d="M253.197 178.291a3.818 3.818 0 001.07 2.731 3.832 3.832 0 002.688 1.171l17.22.357a3.822 3.822 0 003.903-3.752l.525-25.519a3.826 3.826 0 00-3.751-3.903l-17.22-.349a3.835 3.835 0 00-3.911 3.745l-.524 25.519z" fill="#E9D6B8"/><path d="M253.574 158.037s-2.264-2.518-2.652-4.047c-.201-.768.6-3.687 2.541-4.735 1.94-1.048 3.49 1.029 3.49 1.029s-3.09 1.639-3.267 2.276c-.176.636-.112 5.477-.112 5.477z" fill="#163F59"/><path d="M280.121 164.813s2.807-9.748 2.385-12.637c-.421-2.889-.697-4.881-4.197-5.267-5.243-.59-5.328.525-7.848-1.136-2.519-1.662-7.03-5.573-8.6-5.996-2.624-.695-6.756.099-7.017 5.047a5.472 5.472 0 01-2.45 4.651c.196.45 1.148.888 2.807 1.761 4.728 2.49 7.612 3.022 11.276 2.13 3.664-.891 10.562-2.826 11.303-.088.741 2.739.252 11.015.554 11.661.301.646 1.139.327 1.787-.126z" fill="#194866"/><path d="M274.541 172.341a1.281 1.281 0 001.243 1.28l3.726.075a1.275 1.275 0 001.279-1.25l.14-6.809a1.277 1.277 0 00-1.243-1.28l-3.726-.075a1.278 1.278 0 00-1.279 1.25l-.14 6.809zm-22.19-.449a1.27 1.27 0 001.25 1.28l3.719.075a1.273 1.273 0 001.279-1.25l.134-6.8a1.281 1.281 0 00-1.243-1.28l-3.726-.075a1.286 1.286 0 00-1.28 1.25l-.133 6.8z" fill="#E9D6B8"/><path d="M278.43 166.996s-.206 10.05-.279 13.401c-.058 3.024-1.399 9.643-18.51 9.301-10.13-.209-9.596-7.647-9.555-10.091.045-1.86 2.264-7.39 3.353-8.442l-.084 4.146a8.08 8.08 0 012.984-2.876 8.077 8.077 0 014.017-1.021c7.763.159 9.438 4.738 12.886 4.726 2.612-.003 4.674-4.256 5.188-9.144z" fill="#194866"/><path d="M263.414 178.07l-5.31-.105a1.275 1.275 0 01-1.25-1.28l.02-.724 7.866.168-.021.724a1.269 1.269 0 01-1.305 1.217zm-92.887 34.554s1.325-8.833-.274-10.788c-1.598-1.955-7.853-8.612-7.853-8.612l-1.741-1.554s-2.617 1.065 1.645 5.557c4.261 4.493 1.096 3.465 1.096 3.465l-5.246-2.481-6.65-2.506-2.818-1.514s-1.572-.984-2.093-.887c-1.586.287-.773 1.479-.773 1.479l10.526 6.869-11.292-3.572s-1.512-.191-1.875.556c-.364.748.118.901.118.901l11.925 7.198-5.986-1.135s-1.464-.155-1.867.569-.592.987-.592.987l22.576 7.751 1.174-2.283z" fill="#E9D6B8"/><path d="M155.102 203.561l-8.048-1.998s-1.761-.665-2.74-.421a1.144 1.144 0 00-.74.474 1.124 1.124 0 00-.182.859l11.884 4.288-.174-3.202zm243.684 14.177s-2.972-8.421-1.775-10.627c1.198-2.206 6.079-9.946 6.079-9.946l1.417-1.853s2.773.568-.562 5.731c-3.336 5.164-.422 3.613-.422 3.613l4.682-3.428 6.062-3.68 2.485-2.021s1.328-1.264 1.883-1.272c1.607-.016 1.037 1.307 1.037 1.307l-9.037 8.74 10.393-5.605s1.438-.477 1.937.194c.5.67.046.896.046.896l-10.324 9.326 5.667-2.236s1.429-.44 1.945.192.727.865.727.865l-20.738 11.852-1.502-2.048z" fill="#E9D6B8"/><path d="M412.216 205.905l7.532-3.484s1.603-.982 2.613-.933a1.147 1.147 0 011.069.699c.059.14.089.289.09.44l-10.863 6.475-.441-3.197z" fill="#E9D6B8"/><path d="M257.682 194.458l-.923 10.361 5.168-5.88-4.245-4.481z" fill="#CE3031"/><path d="M254.657 507.783l-1.479 8.099h-3.843s-.442-1.143-1.105-1.143-1.287 1.143-2.056 1.143h-20.032s-.365-1.7.077-2.287a7.311 7.311 0 012.421-1.085c4.064-1.201 15.708-4.948 17.736-9.031 2.43-5.006 8.281 4.304 8.281 4.304zm52.639 4.924c-.567.759-.145 2.758-.145 2.758s9.973 1.249 13.173.432a15.942 15.942 0 003.555-1.816c.23-.144.614-.961.835-1.124.404-.259.615.183.961-.058.537-.338 1.045-.72 1.518-1.143.855-5.006-.307-7.033-.307-7.033s-8.493-3.122-10.079-.961c-3.737 5.054-8.262 7.293-9.511 8.945z" fill="#163F59"/><path d="M562.262 481.32l-5.278 28.675-18.181 4.689-9.676.298s17.733-7.617 21.225-11.531c5.278-5.929 3.817-29.459 3.817-29.459l8.093 7.328z" fill="#E9D6B8"/><path d="M557.273 514.684l-3.817.299-2.05-2.639-16.132 4.768-10.274.809a8.842 8.842 0 011.39-2.137c1.882-1.522 9.315-4.319 9.315-4.319s-.141 2.348 1.029 2.638c1.17.291 12.315-2.788 14.954-3.817 4.547-1.759 5.594-3.184 5.867-2.929.739.66-.282 7.327-.282 7.327z" fill="#161711"/><path d="M571.137 296.881l-9.306 96.098-10.556 91.947 14.074 1.76s17.382-92.361 19.308-100.277c1.926-7.917 21.533-71.698 14.505-88.508-7.028-16.809-28.025-1.02-28.025-1.02z" fill="#B91819"/><path d="M612.937 478.796l-1.46 30.514-18.191 4.688-9.676.291s17.223-7.152 19.932-11.638c3.598-5.964 0-26.072 0-26.072l9.395 2.217z" fill="#E9D6B8"/><path d="M611.767 513.98l-3.817.29-2.05-2.638-14.602 4.107-12.394.581c.009-.509.192-1 .519-1.39 1.83-1.618 10.925-4.328 10.925-4.328s-.36 2.78.809 3.079c1.17.299 12.394-3.079 15.033-4.108 4.548-1.759 5.595-3.184 5.867-2.938.739.642-.29 7.345-.29 7.345z" fill="#161711"/><path d="M614.994 298.191l-2.639 84.048s3.519 22.791 3.774 30.382c.642 17.108-.088 68.452-.088 68.452l-15.2.607s-10.705-92.783-12.077-100.822c-1.372-8.04-16.924-72.684-7.917-88.772 9.008-16.088 34.147 6.105 34.147 6.105z" fill="#D22C2D"/><path d="M594.078 213.597c0 12.244 10.133 22.175 22.65 22.175s22.65-9.931 22.65-22.175c0-12.244-10.142-22.175-22.65-22.175s-22.65 9.922-22.65 22.175zm-16.643-45.309a16.31 16.31 0 0016.309 16.308l4.081-7.749a16.308 16.308 0 0016.308-16.308v-6.158a16.307 16.307 0 00-16.308-16.308h-4.081a16.307 16.307 0 00-16.309 16.308v13.907z" fill="#163F59"/><path d="M614.134 160.512v-6.157a16.307 16.307 0 00-16.308-16.308h-4.082a16.208 16.208 0 00-9.896 3.369c-.28 3.732.016 7.485.88 11.127 2.727 11.884 10.696 20.724 19.545 22.923a16.315 16.315 0 009.861-14.954z" fill="#163F59"/><path d="M594.342 184.121c0 11.725 9.676 21.234 21.692 21.234s21.691-9.509 21.691-21.234a21.446 21.446 0 00-6.447-15.11 21.455 21.455 0 00-15.244-6.124c-11.972-.018-21.692 9.482-21.692 21.234z" fill="#163F59"/><path d="M590.384 212.419c0 12.086 10.01 21.885 22.351 21.885 12.342 0 22.352-9.799 22.352-21.885 0-12.086-10.002-21.885-22.352-21.885-12.349 0-22.351 9.799-22.351 21.885z" fill="#11374F"/><path d="M616.403 171.966c-8.066-5.463-17.434-5.692-20.935-.528-3.501 5.163.194 13.783 8.26 19.246 8.066 5.462 17.434 5.7 20.935.537 3.501-5.164-.203-13.784-8.26-19.255z" fill="#11374F"/><path d="M583.954 144.284c.018 1.538.148 3.073.387 4.592 1.654 10.476 8.014 18.472 14.954 19.413.22 4.29.998 8.533 2.313 12.623 1.302 4.134 6.158 8.506 6.158 8.506 1.178 7.309-23.75 18.041-23.125 16.862.624-1.179 6.729-9.79 8.734-17.698a16.08 16.08 0 00-2.498-13.194 13.313 13.313 0 00-9.535-4.513 1.89 1.89 0 01-1.372-.598 11.614 11.614 0 01-.519-3.413v-13.449a11.543 11.543 0 014.503-9.131z" fill="#E9D6B8"/><path d="M578.799 294.075l-11.682 3s7.609-33.215 9.738-46.189c2.128-12.975 1.882-17.223 1.17-21.234-.713-4.011-2.587-8.735 0-13.194 2.586-4.46 6.649-11.919 8.259-12.5 2.639-.941 5.427-2.12 7.556-4.248 1.161-1.206-15.041 94.365-15.041 94.365z" fill="#CE3031"/><path d="M574.726 296.714s5.665-31.148 8.181-46.884c2.515-15.737 9.438-45.609 10.063-49.382a46.725 46.725 0 012.832-8.796s5.981-4.399 11.329-3.457c5.348.941 9.747 12.895 11.954 24.532 2.208 11.638-13.845 44.052-13.845 46.875 0 2.824 11.33 26.741 11.33 33.664v7.916s-28.007-13.573-41.844-4.468z" fill="#D05556"/><path d="M606.34 183.63l-4.565 2.85-6.527 4.46 1.249 6.931 12.209-10.934-2.366-3.307z" fill="#D0D0D0"/><path d="M633.933 260.192s-10.23 13.635-15.595 13.098a43.114 43.114 0 01-5.234-.88c-3.659-.703-4.398-.659-7.275-1.055a27.067 27.067 0 00-3.263-.361s0 1.654 1.108 2.094c1.109.439 3.457.703 4.284 1.055s-2.084-.237-6.447.115a62.38 62.38 0 00-10.424 1.759c-1.144.316-1.302.387-1.302.448 0 .537.044 1.021.572 1.118.528.096 2.12 0 2.023.044-1.1.522-2.241.951-3.413 1.284-.475.114-1.126.246-1.522.387-.8.281-.431 1.258.968 1.654 0 0 .325.686.748.826.211.071.369.132.589.194.22.061.537.07.783.132.92.207 1.855.34 2.797.396.37 0 3.633-.22 3.633 0 0 0-2.569.58-2.516.774.097.439.59.976 1.038.941.88-.079 2.085-.158 5.507-.589 3.773-.475 4.565-.88 9.403-.282 4.213.519 3.809 1.39 6.799.238 4.011-1.54 18.604-12.861 21.314-14.629 2.709-1.768-4.575-8.761-4.575-8.761z" fill="#E9D6B8"/><path d="M639.377 249.461l-32.801-35.634s-3.976-9.377-3.773-14.153c.237-5.656 7.036-9.913 7.036-9.913s14.954 13.458 32.643 32.801c17.69 19.343 27.365 27.84 17.689 35.396-9.675 7.556-25.007 17.223-25.007 17.223l-5.902-15.103 10.115-10.617z" fill="#D05556"/><path d="M121.223 481.273l4.784 28.675 16.481 4.689 8.771.299s-16.074-7.618-19.24-11.532c-4.784-5.929-3.46-29.459-3.46-29.459l-7.336 7.328z" fill="#E9D6B8"/><path d="M125.745 514.637l3.461.299 1.857-2.639 14.624 4.768 9.313.809a8.995 8.995 0 00-1.26-2.137c-1.706-1.522-8.444-4.319-8.444-4.319s.128 2.348-.933 2.639c-1.06.29-11.163-2.789-13.555-3.818-4.122-1.759-5.071-3.184-5.318-2.929-.67.66.255 7.327.255 7.327z" fill="#161711"/><path d="M113.178 296.834l8.436 96.099 9.568 91.947-12.758 1.759s-15.755-92.361-17.502-100.277c-1.746-7.917-19.519-71.698-13.148-88.508 6.37-16.809 25.404-1.02 25.404-1.02z" fill="#B91819"/><path d="M75.288 478.749l1.323 30.514 16.49 4.688 8.771.291s-15.613-7.152-18.069-11.638c-3.26-5.963 0-26.072 0-26.072l-8.515 2.217z" fill="#E9D6B8"/><path d="M76.348 513.933l3.46.291 1.858-2.639 13.236 4.108 11.235.58a2.368 2.368 0 00-.47-1.39c-1.659-1.618-9.904-4.328-9.904-4.328s.327 2.78-.733 3.079c-1.06.299-11.235-3.078-13.627-4.108-4.122-1.759-5.071-3.184-5.318-2.938-.67.642.263 7.345.263 7.345z" fill="#161711"/><path d="M73.422 298.144l2.392 84.048s-3.189 22.791-3.42 30.382c-.582 17.109.08 68.452.08 68.452l13.778.607S95.956 388.85 97.2 380.811c1.243-8.04 15.341-72.683 7.176-88.772-8.165-16.088-30.954 6.105-30.954 6.105z" fill="#D22C2D"/><path d="M92.383 213.55c0 12.245-9.186 22.175-20.532 22.175-11.347 0-20.532-9.93-20.532-22.175 0-12.244 9.193-22.175 20.532-22.175 11.338 0 20.532 9.922 20.532 22.175zm15.086-45.308c0 4.326-1.558 8.474-4.33 11.532-2.773 3.058-6.533 4.777-10.453 4.777l-3.7-7.75c-3.921 0-7.681-1.718-10.453-4.776-2.773-3.059-4.33-7.207-4.33-11.532v-6.158c0-4.325 1.557-8.473 4.33-11.531 2.772-3.059 6.532-4.777 10.453-4.777h3.7c3.92 0 7.68 1.718 10.453 4.777 2.772 3.058 4.33 7.206 4.33 11.531v13.907z" fill="#163F59"/><path d="M74.203 160.466v-6.158c0-4.325 1.557-8.473 4.33-11.531 2.772-3.059 6.532-4.777 10.453-4.777h3.7c3.245 0 6.399 1.184 8.97 3.369a40.052 40.052 0 01-.798 11.127c-2.472 11.884-9.696 20.724-17.717 22.923-2.65-1.259-4.907-3.346-6.495-6.003-1.589-2.657-2.438-5.768-2.443-8.95z" fill="#163F59"/><path d="M92.143 184.074c0 11.726-8.771 21.234-19.663 21.234s-19.663-9.508-19.663-21.234a23.375 23.375 0 011.56-8.196c1.003-2.593 2.459-4.942 4.285-6.914 1.826-1.971 3.986-3.527 6.357-4.578a17.865 17.865 0 017.46-1.546c10.853-.017 19.664 9.482 19.664 21.234z" fill="#163F59"/><path d="M95.73 212.372c0 12.086-9.073 21.885-20.26 21.885-11.187 0-20.26-9.799-20.26-21.885 0-12.086 9.065-21.885 20.26-21.885 11.195 0 20.26 9.799 20.26 21.885z" fill="#11374F"/><path d="M72.145 171.919c7.312-5.463 15.804-5.692 18.978-.528 3.173 5.163-.176 13.784-7.488 19.246-7.312 5.462-15.803 5.7-18.977.537-3.173-5.164.184-13.784 7.487-19.255z" fill="#11374F"/><path d="M101.559 144.237a34.889 34.889 0 01-.351 4.592c-1.499 10.476-7.263 18.472-13.555 19.413-.2 4.29-.904 8.533-2.097 12.623-1.18 4.134-5.581 8.506-5.581 8.506-1.069 7.309 21.528 18.041 20.962 16.862-.566-1.179-6.1-9.79-7.917-17.698a17.704 17.704 0 01-.176-6.87 16.996 16.996 0 012.44-6.324 12.263 12.263 0 013.9-3.241 11.162 11.162 0 014.743-1.272c.234-.001.464-.054.678-.157a1.72 1.72 0 00.566-.441c.31-1.105.469-2.256.471-3.413v-13.449a12.52 12.52 0 00-1.079-5.089 11.36 11.36 0 00-3.004-4.042z" fill="#E9D6B8"/><path d="M106.233 294.029l10.589 2.999s-6.897-33.215-8.827-46.189c-1.929-12.974-1.706-17.223-1.06-21.234.645-4.011 2.344-8.735 0-13.194-2.345-4.46-6.028-11.919-7.487-12.5-2.392-.941-4.92-2.12-6.85-4.248-1.052-1.205 13.635 94.366 13.635 94.366z" fill="#CE3031"/><path d="M109.924 296.667s-5.134-31.148-7.415-46.884c-2.28-15.737-8.556-45.609-9.122-49.382a50.304 50.304 0 00-2.567-8.796s-5.422-4.399-10.27-3.457c-4.848.941-8.835 12.895-10.836 24.532-2.001 11.638 12.55 44.052 12.55 46.875 0 2.824-10.27 26.741-10.27 33.664v7.916s25.388-13.572 37.93-4.468z" fill="#D05556"/><path d="M81.267 183.583l4.139 2.85 5.916 4.46-1.132 6.931-11.067-10.934 2.144-3.307z" fill="#D0D0D0"/><path d="M56.255 260.146s9.273 13.634 14.137 13.097a35.744 35.744 0 004.744-.879c3.317-.704 3.987-.66 6.594-1.056a22.344 22.344 0 012.958-.361s0 1.654-1.004 2.094c-1.005.44-3.134.704-3.884 1.055-.75.352 1.89-.237 5.845.115 3.189.29 6.35.879 9.449 1.759 1.036.317 1.18.387 1.18.449 0 .536-.04 1.02-.519 1.117-.478.096-1.921 0-1.833.044.997.522 2.032.951 3.093 1.284.43.114 1.02.246 1.38.387.725.281.39 1.258-.877 1.654 0 0-.295.686-.678.826-.191.071-.335.132-.534.194-.2.062-.487.07-.71.132-.834.207-1.682.34-2.535.396-.335 0-3.294-.22-3.294 0 0 0 2.329.58 2.28.774-.087.44-.533.976-.94.941-.797-.079-1.89-.158-4.991-.589-3.421-.475-4.139-.88-8.524-.282-3.82.519-3.453 1.39-6.164.238-3.636-1.54-16.864-12.86-19.32-14.628-2.456-1.769 4.147-8.761 4.147-8.761z" fill="#E9D6B8"/><path d="M51.32 249.414l29.733-35.634s3.604-9.376 3.42-14.153c-.214-5.656-6.378-9.913-6.378-9.913s-13.555 13.458-29.59 32.801C32.47 241.858 23.7 250.355 32.47 257.911c8.771 7.556 22.67 17.223 22.67 17.223l5.35-15.103-9.17-10.617z" fill="#D05556"/><path d="M841.376 312.613l3.571 46.124s12.452-24.717 13.789-42.067c1.337-17.35-17.706-4.749-17.36-4.057zm-82.487-26.296l22.65 36.822s-33.653-16.181-31.943-31.241c1.711-15.06 9.293-5.581 9.293-5.581zm57.333-87.396c-.439 5.263-3.272 9.825-6.245 10.04h-8.469c-2.973-.215-5.805-4.777-6.245-10.04-.691-8.675-1.386-17.353-2.084-26.035-.458-5.207 1.57-15.648 6.076-18.696a11.22 11.22 0 0112.966 0c4.506 3.085 6.544 13.527 6.086 18.696-.698 8.675-1.393 17.354-2.085 26.035z" fill="#E9D6B8"/><path d="M840.789 212.131s11.03 7.254 17.415 51.321 2.328 42.385 2.328 42.385l-1.159 10.049-16.266 1.673-9.292-37.935 6.974-67.493z" fill="#D99426"/><path d="M844.845 212.682l-25.613-11.564-13.219 3.954-16.34-1.869-18.005 7.806s-8.133 7.815-.579 32.914c7.553 25.1 6.422 66.55 6.422 66.55l65.381 4.15s-4.431-88.012 1.953-101.941z" fill="#FEB032"/><path d="M783.278 212.129s-9.872-5.609-19.744 6.694c-16.826 20.911-24.968 46.853-26.717 51.882-1.748 5.029-4.057 20.08 2.908 24.539l6.964 4.459 14.527-8.918-2.328-4.469-1.159-2.804s8.133-17.855 16.827-34.027c8.694-16.173 8.722-37.356 8.722-37.356z" fill="#FEB032"/><path d="M802.777 204.502l-6.459 7.057-6.46-9.31 3.88-5.74 9.039 7.993zm14.192-7.442l-12.424 8.011 5.871 7.049 9.694-11.003-3.141-4.057z" fill="#D0D0D0"/><path d="M806.984 148.02V142h13.004a7.919 7.919 0 017.918 7.918v6.02h-13.004a7.916 7.916 0 01-7.918-7.918z" fill="#163F59"/><path d="M794.524 184.543a7.047 7.047 0 007.048 7.04h15.977a7.04 7.04 0 007.001-7.04v-31.952a7.025 7.025 0 00-2.058-4.983 7.027 7.027 0 00-2.285-1.528 7.026 7.026 0 00-2.696-.537h-15.976a7.048 7.048 0 00-7.048 7.048l.037 31.952z" fill="#E9D6B8"/><path d="M806.48 142a7.933 7.933 0 00-6.619 3.58h-2.72a6.132 6.132 0 00-6.132 6.133v15.162h4.318v-6.16a4.32 4.32 0 014.319-4.319h13.031a7.918 7.918 0 007.918-7.918V142H806.48z" fill="#163F59"/><path d="M796.685 170.812a3.74 3.74 0 00-3.74-3.74h-.308a3.739 3.739 0 00-3.739 3.74v4.561a3.739 3.739 0 003.739 3.74h.308a3.742 3.742 0 003.441-2.235l.299-6.066z" fill="#E9D6B8"/><path d="M800.984 338.246s19.696 69.765 35.476 94.734c15.779 24.969 21.286-7.479 21.286-7.479l-19.632-116.01-45.805-.29s1.159 2.346 8.675 29.045z" fill="#9E6915"/><path d="M822.746 309.444s-13.153 114.412-15.088 120.199c-6.385 19.453-20.986 6.889-23.239.402-2.253-6.488-6.011-54.463-5.254-89.472.757-35.008.739-32.718.739-32.718l42.842 1.589z" fill="#96610E"/><path d="M782.54 534.165c-.683.822-.187 2.991-.187 2.991s11.872 1.318 15.686.421a20.049 20.049 0 004.253-1.982c.262-.159.739-1.066.991-1.225.477-.28.729.196 1.131-.065a12.697 12.697 0 001.823-1.253c1.038-5.45-.346-7.637-.346-7.637s-10.115-3.356-12.003-1.019c-4.459 5.497-9.862 7.955-11.348 9.769zm73.794-4.908l1.683 8.852h9.021s.495-1.252 1.271-1.252c.636 0 1.468 1.252 2.337 1.252h22.941s.411-1.869-.085-2.505a8.953 8.953 0 00-2.804-1.187c-4.674-1.299-17.986-5.394-20.304-9.834-2.777-5.376-14.06 4.674-14.06 4.674z" fill="#161711"/><path d="M811.005 380.854s-2.926 43.404-2.505 66.372c.308 17.304.346 50.48-2.291 78.758-.159 1.73-14.274.421-14.274.421s-9.479-108.195-10.984-125.92c-1.505-17.724 18.78-32.335 30.054-19.631z" fill="#96610E"/><path d="M852.865 428.857s-3.982.869-16.537 1.963c-5.711.486 16.733 100.138 16.733 100.138l17.762-7.666-13.377-100.371-4.581 5.936z" fill="#9E6915"/><path d="M940.126 529.373a34.864 34.864 0 016.257-1.209c2.682-.347 4.685-.223 5.694-1.158 1.656-1.556 1.573-7.35 1.929-7.259 3.724.969 3.898 12.821 2.094 12.787-2.483 0-14.517-1.2-15.527-1.332-1.01-.132-.745-2.077-.447-1.829z" fill="#E9D6B8"/><path d="M958.061 430.055c1.242 1.523 5.951 5.735 6.903 10.561 1.87 9.468 2.317 14.351 1.009 24.002-2.069 15.328-5.868 39.768-7.606 50.056-1.572 9.27-.463 20.915-6.968 17.811 4.262-12.241 2.706-32.386 2.209-43.112-3.368-73.182 2.26-62.041 4.453-59.318z" fill="#E9D6B8"/><path d="M942.749 528.72c-.869 2.921 8.276 2.243 10.635 1.605a26.98 26.98 0 013.725-.753h.273c.004.072.004.144 0 .215-.091 1.614.496 3.816-2.094 3.667l-16.23-.927c-13.243-.745 3.707-3.873 3.691-3.807z" fill="#194866"/><path d="M959.965 331.134c3.112-.828 3.178 1.903 5.421 8.682 4.395 13.309 6.886 32.999 5.363 53.988-1.796 24.59-5.562 49.246-10.619 62.736-4.138-9.733-7.531-18.523-9.857-40.025-5.156-47.624.124-82.857 9.692-85.381z" fill="#E9D6B8"/><path d="M958.939 334.593c2.839-.604 2.831 1.655 4.685 7.407 3.642 11.24 5.396 27.785 3.484 45.298-2.242 20.526-6.695 43.253-12.174 43.46-2.103.083-2.98-15.27-3.791-28.14-2.541-40.017-.919-66.163 7.796-68.025zm37.07 199.672s1.804-.505 5.881-1.44c2.85-.654 4.27-1.085 4.96-2.235 1.1-1.895.6-7.358 1.37-7.366 3.7-.042 4.79 9.775 3.89 11.331-1.16 2.052-13.238 2.954-15.083 1.986-.902-.447-1.358-2.417-1.018-2.276z" fill="#E9D6B8"/><path d="M992.973 436.601c1.729-.77 0-7.879 3.31-3.195 5.317 7.631 9.807 24.963 10.567 34.332 1.22 14.897 3.45 38.477 3.93 48.525.44 9.104 3.89 19.789-2.88 18.208.33-12.745-3.7-31.194-6.82-41.068-10.731-33.694-13.429-54.443-8.107-56.802z" fill="#E9D6B8"/><path d="M996.026 534.264c3.609 3.774 10.594 1.043 12.854.149 3.87-1.548 3.63-2.789 3.65-2.723.37 1.523.96 3.741-1.27 4.875-2.02 1.035-4.27.968-6.77 1.324-2.24.315-15.342 1.523-15.764-.132-.604-2.351 7.25-3.567 7.3-3.493z" fill="#194866"/><path d="M986.351 338.616c2.979-.885 3.12 1.738 5.479 8.202 4.651 12.688 7.639 31.6 6.803 51.869-.993 23.754-4.37 44.553-8.839 57.713-4.321-9.262-7.317-14.55-10.213-35.2-6.473-45.745-2.417-79.869 6.77-82.584z" fill="#E9D6B8"/><path d="M989.546 426.297c1.581-.919 4.569 3.087 6.795 7.018 4.349 7.698 6.049 17.29 8.279 30.549 2.63 15.519 3.49 29.399 2.71 38.461-3.42-6.745-6.25-15.468-10.194-24.482-23.87-54.484-12.44-48.74-7.59-51.546z" fill="#E9D6B8"/><path d="M985.589 335.727c2.963-.729 3.02 1.655 5.164 7.631 4.196 11.694 6.621 29.017 5.148 47.49-1.341 17.282-4.138 32.8-7.647 44.412-.886 2.93-4.139 3.022-4.735.356-1.804-8.4-2.921-17.885-3.898-28.14-3.989-41.979-3.145-69.515 5.968-71.749z" fill="#E9D6B8"/><path d="M938.396 417.227a18.752 18.752 0 01-.256-4.801c1.125-9.625 1.307-19.474 4.667-37.683 3.311-17.679 10.33-43.915 22.447-73.703 1.175-3.037 23.77-1.332 33.006 1.341a142.366 142.366 0 014.97 17.058c7.94 32.279 11.74 50.909 13.35 66.411 1.66 15.03 1.16 26.965 1.98 34.977-10.51 22.554-49.176-18.159-80.164-3.6z" fill="#96610E"/><path d="M957.755 320.117c.041 1.01-.687 2.367-1.043 3.766a59.53 59.53 0 01-3.046 8.111 48.038 48.038 0 00-1.953 5.396c-.828-2.838.588-4.436.729-5.793.14-1.358.248-.828-1.507.737-.993.902-1.076 4.088-1.39 6.132a5.574 5.574 0 01-.828 2.483 27.018 27.018 0 01-.132-5.52 33.62 33.62 0 011.614-7.681 56.909 56.909 0 013.757-6.414 10.956 10.956 0 00.828-8.5c-.712-2.243 2.806 2.706 2.971 7.283z" fill="#E9D6B8"/><path d="M950.513 327.592s-2.673 4.469-2.855 5.528c-.125.737-.125 4.313-.125 4.313a6.885 6.885 0 001.192-2.996c.083-1.432 1.788-6.845 1.788-6.845z" fill="#E9D6B8"/><path d="M956.415 216.188a17.081 17.081 0 0017.091 17.083l4.27-8.111c9.436 0 17.091-14.228 17.091-23.663v-6.406A17.098 17.098 0 00977.776 178h-4.27a17.09 17.09 0 00-17.091 17.091v21.097z" fill="#137F7F"/><path d="M953.824 229.224c-12.15 15.585-13.334 50.487-13.334 50.487s5.695 6.572 8.277 4.138c3.311-3.07 10.428-21.353 17.381-47.044 4.295-15.882-10.296-10.188-12.324-7.581z" fill="#96610E"/><path d="M948.278 274.87c8.873 9.717 4.784 26.485 4.784 26.485s-3.31.637-5.28-1.026c-2.483-2.111-4.139-7.739-7.226-20.774-1.928-8.037 6.208-6.315 7.722-4.685z" fill="#96610E"/><path d="M948.28 289.61s2.549-.463 6.041 10.048c3.493 10.512 2.715 23.274 2.715 23.274l-7.838-20.393s-3.575-9.212-.918-12.929z" fill="#E9D6B8"/><path d="M991.457 194.579a30.072 30.072 0 013.534-.281 27.744 27.744 0 00.24 4.444c2.069 14.435 14.839 24.731 29.359 24.375a28.948 28.948 0 01-7.38 18.549 28.943 28.943 0 01-17.617 9.376c-15.924 2.284-30.623-8.508-32.883-24.093-2.259-15.585 8.815-30.085 24.747-32.37z" fill="#137F7F"/><path d="M963.243 184.49c.025 1.614.164 3.223.414 4.817 1.721 10.967 8.392 19.301 15.725 20.327.224 4.966 1.986 9.278 2.417 13.243.952 8.608 10.494 9.526 10.494 9.526 1.234 7.664-28.901 18.283-28.289 17.05.613-1.233 7.044-10.263 9.146-18.548a16.848 16.848 0 00-2.624-13.813 13.982 13.982 0 00-9.981-4.726 1.954 1.954 0 01-1.441-.629 12.12 12.12 0 01-.538-3.568v-14.07a12.1 12.1 0 014.677-9.609z" fill="#E9D6B8"/><path d="M1000.2 275.623l12.78-24.871c3.8-7.391 1.05-14.55-6.11-15.916l-40.516-7.68c-4.478-.423-11.289 7.118-9.328 15.601l9.725 27.586 33.449 5.28z" fill="#E9D6B8"/><path d="M1006.03 236.831c-7.976 24.83 17.98 58.987 17.98 58.987s8.13.116 8.91-3.617c.98-4.734-6.1-14.608-15.11-43.038-5.58-17.645-10.68-15.783-11.78-12.332z" fill="#96610E"/><path d="M966.14 305.113c0 5.62.307 12.415 2.773 12.291l16.934-2.442c2.483-.116 10.577.704 10.561-4.966l4.762-23.299c0-5.628-2.023-10.089-4.489-9.931l-30.814-12.332c-2.483.115-4.461 4.775-4.444 10.395l4.717 30.284z" fill="#FEB032"/><path d="M959.568 238.271a19.318 19.318 0 011.507-4.271c20.145 15.725 34.306 9.17 44.525 6.58.1.662.18 1.349.22 2.061.41 7.763-.04 15.527.29 23.29.3 6.174-7.592 11.529-11.391 11.678-14.169.596-17.381-.347-31.054-4.461-3.658-1.109-10.478-7.681-9.104-13.342a2034.403 2034.403 0 005.007-21.535z" fill="#FEB032"/><path d="M993.916 231.807s16.274-.497 19.114 7.3c2.85 7.796-4.07 19.144-4.07 19.144s-4.14 14.451-5.27 22.288c-1.13 7.838 3.85 15.279 2.31 13.748-.31-.315-3.99 0-9.858-2.707-5.868-2.706-2.615-13.433-2.036-16.884.58-3.451 3.443-20.385 2.806-23.174-.637-2.789-2.996-19.715-2.996-19.715zm-38.842 6.72c1.656-5.23 6.506-13.466 9.585-12.555 3.079.91 6.621 1.705 6.621 1.705s-10.76 4.684-10.329 26.981c.074 3.816-.455 11.43.828 17.381 1.282 5.951 1.737 17.513 1.737 17.513s-6.439 1.325-6.728 2.268c-.29.944.827-6.166-1.954-16.023-6.215-21.908-2.772-27.71.24-37.27z" fill="#9E6915"/><path d="M1033.97 233.537h-2.48v-1.763h-16.75v14.824c-.06.907.24 1.8.84 2.486.6.686 1.44 1.11 2.35 1.18h10.37c.91-.07 1.75-.494 2.35-1.18.6-.686.9-1.579.84-2.486v-1.126h2.48a2.432 2.432 0 002.24-2.582v-6.779a2.425 2.425 0 00-2.24-2.574zm.35 9.353c.01.049 0 .099-.01.147a.357.357 0 01-.08.129.367.367 0 01-.11.091.437.437 0 01-.15.038h-2.48v-7.589h2.48c.1.008.2.055.26.131.07.076.1.175.09.274v6.779z" fill="#FFC40E"/><path d="M1033.01 268.249c1.5-5.67 4.04-11.521 3.56-14.898-.66-4.809-3.11-6.994-2.27-10.255.07-.36.13-.725.15-1.092.13-.977.44-2.053.44-2.483 0-.431-.15-1.788.12-1.291 2.43 4.436 4.72 9.625 4.7 10.85 0 2.483-.83 16.396-2.17 21.519-1.53 5.753-6.5 5.306-4.53-2.35z" fill="#E9D6B8"/><path d="M1037.5 252.366s1.1.488 1.52-.356c.71-1.382.87-4.494.88-5.603 0-1.242-.9-7.077-.9-7.077a6.91 6.91 0 00-.78 4.229c.53 3.435-.72 8.807-.72 8.807z" fill="#E9D6B8"/><path d="M1036.74 279.753a52.747 52.747 0 01-5.67-2.648c4.04-14.832 8.13-27.222 8.13-27.222l-2.46 29.87zm1.84-34.621l-1.44-8.277-3.22-.778-1.12.555-.13.885s.41.547.33.547c-.46 0-.32 1.415.08 1.415-.14.635-.24 1.279-.28 1.928.28.679 1.55.555 2.12 2.003.56 1.449-.23 3.112.55 3.22.78.107 3.11-1.498 3.11-1.498z" fill="#E9D6B8"/><path d="M1037.47 276.037c-.19-1.225-7.12-1.656-7.92.538l-.83 1.605s-6.35 14.07 1.21 16.661c.02-.033 8.18-.596 7.54-18.804z" fill="#96610E"/><path d="M230.05 46h-7.2V11h7.2v13.8l12.9-13.8h8.8L236.9 27.05 254.3 46h-9.2l-15.05-16.15V46zm36.303 0h-7.2V11h15.3c3.766 0 6.733.983 8.9 2.95 2.2 1.933 3.3 4.467 3.3 7.6 0 3.167-1.1 5.717-3.3 7.65-2.167 1.967-5.134 2.95-8.9 2.95h-8.1V46zm0-28.7V26h7.6c1.733 0 3.083-.367 4.05-1.1.966-.767 1.45-1.85 1.45-3.25s-.484-2.467-1.45-3.2c-.967-.767-2.317-1.15-4.05-1.15h-7.6zM299.162 46h-6.05V11h7.2v22.8l16.95-22.8h6.2v35h-7.15V23.05L299.162 46zm30.686-28.55V11h29.35v6.45h-11.1V46h-7.2V17.45h-11.05zM371.621 46h-6.05V11h7.2v22.8l16.95-22.8h6.2v35h-7.15V23.05L371.621 46zm40.236 0h-7.2V11h7.2v13.8l12.9-13.8h8.8l-14.85 16.05 17.4 18.95h-9.2l-15.05-16.15V46zm35.152 0h-6.05V11h7.2v22.8l16.95-22.8h6.2v35h-7.15V23.05L447.009 46z" fill="#B61112"/><path d="M230.05 46h-7.2V11h7.2v13.8l12.9-13.8h8.8L236.9 27.05 254.3 46h-9.2l-15.05-16.15V46zm36.303 0h-7.2V11h15.3c3.766 0 6.733.983 8.9 2.95 2.2 1.933 3.3 4.467 3.3 7.6 0 3.167-1.1 5.717-3.3 7.65-2.167 1.967-5.134 2.95-8.9 2.95h-8.1V46zm0-28.7V26h7.6c1.733 0 3.083-.367 4.05-1.1.966-.767 1.45-1.85 1.45-3.25s-.484-2.467-1.45-3.2c-.967-.767-2.317-1.15-4.05-1.15h-7.6zM299.162 46h-6.05V11h7.2v22.8l16.95-22.8h6.2v35h-7.15V23.05L299.162 46zm30.686-28.55V11h29.35v6.45h-11.1V46h-7.2V17.45h-11.05zM371.621 46h-6.05V11h7.2v22.8l16.95-22.8h6.2v35h-7.15V23.05L371.621 46zm40.236 0h-7.2V11h7.2v13.8l12.9-13.8h8.8l-14.85 16.05 17.4 18.95h-9.2l-15.05-16.15V46zm35.152 0h-6.05V11h7.2v22.8l16.95-22.8h6.2v35h-7.15V23.05L447.009 46z" fill="#B61112"/><path d="M688.05 46h-7.2V11h7.2v13.1h15.8V11H711v35h-7.15V30.65h-15.8V46zm57.941 0h-26.25V11h25.7v6.45h-18.5v6.75h14.9v6.35h-14.9v9h19.05V46zm12.782 0h-6.05V11h7.2v22.8l16.95-22.8h6.2v35h-7.15V23.05L758.773 46zm-.05-45.45h5.3c0 1.1.333 1.983 1 2.65.7.667 1.633 1 2.8 1 1.167 0 2.1-.333 2.8-1 .7-.667 1.067-1.55 1.1-2.65h5.3c-.033 2.6-.9 4.683-2.6 6.25-1.7 1.533-3.883 2.3-6.55 2.3s-4.85-.767-6.55-2.3c-1.7-1.567-2.567-3.65-2.6-6.25zm30.736 16.9V11h29.35v6.45h-11.1V46h-7.2V17.45h-11.05zM832.382 46h-7.2V11h15.3c3.767 0 6.733.983 8.9 2.95 2.2 1.933 3.3 4.467 3.3 7.6 0 3.167-1.1 5.717-3.3 7.65-2.167 1.967-5.133 2.95-8.9 2.95h-8.1V46zm0-28.7V26h7.6c1.733 0 3.083-.367 4.05-1.1.967-.767 1.45-1.85 1.45-3.25s-.483-2.467-1.45-3.2c-.967-.767-2.317-1.15-4.05-1.15h-7.6zM859.735 46h-7.55l15-35.2h6.9l15 35.2h-7.65l-3.45-8.1h-14.8l-3.45 8.1zm10.85-26.2l-5.15 12.15h10.25l-5.1-12.15zm20.626 25.9v-6.5c.734.267 1.584.4 2.55.4 1.867 0 3.134-1.283 3.8-3.85.667-2.633 1.05-7.467 1.15-14.5l.15-10.25h24.7v35h-7.15V17.45h-10.6l-.2 7.1c-.266 8.233-1.2 13.883-2.8 16.95-1.633 3.1-4.516 4.65-8.65 4.65-1.266 0-2.25-.15-2.95-.45zm56.021.3h-14.9V11h7.2v11.55h7.7c4.167 0 7.467 1.1 9.9 3.3 2.434 2.133 3.65 4.95 3.65 8.45 0 3.5-1.216 6.317-3.65 8.45-2.466 2.167-5.766 3.25-9.9 3.25zm-7.7-17.35v11h7.3c2.1 0 3.734-.467 4.9-1.4 1.2-.967 1.8-2.317 1.8-4.05 0-1.767-.6-3.133-1.8-4.1-1.166-.967-2.8-1.45-4.9-1.45h-7.3zM974.419 46h-7.2V11h7.2v13.1h15.8V11h7.15v35h-7.15V30.65h-15.8V46zm70.341 0h-7.2V11h7.2v35zm-24.95 0h-13.7V11h7.2v11.55h6.5c4.17 0 7.47 1.1 9.9 3.3 2.43 2.133 3.65 4.95 3.65 8.45 0 3.5-1.22 6.317-3.65 8.45-2.47 2.167-5.77 3.25-9.9 3.25zm-6.5-17.35v11h6.1c2.1 0 3.73-.467 4.9-1.4 1.2-.967 1.8-2.317 1.8-4.05 0-1.767-.6-3.133-1.8-4.1-1.17-.967-2.8-1.45-4.9-1.45h-6.1zM1079.75 46h-26.25V11h25.7v6.45h-18.5v6.75h14.9v6.35h-14.9v9h19.05V46z" fill="#FFB033"/><path d="M1193.05 46h-7.2V11h29.3v35H1208V17.45h-14.95V46zm38.06 0h-7.2V11h15.3c3.77 0 6.73.983 8.9 2.95 2.2 1.933 3.3 4.467 3.3 7.6 0 3.167-1.1 5.717-3.3 7.65-2.17 1.967-5.13 2.95-8.9 2.95h-8.1V46zm0-28.7V26h7.6c1.73 0 3.08-.367 4.05-1.1.97-.767 1.45-1.85 1.45-3.25s-.48-2.467-1.45-3.2c-.97-.767-2.32-1.15-4.05-1.15h-7.6zm35.96 19.4c2.07 2.167 4.65 3.25 7.75 3.25 3.07 0 5.63-1.083 7.7-3.25 2.07-2.167 3.1-4.9 3.1-8.2 0-3.3-1.03-6.033-3.1-8.2-2.07-2.167-4.63-3.25-7.7-3.25-3.1 0-5.68 1.083-7.75 3.25-2.03 2.133-3.05 4.867-3.05 8.2 0 3.333 1.02 6.067 3.05 8.2zm-10.4-8.2c0-5.133 1.72-9.433 5.15-12.9 3.43-3.533 7.77-5.3 13-5.3 5.2 0 9.52 1.767 12.95 5.3 3.47 3.533 5.2 7.833 5.2 12.9 0 5.033-1.73 9.333-5.2 12.9-3.43 3.533-7.75 5.3-12.95 5.3-5.23 0-9.57-1.767-13-5.3-3.43-3.533-5.15-7.833-5.15-12.9zm51 17.5h-7.2V11h7.15l10.15 14.5 10.15-14.5h7.1v35h-7.1V22.05l-8.05 11.25h-4l-8.2-11.25V46zm45.29-9.3c2.06 2.167 4.65 3.25 7.75 3.25 3.06 0 5.63-1.083 7.7-3.25 2.06-2.167 3.1-4.9 3.1-8.2 0-3.3-1.04-6.033-3.1-8.2-2.07-2.167-4.64-3.25-7.7-3.25-3.1 0-5.69 1.083-7.75 3.25-2.04 2.133-3.05 4.867-3.05 8.2 0 3.333 1.01 6.067 3.05 8.2zm-10.4-8.2c0-5.133 1.71-9.433 5.15-12.9 3.43-3.533 7.76-5.3 13-5.3 5.2 0 9.51 1.767 12.95 5.3 3.46 3.533 5.2 7.833 5.2 12.9 0 5.033-1.74 9.333-5.2 12.9-3.44 3.533-7.75 5.3-12.95 5.3-5.24 0-9.57-1.767-13-5.3-3.44-3.533-5.15-7.833-5.15-12.9zm47.38 18.2c-2.4 0-4.16-.333-5.3-1v-6.35c1.14.633 2.49.95 4.05.95 1.47 0 2.64-.333 3.5-1 .84-.633 1.74-1.917 2.7-3.85L1381.64 11h7.95l8.85 17.2 7.75-17.2h7.65l-12.9 27.4c-2.6 5.533-6.26 8.3-11 8.3zm26.81-29.25V11h29.35v6.45H1435V46h-7.2V17.45h-11.05zM1478.72 46h-26.25V11h25.7v6.45h-18.5v6.75h14.9v6.35h-14.9v9h19.05V46zm13.93 0h-7.2V11h15.3c3.77 0 6.73.983 8.9 2.95 2.2 1.933 3.3 4.467 3.3 7.6 0 3.167-1.1 5.717-3.3 7.65-2.17 1.967-5.13 2.95-8.9 2.95h-8.1V46zm0-28.7V26h7.6c1.73 0 3.08-.367 4.05-1.1.97-.767 1.45-1.85 1.45-3.25s-.48-2.467-1.45-3.2c-.97-.767-2.32-1.15-4.05-1.15h-7.6zm65.41 28.7h-7.2V11h7.2v35zm-24.95 0h-13.7V11h7.2v11.55h6.5c4.17 0 7.47 1.1 9.9 3.3 2.43 2.133 3.65 4.95 3.65 8.45 0 3.5-1.22 6.317-3.65 8.45-2.47 2.167-5.77 3.25-9.9 3.25zm-6.5-17.35v11h6.1c2.1 0 3.73-.467 4.9-1.4 1.2-.967 1.8-2.317 1.8-4.05 0-1.767-.6-3.133-1.8-4.1-1.17-.967-2.8-1.45-4.9-1.45h-6.1z" fill="#029544"/><path d="M410.293 506.164c-3.063 6.191-6.865 10.547-8.504 9.741-1.639-.805-.478-6.481 2.585-12.663 3.063-6.182 6.856-10.546 8.495-9.741 1.639.806.478 6.481-2.576 12.663z" fill="#B91819"/><path d="M464.17 370.685c-1.705-1.049-7.54 5.451-10.022 11.239-4.861 11.24-6.107 17.515-7.999 29.972-2.988 19.726-8.046 51.056-9.713 64.393-1.508 12.017-6.35 26.226.881 24.221-.112-16.494 7.493-41.37 11.876-54.436 15.024-44.668 20.241-72.177 14.977-75.389zm-43.066 9.91a406.635 406.635 0 011.957-9.367c2.239-4.467 4.187-6.818 5.676-6.472 5.62 1.33 10.744 26.825-6.968 87.378-.89 3.044-12.776 55.833-12.691 54.54 2.051-33.915 2.538-79.154 12.026-126.079z" fill="#E9D6B8"/><path d="M410.48 504.029c-1.564 4.852-4.889 8.346-6.556 7.54-1.667-.805-1.03-4.955 1.424-9.413 3.109-5.62 4.289-7.259 4.561-11.296.272-3.793 6.472-5.067.571 13.169z" fill="#E9D6B8"/><path d="M447.185 500.1c.702 2.951-8.336 1.761-10.678.993a27.155 27.155 0 00-3.662-.937h-.281a1.557 1.557 0 000 .216c0 1.611-.712 3.746 1.873 3.746h16.204c13.187-.028-3.513-4.083-3.456-4.018z" fill="#B91819"/><path d="M477.207 190.471l-3.475-24.025c-4.412-4.683-10.059-7.118-15.801-6.284-11.09 1.601-18.33 14.883-16.194 29.672 2.135 14.789 12.86 25.467 23.94 23.865 7.755-1.124 13.628-7.97 15.726-17.037a8.756 8.756 0 01-2.791-2.626 8.75 8.75 0 01-1.405-3.565z" fill="#163F59"/><path d="M433.183 204.343c-.421 3.84 3.625 7.436 9.039 8.026l12.345 1.368c5.413.59 10.153-2.033 10.565-5.873l3.859-35.03c.43-3.84-3.625-7.427-9.029-8.026l-12.355-1.359c-5.413-.599-10.143 2.033-10.565 5.873l-3.859 35.021z" fill="#163F59"/><path d="M465.394 219.375c7.325 3.175 10.987 2.183 5.395 4.543-2.688 3.297-37.062-1.293-38.935-5.554-.309-.721 13.646-2.81 13.721-3.297.862-6.191 1.19-11.418-.534-18.339a1.02 1.02 0 01.937-.937c2.604.075 5.227.094 7.849.169.431 0 5.545 1.152 4.412 3.606-.581 6.715-.591 16.456 7.155 19.809z" fill="#E9D6B8"/><path d="M467.727 199.062c.121-.244.234-.497.346-.74 0-.075.066-.15.103-.235.141-.309.272-.618.403-.936.026-.09.057-.177.094-.262.084-.244.178-.497.262-.75.084-.253.103-.271.14-.412.038-.14.141-.431.207-.656.065-.224.093-.299.131-.44a30.292 30.292 0 00.393-1.536c.047-.225.103-.403.14-.599.038-.197.085-.412.132-.618.046-.206.065-.356.103-.544l.084-.43c.421-2.492-.422-14.228-2.398-19.829a1.786 1.786 0 00-1.976-1.096c-6.041.665-24.446-.187-19.669 16.588 0 0 .271 1.48.421 2.145a.943.943 0 000 .168c.15.665.309 1.321.487 1.958v.131c.187.646.375 1.283.581 1.873v.066c2.641 7.905 7.249 13.113 12.176 12.785 2.81-.197 5.348-2.257 7.231-5.564a.393.393 0 000-.084c.14-.243.281-.506.421-.768l.188-.215zM367.076 213.11s-1.274.608-1.817-.356c-.881-1.611-1.199-5.274-1.255-6.557-.066-1.461.786-8.383.786-8.383a8.134 8.134 0 011.077 4.955c-.477 4.074 1.209 10.341 1.209 10.341z" fill="#E9D6B8"/><path d="M366.956 212.172c-1.171-2.36-.562-5.348.993-8.692 1.48-3.175.403-5.161.403-5.161a42.038 42.038 0 00-2.951 7.109 12.918 12.918 0 00-.936 4.571c.224 4.599 5.488 8.261 2.491 2.173zm138.059 63.374c12.429 10.144 66.097 24.109 66.097 24.109s11.568-2.913-56.413-31.321c-3.4-1.423-12.757 4.721-9.684 7.212zm69.338 26.778s4.29 1.602 5.62 3.494c.937 1.32 4.103 8.233 4.103 8.233a8.97 8.97 0 01-3.85-3.981 30.314 30.314 0 00-5.873-7.746z" fill="#E9D6B8"/><path d="M577.967 306.071c2.81.731 4.814 3.372 6.453 7.043 1.564 3.485 3.972 4.037 3.972 4.037a46.267 46.267 0 00-3.747-7.493 68.438 68.438 0 00-2.697-4.252c-3.091-4.552-11.137-1.199-3.981.665z" fill="#E9D6B8"/><path d="M570.1 300.543c.469 1.958 3.569 4.196 3.475 5.451a13.662 13.662 0 01-1.461 5.517c4.206-.497 4.121-6.557 5.723-8.561 1.601-2.004-8.936-7.484-7.737-2.407z" fill="#E9D6B8"/><path d="M548.596 290.559c7.315 1.873 15.754 3.877 19.257 6.556 4.993 3.746 5.92 7.905 10.116 8.992.453.145.897.317 1.33.515 1.171.477 2.585.796 3.053 1.058.469.262 1.874 1.293 1.508.674-3.456-5.526-7.877-11.361-9.263-12.11-2.81-1.536-18.967-9.366-25.551-11.062-7.428-1.92-10.331 2.857-.45 5.377z" fill="#E9D6B8"/><path d="M578.089 305.452s.403-1.508 1.592-1.255c1.948.43 5.198 2.809 6.322 3.68 1.124.872 6.36 6.651 6.36 6.651a8.966 8.966 0 01-4.87-2.661c-3.007-3.315-9.404-6.415-9.404-6.415zm-39.226-25.523c-4.814 1.948-18.826-1.874-18.863.889 12.869 7.699 51.917 14.05 51.917 14.05l-33.054-14.939zm-122.669-38.721c-6.687 4.937-12.597 22.302-17.196 33.307-2.585 6.2-1.63 10.874-1.63 10.874s2.267 14.537 19.585-25.083c4.336-9.928 1.751-20.971-.759-19.098z" fill="#E9D6B8"/><path d="M402.857 284.723c-.084-14.639-26.282-53.2-26.282-53.2s-13.768-11.624 11.352 45.042c7.55 17.019 14.958 11.764 14.93 8.158z" fill="#E9D6B8"/><path d="M366.993 209.306l-1.115.712-.749 4.477s2.023 7.933 3.859 10.659c1.835 2.725 4.617 14.986 5.357 16.325.74 1.34 7.98 1.293 7.98 1.293s-5.807-11.633-7.718-16.438c-1.91-4.805-2.285-12.598-2.959-14.508-1.162-3.269-1.565-4.983-1.565-4.983s-1.657.861-.14 6.088c.403 1.377-1.349 1.086-1.349 1.086l-1.601-4.711z" fill="#E9D6B8"/><path d="M428.726 266.235l45.876-.384 5.61-52.47-54.437 5.17 2.951 47.684z" fill="#D05556"/><path d="M477.205 422.539c-22.563 3.531-26.637.534-52.563-3.166-2.445 0-12.954-25.195-5.564-91.789 1.527-13.712 11.896-24.727 9.526-61.958l46.25-.937c-6.078 33.925 30.544 39.18 2.351 157.85zm27.106-148.081l-25.889-38.58-6.64-17.384a6.75 6.75 0 012.707-3.521l.88-.572c3.4-2.182 8.121-.711 10.546 3.297l29.654 48.892-11.258 7.868zm-93.887 4.589l15.782-33.587 6.351-23.416a7.258 7.258 0 00-3.429-2.65l-.936-.375a7.314 7.314 0 00-9.413 4.28l-18.995 46.27 10.64 9.478z" fill="#D05556"/><path d="M366.684 214.983s-1.265-3.99-.628-5.995c.45-1.395 3.634-7.605 3.634-7.605a8.206 8.206 0 01-.693 5.029 27.632 27.632 0 00-2.313 8.571zm1.873-.937s1.162.272 1.546-.093a6.099 6.099 0 01-.113 1.095c-.074.694.31 5.386.31 5.386a39.083 39.083 0 00-1.415-4.243c-.4-1.02-.714-2.073-.936-3.147a5.575 5.575 0 010-.684l.608 1.686z" fill="#E9D6B8"/><path d="M369.944 212.932c-1.021-3.512-.609-5.048-.225-5.695.234.834.647 2.164 1.293 4.009.325 1.229.55 2.482.674 3.747.056.327-1.189.636-1.667 3.465-.094.506-1.03-2.557-1.19-4.421.469.01 1.424-.047 1.115-1.105z" fill="#E9D6B8"/><path d="M456.374 194.377a8.764 8.764 0 01-4.196-6.201l-3.475-24.024c-.215-.216-.44-.413-.656-.619h-.421c-5.414-.599-10.144 2.033-10.565 5.873l-3.859 35.021c-.328 2.969 2.023 5.76 5.62 7.165a13.658 13.658 0 001.873-.141c7.708-1.208 13.581-8.055 15.679-17.074z" fill="#163F59"/></svg>