<svg width="403" height="356" fill="none" xmlns="http://www.w3.org/2000/svg"><path d="M201.204 94.691c-21.024 0-38.069-17.064-38.069-38.117 0-21.052 17.045-38.12 38.069-38.12 21.026 0 38.072 17.068 38.072 38.12 0 21.053-17.046 38.117-38.072 38.117zm47.934-38.117c0-.835-.021-1.663-.062-2.487l8.632-2.771a56.697 56.697 0 00-1.139-7.225l-9.068.035a47.8 47.8 0 00-1.535-4.727l7.365-5.317a56.508 56.508 0 00-3.32-6.51l-8.626 2.841a48.239 48.239 0 00-2.917-4.016l5.358-7.324a57.044 57.044 0 00-5.165-5.174l-7.318 5.365a47.993 47.993 0 00-4.01-2.921l2.837-8.635a56.326 56.326 0 00-6.502-3.326l-5.31 7.375a47.581 47.581 0 00-4.721-1.538l.035-9.078A56.423 56.423 0 00206.458 0l-2.77 8.643a49.55 49.55 0 00-4.965 0L195.955 0a56.312 56.312 0 00-7.214 1.14l.033 9.08a47.581 47.581 0 00-4.721 1.537l-5.311-7.375a56.72 56.72 0 00-6.501 3.326l2.837 8.635a48.541 48.541 0 00-4.013 2.92l-7.313-5.364a56.81 56.81 0 00-5.167 5.174l5.358 7.324a48.022 48.022 0 00-2.918 4.016l-8.623-2.84a56.52 56.52 0 00-3.322 6.509l7.365 5.317a47.8 47.8 0 00-1.535 4.727l-9.068-.035a56.697 56.697 0 00-1.139 7.225l8.632 2.771a50.016 50.016 0 000 4.972l-8.632 2.773a56.57 56.57 0 001.139 7.221l9.068-.032a48.03 48.03 0 001.535 4.729l-7.365 5.314a56.7 56.7 0 003.322 6.51l8.623-2.841a48.04 48.04 0 002.918 4.018l-5.358 7.322a56.53 56.53 0 005.167 5.174l7.313-5.362a48.517 48.517 0 004.013 2.918l-2.837 8.637a57.035 57.035 0 006.501 3.324l5.311-7.375a47.662 47.662 0 004.721 1.538l-.033 9.079c2.352.529 4.758.915 7.214 1.14l2.768-8.643c.823.041 1.65.065 2.481.065.834 0 1.664-.024 2.484-.065l2.77 8.643a56.346 56.346 0 007.214-1.14l-.035-9.079a47.662 47.662 0 004.721-1.538l5.31 7.375a56.637 56.637 0 006.502-3.324l-2.837-8.637a47.97 47.97 0 004.01-2.918l7.318 5.362a56.763 56.763 0 005.165-5.174l-5.358-7.322a48.257 48.257 0 002.917-4.018l8.624 2.84a56.381 56.381 0 003.322-6.509l-7.365-5.314a48.03 48.03 0 001.535-4.73l9.068.033a56.57 56.57 0 001.139-7.22l-8.632-2.774c.041-.824.062-1.652.062-2.485" fill="#5E1473"/><path d="M118.39 126.642c-11.298-.939-19.696-10.87-18.756-22.183.937-11.312 10.856-19.72 22.154-18.78 11.296.94 19.694 10.87 18.756 22.183-.937 11.31-10.856 19.718-22.154 18.78zm32.64-15.645c.115-.739.215-1.485.275-2.24.065-.757.089-1.509.098-2.257l-5.969-2.034a25.309 25.309 0 00-1.015-5.607l4.892-4.01a31.203 31.203 0 00-1.923-4.074l-6.202 1.232a25.513 25.513 0 00-3.676-4.346l2.238-5.924c-1.166-.94-2.4-1.8-3.697-2.571l-4.756 4.172a25.243 25.243 0 00-5.356-1.928l-1.02-6.232a31.622 31.622 0 00-2.237-.275 30.355 30.355 0 00-2.252-.098l-2.033 5.978a25.153 25.153 0 00-5.601 1.015l-4.004-4.898a31.59 31.59 0 00-4.069 1.925l1.23 6.213a25.58 25.58 0 00-4.34 3.677l-5.916-2.238a31.142 31.142 0 00-2.567 3.7l4.165 4.763a25.112 25.112 0 00-1.926 5.363l-6.224 1.021a31.478 31.478 0 00-.275 2.24 31.656 31.656 0 00-.097 2.255l5.97 2.034a25.204 25.204 0 001.016 5.607l-4.894 4.012a31.528 31.528 0 001.923 4.072l6.205-1.23a25.652 25.652 0 003.672 4.344l-2.234 5.923a31.095 31.095 0 003.694 2.572l4.758-4.17a25.144 25.144 0 005.356 1.926l1.02 6.234c.738.113 1.481.212 2.237.273.755.065 1.505.089 2.252.098l2.033-5.976a25.264 25.264 0 005.599-1.017l4.006 4.898a30.805 30.805 0 004.067-1.925l-1.228-6.211a25.502 25.502 0 004.34-3.679l5.914 2.24c.94-1.167 1.8-2.403 2.569-3.702l-4.165-4.761a25.213 25.213 0 001.923-5.365l6.224-1.019" fill="#fff"/><path d="M344.011 324.243c-16.793.646-30.932-12.458-31.58-29.273-.647-16.813 12.44-30.97 29.234-31.619 16.795-.648 30.934 12.455 31.579 29.271.65 16.813-12.439 30.97-29.233 31.621zm45.231-28.894c.035-1.108.045-2.22.002-3.345a45.809 45.809 0 00-.262-3.337l-9.15-1.919a37.226 37.226 0 00-2.499-8.071l6.482-6.78a46.583 46.583 0 00-3.56-5.649l-8.91 2.925a37.871 37.871 0 00-6.185-5.731l2.226-9.12a46.31 46.31 0 00-5.897-3.118l-6.254 6.991a37.429 37.429 0 00-8.227-1.874l-2.618-8.985a45.966 45.966 0 00-3.342-.004c-1.124.043-2.233.14-3.331.262l-1.921 9.161a37.428 37.428 0 00-8.058 2.502l-6.772-6.487a46.225 46.225 0 00-5.641 3.562l2.921 8.921a38.074 38.074 0 00-5.726 6.193l-9.106-2.229a46.336 46.336 0 00-3.114 5.906l6.982 6.26a37.452 37.452 0 00-1.872 8.238l-8.974 2.621a46.077 46.077 0 00-.004 3.346 46.91 46.91 0 00.262 3.337l9.15 1.921a37.517 37.517 0 002.499 8.069l-6.482 6.78a46.585 46.585 0 003.562 5.648l8.908-2.925a37.84 37.84 0 006.185 5.733l-2.227 9.118a45.908 45.908 0 005.9 3.118l6.252-6.99a37.37 37.37 0 008.227 1.873l2.618 8.986c1.107.037 2.218.047 3.344.004a48.039 48.039 0 003.331-.26l1.918-9.164a37.164 37.164 0 008.059-2.502l6.772 6.49a46.568 46.568 0 005.641-3.565l-2.921-8.92a37.862 37.862 0 005.726-6.193l9.106 2.231a46.441 46.441 0 003.114-5.909l-6.982-6.26a37.341 37.341 0 001.871-8.237l8.977-2.622z" fill="#5E1473"/><path d="M77.582 356C34.735 356 0 352.093 0 347.275s34.735-8.726 77.582-8.726c42.849 0 77.583 3.908 77.583 8.726 0 4.818-34.734 8.725-77.583 8.725z" fill="#D2BED8"/><path d="M353.483 242.498c-27.348 0-49.517-3.369-49.517-7.524 0-1.028 1.355-2.008 3.807-2.899a67.111 67.111 0 004.862-.171c.682 1.258 2.094 1.774 3.824 1.776 3.857 0 9.306-2.563 11.816-5.185 7.385-.665 16.002-1.047 25.208-1.047 27.347 0 49.517 3.37 49.517 7.526 0 4.155-22.17 7.524-49.517 7.524" fill="url(#paint0_linear)"/><path d="M284.307 217.602c3.995.037-2.012 4.647-2.801 8.504-1.013 4.955-6.061 7.429-10.62 8.019-3.376.438-8.314.622-11.33-1.327-1.393-.898-2.805-2.88-2.149-4.647 1.111-2.999 4.975-1.394 6.692-.104 2.961 2.22 6.904 6.431 7.645 10.15.792 3.976-2.536 7.502-5.538 9.599-5.178 3.612-12.805 4.786-18.369 1.351-1.132-.698-4.179-2.728-2.876-4.205.916-1.036 3.099-.726 4.167-.242 3.149 1.424 4.442 5.364 4.336 8.569-.267 8.149-8.479 11.965-15.762 11.262-3.495-.338-7.911-1.489-10.161-4.432-1.102-1.44-1.771-3.875-.474-5.436 1.828-2.199 5.254-.492 6.111 1.715 1.83 4.723-3.302 8.472-7.12 9.656-3.853 1.197-8.537 1.481-12.314-.104-3.426-1.442-7.807-6.59-5.098-10.521.749-1.091 3.417-2.539 2.902-.128-.399 1.869-3.27 2.849-4.847 2.962-4.751.338-8.918-4.076-11.207-7.778-2.677-4.326-2.51-9.2.723-13.183.921-1.134-.463-2.323-1.593-1.995-7.333 2.125-6.718 11.332-3.68 16.735 3.199 5.692 9.377 11.592 16.413 10.844 4.81-.51 12.392-6.624 7.805-11.791-3.72-4.19-10.117-.139-11.317 4.191-1.635 5.898 2.176 11.934 7.426 14.454 6.196 2.971 15.001 1.96 20.64-1.865 4.908-3.328 8.035-11.234 2.972-15.907-4.054-3.747-11.14-2.528-12.273 3.307-1.33 6.852 5.299 11.076 11.023 12.505 6.252 1.563 13.54.763 18.59-3.528 4.37-3.712 6.133-9.762 4.667-15.289-1.278-4.829-5.51-9.309-10.867-8.552-2.136.301-4.381 1.472-5.155 3.619-.996 2.763.806 5.282 2.805 7.019 4.418 3.838 10.705 4.877 16.32 3.686 5.642-1.195 11.164-4.488 14.181-9.519 4.14-6.904-.405-13.222-5.278-18.203-2.35-2.403-5.085-4.523-8.608-4.476-3 .044-5.783 1.709-6.577 4.701-2.092 7.865 7.157 10.625 13.002 10.58 6.958-.052 15.237-2.704 17.223-10.241 1.434-5.447-5.47-8.815.371-9.955 10.351-2.023-.901-.009 0 0" fill="#FF98C6"/><path d="M274.878 116.917c-2.711.817-8.716.273-14.174 7.06-6.73 8.376-7.967 24.168-4.786 39.342 4.052 19.324 18.913 33.915 26.661 32.651 7.749-1.264 18.001-13.381 22.824-8.957 4.821 4.423 17.013 41.797 12.377 44.039-4.639 2.239-70.448 6.231-86.66-54.955-16.927-63.883 24.162-90.99 31.618-94.065 7.456-3.074 8.013-6.85 11.644-3.933 3.634 2.916 10.857 28.403 9.943 34.435-.912 6.031-9.447 4.383-9.447 4.383" fill="#fff"/><path d="M262.739 82.032c5.447 5.888 12.868 27.107 12.141 34.885-.73 7.778 13.591 1.841 14.912-2.32 2.679-8.442-11.099-41.39-14.676-41.815-3.576-.425-15.556 5.816-12.377 9.25zm35.401 106.78c6.319 6.829 14.93 31.446 14.085 40.468-.847 9.025 15.768 2.136 17.299-2.691 3.11-9.794-12.874-48.013-17.024-48.508-4.147-.492-18.046 6.746-14.36 10.731z" fill="#FF98C6"/><path d="M305.761 202.644a98.1 98.1 0 00-1.795-4.133l.002-.002a99.247 99.247 0 011.795 4.133l-.002.002z" fill="#fff"/><path d="M305.763 202.642a98.49 98.49 0 00-1.796-4.133 70.05 70.05 0 014.13-2.153c4.401-2.144 8.39-3.493 13.091-3.788.262.607.522 1.225.784 1.854-4.004 1.947-8.145 3.632-12.088 5.709-1.404.742-2.766 1.616-4.121 2.511" fill="#FFBCDA"/><path d="M302.93 196.363c-1.602-3.199-3.233-5.844-4.736-7.49v-.002c1.505 1.648 3.138 4.293 4.739 7.489 0 0-.003 0-.003.003z" fill="#fff"/><path d="M302.932 196.36c-1.6-3.196-3.233-5.841-4.738-7.489a86.004 86.004 0 012.497-1.492c4.749-2.741 10.033-4.339 15.437-5.061 1.037 1.75 2.18 3.953 3.352 6.446l.273.588c-5.057 1.55-10.217 2.871-14.776 5.636-.706.427-1.384.889-2.045 1.372" fill="#FFBCDA"/><path d="M270.95 98.275a110.25 110.25 0 00-1.1-2.953h.002c.379.972.747 1.958 1.098 2.953" fill="#fff"/><path d="M270.95 98.275a95.914 95.914 0 00-1.098-2.953 64.944 64.944 0 015.693-3.07c2.33-1.11 5.429-2.732 8.466-3.587.47 1.178.931 2.381 1.377 3.596-.665.225-1.33.444-1.971.698-2.306.906-4.619 1.828-6.895 2.808-1.871.806-3.723 1.65-5.572 2.508z" fill="#FFBCDA"/><path d="M268.731 92.58c-1.183-2.768-2.432-5.291-3.658-7.312 0-.003.002-.003.002-.003 1.226 2.021 2.477 4.55 3.658 7.314h-.002z" fill="#fff"/><path d="M268.733 92.58c-1.181-2.765-2.432-5.294-3.658-7.315a109.676 109.676 0 016.005-2.72c2.151-.896 5.393-2.453 8.661-3.381 1.041 2.025 2.148 4.41 3.237 6.986-.394.126-.786.26-1.167.41a141.91 141.91 0 00-9.007 3.942 99.515 99.515 0 00-4.071 2.077" fill="#FFBCDA"/><path d="M236.234 132.73a.94.94 0 01-.392-.091c-2.935-1.357-1.122-9.705 3.828-21.236 4.373-10.181 15.487-21.825 20.173-21.825.622 0 1.133.206 1.497.646 4.071 4.916-10.328 11.124-14.783 18.754-6.142 10.521-7.649 23.754-10.323 23.752m-87.791 116.601v.602c.069-.201.069-.401.069-.602h-.069zm14.888-72.462c1.607-.596 4.312-3.051 9.423-1.761 6.304 1.594 12.653 8.778 16.64 17.276 5.079 10.824 3.203 23.305-1.005 25.521-4.205 2.218-13.576.102-14.297 4-.721 3.899 6.993 26.422 10.053 25.812 3.058-.609 36.33-22.7 21.892-58.204-15.075-37.07-44.813-35.179-49.539-33.946-4.723 1.236-6.369-.386-7.062 2.351-.695 2.736 5.092 17.696 7.729 20.28 2.638 2.583 6.166-1.329 6.166-1.329" fill="#fff"/><path d="M156.5 155.567c-.49 4.836 3.649 17.804 6.832 21.302 3.184 3.495-5.903 5.85-8.056 4.321-4.37-3.105-9.704-24.066-8.13-25.577 1.577-1.509 9.642-2.867 9.354-.046m21.762 64.556c-.572 5.61 4.229 20.656 7.924 24.711 3.694 4.054-6.848 6.789-9.345 5.013-5.07-3.602-11.257-27.915-9.431-29.67 1.828-1.752 11.183-3.326 10.852-.054z" fill="#FF98C6"/><path d="M183.468 223.417c-1.278 0-2.2-.247-2.122-.848.195-1.524 3.629-2.428 6.118-2.428.929 0 1.724.126 2.172.39 2.313 1.377-3.01 2.886-6.168 2.886m-14.291-61.798c-.888 0-1.869-.049-2.939-.162-7.621-.803-7.53-3.532-6.18-4.285.706-.394 1.756-.553 2.984-.553 4.643 0 11.839 2.273 12.686 2.695.918.46-1.124 2.305-6.551 2.305m9.524 63.962c-.338-1.841-.518-3.493-.483-4.784h.002c-.034 1.291.143 2.943.481 4.784z" fill="#fff"/><path d="M168.135 228.855c-.401-1.802-.704-3.456-.879-4.831 2.98-2.021 6.871-3.242 10.282-3.242.23 0 .457.005.68.016-.034 1.29.145 2.942.483 4.783.065.347.134.702.208 1.062-.478-.151-1.02-.21-1.581-.21-1.286 0-2.679.308-3.696.514-1.653.332-3.723.939-5.497 1.908" fill="#FFBCDA"/><path d="M180.591 232.962a71.445 71.445 0 010-.002v.002" fill="#fff"/><path d="M170.43 237.223a95.43 95.43 0 01-1.435-4.87c2.326-1.551 5.329-2.386 8.151-2.386.907 0 1.795.085 2.636.263.249.906.519 1.821.81 2.732-2.333.62-4.737 1.214-6.861 2.266-1.146.568-2.222 1.288-3.301 1.995" fill="#FFBCDA"/><path d="M158.566 166.808a64.442 64.442 0 01-.856-2.901h.002c.258.96.544 1.934.856 2.901h-.002z" fill="#fff"/><path d="M149.422 169.271a86.32 86.32 0 01-.667-2.27c2.391-1.867 5.542-3.114 8.37-3.114.197 0 .392.007.585.02.258.958.546 1.934.855 2.901-1.752.095-3.515.063-5.249.551a11.865 11.865 0 00-3.894 1.912" fill="#FFBCDA"/><path d="M156.924 160.503c-.314-1.644-.485-3.125-.461-4.279-.024 1.154.147 2.635.461 4.279zm-.461-4.287v-.018.018zm0-.044v-.002.002z" fill="#fff"/><path d="M147.769 163.079a48.67 48.67 0 01-.704-3.782c2.547-2.023 6.009-3.246 9.204-3.246l.197.002c0 .039-.002.078-.004.117v.055c-.024 1.153.147 2.634.461 4.278-3.259.282-6.733.707-9.154 2.576" fill="#FFBCDA"/><path d="M150.609 207.456c1.629-2.862 1.445-4.875 2.274-4.909.829-.035-.411 2.743-.017 3.081.392.338 4.207-4.222 4.638-3.823.431.397-2.425 3.565-2.328 3.712.096.146 3.847-3.085 4.1-2.701.251.383-3.532 3.642-3.329 3.851.204.206 4.464-2.516 4.559-1.98.093.533-3.541 2.843-3.775 3.166-.231.325 2.857-1.453 3.071-.998.215.456-6.018 3.539-8.288 3.585-2.269.045-1.626-1.718-.905-2.984" fill="#F4BA8E"/><path d="M152.828 210.043c-.968 3.66-14.702 19.884-18.251 21.111-4.273 1.479-27.985 3.406-29.481-.729-1.499-4.137 5.643-15.577 5.643-15.577 7.758 7.403 19.786 8.053 21.997 7.181 1.702-.672 12.656-10.492 17.16-14.593l2.932 2.607" fill="#FFC228"/><path d="M147.048 210.359c1.046-1.156 2.018-2.168 2.848-2.923l2.932 2.607c-.173.657-.743 1.869-1.572 3.402l-4.208-3.086z" fill="#fff"/><path d="M121.115 339.445c1.765 4.356 12.231 1.965 13.591 4.187 1.707 2.784-18.367 6.169-19.54 3.678-.291-.621.578-4.237.933-6.813 3.393-.258 2.341 1.03 5.016-1.052z" fill="#DB0081"/><path d="M130.207 292.004c-5.687-6.917-18.164-19.878-20.593-21.441-2.861-1.841-10.055-7.457-10.055-7.457s-29.388 8.593-25.579 14.368c2.89 4.38 30.538 19.493 42.804 25.948-1.174.985-4.489 4.343-5.124 11.321-.58 6.392 2.023 21.339 3.42 29.069 3.144-1.303 7.662-3.138 7.618-3.892-.216-3.749 6.382-37.892 7.509-42.214.169-.654 1.734-3.541 0-5.702" fill="#000"/><path d="M27.762 334.295c-.388.325-.663.598-.773.798-1.434 2.571 4.21 8.764 1.7 11.813-2.51 3.051-10.213-7.06-10.423-11.158-.052-1.017 1.667-3.42 4.413-6.481 1.438 2.012 3.095 3.785 5.083 5.028z" fill="#DB0081"/><path d="M78.424 258.102c1.007-.941 2.237-6.828 3.277-9.547 4.375-11.449 15.01-29.631 22.113-34.54 7.023-4.85 13.273 1.659 14.683 8.236 1.41 6.578-5.838 27.303-17.903 41.005a149.01 149.01 0 00-4.483 5.323c-7.794-.913-12.83-3.933-17.687-10.477" fill="#FFC228"/><path d="M79.082 256.482c-1.75 2.427-5.102 2.368-8.977 6.631-8.361 7.797-11.79 26.462-16.47 40.266-9.846-1.249-23.815 16.672-31.682 25.751 1.472 1.986 3.97 5.267 5.979 6.475 4.416-3.823 26.38-16.629 34.356-20.239l.396-.18c5.516-3.591 15.45-16.898 24.142-26.649 3.69-4.142 4.877-8.162 8.75-13.656 1.29-1.835 2.964-7.683 5.017-11.625-8.047.636-15.307-1.143-21.511-6.774z" fill="#000"/><path d="M101.334 261.632c.899-.039.533 3.04-.483 3.352-1.016.314-7.822 1.099-13.754-.681-5.932-1.782-10.046-4.664-10.248-5.562-.08-.358.862-2.649 1.85-2.203.987.447 6.157 3.704 10.785 4.708 4.623 1.006 11.85.386 11.85.386" fill="#DB0081"/><path d="M124.574 253.872c-7.307-2.507-17.267-12.074-22.891-22.254-2.334-4.231-.79-9.56 3.411-11.939a5.82 5.82 0 018.171 2.678l3.734 8.298s2.815 9.265 11.553 15.378c8.736 6.115 20.546 7.667 20.546 7.667l-.455 4.554s-14.833-1.215-24.069-4.382z" fill="#FFC228"/><path d="M148.765 254.344c3.067-1.195 4.191-2.873 4.856-2.379.664.497-2.047 1.872-1.954 2.381.091.512 5.923-.624 6.01-.043.084.581-4.128 1.24-4.145 1.416-.018.173 4.929.03 4.883.488-.045.457-5.035.603-5.007.891.029.288 5.048.863 4.786 1.338-.262.475-4.539-.024-4.922.08-.388.104 3.131.67 3.01 1.16-.119.488-6.9-1.047-8.691-2.444-1.79-1.396-.181-2.359 1.174-2.888" fill="#F4BA8E"/><path d="M145.439 253.011l3.658.689-.455 4.554-4.1-.423.897-4.82z" fill="#fff"/><path d="M113.802 215.839c-.132.217-1.588.798-2.709.509-1.022-.26-1.72-1.359-1.778-1.808-.416-3.266 2.967-10.506 5.405-10.068.55.1.918.534 1.137 1.178 1.029 3.038-.695 7.936-2.055 10.189" fill="#EE9956"/><path d="M107.819 214.16c.231-2.272.818-5.061 2.061-4.744 1.243.317 3.186 2.582 4.44 3.628 1.256 1.045 1.304 3.014 1.771 3.621.47.607-1.191 1.273-4.4.399-3.208-.872-4.046-1.189-3.872-2.904" fill="#fff"/><path d="M117.449 210.439c-6.454-.197-14.681-10.8-11.58-18.496 3.101-7.693 14.025-9.178 17.663 0 3.64 9.181-1.648 18.631-6.083 18.496z" fill="#F4BA8E"/><path d="M125.529 188.839c-2.215 1.802-3.318 6.11-7.298 6.11-3.978 0-7.296 1.861-7.032 4.252.267 2.392 1.328 3.454.665 3.851-.665.401-3.186-5.679-4.245-5.03-1.063.648 1.564 5.505.516 6.065-1.048.561-5.027-3.719-5.027-7.889s2.378-14.532 11.273-14.532c8.894 0 13.273 5.447 11.148 7.173" fill="#000"/><path d="M120.885 197.076c1.172 1.96 2.653 6.551 1.592 7.06-1.061.512-2.389 0-2.389 0s.278-7.929.797-7.06" fill="#EE9956"/><path d="M24.62 332.519l-.608-.713c6.876-5.883 17.267-14.775 26.431-18.884l.423-.189c2.13-.95 4.333-1.934 5.825-3.653.888-1.022 1.492-2.264 2.138-3.663l.77-1.672c6.526-14.152 13.92-30.194 21.157-42.065l.799.488c-7.21 11.823-14.592 27.841-21.104 41.972l-.771 1.672c-.676 1.463-1.315 2.767-2.283 3.883-1.628 1.876-3.926 2.902-6.15 3.895l-.42.186c-9.042 4.057-19.372 12.895-26.206 18.743m43.255-60.909c-1.594 0-3.136-.824-3.219-.867l.447-.824c.021.011 2.144 1.143 3.675.618 2.585-.887 4.151-5.249 4.147-6.147-.54-.484-2.025-1.947-2.092-2.015l.656-.667c.49.481 1.828 1.793 2.144 2.055.23.191.28.508.171 1.091-.262 1.411-1.865 5.59-4.725 6.57-.39.132-.8.186-1.204.186m23.289 11.495l-.767-.538c.041-.056 3.98-5.696 5.189-8.623 1.187-2.873.795-8.444.79-8.5l.934-.07c.02.239.413 5.848-.858 8.927-1.25 3.025-5.124 8.57-5.288 8.804z" fill="#DB0081"/><path d="M97.06 245.974c3.708 2.11 7.81 4.103 12.031 5.308a91.602 91.602 0 002.306-4.232c-3.668-1.737-7.534-3.14-11.088-5.102-4.05-2.236-8.123-4.74-11.982-7.306-.448.811-.888 1.62-1.315 2.429 1.934 4.025 6.278 6.759 10.049 8.903m-7.248-.566c-1.793-1.236-3.329-2.732-4.897-4.198a106.1 106.1 0 00-2.09 4.575c2.62 4.48 7.82 8.041 11.868 10.198 2.41 1.284 5.338 2.951 8.409 4.231a77.958 77.958 0 004.466-6.406c-3.205-.88-6.343-2.519-9.31-3.933-2.859-1.362-5.828-2.665-8.446-4.467" fill="#fff"/><path d="M362.182 223.742c-2.226 6.737-1.984 10.855.479 13.485 2.462 2.633 7.954-5.119 6.339-8.612-1.616-3.496-3.299-9.131-3.299-9.131l-3.519 4.258zm-25.617 4.662c-6.581 2.431-13.009 4.283-12.102 6.15.908 1.869 13.224 1.372 15.22-.304 1.995-1.676 1.393-8.242 1.393-8.242l-4.511 2.396z" fill="#DB0081"/><path d="M346.589 88.334c-11.749 6.657-18.934 28.874-20.082 33.689-1.438 6.039-.23 13.811 3.298 13.292 3.53-.518 15.786-25.28 16.784-28.815.996-3.534 0-18.166 0-18.166z" fill="#EE9956"/><path d="M344.328 136.629c-6.793 4.873 10.824 53.461 12.227 56.423 1.404 2.964 4.098 34.084 4.098 34.084l9.065-.002s2.477-19.383 2.467-25.405c-.011-6.932-5.432-15.384-5.432-15.384s5.928-27.453 2.378-42.519c-2.655-11.275-13.983-14.957-24.803-7.197z" fill="#000"/><path d="M345.476 88.592c-6.947 2.491-15.454 19.74-15.454 20.064 0 .325 9.826 11.427 9.826 11.427l7.517-5.282-1.889-26.21z" fill="#3C93E8"/><path d="M330.936 106.736c-.595-.841-3.714 4.615-3.068 5.692.647 1.08 11.98 13.585 11.98 13.585l3.03-4.528-11.942-14.749z" fill="#2B6299"/><path d="M339.973 135.658c-7.755 3.12-2.802 47.905-3.746 55.568-.401 3.254-2.335 37.137-2.335 37.137l9.36 1.255s4.401-19.549 5.817-25.4c1.631-6.737-.784-13.951-.784-13.951s13.958-26.247 14.079-41.727c.091-11.584-10.04-17.85-22.391-12.882z" fill="#000"/><path d="M367.642 141.935c.829-9.161-1.696-12.288-1.215-18.567.483-6.278-1.237-17.837-.756-22.126.483-4.287.104-20.391-12.68-17.5-12.783 2.89-14.336 7.523-15.783 19.053-1.447 11.526-.437 15.928-.232 25.506.059 2.671-1.981 12.856-1.981 12.856s7.694 4.636 15.148 5.82c5.936.943 17.499-5.042 17.499-5.042" fill="#2B6299"/><path d="M361.612 86.209c-7.062.904-4.136 11.42 1.464 14.725 4.648 2.743 16.79 12.687 21.425 16.653 1.212-3.079 5.464-4.291 8.391-2.966-6.646-9.775-24.361-29.299-31.28-28.412z" fill="#F4BA8E"/><path d="M347.819 89.579c1.044 1.394 6.593-1.657 7.476-2.76.886-1.102 1.568-4.004 1.206-6.903-.361-2.896-3.8-2.656-5.821-1.932-2.018.727-4.309 9.663-2.861 11.595z" fill="#EE9956"/><path d="M350.724 56.626c-4.875-.527-10.85 2.897-10.876 9.638-.033 7.633 2.95 18.706 8.281 18.691 4.509-.015 11.041-2.656 11.632-10.278.074-.978 4.922-5.546 4.5-8.263-.472-3.045-3.428-.868-3.595-1.49-1.28-4.796-4.251-7.685-9.942-8.298" fill="#F4BA8E"/><path d="M345.936 70.766c-1.767.709-3.978 8.344-2.653 9.1 1.326.76 2.935 1.139 3.504.664.568-.475-.426-9.936-.851-9.764" fill="#EE9956"/><path d="M361.613 86.209c-6.551-2.797-4.381 12.19-.134 17.117 4.593 5.329 18.388 11.03 23.023 14.996 1.21-3.081 8.569-2.06 11.495-.735-6.105-12.264-13.86-22.618-34.384-31.378z" fill="#F4BA8E"/><path d="M357.084 87.454c-4.996 4.974.561 13.686 8.327 19.692 7.766 6.007 4.448 3.01 4.448 3.01l10.705-12.303s3.419 1.878-5.371-4.98c-8.79-6.86-13.49-10.016-18.109-5.42" fill="#3C93E8"/><path d="M383.813 116.051c.383 1.191.63 2.004.689 2.271.294 1.353-13.157 7.305-19.435 12.52-1.046.869 1.624 4.137 1.564 4.334-.418 1.381 27.78-7.906 30.65-14.877.271-.65-2.216-5.26-4.567-8.756-1.798-2.664-6.255 2.522-8.901 4.508" fill="#F4BA8E"/><path d="M366.544 139.867c1.488-.701 1.403-2.522 1.271-3.396-.13-.874-1.934-2.53-1.934-2.53l-1.62 1.99 2.283 3.936z" fill="#EE9956"/><path d="M365.067 130.842c-2.272 1.468-4.145 2.561-4.362 4.874-.214 2.316 3.019 3.99 5.065 4.205 2.045.214.683-1.618.754-2.264.072-.648-.97-1.832 1.622-2.546 1.657-.455 1.711-7.37-3.079-4.269z" fill="#F4BA8E"/><path d="M380.505 96.459c1.146 1.272 5.737 4.653 4.819 5.26-.92.607-12.532 11.26-12.532 11.26-.451-.067-5.499-2.118-5.514-3.153-.015-1.036 12.515-14.161 13.227-13.367z" fill="#2B6299"/><path d="M315.865 112.029c-2.321-6.468-4.433-11.633-3.8-13.255.634-1.622 2.185-2.242 4.929 1.796 2.744 4.039 11.558 18.344 13.667 22.488 2.111 4.141 3.432 10.494 0 12.437-5.804 3.077-12.472-16.995-14.796-23.466" fill="#F4BA8E"/><path d="M313.531 105.422c-1.578-3.538-1.578-5.607-2.728-8.14-.379-.839-1.88-4.063-1.453-4.473.424-.41 2.135 3.361 2.26 3.019.113-.306-2.336-5.224-1.894-5.558.441-.334 2.78 4.328 2.917 4.1.212-.35-2.298-5.605-1.854-5.77.723-.266 2.627 5.298 2.93 5.124.204-.115-1.579-4.241-.968-4.636.611-.392 3.069 6.167 3.212 6.92.145.75 1.938-4.027 3.135-3.379.633.343-.617 3.795-1.985 6.108-1.066 1.798.775 3.147 2.154 5.308.825 1.297-5.323 2.366-5.323 2.366l-.403-.989" fill="#F4BA8E"/><path d="M351.25 100.878l-1.619-.314c-.007.941-.016 1.882-.022 2.823-.002.249.004.524.165.715l.402.258c.884.384 1.798.698 2.729.939 1.843.479 3.744.672 5.639.861.009-.945.018-1.893.024-2.838.002-.215.002-.436-.084-.631-.548-1.258-6.032-1.572-7.234-1.813" fill="#3C93E8"/><path d="M368.9 227.674l-.381-.015c.246-6.189.268-12.462.067-18.648-.119-3.715-.332-7.648-1.453-11.312-.527-1.72-1.263-3.411-1.975-5.051-1.135-2.608-2.309-5.308-2.662-8.181-.321-2.617-.251-4.861.212-6.862 2.846-12.31 3.645-24.856 2.194-34.421l.377-.058c1.457 9.612.656 22.208-2.201 34.563-.452 1.958-.519 4.159-.205 6.731.344 2.821 1.509 5.492 2.633 8.077.717 1.648 1.458 3.35 1.99 5.091 1.135 3.708 1.347 7.672 1.471 11.412.201 6.195.177 12.477-.067 18.674" fill="#DB0081"/><path d="M339.848 68.205c-1.672-2.032-2.532-13.268.572-14.222 3.103-.957 3.103 2.59 3.103 2.59s4.18-6.177 7.402-4.384c3.225 1.794 1.059 3.825 1.059 3.825s5.626-4.063 7.536-.717c1.91 3.345-.953 4.677-.953 4.677s4.317-2.004 5.354-.232c1.888 3.226-.847 4.16-2.384 5.178-1.538 1.014-3.234 9.62-4.057 9.86-.825.24 1.109-5.888-.024-6.93-9.327-8.61-17.608.355-17.608.355" fill="#000"/><defs><linearGradient id="paint0_linear" x1="161.162" y1="32.603" x2="432.022" y2="327.292" gradientUnits="userSpaceOnUse"><stop stop-color="#A261C0"/><stop offset=".009" stop-color="#A261C0"/><stop offset=".947" stop-color="#813BB2"/><stop offset="1" stop-color="#813BB2"/></linearGradient><linearGradient id="paint1_linear" x1="161.172" y1="32.6" x2="432.039" y2="327.273" gradientUnits="userSpaceOnUse"><stop stop-color="#D3ACEA"/><stop offset=".009" stop-color="#D3ACEA"/><stop offset=".947" stop-color="#B689DD"/><stop offset="1" stop-color="#B689DD"/></linearGradient></defs></svg>