<svg width="1581" height="571" fill="none" xmlns="http://www.w3.org/2000/svg"><g clip-path="url(#clip0)"><path d="M1461.16 443.338s.98-4.803-10.09-19.579c-2.39-3.186-9.67-15.19-9.67-15.19-2.89-.713-11.85 4.057-14.22 5.51l-.75.467s-3.83 16.606 4.32 14.722c.25-.06.51-.107.76-.15 7.89-1.223 15.5 6.584 18.95 11.543 2.26 3.222 9.21 2.826 10.7 2.677zm-58.43-32.271s.97-4.799-10.1-19.575c-2.39-3.19-9.67-15.193-9.67-15.193-2.88-.714-11.85 4.06-14.21 5.509-.48.293-.75.471-.75.471s-3.84 16.603 4.31 14.719c.26-.061.51-.107.77-.147 7.86-1.227 15.49 6.584 18.94 11.54 2.26 3.222 9.21 2.808 10.71 2.676z" fill="#233862"/><path d="M1278 328.875c2.26-9.713 27.45-40 40.35-32.985 12.9 7.015 6.2 45.109-7.24 90.036-.21.688-.42 1.366-.63 2.044 27.1-4.442 59.36-5.787 59.36-5.787l3.39 15.632c-24.42 6.737-71.84 30.147-91.76 40.227-7.61 3.444-16.54 3.444-18.36-3.236-6.09-22.362 14.89-105.931 14.89-105.931z" fill="#137F7F"/><path d="M1326.09 468.821s57.64-25.965 92.79-36.459c4.36-1.295 8.36-2.352 11.87-3.101l-3.7-15.047s-3.44-.06-9.03-.053c-21.89.06-76.69 1.284-86.48 12.007-12.29 13.473-5.45 42.653-5.45 42.653z" fill="#FFB27D"/><path d="M1282.53 112.901c-1.9 4.353-3.41 10.058-2.13 13.066 1.45 3.411 1.05 5.881 1.05 5.881l3.1.756 3.71.899s.19-.314.49-.856.69-1.303 1.07-2.191c.08-.509.28-.991.58-1.406.31-.416.71-.751 1.17-.978 1.58-.742 3.22-2.644 3.54-4.481.32-1.838 2.19-5.263 1.65-5.624-1.29-.874-3.24 4.461-4.38 4.696-1.04.218-1.37-.514-1.43-.656v-.029c-1.79-4.36 1.52-15.343-1.11-15.971-.97-.225-6.51 5.042-7.31 6.894zm199.48 87.822c-3.22 3.486-7.84 7.176-11.12 7.222-3.71.05-5.81 1.428-5.81 1.428l-1.95-2.523-2.32-3.019s.21-.307.59-.795c.37-.489 3-2.694 3.04-4.436.05-1.741 1.12-4.021 2.68-5.041 1.56-1.021 3.93-4.125 4.48-3.783 1.33.828-2.77 4.764-2.53 5.902.23 1.031 1.03 1.038 1.18 1.031h.03c4.72-.121 13.46-7.596 15.08-5.441.61.788-1.98 7.971-3.35 9.455z" fill="#E9D6B8"/><path d="M1342.54 336.125c14.22 3.682 10.65 20.749 8.53 67.592-.25 5.298-.74 10.419-1.43 15.3 20.84-4.179 52.88-4.807 68.39-4.849 0 0 2.57 5.709 2.46 10.29-.24 9.731-5.22 16.164-5.22 16.164-35.15 10.494-89.18 28.188-89.18 28.188v-.042c-3.6.935-6.99-.864-9.69-6.016-10.75-20.549-29.14-157.288-29.14-157.288-.18-9.956 41.06 26.982 55.28 30.661z" fill="#198D8D"/><path d="M1365.75 231.153s-5-12.649 4.72-30.686l-13.82 3.065-9.39 2.08a88.07 88.07 0 00-3.57 9.135c-.54 1.562-2.51 7.832-3.11 9.769-3.3.139 1.46 5.131 8.22 6.112 7.56 1.085 16.95.525 16.95.525z" fill="#E9D6B8"/><path d="M1347.26 205.602a88.054 88.054 0 00-3.57 9.134c8.06 2.405 22.45-5.423 22.45-5.423-3.25-2.962-6.46-4.8-9.48-5.792l-9.4 2.081z" fill="#DFCAA8"/><path d="M1341.06 200.884s16.01 17.677 26.88 7.554c10.87-10.123 20.26-14.658 10.5-26.372-9.76-11.715-15.93-10.013-20.37-7.515-4.45 2.498-20.9 21.473-17.01 26.333z" fill="#E9D6B8"/><path d="M1368.84 207.343s-1.64-1.817.71-4.175c2.36-2.359 5.08-5.766 2.45-6.812-2.62-1.045-4.07.564-4.16-1.117-.08-1.68 3.22-5.859-2.86-11.147-6.07-5.288-10.38-5.127-12.29-8.738-1.91-3.611 1.46-8.168 1.46-8.168s-.42 2.245.44 3.747c0 0 .42-10.558 9.72-10.651 9.31-.093 12.71 7.493 15.83 10.284 6.87 6.158 11.19 10.29 9.79 16.898-1.41 6.609-12.84 18.99-21.09 19.879z" fill="#233862"/><path d="M1351.06 197.202l-5.94-5.581s-2.42 3.7-.72 5.306c1.71 1.606 6.66.275 6.66.275z" fill="#fff"/><path d="M1271.32 163.768c2.54-15.7 10.18-32.934 10.18-32.934l8.33-.378s-.92 21.252-.71 36.113c.09 7.137 3.21 13.599 4.07 14.74 2.59 3.454 40.67 40.042 41.94 41.206l.03.032c4.06.688 3.61 7.332 7.77 8.449 6.94 1.856 18.47-1.527 24.64.753 0 0 49.45.057 56.97-3.54 7.53-3.596 36.87-25.191 36.87-25.191l5.4 6.323s-20.13 38.7-36.1 45.672c-8.69 3.793-27.78 8.353-43.37 11.725-3.02.659-5.82 2.11-8.1 4.203a17.417 17.417 0 00-4.87 7.708c-14.66 47.217-7.29 87.035-7.29 87.035s-14.06 1.569-31.56-3.283c-22.75-6.309-39.38-16.528-39.38-16.528-6.41-7.761-2.62-36.217-2.62-36.217s-4.42 4.771-5.91 12.746c-1.07 5.741-1.64 8.92-2 10.936-.07.435-.26.844-.54 1.187-.28.343-.64.609-1.05.773a2.606 2.606 0 01-2.51-.322c-3.29-2.43-7.98-6.216-9.45-8.992-5.12-9.705 6.27-49.24 22.01-76.808a15.417 15.417 0 00-.3-15.807c-9.68-15.5-24.56-40.081-24.74-45.016-.09-2.683.83-15.564 2.29-24.585z" fill="#79CCCA"/><path d="M1344.01 234.56s-13.28 18.804-3.54 36.973c9.73 18.17 47.97 15.665 55.04 38.362l-4.29 14.133-15.99-8.638s-1.34-12.275-17.06-17.606c-30.72-10.408-38.12-28.391-31.67-44.48 5.45-13.599 13.34-20.15 13.34-20.15l4.17 1.406zm20.5-10.343l-15.39 5.077-.76 2.912 19.2-.453s-1.02-4.407-3.05-7.536zm-22.52-4.225l-.51 7.947s-2.02 1.644-1.99 1.427c.02-.218-4.33-6.815-4.33-6.815a44.17 44.17 0 016.83-2.559z" fill="#FFCF50"/><path d="M1349.12 229.294l-7.86-2.648a1.219 1.219 0 00-1.03.121 1.227 1.227 0 00-.55.868l-.64 5.266c-.04.273.02.549.17.783.15.233.37.409.63.498l3.46 1.167c.18.062.38.078.57.047.19-.031.38-.108.53-.226l5.04-3.789c.18-.13.31-.304.39-.505.09-.201.11-.421.08-.635a1.183 1.183 0 00-.79-.947z" fill="#F9BB41"/><path d="M1290.23 129.347l.7 6.597s-8.35.129-8.35 0c0-.128-.25-3.272-.25-3.272l-1.39 3.65-3.1-1.009 3.55-5.966s3.52 1.666 8.84 0zm171.17 73.674l5.44 6.32-1.6 6.166-2.21-1.513 1.09-4.635-3.81 3.118-4.93-6.498 6.02-2.958z" fill="#2A425B"/><path d="M1462.58 208.82c0-.1-.03-.197-.08-.28a.55.55 0 00-.23-.185.501.501 0 00-.55.109c-.07.07-.12.16-.14.257a.484.484 0 00.03.291c.04.092.11.171.19.226a.495.495 0 00.63-.064.48.48 0 00.15-.354zm-178.47-75.317a.428.428 0 00-.06-.222.452.452 0 00-.18-.147.432.432 0 00-.24-.023.399.399 0 00-.2.111.344.344 0 00-.11.205.37.37 0 00.02.232c.03.073.09.135.15.178.07.044.15.066.23.066a.42.42 0 00.28-.119.41.41 0 00.11-.281zm13.12 153.616c0-.211-.06-.418-.18-.594a1.06 1.06 0 00-.48-.395 1.08 1.08 0 00-1.17.232c-.15.15-.25.341-.29.548-.04.208-.02.423.06.619s.22.363.39.48a1.083 1.083 0 001.36-.133c.2-.201.31-.473.31-.757zm8.54-17.758c0-.211-.07-.418-.18-.594a1.122 1.122 0 00-.48-.395 1.08 1.08 0 00-1.17.233c-.15.149-.26.34-.3.548-.04.207-.02.423.06.618.09.196.22.363.4.48.18.118.38.181.6.181.28 0 .55-.113.75-.314.2-.2.32-.473.32-.757zm11.75-13.417c0-.211-.06-.418-.18-.594a1.01 1.01 0 00-.48-.394 1.055 1.055 0 00-.62-.061 1.064 1.064 0 00-.84.841c-.04.207-.02.422.06.618s.22.363.4.48a1.065 1.065 0 001.66-.89z" fill="#EBF3FA"/><path d="M1370.38 519.206c-41.77-1.806-276.18 8.299-229.18 28.508 46.99 20.209 220.41 33.682 196.37 12.799-24.05-20.883 272.44-6.063 241.11-24.25-31.33-18.188-208.3-17.057-208.3-17.057z" fill="#F0F0F0"/><path d="M71.754 29.86h-3.3l-4.32-5.4v-1.65l4.32-5.43h3.3l-4.89 6.24 4.89 6.24zm7.17 0h-3.3l-4.32-5.4v-1.65l4.32-5.43h3.3l-4.86 6.24 4.86 6.24zM86.5 31h-3.3V10h3.3v8.58L95.11 10h4.23l-9.72 9.6L100.9 31h-4.5l-9.9-10.08V31zm31.279-2.52c.32 0 .61-.07.87-.21v2.46c-.44.32-1.07.48-1.89.48-1.68 0-2.71-.7-3.09-2.1-1.34 1.52-3.15 2.28-5.43 2.28-1.58 0-2.9-.44-3.96-1.32-1.04-.86-1.56-2.07-1.56-3.63s.57-2.76 1.71-3.6c1.12-.86 2.52-1.29 4.2-1.29 1.78 0 3.35.38 4.71 1.14v-.81c0-2.14-1.44-3.21-4.32-3.21-1.68 0-3.23.44-4.65 1.32v-2.85c1.46-.84 3.25-1.26 5.37-1.26 2.08 0 3.73.5 4.95 1.5 1.24.98 1.86 2.36 1.86 4.14v5.49c0 .46.11.82.33 1.08.24.26.54.39.9.39zm-4.44-1.65v-1.8c-1.24-.7-2.55-1.05-3.93-1.05-1.08 0-1.93.2-2.55.6-.6.4-.9.96-.9 1.68 0 .76.28 1.34.84 1.74.58.4 1.36.6 2.34.6.8 0 1.58-.16 2.34-.48.76-.34 1.38-.77 1.86-1.29zm12.35 4.17h-3.24V16.27h3.24v5.58l5.82-5.58h4.14l-6.99 6.6 8.04 8.13h-4.44l-6.57-6.66V31zm17.529 0h-3.03V16.27h3.24v9.99l7.95-9.99h3.03V31h-3.24V20.98L143.217 31zm15.358-7.38c0-2.22.7-4.06 2.1-5.52 1.42-1.48 3.24-2.22 5.46-2.22 1.52 0 2.81.4 3.87 1.2 2.08 1.48 3.12 3.7 3.12 6.66v.84h-11.28c.2 1.24.79 2.21 1.77 2.91 1 .7 2.26 1.05 3.78 1.05 1.68 0 3.26-.44 4.74-1.32v2.73c-1.36.96-3.17 1.44-5.43 1.44s-4.19-.72-5.79-2.16c-1.56-1.44-2.34-3.31-2.34-5.61zm3.3-1.5h7.98c-.04-.92-.39-1.73-1.05-2.43-.68-.72-1.62-1.08-2.82-1.08-1.14 0-2.09.34-2.85 1.02-.74.66-1.16 1.49-1.26 2.49zm27.15 8.88h-3.24V16.27h3.24v5.58l5.82-5.58h4.14l-6.99 6.6 8.04 8.13h-4.44l-6.57-6.66V31zm22.988-15.12c2.08 0 3.79.75 5.13 2.25 1.34 1.48 2.01 3.32 2.01 5.52 0 2.18-.67 4.01-2.01 5.49-1.34 1.5-3.05 2.25-5.13 2.25-2.26 0-4.01-.8-5.25-2.4V37h-3.24V16.27h3.24v2.01c1.24-1.6 2.99-2.4 5.25-2.4zm-.87 2.85c-.94 0-1.8.25-2.58.75-.78.48-1.38 1.11-1.8 1.89v4.56c.42.76 1.02 1.39 1.8 1.89.8.48 1.66.72 2.58.72 1.36 0 2.49-.47 3.39-1.41.9-.96 1.35-2.12 1.35-3.48 0-1.38-.45-2.54-1.35-3.48-.9-.96-2.03-1.44-3.39-1.44zm15.2 12.27h-3.03V16.27h3.24v9.99l7.95-9.99h3.03V31h-3.24V20.98L226.344 31zm22.918 0h-3.24V19.12h-4.98v-2.85h13.17v2.85h-4.95V31zm7.19-7.38c0-2.22.7-4.06 2.1-5.52 1.42-1.48 3.24-2.22 5.46-2.22 1.52 0 2.81.4 3.87 1.2 2.08 1.48 3.12 3.7 3.12 6.66v.84h-11.28c.2 1.24.79 2.21 1.77 2.91 1 .7 2.26 1.05 3.78 1.05 1.68 0 3.26-.44 4.74-1.32v2.73c-1.36.96-3.17 1.44-5.43 1.44s-4.19-.72-5.79-2.16c-1.56-1.44-2.34-3.31-2.34-5.61zm3.3-1.5h7.98c-.04-.92-.39-1.73-1.05-2.43-.68-.72-1.62-1.08-2.82-1.08-1.14 0-2.09.34-2.85 1.02-.74.66-1.16 1.49-1.26 2.49zm24.008-6.24c2.08 0 3.79.75 5.13 2.25 1.34 1.48 2.01 3.32 2.01 5.52 0 2.18-.67 4.01-2.01 5.49-1.34 1.5-3.05 2.25-5.13 2.25-2.26 0-4.01-.8-5.25-2.4V37h-3.24V16.27h3.24v2.01c1.24-1.6 2.99-2.4 5.25-2.4zm-.87 2.85c-.94 0-1.8.25-2.58.75-.78.48-1.38 1.11-1.8 1.89v4.56c.42.76 1.02 1.39 1.8 1.89.8.48 1.66.72 2.58.72 1.36 0 2.49-.47 3.39-1.41.9-.96 1.35-2.12 1.35-3.48 0-1.38-.45-2.54-1.35-3.48-.9-.96-2.03-1.44-3.39-1.44zM298.09 31h-3.03V16.27h3.24v9.99l7.95-9.99h3.03V31h-3.24V20.98L298.09 31zm19.438 0h-3.03V16.27h3.24v9.99l7.95-9.99h3.029V31h-3.239V20.98L317.528 31zm26.24 4.05h-3.12v-6.9h1.92c.78-1.18 1.32-2.63 1.62-4.35.3-1.66.47-4.17.51-7.53h11.73v11.88h2.55v6.9h-3.06V31h-12.15v4.05zm2.22-6.9h7.2v-9.03h-5.52c0 3.82-.56 6.83-1.68 9.03zm27.513-9.03h-5.55l-.06 2.13c-.02 2.12-.24 3.94-.66 5.46-.7 2.8-2.39 4.25-5.07 4.35-.42 0-.76-.04-1.02-.12v-2.79c.22.06.44.09.66.09 1.06 0 1.81-.54 2.25-1.62.44-1.1.68-2.95.72-5.55l.09-4.8h11.88V31h-3.24V19.12zM384.426 31h-3.72l4.17-5.73c-1.04-.26-1.85-.77-2.43-1.53-.56-.76-.84-1.7-.84-2.82 0-1.42.47-2.55 1.41-3.39.96-.84 2.34-1.26 4.14-1.26h7.74V31h-3.24v-5.07h-3.57l-3.66 5.07zm3.18-7.68h4.05v-4.44h-4.05c-.86 0-1.53.2-2.01.6-.46.38-.69.92-.69 1.62 0 .7.23 1.25.69 1.65.48.38 1.15.57 2.01.57zM416.998 31h-8.49V16.27h8.04c1.44 0 2.57.35 3.39 1.05.82.68 1.23 1.58 1.23 2.7 0 .72-.18 1.37-.54 1.95-.34.56-.79.97-1.35 1.23 1.92.56 2.88 1.82 2.88 3.78 0 1.26-.46 2.25-1.38 2.97-.9.7-2.16 1.05-3.78 1.05zm-5.25-6.24v3.63h4.68c.76 0 1.35-.16 1.77-.48.44-.32.66-.76.66-1.32 0-.58-.22-1.03-.66-1.35-.42-.32-1.01-.48-1.77-.48h-4.68zm0-5.88v3.27h4.02c.7 0 1.24-.14 1.62-.42.4-.3.6-.7.6-1.2 0-1.1-.74-1.65-2.22-1.65h-4.02zm28.621 9.6c.32 0 .61-.07.87-.21v2.46c-.44.32-1.07.48-1.89.48-1.68 0-2.71-.7-3.09-2.1-1.34 1.52-3.15 2.28-5.43 2.28-1.58 0-2.9-.44-3.96-1.32-1.04-.86-1.56-2.07-1.56-3.63s.57-2.76 1.71-3.6c1.12-.86 2.52-1.29 4.2-1.29 1.78 0 3.35.38 4.71 1.14v-.81c0-2.14-1.44-3.21-4.32-3.21-1.68 0-3.23.44-4.65 1.32v-2.85c1.46-.84 3.25-1.26 5.37-1.26 2.08 0 3.73.5 4.95 1.5 1.24.98 1.86 2.36 1.86 4.14v5.49c0 .46.11.82.33 1.08.24.26.54.39.9.39zm-4.44-1.65v-1.8c-1.24-.7-2.55-1.05-3.93-1.05-1.08 0-1.93.2-2.55.6-.6.4-.9.96-.9 1.68 0 .76.28 1.34.84 1.74.58.4 1.36.6 2.34.6.8 0 1.58-.16 2.34-.48.76-.34 1.38-.77 1.86-1.29zm16.011 4.56c-2.22 0-4.1-.73-5.64-2.19-1.54-1.48-2.31-3.35-2.31-5.61 0-2.26.77-4.11 2.31-5.55 1.56-1.44 3.45-2.16 5.67-2.16 1.68 0 3.16.34 4.44 1.02v2.79c-1.34-.64-2.66-.96-3.96-.96-1.48 0-2.72.46-3.72 1.38-1 .94-1.5 2.11-1.5 3.51 0 1.42.5 2.6 1.5 3.54 1 .92 2.24 1.38 3.72 1.38 1.58 0 2.98-.37 4.2-1.11v2.76c-1.4.8-2.97 1.2-4.71 1.2zM192.561 69h-8.49V54.27h8.04c1.44 0 2.57.35 3.39 1.05.82.68 1.23 1.58 1.23 2.7 0 .72-.18 1.37-.54 1.95-.34.56-.79.97-1.35 1.23 1.92.56 2.88 1.82 2.88 3.78 0 1.26-.46 2.25-1.38 2.97-.9.7-2.16 1.05-3.78 1.05zm-5.25-6.24v3.63h4.68c.76 0 1.35-.16 1.77-.48.44-.32.66-.76.66-1.32 0-.58-.22-1.03-.66-1.35-.42-.32-1.01-.48-1.77-.48h-4.68zm0-5.88v3.27h4.02c.7 0 1.24-.14 1.62-.42.4-.3.6-.7.6-1.2 0-1.1-.74-1.65-2.22-1.65h-4.02zm28.622 9.6c.32 0 .61-.07.87-.21v2.46c-.44.32-1.07.48-1.89.48-1.68 0-2.71-.7-3.09-2.1-1.34 1.52-3.15 2.28-5.43 2.28-1.58 0-2.9-.44-3.96-1.32-1.04-.86-1.56-2.07-1.56-3.63s.57-2.76 1.71-3.6c1.12-.86 2.52-1.29 4.2-1.29 1.78 0 3.35.38 4.71 1.14v-.81c0-2.14-1.44-3.21-4.32-3.21-1.68 0-3.23.44-4.65 1.32v-2.85c1.46-.84 3.25-1.26 5.37-1.26 2.08 0 3.73.5 4.95 1.5 1.24.98 1.86 2.36 1.86 4.14v5.49c0 .46.11.82.33 1.08.24.26.54.39.9.39zm-4.44-1.65v-1.8c-1.24-.7-2.55-1.05-3.93-1.05-1.08 0-1.93.2-2.55.6-.6.4-.9.96-.9 1.68 0 .76.28 1.34.84 1.74.58.4 1.36.6 2.34.6.8 0 1.58-.16 2.34-.48.76-.34 1.38-.77 1.86-1.29zm11.6 4.17h-3.99l7.02-7.89-6.18-6.84h3.81l5.16 5.76v-5.76h3.24v5.76l5.16-5.76h3.81l-6.24 6.84 7.08 7.89h-4.02l-5.79-6.57V69h-3.24v-6.57l-5.82 6.57zm25.813 0h-3.24V54.27h3.24v5.76h7.47v-5.76h3.24V69h-3.24v-6.12h-7.47V69zm33.994 0h-3.24V54.27h3.24V69zm-11.1 0h-6.96V54.27h3.24v4.47h3.57c1.8 0 3.24.47 4.32 1.41 1.08.92 1.62 2.16 1.62 3.72 0 1.46-.51 2.69-1.53 3.69-1.02.96-2.44 1.44-4.26 1.44zm-3.72-7.53v4.8h3.21c.94 0 1.68-.21 2.22-.63.54-.44.81-1.03.81-1.77 0-.76-.27-1.35-.81-1.77-.52-.42-1.26-.63-2.22-.63h-3.21zm24.206 7.77c-.6 0-1.1-.2-1.5-.6-.4-.42-.6-.93-.6-1.53 0-.58.2-1.07.6-1.47.4-.42.9-.63 1.5-.63.58 0 1.07.21 1.47.63.42.4.63.89.63 1.47 0 .6-.21 1.11-.63 1.53-.4.4-.89.6-1.47.6zm1.47-6.99h-3.12V57.9c1.38-.26 2.6-.77 3.66-1.53s1.59-1.65 1.59-2.67c0-.96-.36-1.71-1.08-2.25-.72-.56-1.69-.84-2.91-.84-1.76 0-3.51.57-5.25 1.71v-2.85c1.6-1.18 3.53-1.77 5.79-1.77 1.9 0 3.5.52 4.8 1.56 1.32 1.04 1.98 2.45 1.98 4.23 0 1.46-.54 2.71-1.62 3.75-1.04 1.02-2.32 1.77-3.84 2.25v2.76zm23.021-1.44v1.65l-4.319 5.4h-3.3l4.89-6.24-4.89-6.24h3.3l4.319 5.43zm-7.169 0v1.65l-4.32 5.4h-3.3l4.86-6.24-4.86-6.24h3.3l4.32 5.43zm324.804-30.95h-3.3l-4.32-5.4v-1.65l4.32-5.43h3.3l-4.89 6.24 4.89 6.24zm7.17 0h-3.3l-4.32-5.4v-1.65l4.32-5.43h3.3l-4.86 6.24 4.86 6.24zm9.014-3.78c1.42 1.48 3.16 2.22 5.22 2.22 2.06 0 3.8-.74 5.22-2.22 1.42-1.52 2.13-3.38 2.13-5.58 0-2.22-.71-4.07-2.13-5.55-1.42-1.5-3.16-2.25-5.22-2.25-2.06 0-3.8.75-5.22 2.25-1.4 1.46-2.1 3.31-2.1 5.55 0 2.24.7 4.1 2.1 5.58zm12.9 2.19c-2.04 2.08-4.6 3.12-7.68 3.12s-5.64-1.04-7.68-3.12c-2.02-2.12-3.03-4.71-3.03-7.77 0-3.08 1.01-5.66 3.03-7.74 2.04-2.1 4.6-3.15 7.68-3.15s5.64 1.05 7.68 3.15c2.04 2.08 3.06 4.66 3.06 7.74s-1.02 5.67-3.06 7.77zm24.146 6.78h-3.15V31h-13.17V16.27h3.24v11.88h7.26V16.27h3.24v11.88h2.58v6.9zm2.8-11.43c0-2.22.7-4.06 2.1-5.52 1.42-1.48 3.24-2.22 5.46-2.22 1.52 0 2.81.4 3.87 1.2 2.08 1.48 3.12 3.7 3.12 6.66v.84h-11.28c.2 1.24.79 2.21 1.77 2.91 1 .7 2.26 1.05 3.78 1.05 1.68 0 3.26-.44 4.74-1.32v2.73c-1.36.96-3.17 1.44-5.43 1.44s-4.19-.72-5.79-2.16c-1.56-1.44-2.34-3.31-2.34-5.61zm3.3-1.5h7.98c-.04-.92-.39-1.73-1.05-2.43-.68-.72-1.62-1.08-2.82-1.08-1.14 0-2.09.34-2.85 1.02-.74.66-1.16 1.49-1.26 2.49zM712.5 31h-3.24V16.27h3.24v5.76h7.47v-5.76h3.24V31h-3.24v-6.12h-7.47V31zm18.964 0h-3.03V16.27h3.24v9.99l7.95-9.99h3.03V31h-3.24V20.98L731.464 31zm22.918 0h-3.24V19.12h-4.98v-2.85h13.17v2.85h-4.95V31zm7.191-7.38c0-2.22.7-4.06 2.1-5.52 1.42-1.48 3.24-2.22 5.46-2.22 1.52 0 2.81.4 3.87 1.2 2.08 1.48 3.12 3.7 3.12 6.66v.84h-11.28c.2 1.24.79 2.21 1.77 2.91 1 .7 2.26 1.05 3.78 1.05 1.68 0 3.26-.44 4.74-1.32v2.73c-1.36.96-3.17 1.44-5.43 1.44s-4.19-.72-5.79-2.16c-1.56-1.44-2.34-3.31-2.34-5.61zm3.3-1.5h7.98c-.04-.92-.39-1.73-1.05-2.43-.68-.72-1.62-1.08-2.82-1.08-1.14 0-2.09.34-2.85 1.02-.74.66-1.16 1.49-1.26 2.49zm27.901 9.27c-1.76 0-3.32-.39-4.68-1.17V27.4c1.3.76 2.69 1.14 4.17 1.14 1.32 0 2.45-.33 3.39-.99.96-.68 1.53-1.57 1.71-2.67h-6.21v-2.61h6.21c-.24-1.1-.82-1.96-1.74-2.58-.92-.64-2.04-.96-3.36-.96-1.36 0-2.65.32-3.87.96v-2.82c1.28-.66 2.74-.99 4.38-.99 2.2 0 4.07.72 5.61 2.16 1.54 1.44 2.31 3.29 2.31 5.55s-.77 4.13-2.31 5.61c-1.52 1.46-3.39 2.19-5.61 2.19zm18.178-.39h-3.24V19.12h-4.98v-2.85h13.17v2.85h-4.95V31zm11.534 0h-3.03V16.27h3.24v9.99l7.95-9.99h3.03V31h-3.24V20.98L822.486 31zm28.041 0h-3.24V16.27h3.24v5.58l5.82-5.58h4.14l-6.99 6.6 8.04 8.13h-4.44l-6.57-6.66V31zm22.989-15.12c2.08 0 3.79.75 5.13 2.25 1.34 1.48 2.01 3.32 2.01 5.52 0 2.18-.67 4.01-2.01 5.49-1.34 1.5-3.05 2.25-5.13 2.25-2.26 0-4.01-.8-5.25-2.4V37h-3.24V16.27h3.24v2.01c1.24-1.6 2.99-2.4 5.25-2.4zm-.87 2.85c-.94 0-1.8.25-2.58.75-.78.48-1.38 1.11-1.8 1.89v4.56c.42.76 1.02 1.39 1.8 1.89.8.48 1.66.72 2.58.72 1.36 0 2.49-.47 3.39-1.41.9-.96 1.35-2.12 1.35-3.48 0-1.38-.45-2.54-1.35-3.48-.9-.96-2.03-1.44-3.39-1.44zM887.845 31h-3.03V16.27h3.24v9.99l7.95-9.99h3.03V31h-3.24V20.98L887.845 31zm22.918 0h-3.24V19.12h-4.98v-2.85h13.17v2.85h-4.95V31zm7.191-7.38c0-2.22.7-4.06 2.1-5.52 1.42-1.48 3.24-2.22 5.46-2.22 1.52 0 2.81.4 3.87 1.2 2.08 1.48 3.12 3.7 3.12 6.66v.84h-11.28c.2 1.24.79 2.21 1.77 2.91 1 .7 2.26 1.05 3.78 1.05 1.68 0 3.26-.44 4.74-1.32v2.73c-1.36.96-3.17 1.44-5.43 1.44s-4.19-.72-5.79-2.16c-1.56-1.44-2.34-3.31-2.34-5.61zm3.3-1.5h7.98c-.04-.92-.39-1.73-1.05-2.43-.68-.72-1.62-1.08-2.82-1.08-1.14 0-2.09.34-2.85 1.02-.74.66-1.16 1.49-1.26 2.49zm24.008-6.24c2.08 0 3.79.75 5.13 2.25 1.34 1.48 2.01 3.32 2.01 5.52 0 2.18-.67 4.01-2.01 5.49-1.34 1.5-3.05 2.25-5.13 2.25-2.26 0-4.01-.8-5.25-2.4V37h-3.24V16.27h3.24v2.01c1.24-1.6 2.99-2.4 5.25-2.4zm-.87 2.85c-.94 0-1.8.25-2.58.75-.78.48-1.38 1.11-1.8 1.89v4.56c.42.76 1.02 1.39 1.8 1.89.8.48 1.66.72 2.58.72 1.36 0 2.49-.47 3.39-1.41.9-.96 1.35-2.12 1.35-3.48 0-1.38-.45-2.54-1.35-3.48-.9-.96-2.03-1.44-3.39-1.44zM959.591 31h-3.03V16.27h3.24v9.99l7.95-9.99h3.03V31h-3.24V20.98L959.591 31zm19.438 0h-3.03V16.27h3.24v9.99l7.95-9.99h3.03V31h-3.24V20.98L979.029 31zm26.301 6.15c-1.22 0-2.11-.16-2.67-.48v-2.85c.64.32 1.35.48 2.13.48.82 0 1.51-.3 2.07-.9.58-.6 1.16-1.58 1.74-2.94l-6.45-14.19h3.6l4.44 10.38 4.29-10.38h3.51l-7.05 16.32c-1.32 3.04-3.19 4.56-5.61 4.56zM774.05 69h-3.24V54.27h3.24v5.76h7.47v-5.76h3.24V69h-3.24v-6.12h-7.47V69zm29.764-2.52c.32 0 .61-.07.87-.21v2.46c-.44.32-1.07.48-1.89.48-1.68 0-2.71-.7-3.09-2.1-1.34 1.52-3.15 2.28-5.43 2.28-1.58 0-2.9-.44-3.96-1.32-1.04-.86-1.56-2.07-1.56-3.63s.57-2.76 1.71-3.6c1.12-.86 2.52-1.29 4.2-1.29 1.78 0 3.35.38 4.71 1.14v-.81c0-2.14-1.44-3.21-4.32-3.21-1.68 0-3.23.44-4.65 1.32v-2.85c1.46-.84 3.25-1.26 5.37-1.26 2.08 0 3.73.5 4.95 1.5 1.24.98 1.86 2.36 1.86 4.14v5.49c0 .46.11.82.33 1.08.24.26.54.39.9.39zm-4.44-1.65v-1.8c-1.24-.7-2.55-1.05-3.93-1.05-1.08 0-1.93.2-2.55.6-.6.4-.9.96-.9 1.68 0 .76.28 1.34.84 1.74.58.4 1.36.6 2.34.6.8 0 1.58-.16 2.34-.48.76-.34 1.38-.77 1.86-1.29zm16.011 4.56c-2.22 0-4.1-.73-5.64-2.19-1.54-1.48-2.31-3.35-2.31-5.61 0-2.26.77-4.11 2.31-5.55 1.56-1.44 3.45-2.16 5.67-2.16 1.68 0 3.16.34 4.44 1.02v2.79c-1.34-.64-2.66-.96-3.96-.96-1.48 0-2.72.46-3.72 1.38-1 .94-1.5 2.11-1.5 3.51 0 1.42.5 2.6 1.5 3.54 1 .92 2.24 1.38 3.72 1.38 1.58 0 2.98-.37 4.2-1.11v2.76c-1.4.8-2.97 1.2-4.71 1.2zm13.163-.15c-.6 0-1.1-.2-1.5-.6-.4-.42-.6-.93-.6-1.53 0-.58.2-1.07.6-1.47.4-.42.9-.63 1.5-.63.58 0 1.07.21 1.47.63.42.4.63.89.63 1.47 0 .6-.21 1.11-.63 1.53-.4.4-.89.6-1.47.6zm1.47-6.99h-3.12V57.9c1.38-.26 2.6-.77 3.66-1.53s1.59-1.65 1.59-2.67c0-.96-.36-1.71-1.08-2.25-.72-.56-1.69-.84-2.91-.84-1.76 0-3.51.57-5.25 1.71v-2.85c1.6-1.18 3.53-1.77 5.79-1.77 1.9 0 3.5.52 4.8 1.56 1.32 1.04 1.98 2.45 1.98 4.23 0 1.46-.54 2.71-1.62 3.75-1.04 1.02-2.32 1.77-3.84 2.25v2.76zm23.021-1.44v1.65l-4.32 5.4h-3.3l4.89-6.24-4.89-6.24h3.3l4.32 5.43zm-7.17 0v1.65l-4.32 5.4h-3.3l4.86-6.24-4.86-6.24h3.3l4.32 5.43zm506.511-.9c-7.06 0-12.93-2.21-17.61-6.63-4.68-4.507-7.02-10.183-7.02-17.03 0-6.933 2.31-12.61 6.95-17.03 4.68-4.42 10.57-6.63 17.68-6.63 4.42 0 8.43.953 12.03 2.86v9.425c-3.51-2.34-7.5-3.51-11.96-3.51-4.29 0-7.91 1.408-10.86 4.225-2.86 2.773-4.29 6.327-4.29 10.66s1.47 7.908 4.42 10.725c2.9 2.773 6.61 4.16 11.12 4.16 4.98 0 9.14-1.322 12.48-3.965v9.425c-3.69 2.21-8 3.315-12.94 3.315zm37.29 0c-6.84 0-12.61-1.625-17.29-4.875v-9.75c1.91 1.647 4.42 3.077 7.54 4.29 3.17 1.17 6.29 1.755 9.36 1.755 2.56 0 4.66-.455 6.31-1.365 1.65-.953 2.47-2.253 2.47-3.9 0-1.777-.78-3.033-2.34-3.77-.65-.39-1.52-.78-2.6-1.17l-1.56-.52-3.64-1.105-3.38-1.105c-.48-.13-1.5-.498-3.06-1.105-1.34-.52-2.31-.975-2.92-1.365-2.25-1.56-3.68-2.882-4.29-3.965-1.04-2.08-1.56-4.203-1.56-6.37 0-4.03 1.54-7.193 4.61-9.49 3.08-2.34 7.26-3.51 12.55-3.51 5.33 0 10.29 1.257 14.88 3.77v9.1c-4.63-2.86-9.55-4.29-14.75-4.29-5.16 0-7.74 1.495-7.74 4.485 0 1.3.81 2.34 2.41 3.12.95.52 2.19.975 3.7 1.365 2.04.563 3.69 1.04 4.94 1.43 3.77 1.17 7.07 2.752 9.88 4.745 3.04 2.123 4.55 5.287 4.55 9.49 0 4.377-1.71 7.822-5.13 10.335-3.42 2.513-7.74 3.77-12.94 3.77zm36.72-.91h-9.29V13.5h9.29V59z" fill="#6A6A6A"/><path d="M957 534.504c0 12.981-209.306 23.503-467.5 23.503-258.194 0-467.5-10.522-467.5-23.503 0-12.975 209.306-23.497 467.5-23.497 258.194 0 467.5 10.522 467.5 23.497z" fill="#F0F0F0"/><path d="M340.554 526h-5.949V255.552h5.949V526z" fill="#706865"/><path d="M348.917 481.362H188.858c-9.862 0-17.858-7.993-17.858-17.858V160.427c0-9.862 7.996-17.858 17.858-17.858h160.059c9.862 0 17.86 7.996 17.86 17.858v303.077c0 9.865-7.998 17.858-17.86 17.858z" fill="#BDAFAA"/><path d="M343.76 468.126H194.017c-9.744 0-17.645-7.902-17.645-17.645V165.669c0-9.744 7.901-17.645 17.645-17.645H343.76c9.744 0 17.643 7.901 17.643 17.645v284.812c0 9.743-7.899 17.645-17.643 17.645z" fill="#fff"/><path d="M298.058 153.173h-58.339V140h58.339v13.173z" fill="#706865"/><path d="M219.518 292.248c-.007-.001-.014-.003-.025 0 .114.05.131.056.025 0z" fill="#323657"/><path d="M774.831 250.252l-35.84 19.698L703 213.309l43.535-15.119 28.296 52.062z" fill="#292C47"/><path d="M772.561 248.549l-33.515 18.423-33.662-52.968 40.713-14.141 26.464 48.686z" fill="#fff"/><path d="M784.832 238.644s-6.235-2.982-8.976-4.541c-2.737-1.564-9.781-3.705-10.349-4.213-.568-.508-20.877-1.76-22.11-2.823-1.233-1.063-2.431 2.49 2.833 3.646 5.264 1.151 12.588 3.971 12.99 6.027.402 2.059-5.408 2.548-5.994 4.243-.591 1.691.161 1.311.997 1.675.83.365 6.908-3.002 9.579-2.044 2.671.954 6.755-.368 8.801.334 2.046.698 12.006 4.049 12.006 4.049l.223-6.353zm-47.585 24.2s-5.24-4.716-7.776-6.691c-2.536-1.974-7.294-7.776-7.998-8.117-.7-.338-9.789-18.989-11.271-19.733-1.482-.749 1.404-3.262 4.536 1.248 3.141 4.515 8.649 10.321 10.74 9.894 2.099-.423.296-6.085 1.667-7.299 1.363-1.214 1.301-.357 1.964.287.667.644-.136 7.679 1.803 9.824 1.939 2.145 2.284 6.508 3.746 8.164 1.457 1.656 8.488 9.735 8.488 9.735l-5.899 2.688z" fill="#EEA886"/><path d="M850.107 514.951s1.138 7.87 1.279 9.053c.141 1.183 12.613-.698 12.613-.698l1.007-9.367s-13.337-.097-14.899 1.012z" fill="#424773"/><path d="M851.253 523.003s-3.951 4.739-7.771 6.806c-3.824 2.068-9.826 2.886-12.087 5.027-1.627 1.543-5.939 8.191 9.929 8.059 15.872-.136 23.525.939 25.22-1.613 1.705-2.548-2.456-18.811-2.456-18.811s-3.761 1.35-12.835.532z" fill="#292C47"/><path d="M760.765 514.952s1.135 7.869 1.273 9.052c.143 1.183 12.611-.698 12.611-.698l1.01-9.367s-13.336-.096-14.894 1.013z" fill="#424773"/><path d="M761.906 523.003s-3.946 4.74-7.77 6.807c-3.824 2.067-17.881 3.766-20.144 5.903-1.63 1.547-4.344 7.761 17.985 7.183 15.869-.416 23.522.938 25.221-1.614 1.704-2.548-2.458-18.81-2.458-18.81s-3.543 1.443-12.834.531zm77.873-210.237s11.721 18.612 10.848 35.441c-.878 16.825 4.244 35.197 6.004 52.774 1.966 19.597 9.994 65.987 10.282 76.47.293 10.48-1.244 43.951-1.244 43.951l-16.076.369s-13.496-81.102-16.993-89.379c-3.497-8.273-20.837-67.271-21.417-73.892-.581-6.62 28.596-45.734 28.596-45.734z" fill="#292C47"/><path d="M778.109 315.285s-8.831 46.119-9.994 56.416c-1.167 10.301-1.945 49.842-2.524 56.276-.589 6.439-3.887 84.232-7 93.793h20.553s15.774-56.552 15.774-83.309c0-26.758 12.186-58.169 20.054-75.824 7.868-17.655 25.877-18.073 30.708-50.827 0 0-61.022-6.915-67.571 3.475z" fill="#292C47"/><path d="M820.235 156.258s-15.729-5.874-22.975 6.097c-7.255 11.971-6.557 35.937 1.372 38.884 7.925 2.947 19.836 1.407 23.896-6.085 4.055-7.49 7.72-18.319 7.543-25.557-.176-7.236-5.706-11.25-9.836-13.339z" fill="#EEA886"/><path d="M800.334 201.789s.659 4.245-.427 6.339c-1.081 2.09 20.378 2.144 20.378 2.144s1.741-11.377 5.045-20.989c3.3-9.612-24.996 12.506-24.996 12.506z" fill="#EEA886"/><path d="M825.33 189.283s-1.483 2.443-7.523 1.494c-6.05-.947-13.419-8.989-15.946-9.873-2.526-.882-2.549-2.365-2.549-2.365l-1.58 2.309-2.68.169s2.447-7.194-1.245-10.128c-3.687-2.934 3.832-23.285 23.217-16.509 0 0 14.887 4.104 14.346 12.572-.541 8.467-2.708 18.113-6.04 22.331z" fill="#3A3F47"/><path d="M798.635 207.877s.065-3.998 1.879-4.383c1.81-.379 19.993-2.129 22.217-1.255v4.657s-4.286 2.633-24.096.981z" fill="#E2D2CA"/><path d="M799.711 175.46c.342-1.42 3.951-5.479 5.333-1.133 1.383 4.346-2.09 10.192-4.027 9.692-1.937-.501-2.166-4.957-1.306-8.559z" fill="#EEA886"/><path d="M726.473 255.092l.028-.004c-.125.055-.145.063-.028.004z" fill="#323657"/><path d="M852.997 357.112s-9.64 2.839-26.09 4.65c-16.446 1.811-57.537-.655-57.797-2.599-.26-1.942 8.841-72.347 8.326-75.974-.52-3.626-.799-16.545-.799-16.545-.202 3.541-3.812 18-8.162 25.885-1.574 2.846-6.849 11.771-9.395 9.742-12.311-9.828-31.37-46.867-32.578-47.181 1.011-.442 9.034-4.134 10.16-4.507.982-.33 9.866 9.072 15.242 14.901a571.28 571.28 0 014.106 4.487c1.554-3.494 7.214-25.519 8.971-33.144 3.965-17.19 3.359-17.903 3.359-17.903 12.032-3.642 30.292-11.046 30.292-11.046l24.097-.985s22.115 4.871 30.826 8.804c.828.372.833 19.729 3.1 24.806l-7.22 15.235s-4.177 30.178-5.039 43.597c-.399 6.163 8.601 57.777 8.601 57.777z" fill="#FFDF69"/><path d="M857.661 265.629c-.636 2.032-3.49 3.751-5.345 4.499a6.91 6.91 0 01-3.859.388l-.946-.175-16.51-3.063s-3.612-41.612 22.558-51.584c.69.225 9.879 31.303 4.102 49.935z" fill="#FFDF69"/><path d="M852.311 270.13a6.9 6.9 0 01-3.857.388l-.943-.175 1.627-21.265 3.173 21.052zm-96.3-.159l-2.018 8.548s-2.19-8.579-2.085-13.036a589.113 589.113 0 014.103 4.488z" fill="#AB9546"/><path d="M824.71 157.673s20.609-2.58.346 31.846l-.346-31.846z" fill="#3A3F47"/><path d="M719.568 210.271l-2.094-3.599 16.504-5.694 2.094 3.58-16.504 5.713z" fill="#292C47"/><path d="M151.555 534.772h2.82v-13.313s5.538 3.69 9.009 8.794c3.474 5.099 8.248 4.668 15.522 4.339 7.273-.325 6.948-3.255 6.298-7.379-.654-4.124-8.033-5.429-10.423-6.079-2.385-.65-7.81-9.991-9.553-12.267-2.377-3.102-3.634-6.079-3.634-6.079s-1.356-5.534-8.089 0c-6.729 5.538-4.774 16.176-4.014 17.152.76.979 2.064 14.832 2.064 14.832z" fill="#163342"/><path d="M165.773 521.134c2.495 1.63 9.008 0 9.008 0-1.844-2.389-13.187-18.346-13.187-18.346-6.894-4.015-9.616 1.512-9.616 1.512 2.812.862 11.3 15.205 13.795 16.834zm72.577-245.55s4.52.866 6.063-1.257c1.313-1.806 4.313-3.192 5.237-3.619 1.234-.576 4.367-3.744 5.108-2.193.736 1.547-4.916 5.475-5.938 6.533-1.022 1.061 5.542 1.531 6.678 2.561 1.132 1.03-.262 11.86-4.732 11.018-4.469-.846-8.683-4.696-9.498-4.688-.818.008-3.278-.486-3.278-.486l.36-7.869z" fill="#EEA886"/><path d="M254.495 277.168s13.511 3.49 14.216 4.473c.706.987.475 1.707-.803 1.433s-13.15-2.992-13.15-2.992 15.294 6.815 16.051 7.496c.439.4.075 1.822-.623 1.74-.698-.083-16.24-5.974-16.24-5.974s14.268 6.392 14.73 7.149c.404.666-.262 1.888-1.352 1.484-1.094-.399-14.672-5.585-14.672-5.585s10.092 5.307 10.104 6.176c.008.533-.251 1.779-2.811.329-2.561-1.453-8.967-4.238-8.967-4.238l3.517-11.491z" fill="#EEA886"/><path d="M114.984 535.681h1.735v-9.772s3.091 3.18 4.501 7.845c1.41 4.669 6.462 6.051 14.17 5.836 7.709-.215 7.814-3.259 7.164-7.818-.65-4.559-7.164-6.948-7.164-6.948-2.929-2.605-10.203-13.403-10.203-13.403s-4.669-1.25-8.331 1.707c-3.662 2.958-2.522 9.636-2.416 11.371.109 1.739.544 11.182.544 11.182z" fill="#163342"/><path d="M120.303 302.954s-9.185 11.939-11.676 26.106c-2.491 14.167 1.473 61.708 1.363 68.711-.11 7-6.619 24.421-5.319 37.609 1.304 13.192 6.443 78.833 6.443 78.833l14.073-2.793s-.814-66.922 0-72.456c.815-5.534 2.448-25.713 2.773-27.993.325-2.28 20.673-62.136 20.673-72.35 0-10.211-6.189-52.328-28.33-35.667z" fill="#1D3B54"/><path d="M166.435 307.624s15.087 57.585 16.881 65.563c1.79 7.975 4.383 14.555 4.383 17.943 0 7.861-2.918 20.481-2.918 20.481l-19.161 91.632h-18.248s10.168-54.972 10.442-65.723c.274-10.771 8.566-26.07 6.94-30.629-1.629-4.559-26.214-57.154-26.214-57.154s-18.617-58.829 27.895-42.113z" fill="#1D3B54"/><path d="M135.39 524.824l-10.203-13.403-8.331 1.708s2.241 6 6.291 10.512c4.798 5.347 12.243 1.183 12.243 1.183z" fill="#EEA886"/><path d="M160.203 209.764s6.22.588 10.92 5.625 9.114 13.066 10.344 15.753c1.23 2.687 18.487 27.578 19.384 28.138.893.556 9.569 3.454 15.315 5.389 8.871 2.985 26.649 9.447 26.649 9.447l-3.532 11.179s-33.43-10.94-41.804-13c-10.238-2.522-33.806-32.76-33.806-32.76s-17.57-20.594-3.47-29.771z" fill="#285173"/><path d="M149.35 205.399s8.057 3.808 10.853 4.364c2.797.56 13.654 14.66 15.558 19.811 1.899 5.146 0 12.87-3.917 21.934-3.917 9.063-.227 12.087-2.017 21.15-1.79 9.067-1.215 42.979-.878 48.016.337 5.033-52.382 12.667-62.789 3.49 0 0 7.046-30.563 15.389-39.286 1.801-1.884 1.613-14.456.38-17.59-1.23-3.133-15.107-26.524-15.107-26.524s-1.019-23.724 5.037-28.424c5.26-4.085 19.595-5.542 22.168-6.439 2.574-.893 10.063-1.285 15.323-.502z" fill="#FFBF55"/><path d="M153.196 196.102s-.243 2.221-.521 5.217c-.106 1.187-.223 2.495-.329 3.839-.321 4.018-.58 8.331-.423 10.54 0 0-8.374 8.393-17.896-9.792 0 0 4.003-7.501.991-17.708-3.016-10.215 18.178 7.904 18.178 7.904z" fill="#EEA886"/><path d="M176.63 254.854s2.017-13.408-.125-21.562c0 0 0 7.011-3.847 16.967l3.972 4.595z" fill="#183C59"/><path d="M127.592 207.195s5.762 17.01 21.574 15.761c15.816-1.253 7.496-14.367 7.496-14.367s-3.94-2.26-5.048-2.471c-1.109-.216-17.485-.419-17.485-.419l-6.537 1.496z" fill="#EEA886"/><path d="M156.662 208.589s8.284 22.913 8.284 46.265c0 23.348.666 61.387 3.557 73.396 2.894 12.013 11.123 49.159 11.123 49.159l6.451-3.337s-15.51-59.284-16.681-63.561c-1.171-4.273.889-49.437 2.001-53.217 1.113-3.784 5.84-20.614 5.108-25.287-.929-5.887-6.436-14.598-15.334-22.086l-4.509-1.332zm-25.944-2.111s5.15 16.485 7.755 37.593c2.608 21.111-8.006 119.105-15.123 141.348l-27.585-4.449s5.937-69.265 13.998-81.869c8.061-12.608 10.626-23.759 1.923-50.068-8.699-26.308 3.815-39.34 3.815-39.34s12.8-2.941 15.217-3.215z" fill="#285173"/><path d="M143.894 314.851s-1.52.007-2.19-.314c0 0-1.167-.677-2.025-1.112a6.814 6.814 0 00-.677-.302c-.682-.239-2.252-.552-3.729-1.578-1.477-1.026-6.713-7.09-6.713-7.09l2.471-3.76 1.814-3.85s10.994.709 12.482 1.504c.145.083.286.165.412.251 1.194.795 1.746 1.892 2.326 2.381.212.181 2.197 2.119 2.127 2.946-.094 1.147-.627 1.903-1.316 2.283 0 0-.286 2.237-1.391 3.279 0 0-.195 2.071-1.934 2.98 0 0-.435 2.08-1.657 2.382z" fill="#EEA886"/><path d="M121.231 209.764s-10.156-2.906-15.976 8.284c-5.82 11.19-5.793 15.964-6.569 21.432-.736 5.159-4.05 19.247-4.386 20.7-.333 1.457-7.842 18.805-4.399 24.868 3.459 6.094 38.612 24.037 38.388 25.38-.223 1.34 6.087-13.563 6.087-13.563s-14.222-7.932-16.552-10.372c-3.784-3.964-11.766-8.237-10.125-13.156 1.923-5.777 7.712-25.271 9.055-28.127 1.344-2.851 13.035-31.808 4.477-35.446z" fill="#285173"/><path d="M154.445 152.034s18.08 5.684 8.265 36.885c-9.816 31.204-34.507-3.616-31.926-22.628 2.585-19.008 23.661-14.257 23.661-14.257z" fill="#EEA987"/><path d="M164.559 170.239s-8.985 8.817-24.018 9.921c0 0-5.781 6.776-6.224 9.436 0 0-13.415-22.866 3.075-36.575 16.489-13.709 33.23 11.57 27.167 17.218z" fill="#0E2D3D"/><path d="M140.721 180.779c-.117-2.272-1.516-7.438-4.892-5.993-3.376 1.45.208 11.974 2.448 11.324 0 0 2.718.043 2.444-5.331z" fill="#EEA987"/><path d="M152.675 201.319c-.106 1.187-.223 2.495-.329 3.838 0 0-7.982-.478-13.317-12.349.349.521 6.196 9.11 13.646 8.511z" fill="#A77860"/><path d="M559.214 305.8h-19.6V266h-39.6v-19.4h39.6v-39.8h19.6v39.8h39.8V266h-39.8v39.8zm539.796-59.6h-99v-19.4h99v19.4zm0 45.6h-99v-19.4h99v19.4z" fill="#F70263"/><path d="M200.076 175.584c0-1.461.285-2.615.855-3.461.575-.847 1.369-1.27 2.382-1.27.581 0 1.074.13 1.478.39v-3.993h.987v4.026c.41-.282.919-.423 1.528-.423.957 0 1.723.384 2.299 1.153.576.77.888 1.84.938 3.213l.008.539c0 1.367-.287 2.446-.863 3.238-.576.785-1.364 1.178-2.366 1.178-.597 0-1.112-.13-1.544-.39v3.669h-.987v-3.661c-.427.255-.925.382-1.495.382-.946 0-1.704-.357-2.274-1.07-.57-.72-.883-1.713-.938-2.98l-.008-.54zm9.487 0c0-1.206-.218-2.155-.655-2.847-.432-.692-1.038-1.038-1.818-1.038-.565 0-1.002.122-1.312.365v6.948c.349.216.792.324 1.328.324.775 0 1.378-.31 1.81-.93.432-.625.647-1.566.647-2.822zm-8.491.174c0 1.129.207 2.009.622 2.64.415.625 1.013.938 1.793.938.52 0 .955-.114 1.304-.34v-6.956c-.321-.227-.75-.341-1.287-.341-.775 0-1.375.346-1.801 1.038-.421.686-.631 1.693-.631 3.021zm14.443 2.814l2.623-7.553h1.071l-3.835 10.508-.199.465c-.493 1.09-1.254 1.635-2.283 1.635-.238 0-.492-.038-.764-.116l-.008-.822.515.05c.487 0 .88-.121 1.178-.365.305-.238.562-.65.772-1.237l.44-1.212-3.386-8.906h1.087l2.789 7.553zM227.651 180h-.996v-4.117h-4.84V180h-.996v-8.981h.996v4.025h4.84v-4.025h.996V180zm5.105-4.117h-1.378V180h-1.004v-8.981h1.004v3.984h1.361l3.296-3.984h1.253l-3.685 4.357 4.092 4.624h-1.312l-3.627-4.117zm6.441-4.864h.996v8.143h4.84v-8.143h.996v8.143h.913l-.075 3.503h-.913V180h-6.757v-8.981zm15.514 0h.997V180h-.997v-7.379L249.864 180h-.988v-8.981h.988v7.387l4.847-7.387zm3.113 4.357c0-.863.166-1.64.498-2.332.338-.692.811-1.229 1.42-1.61.614-.388 1.308-.581 2.083-.581 1.196 0 2.164.42 2.905 1.261.742.836 1.113 1.945 1.113 3.329v.207c0 .869-.169 1.652-.507 2.35-.332.691-.802 1.225-1.411 1.602-.608.376-1.303.564-2.083.564-1.19 0-2.158-.418-2.905-1.253-.742-.842-1.113-1.954-1.113-3.337v-.2zm.996.274c0 1.074.277 1.957.83 2.648.559.687 1.29 1.03 2.192 1.03.896 0 1.621-.343 2.175-1.03.559-.691.838-1.602.838-2.731v-.191c0-.686-.127-1.314-.382-1.884-.254-.57-.611-1.01-1.071-1.32a2.721 2.721 0 00-1.577-.473c-.885 0-1.607.349-2.166 1.046-.559.692-.839 1.599-.839 2.723v.182zm15.979 4.35h-.996v-4.117h-4.839V180h-.996v-8.981h.996v4.025h4.839v-4.025h.996V180zm8.334 0c-.099-.282-.163-.7-.191-1.253a3.496 3.496 0 01-1.336 1.054 4.1 4.1 0 01-1.71.365c-.863 0-1.563-.241-2.1-.722-.531-.482-.797-1.09-.797-1.826 0-.875.362-1.566 1.087-2.076.731-.509 1.746-.763 3.047-.763h1.801v-1.021c0-.642-.199-1.146-.598-1.511-.392-.371-.968-.556-1.726-.556-.692 0-1.265.177-1.718.531-.454.354-.681.78-.681 1.278l-.996-.008c0-.714.332-1.331.996-1.851.664-.526 1.48-.788 2.449-.788 1.001 0 1.79.251 2.365.755.581.498.88 1.195.897 2.092v4.25c0 .869.091 1.519.274 1.95v.1h-1.063zm-3.121-.714c.664 0 1.256-.16 1.777-.481a2.83 2.83 0 001.145-1.287v-1.976h-1.776c-.991.012-1.766.194-2.325.548-.558.349-.838.83-.838 1.445 0 .503.186.921.556 1.253.377.332.864.498 1.461.498zm13.472-8.267V180h-.996v-8.126h-3.677l-.158 3.361c-.066 1.245-.191 2.197-.373 2.856-.183.653-.454 1.134-.814 1.444-.359.31-.838.465-1.436.465h-.382v-.88l.308-.016c.57-.012.979-.288 1.228-.831.249-.542.412-1.51.49-2.905l.182-4.349h5.628zm3.769 3.262h2.59c.664 0 1.245.122 1.743.365.504.238.883.57 1.137.996.26.426.39.921.39 1.486 0 .869-.299 1.566-.896 2.092-.592.52-1.395.78-2.407.78h-3.545v-8.981h.988v3.262zm0 .846v4.035h2.573c.714 0 1.273-.18 1.677-.54.409-.36.614-.852.614-1.477 0-.598-.199-1.08-.597-1.445-.393-.371-.933-.561-1.619-.573h-2.648zm14.9 4.873h-.996v-4.117h-4.84V180h-.996v-8.981h.996v4.025h4.84v-4.025h.996V180zm2.117-4.624c0-.863.166-1.64.498-2.332.337-.692.81-1.229 1.419-1.61.614-.388 1.309-.581 2.084-.581 1.195 0 2.163.42 2.905 1.261.741.836 1.112 1.945 1.112 3.329v.207c0 .869-.169 1.652-.506 2.35-.332.691-.803 1.225-1.411 1.602-.609.376-1.304.564-2.084.564-1.19 0-2.158-.418-2.905-1.253-.742-.842-1.112-1.954-1.112-3.337v-.2zm.996.274c0 1.074.276 1.957.83 2.648.559.687 1.289 1.03 2.191 1.03.897 0 1.622-.343 2.175-1.03.559-.691.838-1.602.838-2.731v-.191c0-.686-.127-1.314-.382-1.884-.254-.57-.611-1.01-1.07-1.32a2.723 2.723 0 00-1.577-.473c-.886 0-1.608.349-2.167 1.046-.559.692-.838 1.599-.838 2.723v.182zm12.401 3.678c.692 0 1.27-.194 1.735-.581.47-.393.725-.9.764-1.519h.954a2.834 2.834 0 01-.515 1.502c-.315.448-.736.8-1.261 1.054a3.757 3.757 0 01-1.677.382c-1.179 0-2.114-.409-2.806-1.228-.686-.82-1.029-1.921-1.029-3.304v-.299c0-.885.155-1.668.465-2.349.31-.681.752-1.207 1.328-1.577.581-.371 1.259-.556 2.034-.556.985 0 1.795.293 2.432.879.642.587.985 1.359 1.029 2.316h-.954c-.045-.702-.299-1.27-.764-1.701-.459-.432-1.041-.648-1.743-.648-.897 0-1.594.324-2.092.971-.493.648-.739 1.555-.739 2.723v.291c0 1.145.246 2.039.739 2.681.498.642 1.198.963 2.1.963zm11.895-7.463h-3.27V180h-.997v-8.135h-3.146v-.846h7.413v.846zm2.731 2.416h2.59c.664 0 1.245.122 1.743.365.504.238.883.57 1.137.996.26.426.39.921.39 1.486 0 .869-.299 1.566-.896 2.092-.592.52-1.395.78-2.407.78h-3.545v-8.981h.988v3.262zm0 .846v4.035h2.573c.714 0 1.273-.18 1.677-.54.409-.36.614-.852.614-1.477 0-.598-.199-1.08-.597-1.445-.393-.371-.933-.561-1.619-.573h-2.648zm-138.324 33.201c.691 0 1.27-.194 1.735-.581.47-.393.725-.9.763-1.519h.955a2.834 2.834 0 01-.515 1.502c-.315.448-.736.8-1.261 1.054a3.763 3.763 0 01-1.677.382c-1.179 0-2.114-.409-2.806-1.228-.686-.82-1.029-1.921-1.029-3.304v-.299c0-.885.155-1.668.465-2.349.31-.681.752-1.207 1.328-1.577.581-.371 1.259-.556 2.033-.556.985 0 1.796.293 2.433.879.642.587.985 1.359 1.029 2.316h-.955c-.044-.702-.299-1.27-.763-1.701-.46-.432-1.041-.648-1.744-.648-.896 0-1.593.324-2.091.971-.493.648-.739 1.555-.739 2.723v.291c0 1.145.246 2.039.739 2.681.498.642 1.198.963 2.1.963zm11.895-7.463h-3.271V209h-.996v-8.135h-3.146v-.846h7.413v.846zm7.172 8.135c-.1-.282-.164-.7-.191-1.253a3.499 3.499 0 01-1.337 1.054 4.094 4.094 0 01-1.71.365c-.863 0-1.563-.241-2.1-.722-.531-.482-.797-1.09-.797-1.826 0-.875.363-1.566 1.088-2.076.73-.509 1.746-.763 3.046-.763h1.801v-1.021c0-.642-.199-1.146-.597-1.511-.393-.371-.969-.556-1.727-.556-.692 0-1.264.177-1.718.531-.454.354-.681.78-.681 1.278l-.996-.008c0-.714.332-1.331.996-1.851.664-.526 1.481-.788 2.449-.788 1.002 0 1.79.251 2.366.755.581.498.88 1.195.896 2.092v4.25c0 .869.092 1.519.274 1.95v.1h-1.062zm-3.121-.714c.664 0 1.256-.16 1.776-.481.526-.321.907-.75 1.145-1.287v-1.976h-1.776c-.991.012-1.765.194-2.324.548-.559.349-.839.83-.839 1.445 0 .503.186.921.557 1.253.376.332.863.498 1.461.498zm10.185-7.67c1.14 0 2.064.374 2.772 1.121.708.741 1.063 1.726 1.063 2.955v.216c0 .813-.164 1.546-.49 2.199a3.589 3.589 0 01-1.395 1.519c-.603.36-1.297.54-2.083.54-1.184 0-2.145-.393-2.881-1.179-.73-.791-1.095-1.845-1.095-3.162v-.797c0-1.86.354-3.345 1.062-4.458.709-1.112 1.716-1.776 3.022-1.992.824-.133 1.403-.313 1.735-.539.337-.227.506-.537.506-.93h.855c0 .465-.097.849-.291 1.154-.193.304-.484.55-.871.738-.388.183-.98.338-1.777.465-.913.144-1.649.534-2.208 1.171-.553.631-.913 1.477-1.079 2.54a4.106 4.106 0 011.328-1.129c.537-.288 1.146-.432 1.827-.432zm-3.113 4.084v.208c0 1.012.274 1.837.822 2.473.547.631 1.267.947 2.158.947.896 0 1.616-.319 2.158-.955.542-.642.813-1.483.813-2.523v-.216c0-.935-.276-1.699-.83-2.291-.547-.592-1.267-.888-2.158-.888s-1.607.301-2.15.904c-.542.598-.813 1.378-.813 2.341zm14.609-4.681h.996V209h-.996v-7.379L236.749 209h-.988v-8.981h.988v7.387l4.847-7.387zm10.567 0V209h-.996v-8.126h-3.677l-.158 3.361c-.066 1.245-.191 2.197-.374 2.856-.182.653-.453 1.134-.813 1.444-.36.31-.838.465-1.436.465h-.382v-.88l.307-.016c.57-.012.98-.288 1.229-.831.249-.542.412-1.51.49-2.905l.182-4.349h5.628zm3.769 3.262h2.589c.665 0 1.246.122 1.744.365.503.238.882.57 1.137.996.26.426.39.921.39 1.486 0 .869-.299 1.566-.896 2.092-.593.52-1.395.78-2.408.78h-3.544v-8.981h.988v3.262zm0 .846v4.035h2.573c.714 0 1.273-.18 1.677-.54.409-.36.614-.852.614-1.477 0-.598-.199-1.08-.598-1.445-.393-.371-.932-.561-1.618-.573h-2.648zm14.9 4.873h-.997v-4.117h-4.839V209H264v-8.981h.996v4.025h4.839v-4.025h.997V209zm8.334 0c-.1-.282-.164-.7-.191-1.253a3.499 3.499 0 01-1.337 1.054 4.1 4.1 0 01-1.71.365c-.863 0-1.563-.241-2.1-.722-.531-.482-.797-1.09-.797-1.826 0-.875.363-1.566 1.088-2.076.73-.509 1.746-.763 3.046-.763h1.801v-1.021c0-.642-.199-1.146-.597-1.511-.393-.371-.969-.556-1.727-.556-.692 0-1.264.177-1.718.531-.454.354-.681.78-.681 1.278l-.996-.008c0-.714.332-1.331.996-1.851.664-.526 1.48-.788 2.449-.788 1.002 0 1.79.251 2.366.755.581.498.88 1.195.896 2.092v4.25c0 .869.091 1.519.274 1.95v.1h-1.062zm-3.122-.714c.664 0 1.257-.16 1.777-.481.526-.321.907-.75 1.145-1.287v-1.976h-1.776c-.991.012-1.765.194-2.324.548-.559.349-.839.83-.839 1.445 0 .503.186.921.556 1.253.377.332.864.498 1.461.498zm13.116-8.267V209h-.996v-3.619h-2.789L283.183 209h-1.096l2.258-3.744c-.614-.16-1.093-.47-1.436-.929-.337-.46-.506-1.002-.506-1.627 0-.814.29-1.464.871-1.951.587-.487 1.378-.73 2.374-.73h3.512zm-5.761 2.697c0 .526.166.958.498 1.295.338.338.805.512 1.403.523h2.864v-3.669h-2.54c-.692 0-1.237.166-1.636.498-.393.332-.589.783-.589 1.353zm19.797 1.885c0 1.4-.31 2.512-.929 3.337-.62.819-1.45 1.228-2.491 1.228-1.228 0-2.169-.432-2.822-1.295v4.582h-.988v-12.434h.922l.05 1.27c.647-.958 1.585-1.436 2.813-1.436 1.074 0 1.915.406 2.524 1.22.614.813.921 1.942.921 3.386v.142zm-.996-.175c0-1.145-.235-2.05-.705-2.714-.471-.664-1.127-.996-1.968-.996-.608 0-1.131.146-1.569.44-.437.293-.771.719-1.004 1.278v4.308c.238.515.578.908 1.021 1.179.443.271.966.407 1.569.407.836 0 1.486-.332 1.951-.996.47-.67.705-1.638.705-2.906zm8.874 4.574c-.1-.282-.164-.7-.191-1.253a3.499 3.499 0 01-1.337 1.054 4.094 4.094 0 01-1.71.365c-.863 0-1.563-.241-2.1-.722-.531-.482-.797-1.09-.797-1.826 0-.875.363-1.566 1.088-2.076.73-.509 1.746-.763 3.046-.763h1.802v-1.021c0-.642-.2-1.146-.598-1.511-.393-.371-.969-.556-1.727-.556-.691 0-1.264.177-1.718.531-.454.354-.681.78-.681 1.278l-.996-.008c0-.714.332-1.331.996-1.851.664-.526 1.481-.788 2.449-.788 1.002 0 1.79.251 2.366.755.581.498.88 1.195.896 2.092v4.25c0 .869.092 1.519.274 1.95v.1h-1.062zm-3.121-.714c.664 0 1.256-.16 1.776-.481.526-.321.908-.75 1.146-1.287v-1.976h-1.777c-.99.012-1.765.194-2.324.548-.559.349-.838.83-.838 1.445 0 .503.185.921.556 1.253.376.332.863.498 1.461.498zm10.185-7.67c1.14 0 2.064.374 2.772 1.121.708.741 1.063 1.726 1.063 2.955v.216c0 .813-.164 1.546-.49 2.199a3.589 3.589 0 01-1.395 1.519c-.603.36-1.297.54-2.083.54-1.184 0-2.144-.393-2.88-1.179-.731-.791-1.096-1.845-1.096-3.162v-.797c0-1.86.354-3.345 1.062-4.458.709-1.112 1.716-1.776 3.022-1.992.824-.133 1.403-.313 1.735-.539.337-.227.506-.537.506-.93h.855c0 .465-.097.849-.291 1.154-.193.304-.484.55-.871.738-.387.183-.98.338-1.776.465-.914.144-1.65.534-2.209 1.171-.553.631-.913 1.477-1.079 2.54a4.11 4.11 0 011.329-1.129c.536-.288 1.145-.432 1.826-.432zm-3.113 4.084v.208c0 1.012.274 1.837.822 2.473.548.631 1.267.947 2.158.947.896 0 1.616-.319 2.158-.955.542-.642.814-1.483.814-2.523v-.216c0-.935-.277-1.699-.831-2.291-.547-.592-1.267-.888-2.158-.888s-1.607.301-2.15.904c-.542.598-.813 1.378-.813 2.341zm8.309-.324c0-.863.166-1.64.498-2.332.338-.692.811-1.229 1.419-1.61.615-.388 1.309-.581 2.084-.581 1.195 0 2.164.42 2.905 1.261.742.836 1.113 1.945 1.113 3.329v.207c0 .869-.169 1.652-.507 2.35-.332.691-.802 1.225-1.411 1.602-.609.376-1.303.564-2.083.564-1.19 0-2.159-.418-2.906-1.253-.741-.842-1.112-1.954-1.112-3.337v-.2zm.996.274c0 1.074.277 1.957.83 2.648.559.687 1.29 1.03 2.192 1.03.896 0 1.621-.343 2.174-1.03.559-.691.839-1.602.839-2.731v-.191c0-.686-.128-1.314-.382-1.884-.255-.57-.612-1.01-1.071-1.32a2.721 2.721 0 00-1.577-.473c-.885 0-1.608.349-2.167 1.046-.558.692-.838 1.599-.838 2.723v.182zm15.348-3.785h-3.27V209h-.996v-8.135h-3.146v-.846h7.412v.846zM346.85 209c-.1-.282-.163-.7-.191-1.253a3.496 3.496 0 01-1.336 1.054 4.1 4.1 0 01-1.71.365c-.863 0-1.564-.241-2.1-.722-.532-.482-.797-1.09-.797-1.826 0-.875.362-1.566 1.087-2.076.731-.509 1.746-.763 3.047-.763h1.801v-1.021c0-.642-.199-1.146-.598-1.511-.393-.371-.968-.556-1.726-.556-.692 0-1.265.177-1.719.531-.453.354-.68.78-.68 1.278l-.996-.008c0-.714.332-1.331.996-1.851.664-.526 1.48-.788 2.448-.788 1.002 0 1.791.251 2.366.755.581.498.88 1.195.897 2.092v4.25c0 .869.091 1.519.274 1.95v.1h-1.063zm-3.121-.714c.664 0 1.256-.16 1.776-.481.526-.321.908-.75 1.146-1.287v-1.976h-1.776c-.991.012-1.766.194-2.325.548-.559.349-.838.83-.838 1.445 0 .503.185.921.556 1.253.376.332.863.498 1.461.498zm-124.188 28.042c.692 0 1.27-.194 1.735-.581.47-.393.725-.9.764-1.519h.954a2.834 2.834 0 01-.515 1.502c-.315.448-.736.8-1.261 1.054a3.757 3.757 0 01-1.677.382c-1.179 0-2.114-.409-2.806-1.228-.686-.82-1.029-1.921-1.029-3.304v-.299c0-.885.155-1.668.465-2.349.31-.681.753-1.207 1.328-1.577.581-.371 1.259-.556 2.034-.556.985 0 1.795.293 2.432.879.642.587.985 1.359 1.029 2.316h-.954c-.045-.702-.299-1.27-.764-1.701-.459-.432-1.04-.648-1.743-.648-.897 0-1.594.324-2.092.971-.493.648-.739 1.555-.739 2.723v.291c0 1.145.246 2.039.739 2.681.498.642 1.198.963 2.1.963zm7.886-3.445h-1.378V237h-1.005v-8.981h1.005v3.984h1.361l3.296-3.984h1.253l-3.686 4.357 4.093 4.624h-1.312l-3.627-4.117zm5.644-.507c0-.863.166-1.64.498-2.332.338-.692.811-1.229 1.42-1.61.614-.388 1.309-.581 2.083-.581 1.196 0 2.164.42 2.906 1.261.741.836 1.112 1.945 1.112 3.329v.207c0 .869-.169 1.652-.507 2.35-.332.691-.802 1.225-1.411 1.602-.608.376-1.303.564-2.083.564-1.19 0-2.158-.418-2.905-1.253-.742-.842-1.113-1.954-1.113-3.337v-.2zm.996.274c0 1.074.277 1.957.83 2.648.559.687 1.29 1.03 2.192 1.03.896 0 1.621-.343 2.175-1.03.559-.691.838-1.602.838-2.731v-.191c0-.686-.127-1.314-.382-1.884-.254-.57-.611-1.01-1.071-1.32a2.721 2.721 0 00-1.577-.473c-.885 0-1.607.349-2.166 1.046-.559.692-.839 1.599-.839 2.723v.182zm16.303-.049c0 1.4-.31 2.512-.93 3.337-.619.819-1.449 1.228-2.49 1.228-1.228 0-2.169-.432-2.822-1.295v4.582h-.988v-12.434h.922l.049 1.27c.648-.958 1.586-1.436 2.814-1.436 1.074 0 1.915.406 2.524 1.22.614.813.921 1.942.921 3.386v.142zm-.996-.175c0-1.145-.235-2.05-.706-2.714-.47-.664-1.126-.996-1.967-.996-.609 0-1.132.146-1.569.44-.437.293-.772.719-1.004 1.278v4.308c.238.515.578.908 1.021 1.179.443.271.966.407 1.569.407.835 0 1.486-.332 1.95-.996.471-.67.706-1.638.706-2.906zm2.656-.05c0-.863.166-1.64.498-2.332.338-.692.811-1.229 1.42-1.61.614-.388 1.309-.581 2.083-.581 1.196 0 2.164.42 2.906 1.261.741.836 1.112 1.945 1.112 3.329v.207c0 .869-.169 1.652-.507 2.35-.332.691-.802 1.225-1.411 1.602-.608.376-1.303.564-2.083.564-1.19 0-2.158-.418-2.905-1.253-.742-.842-1.113-1.954-1.113-3.337v-.2zm.996.274c0 1.074.277 1.957.83 2.648.559.687 1.29 1.03 2.192 1.03.896 0 1.621-.343 2.175-1.03.559-.691.838-1.602.838-2.731v-.191c0-.686-.127-1.314-.382-1.884-.254-.57-.611-1.01-1.071-1.32a2.721 2.721 0 00-1.577-.473c-.885 0-1.607.349-2.166 1.046-.559.692-.839 1.599-.839 2.723v.182zm12.402 3.678c.691 0 1.27-.194 1.735-.581.47-.393.725-.9.763-1.519h.955a2.834 2.834 0 01-.515 1.502c-.315.448-.736.8-1.262 1.054a3.756 3.756 0 01-1.676.382c-1.179 0-2.114-.409-2.806-1.228-.686-.82-1.029-1.921-1.029-3.304v-.299c0-.885.155-1.668.465-2.349.31-.681.752-1.207 1.328-1.577.581-.371 1.259-.556 2.033-.556.985 0 1.796.293 2.433.879.641.587.985 1.359 1.029 2.316h-.955c-.044-.702-.299-1.27-.763-1.701-.46-.432-1.041-.648-1.744-.648-.896 0-1.593.324-2.091.971-.493.648-.739 1.555-.739 2.723v.291c0 1.145.246 2.039.739 2.681.498.642 1.198.963 2.1.963zm11.895-7.463h-3.271V237h-.996v-8.135h-3.146v-.846h7.413v.846zm2.731 2.416h2.59c.664 0 1.245.122 1.743.365.503.238.882.57 1.137.996.26.426.39.921.39 1.486 0 .869-.299 1.566-.896 2.092-.593.52-1.395.78-2.408.78h-3.544v-8.981h.988v3.262zm0 .846v4.035h2.573c.714 0 1.273-.18 1.677-.54.409-.36.614-.852.614-1.477 0-.598-.199-1.08-.598-1.445-.393-.371-.932-.561-1.618-.573h-2.648zm19.357.474c0 1.4-.31 2.512-.93 3.337-.619.819-1.449 1.228-2.49 1.228-1.228 0-2.169-.432-2.822-1.295v4.582h-.988v-12.434h.922l.049 1.27c.648-.958 1.586-1.436 2.814-1.436 1.074 0 1.915.406 2.524 1.22.614.813.921 1.942.921 3.386v.142zm-.996-.175c0-1.145-.235-2.05-.706-2.714-.47-.664-1.126-.996-1.967-.996-.609 0-1.131.146-1.569.44-.437.293-.772.719-1.004 1.278v4.308c.238.515.578.908 1.021 1.179.443.271.966.407 1.569.407.835 0 1.486-.332 1.95-.996.471-.67.706-1.638.706-2.906zm8.874 4.574c-.1-.282-.164-.7-.191-1.253a3.499 3.499 0 01-1.337 1.054 4.1 4.1 0 01-1.71.365c-.863 0-1.563-.241-2.1-.722-.531-.482-.797-1.09-.797-1.826 0-.875.363-1.566 1.088-2.076.73-.509 1.746-.763 3.046-.763h1.801v-1.021c0-.642-.199-1.146-.597-1.511-.393-.371-.969-.556-1.727-.556-.692 0-1.264.177-1.718.531-.454.354-.681.78-.681 1.278l-.996-.008c0-.714.332-1.331.996-1.851.664-.526 1.481-.788 2.449-.788 1.002 0 1.79.251 2.366.755.581.498.88 1.195.896 2.092v4.25c0 .869.091 1.519.274 1.95v.1h-1.062zm-3.122-.714c.665 0 1.257-.16 1.777-.481.526-.321.907-.75 1.145-1.287v-1.976h-1.776c-.991.012-1.765.194-2.324.548-.559.349-.839.83-.839 1.445 0 .503.186.921.557 1.253.376.332.863.498 1.46.498zm10.186-7.67c1.14 0 2.064.374 2.772 1.121.708.741 1.063 1.726 1.063 2.955v.216c0 .813-.164 1.546-.49 2.199a3.589 3.589 0 01-1.395 1.519c-.603.36-1.297.54-2.083.54-1.185 0-2.145-.393-2.881-1.179-.73-.791-1.095-1.845-1.095-3.162v-.797c0-1.86.354-3.345 1.062-4.458.708-1.112 1.716-1.776 3.022-1.992.824-.133 1.402-.313 1.734-.539.338-.227.507-.537.507-.93h.855c0 .465-.097.849-.291 1.154-.193.304-.484.55-.871.738-.388.183-.98.338-1.777.465-.913.144-1.649.534-2.208 1.171-.553.631-.913 1.477-1.079 2.54a4.106 4.106 0 011.328-1.129c.537-.288 1.146-.432 1.827-.432zm-3.113 4.084v.208c0 1.012.274 1.837.822 2.473.547.631 1.267.947 2.158.947.896 0 1.616-.319 2.158-.955.542-.642.813-1.483.813-2.523v-.216c0-.935-.276-1.699-.83-2.291-.548-.592-1.267-.888-2.158-.888s-1.607.301-2.15.904c-.542.598-.813 1.378-.813 2.341zm8.309-.324c0-.863.166-1.64.498-2.332.337-.692.811-1.229 1.419-1.61.615-.388 1.309-.581 2.084-.581 1.195 0 2.164.42 2.905 1.261.742.836 1.112 1.945 1.112 3.329v.207c0 .869-.168 1.652-.506 2.35-.332.691-.802 1.225-1.411 1.602-.609.376-1.303.564-2.084.564-1.189 0-2.158-.418-2.905-1.253-.741-.842-1.112-1.954-1.112-3.337v-.2zm.996.274c0 1.074.277 1.957.83 2.648.559.687 1.289 1.03 2.191 1.03.897 0 1.622-.343 2.175-1.03.559-.691.839-1.602.839-2.731v-.191c0-.686-.128-1.314-.382-1.884-.255-.57-.612-1.01-1.071-1.32a2.721 2.721 0 00-1.577-.473c-.886 0-1.608.349-2.167 1.046-.559.692-.838 1.599-.838 2.723v.182zm15.348-3.785h-3.27V237h-.997v-8.135h-3.146v-.846h7.413v.846zm2.731 2.416h2.59c.664 0 1.245.122 1.743.365.504.238.883.57 1.137.996.26.426.39.921.39 1.486 0 .869-.298 1.566-.896 2.092-.592.52-1.395.78-2.407.78h-3.545v-8.981h.988v3.262zm0 .846v4.035h2.573c.714 0 1.273-.18 1.677-.54.41-.36.614-.852.614-1.477 0-.598-.199-1.08-.597-1.445-.393-.371-.933-.561-1.619-.573h-2.648zm8.907 4.873h-.996v-8.981h.996V237zm-75.521 18.019h.996V264h-.996v-7.379L267.163 264h-.988v-8.981h.988v7.387l4.847-7.387zM282.569 264h-.996v-4.117h-4.84V264h-.996v-8.981h.996v4.025h4.84v-4.025h.996V264zm9.114-8.135h-3.27V264h-.996v-8.135h-3.146v-.846h7.412v.846zm4.449 8.301a3.924 3.924 0 01-2.075-.564 3.872 3.872 0 01-1.436-1.569c-.343-.675-.515-1.431-.515-2.266v-.357c0-.864.166-1.641.498-2.333.338-.692.806-1.234 1.403-1.627a3.437 3.437 0 011.943-.597c1.09 0 1.953.373 2.59 1.12.641.742.962 1.757.962 3.047v.556h-6.408v.191c0 1.018.291 1.867.872 2.548.586.675 1.322 1.013 2.208 1.013.531 0 .999-.097 1.403-.291.409-.194.78-.503 1.112-.93l.623.474c-.731 1.057-1.791 1.585-3.18 1.585zm-.182-8.467c-.747 0-1.378.274-1.893.822-.509.548-.819 1.284-.93 2.208h5.388v-.108c-.028-.863-.274-1.566-.739-2.108-.465-.543-1.074-.814-1.826-.814zm12.708 3.902c0 1.4-.31 2.512-.929 3.337-.62.819-1.45 1.228-2.491 1.228-1.228 0-2.169-.432-2.822-1.295v4.582h-.988v-12.434h.922l.049 1.27c.648-.958 1.586-1.436 2.814-1.436 1.074 0 1.915.406 2.524 1.22.614.813.921 1.942.921 3.386v.142zm-.996-.175c0-1.145-.235-2.05-.705-2.714-.471-.664-1.127-.996-1.968-.996-.608 0-1.131.146-1.569.44-.437.293-.772.719-1.004 1.278v4.308c.238.515.578.908 1.021 1.179.443.271.966.407 1.569.407.835 0 1.486-.332 1.951-.996.47-.67.705-1.638.705-2.906zm2.831.158c0-1.461.285-2.615.855-3.461.575-.847 1.369-1.27 2.382-1.27.581 0 1.074.13 1.478.39v-3.993h.987v4.026c.41-.282.919-.423 1.528-.423.957 0 1.723.384 2.299 1.153.575.77.888 1.84.938 3.213l.008.539c0 1.367-.287 2.446-.863 3.238-.576.785-1.364 1.178-2.366 1.178-.597 0-1.112-.13-1.544-.39v3.669h-.987v-3.661c-.427.255-.925.382-1.495.382-.946 0-1.704-.357-2.274-1.07-.57-.72-.883-1.713-.938-2.98l-.008-.54zm9.487 0c0-1.206-.218-2.155-.655-2.847-.432-.692-1.038-1.038-1.818-1.038-.565 0-1.002.122-1.312.365v6.948c.349.216.792.324 1.328.324.775 0 1.378-.31 1.81-.93.432-.625.647-1.566.647-2.822zm-8.491.174c0 1.129.207 2.009.622 2.64.415.625 1.013.938 1.793.938.52 0 .955-.114 1.304-.34v-6.956c-.321-.227-.75-.341-1.287-.341-.775 0-1.375.346-1.801 1.038-.421.686-.631 1.693-.631 3.021zm15.174 4.408a3.925 3.925 0 01-2.076-.564 3.872 3.872 0 01-1.436-1.569c-.343-.675-.514-1.431-.514-2.266v-.357c0-.864.166-1.641.498-2.333.337-.692.805-1.234 1.403-1.627a3.434 3.434 0 011.942-.597c1.09 0 1.953.373 2.59 1.12.642.742.963 1.757.963 3.047v.556h-6.408v.191c0 1.018.29 1.867.871 2.548.587.675 1.323 1.013 2.208 1.013.531 0 .999-.097 1.403-.291.409-.194.78-.503 1.112-.93l.623.474c-.731 1.057-1.79 1.585-3.179 1.585zm-.183-8.467c-.747 0-1.378.274-1.893.822-.509.548-.819 1.284-.929 2.208h5.387v-.108c-.028-.863-.274-1.566-.739-2.108-.465-.543-1.073-.814-1.826-.814zm11.389-.68h.996V264h-.996v-7.379L333.021 264h-.988v-8.981h.988v7.387l4.848-7.387zm-.05-3.238c0 .637-.219 1.151-.656 1.544-.432.393-1.013.59-1.743.59-.719 0-1.301-.194-1.743-.582-.437-.392-.656-.91-.656-1.552h.847c0 .46.135.811.406 1.054.277.244.659.366 1.146.366.487 0 .866-.128 1.137-.382.277-.255.415-.601.415-1.038h.847zm7.031 11.547c.691 0 1.27-.194 1.734-.581.471-.393.725-.9.764-1.519h.955a2.834 2.834 0 01-.515 1.502c-.315.448-.736.8-1.262 1.054a3.756 3.756 0 01-1.676.382c-1.179 0-2.114-.409-2.806-1.228-.686-.82-1.029-1.921-1.029-3.304v-.299c0-.885.155-1.668.464-2.349.31-.681.753-1.207 1.329-1.577.581-.371 1.259-.556 2.033-.556.985 0 1.796.293 2.432.879.642.587.985 1.359 1.03 2.316h-.955c-.044-.702-.299-1.27-.764-1.701-.459-.432-1.04-.648-1.743-.648-.896 0-1.593.324-2.091.971-.493.648-.739 1.555-.739 2.723v.291c0 1.145.246 2.039.739 2.681.498.642 1.198.963 2.1.963zm-50.926 24.834l.44-.573c.698-.946 1.099-2.33 1.204-4.151l.158-3.419h5.304v8.143h.929v3.478h-.987V289h-6.749v2.64h-.954l.008-3.478h.647zm1.146 0h4.964v-7.214h-3.362l-.108 2.333c-.1 2.141-.598 3.768-1.494 4.881zm14.709-8.143h.996V289h-.996v-7.379L304.931 289h-.988v-8.981h.988v7.387l4.848-7.387zm8.923 2.374c0-.543-.202-.961-.606-1.254-.404-.293-.96-.44-1.668-.44-.642 0-1.193.166-1.652.498-.454.327-.681.742-.681 1.245h-.988c0-.747.319-1.364.955-1.851.642-.487 1.431-.73 2.366-.73 1.029 0 1.831.221 2.407.664.575.443.863 1.071.863 1.884 0 .432-.133.822-.398 1.171-.266.348-.653.619-1.162.813 1.151.315 1.726 1.029 1.726 2.142 0 .808-.312 1.447-.938 1.917-.625.471-1.455.706-2.49.706-1.002 0-1.832-.252-2.49-.756-.659-.503-.988-1.162-.988-1.975h.996c0 .542.238.996.714 1.361.481.36 1.071.54 1.768.54.758 0 1.35-.158 1.776-.474.432-.32.648-.755.648-1.303 0-.603-.197-1.037-.589-1.303-.393-.266-.994-.398-1.802-.398H315.1v-.864h1.535c1.378-.033 2.067-.564 2.067-1.593zm9.023 6.607c-.1-.282-.163-.7-.191-1.253a3.496 3.496 0 01-1.336 1.054 4.1 4.1 0 01-1.71.365c-.863 0-1.564-.241-2.1-.722-.532-.482-.797-1.09-.797-1.826 0-.875.362-1.566 1.087-2.076.731-.509 1.746-.763 3.047-.763h1.801v-1.021c0-.642-.199-1.146-.598-1.511-.393-.371-.968-.556-1.726-.556-.692 0-1.265.177-1.719.531-.453.354-.68.78-.68 1.278l-.996-.008c0-.714.332-1.331.996-1.851.664-.526 1.48-.788 2.448-.788 1.002 0 1.791.251 2.366.755.581.498.88 1.195.897 2.092v4.25c0 .869.091 1.519.274 1.95v.1h-1.063zm-3.121-.714c.664 0 1.256-.16 1.776-.481.526-.321.908-.75 1.146-1.287v-1.976h-1.776c-.991.012-1.766.194-2.325.548-.559.349-.838.83-.838 1.445 0 .503.185.921.556 1.253.376.332.863.498 1.461.498zm12.468-8.267h.996V289h-.996v-7.379L332.224 289h-.988v-8.981h.988v7.387l4.848-7.387zm-.05-3.238c0 .637-.219 1.151-.656 1.544-.431.393-1.012.59-1.743.59-.719 0-1.3-.194-1.743-.582-.437-.392-.656-.91-.656-1.552h.847c0 .46.135.811.407 1.054.276.244.658.366 1.145.366s.866-.128 1.137-.382c.277-.255.415-.601.415-1.038h.847zM347.63 289h-.996v-4.117h-4.839V289h-.996v-8.981h.996v4.025h4.839v-4.025h.996V289z" fill="#6A6A6A"/></g><defs><clipPath id="clip0"><path fill="#fff" d="M0 0h1581v571H0z"/></clipPath></defs></svg>