<svg width="95" height="102" viewBox="0 0 95 102" fill="none" xmlns="http://www.w3.org/2000/svg">
<path d="M60.2406 101.36C60.2219 101.36 60.2036 101.36 60.1848 101.36C49.1719 101.319 19.8573 89.8095 14.308 84.9564C-7.11627 66.2192 -2.75926 37.1595 15.9959 23.2943C25.6453 16.1609 19.1816 5.37479 11.1676 0.0392609L94.9266 -7.62939e-06V0.186424V0.547104V0.927696V1.33265V1.76799V2.24541V2.78367V3.42924V4.3514V97.0879V98.01V98.6551V99.1939V99.6713V100.107V100.512V100.892V101.252V101.36H94.8421H94.5641H94.2785H93.9835H93.679H93.3641H93.037H92.6967H92.3409H91.9663H91.5702H91.1458H90.6851H90.1734H89.5778H88.8077H60.297C60.2777 101.36 60.26 101.36 60.2406 101.36Z" fill="url(#paint0_linear)"/>
<defs>
<linearGradient id="paint0_linear" x1="26.9658" y1="12.532" x2="96.0684" y2="87.7137" gradientUnits="userSpaceOnUse">
<stop stop-color="#BC7FDE"/>
<stop offset="0.00903614" stop-color="#BC7FDE"/>
<stop offset="0.947289" stop-color="#8F4ACB"/>
<stop offset="1" stop-color="#8F4ACB"/>
</linearGradient>
</defs>
</svg>
