<svg width="104" height="102" viewBox="0 0 104 102" fill="none" xmlns="http://www.w3.org/2000/svg">
<path d="M103.464 102H34.5268C34.5241 101.994 34.5207 101.987 34.518 101.981C32.5588 97.6293 26.8824 83.1327 18.5004 76.0054C7.85046 66.9495 -8.88752 49.099 5.71892 27.1524C18.2695 8.29584 49.01 1.80405 56.1555 0.0194552C56.182 0.0127775 56.2086 0.00667764 56.2345 0L79.6523 0.0194552L103.464 0.0400539V0.353339V0.705589V1.07621V1.46851V1.88697V2.34107V2.84411V3.42061V4.14402V97.8564V98.5798V99.1563V99.6593V100.113V100.532V100.925V101.295V101.647V101.984V102Z" fill="url(#paint0_linear)"/>
<defs>
<linearGradient id="paint0_linear" x1="30.8792" y1="3.68605" x2="99.944" y2="88.2336" gradientUnits="userSpaceOnUse">
<stop stop-color="#C92D80"/>
<stop offset="0.0676332" stop-color="#C92D80"/>
<stop offset="0.361324" stop-color="#C92D80"/>
<stop offset="0.989458" stop-color="#ED80D3"/>
<stop offset="0.989504" stop-color="#ED80D3"/>
<stop offset="1" stop-color="#ED80D3"/>
</linearGradient>
</defs>
</svg>
