<svg width="99" height="102" viewBox="0 0 99 102" fill="none" xmlns="http://www.w3.org/2000/svg">
<path d="M42.0518 101.976C41.4672 101.976 40.8716 101.962 40.2677 101.934C27.3707 101.364 14.6389 98.5742 3.39446 84.6444C-0.821846 77.7646 -0.192806 64.5163 3.17799 54.7363C7.87811 56.6288 13.3505 62.3014 16.2108 62.3014C16.2594 62.3014 16.3063 62.3008 16.3528 62.2997C22.2369 62.1556 17.8953 63.8512 14.6389 62.3014C11.3825 60.7511 6.0832 57.2781 3.63894 56.3071C3.13894 56.3071 3.63894 55.3012 3.17799 54.7363C5.86922 49.0821 10.1802 43.9253 16.3975 40.3852C21.5794 37.4343 29.135 29.7606 32.1389 26.6327C31.6383 28.0044 39.3331 34.4945 39.1983 36.0192C38.3762 45.3382 38.4252 47.7651 47.6779 48.593C48.184 48.6381 44.1796 54.6285 44.6779 54.6285C53.2942 54.6291 38.3615 45.3159 39.1389 36.5072C39.961 27.1881 56.8911 30.982 47.6389 30.1534C47.1328 30.1084 43.1373 32.1653 42.6389 32.1653C38.4344 32.1653 35.1213 23.9923 32.1389 26.6327C34.8406 20.4042 35.6892 10.7051 32.5438 0.0161351L98.4996 -0.0239258V0.0122521V0.348902V0.701141V1.07119V1.4635V1.88307V2.33603V2.83906V3.41723V4.13785V97.8537V98.5742V99.152V99.6541V100.108V100.527V100.919V101.29V101.642V101.934L98.251 101.935H97.9554H97.6509H97.3354H97.0078L96.6675 101.936H96.3111L95.936 101.937H95.5398H95.1144H94.6525L94.1381 101.938H93.5387L92.7591 101.939L42.0518 101.976ZM44.6779 54.6285C43.6779 55.1315 41.4415 47.6111 41.1779 47.5871C36.3679 47.1564 35.3019 41.3518 35.7295 36.5072C35.7765 35.9735 35.8698 35.4549 36.0052 34.9553C36.4406 33.3504 30.9792 27.7228 32.1389 26.6327C35.1779 22.9423 40.2937 29.4446 41.3772 29.0362C42.0634 28.7774 42.7877 28.6032 43.5374 28.5259C43.5452 28.5254 43.5529 28.5242 43.5601 28.5236L43.564 28.523C43.57 28.5225 43.5767 28.5219 43.5833 28.5214L43.5894 28.5208C43.5954 28.5203 43.601 28.5197 43.6065 28.5192C43.6093 28.5186 43.6126 28.5186 43.6153 28.5181C43.6208 28.5175 43.6258 28.5175 43.6313 28.517C43.6341 28.5164 43.6374 28.5164 43.6408 28.5159C43.6457 28.5153 43.6501 28.5153 43.6551 28.5147C43.659 28.5142 43.6629 28.5142 43.6673 28.5136C43.6711 28.5131 43.6756 28.5131 43.6794 28.5125C43.6844 28.512 43.6888 28.512 43.6932 28.5114C43.6971 28.5109 43.7004 28.5109 43.7043 28.5103C43.7093 28.5098 43.7142 28.5098 43.7197 28.5092C43.7225 28.5087 43.7258 28.5087 43.7291 28.5081C43.7347 28.5081 43.7407 28.5075 43.7463 28.5069C43.7485 28.5069 43.7512 28.5063 43.7534 28.5063C43.7601 28.5058 43.7673 28.5053 43.7739 28.5047H43.7789C43.7872 28.5036 43.7949 28.503 43.8032 28.5025C44.0104 28.4874 44.2187 28.4802 44.4286 28.4802C44.6877 28.4802 44.9491 28.492 45.2126 28.5153C50.0221 28.9454 53.5747 33.2219 53.1471 38.0664C53.1017 38.5801 53.0134 39.0792 52.8863 39.561C52.5487 40.8387 58.4538 47.7917 57.6389 48.7627C56.0228 50.6898 47.1779 55.1315 44.6779 54.6285Z" fill="url(#paint0_linear)"/>
<defs>
<linearGradient id="paint0_linear" x1="38.4261" y1="13.1796" x2="77.8655" y2="137.016" gradientUnits="userSpaceOnUse">
<stop stop-color="#84B7DC"/>
<stop offset="0.00903614" stop-color="#84B7DC"/>
<stop offset="0.947289" stop-color="#4A95CB"/>
<stop offset="1" stop-color="#4A95CB"/>
</linearGradient>
</defs>
</svg>
