<svg width="95" height="102" viewBox="0 0 95 102" fill="none" xmlns="http://www.w3.org/2000/svg">
<path d="M60.2406 102C60.2219 102 60.2036 102 60.1848 102C49.1719 101.959 19.8573 90.3766 14.308 85.4928C-7.11627 66.6373 -2.75926 37.3941 15.9959 23.4414C25.6453 16.2629 19.1816 5.40873 11.1676 0.0395165L94.9266 0V0.187609V0.550566V0.933561V1.34107V1.77916V2.2596V2.80125V3.4509V4.37888V97.7009V98.6288V99.278V99.8202V100.301V100.739V101.147V101.529V101.891V102H94.8421H94.5641H94.2785H93.9835H93.679H93.3641H93.037H92.6967H92.3409H91.9663H91.5702H91.1458H90.6851H90.1734H89.5778H88.8077H60.297C60.2777 102 60.26 102 60.2406 102Z" fill="url(#paint0_linear)"/>
<defs>
<linearGradient id="paint0_linear" x1="26.9658" y1="12.6111" x2="96.5402" y2="87.8312" gradientUnits="userSpaceOnUse">
<stop stop-color="#BC7FDE"/>
<stop offset="0.00903614" stop-color="#BC7FDE"/>
<stop offset="0.947289" stop-color="#8F4ACB"/>
<stop offset="1" stop-color="#8F4ACB"/>
</linearGradient>
</defs>
</svg>
