<svg width="99" height="103" viewBox="0 0 99 103" fill="none" xmlns="http://www.w3.org/2000/svg">
<path d="M41.8736 102.069C41.289 102.069 40.6934 102.055 40.0895 102.028C27.1925 101.461 14.4607 98.6874 3.21624 84.8395C-1.00007 78 -0.371032 64.8296 2.99977 55.1071C7.69989 56.9885 13.1723 62.6278 16.0326 62.6278C16.0812 62.6278 16.1281 62.6272 16.1746 62.6261C22.0587 62.4828 17.7171 64.1684 14.4607 62.6278C11.2043 61.0866 5.90498 57.634 3.46072 56.6687C2.96072 56.6687 3.46072 55.6687 2.99977 55.1071C5.691 49.4862 10.002 44.3597 16.2193 40.8403C21.4012 37.9068 28.9568 30.2782 31.9607 27.1687C31.4601 28.5323 39.1549 34.9843 39.0201 36.5C38.198 45.7643 38.247 48.1769 47.4997 49C48.0058 49.0448 44.0014 55 44.4997 55C53.116 55.0006 38.1833 45.7421 38.9607 36.9851C39.7828 27.7208 56.7129 31.4924 47.4607 30.6687C46.9546 30.6239 42.9591 32.6687 42.4607 32.6687C38.2562 32.6687 34.9431 24.5438 31.9607 27.1687C34.6624 20.9768 35.511 11.3347 32.3656 0.708526L98.3214 0.668701V0.704666V1.03934V1.38951V1.75738V2.14738V2.56449V3.01478V3.51487V4.08964V4.80602V97.9711V98.6874V99.2618V99.7612V100.212V100.629V101.019V101.387V101.737V102.028L98.0728 102.029H97.7772H97.4727H97.1572H96.8296L96.4893 102.03H96.1329L95.7578 102.031H95.3616H94.9362H94.4743L93.9599 102.032H93.3605L92.5809 102.033L41.8736 102.069ZM44.4997 55C43.4997 55.5 41.2633 48.0238 40.9997 48C36.1897 47.5718 35.1237 41.8012 35.5513 36.9851C35.5983 36.4546 35.6916 35.939 35.827 35.4423C36.2624 33.8469 30.801 28.2524 31.9607 27.1687C34.9997 23.5 40.1155 29.964 41.199 29.558C41.8852 29.3008 42.6095 29.1276 43.3592 29.0507C43.367 29.0502 43.3747 29.0491 43.3819 29.0485L43.3858 29.0479C43.3918 29.0474 43.3985 29.0468 43.4051 29.0463L43.4112 29.0457C43.4172 29.0452 43.4228 29.0446 43.4283 29.0441C43.4311 29.0435 43.4344 29.0435 43.4371 29.043C43.4426 29.0424 43.4476 29.0424 43.4531 29.0419C43.4559 29.0413 43.4592 29.0413 43.4626 29.0408C43.4675 29.0402 43.4719 29.0402 43.4769 29.0396C43.4808 29.0391 43.4847 29.0391 43.4891 29.0385C43.4929 29.038 43.4974 29.038 43.5012 29.0374C43.5062 29.0369 43.5106 29.0369 43.515 29.0363C43.5189 29.0358 43.5222 29.0358 43.5261 29.0352C43.5311 29.0347 43.536 29.0347 43.5415 29.0341C43.5443 29.0336 43.5476 29.0336 43.5509 29.033C43.5565 29.033 43.5625 29.0325 43.5681 29.0319C43.5703 29.0319 43.573 29.0313 43.5752 29.0313C43.5819 29.0308 43.5891 29.0303 43.5957 29.0297H43.6007C43.609 29.0286 43.6167 29.028 43.625 29.0275C43.8322 29.0125 44.0405 29.0053 44.2504 29.0053C44.5095 29.0053 44.7709 29.017 45.0344 29.0402C49.8439 29.4678 53.3965 33.7191 52.9689 38.5352C52.9235 39.0458 52.8352 39.542 52.7081 40.021C52.3705 41.2912 58.2756 48.2034 57.4607 49.1687C55.8446 51.0844 46.9997 55.5 44.4997 55Z" fill="url(#paint0_linear)"/>
<defs>
<linearGradient id="paint0_linear" x1="38.4261" y1="13.1126" x2="77.4454" y2="136.354" gradientUnits="userSpaceOnUse">
<stop stop-color="#84B7DC"/>
<stop offset="0.00903614" stop-color="#84B7DC"/>
<stop offset="0.947289" stop-color="#4A95CB"/>
<stop offset="1" stop-color="#4A95CB"/>
</linearGradient>
</defs>
</svg>
