<svg width="99" height="103" viewBox="0 0 99 103" fill="none" xmlns="http://www.w3.org/2000/svg">
<path d="M41.8737 102.069C41.2891 102.069 40.6935 102.055 40.0896 102.028C27.1926 101.461 14.4608 98.6874 3.21631 84.8395C-1 78 -0.370965 64.8296 2.99984 55.1071C7.69996 56.9885 13.1724 62.6278 16.0327 62.6278C16.0813 62.6278 16.1282 62.6272 16.1747 62.6261C22.0588 62.4828 17.7172 64.1684 14.4608 62.6278C11.2044 61.0866 5.90505 57.634 3.46079 56.6687C2.96079 56.6687 3.46079 55.6687 2.99984 55.1071C5.69107 49.4862 10.0021 44.3597 16.2194 40.8403C21.4013 37.9068 28.9568 30.2782 31.9608 27.1687C31.4602 28.5323 39.155 34.9843 39.0202 36.5C38.1981 45.7643 38.2471 48.1769 47.4998 49C48.0059 49.0448 44.0015 55 44.4998 55C53.1161 55.0006 38.1834 45.7422 38.9608 36.9851C39.7829 27.7208 56.713 31.4924 47.4608 30.6687C46.9547 30.6239 42.9592 32.6687 42.4608 32.6687C38.2563 32.6687 34.9432 24.5438 31.9608 27.1687C34.6625 20.9768 35.5111 11.3348 32.3657 0.708496L98.3215 0.668671V0.704636V1.03931V1.38948V1.75735V2.14735V2.56446V3.01475V3.51484V4.08961V4.80599V97.9711V98.6874V99.2618V99.7612V100.212V100.629V101.019V101.387V101.737V102.028L98.0729 102.029H97.7773H97.4728L97.1573 102.029H96.8297L96.4894 102.03H96.133L95.7579 102.031H95.3617L94.9363 102.031H94.4744L93.96 102.032L93.3606 102.032L92.581 102.033L41.8737 102.069ZM44.4998 55C43.4998 55.5 41.2634 48.0238 40.9998 48C36.1898 47.5718 35.1238 41.8012 35.5514 36.9851C35.5984 36.4546 35.6917 35.939 35.8271 35.4423C36.2625 33.8469 30.8011 28.2524 31.9608 27.1687C34.9998 23.5 40.1156 29.964 41.1991 29.558C41.8853 29.3007 42.6096 29.1276 43.3593 29.0507C43.3671 29.0502 43.3748 29.0491 43.382 29.0485L43.3859 29.0479C43.3919 29.0474 43.3986 29.0468 43.4052 29.0463L43.4113 29.0457C43.4173 29.0452 43.4229 29.0446 43.4284 29.0441C43.4312 29.0435 43.4345 29.0435 43.4372 29.043C43.4427 29.0424 43.4477 29.0424 43.4532 29.0419C43.456 29.0413 43.4593 29.0413 43.4627 29.0408C43.4676 29.0402 43.472 29.0402 43.477 29.0396C43.4809 29.0391 43.4848 29.0391 43.4892 29.0385C43.493 29.038 43.4975 29.038 43.5013 29.0374C43.5063 29.0369 43.5107 29.0369 43.5151 29.0363C43.519 29.0358 43.5223 29.0358 43.5262 29.0352C43.5312 29.0347 43.5361 29.0347 43.5416 29.0341C43.5444 29.0336 43.5477 29.0336 43.551 29.033C43.5566 29.033 43.5626 29.0325 43.5682 29.0319C43.5704 29.0319 43.5731 29.0313 43.5753 29.0313C43.582 29.0308 43.5892 29.0302 43.5958 29.0297H43.6008C43.6091 29.0286 43.6168 29.028 43.6251 29.0275C43.8323 29.0125 44.0406 29.0053 44.2505 29.0053C44.5096 29.0053 44.771 29.017 45.0345 29.0402C49.844 29.4678 53.3966 33.7191 52.969 38.5352C52.9236 39.0458 52.8353 39.542 52.7082 40.021C52.3706 41.2912 58.2757 48.2034 57.4608 49.1687C55.8447 51.0844 46.9998 55.5 44.4998 55Z" fill="url(#paint0_linear)"/>
<defs>
<linearGradient id="paint0_linear" x1="38.4262" y1="13.1126" x2="77.4455" y2="136.354" gradientUnits="userSpaceOnUse">
<stop stop-color="#84B7DC"/>
<stop offset="0.00903614" stop-color="#84B7DC"/>
<stop offset="0.947289" stop-color="#4A95CB"/>
<stop offset="1" stop-color="#4A95CB"/>
</linearGradient>
</defs>
</svg>
