<svg width="475" height="475" viewBox="0 0 475 475" fill="none" xmlns="http://www.w3.org/2000/svg">
<g clip-path="url(#clip0)">
<path d="M377.75 187.342H377.083C367.973 187.291 359.171 190.639 352.394 196.729C346.908 181.548 332.968 170.635 316.64 170.635C306.632 170.705 297.073 174.814 290.14 182.036C283.765 169.129 270.976 160.374 256.271 160.374H255.561C247.679 160.253 239.989 162.816 233.755 167.639V75.628C233.755 53.393 216.443 35.3053 195.387 35.3053C174.353 35.3053 157.132 53.3813 157.12 75.6007L156.944 258.155L146.613 245.608C137.554 234.328 124.218 227.325 109.79 226.268C95.6586 225.3 81.7573 230.216 71.3791 239.861L62.3899 247.309C59.491 249.712 58.6639 253.809 60.4001 257.149L147.799 425.146C163.78 455.848 194.185 475.001 227.149 475.001H325.644V474.915C375.585 474.915 416.075 431.58 416.126 378.37C416.145 354.563 416.056 336.819 416.071 322.437C416.122 283.96 416.083 269.762 415.985 227.372C415.935 205.187 398.748 187.342 377.75 187.342V187.342ZM399.973 322.383C399.958 336.768 399.934 354.583 399.911 378.39C399.868 422.801 366.342 459.016 325.176 459.016H227.153C200.17 459.016 175.196 443.156 161.981 417.765L77.5553 255.533L81.7222 252.057C81.8275 251.971 81.929 251.87 82.0304 251.78C89.1976 245.034 98.8423 241.57 108.663 242.213C118.701 242.982 127.964 247.89 134.241 255.76L158.7 285.521C160.838 288.131 164.389 289.11 167.565 287.975C170.74 286.84 172.863 283.828 172.863 280.457L173.007 75.6085C173.015 62.1949 183.159 51.2822 195.394 51.2822C207.63 51.2822 217.774 62.2066 217.774 75.628V199.14C217.774 199.569 217.754 200.002 217.754 200.439C217.754 200.627 217.774 200.818 217.774 201.001V253.809C217.774 258.222 221.352 261.799 225.764 261.799C230.177 261.799 233.755 258.222 233.755 253.809V199.409C233.755 186.468 243.641 176.355 255.561 176.355H256.271C268.514 176.355 278.701 187.026 278.701 200.447V248.768C278.701 253.181 282.278 256.758 286.691 256.758C291.104 256.758 294.682 253.181 294.682 248.768V210.856C294.682 197.431 304.381 186.511 316.69 186.511C328.93 186.511 338.629 197.427 338.629 210.856V246.622C338.629 251.035 342.207 254.613 346.619 254.613C351.032 254.613 354.61 251.035 354.61 246.622V227.255C354.61 213.829 364.84 203.323 377.083 203.323H377.75C389.962 203.323 399.915 214.009 399.946 227.391C400.043 269.751 400.024 283.933 399.973 322.383Z" fill="#DC1764"/>
<path d="M131.736 79.077C136.149 79.077 139.726 75.4993 139.726 71.0866C139.855 40.5958 164.611 15.9496 195.098 15.9496C225.588 15.9496 250.34 40.5958 250.469 71.0866C250.469 75.4993 254.046 79.077 258.459 79.077C262.872 79.077 266.449 75.4993 266.449 71.0866C266.301 31.7822 234.402 0 195.098 0C155.797 0 123.894 31.7822 123.746 71.0866C123.746 75.4993 127.323 79.077 131.736 79.077Z" fill="#DC1764"/>
</g>
<defs>
<clipPath id="clip0">
<rect width="475" height="475" fill="white"/>
</clipPath>
</defs>
</svg>
