<svg width="30" height="31" viewBox="0 0 30 31" fill="none" xmlns="http://www.w3.org/2000/svg">
<path fill-rule="evenodd" clip-rule="evenodd" d="M5.04641 10.1537L13.7156 1.45372C14.0704 1.10637 14.4492 0.921581 15.0279 0.928792C15.4852 0.945919 15.9238 1.13342 16.2511 1.45372L29.779 15.0292C30.1532 15.4601 29.9748 15.6563 29.8071 15.8492C29.5921 16.0965 29.1888 16.1037 28.9322 15.8793C27.6731 14.6158 26.4185 13.3478 25.1646 12.0792C25.1697 17.1248 25.1981 22.1704 25.1634 27.2157C25.131 28.9221 23.6627 30.4446 21.9125 30.4779C17.2937 30.5077 12.6745 30.5071 8.0559 30.4779C6.35698 30.4464 4.83622 28.9722 4.80328 27.2142L4.80298 12.0975L1.03446 15.8793C0.560476 16.2942 -0.407256 15.714 0.187695 15.0292L5.01108 10.1892C5.02216 10.1769 5.03384 10.1651 5.04641 10.1537ZM23.966 10.8664C21.1259 7.99299 18.2835 5.12164 15.3962 2.29596C15.1672 2.08232 14.7845 2.08653 14.5572 2.30888L6.00065 10.8956C5.99706 16.339 5.89915 21.7831 6.00125 27.2253C6.03389 28.2923 6.96629 29.2421 8.04451 29.2754C9.30567 29.2989 10.5668 29.3118 11.828 29.3175C11.8262 27.1366 11.8145 24.9561 11.8286 22.7752C11.8603 21.1079 13.2556 19.65 15.0127 19.6611C16.6316 19.6917 18.085 21.0766 18.1159 22.7755L18.1144 29.3028C19.3755 29.2944 20.6364 29.2841 21.8973 29.276C22.9845 29.2553 23.9582 28.3211 23.966 27.1709V10.8664ZM14.9468 20.863C13.9366 20.8819 13.0326 21.7527 13.026 22.8179V29.2763H16.9185C16.9185 27.106 16.9574 24.9351 16.9179 22.7653C16.8853 21.7473 15.961 20.8567 14.9468 20.863Z" fill="black"/>
</svg>
