<svg width="29" height="24" viewBox="0 0 29 24" fill="none" xmlns="http://www.w3.org/2000/svg">
<path fill-rule="evenodd" clip-rule="evenodd" d="M12.2748 23.1299C11.6678 23.1299 10.7823 22.8084 9.82559 22.3313C8.50445 21.6904 0.000127894 16.5488 0 8.11104C0 2.80551 4.12043 -0.00107956 8.15453 0.00235176C11.2257 0.00235176 13.4177 2.16695 13.4177 4.6589C13.4177 8.34105 10.654 9.37827 9.39854 9.84945C9.20441 9.92231 9.04633 9.98163 8.94012 10.0351C8.2407 10.3612 7.6262 11.3234 7.6262 12.3634C7.6262 16.3015 11.0533 20.4812 12.2748 21.2855C12.7095 21.6059 13.1529 22.0841 13.1529 22.4892C13.1529 22.8942 12.8031 23.1299 12.2748 23.1299ZM27.6347 23.1299C27.0202 23.1299 26.1422 22.8084 25.178 22.3313C23.8642 21.6904 15.3525 16.5488 15.3525 8.11074C15.3525 2.80545 19.479 -0.00113487 23.5071 9.53674e-06C26.5769 9.53674e-06 28.7763 2.16461 28.7763 4.65656C28.7763 8.33415 26.0195 9.37339 24.7635 9.84688C24.5675 9.92078 24.408 9.98089 24.3013 10.0351C23.6019 10.3612 22.9874 11.3234 22.9874 12.3634C22.9874 16.3015 26.407 20.4812 27.6347 21.2855C28.0719 21.6059 28.5065 22.0841 28.5065 22.4892C28.5065 22.8942 28.163 23.1299 27.6347 23.1299Z" fill="white"/>
</svg>
