<svg width="18" height="18" viewBox="0 0 18 18" fill="none" xmlns="http://www.w3.org/2000/svg">
<path fill-rule="evenodd" clip-rule="evenodd" d="M14.4407 0.0175233C16.2906 0.0525699 17.9531 1.62895 17.9901 3.5655C18.0122 7.17566 17.9903 10.7862 17.9903 14.3965C17.9788 16.2696 16.3836 17.9531 14.4407 17.9896C10.8288 18.0128 7.21694 17.99 3.60508 17.99C1.7328 17.9777 0.0475218 16.3837 0.0104826 14.4418C-0.0128916 10.8315 0.010123 7.22095 0.010123 3.61061C0.0221697 1.73966 1.61701 0.0543672 3.55977 0.0175233C7.18673 -0.0058411 10.8139 -0.0058411 14.4407 0.0175233ZM3.6074 0.73623C2.11037 0.745756 0.759342 2.01768 0.729675 3.57447C0.706301 7.18103 0.729316 10.7876 0.729316 14.3942C0.739025 15.8925 2.01598 17.2416 3.56893 17.2707C7.17683 17.294 10.7851 17.271 14.3932 17.271C15.8882 17.2613 17.2412 15.9849 17.2709 14.4326C17.293 10.8261 17.2711 7.21949 17.2711 3.61293C17.2619 2.11635 15.9891 0.765885 14.4317 0.73641C10.8236 0.713225 7.21549 0.73623 3.6074 0.73623ZM14.7841 4.66165C15.0507 4.69868 15.2025 5.01194 15.0336 5.24576L8.20566 13.6929C8.07872 13.8333 7.87267 13.8617 7.71211 13.756L3.57667 10.7006C3.28844 10.4625 3.54628 9.82105 4.00424 10.1225L7.8626 12.9733L14.4743 4.79393C14.4743 4.79393 14.6348 4.65716 14.7841 4.66165Z" fill="#D41367"/>
</svg>
