<svg width="26" height="23" viewBox="0 0 26 23" fill="none" xmlns="http://www.w3.org/2000/svg">
<path fill-rule="evenodd" clip-rule="evenodd" d="M12.4452 12.7277C18.0322 12.7587 23.2953 16.4065 25.0964 22.1585C25.1576 22.3538 25.246 22.5566 25.1848 22.7405C25.0429 23.1662 24.4495 23.0653 24.2643 22.4587C23.0167 18.4412 19.8023 14.9974 15.5984 13.9744C11.8717 13.0674 7.69985 13.8074 4.83562 16.2641C2.9514 17.88 1.54626 20.0962 0.889005 22.4403C0.889005 22.4403 0.571985 23.0497 0.168083 22.7238C-0.243336 22.392 0.194391 21.6369 0.481787 20.9362C2.36777 16.338 6.76117 12.8206 12.1538 12.7295C12.2509 12.7282 12.3481 12.7275 12.4452 12.7277ZM12.422 2.84878e-05C15.0481 0.0248256 17.5272 2.02461 18.03 4.62633C18.5207 7.16705 17.0296 9.95047 14.6217 10.9621C11.954 12.0828 8.50963 10.8245 7.21966 8.20984C5.88747 5.50981 7.14671 1.83633 9.95656 0.533495C10.7248 0.177339 11.5697 -0.00260483 12.422 2.84878e-05ZM12.3535 0.877807C10.1514 0.898654 8.08411 2.55194 7.62627 4.70336C7.16444 6.87366 8.42434 9.2849 10.4929 10.1539C13.1841 11.2842 16.7513 9.43544 17.197 6.41085C17.5898 3.74418 15.43 0.962073 12.5105 0.879343C12.4583 0.878246 12.4059 0.877588 12.3535 0.877807Z" fill="black"/>
</svg>
