<svg width="27" height="14" viewBox="0 0 27 14" fill="none" xmlns="http://www.w3.org/2000/svg">
<path fill-rule="evenodd" clip-rule="evenodd" d="M13.1785 0.000154415C18.1795 0.039273 23.4213 2.00447 25.9464 6.29907C26.0664 6.5031 26.2176 6.80946 26.2176 6.80946C26.3692 7.21629 25.9646 7.66801 25.6589 8.12796C23.0052 12.1218 17.9388 14.0003 13.0392 14.0003C8.05978 14.0003 2.76768 12.0557 0.308037 7.70239C0.181854 7.47901 0.0250997 7.14217 0.0250997 7.14217C-0.0813864 6.83458 0.173237 6.49569 0.370821 6.16359C2.79353 2.09032 7.86281 0.0398906 12.9432 0.000154415C13.0215 -5.14718e-05 13.1001 -5.14718e-05 13.1785 0.000154415ZM12.9467 0.823707C8.5096 0.858296 3.97214 2.4288 1.44663 6.0135C1.22976 6.32131 1.02931 6.64187 0.85819 6.97767C0.85819 6.97767 1.49013 8.13723 2.24661 8.9791C4.99104 12.0332 9.35308 13.2585 13.4906 13.172C18.175 13.0742 23.1046 11.2264 25.3574 7.03718C25.3574 7.03718 25.3666 6.9437 25.3229 6.86444C23.0976 2.88217 18.0677 0.862002 13.1739 0.823707C13.0981 0.823501 13.0224 0.823501 12.9467 0.823707ZM13.1577 3.912C15.1899 3.9505 16.8459 6.35279 15.8918 8.33878C15.0584 10.0734 12.4338 10.612 10.9949 9.23521C9.30488 7.61797 10.2645 3.96553 13.0783 3.912C13.1181 3.91179 13.1179 3.91179 13.1577 3.912ZM13.0887 4.73557C11.6006 4.76377 10.3851 6.52761 11.0836 7.98117C11.6954 9.25458 13.6193 9.64906 14.6747 8.63919C15.3844 7.95997 15.5757 6.79485 15.1027 5.92127C14.7084 5.19346 13.9745 4.7298 13.0887 4.73557Z" fill="#D41367"/>
</svg>
