<svg width="25" height="25" viewBox="0 0 25 25" fill="none" xmlns="http://www.w3.org/2000/svg">
<path fill-rule="evenodd" clip-rule="evenodd" d="M20.0565 0.0243379C22.6259 0.0730138 24.9348 2.26243 24.9863 4.95208C25.017 9.96619 24.9865 14.9808 24.9865 19.9952C24.9706 22.5967 22.755 24.9349 20.0565 24.9856C15.04 25.0178 10.0235 24.9861 5.00706 24.9861C2.40667 24.9691 0.0660025 22.7552 0.0145592 20.0581C-0.017905 15.0437 0.0140597 10.0291 0.0140597 5.01473C0.0307913 2.41619 2.24585 0.07551 4.94413 0.0243379C9.98157 -0.00811264 15.0193 -0.00811264 20.0565 0.0243379ZM5.01029 1.02256C2.93108 1.03579 1.05465 2.80235 1.01344 4.96455C0.980979 9.97367 1.01294 14.9828 1.01294 19.9919C1.02643 22.073 2.79997 23.9466 4.95685 23.9871C9.96782 24.0195 14.9793 23.9876 19.9905 23.9876C22.067 23.9741 23.9462 22.2013 23.9874 20.0453C24.0181 15.0362 23.9876 10.0271 23.9876 5.01797C23.9749 2.93939 22.2071 1.06375 20.044 1.02281C15.0327 0.990607 10.0215 1.02256 5.01029 1.02256ZM20.5335 6.47452C20.9038 6.52594 21.1146 6.96103 20.8801 7.28578L11.3968 19.0179C11.2205 19.2129 10.9343 19.2523 10.7113 19.1055L4.96762 14.862C4.56731 14.5312 4.92541 13.6404 5.56146 14.059L10.9203 18.0184L20.1032 6.65824C20.1032 6.65824 20.3262 6.46828 20.5335 6.47452Z" fill="black"/>
</svg>
