<svg width="22" height="30" viewBox="0 0 22 30" fill="none" xmlns="http://www.w3.org/2000/svg">
<path fill-rule="evenodd" clip-rule="evenodd" d="M18.8513 14.9009C18.8888 12.3326 19.1589 9.72577 18.4453 7.29425C17.7255 4.84041 15.8517 2.67605 13.2298 2.03832C10.2153 1.30505 6.74685 2.06902 4.92912 4.44019C3.79304 5.92194 3.17867 7.82307 3.14097 9.66279C3.14097 9.66279 2.97344 10.2291 2.54833 10.1722C2.01327 10.1005 2.0952 9.19879 2.20776 8.46736C2.69937 5.27554 4.63698 2.21966 7.7989 1.18905C8.76299 0.874911 9.77814 0.742903 10.7964 0.729256C10.8972 0.728731 10.8969 0.728731 10.9977 0.728993C13.5298 0.7555 16.0671 1.61998 17.7307 3.64787C19.0995 5.31648 19.8296 7.49554 19.8937 9.6145L19.8942 14.9009H21.4651C21.486 14.9022 21.507 14.9032 21.5282 14.9045C21.8918 14.9715 21.9714 15.1407 21.9886 15.4258C21.9886 18.0667 22.0146 20.7079 21.9881 23.3489C21.9433 26.3174 19.3911 29.0216 16.2653 29.0507C12.7393 29.0615 9.21324 29.0832 5.6872 29.0504C2.74622 29.0045 0.0285329 26.4754 0 23.3129V15.4258C0 15.4258 0.102875 14.9263 0.523539 14.9009H18.8513ZM20.9416 15.9506H1.04708C1.04708 18.4124 1.0251 20.8743 1.04735 23.336C1.08373 25.7513 3.18155 27.9773 5.72962 28.0009C9.24911 28.0117 12.7689 28.0337 16.2881 28.0007C18.6945 27.9631 20.9156 25.8715 20.9413 23.3064L20.9416 15.9506ZM11.0346 18.8267C13.1044 18.8666 14.7994 21.3155 13.8254 23.3413C12.9749 25.1096 10.2962 25.6586 8.8274 24.2551C7.10077 22.6054 8.08214 18.8821 10.9538 18.8267C10.9943 18.8265 10.9941 18.8265 11.0346 18.8267ZM10.9671 19.8765C9.36295 19.9072 8.20645 22.212 9.54986 23.4953C10.8713 24.7579 13.9015 23.3229 12.9036 21.1126C12.5707 20.3754 11.7943 19.8713 10.9671 19.8765Z" fill="black"/>
</svg>
