<svg width="28" height="28" viewBox="0 0 28 28" fill="none" xmlns="http://www.w3.org/2000/svg">
<path fill-rule="evenodd" clip-rule="evenodd" d="M18.0705 19.0748C15.0572 21.7064 10.552 22.5355 6.76189 20.9857C2.19187 19.1168 -0.719241 13.8598 0.154819 8.96855C1.02966 4.07394 5.5797 0.114829 10.6674 0.00171908C10.761 0.000421948 10.8547 -0.000356333 10.9483 0.000162521C15.9486 0.0476376 20.6626 3.90687 21.589 8.90136C22.2097 12.2493 21.139 15.8657 18.8164 18.3531L27.8389 27.1271C28.0327 27.3316 27.999 27.3995 27.9959 27.5132C27.9852 27.909 27.4486 28.169 27.1158 27.8712L18.0705 19.0748ZM10.8141 1.03786C6.35125 1.08015 2.16302 4.45529 1.23501 8.84946C0.551845 12.0843 1.62769 15.6374 3.9944 17.9483C6.71177 20.6018 11.0133 21.4924 14.6017 20.0251C18.752 18.3279 21.3921 13.5306 20.5689 9.09073C19.7524 4.68903 15.6772 1.14163 11.0688 1.03942C10.984 1.03812 10.8992 1.0376 10.8141 1.03786Z" fill="black"/>
</svg>
