<svg width="25" height="28" viewBox="0 0 25 28" fill="none" xmlns="http://www.w3.org/2000/svg">
<path fill-rule="evenodd" clip-rule="evenodd" d="M9.0245 25.0687C6.83562 25.0637 4.64674 25.0542 2.45794 25.04C0.845962 25.0094 -0.48061 23.1771 0.168258 21.5933C0.542278 20.6806 1.48781 20.0443 2.48858 20.0378H3.99474C3.99474 17.5049 3.98719 14.9719 3.99489 12.4387C4.02543 9.22798 6.01878 6.13076 8.98162 4.78213L9.00976 4.76962C9.00976 3.92072 8.9718 3.00153 9.23002 2.30921C9.73463 0.956317 11.0589 0.0196246 12.5638 0.0286288C14.3934 0.0626449 16.0184 1.64164 16.0308 3.52828V4.76962C16.0888 4.79538 16.1465 4.82214 16.2041 4.84916C19.0857 6.22656 21.036 9.27675 21.0458 12.4908V20.0378C21.9039 20.0378 22.8013 19.9178 23.5546 20.2467C25.0012 20.878 25.5138 23.0345 24.386 24.2428C23.9258 24.7358 23.2644 25.0272 22.5826 25.04C20.4091 25.0542 18.2355 25.0637 16.0619 25.0687C16.0312 25.4179 15.8761 25.8088 15.741 26.0972C15.2522 27.1417 14.1554 27.8598 12.971 27.8823C12.3097 27.8865 11.6461 27.9146 11.0437 27.6947C9.94817 27.2945 9.14195 26.2405 9.0245 25.0687ZM14.9676 25.2903H10.0729C10.2965 26.1797 11.1398 26.8638 12.0823 26.8818C12.6123 26.8853 13.1386 26.9356 13.6278 26.7637C14.2825 26.5339 14.7981 25.9644 14.9676 25.2903ZM12.4891 1.0291C11.1863 1.05312 10.021 2.17765 10.0128 3.53154V5.10078C9.98526 5.51698 9.84376 5.49597 9.43789 5.67455C6.83643 6.8376 5.02563 9.53312 4.99795 12.4453L4.9978 20.5381C4.9978 20.5381 4.89301 21.0123 4.4963 21.0383C3.13066 21.0383 1.52833 20.838 1.08338 22.0058C0.746594 22.8897 1.4581 24.0077 2.4512 24.0392C9.16275 24.1658 15.8779 24.1658 22.5894 24.0392C23.7223 24.0032 24.5145 22.4192 23.6394 21.5035C23.3593 21.2104 22.9603 21.0411 22.5487 21.0383H20.5444C20.273 21.0206 20.0668 20.902 20.0429 20.5381C20.0429 17.8403 20.0509 15.1428 20.0427 12.445C20.0159 9.51487 18.1432 6.69378 15.3414 5.5645C15.3414 5.5645 15.0507 5.44569 15.0278 5.10078C15.0278 3.95674 15.1269 2.73641 14.4402 1.92103C13.9582 1.34876 13.289 1.0241 12.4891 1.0291Z" fill="black"/>
</svg>
