<svg width="19" height="17" viewBox="0 0 19 17" fill="none" xmlns="http://www.w3.org/2000/svg">
<path fill-rule="evenodd" clip-rule="evenodd" d="M13.7586 4.7078e-06C17.2021 0.0266572 19.9106 4.34605 18.7113 7.82634C17.7078 10.7382 15.1731 12.954 12.6317 14.9184C11.6985 15.6398 10.737 16.3267 9.73887 16.9461C9.73887 16.9461 9.62424 17.1135 9.22702 16.858C6.16635 14.8753 3.2039 12.5849 1.24386 9.55523C0.0909719 7.77304 -0.420264 5.46331 0.548725 3.31671C1.45059 1.3193 3.60879 -0.170633 5.80514 0.0242064C7.17518 0.145674 8.464 0.817807 9.53061 1.71955C9.53061 1.71955 10.0909 1.27121 10.626 0.945709C11.5713 0.370842 12.656 -0.00152704 13.7586 4.7078e-06ZM13.702 0.612854C12.2171 0.629244 10.7771 1.37077 9.77335 2.36135C9.77335 2.36135 9.50686 2.51636 9.21691 2.25857C7.74527 0.966229 5.70017 0.17125 3.79406 0.977258C1.45427 1.96662 -0.0878679 4.76697 0.915908 7.56701C1.80858 10.0567 3.90961 11.9915 6.03164 13.7476C7.15557 14.6777 8.33006 15.5468 9.55313 16.3392C12.5743 14.4207 15.4759 12.1834 17.3205 9.26772C18.0914 8.04951 18.5701 6.64827 18.3274 5.16032C17.947 2.82807 16.1091 0.630929 13.7558 0.612701C13.7379 0.612701 13.72 0.612701 13.702 0.612854Z" fill="#D41367"/>
</svg>
