<svg width="18" height="18" viewBox="0 0 18 18" fill="none" xmlns="http://www.w3.org/2000/svg">
<path fill-rule="evenodd" clip-rule="evenodd" d="M9.00793 3.48303e-05C9.32069 0.00865881 9.6161 0.193737 9.7587 0.471491C10.5292 2.03145 11.1983 3.64236 12.0256 5.17293C12.0453 5.20653 12.0777 5.22916 12.1158 5.23618C13.8368 5.49579 15.5677 5.6861 17.2902 5.93563C17.9002 6.03464 18.2664 6.88506 17.7638 7.39141C16.5149 8.60398 15.1881 9.73803 13.9865 10.9973C13.9606 11.0262 13.9491 11.064 13.9542 11.1025C14.2369 12.8175 14.5949 14.5195 14.887 16.233C14.9831 16.8525 14.2624 17.4419 13.6468 17.1324C12.1074 16.3185 10.6161 15.4116 9.04554 14.6595C9.00994 14.6437 8.9705 14.6444 8.93526 14.6612C7.38971 15.4602 5.87593 16.3192 4.33787 17.1324C3.78246 17.4115 2.99189 16.9144 3.09742 16.233C3.38991 14.5182 3.79871 12.8225 4.03077 11.0985C4.03479 11.0597 4.02201 11.0225 3.99499 10.9942C2.75672 9.77292 1.46861 8.603 0.220673 7.39141C-0.223546 6.94378 0.0375445 6.04224 0.694288 5.93563C2.41803 5.68592 4.15931 5.5496 5.87247 5.23549C5.91044 5.22726 5.94221 5.20378 5.96065 5.16954C6.73899 3.61496 7.45599 2.03028 8.22575 0.471491C8.37309 0.184511 8.68202 -0.00293707 9.00793 3.48303e-05ZM8.99003 0.729234C8.94402 0.730492 8.90258 0.755507 8.88012 0.795583C8.05467 2.3219 7.37291 3.92151 6.6194 5.48451C6.49652 5.73022 6.26099 5.90572 5.98913 5.95557C4.2663 6.21546 2.53598 6.42256 0.809311 6.6559C0.715282 6.66859 0.663612 6.79671 0.731532 6.86991C1.93164 8.12431 3.24311 9.26754 4.49909 10.4663C4.695 10.6596 4.78939 10.938 4.75269 11.2103C4.46969 12.927 4.13028 14.6341 3.81897 16.3459C3.80108 16.445 3.9088 16.5276 3.99882 16.4862C5.56427 15.7339 7.05833 14.8418 8.58817 14.0195C8.83557 13.8915 9.09575 13.8747 9.3751 14.0084C10.9227 14.8084 12.4441 15.6577 13.9785 16.4825C14.0651 16.529 14.1784 16.4526 14.1669 16.3549C13.9323 14.6358 13.5462 12.9409 13.2358 11.2338C13.1905 10.9593 13.2535 10.7084 13.4684 10.4831C14.7081 9.26038 15.9874 8.07825 17.2471 6.87595C17.317 6.80916 17.281 6.67663 17.1839 6.65728C15.4744 6.34881 13.7408 6.19181 12.0192 5.95916C11.747 5.9181 11.5071 5.74879 11.3758 5.5059C10.5966 3.94972 9.86386 2.37071 9.10816 0.80304C9.08607 0.757057 9.04061 0.72876 8.99003 0.729234Z" fill="#D41367"/>
</svg>
