<svg width="30" height="25" viewBox="0 0 30 25" fill="none" xmlns="http://www.w3.org/2000/svg">
<path fill-rule="evenodd" clip-rule="evenodd" d="M12.191 19.1289C14.1379 19.1666 15.7396 21.4571 14.8167 23.3763C14.0425 24.986 11.6689 25.5611 10.2459 24.3546C8.48512 22.8623 9.3033 19.1836 12.1149 19.1289C12.1531 19.1287 12.1531 19.1287 12.191 19.1289ZM23.8814 19.1289C25.8281 19.1666 27.4298 21.4571 26.5068 23.3763C25.7327 24.986 23.359 25.5611 21.936 24.3546C20.1755 22.8623 20.994 19.1836 23.8051 19.1289C23.8432 19.1287 23.843 19.1287 23.8814 19.1289ZM12.1287 20.2061C10.7011 20.2339 9.64569 22.2722 10.8395 23.4404C12.0124 24.5884 14.8345 23.3251 13.8486 21.275C13.5391 20.6312 12.8502 20.2015 12.1287 20.2061ZM23.8188 20.2061C22.3934 20.2339 21.3361 22.2722 22.5296 23.4404C23.7028 24.5884 26.5249 23.3251 25.5388 21.275C25.2292 20.6312 24.5406 20.2015 23.8188 20.2061ZM28.6757 18.3206H8.41772C7.61083 18.3049 7.10568 17.1644 7.78333 16.5721L9.81279 14.8668C8.90809 10.795 8.06949 6.70822 7.09789 2.65211C6.87326 1.75674 6.0172 1.08602 5.09745 1.08117H0.466758C-0.105026 1.04023 -0.204175 0.0516583 0.466758 0.00371126C2.02224 0.00371126 3.57771 -0.00463907 5.13319 0.00371126C6.52664 0.0266073 7.81826 1.04508 8.14957 2.42827L8.56954 4.31787C8.58405 4.31571 8.59856 4.31437 8.61306 4.31356C14.8919 4.31356 21.1711 4.27396 27.45 4.31356C28.3665 4.33107 29.1836 5.13216 29.2126 6.05824C29.2532 8.1477 29.2131 10.238 29.2131 12.3277C29.2021 13.2199 28.4866 14.0183 27.5854 14.108L10.624 15.5911L8.65794 17.2431H28.6757C28.6779 17.2431 28.9847 17.2673 29.1277 17.4904C29.3335 17.8112 29.0868 18.2909 28.6757 18.3206ZM8.80812 5.39102L10.8306 14.4918C16.3894 14.0091 21.9538 13.5862 27.5061 13.0332C27.8479 12.9909 28.126 12.6881 28.1381 12.342C28.1639 10.2536 28.2028 8.16387 28.1378 6.07629C28.1214 5.71399 27.803 5.39803 27.4362 5.39102H8.80812Z" fill="black"/>
</svg>
