<svg width="25" height="26" viewBox="0 0 25 26" fill="none" xmlns="http://www.w3.org/2000/svg">
<path fill-rule="evenodd" clip-rule="evenodd" d="M12.4924 0.0411377C5.59661 0.0411377 0 5.63775 0 12.5336C0 19.4294 5.59661 25.026 12.4924 25.026C19.3883 25.026 24.9849 19.4294 24.9849 12.5336C24.9849 5.63775 19.3883 0.0411377 12.4924 0.0411377ZM12.4924 11.1594C11.7304 11.1594 11.1183 11.7715 11.1183 12.5336C11.1183 13.2956 11.7304 13.9078 12.4924 13.9078C13.2545 13.9078 13.8666 13.2956 13.8666 12.5336C13.8666 11.7715 13.2545 11.1594 12.4924 11.1594ZM4.99698 20.029L15.2283 15.2694L19.9879 5.03812L9.7566 9.79774L4.99698 20.029Z" fill="#323E48"/>
</svg>
