<svg width="19" height="12" viewBox="0 0 19 12" fill="none" xmlns="http://www.w3.org/2000/svg">
<path d="M5.02655 9.13235L8.07343 0.335968H9.61151L5.65643 11H4.41132L0.463562 0.335968H1.99432L5.02655 9.13235ZM14.1891 6.24661C12.9831 5.89993 12.1042 5.47513 11.5524 4.9722C11.0056 4.46439 10.7321 3.83939 10.7321 3.0972C10.7321 2.25735 11.0666 1.564 11.7355 1.01712C12.4094 0.465363 13.2834 0.189484 14.3576 0.189484C15.09 0.189484 15.7419 0.331085 16.3132 0.614288C16.8893 0.897491 17.3337 1.28812 17.6462 1.78616C17.9636 2.28421 18.1223 2.82864 18.1223 3.41946H16.7087C16.7087 2.77493 16.5036 2.26956 16.0934 1.90335C15.6833 1.53226 15.1047 1.34671 14.3576 1.34671C13.6642 1.34671 13.1223 1.50052 12.7316 1.80814C12.3459 2.11087 12.153 2.53323 12.153 3.07523C12.153 3.5098 12.3361 3.87845 12.7023 4.18118C13.0734 4.47903 13.7009 4.75247 14.5847 5.0015C15.4733 5.25052 16.1667 5.5264 16.6647 5.82913C17.1677 6.12698 17.5388 6.4761 17.778 6.8765C18.0222 7.27689 18.1442 7.74808 18.1442 8.29007C18.1442 9.15433 17.8073 9.84769 17.1335 10.3701C16.4597 10.8877 15.5588 11.1465 14.4308 11.1465C13.6984 11.1465 13.0148 11.0074 12.3801 10.729C11.7453 10.4458 11.2546 10.0601 10.9079 9.57181C10.5661 9.08353 10.3952 8.52933 10.3952 7.90921H11.8088C11.8088 8.55374 12.0456 9.064 12.5192 9.43997C12.9977 9.81107 13.6349 9.99661 14.4308 9.99661C15.173 9.99661 15.7419 9.84525 16.1374 9.54251C16.5329 9.23978 16.7307 8.82718 16.7307 8.30472C16.7307 7.78226 16.5475 7.37943 16.1813 7.09622C15.8151 6.80814 15.1511 6.52493 14.1891 6.24661Z" fill="#D41367"/>
</svg>
