<svg width="21" height="18" viewBox="0 0 21 18" fill="none" xmlns="http://www.w3.org/2000/svg">
<path fill-rule="evenodd" clip-rule="evenodd" d="M6.98317 5.97797C7.29241 6.01352 7.46115 6.39407 7.24498 6.64567C5.23526 8.74157 3.21329 10.8256 1.21621 12.9338C0.661369 13.5349 0.677374 14.5573 1.26324 15.1395C1.84001 15.6988 2.42015 16.2545 3.00364 16.8065C3.60136 17.358 4.61166 17.3612 5.21076 16.7593C7.23708 14.6703 9.25174 12.5698 11.2532 10.4569C11.8112 9.85282 11.8003 8.82689 11.1903 8.23601C11.1903 8.23601 11.0611 8.07803 11.071 7.92636C11.0923 7.60169 11.5219 7.42534 11.8416 7.77192C12.6369 8.63414 12.6727 10.0847 11.8305 10.9965C9.82457 13.1141 7.80556 15.2191 5.77469 17.3128C4.91259 18.179 3.40574 18.2526 2.46401 17.3835C1.38239 16.3605 0.0624632 15.4195 0.00239479 14.1218C-0.0266514 13.4917 0.209868 12.8591 0.638843 12.3944L6.67433 6.09903C6.67433 6.09903 6.84743 5.97718 6.98317 5.97797ZM16.7919 9.94269e-05C18.0832 0.0289322 19.068 1.28908 20.1279 2.31877C20.9985 3.18276 21.0639 4.71248 20.1793 5.64777L14.1631 11.9226C13.9027 12.1665 13.7899 12.0682 13.6541 11.9752C13.465 11.8454 13.4399 11.5535 13.5925 11.3762C15.602 9.2801 17.6258 7.19763 19.621 5.08809C20.1737 4.49031 20.163 3.46694 19.574 2.88219C18.6762 2.0099 17.8397 0.806824 16.7795 0.790038C16.3527 0.783126 15.9308 0.956913 15.6265 1.26242C13.6002 3.35141 11.5857 5.45186 9.58429 7.56475C9.02668 8.16885 9.03142 9.18906 9.64713 9.78586C9.64713 9.78586 9.89036 10.2239 9.57164 10.4103C8.79194 10.8667 7.73798 8.39991 9.00673 7.02542C11.0127 4.90779 13.0319 2.8026 15.0628 0.708872C15.5164 0.253275 16.1517 -0.00582511 16.7919 9.94269e-05Z" fill="#D41367"/>
</svg>
