<svg width="140" height="140" viewBox="0 0 140 140" fill="none" xmlns="http://www.w3.org/2000/svg">
<mask id="mask0" mask-type="alpha" maskUnits="userSpaceOnUse" x="0" y="0" width="140" height="140">
<path d="M139.553 69.7761C139.553 108.313 108.313 139.554 69.7765 139.554C31.24 139.554 0 108.313 0 69.7761C0 31.2404 31.24 0.000382667 69.7765 0.000382667C108.313 0.000382667 139.553 31.2404 139.553 69.7761Z" fill="#724230"/>
</mask>
<g mask="url(#mask0)">
<path d="M57.4495 111.154H84.1719V93.1507H57.4495V111.154Z" fill="#F9B095"/>
<path d="M76.9407 108.773C76.8636 108.773 76.7869 108.772 76.7104 108.772C72.3751 108.738 67.9563 107.768 63.9308 106.173C61.7229 105.296 59.3255 104.115 57.4495 102.463V93.151H84.1719V108.05C81.7964 108.47 79.35 108.773 76.9407 108.773" fill="#E4A187"/>
<path d="M100.3 59.8076C100.392 59.154 101.54 58.0873 102.041 57.7289C103.159 56.9273 104.288 57.7513 104.613 58.794C104.905 59.7273 104.933 60.7779 105.003 61.7461C105.173 64.1076 104.805 66.4264 103.707 68.5565C102.975 69.9779 101.827 71.1445 100.465 72.0273C100.465 72.0273 99.0015 72.7325 98.7108 71.1087L100.3 59.8076" fill="#F9B095"/>
<path d="M100.067 61.2269C100.132 60.7587 100.953 59.9945 101.312 59.7388C102.112 59.1655 102.92 59.7545 103.153 60.5013C103.361 61.1691 103.381 61.9201 103.432 62.6144C103.555 64.304 103.291 65.9612 102.504 67.4868C101.981 68.504 101.159 69.3388 100.185 69.9707C100.185 69.9707 99.1374 70.4759 98.9294 69.315L100.067 61.2269" fill="#DD9C83"/>
<path d="M40.6407 59.8076C40.5495 59.154 39.4016 58.0873 38.8995 57.7289C37.7818 56.9273 36.6542 57.7513 36.3271 58.794C36.036 59.7273 36.0084 60.7779 35.9386 61.7461C35.7667 64.1076 36.1366 66.4264 37.2344 68.5565C37.9672 69.9779 39.1146 71.1445 40.4746 72.0273C40.4746 72.0273 41.9402 72.7325 42.2308 71.1087L40.6407 59.8076" fill="#F9B095"/>
<path d="M40.8745 61.2269C40.8084 60.7587 39.988 59.9945 39.6287 59.7388C38.8287 59.1655 38.0213 59.7545 37.788 60.5013C37.5792 61.1691 37.5599 61.9201 37.5084 62.6144C37.3865 64.304 37.6516 65.9612 38.4375 67.4868C38.9609 68.504 39.7823 69.3388 40.7552 69.9707C40.7552 69.9707 41.8036 70.4759 42.0125 69.315L40.8745 61.2269" fill="#DD9C83"/>
<path d="M101.195 61.9342C101.195 69.3847 99.8681 76.9207 96.2414 83.3686C93.0708 89.0077 88.315 93.5222 83.2098 97.129C79.0688 100.054 74.626 103.463 69.3854 103.046C63.9208 102.613 59.6641 98.0993 55.6718 94.5779C50.0557 89.6233 45.625 83.4717 42.8953 76.2326C41.212 71.7727 40.4396 66.7369 40.4396 61.9342C40.4396 37.8462 54.0401 22.6929 70.8172 22.6929C87.5942 22.6929 101.195 37.8462 101.195 61.9342Z" fill="#F9B095"/>
<path d="M117.473 119.296L84.1719 110.586H57.4495L24.1484 119.296C24.1484 119.296 8.71413 125.011 7 143.111H70.8104H134.621C132.907 125.011 117.473 119.296 117.473 119.296" fill="#F9B095"/>
<path d="M117.473 119.296L84.1719 110.586H57.4495L24.1484 119.296C24.1484 119.296 8.71413 125.011 7 143.111H70.8104H134.621C132.907 125.011 117.473 119.296 117.473 119.296" fill="white"/>
<path d="M117.473 119.296L92.8281 112.85L70.8104 143.111L49.0308 112.789L24.1484 119.296C24.1484 119.296 8.71413 125.011 7 143.111H70.8104H134.621C132.907 125.011 117.473 119.296 117.473 119.296" fill="#062138"/>
<path d="M67.8885 127.95L61.7527 143.111H79.186L73.2057 127.95H67.8885Z" fill="#F9A72B"/>
<path d="M70.4093 110.884L62.5975 121.363L68.0271 127.992L70.686 127.95L73.3427 127.906L78.5552 121.103L70.4093 110.884" fill="#F9A72B"/>
<path d="M62.5975 121.362L70.0855 111.318C70.0849 111.318 70.0844 111.32 70.0844 111.32L62.5975 121.362" fill="#D3D2D2"/>
<path d="M68.0271 127.992L62.5975 121.363L70.0844 111.32C69.2063 113.632 67.6292 115.667 67.0421 118.109C66.438 120.618 67.6385 123.084 70.2464 123.657C70.512 123.716 70.7693 123.743 71.0199 123.743C73.1505 123.743 74.7317 121.756 75.6276 119.988C75.8964 119.454 76.1355 118.9 76.35 118.338L78.5552 121.103L73.3427 127.906L68.0271 127.992" fill="#CD8923"/>
<path d="M40.5114 58.9697C40.5114 58.9697 44.9698 31.8388 58.8781 34.5068C58.8781 34.5068 71.4532 42.3295 81.9328 34.3228C81.9328 34.3228 94.6474 33.8948 101.627 58.9697C101.627 58.9697 103.368 32.2201 84.1718 22.6935C84.1718 22.6935 66.412 14.5001 51.2136 26.6948C51.2136 26.6948 36.8161 38.0708 40.5114 58.9697" fill="#351F17"/>
<path d="M70.8104 143.111L49.0308 112.789L31.6172 117.342L53.8702 133.01L48.1546 135.532L58.4426 143.111H70.8104" fill="#001930"/>
<path d="M70.8104 143.153L92.5896 112.83L110.004 117.384L87.75 133.052L93.4667 135.573L83.1782 143.153H70.8104Z" fill="#001930"/>
<path d="M44.3438 111.224L57.4042 105.097L70.7199 110.659L84.035 105.097L97.9895 111.224L78.2584 124.437L70.7199 113.638L62.5975 124.437L44.3438 111.224" fill="#E5E4E4"/>
</g>
</svg>
