<svg width="21" height="21" viewBox="0 0 21 21" fill="none" xmlns="http://www.w3.org/2000/svg">
<path fill-rule="evenodd" clip-rule="evenodd" d="M18.3418 11.356C18.5579 11.45 18.5741 11.4875 18.5889 11.706C18.5889 13.4484 18.5945 15.1907 18.5889 16.9331C18.5694 19.022 16.7652 20.9709 14.5266 20.9919C11.0411 21.0026 7.55531 21.0028 4.06974 20.9919C1.96752 20.9718 0.0297292 19.1731 0.00836134 16.9341C-0.00278711 13.4512 -0.00278711 9.96818 0.00836134 6.48532C0.0284286 4.3779 1.82723 2.43477 4.09538 2.42753H12.3084C12.5818 2.44628 12.6342 2.54003 12.6723 2.72326C12.7172 2.93898 12.5396 3.15433 12.3084 3.17011C9.5637 3.17011 6.81914 3.16157 4.07439 3.17011C2.35455 3.18644 0.769057 4.65859 0.751591 6.48996C0.740443 9.96985 0.740443 13.4495 0.751591 16.9294C0.767943 18.6567 2.24121 20.2318 4.07439 20.2493C7.55698 20.2602 11.0396 20.2601 14.522 20.2493C16.252 20.233 17.8401 18.7129 17.8459 16.9072V11.706C17.8622 11.4661 18.0835 11.2838 18.3418 11.356ZM19.2907 5.18912e-05C20.5295 0.0245568 21.5204 1.57913 20.6995 2.75778L14.1375 12.0576C14.0926 12.1146 14.0783 12.1276 14.0171 12.1667L11.029 13.8585C10.7677 13.9873 10.4321 13.7675 10.4831 13.4547L11.215 10.1739C11.2322 10.1111 11.2391 10.0955 11.2739 10.0406L17.8358 0.740769C18.1662 0.278331 18.7095 -0.00440355 19.2907 5.18912e-05ZM19.2559 0.742447C18.9359 0.748016 18.6286 0.909155 18.4419 1.17054L11.9241 10.4078L11.3905 12.8004L13.5782 11.5617C15.7516 8.48136 17.9439 5.41416 20.0984 2.3206C20.4954 1.73508 20.0952 0.778276 19.3053 0.743189C19.2888 0.742633 19.2723 0.742447 19.2559 0.742447Z" fill="black"/>
</svg>
