<svg width="512" height="447" viewBox="0 0 512 447" fill="none" xmlns="http://www.w3.org/2000/svg">
<path d="M256 174C304.049 174 343 135.049 343 87C343 38.9512 304.049 0 256 0C207.951 0 169 38.9512 169 87C169 135.049 207.951 174 256 174Z" fill="#DC1764"/>
<path d="M432 173.999C462.376 173.999 487 149.375 487 118.999C487 88.6234 462.376 63.999 432 63.999C401.624 63.999 377 88.6234 377 118.999C377 149.375 401.624 173.999 432 173.999Z" fill="#DC1764"/>
<path d="M80 173.999C110.376 173.999 135 149.375 135 118.999C135 88.6234 110.376 63.999 80 63.999C49.6243 63.999 25 88.6234 25 118.999C25 149.375 49.6243 173.999 80 173.999Z" fill="#DC1764"/>
<path d="M134.19 223.39C112.54 205.652 92.933 208 67.9 208C30.46 208 0 238.28 0 275.49V384.7C0 400.86 13.19 414 29.41 414C99.436 414 91 415.267 91 410.98C91 333.594 81.834 276.843 134.19 223.39V223.39Z" fill="#DC1764"/>
<path d="M279.81 208.399C236.086 204.752 198.081 208.441 165.3 235.499C110.443 279.439 121 338.602 121 410.979C121 430.128 136.58 445.999 156.02 445.999C367.102 445.999 375.503 452.808 388.02 425.089C392.125 415.715 391 418.694 391 329.019C391 257.793 329.327 208.399 279.81 208.399V208.399Z" fill="#DC1764"/>
<path d="M444.1 207.999C418.93 207.999 399.431 205.675 377.81 223.389C429.775 276.445 421 329.324 421 410.979C421 415.293 413.997 413.999 481.54 413.999C498.34 413.999 512 400.389 512 383.659V275.489C512 238.279 481.54 207.999 444.1 207.999Z" fill="#DC1764"/>
</svg>
