<svg width="25" height="26" viewBox="0 0 25 26" fill="none" xmlns="http://www.w3.org/2000/svg">
<path fill-rule="evenodd" clip-rule="evenodd" d="M12.4924 0.0410767C5.59661 0.0410767 0 5.63769 0 12.5335C0 19.4293 5.59661 25.026 12.4924 25.026C19.3883 25.026 24.9849 19.4293 24.9849 12.5335C24.9849 5.63769 19.3883 0.0410767 12.4924 0.0410767ZM12.4924 11.1594C11.7304 11.1594 11.1183 11.7715 11.1183 12.5335C11.1183 13.2956 11.7304 13.9077 12.4924 13.9077C13.2545 13.9077 13.8666 13.2956 13.8666 12.5335C13.8666 11.7715 13.2545 11.1594 12.4924 11.1594ZM4.99698 20.029L15.2283 15.2694L19.9879 5.03806L9.7566 9.79768L4.99698 20.029Z" fill="#D41367"/>
</svg>
