<svg width="140" height="140" viewBox="0 0 140 140" fill="none" xmlns="http://www.w3.org/2000/svg">
<mask id="mask0" mask-type="alpha" maskUnits="userSpaceOnUse" x="0" y="0" width="140" height="140">
<path d="M139.553 69.7761C139.553 108.313 108.313 139.554 69.7773 139.554C31.24 139.554 0 108.313 0 69.7761C0 31.2404 31.24 0.000382667 69.7773 0.000382667C108.313 0.000382667 139.553 31.2404 139.553 69.7761Z" fill="#F46F3F"/>
</mask>
<g mask="url(#mask0)">
<path d="M38.8906 63.552C38.5 64.1253 37.3026 112.649 45.8293 122.584H94.092C94.092 122.584 107.273 85.3307 98.2946 63.552H38.604H38.8906" fill="#150A05"/>
<path d="M58.2346 108.229H84.9559V90.2243H58.2346V108.229Z" fill="#F9B095"/>
<path d="M77.7119 105.849C77.6399 105.849 77.5666 105.847 77.4946 105.847C73.1599 105.811 68.7413 104.843 64.7159 103.247C62.5079 102.371 60.1106 101.189 58.2346 99.5367V90.2246H84.9559V105.123C82.5759 105.545 80.1266 105.849 77.7119 105.849" fill="#E4A187"/>
<path d="M100.52 56.348C100.611 55.6854 101.736 54.6067 102.227 54.2427C103.325 53.432 104.432 54.2654 104.751 55.3214C105.037 56.2667 105.064 57.3307 105.133 58.3107C105.303 60.7014 104.939 63.048 103.861 65.204C103.143 66.6427 102.017 67.8254 100.683 68.7174C100.683 68.7174 99.2453 69.432 98.96 67.7894L100.52 56.348" fill="#F9B095"/>
<path d="M100.292 57.7842C100.356 57.3095 101.161 56.5389 101.512 56.2776C102.299 55.6976 103.089 56.2935 103.32 57.0495C103.525 57.7255 103.544 58.4869 103.593 59.1882C103.712 60.8989 103.452 62.5775 102.683 64.1215C102.168 65.1509 101.361 65.9976 100.408 66.6362C100.408 66.6362 99.38 67.1456 99.1747 65.9709L100.292 57.7842" fill="#DD9C83"/>
<path d="M41.992 56.348C41.9013 55.6854 40.776 54.6067 40.284 54.2427C39.188 53.432 38.0827 54.2654 37.7613 55.3214C37.4733 56.2667 37.4467 57.3307 37.3787 58.3107C37.212 60.7014 37.5733 63.048 38.6493 65.204C39.368 66.6427 40.4947 67.8254 41.8293 68.7174C41.8293 68.7174 43.2666 69.432 43.552 67.7894L41.992 56.348Z" fill="#F9B095"/>
<path d="M42.22 57.7842C42.156 57.3095 41.352 56.5389 40.9987 56.2776C40.2133 55.6976 39.4213 56.2935 39.1933 57.0495C38.988 57.7255 38.9707 58.4869 38.9173 59.1882C38.8 60.8989 39.0587 62.5775 39.8293 64.1215C40.344 65.1509 41.1493 65.9976 42.1053 66.6362C42.1053 66.6362 43.1333 67.1456 43.3387 65.9709L42.22 57.7842" fill="#DD9C83"/>
<path d="M101.397 58.5C101.397 66.044 100.096 73.672 96.5373 80.2C93.428 85.908 88.7627 90.4787 83.7533 94.1307C79.6907 97.092 75.332 100.541 70.192 100.121C64.8293 99.68 60.6533 95.112 56.7373 91.5467C51.228 86.532 46.8813 80.304 44.204 72.976C42.5533 68.46 41.7933 63.3627 41.7933 58.5C41.7933 34.1147 55.136 18.776 71.5947 18.776C88.0547 18.776 101.397 34.1147 101.397 58.5" fill="#F9B095"/>
<path d="M112.252 116.37L83.2373 107.662H59.956L30.94 116.37C30.94 116.37 17.4933 122.087 16 140.186H71.5947H127.192C125.699 122.087 112.252 116.37 112.252 116.37" fill="#F9B095"/>
<path d="M112.252 116.37L96.2067 111.555L71.5947 136.147L46.9133 111.576L30.94 116.37C30.94 116.37 17.4933 122.087 16 140.186H71.5947H127.192C125.699 122.087 112.252 116.37 112.252 116.37" fill="#ED3947"/>
<path d="M51.3706 28.4614C51.3706 28.4614 65.7226 51.2227 101.304 55.0947C101.304 55.0947 108.037 29.1654 83.0119 16.5574C83.0119 16.5574 63.8599 8.65339 51.3706 28.4614" fill="#351F17"/>
<path d="M55.0493 33.0652C55.0493 33.0652 45.7826 39.0612 41.7586 55.7959C41.7586 55.7959 37.4466 24.2626 59.752 20.3239L55.0493 33.0652Z" fill="#351F17"/>
<path d="M91.4173 52.472C91.4173 52.472 100.969 113.223 85.8773 130.416C85.8773 130.416 105.172 127.551 106.127 100.996C106.127 100.996 109.565 46.7414 96.508 28.0174L91.4173 52.472" fill="#351F17"/>
<path d="M50.5879 130.416C50.5879 130.416 28.3746 127.783 34.4879 59.4654C34.4879 59.4654 36.016 21.524 58.2346 20.6507L56.9493 35.0467C56.9493 35.0467 44.18 38.8494 45.8293 68.872C45.8293 68.872 44.5293 117.235 50.5879 130.416" fill="#351F17"/>
</g>
</svg>
