<svg width="1683" height="640" viewBox="0 0 1683 640" fill="none" xmlns="http://www.w3.org/2000/svg">
<path d="M838.953 517.196C762.967 515.176 527.516 507.824 384.756 494.713C120.045 470.324 -96.8991 500.742 44.7153 541.376C84.2695 552.737 -31.2703 615.469 249.054 634.286C495.113 650.802 746.542 627.247 868.213 617.343C989.884 607.44 1046.21 587.446 1072.42 578.438C1095.43 570.514 1104.57 524.246 838.953 517.196Z" fill="#F0F0F0"/>
<path d="M247.298 505.971C247.298 505.971 251.785 512.476 255.08 506.385C262.69 492.367 273.998 457.731 274.372 441.965C274.92 419.358 271.087 403.639 271.087 403.639L247 395.78L247.298 505.971Z" fill="#B91819"/>
<path d="M248.095 292.18L247 395.771L268.896 407.857C277.469 390.255 282.494 371.137 283.683 351.594C284.384 338.201 284.72 308.157 277.226 297.944C267.08 284.1 248.095 292.18 248.095 292.18Z" fill="#B91819"/>
<path d="M256.079 292.18L259.662 328.036L269.395 366.929L279.752 403.284L316.742 504.166L327.512 505.04C327.512 505.04 326.148 429.292 313.014 407.214C306.058 395.521 306.068 369.58 302.859 341.651C302.273 336.616 305.126 325.25 304.665 320.658C303.401 309.399 299.597 298.574 293.539 289L256.079 292.18Z" fill="#D22C2D"/>
<path d="M1412.25 521.627C1358.73 518.159 1058.46 537.565 1118.66 576.377C1178.86 615.188 1401.01 641.062 1370.21 600.957C1339.41 560.852 1719.22 589.313 1679.08 554.384C1638.94 519.454 1412.25 521.627 1412.25 521.627Z" fill="#F0F0F0"/>
<path d="M1282.25 241.884C1282.25 241.884 1293.25 220.736 1294.96 212.974C1296.66 205.212 1302.57 166.11 1302.06 163.612C1301.54 161.114 1292.22 155.036 1293.37 152.897C1294.52 150.758 1303.42 150.754 1305.46 150.937C1307.5 151.121 1311.58 152.305 1313.35 153.753C1315.11 155.201 1311.37 202.049 1310.26 212.138C1309.15 222.226 1295.49 253.29 1295.49 253.29L1282.25 241.884Z" fill="#E9D6B8"/>
<path d="M1302.1 152.862C1301.86 153.015 1300.93 153.286 1300.72 153.485L1299.03 154.016C1299.03 154.016 1303.37 153.905 1305.94 156.659C1304.97 155.111 1303.66 153.811 1302.1 152.862Z" fill="#F47257"/>
<path d="M1401.68 159.789C1403.38 158.49 1404.25 155.232 1404.62 153.127L1405.48 150.357C1404.82 150.055 1391.9 147.603 1387.98 147.32C1387.54 148.547 1387.3 149.586 1387.39 150.262C1387.82 153.493 1390.96 174.503 1390.96 174.503L1402.16 175.241C1402.16 175.241 1400.3 162.784 1401.68 159.789Z" fill="#E9D6B8"/>
<path d="M1401.96 150.968C1401.96 150.968 1399.67 152.015 1397.09 155.109C1397.09 155.109 1390.94 150.758 1391.22 149.482C1391.6 147.79 1397.92 151.255 1397.92 151.255L1401.96 150.968Z" fill="#F47458"/>
<path d="M1456.58 458.192C1456.58 458.192 1471.65 469.053 1474.02 472.292C1477.45 476.956 1448.49 485.662 1451.65 480.218C1452.38 478.962 1454.46 474.737 1454.55 474.32C1455.03 472.093 1448.9 466.104 1448.9 466.104L1456.58 458.192Z" fill="#E9D6B8"/>
<path d="M1443.82 489.348L1454.05 474.897C1454.05 474.897 1460.44 473.415 1467 466.042C1467 466.042 1472.89 468.288 1476.52 473.162C1471.09 478.784 1465.27 484.018 1459.11 488.824C1454.69 492.509 1449.64 495.375 1444.21 497.286C1435.56 500.223 1443.82 489.348 1443.82 489.348Z" fill="#003F1C"/>
<path d="M1579.6 190.315C1579.6 190.315 1575.7 196.736 1575.27 196.347C1574.94 196.045 1577.26 192.66 1578.91 188.562C1579.34 187.507 1579.75 186.464 1580.13 185.506C1581.12 182.984 1579.9 181.686 1578.46 184.157C1577.8 185.276 1577.21 186.44 1576.7 187.641C1576.24 188.863 1575.42 189.841 1574.88 190.811C1573.8 192.721 1573.03 194.15 1572.97 194.062C1572.9 193.974 1572.43 194.181 1572.85 193.05C1573.35 191.686 1575.03 189.024 1575.62 186.965C1575.96 185.796 1576.8 183.401 1576.8 183.401C1576.8 183.401 1577.41 179.546 1577.21 179.439C1576.08 178.855 1574.94 181.38 1574.69 183.023C1574.01 183.997 1573.19 186.541 1573.19 186.541C1573.19 186.541 1570.42 191.339 1569.75 190.96C1569.47 190.804 1570.83 187.66 1571.7 184.375C1572.5 181.319 1572.84 178.118 1572.26 177.881C1571.31 177.472 1570.07 180.769 1570.07 180.769C1570.07 180.769 1569.31 183.126 1569.02 183.89C1568.65 184.784 1567.38 187.385 1567.38 187.385C1567.38 187.385 1562.41 196.171 1561.8 195.789C1561.19 195.407 1560.24 193.741 1560.36 193.092C1560.48 192.443 1561.3 191.35 1561.42 190.697C1561.54 190.044 1561.14 189.104 1560.38 188.913C1559.62 188.722 1557.87 191.671 1557.87 191.671C1557.87 191.671 1556.48 194.078 1556.44 196.003C1556.31 202.665 1557.4 202.401 1557.36 203.261C1557.32 204.269 1549.6 215.397 1549.6 215.397L1549.45 215.569L1558.62 222.231C1561.68 217.265 1564.06 213.372 1564.74 212.154C1564.74 212.154 1569.32 208.227 1572.14 205.66C1574.96 203.093 1576.53 199.407 1577.22 198.562C1578.81 196.265 1580.13 193.786 1581.13 191.178C1582.63 187.419 1579.6 190.315 1579.6 190.315Z" fill="#E9D6B8"/>
<path d="M1479.6 346.953L1477.22 358.738L1417.31 413.207L1460.2 456.591L1448.61 468.433C1448.61 468.433 1385.28 421.94 1383 415.851C1379.48 406.457 1428.39 344.325 1428.39 344.325L1479.6 346.953Z" fill="#005F2B"/>
<path d="M1523.74 490.769C1523.74 490.769 1538.8 501.629 1541.17 504.868C1544.61 509.532 1515.65 518.261 1518.81 512.798C1519.54 511.542 1521.62 507.313 1521.71 506.897C1522.19 504.673 1516.06 498.68 1516.06 498.68L1523.74 490.769Z" fill="#E9D6B8"/>
<path d="M1510.97 521.982L1521.21 507.531C1521.21 507.531 1528 506.308 1534.56 498.936C1534.56 498.936 1540.04 500.922 1543.67 505.792C1538.24 511.421 1532.43 516.663 1526.27 521.477C1521.84 525.16 1516.79 528.024 1511.36 529.935C1502.71 532.853 1510.97 521.982 1510.97 521.982Z" fill="#003F1C"/>
<path d="M1477.57 352.057L1478.51 429.477L1526.09 489.153L1514.89 501.595C1514.89 501.595 1455.96 452.619 1449.51 438.565C1445.5 429.847 1430.92 347.396 1430.92 347.396L1477.57 352.057Z" fill="#005F2B"/>
<path d="M1429.25 345.956C1434.12 334.962 1433.55 256.155 1452.52 237.693C1459.19 238.839 1463.95 239.451 1465.06 239.745C1466.05 247.862 1467.14 277.654 1467.81 304.956C1468.26 323.147 1467.81 342.22 1470.04 352.278C1471.42 358.508 1424.8 355.995 1429.25 345.956Z" fill="#00B450"/>
<path d="M1448.12 242.309C1448.12 242.309 1440.43 264.205 1434.09 261.05C1427.75 257.895 1392.16 221.639 1391.81 219.874C1391.46 218.109 1389 173.603 1389 173.603L1403.07 170.795L1411.17 207.253C1411.17 207.253 1437.21 232.144 1442.5 234.597C1444.02 235.296 1445.33 236.372 1446.32 237.722C1447.3 239.072 1447.92 240.651 1448.12 242.309Z" fill="#029443"/>
<path d="M1427.34 351.224C1423.08 351.224 1421.51 350.635 1418.67 349.78C1418.67 349.78 1421.73 305.621 1430.8 258.719C1434.24 241.036 1435.09 233.465 1442.49 234.76C1444.62 235.142 1450.41 237.338 1452.52 237.693C1433.94 290.234 1433.88 330.672 1431.25 342.399C1429.93 348.282 1428.78 351.262 1427.34 351.224Z" fill="#017937"/>
<path d="M1454.48 229.756L1452.53 237.683C1452.53 237.683 1452.09 244.593 1455.3 245.216C1459.17 245.98 1464.92 240.177 1464.92 240.177L1468.25 217.792L1454.48 229.756Z" fill="#E9D6B8"/>
<path d="M1454.72 229.999L1452.78 237.926C1452.78 237.926 1452.33 244.836 1455.54 245.459C1459.41 246.223 1465.16 240.42 1465.16 240.42L1468.49 218.035L1454.72 229.999Z" fill="#E9D6B8"/>
<path d="M1468.21 217.902L1454.48 229.744L1453.02 235.677C1458.28 234.424 1465.76 228.648 1468.21 217.902Z" fill="#DFCAA8"/>
<path d="M1454.42 197.309C1451.09 197.309 1448.11 199.601 1446.94 202.916C1445.62 206.655 1444.61 210.499 1443.94 214.407C1442.49 223.017 1447.38 230.898 1451.66 231.524C1455.93 232.151 1466.09 229.328 1468.34 217.134C1469.3 211.909 1470.57 205.052 1466.27 201.449C1462.94 198.646 1458.24 197.32 1454.42 197.309Z" fill="#E9D6B8"/>
<path d="M1466.97 226.429C1466.97 226.429 1482.01 213.028 1482.66 202.557C1483.32 192.087 1473.65 186.483 1465.38 186.189C1462 186.059 1458.61 186.234 1455.26 186.712C1446.97 187.755 1441.6 191.43 1443.49 198.214C1446.03 207.325 1463.22 199.639 1466.74 202.466C1469.64 204.8 1464.94 210.411 1467.76 212.554C1470.41 214.568 1469.06 213.884 1468.18 217.711C1467.59 220.588 1467.18 223.5 1466.97 226.429V226.429Z" fill="#2A425B"/>
<path d="M1472.76 214.289C1472.38 216.794 1470.85 218.647 1469.32 218.426C1467.79 218.204 1466.87 215.985 1467.24 213.46C1467.62 210.935 1469.15 209.101 1470.68 209.326C1472.21 209.552 1473.14 211.779 1472.76 214.289Z" fill="#E9D6B8"/>
<path d="M1404.27 146.743C1402.92 144.382 1400.91 146.808 1402.21 149.876C1402.24 149.993 1402.24 150.117 1402.21 150.235C1401.87 151.041 1398.74 153.535 1398.74 153.535C1398.74 153.535 1401.25 160.545 1402.66 158.704C1404.07 156.862 1405.14 150.888 1405.14 150.888L1404.27 146.743Z" fill="#E9D6B8"/>
<path d="M1562.83 218.44L1552.58 208.306C1552.58 208.306 1533.12 236.226 1523.25 241.07C1513.66 245.78 1481.7 244.069 1480.58 243.813C1476.76 242.938 1464.97 239.718 1464.97 239.718C1464.97 239.718 1455.1 324.445 1467.96 353.905C1472.16 363.512 1498.26 357.141 1498.26 357.141C1498.26 357.141 1490.2 321.863 1489.78 317.244C1489.36 312.829 1487.12 277.841 1487.48 277.482C1488.42 276.542 1524.05 268.776 1533.82 261.362C1544.14 253.527 1562.83 218.44 1562.83 218.44Z" fill="#027937"/>
<path d="M1300.18 157.526L1299.47 154.669C1297.71 154.673 1295.96 154.397 1294.3 153.852L1291.28 151.632C1290.65 151.357 1289.76 152.049 1289.76 152.74C1289.76 153.431 1290.61 154.73 1291.04 155.07C1291.04 155.07 1296.42 159.505 1298.3 160.85C1299.24 161.518 1302.19 163.318 1302.19 163.318L1303.9 160.105L1300.18 157.526Z" fill="#E9D6B8"/>
<path d="M1186.94 296.895C1204.52 315.197 1219.94 298.981 1219.18 299.252C1219.78 298.996 1223.63 299.015 1226.14 298.916C1236.61 298.503 1246.14 291.012 1250.3 281.073C1265.97 279.022 1276.2 264.555 1271.62 252.041C1278.54 243.427 1276.4 229.675 1269.85 220.866C1268.33 206.434 1249.47 203.989 1236.48 209.047C1229.9 211.61 1224.29 217.149 1221.41 223.868C1208.89 223.567 1198.21 232.769 1195.42 245.581C1175.95 251.006 1169.01 278.212 1186.94 296.895Z" fill="#2A425B"/>
<path d="M1299.81 474.243C1298.55 480.913 1296.76 487.469 1294.44 493.847C1294.23 494.336 1292.27 496.139 1292.05 496.64C1293.1 508.692 1300.78 515.847 1308 520.954C1306.43 514.873 1302.95 507.901 1303.41 506.549C1305.94 498.215 1309.1 490.085 1312.85 482.227C1306.83 481.551 1304.7 477.903 1299.81 474.243Z" fill="#E9D6B8"/>
<path d="M1277.84 330.844L1236.16 359.295C1236.16 359.295 1256.46 372.474 1263.42 379.106C1270.38 385.737 1307.63 415.812 1308.23 417.329C1308.68 418.475 1304.79 432.719 1295.82 478.384C1299.78 482.433 1308.5 486.406 1313.67 487.704C1324.5 463.344 1336.73 412.657 1335.36 407.079C1333.23 398.427 1277.84 330.844 1277.84 330.844Z" fill="#005F2B"/>
<path d="M1172.3 388.102C1173.53 389.298 1181.66 405.135 1184.76 413.616C1189.29 410.762 1192.02 407.366 1197.09 405.449C1193.1 399.669 1185.31 385.768 1184.67 382.46C1183.14 374.61 1181.36 373.452 1181.36 373.452C1181.36 373.452 1155.04 382.357 1153.29 384.851C1151.53 387.346 1167.38 383.308 1172.3 388.102Z" fill="#E9D6B8"/>
<path d="M1184.98 384.201C1187.02 384.201 1184.8 374.98 1184.33 372.852C1183.8 370.461 1182.42 369.746 1182.07 369.662C1181.14 369.429 1151.88 379.323 1146.94 382.88C1146.55 383.223 1146.2 383.617 1145.91 384.052C1143.2 389.099 1167.31 390.061 1170.79 387.872C1173.88 385.89 1175.79 384.175 1184.98 384.201Z" fill="#003F1C"/>
<path d="M1285.42 339.745C1285.42 339.745 1250.1 325.844 1249.65 327.322C1245.99 339.095 1234.61 335.298 1227.86 356.033C1225.04 364.716 1222.81 387.64 1220.9 404.639C1219.59 416.32 1217.76 425.683 1217.76 425.683C1217.76 425.683 1209.59 413.597 1194.2 396.269C1193.01 394.928 1180.58 406.736 1180.58 406.736C1205.09 455.315 1222.97 462.183 1226.87 460.862C1244.58 454.88 1268.06 373.448 1268.02 373.456C1270.89 367.845 1285.42 339.745 1285.42 339.745Z" fill="#005F2B"/>
<path d="M1230.92 257.439C1230.92 257.439 1188.76 257.385 1179.74 256.866C1171.57 256.392 1139.17 257.217 1137.9 257.072C1136.64 256.927 1128.26 242.747 1126.87 244.267C1125.48 245.788 1131.53 251.3 1129.66 252.729C1127.78 254.157 1107.68 250.956 1107.95 252.442C1108.44 255.223 1120.18 254.868 1120.18 256.213C1120.18 257.557 1107.9 255.449 1107.06 257.687C1106.23 259.926 1118.87 258.596 1119.37 259.597C1119.87 260.598 1107.65 262.412 1108.91 264.483C1109.58 265.629 1119.73 262.603 1119.68 264.139C1119.63 265.675 1112.23 269.162 1113.14 270.385C1114.05 271.607 1118.95 266.633 1123.24 266.565C1127.54 266.496 1130.62 264.273 1137.47 266.145C1140.86 267.073 1166.71 270.232 1188.55 272.096C1210.94 274.006 1229.29 274.617 1229.29 274.617L1230.92 257.439Z" fill="#E9D6B8"/>
<path d="M1293.43 294.898C1293.99 288.133 1292.66 275.252 1292.35 273.009C1294.4 265.98 1298.76 250.987 1300.32 248.042C1300.32 248.042 1292.98 233.942 1285.47 234.038C1285.47 234.038 1277.79 251.327 1271.86 254.421C1271.78 254.398 1269.76 255.315 1268.88 255.311C1263.14 255.269 1243.13 254.662 1239.4 254.597L1241.5 282.983C1249.39 303.89 1247.95 322.398 1246.56 328.823C1245.79 332.406 1280.54 343.171 1285.88 339.737C1286.09 339.619 1292.3 308.577 1293.43 294.898Z" fill="#017937"/>
<path d="M1249.57 255.674C1245.87 253.909 1219.16 254.792 1219.16 254.792C1219.16 254.792 1215.43 273.391 1218.44 277.861C1218.44 277.861 1242.33 281.414 1241.65 283.373L1249.57 255.674Z" fill="#017937"/>
<path d="M1254.22 242.66C1254.22 242.66 1257 252.427 1257.5 256.648C1258 260.869 1264.44 274.022 1273.2 272.142C1281.96 270.263 1272.82 257.981 1271.11 254.112C1269.4 250.242 1264.76 234.63 1264.76 234.63L1254.22 242.66Z" fill="#E9D6B8"/>
<path d="M1266.7 241.024C1265.6 237.46 1264.76 234.614 1264.76 234.614L1254.22 242.659C1254.22 242.659 1254.74 244.455 1255.37 246.838C1260.92 247.595 1264.73 244.932 1266.7 241.024Z" fill="#DFCAA8"/>
<path d="M1246.59 213.406C1243.61 215.32 1241.41 218.235 1240.39 221.627C1238.77 227.215 1240.91 241.54 1252.92 244.833C1264.93 248.126 1269.94 236.681 1267.35 227.826C1264.75 218.972 1259.23 207.798 1246.59 213.406Z" fill="#E9D6B8"/>
<path d="M1268.81 224.35C1268.61 226.742 1267.32 228.583 1265.93 228.468C1264.53 228.354 1263.57 226.321 1263.77 223.93C1263.97 221.539 1265.26 219.694 1266.65 219.812C1268.05 219.93 1268.99 221.97 1268.81 224.35Z" fill="#E9D6B8"/>
<path d="M1294.35 494.142C1293.58 492.232 1285.96 498.29 1284.17 499.517C1282.14 500.896 1281.99 502.447 1282.04 502.798C1282.17 503.726 1301.58 527.628 1307.26 530.921C1307.89 531.191 1308.59 531.257 1309.26 531.112C1312.41 529.897 1307.28 510.35 1303.14 506.488C1300.46 503.994 1297.74 502.672 1294.35 494.142Z" fill="#003F1C"/>
<path d="M1247.98 212.657C1247.98 212.657 1246.05 228.701 1240.91 231.669C1235.77 234.638 1238.04 241.708 1238.04 241.708C1238.04 241.708 1233.1 225.282 1237.12 219.934C1241.14 214.586 1247.98 212.657 1247.98 212.657Z" fill="#2A425B"/>
<path d="M1244.01 233.927C1245.45 235.99 1245.48 238.454 1244.08 239.42C1242.68 240.387 1240.39 239.504 1238.95 237.438C1237.51 235.371 1237.49 232.911 1238.88 231.94C1240.28 230.97 1242.58 231.86 1244.01 233.927Z" fill="#E9D6B8"/>
<path d="M259.766 203.206C259.766 203.206 269.617 211.426 246.79 239.932C223.963 268.438 218.155 261.839 218.155 261.839L209.469 257.666L199.714 230.852L212.005 226.132L213.636 227.564C213.636 227.564 216.407 227.453 217.498 225.319C218.59 223.184 226.399 215.429 236.705 197.547C241.426 189.294 257.88 201.642 259.766 203.206Z" fill="#D05556"/>
<path d="M259.766 203.206C258.303 201.954 250.965 200.477 251.907 201.277C251.907 201.277 261.765 209.489 238.938 237.995C226.194 253.909 218.755 258.874 214.667 260.167L218.16 261.874C218.16 261.874 223.961 268.482 246.794 239.967C269.628 211.453 259.766 203.206 259.766 203.206Z" fill="#CE3031"/>
<path d="M202.04 232.135C202.04 232.135 175.452 235.351 169.486 208.041C167.7 199.919 166.715 208.151 166.361 216.193C166.008 224.235 173.936 245.645 189.351 252.544C204.766 259.443 211.118 260.776 216.086 256.395C221.053 252.013 202.04 232.135 202.04 232.135Z" fill="#E9D6B8"/>
<path d="M248.592 292.963L294.681 289.219L304.587 224.378C304.587 224.378 311.392 185.055 288.213 187.803C265.035 190.551 238.403 194.256 238.403 194.256C238.403 194.256 221.531 228.729 248.592 292.963Z" fill="#D05557"/>
<path d="M364.215 232.449L403.256 212.47C403.256 212.47 407.851 214.502 404.824 216.125C404.46 216.324 403.78 214.818 402.51 216.255C397.407 222.14 388.364 236.61 381.481 241.192C375.527 245.055 369.174 248.266 362.531 250.767L364.215 232.449Z" fill="#E9D6B8"/>
<path d="M261.97 199.706C261.97 199.706 266.506 238.077 248.122 272.957C246.677 275.701 240.059 276.077 240.059 276.077L239.49 267.493C239.49 267.493 257.292 230.921 261.97 199.706Z" fill="#7DCCD0"/>
<path d="M262.544 198.858L264.725 206.416L276.204 192.032L275.117 189.735L262.544 198.858Z" fill="#CE3031"/>
<path d="M223.175 233.999L218.856 228.244L216.986 226.035C216.08 226.95 214.866 227.498 213.58 227.571L217.599 231.259L221.543 236.471L224.53 244.84L223.175 233.999Z" fill="#CE3031"/>
<path d="M322.596 204.65L362.359 228.968L362.938 232.501L366.2 231.352L365.386 250.472L349.564 255.504L295.85 221.201C295.85 221.201 285.404 210.208 287.4 191.236C288.861 177.493 319.257 202.793 322.596 204.65Z" fill="#D05556"/>
<path d="M355.155 249.381C355.155 249.381 360.25 237.327 362.684 230.954L362.936 232.487L366.198 231.337L365.859 237.948L364.037 247.279L360.282 247.98L360.201 245.105L355.155 249.381Z" fill="#CE3031"/>
<path d="M276.273 180.55C276.129 183.441 275.73 186.314 275.081 189.134C274.051 192.726 261.588 198.89 259.647 199.657C257.705 200.423 258.735 189.45 258.397 187.034C258.156 185.196 259.415 185.602 257.615 183.153L276.273 180.55Z" fill="#E9D6B8"/>
<path d="M253.197 178.291C253.187 178.794 253.276 179.295 253.46 179.763C253.643 180.232 253.917 180.659 254.267 181.022C254.616 181.384 255.033 181.674 255.494 181.875C255.955 182.076 256.452 182.184 256.955 182.193L274.175 182.55C274.678 182.559 275.178 182.47 275.646 182.287C276.114 182.104 276.541 181.831 276.904 181.482C277.266 181.134 277.557 180.718 277.758 180.257C277.96 179.797 278.068 179.301 278.078 178.798L278.603 153.279C278.613 152.776 278.524 152.277 278.341 151.809C278.158 151.34 277.884 150.913 277.536 150.55C277.187 150.188 276.771 149.898 276.31 149.696C275.85 149.495 275.354 149.386 274.852 149.376L257.632 149.027C256.617 149.007 255.636 149.389 254.903 150.091C254.169 150.793 253.745 151.757 253.721 152.772L253.197 178.291Z" fill="#E9D6B8"/>
<path d="M253.574 158.037C253.574 158.037 251.31 155.519 250.922 153.99C250.721 153.222 251.522 150.303 253.463 149.255C255.403 148.207 256.953 150.284 256.953 150.284C256.953 150.284 253.863 151.923 253.686 152.56C253.51 153.196 253.574 158.037 253.574 158.037Z" fill="#163F59"/>
<path d="M280.121 164.813C280.121 164.813 282.928 155.065 282.506 152.176C282.085 149.287 281.809 147.295 278.309 146.909C273.066 146.319 272.981 147.434 270.461 145.773C267.942 144.111 263.431 140.2 261.861 139.777C259.237 139.082 255.105 139.876 254.844 144.824C254.859 145.743 254.642 146.65 254.214 147.463C253.786 148.276 253.16 148.968 252.394 149.475C252.59 149.925 253.542 150.363 255.201 151.236C259.929 153.726 262.813 154.258 266.477 153.366C270.141 152.475 277.039 150.54 277.78 153.278C278.521 156.017 278.032 164.293 278.334 164.939C278.635 165.585 279.473 165.266 280.121 164.813Z" fill="#194866"/>
<path d="M274.541 172.341C274.541 172.674 274.671 172.994 274.903 173.233C275.135 173.472 275.451 173.611 275.784 173.621L279.51 173.696C279.845 173.697 280.167 173.567 280.406 173.333C280.645 173.099 280.783 172.78 280.789 172.446L280.929 165.637C280.929 165.304 280.8 164.984 280.567 164.745C280.335 164.506 280.019 164.367 279.686 164.357L275.96 164.282C275.626 164.282 275.305 164.413 275.066 164.647C274.827 164.88 274.689 165.198 274.681 165.532L274.541 172.341Z" fill="#E9D6B8"/>
<path d="M252.351 171.892C252.349 172.227 252.479 172.549 252.713 172.788C252.947 173.028 253.266 173.166 253.601 173.172L257.32 173.247C257.654 173.249 257.976 173.119 258.216 172.885C258.455 172.651 258.593 172.332 258.599 171.997L258.733 165.197C258.733 164.864 258.603 164.544 258.371 164.305C258.139 164.066 257.823 163.926 257.49 163.917L253.764 163.842C253.43 163.844 253.11 163.975 252.872 164.209C252.633 164.442 252.494 164.758 252.484 165.092L252.351 171.892Z" fill="#E9D6B8"/>
<path d="M278.43 166.996C278.43 166.996 278.224 177.046 278.151 180.397C278.093 183.421 276.752 190.04 259.641 189.698C249.511 189.489 250.045 182.051 250.086 179.607C250.131 177.747 252.35 172.217 253.439 171.165L253.355 175.311C254.083 174.109 255.111 173.118 256.339 172.435C257.567 171.751 258.951 171.399 260.356 171.414C268.119 171.573 269.794 176.152 273.242 176.14C275.854 176.137 277.916 171.884 278.43 166.996Z" fill="#194866"/>
<path d="M263.414 178.07L258.104 177.965C257.769 177.959 257.45 177.821 257.216 177.582C256.982 177.342 256.852 177.02 256.854 176.685L256.874 175.961L264.74 176.129L264.719 176.853C264.705 177.186 264.56 177.501 264.316 177.728C264.071 177.956 263.748 178.079 263.414 178.07Z" fill="#E9D6B8"/>
<path d="M170.527 212.624C170.527 212.624 171.852 203.791 170.253 201.836C168.655 199.881 162.4 193.224 162.4 193.224L160.659 191.67C160.659 191.67 158.042 192.735 162.304 197.227C166.565 201.72 163.4 200.692 163.4 200.692L158.154 198.211L151.504 195.705L148.686 194.191C148.686 194.191 147.114 193.207 146.593 193.304C145.007 193.591 145.82 194.783 145.82 194.783L156.346 201.652L145.054 198.08C145.054 198.08 143.542 197.889 143.179 198.636C142.815 199.384 143.297 199.537 143.297 199.537L155.222 206.735L149.236 205.6C149.236 205.6 147.772 205.445 147.369 206.169C146.966 206.893 146.777 207.156 146.777 207.156L169.353 214.907L170.527 212.624Z" fill="#E9D6B8"/>
<path d="M155.102 203.561L147.054 201.563C147.054 201.563 145.293 200.898 144.314 201.142C144.166 201.168 144.024 201.223 143.897 201.304C143.77 201.386 143.66 201.492 143.574 201.616C143.488 201.74 143.428 201.879 143.397 202.027C143.366 202.175 143.364 202.327 143.392 202.475L155.276 206.763L155.102 203.561Z" fill="#E9D6B8"/>
<path d="M398.786 217.738C398.786 217.738 395.814 209.317 397.011 207.111C398.209 204.905 403.09 197.165 403.09 197.165L404.507 195.312C404.507 195.312 407.28 195.88 403.945 201.043C400.609 206.207 403.523 204.656 403.523 204.656L408.205 201.228L414.267 197.548L416.752 195.527C416.752 195.527 418.08 194.263 418.635 194.255C420.242 194.239 419.672 195.562 419.672 195.562L410.635 204.302L421.028 198.697C421.028 198.697 422.466 198.22 422.965 198.891C423.465 199.561 423.011 199.787 423.011 199.787L412.687 209.113L418.354 206.877C418.354 206.877 419.783 206.437 420.299 207.069C420.815 207.701 421.026 207.934 421.026 207.934L400.288 219.786L398.786 217.738Z" fill="#E9D6B8"/>
<path d="M412.216 205.905L419.748 202.421C419.748 202.421 421.351 201.439 422.361 201.488C422.512 201.486 422.662 201.514 422.802 201.57C422.942 201.626 423.07 201.71 423.178 201.816C423.286 201.922 423.371 202.048 423.43 202.187C423.489 202.327 423.519 202.476 423.52 202.627L412.657 209.102L412.216 205.905Z" fill="#E9D6B8"/>
<path d="M257.682 194.458L256.759 204.819L261.927 198.939L257.682 194.458Z" fill="#CE3031"/>
<path d="M254.657 507.783L253.178 515.882H249.335C249.335 515.882 248.893 514.739 248.23 514.739C247.567 514.739 246.943 515.882 246.174 515.882H226.142C226.142 515.882 225.777 514.182 226.219 513.595C226.953 513.089 227.773 512.721 228.64 512.51C232.704 511.309 244.348 507.562 246.376 503.479C248.806 498.473 254.657 507.783 254.657 507.783Z" fill="#163F59"/>
<path d="M307.296 512.707C306.729 513.466 307.151 515.465 307.151 515.465C307.151 515.465 317.124 516.714 320.324 515.897C321.58 515.443 322.775 514.833 323.879 514.081C324.109 513.937 324.493 513.12 324.714 512.957C325.118 512.698 325.329 513.14 325.675 512.899C326.212 512.561 326.72 512.179 327.193 511.756C328.048 506.75 326.886 504.723 326.886 504.723C326.886 504.723 318.393 501.601 316.807 503.762C313.07 508.816 308.545 511.055 307.296 512.707Z" fill="#163F59"/>
<path d="M562.262 481.32L556.984 509.995L538.803 514.684L529.127 514.982C529.127 514.982 546.86 507.365 550.352 503.451C555.63 497.522 554.169 473.992 554.169 473.992L562.262 481.32Z" fill="#E9D6B8"/>
<path d="M557.273 514.684L553.456 514.983L551.406 512.344L535.274 517.112L525 517.921C525.358 517.145 525.826 516.425 526.39 515.784C528.272 514.262 535.705 511.465 535.705 511.465C535.705 511.465 535.564 513.813 536.734 514.103C537.904 514.394 549.049 511.315 551.688 510.286C556.235 508.527 557.282 507.102 557.555 507.357C558.294 508.017 557.273 514.684 557.273 514.684Z" fill="#161711"/>
<path d="M571.137 296.881L561.831 392.979L551.275 484.926L565.349 486.686C565.349 486.686 582.731 394.325 584.657 386.409C586.583 378.492 606.19 314.711 599.162 297.901C592.134 281.092 571.137 296.881 571.137 296.881Z" fill="#B91819"/>
<path d="M612.937 478.796L611.477 509.31L593.286 513.998L583.61 514.289C583.61 514.289 600.833 507.137 603.542 502.651C607.14 496.687 603.542 476.579 603.542 476.579L612.937 478.796Z" fill="#E9D6B8"/>
<path d="M611.767 513.98L607.95 514.27L605.9 511.632L591.298 515.739L578.904 516.32C578.913 515.811 579.096 515.32 579.423 514.93C581.253 513.312 590.348 510.602 590.348 510.602C590.348 510.602 589.988 513.382 591.157 513.681C592.327 513.98 603.551 510.602 606.19 509.573C610.738 507.814 611.785 506.389 612.057 506.635C612.796 507.277 611.767 513.98 611.767 513.98Z" fill="#161711"/>
<path d="M614.994 298.191L612.355 382.239C612.355 382.239 615.874 405.03 616.129 412.621C616.771 429.729 616.041 481.073 616.041 481.073L600.841 481.68C600.841 481.68 590.136 388.897 588.764 380.858C587.392 372.818 571.84 308.174 580.847 292.086C589.855 275.998 614.994 298.191 614.994 298.191Z" fill="#D22C2D"/>
<path d="M594.078 213.597C594.078 225.841 604.211 235.772 616.728 235.772C629.245 235.772 639.378 225.841 639.378 213.597C639.378 201.353 629.236 191.422 616.728 191.422C604.22 191.422 594.078 201.344 594.078 213.597Z" fill="#163F59"/>
<path d="M577.435 168.288C577.435 172.613 579.154 176.761 582.212 179.82C585.271 182.878 589.418 184.596 593.744 184.596L597.825 176.847C602.15 176.847 606.298 175.129 609.357 172.07C612.415 169.012 614.133 164.864 614.133 160.539V154.381C614.133 150.056 612.415 145.908 609.357 142.85C606.298 139.791 602.15 138.073 597.825 138.073H593.744C589.418 138.073 585.271 139.791 582.212 142.85C579.154 145.908 577.435 150.056 577.435 154.381V168.288Z" fill="#163F59"/>
<path d="M614.134 160.512V154.355C614.134 150.03 612.415 145.882 609.357 142.823C606.299 139.765 602.151 138.047 597.826 138.047H593.744C590.164 138.046 586.684 139.231 583.848 141.416C583.568 145.148 583.864 148.901 584.728 152.543C587.455 164.427 595.424 173.267 604.273 175.466C607.196 174.207 609.687 172.12 611.439 169.463C613.191 166.806 614.127 163.695 614.134 160.512Z" fill="#163F59"/>
<path d="M594.342 184.121C594.342 195.846 604.018 205.355 616.034 205.355C628.05 205.355 637.725 195.846 637.725 184.121C637.696 181.302 637.111 178.517 636.005 175.925C634.898 173.332 633.292 170.983 631.278 169.011C629.264 167.039 626.881 165.484 624.265 164.433C621.65 163.382 618.853 162.857 616.034 162.887C604.062 162.869 594.342 172.369 594.342 184.121Z" fill="#163F59"/>
<path d="M590.384 212.419C590.384 224.505 600.394 234.304 612.735 234.304C625.077 234.304 635.087 224.505 635.087 212.419C635.087 200.333 625.085 190.534 612.735 190.534C600.386 190.534 590.384 200.333 590.384 212.419Z" fill="#11374F"/>
<path d="M616.403 171.966C608.337 166.503 598.969 166.274 595.468 171.438C591.967 176.601 595.662 185.221 603.728 190.684C611.794 196.146 621.162 196.384 624.663 191.221C628.164 186.057 624.46 177.437 616.403 171.966Z" fill="#11374F"/>
<path d="M583.954 144.284C583.972 145.822 584.102 147.357 584.341 148.876C585.995 159.352 592.355 167.348 599.295 168.289C599.515 172.579 600.293 176.822 601.608 180.912C602.91 185.046 607.766 189.418 607.766 189.418C608.944 196.727 584.016 207.459 584.641 206.28C585.265 205.101 591.37 196.49 593.375 188.582C593.934 186.333 594 183.989 593.568 181.712C593.137 179.434 592.219 177.277 590.877 175.388C589.679 174.026 588.215 172.923 586.575 172.147C584.936 171.371 583.155 170.938 581.342 170.875C581.085 170.874 580.83 170.82 580.594 170.718C580.358 170.615 580.146 170.465 579.97 170.277C579.628 169.172 579.453 168.021 579.451 166.864V153.415C579.453 151.65 579.86 149.909 580.64 148.326C581.421 146.743 582.555 145.36 583.954 144.284V144.284Z" fill="#E9D6B8"/>
<path d="M578.799 294.075L567.117 297.075C567.117 297.075 574.726 263.86 576.855 250.886C578.983 237.911 578.737 233.663 578.025 229.652C577.312 225.641 575.438 220.917 578.025 216.458C580.611 211.998 584.674 204.539 586.284 203.958C588.923 203.017 591.711 201.838 593.84 199.71C595.001 198.504 578.799 294.075 578.799 294.075Z" fill="#CE3031"/>
<path d="M574.726 296.714C574.726 296.714 580.391 265.566 582.907 249.83C585.422 234.093 592.345 204.221 592.97 200.448C593.621 197.429 594.57 194.483 595.802 191.652C595.802 191.652 601.783 187.253 607.131 188.195C612.479 189.136 616.878 201.09 619.085 212.727C621.293 224.365 605.24 256.779 605.24 259.602C605.24 262.426 616.57 286.343 616.57 293.266V301.182C616.57 301.182 588.563 287.609 574.726 296.714Z" fill="#D05556"/>
<path d="M606.34 183.63L601.775 186.48L595.248 190.94L596.497 197.871L608.706 186.937L606.34 183.63Z" fill="#D0D0D0"/>
<path d="M633.933 260.192C633.933 260.192 623.703 273.827 618.338 273.29C616.577 273.104 614.829 272.811 613.104 272.41C609.445 271.707 608.706 271.751 605.829 271.355C604.75 271.169 603.66 271.048 602.566 270.994C602.566 270.994 602.566 272.648 603.674 273.088C604.783 273.527 607.131 273.791 607.958 274.143C608.785 274.495 605.874 273.906 601.511 274.258C597.993 274.548 594.506 275.137 591.087 276.017C589.943 276.333 589.785 276.404 589.785 276.465C589.785 277.002 589.829 277.486 590.357 277.583C590.885 277.679 592.477 277.583 592.38 277.627C591.28 278.149 590.139 278.578 588.967 278.911C588.492 279.025 587.841 279.157 587.445 279.298C586.645 279.579 587.014 280.556 588.413 280.952C588.413 280.952 588.738 281.638 589.161 281.778C589.372 281.849 589.53 281.91 589.75 281.972C589.97 282.033 590.287 282.042 590.533 282.104C591.453 282.311 592.388 282.444 593.33 282.5C593.7 282.5 596.963 282.28 596.963 282.5C596.963 282.5 594.394 283.08 594.447 283.274C594.544 283.713 595.037 284.25 595.485 284.215C596.365 284.136 597.57 284.057 600.992 283.626C604.765 283.151 605.557 282.746 610.395 283.344C614.608 283.863 614.204 284.734 617.194 283.582C621.205 282.042 635.798 270.721 638.508 268.953C641.217 267.185 633.933 260.192 633.933 260.192Z" fill="#E9D6B8"/>
<path d="M639.377 249.461L606.576 213.827C606.576 213.827 602.6 204.45 602.803 199.674C603.04 194.018 609.839 189.761 609.839 189.761C609.839 189.761 624.793 203.219 642.482 222.562C660.172 241.905 669.847 250.402 660.171 257.958C650.496 265.514 635.164 275.181 635.164 275.181L629.262 260.078L639.377 249.461Z" fill="#D05556"/>
<path d="M121.223 481.273L126.007 509.948L142.488 514.637L151.259 514.936C151.259 514.936 135.185 507.318 132.019 503.404C127.235 497.475 128.559 473.945 128.559 473.945L121.223 481.273Z" fill="#E9D6B8"/>
<path d="M125.745 514.637L129.206 514.936L131.063 512.297L145.687 517.065L155 517.874C154.676 517.098 154.251 516.379 153.74 515.737C152.034 514.215 145.296 511.418 145.296 511.418C145.296 511.418 145.424 513.766 144.363 514.057C143.303 514.347 133.2 511.268 130.808 510.239C126.686 508.48 125.737 507.055 125.49 507.31C124.82 507.97 125.745 514.637 125.745 514.637Z" fill="#161711"/>
<path d="M113.178 296.834L121.614 392.933L131.182 484.88L118.424 486.639C118.424 486.639 102.669 394.278 100.922 386.362C99.1762 378.445 81.4031 314.664 87.774 297.854C94.1449 281.045 113.178 296.834 113.178 296.834Z" fill="#B91819"/>
<path d="M75.2876 478.749L76.6112 509.263L93.1006 513.951L101.872 514.242C101.872 514.242 86.2592 507.09 83.8033 502.604C80.5421 496.641 83.8033 476.532 83.8033 476.532L75.2876 478.749Z" fill="#E9D6B8"/>
<path d="M76.3479 513.933L79.8083 514.224L81.6662 511.585L94.9024 515.693L106.137 516.273C106.129 515.764 105.963 515.274 105.667 514.883C104.008 513.265 95.7634 510.555 95.7634 510.555C95.7634 510.555 96.0904 513.335 95.0299 513.634C93.9694 513.933 83.7951 510.556 81.403 509.526C77.2807 507.767 76.3319 506.342 76.0847 506.588C75.415 507.23 76.3479 513.933 76.3479 513.933Z" fill="#161711"/>
<path d="M73.4225 298.144L75.8145 382.192C75.8145 382.192 72.6253 404.983 72.394 412.574C71.812 429.683 72.4737 481.026 72.4737 481.026L86.252 481.633C86.252 481.633 95.9558 388.85 97.1997 380.811C98.4435 372.771 112.541 308.128 104.376 292.039C96.2109 275.951 73.4225 298.144 73.4225 298.144Z" fill="#D22C2D"/>
<path d="M92.3827 213.55C92.3827 225.795 83.1971 235.725 71.8508 235.725C60.5044 235.725 51.3189 225.795 51.3189 213.55C51.3189 201.306 60.5124 191.375 71.8508 191.375C83.1892 191.375 92.3827 201.297 92.3827 213.55Z" fill="#163F59"/>
<path d="M107.469 168.242C107.469 172.568 105.911 176.716 103.139 179.774C100.366 182.832 96.6063 184.551 92.6856 184.551L88.9857 176.801C85.065 176.801 81.305 175.083 78.5327 172.025C75.7604 168.966 74.2029 164.818 74.2029 160.493V154.335C74.2029 150.01 75.7604 145.862 78.5327 142.804C81.305 139.745 85.065 138.027 88.9857 138.027H92.6856C96.6063 138.027 100.366 139.745 103.139 142.804C105.911 145.862 107.469 150.01 107.469 154.335V168.242Z" fill="#163F59"/>
<path d="M74.2027 160.466V154.308C74.2027 149.983 75.7601 145.835 78.5325 142.777C81.3048 139.718 85.0648 138 88.9855 138H92.6854C95.9306 138 99.0847 139.184 101.656 141.369C101.91 145.101 101.641 148.854 100.858 152.496C98.3864 164.38 91.1624 173.22 83.141 175.419C80.4916 174.16 78.2337 172.073 76.6456 169.416C75.0574 166.759 74.2083 163.648 74.2027 160.466Z" fill="#163F59"/>
<path d="M92.1428 184.074C92.1428 195.8 83.3718 205.308 72.4799 205.308C61.588 205.308 52.8172 195.8 52.8172 184.074C52.8442 181.256 53.3742 178.471 54.377 175.878C55.3799 173.285 56.836 170.936 58.6618 168.964C60.4877 166.993 62.6478 165.437 65.0187 164.386C67.3896 163.335 69.9249 162.81 72.4799 162.84C83.3319 162.823 92.1428 172.322 92.1428 184.074Z" fill="#163F59"/>
<path d="M95.7309 212.372C95.7309 224.458 86.6569 234.257 75.47 234.257C64.2831 234.257 55.2093 224.458 55.2093 212.372C55.2093 200.286 64.2751 190.487 75.47 190.487C86.6649 190.487 95.7309 200.286 95.7309 212.372Z" fill="#11374F"/>
<path d="M72.1454 171.919C79.4572 166.456 87.949 166.227 91.1225 171.391C94.296 176.554 90.947 185.175 83.6352 190.637C76.3235 196.099 67.8316 196.337 64.6581 191.174C61.4847 186.01 64.8416 177.39 72.1454 171.919Z" fill="#11374F"/>
<path d="M101.559 144.237C101.543 145.775 101.426 147.31 101.208 148.829C99.7094 159.305 93.9445 167.301 87.6534 168.242C87.4536 172.532 86.7488 176.775 85.5564 180.865C84.3764 184.999 79.975 189.371 79.975 189.371C78.9065 196.68 101.503 207.412 100.937 206.233C100.371 205.054 94.8376 196.443 93.0196 188.535C92.5132 186.286 92.4535 183.942 92.8444 181.665C93.2352 179.388 94.0674 177.23 95.2841 175.341C96.3703 173.979 97.6972 172.876 99.1835 172.1C100.67 171.324 102.284 170.891 103.927 170.828C104.161 170.827 104.391 170.774 104.605 170.671C104.819 170.568 105.012 170.418 105.171 170.23C105.481 169.125 105.64 167.974 105.642 166.817V153.368C105.64 151.603 105.271 149.862 104.563 148.279C103.856 146.696 102.828 145.313 101.559 144.237V144.237Z" fill="#E9D6B8"/>
<path d="M106.233 294.029L116.822 297.028C116.822 297.028 109.925 263.813 107.995 250.839C106.066 237.865 106.289 233.616 106.935 229.605C107.58 225.594 109.279 220.87 106.935 216.411C104.59 211.951 100.907 204.492 99.4475 203.911C97.0555 202.97 94.5278 201.791 92.5982 199.663C91.5457 198.458 106.233 294.029 106.233 294.029Z" fill="#CE3031"/>
<path d="M109.924 296.667C109.924 296.667 104.79 265.519 102.509 249.783C100.229 234.046 93.9534 204.174 93.3873 200.401C92.7967 197.383 91.9367 194.436 90.8199 191.605C90.8199 191.605 85.3979 187.206 80.55 188.148C75.7021 189.089 71.7152 201.043 69.7139 212.68C67.7125 224.318 82.2643 256.732 82.2643 259.555C82.2643 262.379 71.9944 286.296 71.9944 293.219V301.135C71.9944 301.135 97.3821 287.563 109.924 296.667Z" fill="#D05556"/>
<path d="M81.2673 183.583L85.4058 186.433L91.3221 190.893L90.1899 197.824L79.1225 186.89L81.2673 183.583Z" fill="#D0D0D0"/>
<path d="M56.2546 260.146C56.2546 260.146 65.5279 273.78 70.3917 273.243C71.988 273.058 73.5724 272.764 75.136 272.364C78.453 271.66 79.1227 271.704 81.7301 271.308C82.7086 271.122 83.6965 271.001 84.6883 270.947C84.6883 270.947 84.6883 272.601 83.6836 273.041C82.6789 273.481 80.5499 273.745 79.8004 274.096C79.0509 274.448 81.6902 273.859 85.645 274.211C88.834 274.501 91.995 275.09 95.0938 275.97C96.1303 276.287 96.2739 276.357 96.2739 276.419C96.2739 276.955 96.2339 277.439 95.7555 277.536C95.277 277.632 93.834 277.536 93.9217 277.58C94.9188 278.102 95.9535 278.531 97.0153 278.864C97.4459 278.978 98.0359 279.11 98.3948 279.251C99.1203 279.532 98.7856 280.509 97.5178 280.905C97.5178 280.905 97.2227 281.591 96.8399 281.731C96.6486 281.802 96.5051 281.863 96.3058 281.925C96.1064 281.987 95.8193 281.995 95.596 282.057C94.7619 282.264 93.914 282.397 93.0605 282.453C92.7256 282.453 89.7673 282.233 89.7673 282.453C89.7673 282.453 92.0957 283.033 92.0478 283.227C91.9601 283.667 91.5137 284.203 91.107 284.168C90.3097 284.089 89.2173 284.01 86.1156 283.579C82.6949 283.104 81.9773 282.699 77.5919 283.297C73.7725 283.816 74.1391 284.687 71.4281 283.535C67.7922 281.995 54.5641 270.675 52.1082 268.907C49.6524 267.138 56.2546 260.146 56.2546 260.146Z" fill="#E9D6B8"/>
<path d="M51.3198 249.414L81.0533 213.78C81.0533 213.78 84.6573 204.404 84.4739 199.627C84.2587 193.971 78.0951 189.714 78.0951 189.714C78.0951 189.714 64.54 203.172 48.5052 222.515C32.4703 241.858 23.6995 250.355 32.4704 257.911C41.2413 265.467 55.1392 275.134 55.1392 275.134L60.4894 260.031L51.3198 249.414Z" fill="#D05556"/>
<path d="M841.376 312.613L844.947 358.737C844.947 358.737 857.399 334.02 858.736 316.67C860.073 299.32 841.03 311.921 841.376 312.613Z" fill="#E9D6B8"/>
<path d="M758.889 286.317L781.539 323.139C781.539 323.139 747.886 306.958 749.596 291.898C751.307 276.838 758.889 286.317 758.889 286.317Z" fill="#E9D6B8"/>
<path d="M816.222 198.921C815.783 204.184 812.95 208.746 809.977 208.961H801.508C798.535 208.746 795.703 204.184 795.263 198.921C794.572 190.246 793.877 181.568 793.179 172.886C792.721 167.679 794.749 157.238 799.255 154.19C801.15 152.848 803.416 152.127 805.738 152.127C808.061 152.127 810.326 152.848 812.221 154.19C816.727 157.275 818.765 167.717 818.307 172.886C817.609 181.561 816.914 190.24 816.222 198.921Z" fill="#E9D6B8"/>
<path d="M840.789 212.131C840.789 212.131 851.819 219.385 858.204 263.452C864.589 307.519 860.532 305.837 860.532 305.837L859.373 315.886L843.107 317.559L833.815 279.624L840.789 212.131Z" fill="#D99426"/>
<path d="M844.845 212.682L819.232 201.118L806.013 205.072L789.673 203.203L771.668 211.009C771.668 211.009 763.535 218.824 771.089 243.923C778.642 269.023 777.511 310.473 777.511 310.473L842.892 314.623C842.892 314.623 838.461 226.611 844.845 212.682Z" fill="#FEB032"/>
<path d="M783.278 212.129C783.278 212.129 773.406 206.52 763.534 218.823C746.708 239.734 738.566 265.676 736.817 270.705C735.069 275.734 732.76 290.785 739.725 295.244L746.689 299.703L761.216 290.785L758.888 286.316L757.729 283.512C757.729 283.512 765.862 265.657 774.556 249.485C783.25 233.312 783.278 212.129 783.278 212.129Z" fill="#FEB032"/>
<path d="M802.777 204.502L796.318 211.559L789.858 202.249L793.738 196.509L802.777 204.502Z" fill="#D0D0D0"/>
<path d="M816.969 197.06L804.545 205.071L810.416 212.12L820.11 201.117L816.969 197.06Z" fill="#D0D0D0"/>
<path d="M806.984 148.02V142H819.988C822.088 142 824.102 142.834 825.586 144.319C827.071 145.804 827.906 147.818 827.906 149.918V155.938H814.902C812.802 155.938 810.789 155.104 809.304 153.619C807.819 152.134 806.984 150.12 806.984 148.02Z" fill="#163F59"/>
<path d="M794.524 184.543C794.526 186.411 795.27 188.202 796.592 189.521C797.913 190.841 799.705 191.583 801.572 191.583H817.549C819.409 191.573 821.19 190.827 822.502 189.508C823.814 188.189 824.55 186.404 824.55 184.543V152.591C824.552 151.666 824.37 150.75 824.017 149.895C823.664 149.04 823.146 148.263 822.492 147.608C821.838 146.953 821.062 146.434 820.207 146.08C819.353 145.725 818.436 145.543 817.511 145.543H801.535C799.666 145.543 797.873 146.286 796.551 147.607C795.229 148.929 794.487 150.722 794.487 152.591L794.524 184.543Z" fill="#E9D6B8"/>
<path d="M806.48 142C805.166 142.002 803.874 142.33 802.718 142.955C801.563 143.58 800.581 144.482 799.861 145.58H797.141C795.514 145.58 793.955 146.226 792.804 147.376C791.654 148.526 791.009 150.086 791.009 151.713V166.875H795.327V160.715C795.327 159.57 795.782 158.471 796.592 157.661C797.402 156.851 798.501 156.396 799.646 156.396H812.677C814.777 156.396 816.791 155.562 818.276 154.077C819.761 152.592 820.595 150.578 820.595 148.478V142H806.48Z" fill="#163F59"/>
<path d="M796.685 170.812C796.685 169.82 796.291 168.869 795.589 168.167C794.888 167.466 793.937 167.072 792.945 167.072H792.637C791.645 167.072 790.694 167.466 789.993 168.167C789.292 168.869 788.898 169.82 788.898 170.812V175.373C788.898 176.365 789.292 177.316 789.993 178.017C790.694 178.719 791.645 179.113 792.637 179.113H792.945C793.674 179.116 794.388 178.906 794.999 178.509C795.61 178.112 796.092 177.546 796.386 176.878L796.685 170.812Z" fill="#E9D6B8"/>
<path d="M800.984 338.246C800.984 338.246 820.68 408.011 836.46 432.98C852.239 457.949 857.746 425.501 857.746 425.501L838.114 309.491L792.309 309.201C792.309 309.201 793.468 311.547 800.984 338.246Z" fill="#9E6915"/>
<path d="M822.746 309.444C822.746 309.444 809.593 423.856 807.658 429.643C801.273 449.096 786.672 436.532 784.419 430.045C782.166 423.557 778.408 375.582 779.165 340.573C779.922 305.565 779.904 307.855 779.904 307.855L822.746 309.444Z" fill="#96610E"/>
<path d="M782.54 534.165C781.857 534.987 782.353 537.156 782.353 537.156C782.353 537.156 794.225 538.474 798.039 537.577C799.529 537.085 800.957 536.42 802.292 535.595C802.554 535.436 803.031 534.529 803.283 534.37C803.76 534.09 804.012 534.566 804.414 534.305C805.057 533.941 805.667 533.522 806.237 533.052C807.275 527.602 805.891 525.415 805.891 525.415C805.891 525.415 795.776 522.059 793.888 524.396C789.429 529.893 784.026 532.351 782.54 534.165Z" fill="#161711"/>
<path d="M856.334 529.257L858.017 538.109H867.038C867.038 538.109 867.533 536.857 868.309 536.857C868.945 536.857 869.777 538.109 870.646 538.109H893.587C893.587 538.109 893.998 536.24 893.502 535.604C892.642 535.051 891.694 534.65 890.698 534.417C886.024 533.118 872.712 529.023 870.394 524.583C867.617 519.207 856.334 529.257 856.334 529.257Z" fill="#161711"/>
<path d="M811.005 380.854C811.005 380.854 808.079 424.258 808.5 447.226C808.808 464.53 808.846 497.706 806.209 525.984C806.05 527.714 791.935 526.405 791.935 526.405C791.935 526.405 782.456 418.21 780.951 400.485C779.446 382.761 799.731 368.15 811.005 380.854Z" fill="#96610E"/>
<path d="M852.865 428.857C852.865 428.857 848.883 429.726 836.328 430.82C830.617 431.306 853.061 530.958 853.061 530.958L870.823 523.292L857.446 422.921L852.865 428.857Z" fill="#9E6915"/>
<path d="M940.126 529.373C942.17 528.78 944.265 528.375 946.383 528.164C949.065 527.817 951.068 527.941 952.077 527.006C953.733 525.45 953.65 519.656 954.006 519.747C957.73 520.716 957.904 532.568 956.1 532.534C953.617 532.534 941.583 531.334 940.573 531.202C939.563 531.07 939.828 529.125 940.126 529.373Z" fill="#E9D6B8"/>
<path d="M958.061 430.055C959.303 431.578 964.012 435.79 964.964 440.616C966.834 450.084 967.281 454.967 965.973 464.618C963.904 479.946 960.105 504.386 958.367 514.674C956.795 523.944 957.904 535.589 951.399 532.485C955.661 520.244 954.105 500.099 953.608 489.373C950.24 416.191 955.868 427.332 958.061 430.055Z" fill="#E9D6B8"/>
<path d="M942.749 528.72C941.88 531.641 951.025 530.963 953.384 530.325C954.606 529.987 955.851 529.735 957.109 529.572H957.382C957.386 529.644 957.386 529.716 957.382 529.787C957.291 531.401 957.878 533.603 955.288 533.454L939.058 532.527C925.815 531.782 942.765 528.654 942.749 528.72Z" fill="#194866"/>
<path d="M959.965 331.134C963.077 330.306 963.143 333.037 965.386 339.816C969.781 353.125 972.272 372.815 970.749 393.804C968.953 418.394 965.187 443.05 960.13 456.54C955.992 446.807 952.599 438.017 950.273 416.515C945.117 368.891 950.397 333.658 959.965 331.134Z" fill="#E9D6B8"/>
<path d="M958.939 334.593C961.778 333.989 961.77 336.248 963.624 342C967.266 353.24 969.02 369.785 967.108 387.298C964.866 407.824 960.413 430.551 954.934 430.758C952.831 430.841 951.954 415.488 951.143 402.618C948.602 362.601 950.224 336.455 958.939 334.593Z" fill="#E9D6B8"/>
<path d="M996.009 534.265C996.009 534.265 997.813 533.76 1001.89 532.825C1004.74 532.171 1006.16 531.74 1006.85 530.59C1007.95 528.695 1007.45 523.232 1008.22 523.224C1011.92 523.182 1013.01 532.999 1012.11 534.555C1010.95 536.607 998.872 537.509 997.027 536.541C996.125 536.094 995.669 534.124 996.009 534.265Z" fill="#E9D6B8"/>
<path d="M992.973 436.601C994.702 435.831 992.973 428.722 996.283 433.406C1001.6 441.037 1006.09 458.369 1006.85 467.738C1008.07 482.635 1010.3 506.215 1010.78 516.263C1011.22 525.367 1014.67 536.052 1007.9 534.471C1008.23 521.726 1004.2 503.277 1001.08 493.403C990.349 459.709 987.651 438.96 992.973 436.601Z" fill="#E9D6B8"/>
<path d="M996.026 534.264C999.635 538.038 1006.62 535.307 1008.88 534.413C1012.75 532.865 1012.51 531.624 1012.53 531.69C1012.9 533.213 1013.49 535.431 1011.26 536.565C1009.24 537.6 1006.99 537.533 1004.49 537.889C1002.25 538.204 989.148 539.412 988.726 537.757C988.122 535.406 995.976 534.19 996.026 534.264Z" fill="#194866"/>
<path d="M986.351 338.616C989.33 337.731 989.471 340.354 991.83 346.818C996.481 359.506 999.469 378.418 998.633 398.687C997.64 422.441 994.263 443.24 989.794 456.4C985.473 447.138 982.477 441.85 979.581 421.2C973.108 375.455 977.164 341.331 986.351 338.616Z" fill="#E9D6B8"/>
<path d="M989.546 426.297C991.127 425.378 994.115 429.384 996.341 433.315C1000.69 441.013 1002.39 450.605 1004.62 463.864C1007.25 479.383 1008.11 493.263 1007.33 502.325C1003.91 495.58 1001.08 486.857 997.136 477.843C973.266 423.359 984.696 429.103 989.546 426.297Z" fill="#E9D6B8"/>
<path d="M985.589 335.727C988.552 334.998 988.609 337.382 990.753 343.358C994.949 355.052 997.374 372.375 995.901 390.848C994.56 408.13 991.763 423.648 988.254 435.26C987.368 438.19 984.115 438.282 983.519 435.616C981.715 427.216 980.598 417.731 979.621 407.476C975.632 365.497 976.476 337.961 985.589 335.727Z" fill="#E9D6B8"/>
<path d="M938.396 417.227C938.105 415.644 938.019 414.031 938.14 412.426C939.265 402.801 939.447 392.952 942.807 374.743C946.118 357.064 953.137 330.828 965.254 301.04C966.429 298.003 989.024 299.708 998.26 302.381C1000.27 307.957 1001.93 313.655 1003.23 319.439C1011.17 351.718 1014.97 370.348 1016.58 385.85C1018.24 400.88 1017.74 412.815 1018.56 420.827C1008.05 443.381 969.384 402.668 938.396 417.227Z" fill="#96610E"/>
<path d="M957.755 320.117C957.796 321.127 957.068 322.484 956.712 323.883C955.895 326.657 954.877 329.368 953.666 331.994C952.908 333.752 952.256 335.554 951.713 337.39C950.885 334.552 952.301 332.954 952.442 331.597C952.582 330.239 952.69 330.769 950.935 332.334C949.942 333.236 949.859 336.422 949.545 338.466C949.47 339.348 949.186 340.199 948.717 340.949C948.485 339.119 948.44 337.269 948.585 335.429C948.821 332.815 949.363 330.237 950.199 327.748C951.31 325.531 952.565 323.388 953.956 321.334C954.656 320.044 955.089 318.628 955.231 317.168C955.374 315.708 955.221 314.234 954.784 312.834C954.072 310.591 957.59 315.54 957.755 320.117Z" fill="#E9D6B8"/>
<path d="M950.513 327.592C950.513 327.592 947.84 332.061 947.658 333.12C947.533 333.857 947.533 337.433 947.533 337.433C948.162 336.542 948.571 335.515 948.725 334.437C948.808 333.005 950.513 327.592 950.513 327.592Z" fill="#E9D6B8"/>
<path d="M956.415 216.188C956.415 218.432 956.857 220.654 957.716 222.727C958.575 224.8 959.834 226.684 961.421 228.27C963.008 229.857 964.892 231.115 966.966 231.973C969.039 232.831 971.262 233.272 973.506 233.271L977.776 225.16C987.212 225.16 994.867 210.932 994.867 201.497V195.091C994.865 190.559 993.064 186.213 989.859 183.008C986.654 179.804 982.308 178.002 977.776 178H973.506C968.973 178 964.626 179.801 961.42 183.006C958.215 186.211 956.415 190.558 956.415 195.091V216.188Z" fill="#137F7F"/>
<path d="M953.824 229.224C941.674 244.809 940.49 279.711 940.49 279.711C940.49 279.711 946.185 286.283 948.767 283.849C952.078 280.779 959.195 262.496 966.148 236.805C970.443 220.923 955.852 226.617 953.824 229.224Z" fill="#96610E"/>
<path d="M948.278 274.87C957.151 284.587 953.062 301.355 953.062 301.355C953.062 301.355 949.752 301.992 947.782 300.329C945.299 298.218 943.643 292.59 940.556 279.555C938.628 271.518 946.764 273.24 948.278 274.87Z" fill="#96610E"/>
<path d="M948.28 289.61C948.28 289.61 950.829 289.147 954.321 299.658C957.814 310.17 957.036 322.932 957.036 322.932L949.198 302.539C949.198 302.539 945.623 293.327 948.28 289.61Z" fill="#E9D6B8"/>
<path d="M991.457 194.579C992.628 194.416 993.809 194.322 994.991 194.298C994.952 195.783 995.032 197.27 995.231 198.742C997.3 213.177 1010.07 223.473 1024.59 223.117C1024.41 229.978 1021.79 236.552 1017.21 241.666C1012.64 246.78 1006.39 250.103 999.593 251.042C983.669 253.326 968.97 242.534 966.71 226.949C964.451 211.364 975.525 196.864 991.457 194.579Z" fill="#137F7F"/>
<path d="M963.243 184.49C963.268 186.104 963.407 187.713 963.657 189.307C965.378 200.274 972.049 208.608 979.382 209.634C979.606 214.6 981.368 218.912 981.799 222.877C982.751 231.485 992.293 232.403 992.293 232.403C993.527 240.067 963.392 250.686 964.004 249.453C964.617 248.22 971.048 239.19 973.15 230.905C973.733 228.55 973.801 226.096 973.348 223.712C972.895 221.327 971.933 219.069 970.526 217.092C969.27 215.667 967.738 214.514 966.022 213.701C964.306 212.889 962.442 212.434 960.545 212.366C960.274 212.367 960.006 212.311 959.758 212.203C959.51 212.095 959.288 211.936 959.104 211.737C958.748 210.581 958.566 209.379 958.566 208.169V194.099C958.557 192.246 958.975 190.416 959.785 188.75C960.596 187.084 961.779 185.627 963.243 184.49Z" fill="#E9D6B8"/>
<path d="M1000.2 275.623L1012.98 250.752C1016.78 243.361 1014.03 236.202 1006.87 234.836L966.354 227.156C961.876 226.733 955.065 234.274 957.026 242.757L966.751 270.343L1000.2 275.623Z" fill="#E9D6B8"/>
<path d="M1006.03 236.831C998.054 261.661 1024.01 295.818 1024.01 295.818C1024.01 295.818 1032.14 295.934 1032.92 292.201C1033.9 287.467 1026.82 277.593 1017.81 249.163C1012.23 231.518 1007.13 233.38 1006.03 236.831Z" fill="#96610E"/>
<path d="M966.14 305.113C966.14 310.733 966.447 317.528 968.913 317.404L985.847 314.962C988.33 314.846 996.424 315.666 996.408 309.996L1001.17 286.697C1001.17 281.069 999.147 276.608 996.681 276.766L965.867 264.434C963.384 264.549 961.406 269.209 961.423 274.829L966.14 305.113Z" fill="#FEB032"/>
<path d="M959.568 238.271C959.901 236.793 960.407 235.36 961.075 234C981.22 249.725 995.381 243.17 1005.6 240.58C1005.7 241.242 1005.78 241.929 1005.82 242.641C1006.23 250.404 1005.78 258.168 1006.11 265.931C1006.41 272.105 998.518 277.46 994.719 277.609C980.55 278.205 977.338 277.262 963.665 273.148C960.007 272.039 953.187 265.467 954.561 259.806C956.266 252.65 957.935 245.471 959.568 238.271Z" fill="#FEB032"/>
<path d="M993.916 231.807C993.916 231.807 1010.19 231.31 1013.03 239.107C1015.88 246.903 1008.96 258.251 1008.96 258.251C1008.96 258.251 1004.82 272.702 1003.69 280.539C1002.56 288.377 1007.54 295.818 1006 294.287C1005.69 293.972 1002.01 294.287 996.142 291.58C990.274 288.874 993.527 278.147 994.106 274.696C994.686 271.245 997.549 254.311 996.912 251.522C996.275 248.733 993.916 231.807 993.916 231.807Z" fill="#9E6915"/>
<path d="M955.074 238.527C956.73 233.297 961.58 225.061 964.659 225.972C967.738 226.882 971.28 227.677 971.28 227.677C971.28 227.677 960.52 232.361 960.951 254.658C961.025 258.474 960.496 266.088 961.779 272.039C963.061 277.99 963.516 289.552 963.516 289.552C963.516 289.552 957.077 290.877 956.788 291.82C956.498 292.764 957.615 285.654 954.834 275.797C948.619 253.889 952.062 248.087 955.074 238.527Z" fill="#9E6915"/>
<path d="M1033.97 233.537H1031.49V231.774H1014.74V246.598C1014.68 247.505 1014.98 248.398 1015.58 249.084C1016.18 249.77 1017.02 250.194 1017.93 250.264H1028.3C1029.21 250.194 1030.05 249.77 1030.65 249.084C1031.25 248.398 1031.55 247.505 1031.49 246.598V245.472H1033.97C1034.61 245.421 1035.2 245.122 1035.62 244.639C1036.04 244.156 1036.25 243.527 1036.21 242.89V236.111C1036.25 235.475 1036.04 234.847 1035.62 234.365C1035.2 233.884 1034.61 233.586 1033.97 233.537V233.537ZM1034.32 242.89C1034.33 242.939 1034.32 242.989 1034.31 243.037C1034.29 243.084 1034.27 243.128 1034.23 243.166C1034.2 243.204 1034.16 243.235 1034.12 243.257C1034.07 243.279 1034.02 243.292 1033.97 243.295H1031.49V235.706H1033.97C1034.07 235.714 1034.17 235.761 1034.23 235.837C1034.3 235.913 1034.33 236.012 1034.32 236.111V242.89Z" fill="#FFC40E"/>
<path d="M1033.01 268.249C1034.51 262.579 1037.05 256.728 1036.57 253.351C1035.91 248.542 1033.46 246.357 1034.3 243.096C1034.37 242.736 1034.43 242.371 1034.45 242.004C1034.58 241.027 1034.89 239.951 1034.89 239.521C1034.89 239.09 1034.74 237.733 1035.01 238.23C1037.44 242.666 1039.73 247.855 1039.71 249.08C1039.71 251.563 1038.88 265.476 1037.54 270.599C1036.01 276.352 1031.04 275.905 1033.01 268.249Z" fill="#E9D6B8"/>
<path d="M1037.5 252.366C1037.5 252.366 1038.6 252.854 1039.02 252.01C1039.73 250.628 1039.89 247.516 1039.9 246.407C1039.9 245.165 1039 239.33 1039 239.33C1038.3 240.622 1038.02 242.103 1038.22 243.559C1038.75 246.994 1037.5 252.366 1037.5 252.366Z" fill="#E9D6B8"/>
<path d="M1036.74 279.753C1034.8 278.982 1032.9 278.098 1031.07 277.105C1035.11 262.273 1039.2 249.883 1039.2 249.883L1036.74 279.753Z" fill="#E9D6B8"/>
<path d="M1038.58 245.132L1037.14 236.855L1033.92 236.077L1032.8 236.632L1032.67 237.517C1032.67 237.517 1033.08 238.064 1033 238.064C1032.54 238.064 1032.68 239.479 1033.08 239.479C1032.94 240.114 1032.84 240.758 1032.8 241.407C1033.08 242.086 1034.35 241.962 1034.92 243.41C1035.48 244.859 1034.69 246.522 1035.47 246.63C1036.25 246.737 1038.58 245.132 1038.58 245.132Z" fill="#E9D6B8"/>
<path d="M1037.47 276.037C1037.28 274.812 1030.35 274.381 1029.55 276.575L1028.72 278.18C1028.72 278.18 1022.37 292.25 1029.93 294.841C1029.95 294.808 1038.11 294.245 1037.47 276.037Z" fill="#96610E"/>
<path d="M230.05 46H222.85V11H230.05V24.8L242.95 11H251.75L236.9 27.05L254.3 46H245.1L230.05 29.85V46ZM266.353 46H259.153V11H274.453C278.219 11 281.186 11.9833 283.353 13.95C285.553 15.8833 286.653 18.4167 286.653 21.55C286.653 24.7167 285.553 27.2667 283.353 29.2C281.186 31.1667 278.219 32.15 274.453 32.15H266.353V46ZM266.353 17.3V26H273.953C275.686 26 277.036 25.6333 278.003 24.9C278.969 24.1333 279.453 23.05 279.453 21.65C279.453 20.25 278.969 19.1833 278.003 18.45C277.036 17.6833 275.686 17.3 273.953 17.3H266.353ZM299.162 46H293.112V11H300.312V33.8L317.262 11H323.462V46H316.312V23.05L299.162 46ZM329.848 17.45V11H359.198V17.45H348.098V46H340.898V17.45H329.848ZM371.621 46H365.571V11H372.771V33.8L389.721 11H395.921V46H388.771V23.05L371.621 46ZM411.857 46H404.657V11H411.857V24.8L424.757 11H433.557L418.707 27.05L436.107 46H426.907L411.857 29.85V46ZM447.009 46H440.959V11H448.159V33.8L465.109 11H471.309V46H464.159V23.05L447.009 46Z" fill="#B61112"/>
<path d="M230.05 46H222.85V11H230.05V24.8L242.95 11H251.75L236.9 27.05L254.3 46H245.1L230.05 29.85V46ZM266.353 46H259.153V11H274.453C278.219 11 281.186 11.9833 283.353 13.95C285.553 15.8833 286.653 18.4167 286.653 21.55C286.653 24.7167 285.553 27.2667 283.353 29.2C281.186 31.1667 278.219 32.15 274.453 32.15H266.353V46ZM266.353 17.3V26H273.953C275.686 26 277.036 25.6333 278.003 24.9C278.969 24.1333 279.453 23.05 279.453 21.65C279.453 20.25 278.969 19.1833 278.003 18.45C277.036 17.6833 275.686 17.3 273.953 17.3H266.353ZM299.162 46H293.112V11H300.312V33.8L317.262 11H323.462V46H316.312V23.05L299.162 46ZM329.848 17.45V11H359.198V17.45H348.098V46H340.898V17.45H329.848ZM371.621 46H365.571V11H372.771V33.8L389.721 11H395.921V46H388.771V23.05L371.621 46ZM411.857 46H404.657V11H411.857V24.8L424.757 11H433.557L418.707 27.05L436.107 46H426.907L411.857 29.85V46ZM447.009 46H440.959V11H448.159V33.8L465.109 11H471.309V46H464.159V23.05L447.009 46Z" fill="#B61112"/>
<path d="M688.05 46H680.85V11H688.05V24.1H703.85V11H711V46H703.85V30.65H688.05V46ZM745.991 46H719.741V11H745.441V17.45H726.941V24.2H741.841V30.55H726.941V39.55H745.991V46ZM758.773 46H752.723V11H759.923V33.8L776.873 11H783.073V46H775.923V23.05L758.773 46ZM758.723 0.549998H764.023C764.023 1.65 764.356 2.53333 765.023 3.2C765.723 3.86666 766.656 4.2 767.823 4.2C768.99 4.2 769.923 3.86666 770.623 3.2C771.323 2.53333 771.69 1.65 771.723 0.549998H777.023C776.99 3.15 776.123 5.23333 774.423 6.8C772.723 8.33333 770.54 9.1 767.873 9.1C765.206 9.1 763.023 8.33333 761.323 6.8C759.623 5.23333 758.756 3.15 758.723 0.549998ZM789.459 17.45V11H818.809V17.45H807.709V46H800.509V17.45H789.459ZM832.382 46H825.182V11H840.482C844.249 11 847.215 11.9833 849.382 13.95C851.582 15.8833 852.682 18.4167 852.682 21.55C852.682 24.7167 851.582 27.2667 849.382 29.2C847.215 31.1667 844.249 32.15 840.482 32.15H832.382V46ZM832.382 17.3V26H839.982C841.715 26 843.065 25.6333 844.032 24.9C844.999 24.1333 845.482 23.05 845.482 21.65C845.482 20.25 844.999 19.1833 844.032 18.45C843.065 17.6833 841.715 17.3 839.982 17.3H832.382ZM859.735 46H852.185L867.185 10.8H874.085L889.085 46H881.435L877.985 37.9H863.185L859.735 46ZM870.585 19.8L865.435 31.95H875.685L870.585 19.8ZM891.211 45.7V39.2C891.945 39.4667 892.795 39.6 893.761 39.6C895.628 39.6 896.895 38.3167 897.561 35.75C898.228 33.1167 898.611 28.2833 898.711 21.25L898.861 11H923.561V46H916.411V17.45H905.811L905.611 24.55C905.345 32.7833 904.411 38.4333 902.811 41.5C901.178 44.6 898.295 46.15 894.161 46.15C892.895 46.15 891.911 46 891.211 45.7ZM947.232 46H932.332V11H939.532V22.55H947.232C951.399 22.55 954.699 23.65 957.132 25.85C959.566 27.9833 960.782 30.8 960.782 34.3C960.782 37.8 959.566 40.6167 957.132 42.75C954.666 44.9167 951.366 46 947.232 46ZM939.532 28.65V39.65H946.832C948.932 39.65 950.566 39.1833 951.732 38.25C952.932 37.2833 953.532 35.9333 953.532 34.2C953.532 32.4333 952.932 31.0667 951.732 30.1C950.566 29.1333 948.932 28.65 946.832 28.65H939.532ZM974.419 46H967.219V11H974.419V24.1H990.219V11H997.369V46H990.219V30.65H974.419V46ZM1044.76 46H1037.56V11H1044.76V46ZM1019.81 46H1006.11V11H1013.31V22.55H1019.81C1023.98 22.55 1027.28 23.65 1029.71 25.85C1032.14 27.9833 1033.36 30.8 1033.36 34.3C1033.36 37.8 1032.14 40.6167 1029.71 42.75C1027.24 44.9167 1023.94 46 1019.81 46ZM1013.31 28.65V39.65H1019.41C1021.51 39.65 1023.14 39.1833 1024.31 38.25C1025.51 37.2833 1026.11 35.9333 1026.11 34.2C1026.11 32.4333 1025.51 31.0667 1024.31 30.1C1023.14 29.1333 1021.51 28.65 1019.41 28.65H1013.31ZM1079.75 46H1053.5V11H1079.2V17.45H1060.7V24.2H1075.6V30.55H1060.7V39.55H1079.75V46Z" fill="#FFB033"/>
<path d="M1193.05 46H1185.85V11H1215.15V46H1208V17.45H1193.05V46ZM1231.11 46H1223.91V11H1239.21C1242.98 11 1245.94 11.9833 1248.11 13.95C1250.31 15.8833 1251.41 18.4167 1251.41 21.55C1251.41 24.7167 1250.31 27.2667 1248.11 29.2C1245.94 31.1667 1242.98 32.15 1239.21 32.15H1231.11V46ZM1231.11 17.3V26H1238.71C1240.44 26 1241.79 25.6333 1242.76 24.9C1243.73 24.1333 1244.21 23.05 1244.21 21.65C1244.21 20.25 1243.73 19.1833 1242.76 18.45C1241.79 17.6833 1240.44 17.3 1238.71 17.3H1231.11ZM1267.07 36.7C1269.14 38.8667 1271.72 39.95 1274.82 39.95C1277.89 39.95 1280.45 38.8667 1282.52 36.7C1284.59 34.5333 1285.62 31.8 1285.62 28.5C1285.62 25.2 1284.59 22.4667 1282.52 20.3C1280.45 18.1333 1277.89 17.05 1274.82 17.05C1271.72 17.05 1269.14 18.1333 1267.07 20.3C1265.04 22.4333 1264.02 25.1667 1264.02 28.5C1264.02 31.8333 1265.04 34.5667 1267.07 36.7ZM1256.67 28.5C1256.67 23.3667 1258.39 19.0667 1261.82 15.6C1265.25 12.0667 1269.59 10.3 1274.82 10.3C1280.02 10.3 1284.34 12.0667 1287.77 15.6C1291.24 19.1333 1292.97 23.4333 1292.97 28.5C1292.97 33.5333 1291.24 37.8333 1287.77 41.4C1284.34 44.9333 1280.02 46.7 1274.82 46.7C1269.59 46.7 1265.25 44.9333 1261.82 41.4C1258.39 37.8667 1256.67 33.5667 1256.67 28.5ZM1307.67 46H1300.47V11H1307.62L1317.77 25.5L1327.92 11H1335.02V46H1327.92V22.05L1319.87 33.3H1315.87L1307.67 22.05V46ZM1352.96 36.7C1355.02 38.8667 1357.61 39.95 1360.71 39.95C1363.77 39.95 1366.34 38.8667 1368.41 36.7C1370.47 34.5333 1371.51 31.8 1371.51 28.5C1371.51 25.2 1370.47 22.4667 1368.41 20.3C1366.34 18.1333 1363.77 17.05 1360.71 17.05C1357.61 17.05 1355.02 18.1333 1352.96 20.3C1350.92 22.4333 1349.91 25.1667 1349.91 28.5C1349.91 31.8333 1350.92 34.5667 1352.96 36.7ZM1342.56 28.5C1342.56 23.3667 1344.27 19.0667 1347.71 15.6C1351.14 12.0667 1355.47 10.3 1360.71 10.3C1365.91 10.3 1370.22 12.0667 1373.66 15.6C1377.12 19.1333 1378.86 23.4333 1378.86 28.5C1378.86 33.5333 1377.12 37.8333 1373.66 41.4C1370.22 44.9333 1365.91 46.7 1360.71 46.7C1355.47 46.7 1351.14 44.9333 1347.71 41.4C1344.27 37.8667 1342.56 33.5667 1342.56 28.5ZM1389.94 46.7C1387.54 46.7 1385.78 46.3667 1384.64 45.7V39.35C1385.78 39.9833 1387.13 40.3 1388.69 40.3C1390.16 40.3 1391.33 39.9667 1392.19 39.3C1393.03 38.6667 1393.93 37.3833 1394.89 35.45L1381.64 11H1389.59L1398.44 28.2L1406.19 11H1413.84L1400.94 38.4C1398.34 43.9333 1394.68 46.7 1389.94 46.7ZM1416.75 17.45V11H1446.1V17.45H1435V46H1427.8V17.45H1416.75ZM1478.72 46H1452.47V11H1478.17V17.45H1459.67V24.2H1474.57V30.55H1459.67V39.55H1478.72V46ZM1492.65 46H1485.45V11H1500.75C1504.52 11 1507.48 11.9833 1509.65 13.95C1511.85 15.8833 1512.95 18.4167 1512.95 21.55C1512.95 24.7167 1511.85 27.2667 1509.65 29.2C1507.48 31.1667 1504.52 32.15 1500.75 32.15H1492.65V46ZM1492.65 17.3V26H1500.25C1501.98 26 1503.33 25.6333 1504.3 24.9C1505.27 24.1333 1505.75 23.05 1505.75 21.65C1505.75 20.25 1505.27 19.1833 1504.3 18.45C1503.33 17.6833 1501.98 17.3 1500.25 17.3H1492.65ZM1558.06 46H1550.86V11H1558.06V46ZM1533.11 46H1519.41V11H1526.61V22.55H1533.11C1537.28 22.55 1540.58 23.65 1543.01 25.85C1545.44 27.9833 1546.66 30.8 1546.66 34.3C1546.66 37.8 1545.44 40.6167 1543.01 42.75C1540.54 44.9167 1537.24 46 1533.11 46ZM1526.61 28.65V39.65H1532.71C1534.81 39.65 1536.44 39.1833 1537.61 38.25C1538.81 37.2833 1539.41 35.9333 1539.41 34.2C1539.41 32.4333 1538.81 31.0667 1537.61 30.1C1536.44 29.1333 1534.81 28.65 1532.71 28.65H1526.61Z" fill="#029544"/>
<path d="M410.293 506.164C407.23 512.355 403.428 516.711 401.789 515.905C400.15 515.1 401.311 509.424 404.374 503.242C407.437 497.06 411.23 492.696 412.869 493.501C414.508 494.307 413.347 499.982 410.293 506.164Z" fill="#B91819"/>
<path d="M464.17 370.685C462.465 369.636 456.63 376.136 454.148 381.924C449.287 393.164 448.041 399.439 446.149 411.896C443.161 431.622 438.103 462.952 436.436 476.289C434.928 488.306 430.086 502.515 437.317 500.51C437.205 484.016 444.81 459.14 449.193 446.074C464.217 401.406 469.434 373.897 464.17 370.685Z" fill="#E9D6B8"/>
<path d="M421.104 380.595C421.728 377.423 422.381 374.301 423.061 371.228C425.3 366.761 427.248 364.41 428.737 364.756C434.357 366.086 439.481 391.581 421.769 452.134C420.879 455.178 408.993 507.967 409.078 506.674C411.129 472.759 411.616 427.52 421.104 380.595Z" fill="#E9D6B8"/>
<path d="M410.48 504.029C408.916 508.881 405.591 512.375 403.924 511.569C402.257 510.764 402.894 506.614 405.348 502.156C408.457 496.536 409.637 494.897 409.909 490.86C410.181 487.067 416.381 485.793 410.48 504.029Z" fill="#E9D6B8"/>
<path d="M447.185 500.1C447.887 503.051 438.849 501.861 436.507 501.093C435.31 500.696 434.086 500.383 432.845 500.156H432.564C432.559 500.228 432.559 500.3 432.564 500.372C432.564 501.983 431.852 504.118 434.437 504.118H450.641C463.828 504.09 447.128 500.035 447.185 500.1Z" fill="#B91819"/>
<path d="M477.207 190.471L473.732 166.446C469.32 161.763 463.673 159.328 457.931 160.162C446.841 161.763 439.601 175.045 441.737 189.834C443.872 204.623 454.597 215.301 465.677 213.699C473.432 212.575 479.305 205.729 481.403 196.662C480.29 196.003 479.337 195.107 478.612 194.036C477.886 192.966 477.406 191.748 477.207 190.471V190.471Z" fill="#163F59"/>
<path d="M433.183 204.343C432.762 208.183 436.808 211.779 442.222 212.369L454.567 213.737C459.98 214.327 464.72 211.704 465.132 207.864L468.991 172.834C469.421 168.994 465.366 165.407 459.962 164.808L447.607 163.449C442.194 162.85 437.464 165.482 437.042 169.322L433.183 204.343Z" fill="#163F59"/>
<path d="M465.394 219.375C472.719 222.55 476.381 221.558 470.789 223.918C468.101 227.215 433.727 222.625 431.854 218.364C431.545 217.643 445.5 215.554 445.575 215.067C446.437 208.876 446.765 203.649 445.041 196.728C445.061 196.486 445.166 196.258 445.337 196.087C445.509 195.915 445.736 195.81 445.978 195.791C448.582 195.866 451.205 195.885 453.827 195.96C454.258 195.96 459.372 197.112 458.239 199.566C457.658 206.281 457.648 216.022 465.394 219.375Z" fill="#E9D6B8"/>
<path d="M467.727 199.062C467.848 198.818 467.961 198.565 468.073 198.322C468.073 198.247 468.139 198.172 468.176 198.087C468.317 197.778 468.448 197.469 468.579 197.151C468.605 197.061 468.636 196.974 468.673 196.889C468.757 196.645 468.851 196.392 468.935 196.139C469.019 195.886 469.038 195.868 469.075 195.727C469.113 195.587 469.216 195.296 469.282 195.071C469.347 194.847 469.375 194.772 469.413 194.631C469.497 194.341 469.572 194.051 469.647 193.76C469.722 193.47 469.759 193.32 469.806 193.095C469.853 192.87 469.909 192.692 469.946 192.496C469.984 192.299 470.031 192.084 470.078 191.878C470.124 191.672 470.143 191.522 470.181 191.334C470.218 191.147 470.237 191.044 470.265 190.904C470.686 188.412 469.843 176.676 467.867 171.075C467.714 170.693 467.434 170.375 467.074 170.176C466.714 169.976 466.296 169.907 465.891 169.979C459.85 170.644 441.445 169.792 446.222 186.567C446.222 186.567 446.493 188.047 446.643 188.712C446.638 188.768 446.638 188.824 446.643 188.88C446.793 189.545 446.952 190.201 447.13 190.838V190.969C447.317 191.615 447.505 192.252 447.711 192.842C447.711 192.842 447.711 192.842 447.711 192.908C450.352 200.813 454.96 206.021 459.887 205.693C462.697 205.496 465.235 203.436 467.118 200.129C467.121 200.101 467.121 200.073 467.118 200.045C467.258 199.802 467.399 199.539 467.539 199.277L467.727 199.062Z" fill="#E9D6B8"/>
<path d="M367.076 213.11C367.076 213.11 365.802 213.718 365.259 212.754C364.378 211.143 364.06 207.48 364.004 206.197C363.938 204.736 364.79 197.814 364.79 197.814C365.668 199.309 366.045 201.045 365.867 202.769C365.39 206.843 367.076 213.11 367.076 213.11Z" fill="#E9D6B8"/>
<path d="M366.956 212.172C365.785 209.812 366.394 206.824 367.949 203.48C369.429 200.305 368.352 198.319 368.352 198.319C367.153 200.594 366.165 202.973 365.401 205.428C364.814 206.883 364.497 208.431 364.465 209.999C364.689 214.598 369.953 218.26 366.956 212.172Z" fill="#E9D6B8"/>
<path d="M505.015 275.546C517.444 285.69 571.112 299.655 571.112 299.655C571.112 299.655 582.68 296.742 514.699 268.334C511.299 266.911 501.942 273.055 505.015 275.546Z" fill="#E9D6B8"/>
<path d="M574.353 302.324C574.353 302.324 578.643 303.926 579.973 305.818C580.91 307.138 584.076 314.051 584.076 314.051C582.405 313.163 581.057 311.77 580.226 310.07C578.698 307.189 576.715 304.574 574.353 302.324V302.324Z" fill="#E9D6B8"/>
<path d="M577.967 306.071C580.777 306.802 582.781 309.443 584.42 313.114C585.984 316.599 588.392 317.151 588.392 317.151C587.372 314.545 586.118 312.037 584.645 309.658C583.802 308.207 582.884 306.773 581.948 305.406C578.857 300.854 570.811 304.207 577.967 306.071Z" fill="#E9D6B8"/>
<path d="M570.1 300.543C570.569 302.501 573.669 304.739 573.575 305.994C573.482 307.915 572.984 309.795 572.114 311.511C576.32 311.014 576.235 304.954 577.837 302.95C579.438 300.946 568.901 295.466 570.1 300.543Z" fill="#E9D6B8"/>
<path d="M548.596 290.559C555.911 292.432 564.35 294.436 567.853 297.115C572.846 300.861 573.773 305.02 577.969 306.107C578.422 306.252 578.866 306.424 579.299 306.622C580.47 307.099 581.884 307.418 582.352 307.68C582.821 307.942 584.226 308.973 583.86 308.354C580.404 302.828 575.983 296.993 574.597 296.244C571.787 294.708 555.63 286.878 549.046 285.182C541.618 283.262 538.715 288.039 548.596 290.559Z" fill="#E9D6B8"/>
<path d="M578.089 305.452C578.089 305.452 578.492 303.944 579.681 304.197C581.629 304.627 584.879 307.006 586.003 307.877C587.127 308.749 592.363 314.528 592.363 314.528C590.499 314.178 588.794 313.247 587.493 311.867C584.486 308.552 578.089 305.452 578.089 305.452Z" fill="#E9D6B8"/>
<path d="M538.863 279.929C534.049 281.877 520.037 278.055 520 280.818C532.869 288.517 571.917 294.868 571.917 294.868L538.863 279.929Z" fill="#E9D6B8"/>
<path d="M416.194 241.208C409.507 246.145 403.597 263.51 398.998 274.515C396.413 280.715 397.368 285.389 397.368 285.389C397.368 285.389 399.635 299.926 416.953 260.306C421.289 250.378 418.704 239.335 416.194 241.208Z" fill="#E9D6B8"/>
<path d="M402.857 284.723C402.773 270.084 376.575 231.523 376.575 231.523C376.575 231.523 362.807 219.899 387.927 276.565C395.477 293.584 402.885 288.329 402.857 284.723Z" fill="#E9D6B8"/>
<path d="M366.993 209.306L365.878 210.018L365.129 214.495C365.129 214.495 367.152 222.428 368.988 225.154C370.823 227.879 373.605 240.14 374.345 241.479C375.085 242.819 382.325 242.772 382.325 242.772C382.325 242.772 376.518 231.139 374.607 226.334C372.697 221.529 372.322 213.736 371.648 211.826C370.486 208.557 370.083 206.843 370.083 206.843C370.083 206.843 368.426 207.704 369.943 212.931C370.346 214.308 368.594 214.017 368.594 214.017L366.993 209.306Z" fill="#E9D6B8"/>
<path d="M428.726 266.235L474.602 265.851L480.212 213.381L425.775 218.551L428.726 266.235Z" fill="#D05556"/>
<path d="M477.205 422.539C454.642 426.07 450.568 423.073 424.642 419.373C422.197 419.373 411.688 394.178 419.078 327.584C420.605 313.872 430.974 302.857 428.604 265.626L474.854 264.689C468.776 298.614 505.398 303.869 477.205 422.539Z" fill="#D05556"/>
<path d="M504.311 274.458L478.422 235.878L471.782 218.494C472.261 217.049 473.215 215.808 474.489 214.973L475.369 214.401C478.769 212.219 483.49 213.69 485.915 217.698L515.569 266.59L504.311 274.458Z" fill="#D05556"/>
<path d="M410.424 279.047L426.206 245.46L432.557 222.044C431.71 220.832 430.514 219.907 429.128 219.394L428.192 219.019C426.376 218.339 424.364 218.408 422.599 219.211C420.834 220.013 419.46 221.484 418.779 223.299L399.784 269.569L410.424 279.047Z" fill="#D05556"/>
<path d="M366.684 214.983C366.684 214.983 365.419 210.993 366.056 208.988C366.506 207.593 369.69 201.383 369.69 201.383C369.996 203.091 369.754 204.851 368.997 206.412C367.769 209.126 366.988 212.02 366.684 214.983Z" fill="#E9D6B8"/>
<path d="M368.557 214.046C368.557 214.046 369.719 214.318 370.103 213.953C370.098 214.321 370.061 214.687 369.99 215.048C369.916 215.742 370.3 220.434 370.3 220.434C369.91 218.994 369.437 217.577 368.885 216.191C368.485 215.171 368.171 214.118 367.949 213.044C367.935 212.816 367.935 212.588 367.949 212.36L368.557 214.046Z" fill="#E9D6B8"/>
<path d="M369.944 212.932C368.923 209.42 369.335 207.884 369.719 207.237C369.953 208.071 370.366 209.401 371.012 211.246C371.337 212.475 371.562 213.728 371.686 214.993C371.742 215.32 370.497 215.629 370.019 218.458C369.925 218.964 368.989 215.901 368.829 214.037C369.298 214.047 370.253 213.99 369.944 212.932Z" fill="#E9D6B8"/>
<path d="M456.374 194.377C455.26 193.717 454.306 192.819 453.581 191.747C452.855 190.675 452.376 189.455 452.178 188.176L448.703 164.152C448.488 163.936 448.263 163.739 448.047 163.533H447.626C442.212 162.934 437.482 165.566 437.061 169.406L433.202 204.427C432.874 207.396 435.225 210.187 438.822 211.592C439.449 211.588 440.074 211.541 440.695 211.451C448.403 210.243 454.276 203.396 456.374 194.377Z" fill="#163F59"/>
</svg>
