<svg width="516" height="322" viewBox="0 0 516 322" fill="none" xmlns="http://www.w3.org/2000/svg">
<path d="M60.1788 275.661C60.1788 275.661 4.0029 219.383 50.6788 158.453C92.0926 104.393 140.377 108.088 175.803 130.026C190.89 139.37 234.392 131.178 271.416 76.1689C321.909 1.15197 496.931 46.65 465.019 162.066C449.577 217.918 512.018 219.948 480.201 275.778L60.1788 275.661" fill="#EBF3FA"/>
<path d="M310.7 252.052C310.698 252.02 310.876 248.386 309.118 247.55L309.242 247.431C310.047 247.711 310.939 248.581 311.299 249.806C311.562 250.717 311.362 250.917 311.362 250.951L310.7 252.052" fill="#A4C8FC"/>
<path d="M299.043 242.634C299.043 242.634 299.645 247.312 302.501 248.682C305.358 250.051 309.391 247.593 309.391 247.593C309.391 247.593 308.79 242.915 305.933 241.545C303.075 240.175 299.043 242.634 299.043 242.634Z" fill="#A4C8FC"/>
<path d="M310.401 258.869C310.367 258.687 309.732 254.407 311.355 249.637C312.913 245.055 312.05 241.168 312.043 241.13H313.19C313.221 241.295 313.3 245.109 312.077 250.336C310.98 255.04 313.033 258.869 312.594 258.869H310.401" fill="#A4C8FC"/>
<path d="M312.809 246.235C312.814 246.211 313.363 243.075 314.835 242.717C314.176 242.802 313.34 243.274 312.872 244.15C312.525 244.802 312.646 244.986 312.641 245.011L312.809 246.235" fill="#A4C8FC"/>
<path d="M317.536 246.558C315.334 246.114 314.105 243.005 314.105 243.005C314.105 243.005 316.445 240.616 318.648 241.059C320.849 241.503 322.078 244.614 322.078 244.614C322.078 244.614 319.739 247.003 317.536 246.558Z" fill="#A4C8FC"/>
<path d="M300.431 236.425C296.925 231.111 298.398 223.964 303.722 220.462C309.046 216.962 316.203 218.433 319.709 223.748C323.216 229.064 321.743 236.211 316.419 239.711C311.095 243.211 303.936 241.741 300.431 236.425" fill="#FFB93E"/>
<path d="M304.706 221.955C300.151 224.949 298.887 231.085 301.886 235.632C304.885 240.178 311.029 241.441 315.584 238.446C320.137 235.451 321.403 229.317 318.404 224.771C315.405 220.224 309.259 218.96 304.706 221.955ZM315.929 238.969C313.583 240.512 310.775 241.051 308.024 240.484C305.274 239.919 302.907 238.319 301.361 235.976C299.816 233.634 299.277 230.831 299.843 228.084C300.409 225.337 302.014 222.974 304.361 221.431C306.707 219.889 309.513 219.351 312.266 219.917C315.016 220.482 317.38 222.084 318.926 224.426C320.472 226.767 321.01 229.57 320.445 232.318C319.879 235.065 318.276 237.427 315.929 238.969Z" fill="#FFA412"/>
<path d="M321.934 257.756L321.932 257.766L321.703 261.297L320.85 274.404H304.873L303.931 261.475L303.674 257.912L303.663 257.756H321.934" fill="#B4C9F7"/>
<path d="M321.931 257.766L321.702 261.297C320.497 260.878 317.153 259.872 312.797 259.872C307.294 259.872 303.931 261.476 303.931 261.476L303.672 257.913L321.931 257.766" fill="#9BB8EA"/>
<path d="M322.488 259.622H303.082L302.86 257.37H322.735L322.488 259.622Z" fill="#B4C9F7"/>
<path d="M321.095 275.102H304.531L304.34 274.318H321.306L321.095 275.102Z" fill="#B4C9F7"/>
<path d="M494.35 276.24H30.8376C30.5483 276.24 30.3115 276.004 30.3115 275.714V275.535C30.3115 275.247 30.5483 275.01 30.8376 275.01H494.35C494.639 275.01 494.876 275.247 494.876 275.535V275.714C494.876 276.004 494.639 276.24 494.35 276.24Z" fill="#2E3552"/>
<path d="M421.121 190.706L419.569 191.964C419.569 191.964 415.327 190.446 414.369 195.479C414.369 195.479 414.115 197.625 415.475 197.629C416.837 197.633 416.277 197.394 418.202 197.451C420.132 197.507 421.728 196.493 422.011 194.931L422.932 193.608L421.121 190.706" fill="#EA8E50"/>
<path d="M421.298 193.406C420.062 192.115 420.16 191.161 420.16 191.161C420.16 191.161 434.49 179.449 435.945 178.494C436.933 177.844 447.486 168.504 452.419 162.809C454.865 159.985 457.895 161.08 461.362 162.073L464.219 162.891C467.666 163.88 468.563 168.694 465.734 171.035C457.766 177.625 444.511 185.035 442.03 186.594C435.876 190.46 423.825 195.056 423.825 195.056C423.825 195.056 422.362 194.513 421.298 193.406" fill="#1E3D70"/>
<path d="M404.947 265.368C404.947 265.368 401.47 267.97 396.141 266.595C396.141 266.595 391.844 265.618 390.902 267.758C390.902 267.758 397.49 271.098 399.158 272.013C400.414 272.702 401.726 273.789 402.653 274.629C403.386 275.294 404.53 275.205 405.155 274.437C405.444 274.082 405.776 273.657 406.14 273.166C407.155 271.791 409.522 267.35 409.522 267.35L404.947 265.368" fill="#233862"/>
<path d="M444.618 170.333C444.618 156.927 433.732 146.059 420.306 146.059C406.878 146.059 395.991 156.927 395.991 170.333C395.991 183.74 406.878 194.609 420.306 194.609C433.732 194.609 444.618 183.74 444.618 170.333Z" fill="#E2810E"/>
<path d="M446.739 170.333C446.739 156.927 435.856 146.059 422.426 146.059C408.999 146.059 398.113 156.927 398.113 170.333C398.113 183.74 408.999 194.609 422.426 194.609C435.856 194.609 446.739 183.74 446.739 170.333Z" fill="#FFB93E"/>
<path d="M401.596 170.62C401.596 182.088 410.941 191.418 422.426 191.418C433.912 191.418 443.256 182.088 443.256 170.62C443.256 159.153 433.912 149.823 422.426 149.823C410.941 149.823 401.596 159.153 401.596 170.62ZM406.765 186.259C402.578 182.083 400.276 176.529 400.276 170.62C400.276 164.713 402.578 159.159 406.765 154.981C410.946 150.804 416.51 148.504 422.426 148.504C428.345 148.504 433.906 150.804 438.09 154.981C442.274 159.159 444.579 164.713 444.579 170.62C444.579 176.529 442.274 182.083 438.09 186.259C433.906 190.437 428.345 192.738 422.426 192.738C416.51 192.738 410.946 190.437 406.765 186.259Z" fill="#FFA412"/>
<path d="M402.906 264.046C402.906 264.046 405.023 268.921 409.91 268.025C409.91 268.025 419.884 259.801 426.726 251.258C428.947 248.484 430.84 245.675 431.952 243.105C436.489 232.617 448.731 216.977 456.517 209.049L437.041 202.013C437.041 202.013 430.801 214.544 422.5 229.935C416.517 241.026 409.465 253.602 402.906 264.046Z" fill="#2B478B"/>
<path d="M422.5 229.935L426.726 251.258C428.947 248.484 430.84 245.675 431.952 243.105C436.489 232.618 448.731 216.977 456.517 209.049L437.041 202.013C437.041 202.013 430.801 214.544 422.5 229.935Z" fill="#233862"/>
<path d="M438.42 268.197C438.42 268.197 438.633 272.087 433.91 272.607C433.91 272.607 431.21 272.62 431.205 275.096L444.93 275.139C444.93 275.139 445.327 274.141 445.425 272.001C445.499 270.359 443.832 266.065 443.832 266.065L438.42 268.197" fill="#233862"/>
<path d="M443.428 202.013C443.428 202.013 434.752 211.533 429.244 228.684C426.244 238.016 434.735 261.477 436.389 269.63C436.389 269.63 442.085 270.111 445.98 268.609C445.98 268.609 446.277 251.772 443.999 238.795C442.724 231.533 455.423 223.263 460.972 210.14C464.747 201.213 460.153 201.364 454.511 201.15L443.428 202.013" fill="#2B478B"/>
<path d="M453.445 159.54C458.273 162.262 468.156 159.752 468.156 159.752C468.156 159.752 464.143 155.171 465.967 147.792L462.176 149.714L458.103 151.779C458.103 151.779 457.842 153.082 457.658 155.422C457.612 156.025 457.569 156.698 457.54 157.434C455.062 158.184 453.445 159.54 453.445 159.54" fill="#FFB07B"/>
<path d="M435.742 201.522C435.742 202.369 436.719 202.774 436.928 202.815C438.875 203.171 444.312 205.283 449.211 205.766C453.336 206.197 457.163 205.788 461.37 204.945C461.926 204.832 463.233 204.481 463.327 203.948C463.444 203.367 479.552 171.159 467.031 157.323C466.737 156.999 464.262 157.583 462.003 158.119C459.914 158.613 457.999 158.338 456.289 157.653L454.168 158.766C451.564 160.215 446.639 165.361 446.063 169.399C445.769 171.453 444.595 172.973 444.253 174.78C444.127 175.448 443.998 176.101 443.868 176.737C443.612 177.985 443.347 179.172 443.074 180.302C442.338 183.356 441.559 185.985 440.797 188.257C439.985 190.667 439.187 192.673 438.475 194.351C437.552 196.527 436.772 198.154 436.284 199.4C435.939 200.276 435.742 200.963 435.742 201.522" fill="#D2E3FC"/>
<path d="M436.282 199.4C459.025 188.702 466.9 168.161 466.9 168.161C466.9 168.161 448.424 174.967 443.867 176.738C443.609 177.986 443.345 179.172 443.073 180.302C442.337 183.357 441.558 185.985 440.796 188.257C439.983 190.668 439.186 192.673 438.473 194.351C437.551 196.528 436.772 198.154 436.282 199.4" fill="#A4C8FC"/>
<path d="M422.979 193.2L421.013 193.919C421.013 193.919 417.08 191.141 414.629 195.66C414.629 195.66 413.742 197.634 415.144 198.062C416.549 198.49 416.039 198.088 418.008 198.743C419.98 199.398 421.923 198.927 422.67 197.519L424.004 196.542L422.979 193.2Z" fill="#FFB07B"/>
<path d="M421.36 195.974C420.635 194.082 420.305 193.224 420.305 193.224C420.305 193.224 435.151 181.141 436.666 180.104C437.695 179.397 447.959 171.737 452.963 165.767C455.447 162.806 459.361 161.452 463.146 162.244L466.262 162.898C470.026 163.685 471.249 168.443 468.329 170.941C460.107 177.98 446.238 186.143 443.651 187.842C437.233 192.057 423.034 197.964 423.034 197.964C423.034 197.964 421.933 197.462 421.36 195.974Z" fill="#D2E3FC"/>
<path d="M457.654 155.423C462.403 155.689 465.491 151.775 465.491 151.775C465.491 151.775 463.343 150.588 462.175 149.714L458.103 151.779C458.103 151.779 457.84 153.082 457.654 155.423" fill="#EA8E50"/>
<path d="M455.635 150.555C455.635 150.555 462.827 155.709 465.973 151.187C469.119 146.665 472.166 144.285 467.708 140.803C463.247 137.321 461.144 138.421 459.728 139.675C458.311 140.93 453.845 149.098 455.635 150.555" fill="#FFB07B"/>
<path d="M458.967 135.592C459.224 133.853 459.803 132.63 459.803 132.63C459.803 132.63 460.256 134.497 463.673 134.24C467.09 133.982 472.506 134.575 474.312 138.463C474.429 138.711 474.528 138.966 474.622 139.226C474.949 138.364 475.025 137.072 475.025 137.072C475.677 138.746 475.025 140.84 475.025 140.84C475.037 140.901 475.043 140.962 475.055 141.023C475.806 141.66 476.44 143.639 476.44 143.639C476.212 143.087 475.657 142.727 475.163 142.505C475.177 145.531 473.95 148.488 471.793 149.369C468.639 150.656 468.662 149.674 465.491 151.775C465.491 151.775 464.64 150.721 465.222 150.013C465.801 149.304 467.993 148.274 466.768 147.244C465.543 146.214 465.09 147.373 464.64 146.665C464.19 145.957 466.447 143.897 463.544 141.965C460.642 140.034 458.71 137.33 458.967 135.592" fill="#233862"/>
<path d="M149.242 271.135V273.942C149.242 274.164 149.161 274.371 149.022 274.544C148.875 274.726 148.664 274.869 148.416 274.949C148.341 274.974 148.262 274.993 148.18 275.004C148.106 275.015 148.031 275.022 147.953 275.022H94.6572C93.9701 275.022 93.404 274.565 93.3691 273.996C93.3685 273.979 93.3677 273.959 93.3677 273.942V271.135C93.3677 271.118 93.3685 271.098 93.3691 271.081C93.404 270.511 93.9701 270.053 94.6572 270.053H147.953C148.031 270.053 148.106 270.06 148.18 270.071C148.262 270.084 148.341 270.102 148.416 270.127C148.664 270.208 148.875 270.35 149.022 270.532C149.161 270.704 149.242 270.912 149.242 271.135" fill="#FFB93E"/>
<path d="M123.071 275.022H94.519C93.9059 275.022 93.4006 274.565 93.3691 273.996C93.3685 273.979 93.3677 273.959 93.3677 273.942V271.135C93.3677 271.118 93.3685 271.098 93.3691 271.081C93.4006 270.511 93.9059 270.053 94.519 270.053H119.565C119.965 271.517 120.897 273.539 123.071 275.022" fill="#FFA412"/>
<path d="M142.757 275.022H142.151V270.055H142.757V275.022Z" fill="#FFA412"/>
<path d="M140.707 275.022H140.101V270.055H140.707V275.022Z" fill="#FFA412"/>
<path d="M138.248 275.022H137.643V270.055H138.248V275.022Z" fill="#FFA412"/>
<path d="M134.479 275.022H133.874V270.055H134.479V275.022Z" fill="#FFA412"/>
<path d="M130.494 275.022H129.888V270.055H130.494V275.022Z" fill="#FFA412"/>
<path d="M124.384 275.022H123.778V270.055H124.384V275.022Z" fill="#FFA412"/>
<path d="M118.663 275.022H118.058V270.055H118.663V275.022Z" fill="#FFA412"/>
<path d="M113.555 275.022H112.949V270.055H113.555V275.022Z" fill="#FFA412"/>
<path d="M144.709 275.022H144.104V270.055H144.709V275.022Z" fill="#FFA412"/>
<path d="M145.998 275.022H145.393V270.055H145.998V275.022Z" fill="#FFA412"/>
<path d="M147.243 275.022H146.638V270.055H147.243V275.022Z" fill="#FFA412"/>
<path d="M148.181 270.071V275.004C148.107 275.015 148.031 275.022 147.953 275.022H147.575V270.053H147.953C148.031 270.053 148.107 270.06 148.181 270.071Z" fill="#FFA412"/>
<path d="M149.022 270.532V274.544C148.875 274.726 148.664 274.869 148.417 274.949V270.128C148.664 270.208 148.875 270.35 149.022 270.532" fill="#FFA412"/>
<path d="M143.544 266.168V268.973C143.544 269.197 143.463 269.405 143.323 269.577C143.176 269.759 142.965 269.9 142.718 269.981C142.642 270.007 142.563 270.024 142.482 270.037C142.408 270.049 142.332 270.053 142.254 270.053H88.9588C88.2717 270.053 87.7057 269.598 87.6707 269.028C87.6699 269.01 87.6694 268.992 87.6694 268.973V266.168C87.6694 266.149 87.6699 266.13 87.6707 266.112C87.7057 265.544 88.2717 265.086 88.9588 265.086H142.254C142.289 265.086 142.323 265.088 142.357 265.09C142.371 265.091 142.386 265.091 142.4 265.093C142.416 265.095 142.432 265.096 142.448 265.099C142.459 265.099 142.471 265.103 142.482 265.104C142.563 265.115 142.642 265.135 142.718 265.159C142.729 265.164 142.74 265.167 142.751 265.17C142.762 265.175 142.773 265.178 142.784 265.183C142.805 265.191 142.828 265.199 142.849 265.209C142.861 265.214 142.874 265.22 142.886 265.227C142.898 265.231 142.908 265.236 142.919 265.243C142.939 265.252 142.959 265.264 142.979 265.275C143.002 265.288 143.024 265.302 143.046 265.317C143.063 265.326 143.079 265.338 143.096 265.351C143.096 265.351 143.098 265.351 143.098 265.352C143.109 265.36 143.121 265.368 143.131 265.376C143.164 265.402 143.196 265.429 143.225 265.458C143.234 265.466 143.242 265.474 143.25 265.483C143.259 265.491 143.267 265.5 143.275 265.508C143.292 265.528 143.308 265.545 143.323 265.565C143.463 265.737 143.544 265.945 143.544 266.168" fill="#FFB93E"/>
<path d="M117.373 270.053H88.8206C88.2069 270.053 87.7022 269.598 87.6707 269.028C87.6699 269.01 87.6694 268.992 87.6694 268.973V266.168C87.6694 266.149 87.6699 266.13 87.6707 266.112C87.7022 265.544 88.2069 265.086 88.8206 265.086H113.866C113.877 265.127 113.889 265.167 113.901 265.209C114.319 266.659 115.258 268.612 117.373 270.053" fill="#FFA412"/>
<path d="M137.059 270.053H136.453V265.086H137.059V270.053Z" fill="#FFA412"/>
<path d="M135.009 270.053H134.403V265.086H135.009V270.053Z" fill="#FFA412"/>
<path d="M132.55 270.053H131.944V265.086H132.55V270.053Z" fill="#FFA412"/>
<path d="M128.781 270.053H128.175V265.086H128.781V270.053Z" fill="#FFA412"/>
<path d="M124.796 270.053H124.19V265.086H124.796V270.053Z" fill="#FFA412"/>
<path d="M118.686 270.053H118.08V265.086H118.686V270.053Z" fill="#FFA412"/>
<path d="M112.965 270.053H112.359V265.086H112.965V270.053Z" fill="#FFA412"/>
<path d="M107.857 270.053H107.251V265.086H107.857V270.053Z" fill="#FFA412"/>
<path d="M139.011 270.053H138.405V265.086H139.011V270.053Z" fill="#FFA412"/>
<path d="M140.3 270.053H139.694V265.086H140.3V270.053Z" fill="#FFA412"/>
<path d="M141.545 270.053H140.939V265.086H141.545V270.053Z" fill="#FFA412"/>
<path d="M142.482 265.104V270.037C142.408 270.049 142.333 270.053 142.255 270.053H141.876V265.086H142.255C142.333 265.086 142.408 265.093 142.482 265.104Z" fill="#FFA412"/>
<path d="M143.323 265.565V269.577C143.176 269.759 142.965 269.9 142.718 269.981V265.159C142.965 265.24 143.176 265.383 143.323 265.565" fill="#FFA412"/>
<path d="M146.298 261.322V264.129C146.298 264.351 146.216 264.558 146.076 264.731C145.93 264.913 145.719 265.056 145.471 265.136C145.396 265.161 145.317 265.18 145.235 265.191C145.161 265.202 145.086 265.209 145.008 265.209H91.7124C91.4985 265.209 91.296 265.165 91.1178 265.087C90.7407 264.921 90.4712 264.604 90.4285 264.232C90.4264 264.215 90.4249 264.199 90.4243 264.183C90.4235 264.166 90.4229 264.146 90.4229 264.129V261.322C90.4229 261.305 90.4235 261.285 90.4243 261.266C90.4591 260.698 91.0251 260.24 91.7124 260.24H145.008C145.086 260.24 145.161 260.247 145.235 260.258C145.317 260.271 145.396 260.289 145.471 260.314C145.719 260.393 145.93 260.537 146.076 260.719C146.216 260.891 146.298 261.099 146.298 261.322Z" fill="#FFB93E"/>
<path d="M120.127 265.209H91.574C91.3829 265.209 91.2027 265.165 91.0437 265.087C90.7065 264.921 90.4664 264.604 90.4285 264.232C90.4264 264.215 90.4249 264.199 90.4243 264.183C90.4235 264.166 90.4229 264.146 90.4229 264.129V261.322C90.4229 261.305 90.4235 261.285 90.4243 261.266C90.4556 260.698 90.9611 260.24 91.574 260.24H116.62C117.009 261.664 117.902 263.617 119.951 265.087C120.009 265.128 120.067 265.169 120.127 265.209" fill="#FFA412"/>
<path d="M139.813 265.209H139.207V260.24H139.813V265.209Z" fill="#FFA412"/>
<path d="M137.762 265.209H137.157V260.24H137.762V265.209Z" fill="#FFA412"/>
<path d="M135.303 265.209H134.698V260.24H135.303V265.209Z" fill="#FFA412"/>
<path d="M131.534 265.209H130.929V260.24H131.534V265.209Z" fill="#FFA412"/>
<path d="M127.549 265.209H126.943V260.24H127.549V265.209Z" fill="#FFA412"/>
<path d="M121.439 265.209H120.833V260.24H121.439V265.209Z" fill="#FFA412"/>
<path d="M115.719 265.209H115.113V260.24H115.719V265.209Z" fill="#FFA412"/>
<path d="M110.611 265.209H110.005V260.24H110.611V265.209Z" fill="#FFA412"/>
<path d="M141.764 265.209H141.159V260.24H141.764V265.209Z" fill="#FFA412"/>
<path d="M143.054 265.209H142.448V260.24H143.054V265.209Z" fill="#FFA412"/>
<path d="M144.299 265.209H143.693V260.24H144.299V265.209Z" fill="#FFA412"/>
<path d="M145.236 260.258V265.191C145.162 265.202 145.086 265.209 145.008 265.209H144.63V260.24H145.008C145.086 260.24 145.162 260.247 145.236 260.258Z" fill="#FFA412"/>
<path d="M146.077 260.719V264.731C145.93 264.913 145.719 265.056 145.472 265.136V260.315C145.719 260.393 145.93 260.537 146.077 260.719" fill="#FFA412"/>
<path d="M147.574 256.354V259.16C147.574 259.384 147.493 259.592 147.353 259.764C147.207 259.946 146.996 260.088 146.748 260.168C146.673 260.194 146.593 260.211 146.512 260.224C146.438 260.236 146.363 260.24 146.285 260.24H92.9892C92.3021 260.24 91.7361 259.785 91.7012 259.215C91.7005 259.197 91.6997 259.178 91.6997 259.16V256.354C91.6997 256.336 91.7005 256.317 91.7012 256.299C91.7332 255.773 92.2201 255.343 92.8367 255.282C92.8867 255.275 92.9371 255.274 92.9892 255.274H146.285C146.363 255.274 146.438 255.28 146.512 255.291C146.593 255.303 146.673 255.322 146.748 255.346C146.996 255.427 147.207 255.57 147.353 255.752C147.493 255.924 147.574 256.132 147.574 256.354" fill="#FFB93E"/>
<path d="M121.403 260.24H92.8509C92.238 260.24 91.7324 259.785 91.7012 259.215C91.7005 259.197 91.6997 259.178 91.6997 259.16V256.354C91.6997 256.336 91.7005 256.317 91.7012 256.299C91.7297 255.773 92.1644 255.343 92.7148 255.282C92.759 255.275 92.8046 255.274 92.8509 255.274H117.897C117.898 255.275 117.898 255.278 117.899 255.282C118.3 256.742 119.233 258.761 121.403 260.24Z" fill="#FFA412"/>
<path d="M141.089 260.24H140.483V255.274H141.089V260.24Z" fill="#FFA412"/>
<path d="M139.039 260.24H138.433V255.274H139.039V260.24Z" fill="#FFA412"/>
<path d="M136.58 260.24H135.974V255.274H136.58V260.24Z" fill="#FFA412"/>
<path d="M132.811 260.24H132.206V255.274H132.811V260.24Z" fill="#FFA412"/>
<path d="M128.826 260.24H128.22V255.274H128.826V260.24Z" fill="#FFA412"/>
<path d="M122.716 260.24H122.11V255.274H122.716V260.24Z" fill="#FFA412"/>
<path d="M116.995 260.24H116.39V255.274H116.995V260.24Z" fill="#FFA412"/>
<path d="M111.887 260.24H111.281V255.274H111.887V260.24Z" fill="#FFA412"/>
<path d="M143.041 260.24H142.435V255.274H143.041V260.24Z" fill="#FFA412"/>
<path d="M144.33 260.24H143.725V255.274H144.33V260.24Z" fill="#FFA412"/>
<path d="M145.575 260.24H144.97V255.274H145.575V260.24Z" fill="#FFA412"/>
<path d="M146.512 255.291V260.224C146.438 260.236 146.362 260.24 146.285 260.24H145.906V255.274H146.285C146.362 255.274 146.438 255.278 146.512 255.291Z" fill="#FFA412"/>
<path d="M147.353 255.75V259.764C147.206 259.946 146.996 260.087 146.748 260.168V255.346C146.996 255.427 147.206 255.57 147.353 255.75Z" fill="#FFA412"/>
<path d="M143.656 251.395V254.2C143.656 254.423 143.575 254.631 143.435 254.803C143.288 254.985 143.077 255.129 142.83 255.209C142.754 255.233 142.675 255.253 142.594 255.264C142.569 255.267 142.544 255.27 142.519 255.274C142.505 255.275 142.491 255.275 142.477 255.277C142.464 255.278 142.449 255.278 142.435 255.28C142.412 255.28 142.389 255.282 142.367 255.282H89.0708C88.3837 255.282 87.8175 254.824 87.7827 254.256C87.7821 254.237 87.7812 254.219 87.7812 254.2V251.395C87.7812 251.376 87.7821 251.358 87.7827 251.339C87.7835 251.324 87.7848 251.308 87.7862 251.294C87.8375 250.836 88.2339 250.458 88.7529 250.347C88.7657 250.344 88.7792 250.342 88.792 250.339C88.8819 250.323 88.9753 250.313 89.0708 250.313H142.367C142.406 250.313 142.444 250.315 142.482 250.318C142.499 250.32 142.516 250.321 142.533 250.323H142.534C142.554 250.324 142.574 250.328 142.594 250.331C142.675 250.342 142.754 250.361 142.83 250.386C143.077 250.466 143.288 250.609 143.435 250.791C143.575 250.964 143.656 251.171 143.656 251.395" fill="#FFB93E"/>
<path d="M117.485 255.282H88.9326C88.3195 255.282 87.814 254.824 87.7827 254.256C87.7821 254.237 87.7812 254.219 87.7812 254.2V251.395C87.7812 251.376 87.7821 251.358 87.7827 251.339C87.7835 251.324 87.7848 251.308 87.7862 251.294C87.8327 250.825 88.2011 250.442 88.6794 250.341C88.6959 250.336 88.7121 250.333 88.7286 250.331C88.7949 250.32 88.8626 250.313 88.9326 250.313H113.979C113.981 250.326 113.985 250.337 113.989 250.349C114.393 251.806 115.325 253.804 117.474 255.274C117.477 255.275 117.481 255.278 117.485 255.282" fill="#FFA412"/>
<path d="M137.171 255.282H136.565V250.313H137.171V255.282Z" fill="#FFA412"/>
<path d="M135.12 255.282H134.515V250.313H135.12V255.282Z" fill="#FFA412"/>
<path d="M132.662 255.282H132.056V250.313H132.662V255.282Z" fill="#FFA412"/>
<path d="M128.893 255.282H128.287V250.313H128.893V255.282Z" fill="#FFA412"/>
<path d="M124.907 255.282H124.302V250.313H124.907V255.282Z" fill="#FFA412"/>
<path d="M118.798 255.282H118.192V250.313H118.798V255.282Z" fill="#FFA412"/>
<path d="M113.077 255.282H112.472V250.313H113.077V255.282Z" fill="#FFA412"/>
<path d="M107.969 255.282H107.363V250.313H107.969V255.282Z" fill="#FFA412"/>
<path d="M139.123 255.282H138.517V250.313H139.123V255.282Z" fill="#FFA412"/>
<path d="M140.412 255.282H139.807V250.313H140.412V255.282Z" fill="#FFA412"/>
<path d="M141.657 255.282H141.051V250.313H141.657V255.282Z" fill="#FFA412"/>
<path d="M142.594 250.331V255.264C142.52 255.275 142.444 255.282 142.367 255.282H141.988V250.313H142.367C142.444 250.313 142.52 250.32 142.594 250.331Z" fill="#FFA412"/>
<path d="M143.435 250.791V254.804C143.288 254.985 143.077 255.129 142.83 255.208V250.386C143.077 250.466 143.288 250.609 143.435 250.791Z" fill="#FFA412"/>
<path d="M143.544 246.462V249.268C143.544 249.491 143.463 249.698 143.323 249.87C143.176 250.052 142.965 250.196 142.718 250.276C142.659 250.296 142.597 250.312 142.534 250.323H142.532C142.515 250.326 142.499 250.329 142.482 250.331C142.408 250.342 142.332 250.349 142.254 250.349H88.9588C88.9025 250.349 88.8461 250.345 88.7919 250.339C88.7706 250.337 88.7492 250.334 88.7285 250.331C88.149 250.242 87.7014 249.827 87.6707 249.323C87.6699 249.305 87.6694 249.286 87.6694 249.268V246.462C87.6694 246.444 87.6699 246.425 87.6707 246.407C87.7057 245.837 88.2717 245.38 88.9588 245.38H142.254C142.289 245.38 142.323 245.382 142.357 245.385C142.371 245.387 142.386 245.387 142.4 245.388C142.416 245.39 142.432 245.391 142.448 245.393C142.459 245.395 142.471 245.396 142.482 245.398C142.563 245.411 142.642 245.429 142.718 245.454C142.729 245.457 142.74 245.461 142.751 245.466C142.762 245.469 142.773 245.474 142.784 245.477C142.806 245.485 142.828 245.495 142.849 245.504C142.873 245.514 142.896 245.525 142.919 245.536C142.939 245.548 142.959 245.557 142.979 245.569C143.002 245.583 143.024 245.596 143.046 245.61C143.063 245.622 143.079 245.633 143.096 245.644C143.096 245.646 143.098 245.646 143.098 245.647C143.109 245.656 143.121 245.664 143.131 245.672C143.164 245.696 143.196 245.725 143.225 245.752C143.234 245.76 143.242 245.768 143.25 245.778C143.259 245.786 143.267 245.794 143.275 245.804C143.292 245.821 143.308 245.841 143.323 245.858C143.463 246.031 143.544 246.238 143.544 246.462" fill="#FFB93E"/>
<path d="M117.373 250.349H88.8206C88.7977 250.349 88.7748 250.349 88.7529 250.347C88.7279 250.345 88.7037 250.344 88.6793 250.341C88.1304 250.278 87.6993 249.848 87.6707 249.323C87.6699 249.305 87.6694 249.286 87.6694 249.268V246.462C87.6694 246.444 87.6699 246.425 87.6707 246.407C87.7022 245.837 88.2069 245.38 88.8206 245.38H113.866C113.877 245.422 113.889 245.462 113.901 245.504C114.316 246.944 115.243 248.875 117.322 250.313C117.339 250.326 117.356 250.337 117.373 250.349" fill="#FFA412"/>
<path d="M137.059 250.349H136.453V245.382H137.059V250.349Z" fill="#FFA412"/>
<path d="M135.009 250.349H134.403V245.382H135.009V250.349Z" fill="#FFA412"/>
<path d="M132.55 250.349H131.944V245.382H132.55V250.349Z" fill="#FFA412"/>
<path d="M128.781 250.349H128.175V245.382H128.781V250.349Z" fill="#FFA412"/>
<path d="M124.796 250.349H124.19V245.382H124.796V250.349Z" fill="#FFA412"/>
<path d="M118.686 250.349H118.08V245.382H118.686V250.349Z" fill="#FFA412"/>
<path d="M112.965 250.349H112.359V245.382H112.965V250.349Z" fill="#FFA412"/>
<path d="M107.857 250.349H107.251V245.382H107.857V250.349Z" fill="#FFA412"/>
<path d="M139.011 250.349H138.405V245.382H139.011V250.349Z" fill="#FFA412"/>
<path d="M140.3 250.349H139.694V245.382H140.3V250.349Z" fill="#FFA412"/>
<path d="M141.545 250.349H140.939V245.382H141.545V250.349Z" fill="#FFA412"/>
<path d="M142.482 245.398V250.331C142.408 250.342 142.333 250.349 142.255 250.349H141.876V245.382H142.255C142.333 245.382 142.408 245.387 142.482 245.398Z" fill="#FFA412"/>
<path d="M143.323 245.858V249.87C143.176 250.052 142.965 250.196 142.718 250.276V245.454C142.965 245.535 143.176 245.676 143.323 245.858Z" fill="#FFA412"/>
<path d="M146.298 241.617V244.422C146.298 244.646 146.216 244.854 146.076 245.026C145.93 245.208 145.719 245.351 145.471 245.43C145.396 245.456 145.317 245.473 145.235 245.486C145.161 245.498 145.086 245.504 145.008 245.504H91.7124C91.4985 245.504 91.296 245.459 91.1178 245.38C90.7407 245.216 90.4712 244.897 90.4285 244.527C90.4264 244.511 90.4249 244.495 90.4243 244.478C90.4235 244.459 90.4229 244.441 90.4229 244.422V241.617C90.4229 241.598 90.4235 241.58 90.4243 241.561C90.4591 240.993 91.0251 240.536 91.7124 240.536H145.008C145.086 240.536 145.161 240.542 145.235 240.553C145.317 240.565 145.396 240.584 145.471 240.608C145.719 240.688 145.93 240.832 146.076 241.014C146.216 241.186 146.298 241.394 146.298 241.617" fill="#FFB93E"/>
<path d="M120.127 245.504H91.574C91.3829 245.504 91.2027 245.459 91.0437 245.38C90.7065 245.216 90.4664 244.897 90.4285 244.527C90.4264 244.511 90.4249 244.495 90.4243 244.478C90.4235 244.459 90.4229 244.441 90.4229 244.422V241.617C90.4229 241.598 90.4235 241.58 90.4243 241.561C90.4556 240.993 90.9611 240.536 91.574 240.536H116.62C117.009 241.959 117.902 243.91 119.951 245.38C120.009 245.422 120.067 245.462 120.127 245.504" fill="#FFA412"/>
<path d="M139.813 245.504H139.207V240.536H139.813V245.504Z" fill="#FFA412"/>
<path d="M137.762 245.504H137.157V240.536H137.762V245.504Z" fill="#FFA412"/>
<path d="M135.303 245.504H134.698V240.536H135.303V245.504Z" fill="#FFA412"/>
<path d="M131.534 245.504H130.929V240.536H131.534V245.504Z" fill="#FFA412"/>
<path d="M127.549 245.504H126.943V240.536H127.549V245.504Z" fill="#FFA412"/>
<path d="M121.439 245.504H120.833V240.536H121.439V245.504Z" fill="#FFA412"/>
<path d="M115.719 245.504H115.113V240.536H115.719V245.504Z" fill="#FFA412"/>
<path d="M110.611 245.504H110.005V240.536H110.611V245.504Z" fill="#FFA412"/>
<path d="M141.764 245.504H141.159V240.536H141.764V245.504Z" fill="#FFA412"/>
<path d="M143.054 245.504H142.448V240.536H143.054V245.504Z" fill="#FFA412"/>
<path d="M144.299 245.504H143.693V240.536H144.299V245.504Z" fill="#FFA412"/>
<path d="M145.236 240.553V245.486C145.162 245.498 145.086 245.504 145.008 245.504H144.63V240.536H145.008C145.086 240.536 145.162 240.542 145.236 240.553Z" fill="#FFA412"/>
<path d="M146.077 241.014V245.026C145.93 245.208 145.719 245.351 145.472 245.43V240.608C145.719 240.689 145.93 240.832 146.077 241.014Z" fill="#FFA412"/>
<path d="M150.653 236.649V239.455C150.653 239.678 150.572 239.885 150.432 240.057C150.285 240.239 150.074 240.383 149.827 240.463C149.751 240.487 149.672 240.507 149.591 240.518C149.517 240.529 149.441 240.536 149.364 240.536H96.068C95.3807 240.536 94.8148 240.078 94.7798 239.51C94.7791 239.491 94.7783 239.473 94.7783 239.455V236.649C94.7783 236.631 94.7791 236.612 94.7798 236.593C94.8119 236.068 95.2987 235.638 95.9153 235.575C95.9653 235.57 96.0166 235.567 96.068 235.567H149.364C149.441 235.567 149.517 235.574 149.591 235.585C149.672 235.598 149.751 235.615 149.827 235.641C150.074 235.72 150.285 235.863 150.432 236.045C150.572 236.218 150.653 236.425 150.653 236.649" fill="#FFB93E"/>
<path d="M124.482 240.536H95.9296C95.3166 240.536 94.8112 240.078 94.7798 239.51C94.7791 239.491 94.7783 239.473 94.7783 239.455V236.649C94.7783 236.631 94.7791 236.612 94.7798 236.593C94.8083 236.068 95.2432 235.638 95.7934 235.575C95.8376 235.57 95.8832 235.567 95.9296 235.567H120.976C120.976 235.57 120.977 235.574 120.978 235.575C121.379 237.037 122.312 239.054 124.482 240.536" fill="#FFA412"/>
<path d="M144.168 240.536H143.562V235.569H144.168V240.536Z" fill="#FFA412"/>
<path d="M142.118 240.536H141.512V235.569H142.118V240.536Z" fill="#FFA412"/>
<path d="M139.659 240.536H139.053V235.569H139.659V240.536Z" fill="#FFA412"/>
<path d="M135.89 240.536H135.285V235.569H135.89V240.536Z" fill="#FFA412"/>
<path d="M131.905 240.536H131.299V235.569H131.905V240.536Z" fill="#FFA412"/>
<path d="M125.795 240.536H125.189V235.569H125.795V240.536Z" fill="#FFA412"/>
<path d="M120.074 240.536H119.469V235.569H120.074V240.536Z" fill="#FFA412"/>
<path d="M114.966 240.536H114.36V235.569H114.966V240.536Z" fill="#FFA412"/>
<path d="M146.12 240.536H145.514V235.569H146.12V240.536Z" fill="#FFA412"/>
<path d="M147.409 240.536H146.804V235.569H147.409V240.536Z" fill="#FFA412"/>
<path d="M148.655 240.536H148.049V235.569H148.655V240.536Z" fill="#FFA412"/>
<path d="M149.591 235.585V240.518C149.517 240.529 149.442 240.536 149.364 240.536H148.985V235.567H149.364C149.442 235.567 149.517 235.574 149.591 235.585Z" fill="#FFA412"/>
<path d="M150.432 236.045V240.057C150.285 240.239 150.074 240.383 149.827 240.463V235.641C150.074 235.72 150.285 235.863 150.432 236.045Z" fill="#FFA412"/>
<path d="M143.656 231.689V234.495C143.656 234.719 143.575 234.925 143.435 235.099C143.288 235.281 143.077 235.422 142.83 235.503C142.754 235.529 142.675 235.546 142.594 235.559C142.569 235.562 142.544 235.566 142.519 235.567C142.499 235.57 142.479 235.572 142.459 235.572C142.449 235.574 142.439 235.574 142.429 235.575C142.409 235.575 142.388 235.575 142.367 235.575H89.0708C88.3837 235.575 87.8175 235.12 87.7827 234.55C87.7821 234.532 87.7812 234.513 87.7812 234.495V231.689C87.7812 231.671 87.7821 231.652 87.7827 231.634C87.8175 231.064 88.3837 230.609 89.0708 230.609H142.367C142.389 230.609 142.412 230.609 142.435 230.61C142.489 230.612 142.542 230.618 142.594 230.625C142.675 230.637 142.754 230.655 142.83 230.681C142.868 230.694 142.906 230.707 142.942 230.723C142.965 230.732 142.987 230.742 143.008 230.753C143.01 230.753 143.013 230.755 143.015 230.757C143.037 230.766 143.059 230.778 143.08 230.79C143.084 230.792 143.088 230.795 143.091 230.797C143.111 230.807 143.13 230.819 143.149 230.832C143.194 230.86 143.237 230.892 143.277 230.926C143.29 230.935 143.302 230.947 143.313 230.958C143.315 230.959 143.318 230.961 143.32 230.963C143.328 230.969 143.334 230.976 143.342 230.984C143.343 230.985 143.344 230.987 143.346 230.987C143.359 231 143.372 231.013 143.384 231.027C143.402 231.046 143.419 231.066 143.435 231.085C143.575 231.259 143.656 231.465 143.656 231.689" fill="#FFB93E"/>
<path d="M117.485 235.575H88.9326C88.3195 235.575 87.814 235.12 87.7827 234.55C87.7821 234.532 87.7812 234.513 87.7812 234.495V231.689C87.7812 231.671 87.7821 231.652 87.7827 231.634C87.814 231.064 88.3195 230.609 88.9326 230.609H113.979C113.989 230.646 113.999 230.684 114.011 230.723C114.427 232.172 115.364 234.125 117.474 235.567C117.477 235.57 117.481 235.574 117.485 235.575" fill="#FFA412"/>
<path d="M137.171 235.575H136.565V230.609H137.171V235.575Z" fill="#FFA412"/>
<path d="M135.12 235.575H134.515V230.609H135.12V235.575Z" fill="#FFA412"/>
<path d="M132.662 235.575H132.056V230.609H132.662V235.575Z" fill="#FFA412"/>
<path d="M128.893 235.575H128.287V230.609H128.893V235.575Z" fill="#FFA412"/>
<path d="M124.907 235.575H124.302V230.609H124.907V235.575Z" fill="#FFA412"/>
<path d="M118.798 235.575H118.192V230.609H118.798V235.575Z" fill="#FFA412"/>
<path d="M113.077 235.575H112.472V230.609H113.077V235.575Z" fill="#FFA412"/>
<path d="M107.969 235.575H107.363V230.609H107.969V235.575Z" fill="#FFA412"/>
<path d="M139.123 235.575H138.517V230.609H139.123V235.575Z" fill="#FFA412"/>
<path d="M140.412 235.575H139.807V230.609H140.412V235.575Z" fill="#FFA412"/>
<path d="M141.657 235.575H141.051V230.609H141.657V235.575Z" fill="#FFA412"/>
<path d="M142.594 230.625V235.559C142.52 235.57 142.444 235.575 142.367 235.575H141.988V230.609H142.367C142.444 230.609 142.52 230.613 142.594 230.625Z" fill="#FFA412"/>
<path d="M143.435 231.085V235.099C143.288 235.281 143.077 235.422 142.83 235.503V230.681C143.077 230.761 143.288 230.905 143.435 231.085Z" fill="#FFA412"/>
<path d="M147.574 226.836V229.642C147.574 229.865 147.493 230.072 147.353 230.244C147.207 230.426 146.996 230.57 146.748 230.65C146.673 230.674 146.593 230.694 146.512 230.705C146.438 230.716 146.363 230.723 146.285 230.723H92.9892C92.7825 230.723 92.5864 230.681 92.4132 230.608C92.0248 230.444 91.7468 230.121 91.7047 229.741C91.7033 229.728 91.7018 229.712 91.7012 229.697C91.7005 229.678 91.6997 229.66 91.6997 229.642V226.836C91.6997 226.817 91.7005 226.799 91.7012 226.78C91.7332 226.253 92.2201 225.825 92.8367 225.762C92.8867 225.757 92.9371 225.754 92.9892 225.754H146.285C146.363 225.754 146.438 225.761 146.512 225.772C146.593 225.785 146.673 225.803 146.748 225.828C146.996 225.907 147.207 226.05 147.353 226.232C147.493 226.405 147.574 226.612 147.574 226.836" fill="#FFB93E"/>
<path d="M121.403 230.723H92.8509C92.6662 230.723 92.4916 230.681 92.337 230.608C91.9898 230.444 91.7424 230.121 91.7047 229.741C91.7033 229.728 91.7018 229.712 91.7012 229.697C91.7005 229.678 91.6997 229.66 91.6997 229.642V226.836C91.6997 226.817 91.7005 226.799 91.7012 226.78C91.7297 226.255 92.1644 225.825 92.7148 225.762C92.759 225.757 92.8046 225.754 92.8509 225.754H117.897C117.898 225.757 117.898 225.761 117.899 225.762C118.29 227.187 119.186 229.14 121.24 230.608C121.293 230.647 121.348 230.686 121.403 230.723" fill="#FFA412"/>
<path d="M141.089 230.723H140.483V225.754H141.089V230.723Z" fill="#FFA412"/>
<path d="M139.039 230.723H138.433V225.754H139.039V230.723Z" fill="#FFA412"/>
<path d="M136.58 230.723H135.974V225.754H136.58V230.723Z" fill="#FFA412"/>
<path d="M132.811 230.723H132.206V225.754H132.811V230.723" fill="#FFA412"/>
<path d="M128.826 230.723H128.22V225.754H128.826V230.723Z" fill="#FFA412"/>
<path d="M122.716 230.723H122.11V225.754H122.716V230.723Z" fill="#FFA412"/>
<path d="M116.995 230.723H116.39V225.754H116.995V230.723Z" fill="#FFA412"/>
<path d="M111.887 230.723H111.281V225.754H111.887V230.723Z" fill="#FFA412"/>
<path d="M143.041 230.723H142.435V225.754H143.041V230.723Z" fill="#FFA412"/>
<path d="M144.33 230.723H143.725V225.754H144.33V230.723Z" fill="#FFA412"/>
<path d="M145.575 230.723H144.97V225.754H145.575V230.723Z" fill="#FFA412"/>
<path d="M146.512 225.772V230.705C146.438 230.716 146.362 230.723 146.285 230.723H145.906V225.754H146.285C146.362 225.754 146.438 225.761 146.512 225.772Z" fill="#FFA412"/>
<path d="M147.353 226.232V230.245C147.206 230.426 146.996 230.57 146.748 230.65V225.828C146.996 225.907 147.206 226.05 147.353 226.232Z" fill="#FFA412"/>
<path d="M149.242 221.876V224.682C149.242 224.906 149.161 225.112 149.022 225.286C148.875 225.466 148.664 225.609 148.416 225.69C148.341 225.716 148.262 225.733 148.18 225.746C148.155 225.749 148.13 225.753 148.105 225.754C148.092 225.756 148.078 225.757 148.064 225.759C148.05 225.759 148.036 225.761 148.021 225.761C147.999 225.762 147.976 225.762 147.953 225.762H94.6572C93.9701 225.762 93.404 225.307 93.3691 224.737C93.3683 224.719 93.3677 224.7 93.3677 224.682V221.876C93.3677 221.858 93.3683 221.839 93.3691 221.821C93.404 221.251 93.9701 220.795 94.6572 220.795H147.953C148.031 220.795 148.106 220.8 148.18 220.811C148.262 220.824 148.341 220.842 148.416 220.868C148.664 220.948 148.875 221.09 149.022 221.272C149.161 221.446 149.242 221.652 149.242 221.876" fill="#FFB93E"/>
<path d="M123.071 225.762H94.519C93.9059 225.762 93.4006 225.307 93.3691 224.737C93.3683 224.719 93.3677 224.7 93.3677 224.682V221.876C93.3677 221.858 93.3683 221.839 93.3691 221.821C93.4006 221.251 93.9059 220.795 94.519 220.795H119.565C119.964 222.256 120.894 224.273 123.06 225.754C123.064 225.757 123.068 225.761 123.071 225.762" fill="#FFA412"/>
<path d="M142.757 225.762H142.151V220.795H142.757V225.762Z" fill="#FFA412"/>
<path d="M140.707 225.762H140.101V220.795H140.707V225.762Z" fill="#FFA412"/>
<path d="M138.248 225.762H137.643V220.795H138.248V225.762Z" fill="#FFA412"/>
<path d="M134.479 225.762H133.874V220.795H134.479V225.762Z" fill="#FFA412"/>
<path d="M130.494 225.762H129.888V220.795H130.494V225.762Z" fill="#FFA412"/>
<path d="M124.384 225.762H123.778V220.795H124.384V225.762Z" fill="#FFA412"/>
<path d="M118.663 225.762H118.058V220.795H118.663V225.762Z" fill="#FFA412"/>
<path d="M113.555 220.795V225.762H112.949V220.795H113.555Z" fill="#FFA412"/>
<path d="M144.709 225.762H144.104V220.795H144.709V225.762Z" fill="#FFA412"/>
<path d="M145.998 225.762H145.393V220.795H145.998V225.762Z" fill="#FFA412"/>
<path d="M147.243 225.762H146.638V220.795H147.243V225.762Z" fill="#FFA412"/>
<path d="M148.181 220.811V225.744C148.106 225.757 148.031 225.762 147.953 225.762H147.575V220.795H147.953C148.031 220.795 148.106 220.8 148.181 220.811Z" fill="#FFA412"/>
<path d="M149.022 221.272V225.286C148.875 225.466 148.664 225.609 148.417 225.69V220.868C148.664 220.948 148.875 221.09 149.022 221.272" fill="#FFA412"/>
<path d="M64.9478 249.745C64.9478 235.777 76.2881 224.455 90.2772 224.455C104.266 224.455 115.607 235.777 115.607 249.745C115.607 263.712 104.266 275.035 90.2772 275.035C76.2881 275.035 64.9478 263.712 64.9478 249.745" fill="#E2810E"/>
<path d="M62.7383 249.745C62.7383 235.777 74.0785 224.455 88.0676 224.455C102.057 224.455 113.397 235.777 113.397 249.745C113.397 263.712 102.057 275.035 88.0676 275.035C74.0785 275.035 62.7383 263.712 62.7383 249.745" fill="#FFB93E"/>
<path d="M88.0675 228.375C76.1015 228.375 66.3665 238.096 66.3665 250.043C66.3665 261.99 76.1015 271.71 88.0675 271.71C100.034 271.71 109.769 261.99 109.769 250.043C109.769 238.096 100.034 228.375 88.0675 228.375V228.375ZM88.0675 273.085C81.9033 273.085 76.1079 270.688 71.7492 266.336C67.3903 261.984 64.9897 256.198 64.9897 250.043C64.9897 243.888 67.3903 238.103 71.7492 233.749C76.1079 229.398 81.9033 227 88.0675 227C94.232 227 100.027 229.398 104.386 233.749C108.745 238.103 111.145 243.888 111.145 250.043C111.145 256.198 108.745 261.984 104.386 266.336C100.027 270.688 94.232 273.085 88.0675 273.085Z" fill="#FFA412"/>
<path d="M134.644 215.019C132.05 219.527 128.788 221.266 128.788 221.266H115.217C115.217 221.266 136.623 211.581 134.644 215.019Z" fill="#233862"/>
<path d="M124.221 249.891C123.867 250.295 123.822 250.748 123.997 251.231C123.998 251.232 123.999 251.236 124.001 251.237C124.324 252.131 125.394 253.127 126.636 254.124C126.795 254.251 126.936 254.367 127.059 254.475C127.091 254.504 127.123 254.531 127.154 254.56C127.179 254.583 127.203 254.605 127.227 254.626C128.385 255.692 127.949 255.937 130.03 258.101C132.403 260.566 134.037 260.609 134.502 260.385C134.895 260.194 134.096 258.886 133.211 257.417C133.168 257.346 133.126 257.275 133.082 257.202C132.964 257.008 132.847 256.81 132.73 256.613C131.692 254.844 131.959 254.015 132.205 251.382C132.405 249.244 135.537 239.434 135.537 239.434L130.99 238.652C130.99 238.652 129.621 246.464 128.112 247.666C127.305 248.307 126.402 248.315 125.627 248.79C125.572 248.824 125.518 248.858 125.465 248.893C125.025 249.185 124.576 249.486 124.221 249.891" fill="#FFB27D"/>
<path d="M124.221 249.891C123.867 250.295 123.822 250.748 123.997 251.231C123.998 251.232 123.999 251.236 124.001 251.237C124.397 252.129 125.44 253.121 126.64 254.114C126.797 254.245 126.936 254.364 127.059 254.475C127.091 254.504 127.123 254.531 127.154 254.56C127.179 254.583 127.203 254.605 127.227 254.626C128.385 255.692 127.949 255.937 130.03 258.101C132.403 260.566 134.037 260.609 134.502 260.385C134.895 260.194 134.096 258.886 133.211 257.417C132.749 257.247 130.603 256.378 128.981 254.304C127.552 252.485 126.599 250.146 125.627 248.79C125.572 248.824 125.518 248.858 125.465 248.893C125.025 249.185 124.576 249.486 124.221 249.891" fill="#233862"/>
<path d="M160.887 247.055C161.168 248.457 163.169 248.223 165.404 247.678C167.639 247.132 167.108 247.781 170.29 247.428C173.469 247.077 174.434 245.892 174.53 245.42C174.618 245.002 173.045 244.854 171.36 244.661C171.147 244.636 170.935 244.609 170.722 244.583C168.817 244.345 167.424 243.118 165.696 242.112C164.057 241.157 161.613 237.271 161.613 237.271L157.25 237.615C157.25 237.615 159.539 241.088 160.425 242.597C160.946 243.485 160.918 244.659 160.853 245.565C160.819 246.058 160.787 246.562 160.887 247.055" fill="#FFB27D"/>
<path d="M165.404 247.678C167.638 247.132 167.108 247.781 170.289 247.428C173.469 247.077 174.434 245.892 174.53 245.42C174.617 245.002 173.045 244.854 171.36 244.661L171.344 244.693C171.344 244.693 169.436 246.044 166.789 246.106C164.63 246.158 162.343 245.541 160.853 245.565C160.819 246.058 160.787 246.562 160.887 247.055C161.167 248.457 163.169 248.223 165.404 247.678Z" fill="#233862"/>
<path d="M144.167 219.202L140.088 230.159L134.764 244.467C134.764 244.467 133.319 244.606 131.935 244.208C130.661 243.841 129.199 242.878 129.199 242.878C129.199 242.878 130.678 227.517 133.436 218.698C134.143 216.434 134.935 214.603 135.809 213.573C140.085 208.527 144.167 219.202 144.167 219.202Z" fill="#233862"/>
<path d="M140.02 201.799C137.348 200.938 129.728 202.044 122.072 203.539L120.469 200.899L103.934 199.611C103.934 199.611 98.4775 211.692 101.465 219.39C101.904 220.522 102.991 220.998 104.478 221.022C104.478 221.022 104.479 221.024 104.48 221.024C104.48 221.024 114.346 221.266 117.542 221.266C125.765 221.266 134.945 215.621 136.133 215.384C138.077 214.996 138.854 218.878 140.798 222.953C142.742 227.029 159.069 241.003 159.069 241.003C159.069 241.003 161.579 241.027 162.616 240.639C163.73 240.222 164.138 239.679 164.138 239.679C164.138 239.679 146.046 203.739 140.02 201.799" fill="#2B478B"/>
<path d="M118.712 152.419C117.473 151.681 116.265 151.575 115.533 151.599C115.005 151.615 114.477 151.565 113.954 151.495C107.688 150.654 103.917 159.746 103.695 162.501C103.286 167.577 100.596 168.351 96.8098 171.531C89.2175 177.907 91.4439 185.316 95.5952 188.067C98.0862 189.719 102.477 188.067 102.477 188.067C102.539 188.111 114.484 181.4 120.372 178.164C129.199 176.91 122.259 154.526 118.712 152.419" fill="#233862"/>
<path d="M115.437 175.408C115.463 175.426 112.54 176.421 110.585 175.558C108.746 174.746 107.354 171.726 107.381 171.724C108.217 171.686 109.135 170.955 109.843 166.163L110.199 166.292L116.187 168.443C116.187 168.443 115.754 170.362 115.473 172.188C115.237 173.722 115.11 175.192 115.437 175.408Z" fill="#FFB27D"/>
<path d="M116.188 168.443C116.188 168.443 115.754 170.362 115.473 172.188C112.033 171.57 110.683 168.148 110.199 166.292L116.188 168.443Z" fill="#ED975D"/>
<path d="M117.079 170.348C117.079 170.348 108.886 169.25 109.649 164.165C110.413 159.081 109.869 155.516 115.133 156.003C120.396 156.487 121.119 158.58 121.278 160.338C121.436 162.097 119.23 170.502 117.079 170.348" fill="#FFB27D"/>
<path d="M120.979 157.551C120.979 157.551 115.734 162.064 112.166 162.428C108.599 162.792 107.248 161.649 107.248 161.649C107.248 161.649 109.351 159.905 110.616 157.093C110.99 156.263 111.777 155.693 112.684 155.616C115.232 155.396 120.061 155.296 120.979 157.551Z" fill="#233862"/>
<path d="M117.701 157.147C117.701 157.147 119.455 158.841 120.008 160.098C120.541 161.311 120.701 164.21 120.276 165.362C120.276 165.362 123.01 160.053 121.462 157.476C119.821 154.74 117.701 157.147 117.701 157.147Z" fill="#233862"/>
<path d="M122.336 187.459C122.089 204.019 122.268 200.559 120.454 202.131C120.017 202.509 118.788 202.735 117.17 202.841C112.085 203.177 103.145 202.342 102.805 201.403C101.632 198.156 102.46 197.146 101.481 192.176C101.379 191.646 101.253 191.075 101.104 190.452C100.289 187.037 99.4944 185.876 102.389 180.391C105.015 175.422 107.742 171.389 107.987 171.534C114.914 175.64 115.473 172.19 115.473 172.19C115.473 172.19 122.458 179.381 122.336 187.459Z" fill="white"/>
<path d="M140.088 230.159L134.764 244.467C134.764 244.467 133.319 244.606 131.935 244.208C130.661 243.841 129.199 242.878 129.199 242.878C129.199 242.878 130.678 227.517 133.436 218.698L140.088 230.159" fill="#2B478B"/>
<path d="M115.473 172.188C115.473 172.188 122.6 173.395 123.437 176.459C124.274 179.523 129.199 197.536 129.199 197.536C129.199 197.536 125.576 198.185 123.902 196.513C122.228 194.842 118.078 181.007 118.078 181.007L115.473 172.188Z" fill="white"/>
<path d="M117.17 202.841C112.085 203.177 103.145 202.342 102.805 201.403C101.632 198.156 102.46 197.146 101.481 192.176L103.934 185.279C103.934 185.279 103.528 192.959 105.797 194.979C108.063 197 115.084 198.879 116.187 200.566C116.719 201.376 117.068 202.189 117.17 202.841" fill="#EBF3FF"/>
<path d="M111.343 199.611C111.343 199.611 116.361 198.495 117.17 198.94C117.98 199.384 119.959 201.004 120.206 201.567C120.454 202.131 118.404 201.139 117.737 200.96C117.305 200.844 116.168 201.239 115.606 201.427C113.238 202.214 111.787 201.809 111.787 201.809L111.343 199.611Z" fill="#FFB27D"/>
<path d="M107.983 171.531C107.983 171.531 101.246 171.945 98.914 175.194C95.6311 179.765 89.1184 199.249 92.8508 201.847C97.0543 204.774 111.981 202.614 111.981 202.614C111.981 202.614 112.478 200.295 111.787 199.173C111.096 198.053 99.8644 196.241 99.346 195.723C98.8277 195.206 105.826 185.63 105.826 184.078C105.826 182.526 107.983 171.531 107.983 171.531" fill="white"/>
<path d="M117.413 200.334C117.413 200.334 118.464 201.688 118.809 201.849C119.154 202.012 119.376 201.971 119.376 201.971L118.668 200.698L117.413 200.334Z" fill="#FFB27D"/>
<path d="M117.17 198.94L120.227 200.421C120.227 200.421 120.097 200.633 119.721 200.617C119.344 200.6 118.395 200.253 118.395 200.253L117.17 198.94" fill="#FFB27D"/>
<path d="M118.809 203.924H142.987L150.26 185.865H126.12L118.809 203.924Z" fill="#F99746"/>
<path d="M143.27 203.221H111.343V203.924H142.987L143.27 203.221Z" fill="#ED7D2B"/>
<path d="M136.884 194.894C137.066 194.259 136.698 193.746 136.063 193.746C135.427 193.746 134.764 194.259 134.581 194.894C134.399 195.53 134.767 196.043 135.402 196.043C136.038 196.043 136.701 195.53 136.884 194.894Z" fill="white"/>
<path d="M257.548 205.653C257.545 205.557 258.082 194.607 252.783 192.088L253.157 191.73C255.584 192.575 258.275 195.192 259.351 198.885C260.151 201.63 259.543 202.232 259.546 202.335L257.548 205.653Z" fill="#A4C8FC"/>
<path d="M243.713 183.965C243.713 183.965 243.108 189.598 246.063 191.994C249.018 194.39 254.415 192.641 254.415 192.641C254.415 192.641 255.02 187.01 252.064 184.614C249.11 182.218 243.713 183.965 243.713 183.965" fill="#A4C8FC"/>
<path d="M256.644 226.192C256.544 225.642 254.633 212.747 259.522 198.376C264.217 184.569 261.616 172.863 261.598 172.747H265.053C265.141 173.246 265.382 184.737 261.7 200.484C258.39 214.653 264.574 226.192 263.257 226.192H256.644" fill="#A4C8FC"/>
<path d="M263.904 188.125C263.92 188.051 265.57 178.603 270.008 177.528C268.025 177.785 265.504 179.204 264.094 181.844C263.047 183.807 263.415 184.364 263.395 184.441L263.904 188.125Z" fill="#A4C8FC"/>
<path d="M246.142 163.064C246.142 163.064 241.354 156.317 235.918 154.335C235.918 154.335 237.952 170.163 234.978 170.359C232.005 170.554 233.987 152.559 233.987 152.559C233.987 152.559 219.824 144.708 214.074 144.926C214.074 144.926 222.215 160.741 219.285 160.2C216.356 159.659 207.119 143.594 207.119 143.594C207.119 143.594 192.339 139.959 189.422 148.658C186.507 157.358 190.12 162.005 192.302 162.687C194.482 163.37 208.696 164.016 208.221 165.836C207.743 167.656 197.978 170.042 192.726 168.071C192.726 168.071 197.775 182.967 205.565 182.684C213.356 182.4 216.035 177.752 220.853 177.664C225.671 177.575 229.099 179.071 226.626 180.219C224.152 181.368 216.086 180.027 212.02 183.088C207.953 186.15 204.699 187.992 211.807 189.887C218.913 191.78 229.641 189.642 234.732 186.254C234.746 186.245 238.9 185.915 242.17 205.112C243.431 212.514 242.462 223.492 242.462 223.492L245.1 223.09C246.563 201.572 238.784 183.682 238.784 183.682C238.784 183.682 251.982 173.94 246.142 163.064" fill="#A4C8FC"/>
<path d="M289.301 191.465C289.301 191.465 273.401 184.795 279.091 172.66C279.091 172.66 283.885 165.061 289.662 162.594C289.662 162.594 288.389 179.874 291.627 179.911C294.861 179.95 291.652 160.554 291.652 160.554C291.652 160.554 306.546 151.21 312.793 151.108C312.793 151.108 304.896 168.735 308.042 167.977C311.187 167.217 320.255 149.257 320.255 149.257C320.255 149.257 336.067 144.446 339.742 153.708C343.418 162.969 339.773 168.221 337.447 169.087C335.123 169.955 319.747 171.491 320.373 173.438C320.997 175.382 331.725 177.396 337.306 174.951C337.306 174.951 332.709 191.399 324.243 191.548C315.78 191.698 312.601 186.815 307.372 187.003C302.143 187.192 298.512 189.013 301.262 190.112C304.013 191.214 312.679 189.285 317.268 192.366C321.859 195.446 325.497 197.253 317.902 199.724C310.305 202.195 296.237 202.778 292.769 197.122C289.301 191.465 289.301 191.465 289.301 191.465" fill="#D2E3FC"/>
<path d="M332.705 157.527C332.705 157.527 292.372 175.796 289.302 191.465C289.302 191.465 290.268 198.211 286.961 206.447L287.3 209.434C287.3 209.434 290.535 198.785 292.77 197.122C292.77 197.122 281.909 185.042 332.705 157.527" fill="#A4C8FC"/>
<path d="M286.962 206.447C286.962 206.447 281.615 216.966 286.649 228.467L288.258 227.834C288.258 227.834 285.159 214.89 287.787 207.907C290.417 200.924 286.962 206.447 286.962 206.447" fill="#A4C8FC"/>
<path d="M228.676 119.206C235.193 126.129 231.803 139.88 231.803 139.88C231.803 139.88 217.847 142.406 211.329 135.482C204.813 128.557 208.202 114.806 208.202 114.806C208.202 114.806 222.159 112.281 228.676 119.206" fill="#A4C8FC"/>
<path d="M228.677 119.206C235.193 126.129 231.803 139.88 231.803 139.88L208.203 114.806C208.203 114.806 222.159 112.281 228.677 119.206Z" fill="#D2E3FC"/>
<path d="M312.725 145.58C309.322 149.513 301.638 148.455 301.638 148.455C301.638 148.455 299.467 141.02 302.869 137.086C306.269 133.152 313.955 134.211 313.955 134.211C313.955 134.211 316.125 141.646 312.725 145.58Z" fill="#A4C8FC"/>
<path d="M272.53 180.182C270.249 180.813 267.61 178.478 267.61 178.478C267.61 178.478 268.668 175.12 270.948 174.489C273.226 173.856 275.866 176.192 275.866 176.192C275.866 176.192 274.808 179.551 272.53 180.182Z" fill="#A4C8FC"/>
<path d="M232.271 106.365C233.833 110.065 230.466 115.015 230.466 115.015C230.466 115.015 224.565 113.967 223.002 110.267C221.44 106.568 224.806 101.617 224.806 101.617C224.806 101.617 230.708 102.665 232.271 106.365Z" fill="#A4C8FC"/>
<path d="M229.148 141.98C226.749 122.955 240.252 105.588 259.309 103.193C278.363 100.798 295.755 114.28 298.156 133.305C300.555 152.331 287.052 169.696 267.997 172.092C248.94 174.487 231.549 161.007 229.148 141.98" fill="#E2810E"/>
<path d="M226.14 142.358C223.741 123.331 237.242 105.965 256.3 103.57C275.353 101.176 292.746 114.657 295.147 133.683C297.545 152.709 284.044 170.074 264.987 172.469C245.933 174.865 228.54 161.385 226.14 142.358" fill="#FFB93E"/>
<path d="M256.972 108.912C240.671 110.963 229.082 125.869 231.132 142.144C233.184 158.419 248.115 169.992 264.415 167.943C280.717 165.893 292.308 150.986 290.253 134.712C288.201 118.438 273.272 106.865 256.972 108.912ZM264.651 169.815C256.255 170.871 247.948 168.598 241.262 163.417C234.578 158.235 230.314 150.764 229.256 142.381C228.2 133.995 230.476 125.704 235.667 119.028C240.856 112.353 248.338 108.097 256.735 107.041C265.133 105.985 273.439 108.257 280.123 113.44C286.809 118.621 291.072 126.092 292.129 134.475C293.187 142.86 290.91 151.153 285.721 157.828C280.532 164.502 273.049 168.759 264.651 169.815" fill="#FFA412"/>
<path d="M291.398 222.84L291.394 222.868L290.702 233.503L288.128 272.995H239.995L237.162 234.044L236.381 223.31L236.347 222.84H291.398" fill="#739AF0"/>
<path d="M291.395 222.868L290.703 233.503C287.076 232.242 277 229.213 263.873 229.213C247.292 229.213 237.161 234.044 237.161 234.044L236.382 223.31L291.395 222.868" fill="#618DD8"/>
<path d="M293.072 228.462H234.601L233.933 221.674H293.813L293.072 228.462" fill="#739AF0"/>
<path d="M288.868 275.102H238.964L238.392 272.739H289.502L288.868 275.102Z" fill="#618DD8"/>
<path d="M202.538 253.103C202.493 252.855 201.633 247.055 203.833 240.59C205.945 234.381 204.776 229.114 204.766 229.063H206.321C206.361 229.287 206.469 234.456 204.813 241.539C203.323 247.913 206.105 253.103 205.513 253.103H202.538" fill="#A4C8FC"/>
<path d="M205.803 235.979C205.811 235.947 206.553 231.697 208.549 231.214C207.658 231.33 206.524 231.967 205.889 233.155C205.418 234.038 205.582 234.287 205.574 234.323L205.803 235.979Z" fill="#A4C8FC"/>
<path d="M202.115 234.986C202.115 234.986 200.163 231.818 197.779 230.771C197.779 230.771 198.233 237.936 196.893 237.937C195.553 237.939 196.964 229.918 196.964 229.918C196.964 229.918 190.834 225.984 188.246 225.917C188.246 225.917 191.442 233.25 190.143 232.924C188.845 232.595 185.163 225.118 185.163 225.118C185.163 225.118 178.634 223.057 177.073 226.878C175.511 230.7 176.999 232.89 177.959 233.258C178.918 233.629 185.279 234.329 185.012 235.133C184.746 235.936 180.294 236.725 177.992 235.688C177.992 235.688 179.828 242.521 183.331 242.619C186.837 242.717 188.175 240.708 190.339 240.808C192.505 240.908 194.001 241.677 192.857 242.122C191.713 242.566 188.132 241.73 186.218 242.986C184.304 244.243 182.79 244.976 185.924 246.032C189.061 247.088 193.937 246.438 196.32 245.065C196.328 245.061 198.202 245.032 199.113 253.746C199.463 257.103 198.71 262.003 198.71 262.003L199.906 261.899C201.187 252.282 198.215 244.028 198.215 244.028C198.215 244.028 204.421 240.037 202.115 234.986" fill="#A4C8FC"/>
<path d="M209.685 232.407C208.659 232.69 207.471 231.64 207.471 231.64C207.471 231.64 207.946 230.13 208.972 229.845C209.997 229.562 211.184 230.612 211.184 230.612C211.184 230.612 210.709 232.123 209.685 232.407" fill="#A4C8FC"/>
<path d="M221.48 209.319C217.9 211.66 217.929 218.031 217.929 218.031C217.929 218.031 223.765 220.604 227.346 218.263C230.928 215.922 230.897 209.551 230.897 209.551C230.897 209.551 225.061 206.978 221.48 209.319Z" fill="#A4C8FC"/>
<path d="M221.48 209.319C217.9 211.66 217.929 218.031 217.929 218.031L230.897 209.551C230.897 209.551 225.061 206.978 221.48 209.319" fill="#D2E3FC"/>
<path d="M221.266 203.325C220.192 204.779 221.142 207.299 221.142 207.299C221.142 207.299 223.833 207.461 224.907 206.008C225.981 204.555 225.031 202.036 225.031 202.036C225.031 202.036 222.34 201.871 221.266 203.325" fill="#A4C8FC"/>
<path d="M190.172 215.223C189.091 206.664 195.166 198.854 203.738 197.776C212.308 196.699 220.132 202.763 221.211 211.321C222.29 219.879 216.217 227.691 207.645 228.768C199.074 229.845 191.251 223.782 190.172 215.223Z" fill="#E2810E"/>
<path d="M188.817 215.394C187.739 206.835 193.811 199.023 202.383 197.946C210.954 196.869 218.778 202.933 219.856 211.491C220.937 220.05 214.863 227.86 206.292 228.939C197.72 230.016 189.896 223.951 188.817 215.394Z" fill="#FFB93E"/>
<path d="M202.686 200.35C195.354 201.271 190.141 207.977 191.063 215.297C191.987 222.618 198.702 227.823 206.034 226.902C213.366 225.98 218.581 219.274 217.657 211.953C216.734 204.634 210.018 199.427 202.686 200.35ZM206.14 227.744C202.364 228.219 198.627 227.197 195.62 224.865C192.613 222.534 190.696 219.174 190.22 215.403C189.744 211.631 190.768 207.901 193.103 204.9C195.436 201.897 198.803 199.981 202.58 199.506C206.356 199.033 210.092 200.054 213.1 202.385C216.107 204.716 218.024 208.076 218.5 211.847C218.976 215.619 217.952 219.35 215.617 222.352C213.283 225.353 209.917 227.269 206.14 227.744Z" fill="#FFA412"/>
<path d="M218.171 251.595L218.17 251.608L217.859 256.391L216.701 274.154H195.05L193.776 256.634L193.424 251.806L193.408 251.595H218.171Z" fill="#B4C9F7"/>
<path d="M218.17 251.608L217.859 256.391C216.227 255.824 211.694 254.461 205.791 254.461C198.333 254.461 193.776 256.634 193.776 256.634L193.424 251.806L218.17 251.608" fill="#9BB8EA"/>
<path d="M218.923 254.124H192.624L192.323 251.07H219.256L218.923 254.124" fill="#B4C9F7"/>
<path d="M217.033 275.102H194.585L194.329 274.04H217.318L217.033 275.102Z" fill="#B4C9F7"/>
<path d="M307.38 183.794C307.38 183.794 304.907 183.313 304.342 183.794C303.776 184.276 301.093 186.995 301.669 187.889C302.243 188.782 304.996 187.15 305.569 186.995C306.14 186.842 307.741 186.218 307.741 186.218L307.38 183.794Z" fill="#FFB27D"/>
<path d="M333.652 271.069L336.301 272.055C336.301 272.055 347.813 256.114 349.23 242.088C349.483 239.584 349.4 237.158 348.851 234.917C348.851 234.917 348.964 234.276 349.16 233.141C349.252 232.611 349.363 231.975 349.492 231.244C349.867 229.103 350.382 226.175 350.97 222.839C352.325 215.162 354.078 205.349 355.443 198.136L354.728 197.906L347.002 195.419L345.405 190.354L339.651 188.842C339.651 188.842 338.366 191.352 337.217 203.211C337.006 204.766 336.812 206.481 336.668 208.342C336.218 214.019 336.186 221.063 337.215 229.114C337.479 231.175 337.812 233.304 338.225 235.49C338.528 237.094 338.574 239.277 338.445 241.785C337.867 253.25 333.652 271.069 333.652 271.069" fill="#2B478B"/>
<path d="M336.668 208.342L349.161 233.141C349.252 232.611 349.364 231.975 349.492 231.244C349.867 229.103 350.382 226.175 350.971 222.839C352.325 215.162 354.078 205.349 355.443 198.136L354.728 197.906L347.002 195.419L345.406 190.354L339.651 188.842C339.651 188.842 338.367 191.352 337.217 203.211C337.006 204.766 336.812 206.481 336.668 208.342Z" fill="#233862"/>
<path d="M342.165 192.024L342.453 189.547C347.299 190.833 360.247 185.956 360.247 185.956C360.247 185.956 364.941 190.076 364.325 199.952C364.023 204.773 363.473 225.255 362.901 231.317C362.692 233.513 362.51 235.076 362.437 235.701C362.435 235.704 362.435 235.705 362.435 235.707C362.412 235.897 362.48 236.077 362.576 236.243C363.421 237.674 364.118 239.165 364.693 240.692C370.328 255.679 363.825 274.136 363.825 274.136L362.139 273.457C362.139 273.457 358.441 252.916 355.435 243.842C354.926 242.303 354.435 241.094 353.985 240.371C352.681 238.265 351.468 234.823 350.366 230.731C348.287 222.993 346.611 212.927 345.497 205.157C345.343 205.165 342.165 192.024 342.165 192.024" fill="#2B478B"/>
<path d="M307.381 183.794L307.742 186.217C307.742 186.217 307.902 186.217 308.183 186.196C309.065 186.136 311.212 186.017 313.638 185.757C317.287 185.396 321.621 184.755 323.346 183.694C325.972 182.092 330.285 177.185 333.094 172.279C333.175 172.158 333.234 172.038 333.294 171.918C334.757 169.315 335.782 166.731 335.86 164.669C335.922 163.406 335.782 162.326 335.52 161.384C335.18 160.143 334.617 159.162 334.036 158.421C333.956 158.3 333.875 158.18 333.754 158.08C332.791 156.939 331.85 156.458 331.85 156.458C331.367 156.258 330.848 156.498 330.306 157.079V157.099C329.863 157.56 329.383 158.26 328.921 159.142C328.9 159.162 328.882 159.182 328.882 159.202C328.781 159.382 328.68 159.582 328.56 159.802C328.521 159.843 328.501 159.903 328.48 159.943C328.259 160.403 328.039 160.884 327.818 161.384C325.352 166.752 322.724 174.883 320.537 177.306C319.596 178.346 315.284 180.389 311.853 181.912C309.386 182.992 307.381 183.794 307.381 183.794" fill="#FFB27D"/>
<path d="M332.907 161.987C334.428 162.692 336.267 163.172 338.488 163.293C346.818 163.748 348.711 156.457 349.054 151.617C347.852 151.183 346.801 151.224 346.195 151.256C345.604 151.289 344.989 151.349 344.479 151.412C343.46 150.88 341.629 148.299 340.571 143.98L340.212 144.146L334.201 146.968C334.201 146.968 334.839 148.921 335.312 150.79C335.68 152.252 335.944 153.665 335.723 154.061C335.25 154.253 334.965 154.374 334.965 154.374C334.965 154.374 334.965 154.376 334.963 154.38C334.903 154.534 333.597 157.859 332.907 161.987" fill="#FFB27D"/>
<path d="M330.824 167.445C330.887 167.611 330.956 167.773 331.032 167.939C333.141 172.476 337.045 191.27 337.045 191.27C336.49 194.649 362.479 190.606 362.546 187.53C363.462 184.268 359.299 179.027 356.951 176.398C356.657 176.066 356.394 175.712 356.164 175.339C355.584 174.402 355.216 173.342 355.098 172.236C354.637 167.875 354.813 163.789 354.775 161.303C354.315 160.963 353.872 160.65 353.459 160.352C352.826 159.892 352.268 159.462 351.858 159.025C351.406 158.55 351.122 158.064 351.089 157.515C351.064 157.1 351.078 156.675 351.122 156.249C351.14 156.048 351.167 155.847 351.198 155.647C351.521 153.536 352.404 151.622 352.404 151.622C350.168 150.719 346.194 151.256 346.194 151.256C346.194 151.256 346.199 151.477 346.201 151.838C346.214 153.287 346.201 157.01 345.735 157.714C345.153 158.591 334.506 162.435 333.944 161.245C333.388 160.073 334.907 154.588 334.963 154.38C334.965 154.376 334.965 154.374 334.965 154.374C331.399 155.772 330.124 156.945 330.124 156.945C332.274 158.336 329.161 163.043 330.824 167.445" fill="#F99746"/>
<path d="M337.997 128.242C338.01 127.881 338.289 123.995 344.215 123.792C344.215 123.792 341.303 124.139 340.797 125.419C340.797 125.419 342.783 123.838 344.401 124.346C346.016 124.855 346.966 127.682 346.974 128.612C346.985 129.543 346.087 132.541 345.06 132.796C344.673 132.892 344.224 132.866 343.817 132.797C344.09 133.223 344.358 133.692 344.613 134.216C346.981 139.064 344.541 143.802 342.538 143.279C341.254 142.943 340.89 145.131 340.89 145.131L328.412 135.046C328.412 135.046 332.995 125.577 337.997 128.242" fill="#2C3A64"/>
<path d="M334.201 146.97C334.201 146.97 334.841 148.921 335.311 150.791C338.826 149.812 339.89 146.125 340.212 144.148L334.201 146.97" fill="#ED985F"/>
<path d="M333.459 149.035C333.459 149.035 341.868 147.093 340.573 141.885C339.284 136.677 339.498 132.918 334.076 133.938C328.654 134.958 328.109 137.203 328.115 139.046C328.124 140.889 331.24 149.406 333.459 149.035" fill="#FFB27D"/>
<path d="M327.643 136.089C328.547 134.202 329.611 134.302 330.274 134.637C334.226 130.988 338.098 133.969 338.098 133.969C339.591 137.566 342.822 139.036 342.822 139.036C342.822 139.036 341.532 140.356 337.786 140.326C336.644 140.318 335.496 139.794 334.449 139.071C336.468 141.1 338.832 142.335 338.832 142.335C334.146 141.44 331.006 136.024 330.682 135.449C330.286 136.034 329.527 137.28 329.464 138.332C329.376 139.762 329.87 142.538 329.05 142.643C329.05 142.643 326.286 138.92 327.643 136.089" fill="#2C3A64"/>
<path d="M330.123 156.944C330.123 156.944 328.1 160.469 327.797 161.377C327.797 161.377 330.42 161.275 331.483 163.291C331.483 163.291 331.735 157.419 330.123 156.944" fill="#F99746"/>
<path d="M344.042 184.956C349.169 184.901 353.508 179.586 356.163 175.339C355.582 174.402 355.215 173.343 355.097 172.237C354.636 167.875 354.813 163.789 354.773 161.303C354.314 160.964 353.871 160.65 353.458 160.352C352.824 159.892 352.267 159.462 351.856 159.026C347.659 166.111 337.092 185.028 344.042 184.956" fill="#ED7D2B"/>
<path d="M324.669 187.739L325.371 190.302C325.371 190.302 326.252 190.143 327.656 189.882C328.076 189.801 328.318 189.742 328.318 189.742C329.441 189.521 330.784 189.222 332.249 188.901H332.271C334.778 188.299 337.584 187.58 339.951 186.778C341.615 186.197 343.06 185.577 344.043 184.955C344.144 184.896 344.222 184.836 344.323 184.756C346.671 183.054 349.459 178.047 351.624 172.679C351.927 171.938 352.206 171.198 352.487 170.476C353.49 167.793 354.292 165.151 354.774 162.868C355.075 161.506 355.275 160.263 355.317 159.242C355.334 158.882 355.356 158.542 355.334 158.221C355.295 152.413 352.406 151.613 352.406 151.613C352.347 151.592 352.286 151.572 352.206 151.553C351.704 151.472 351.183 151.813 350.643 152.474C349.96 153.295 349.239 154.636 348.497 156.258C347.353 158.842 346.149 162.187 345.027 165.511C344.403 167.332 343.801 169.155 343.202 170.837C342.86 171.858 342.52 172.819 342.197 173.701C341.576 175.384 341.015 176.744 340.514 177.606C340.191 178.167 339.269 178.948 338.046 179.829C335.92 181.371 332.812 183.234 330.104 184.756C328.981 185.397 327.917 185.978 327.037 186.457C325.611 187.238 324.669 187.739 324.669 187.739" fill="#FFB27D"/>
<path d="M348.502 156.267C352.365 155.204 355.343 158.214 355.343 158.214C355.295 152.416 352.404 151.622 352.404 151.622C351.24 151.142 349.893 153.152 348.502 156.267Z" fill="#F99746"/>
<path d="M354.016 275.511H367.366C367.366 275.511 367.686 273.481 366.989 271.939C366.321 270.461 365.275 269.789 365.525 267.999C364.677 268.872 363.294 269.848 361.365 269.588C361.128 269.971 359.838 272.019 359.049 272.586C358.176 273.212 354.287 272.99 354.016 275.511" fill="#233862"/>
<path d="M325.355 275.511H338.705C338.705 275.511 339.205 273.386 338.326 271.939C337.552 270.659 337.848 269.931 338.424 268.872C337.819 269.118 337.038 269.343 336.175 269.295C335.511 269.256 334.807 268.955 334.189 268.598C333.615 269.252 331.155 272.035 330.387 272.586C329.515 273.212 325.624 272.99 325.355 275.511Z" fill="#233862"/>
<path d="M306.698 193.353L303.092 194.831C302.11 195.231 301.595 196.296 301.847 197.296L301.46 197.454C299.992 192.363 301.783 187.229 305.81 185.582C306.375 185.35 306.958 185.197 307.546 185.123C309.401 184.88 311.332 185.377 313.07 186.459C314.719 187.486 316.192 189.04 317.253 190.99L316.722 191.207C316.2 190.322 315.084 189.923 314.105 190.323L310.494 191.801C310.211 191.114 309.543 190.697 308.839 190.697C308.617 190.697 308.388 190.74 308.17 190.829L307.67 191.033C306.764 191.405 306.327 192.447 306.698 193.353V193.353ZM323.874 199.616L320.702 191.89C320.289 190.882 319.18 190.359 318.152 190.641C317.101 188.668 315.653 187.066 314.013 185.941C312.284 184.753 310.345 184.097 308.428 184.105C307.416 184.11 306.407 184.3 305.447 184.695C300.937 186.54 298.914 192.23 300.57 197.818L300.325 197.918C300.325 197.918 299.551 197.865 298.258 197.865C294.175 197.865 284.887 198.407 278.374 202.925C278.374 202.925 277.963 203.36 277.947 204.024C277.939 204.245 277.977 204.491 278.084 204.754C278.084 204.754 288.543 197.992 298.216 204.941C298.811 205.366 299.385 205.76 299.946 206.124L300.813 208.239C302.254 211.744 306.301 213.436 309.814 212L318.673 208.375L320.518 207.62C323.646 206.34 325.156 202.738 323.874 199.616" fill="#C94C43"/>
<path d="M299.948 206.123C299.387 205.759 298.812 205.365 298.219 204.94C288.545 197.991 278.086 204.753 278.086 204.753C277.979 204.49 277.942 204.244 277.949 204.024C279.414 203.061 284.9 199.858 291.698 200.953C299.666 202.236 301.107 203.342 299.948 206.123Z" fill="#B23B38"/>
<path d="M320.518 207.62L318.673 208.375C321.44 206.866 318.011 200.492 316.008 196.284C314.003 192.077 310.971 193.999 310.971 193.999C310.277 192.589 308.789 192.666 308.789 192.666C308.709 191.307 307.67 191.033 307.67 191.033L308.17 190.829C308.388 190.74 308.617 190.697 308.839 190.697C309.543 190.697 310.211 191.114 310.494 191.801L314.105 190.323C315.084 189.923 316.199 190.322 316.722 191.207L317.253 190.99C316.191 189.04 314.719 187.486 313.07 186.459C311.332 185.377 309.401 184.88 307.546 185.123C307.835 184.89 308.148 184.563 308.428 184.106C310.345 184.098 312.284 184.753 314.013 185.941C315.653 187.066 317.101 188.668 318.152 190.641C319.18 190.359 320.289 190.882 320.702 191.89L323.873 199.616C325.156 202.738 323.646 206.34 320.518 207.62" fill="#B23B38"/>
<path d="M316.367 190.222C317.65 190.762 319.457 192.646 322.343 191.504C324.41 190.702 326.595 190.142 327.658 189.881C328.079 189.801 328.321 189.741 328.321 189.741L327.177 186.416C327.177 186.416 327.137 186.438 327.038 186.457C326.295 186.618 322.524 187.418 320.758 187.017C318.774 186.557 315.444 188.941 315.444 188.941C315.444 188.941 315.082 189.701 316.367 190.222" fill="#FFB27D"/>
<path d="M280.129 210.333C280.129 209.13 277.948 205.418 277.948 205.418C277.948 205.418 275.768 209.13 275.768 210.333C275.768 211.536 276.744 212.511 277.948 212.511C279.151 212.511 280.129 211.536 280.129 210.333Z" fill="#AFCDFB"/>
<path d="M332.922 81.4186C333.238 80.5701 333.713 79.739 334.374 78.9495C334.512 78.7811 334.685 78.6083 334.876 78.4355C335.711 77.7051 336.924 77.0424 337.87 76.8412C345.099 75.3146 349.893 83.0939 345.399 88.8195C345.322 88.9136 345.248 89.0054 345.169 89.0973C344.439 89.9633 342.924 90.8688 341.82 91.1137C341.241 91.2428 340.676 91.3106 340.133 91.328C334.696 91.4702 331.137 86.2519 332.922 81.4186V81.4186ZM339.36 66.1007L336.157 66.7962L336.081 66.8137C335.693 66.9012 335.43 67.2642 335.474 67.6579L335.761 70.3741C335.767 70.4179 335.767 70.4616 335.765 70.5054C335.743 70.8072 335.546 71.0784 335.255 71.1768C333.542 71.787 331.971 72.7274 330.627 73.9499C330.572 74.0002 330.51 74.0418 330.445 74.0724C330.199 74.1927 329.902 74.173 329.667 74.0199L327.775 72.7471C327.523 72.5809 327.201 72.5765 326.949 72.7186C326.874 72.7646 326.802 72.8214 326.741 72.8936L324.583 75.448C324.318 75.7608 324.338 76.2332 324.631 76.5241L326.782 78.6674C326.993 78.8795 327.063 79.1922 326.96 79.4744C326.82 79.8812 326.693 80.2945 326.587 80.7188C326.39 81.5149 326.27 82.3109 326.217 83.1005L326.215 83.1026C326.195 83.4329 325.976 83.7106 325.663 83.8091L322.715 84.7189L322.568 84.767C322.187 84.8807 321.955 85.2722 322.04 85.6658L322.754 88.9333C322.842 89.3291 323.214 89.6025 323.622 89.5587L326.649 89.2372C326.984 89.2022 327.308 89.386 327.444 89.69C328.042 90.9694 328.83 92.1547 329.79 93.1936C330.033 93.4604 330.061 93.8562 329.86 94.1559L328.353 96.3997C328.123 96.7431 328.191 97.1936 328.502 97.4539L331.069 99.6169C331.373 99.8728 331.823 99.8509 332.101 99.5731L334.626 97.0537C334.839 96.8393 335.156 96.7672 335.445 96.8612C335.798 96.9815 336.16 97.0865 336.53 97.1783C337.226 97.3489 337.921 97.4648 338.608 97.5283C338.922 97.5545 339.189 97.7645 339.277 98.0641L340.37 101.603C340.492 101.992 340.889 102.219 341.285 102.134L344.569 101.423C344.917 101.345 345.167 101.041 345.182 100.693C345.184 100.658 345.184 100.619 345.177 100.581L344.825 97.2265C344.788 96.9137 344.941 96.6119 345.213 96.461C345.237 96.4457 345.259 96.4326 345.287 96.4238C345.361 96.3888 345.434 96.3604 345.508 96.3188C346.391 95.9142 347.232 95.4112 348.012 94.8273C348.268 94.6283 348.63 94.6217 348.901 94.8076L351.278 96.3954C351.613 96.6228 352.069 96.5572 352.329 96.2467L352.811 95.678L354.48 93.6944C354.745 93.3839 354.723 92.9246 354.436 92.6337L352.318 90.5232C352.09 90.298 352.036 89.959 352.167 89.6681C352.515 88.907 352.8 88.0978 353.01 87.2514C353.166 86.6237 353.275 85.9895 353.339 85.3618L353.957 85.1716L356.493 84.3864C356.809 84.2924 357.023 84.0081 357.034 83.691C357.039 83.6232 357.03 83.5575 357.015 83.4897L356.305 80.2005C356.217 79.8112 355.849 79.5531 355.457 79.5903L353.387 79.8134C353.039 79.8505 352.699 79.6428 352.579 79.3147C352.073 77.9478 351.359 76.675 350.461 75.5443C350.246 75.2753 350.231 74.9079 350.424 74.6367L352.327 71.8001C352.537 71.4808 352.48 71.0565 352.187 70.8072L349.587 68.6267C349.28 68.3665 348.827 68.3861 348.551 68.6683L345.922 71.2905C345.699 71.518 345.357 71.5814 345.064 71.4567C344.428 71.1877 343.765 70.9712 343.07 70.8006C342.698 70.7088 342.326 70.6322 341.953 70.571C341.662 70.5229 341.421 70.3173 341.331 70.0352L340.284 66.6453C340.161 66.2516 339.763 66.0176 339.36 66.1007" fill="#DFEDFB"/>
<path d="M375.44 99.4177C376.082 98.1789 376.974 96.9969 378.137 95.9124C378.38 95.6792 378.68 95.4488 379.006 95.2215C380.422 94.26 382.411 93.48 383.894 93.3526C395.265 92.3969 401.116 105.232 393.129 113.143C392.995 113.271 392.864 113.4 392.725 113.526C391.441 114.711 388.947 115.808 387.208 115.974C386.295 116.059 385.418 116.055 384.584 115.977C376.226 115.156 371.776 106.478 375.44 99.4177V99.4177ZM388.239 77.1826L383.202 77.6365L383.083 77.6481C382.469 77.7074 381.999 78.2121 381.989 78.8228L381.908 83.0395C381.908 83.1094 381.9 83.177 381.89 83.2429C381.797 83.7004 381.445 84.0781 380.978 84.1743C378.238 84.7802 375.65 85.9192 373.358 87.537C373.262 87.6026 373.158 87.6529 373.055 87.69C372.655 87.825 372.2 87.7399 371.872 87.4601L369.218 85.1461C368.864 84.8443 368.371 84.7764 367.959 84.9452C367.836 85.0002 367.712 85.0739 367.603 85.1728L363.809 88.6738C363.342 89.1028 363.281 89.8286 363.678 90.333L366.557 94.0273C366.842 94.3925 366.888 94.8846 366.678 95.2972C366.385 95.895 366.112 96.5013 365.869 97.1317C365.412 98.3147 365.073 99.5106 364.843 100.709V100.715C364.745 101.216 364.36 101.599 363.857 101.688L359.167 102.52L358.932 102.564C358.33 102.665 357.898 103.223 357.954 103.84L358.416 108.982C358.477 109.608 358.995 110.095 359.627 110.106L364.325 110.195C364.848 110.204 365.306 110.546 365.457 111.039C366.125 113.115 367.108 115.081 368.379 116.857C368.697 117.312 368.67 117.922 368.301 118.345L365.561 121.494C365.144 121.975 365.162 122.679 365.586 123.138L369.107 126.942C369.524 127.391 370.214 127.445 370.691 127.071L375.046 123.696C375.413 123.408 375.916 123.357 376.338 123.558C376.856 123.809 377.392 124.039 377.94 124.25C378.971 124.647 380.015 124.957 381.056 125.184C381.529 125.284 381.9 125.656 381.979 126.135L382.972 131.762C383.088 132.383 383.647 132.809 384.271 132.755L389.439 132.293C389.988 132.24 390.43 131.822 390.519 131.292C390.529 131.237 390.536 131.177 390.534 131.118L390.635 125.911C390.642 125.427 390.931 124.994 391.378 124.813C391.418 124.796 391.456 124.779 391.499 124.77C391.621 124.734 391.737 124.701 391.858 124.652C393.289 124.202 394.671 123.593 395.98 122.846C396.412 122.59 396.966 122.649 397.35 122.988L400.684 125.876C401.151 126.287 401.864 126.272 402.324 125.846L403.168 125.069L406.11 122.349C406.572 121.925 406.628 121.216 406.244 120.716L403.406 117.077C403.097 116.69 403.08 116.157 403.337 115.738C404.017 114.641 404.609 113.453 405.094 112.197C405.45 111.266 405.741 110.313 405.958 109.366L406.944 109.193L410.978 108.476C411.478 108.392 411.862 107.995 411.941 107.512C411.958 107.411 411.961 107.309 411.951 107.203L411.496 102.025C411.435 101.413 410.922 100.947 410.313 100.93L407.101 100.875C406.56 100.866 406.08 100.483 405.953 99.9547C405.443 97.7666 404.593 95.6784 403.433 93.773C403.16 93.3215 403.206 92.7558 403.55 92.376L407.015 88.3965C407.396 87.9486 407.391 87.2859 406.987 86.8494L403.423 83.0085C403.004 82.5522 402.306 82.4962 401.829 82.8755L397.3 86.3884C396.91 86.6942 396.38 86.7268 395.95 86.4782C395.03 85.9465 394.052 85.4875 393.026 85.0926C392.472 84.8801 391.916 84.6919 391.355 84.5286C390.92 84.3989 390.589 84.0355 390.506 83.5873L389.551 78.1919C389.439 77.5661 388.876 77.1318 388.239 77.1826" fill="#CDE3FD"/>
<g clip-path="url(#clip0)">
<path d="M411.909 180.227H416.364V184.318C416.364 184.517 416.423 184.68 416.543 184.808C416.662 184.936 416.814 185 417 185H420.321C420.493 185 420.642 184.936 420.768 184.808C420.894 184.68 420.957 184.517 420.957 184.318V180.227H431C431.185 180.227 431.338 180.164 431.457 180.035C431.577 179.907 431.636 179.744 431.636 179.545V176.818C431.636 176.62 431.577 176.456 431.457 176.328C431.338 176.2 431.185 176.136 431 176.136H420.957V173.622H427.718C430.37 173.622 432.534 172.756 434.211 171.022C435.888 169.291 436.727 167.053 436.727 164.311C436.727 161.57 435.888 159.333 434.211 157.599C432.534 155.867 430.37 155 427.718 155H417C416.814 155 416.662 155.064 416.542 155.191C416.423 155.32 416.363 155.484 416.363 155.682V169.084H411.909C411.723 169.084 411.571 169.151 411.452 169.286C411.332 169.421 411.272 169.581 411.272 169.766V172.94C411.272 173.139 411.332 173.302 411.452 173.43C411.571 173.558 411.723 173.622 411.909 173.622H416.364V176.136H411.909C411.723 176.136 411.571 176.2 411.452 176.328C411.332 176.456 411.272 176.619 411.272 176.818V179.545C411.272 179.744 411.332 179.907 411.452 180.035C411.571 180.164 411.723 180.227 411.909 180.227ZM420.957 159.539H427.321C428.726 159.539 429.859 159.979 430.721 160.86C431.583 161.74 432.014 162.891 432.014 164.311C432.014 165.732 431.583 166.883 430.721 167.763C429.859 168.644 428.726 169.084 427.321 169.084H420.957V159.539Z" fill="#FFA412"/>
</g>
<g clip-path="url(#clip1)">
<path d="M308.566 235.975L310.139 234.926L311.094 236.358C311.141 236.428 311.2 236.471 311.272 236.487C311.344 236.504 311.413 236.491 311.478 236.447L312.65 235.665C312.711 235.624 312.749 235.566 312.763 235.492C312.778 235.418 312.762 235.346 312.716 235.276L311.76 233.844L315.305 231.479C315.37 231.435 315.409 231.377 315.421 231.304C315.434 231.231 315.417 231.16 315.37 231.09L314.733 230.135C314.687 230.066 314.627 230.023 314.556 230.006C314.483 229.99 314.415 230.003 314.349 230.047L310.804 232.412L310.217 231.532L312.604 229.94C313.539 229.315 314.101 228.502 314.288 227.501C314.475 226.499 314.249 225.519 313.608 224.559C312.968 223.599 312.15 223.014 311.153 222.802C310.156 222.591 309.19 222.797 308.254 223.422L304.471 225.946C304.405 225.99 304.366 226.048 304.354 226.121C304.342 226.194 304.359 226.266 304.405 226.335L307.536 231.026L305.964 232.075C305.898 232.119 305.86 232.178 305.849 232.254C305.839 232.329 305.855 232.399 305.898 232.464L306.64 233.575C306.686 233.644 306.745 233.688 306.817 233.704C306.89 233.721 306.958 233.707 307.024 233.663L308.596 232.614L309.183 233.494L307.611 234.544C307.545 234.587 307.507 234.646 307.494 234.719C307.482 234.791 307.499 234.863 307.545 234.932L308.183 235.887C308.229 235.956 308.288 235.999 308.36 236.016C308.432 236.033 308.501 236.019 308.566 235.975ZM306.928 226.603L309.174 225.104C309.67 224.773 310.172 224.66 310.682 224.765C311.192 224.871 311.613 225.172 311.945 225.669C312.277 226.166 312.394 226.671 312.295 227.182C312.197 227.693 311.899 228.114 311.403 228.445L309.157 229.944L306.928 226.603Z" fill="#FFA412"/>
</g>
<path d="M78.7727 259.545H82.9092V263.364C82.9092 263.55 82.9643 263.702 83.0754 263.821C83.1862 263.94 83.3277 264 83.5002 264H86.5839C86.7439 264 86.8824 263.94 86.9994 263.821C87.1163 263.702 87.1746 263.549 87.1746 263.364V259.545H96.4999C96.672 259.545 96.8137 259.486 96.9247 259.366C97.0358 259.247 97.0909 259.095 97.0909 258.909V256.363C97.0909 256.179 97.0358 256.025 96.9247 255.906C96.814 255.787 96.672 255.727 96.4999 255.727H87.1743V253.38H93.4527C95.9147 253.38 97.9241 252.572 99.4819 250.954C101.039 249.338 101.818 247.25 101.818 244.69C101.818 242.132 101.039 240.044 99.4819 238.426C97.9244 236.81 95.9147 236 93.4527 236H83.4999C83.3274 236 83.1861 236.06 83.0751 236.179C82.9643 236.298 82.9088 236.451 82.9088 236.636V249.145H78.7727C78.6002 249.145 78.4589 249.208 78.3479 249.334C78.2372 249.46 78.1816 249.609 78.1816 249.781V252.744C78.1816 252.93 78.2368 253.082 78.3479 253.201C78.459 253.321 78.5999 253.38 78.7727 253.38H82.9092V255.727H78.7727C78.6002 255.727 78.4589 255.787 78.3479 255.906C78.2372 256.025 78.1816 256.178 78.1816 256.363V258.909C78.1816 259.095 78.2368 259.247 78.3479 259.366C78.4589 259.486 78.6002 259.545 78.7727 259.545ZM87.1743 240.236H93.0834C94.3882 240.236 95.4406 240.647 96.241 241.469C97.0411 242.291 97.4413 243.365 97.4413 244.69C97.4413 246.016 97.0411 247.091 96.241 247.912C95.4406 248.735 94.3881 249.145 93.0834 249.145H87.1743V240.236Z" fill="#FFA412"/>
<path d="M198.091 219.295H200.636V221.614C200.636 221.727 200.67 221.819 200.739 221.891C200.807 221.964 200.894 222 201 222H202.898C202.996 222 203.081 221.964 203.153 221.891C203.225 221.819 203.261 221.726 203.261 221.614V219.295H209C209.106 219.295 209.193 219.259 209.261 219.187C209.33 219.114 209.364 219.022 209.364 218.909V217.363C209.364 217.251 209.33 217.158 209.261 217.086C209.193 217.013 209.106 216.977 209 216.977H203.261V215.552H207.125C208.64 215.552 209.876 215.062 210.835 214.079C211.793 213.098 212.272 211.83 212.272 210.276C212.272 208.723 211.793 207.455 210.835 206.473C209.876 205.492 208.64 205 207.125 205H201C200.894 205 200.807 205.036 200.738 205.109C200.67 205.181 200.636 205.274 200.636 205.386V212.981H198.091C197.985 212.981 197.898 213.019 197.829 213.096C197.761 213.172 197.727 213.263 197.727 213.367V215.166C197.727 215.279 197.761 215.371 197.829 215.444C197.898 215.516 197.984 215.552 198.091 215.552H200.636V216.977H198.091C197.985 216.977 197.898 217.013 197.829 217.086C197.761 217.158 197.727 217.251 197.727 217.363V218.909C197.727 219.022 197.761 219.114 197.829 219.187C197.898 219.259 197.985 219.295 198.091 219.295ZM203.261 207.572H206.897C207.7 207.572 208.348 207.821 208.841 208.32C209.333 208.82 209.579 209.472 209.579 210.276C209.579 211.081 209.333 211.734 208.841 212.232C208.348 212.732 207.7 212.981 206.897 212.981H203.261V207.572Z" fill="#FFA412"/>
<path d="M246.591 151.636H252.637V157.091C252.637 157.356 252.718 157.574 252.88 157.744C253.042 157.915 253.249 158 253.501 158H258.008C258.242 158 258.444 157.915 258.615 157.744C258.786 157.574 258.871 157.356 258.871 157.091V151.636H272.5C272.752 151.636 272.959 151.551 273.121 151.38C273.284 151.21 273.364 150.992 273.364 150.727V147.09C273.364 146.826 273.284 146.608 273.121 146.438C272.959 146.267 272.752 146.181 272.5 146.181H258.871V142.829H268.047C271.645 142.829 274.582 141.675 276.859 139.363C279.134 137.054 280.273 134.071 280.273 130.414C280.273 126.76 279.134 123.777 276.859 121.466C274.582 119.156 271.645 118 268.047 118H253.5C253.248 118 253.042 118.085 252.88 118.255C252.718 118.426 252.637 118.645 252.637 118.909V136.779H246.591C246.339 136.779 246.133 136.868 245.971 137.048C245.809 137.228 245.728 137.441 245.728 137.687V141.92C245.728 142.185 245.808 142.403 245.971 142.574C246.133 142.745 246.339 142.829 246.591 142.829H252.637V146.181H246.591C246.339 146.181 246.133 146.267 245.971 146.438C245.809 146.608 245.728 146.826 245.728 147.09V150.727C245.728 150.992 245.808 151.21 245.971 151.38C246.133 151.551 246.339 151.636 246.591 151.636ZM258.871 124.052H267.507C269.414 124.052 270.952 124.639 272.122 125.813C273.291 126.987 273.876 128.522 273.876 130.415C273.876 132.309 273.291 133.844 272.122 135.017C270.952 136.192 269.414 136.779 267.507 136.779H258.871V124.052Z" fill="#FFA412"/>
<defs>
<clipPath id="clip0">
<rect width="28" height="30" fill="white" transform="translate(410 155)"/>
</clipPath>
<clipPath id="clip1">
<rect width="11.8814" height="12.624" fill="white" transform="translate(302 227.595) rotate(-33.7172)"/>
</clipPath>
</defs>
</svg>
