<svg width="541" height="208" viewBox="0 0 541 208" fill="none" xmlns="http://www.w3.org/2000/svg">
<path d="M53.6932 112.222L22.6481 181.946H0L34.0987 107.386C18.0673 99.2428 7.3798 84.4837 7.3798 57.2556C7.3798 19.0853 31.5542 0 60.3093 0H89.5727V181.946H69.9791V112.222H53.6932ZM69.9791 16.5406H59.5454C43.7687 16.5406 28.5004 26.9736 28.5004 57.2556C28.5004 86.519 42.4964 95.9343 59.5454 95.9343H69.9791V16.5406Z" fill="#2C292C"/>
<path d="M183.981 53.692V181.945H164.387V124.435H134.868V181.945H115.02V53.692H134.868V108.148H164.387V53.692H183.981ZM286.023 207.138H268.21V181.945H213.245V207.138H195.432V165.659H203.321C215.026 138.431 216.298 98.7329 216.298 64.6342V53.692H275.845V165.659H286.023V207.138ZM256.25 69.7241H234.111V72.014C234.111 98.9876 232.839 138.431 222.151 165.659H256.25V69.7241ZM340.734 183.726C314.269 183.726 297.984 162.605 297.984 123.163C297.984 81.9386 309.435 51.9111 336.663 51.9111C358.038 51.9111 372.034 67.9425 372.034 111.457V122.4H318.595C318.595 151.408 326.738 166.678 342.515 166.678C353.711 166.678 362.618 161.588 367.707 158.025L372.289 173.293C363.249 180.231 352.128 183.908 340.734 183.726V183.726ZM318.849 106.113H351.676C351.676 84.2284 348.113 68.1972 336.663 68.1972C324.448 68.1972 320.122 83.2108 318.849 106.113ZM412.24 118.074V181.945H392.391V53.692H412.24V112.984L443.03 53.692H463.133L431.325 114.002L467.713 181.945H446.083L412.24 118.074ZM470.258 117.82C470.258 77.6125 485.781 51.9111 515.809 51.9111C527.259 51.9111 533.876 54.965 539.474 58.5272L536.675 77.3578C531.331 72.777 523.697 68.4517 515.554 68.4517C501.304 68.4517 491.125 84.4831 491.125 116.801C491.125 148.864 498.759 167.185 514.79 167.185C522.723 167.292 530.419 164.485 536.42 159.297L541 174.057C533.635 180.54 524.089 183.995 514.281 183.726C486.798 183.726 470.258 161.588 470.258 117.82V117.82Z" fill="#2C292C"/>
</svg>
