<svg width="1581" height="571" viewBox="0 0 1581 571" fill="none" xmlns="http://www.w3.org/2000/svg">
<g clip-path="url(#clip0)">
<path d="M1461.16 443.338C1461.16 443.338 1462.14 438.535 1451.07 423.759C1448.68 420.573 1441.4 408.569 1441.4 408.569C1438.51 407.856 1429.55 412.626 1427.18 414.079L1426.43 414.546C1426.43 414.546 1422.6 431.152 1430.75 429.268C1431 429.208 1431.26 429.161 1431.51 429.118C1439.4 427.895 1447.01 435.702 1450.46 440.661C1452.72 443.883 1459.67 443.487 1461.16 443.338Z" fill="#233862"/>
<path d="M1402.73 411.067C1402.73 411.067 1403.7 406.268 1392.63 391.492C1390.24 388.302 1382.96 376.299 1382.96 376.299C1380.08 375.585 1371.11 380.359 1368.75 381.808C1368.27 382.101 1368 382.279 1368 382.279C1368 382.279 1364.16 398.882 1372.31 396.998C1372.57 396.937 1372.82 396.891 1373.08 396.851C1380.94 395.624 1388.57 403.435 1392.02 408.391C1394.28 411.613 1401.23 411.199 1402.73 411.067Z" fill="#233862"/>
<path d="M1278 328.875C1280.26 319.162 1305.45 288.875 1318.35 295.89C1331.25 302.905 1324.55 340.999 1311.11 385.926C1310.9 386.614 1310.69 387.292 1310.48 387.97C1337.58 383.528 1369.84 382.183 1369.84 382.183L1373.23 397.815C1348.81 404.552 1301.39 427.962 1281.47 438.042C1273.86 441.486 1264.93 441.486 1263.11 434.806C1257.02 412.444 1278 328.875 1278 328.875Z" fill="#137F7F"/>
<path d="M1326.09 468.821C1326.09 468.821 1383.73 442.856 1418.88 432.362C1423.24 431.067 1427.24 430.01 1430.75 429.261L1427.05 414.214C1427.05 414.214 1423.61 414.154 1418.02 414.161C1396.13 414.221 1341.33 415.445 1331.54 426.168C1319.25 439.641 1326.09 468.821 1326.09 468.821Z" fill="#FFB27D"/>
<path d="M1282.53 112.901C1280.63 117.254 1279.12 122.959 1280.4 125.967C1281.85 129.378 1281.45 131.848 1281.45 131.848L1284.55 132.604L1288.26 133.503C1288.26 133.503 1288.45 133.189 1288.75 132.647C1289.05 132.105 1289.44 131.344 1289.82 130.456C1289.9 129.947 1290.1 129.465 1290.4 129.05C1290.71 128.634 1291.11 128.299 1291.57 128.072C1293.15 127.33 1294.79 125.428 1295.11 123.591C1295.43 121.753 1297.3 118.328 1296.76 117.967C1295.47 117.093 1293.52 122.428 1292.38 122.663C1291.34 122.881 1291.01 122.149 1290.95 122.007V121.978C1289.16 117.618 1292.47 106.635 1289.84 106.007C1288.87 105.782 1283.33 111.049 1282.53 112.901Z" fill="#E9D6B8"/>
<path d="M1482.01 200.723C1478.79 204.209 1474.17 207.899 1470.89 207.945C1467.18 207.995 1465.08 209.373 1465.08 209.373L1463.13 206.85L1460.81 203.831C1460.81 203.831 1461.02 203.524 1461.4 203.036C1461.77 202.547 1464.4 200.342 1464.44 198.6C1464.49 196.859 1465.56 194.579 1467.12 193.559C1468.68 192.538 1471.05 189.434 1471.6 189.776C1472.93 190.604 1468.83 194.54 1469.07 195.678C1469.3 196.709 1470.1 196.716 1470.25 196.709H1470.28C1475 196.588 1483.74 189.113 1485.36 191.268C1485.97 192.056 1483.38 199.239 1482.01 200.723Z" fill="#E9D6B8"/>
<path d="M1342.54 336.125C1356.76 339.807 1353.19 356.874 1351.07 403.717C1350.82 409.015 1350.33 414.136 1349.64 419.017C1370.48 414.838 1402.52 414.21 1418.03 414.168C1418.03 414.168 1420.6 419.877 1420.49 424.458C1420.25 434.189 1415.27 440.622 1415.27 440.622C1380.12 451.116 1326.09 468.81 1326.09 468.81V468.768C1322.49 469.703 1319.1 467.904 1316.4 462.752C1305.65 442.203 1287.26 305.464 1287.26 305.464C1287.08 295.508 1328.32 332.446 1342.54 336.125Z" fill="#198D8D"/>
<path d="M1365.75 231.153C1365.75 231.153 1360.75 218.504 1370.47 200.467L1356.65 203.532L1347.26 205.612C1345.9 208.589 1344.71 211.639 1343.69 214.747C1343.15 216.309 1341.18 222.579 1340.58 224.516C1337.28 224.655 1342.04 229.647 1348.8 230.628C1356.36 231.713 1365.75 231.153 1365.75 231.153Z" fill="#E9D6B8"/>
<path d="M1347.26 205.602C1345.9 208.579 1344.71 211.628 1343.69 214.736C1351.75 217.141 1366.14 209.313 1366.14 209.313C1362.89 206.351 1359.68 204.513 1356.66 203.521L1347.26 205.602Z" fill="#DFCAA8"/>
<path d="M1341.06 200.884C1341.06 200.884 1357.07 218.561 1367.94 208.438C1378.81 198.315 1388.2 193.78 1378.44 182.066C1368.68 170.351 1362.51 172.053 1358.07 174.551C1353.62 177.049 1337.17 196.024 1341.06 200.884Z" fill="#E9D6B8"/>
<path d="M1368.84 207.343C1368.84 207.343 1367.2 205.526 1369.55 203.168C1371.91 200.809 1374.63 197.402 1372 196.356C1369.38 195.311 1367.93 196.92 1367.84 195.239C1367.76 193.559 1371.06 189.38 1364.98 184.092C1358.91 178.804 1354.6 178.965 1352.69 175.354C1350.78 171.743 1354.15 167.186 1354.15 167.186C1354.15 167.186 1353.73 169.431 1354.59 170.933C1354.59 170.933 1355.01 160.375 1364.31 160.282C1373.62 160.189 1377.02 167.775 1380.14 170.566C1387.01 176.724 1391.33 180.856 1389.93 187.464C1388.52 194.073 1377.09 206.454 1368.84 207.343Z" fill="#233862"/>
<path d="M1351.06 197.202L1345.12 191.621C1345.12 191.621 1342.7 195.321 1344.4 196.927C1346.11 198.533 1351.06 197.202 1351.06 197.202Z" fill="white"/>
<path d="M1271.32 163.768C1273.86 148.068 1281.5 130.834 1281.5 130.834L1289.83 130.456C1289.83 130.456 1288.91 151.708 1289.12 166.569C1289.21 173.706 1292.33 180.168 1293.19 181.309C1295.78 184.763 1333.86 221.351 1335.13 222.515L1335.16 222.547C1339.22 223.235 1338.77 229.879 1342.93 230.996C1349.87 232.852 1361.4 229.469 1367.57 231.749C1367.57 231.749 1417.02 231.806 1424.54 228.209C1432.07 224.613 1461.41 203.018 1461.41 203.018L1466.81 209.341C1466.81 209.341 1446.68 248.041 1430.71 255.013C1422.02 258.806 1402.93 263.366 1387.34 266.738C1384.32 267.397 1381.52 268.848 1379.24 270.941C1376.96 273.033 1375.28 275.694 1374.37 278.649C1359.71 325.866 1367.08 365.684 1367.08 365.684C1367.08 365.684 1353.02 367.253 1335.52 362.401C1312.77 356.092 1296.14 345.873 1296.14 345.873C1289.73 338.112 1293.52 309.656 1293.52 309.656C1293.52 309.656 1289.1 314.427 1287.61 322.402C1286.54 328.143 1285.97 331.322 1285.61 333.338C1285.54 333.773 1285.35 334.182 1285.07 334.525C1284.79 334.868 1284.43 335.134 1284.02 335.298C1283.61 335.462 1283.16 335.519 1282.72 335.462C1282.28 335.406 1281.87 335.238 1281.51 334.976C1278.22 332.546 1273.53 328.76 1272.06 325.984C1266.94 316.279 1278.33 276.744 1294.07 249.176C1295.45 246.759 1296.15 244.014 1296.1 241.232C1296.05 238.449 1295.24 235.732 1293.77 233.369C1284.09 217.869 1269.21 193.288 1269.03 188.353C1268.94 185.67 1269.86 172.789 1271.32 163.768Z" fill="#79CCCA"/>
<path d="M1344.01 234.56C1344.01 234.56 1330.73 253.364 1340.47 271.533C1350.2 289.703 1388.44 287.198 1395.51 309.895L1391.22 324.028L1375.23 315.39C1375.23 315.39 1373.89 303.115 1358.17 297.784C1327.45 287.376 1320.05 269.393 1326.5 253.304C1331.95 239.705 1339.84 233.154 1339.84 233.154L1344.01 234.56Z" fill="#FFCF50"/>
<path d="M1364.51 224.217L1349.12 229.294L1348.36 232.206L1367.56 231.753C1367.56 231.753 1366.54 227.346 1364.51 224.217Z" fill="#FFCF50"/>
<path d="M1341.99 219.992L1341.48 227.939C1341.48 227.939 1339.46 229.583 1339.49 229.366C1339.51 229.148 1335.16 222.551 1335.16 222.551C1337.36 221.511 1339.65 220.655 1341.99 219.992Z" fill="#FFCF50"/>
<path d="M1349.12 229.294L1341.26 226.646C1341.09 226.589 1340.91 226.57 1340.73 226.591C1340.55 226.612 1340.38 226.672 1340.23 226.767C1340.08 226.861 1339.96 226.988 1339.86 227.139C1339.76 227.289 1339.7 227.458 1339.68 227.635L1339.04 232.901C1339 233.174 1339.06 233.45 1339.21 233.684C1339.36 233.917 1339.58 234.093 1339.84 234.182L1343.3 235.349C1343.48 235.411 1343.68 235.427 1343.87 235.396C1344.06 235.365 1344.25 235.288 1344.4 235.17L1349.44 231.381C1349.62 231.251 1349.75 231.077 1349.83 230.876C1349.92 230.675 1349.94 230.455 1349.91 230.241C1349.88 230.026 1349.79 229.825 1349.65 229.658C1349.51 229.491 1349.33 229.365 1349.12 229.294Z" fill="#F9BB41"/>
<path d="M1290.23 129.347L1290.93 135.944C1290.93 135.944 1282.58 136.073 1282.58 135.944C1282.58 135.816 1282.33 132.672 1282.33 132.672L1280.94 136.322L1277.84 135.313L1281.39 129.347C1281.39 129.347 1284.91 131.013 1290.23 129.347Z" fill="#2A425B"/>
<path d="M1461.4 203.021L1466.84 209.341L1465.24 215.507L1463.03 213.994L1464.12 209.359L1460.31 212.477L1455.38 205.979L1461.4 203.021Z" fill="#2A425B"/>
<path d="M1462.58 208.82C1462.58 208.72 1462.55 208.623 1462.5 208.54C1462.44 208.457 1462.36 208.393 1462.27 208.355C1462.18 208.317 1462.08 208.307 1461.98 208.326C1461.88 208.345 1461.79 208.393 1461.72 208.464C1461.65 208.534 1461.6 208.624 1461.58 208.721C1461.56 208.819 1461.57 208.92 1461.61 209.012C1461.65 209.104 1461.72 209.183 1461.8 209.238C1461.88 209.293 1461.98 209.323 1462.08 209.323C1462.21 209.322 1462.34 209.268 1462.43 209.174C1462.53 209.08 1462.58 208.953 1462.58 208.82Z" fill="#EBF3FA"/>
<path d="M1284.11 133.503C1284.11 133.424 1284.09 133.347 1284.05 133.281C1284 133.215 1283.94 133.164 1283.87 133.134C1283.79 133.103 1283.71 133.096 1283.63 133.111C1283.56 133.127 1283.48 133.166 1283.43 133.222C1283.37 133.278 1283.33 133.35 1283.32 133.427C1283.3 133.505 1283.31 133.586 1283.34 133.659C1283.37 133.732 1283.43 133.794 1283.49 133.837C1283.56 133.881 1283.64 133.903 1283.72 133.903C1283.82 133.902 1283.92 133.859 1284 133.784C1284.07 133.71 1284.11 133.609 1284.11 133.503Z" fill="#EBF3FA"/>
<path d="M1297.23 287.119C1297.23 286.908 1297.17 286.701 1297.05 286.525C1296.93 286.349 1296.77 286.211 1296.57 286.13C1296.37 286.049 1296.16 286.028 1295.95 286.069C1295.74 286.111 1295.55 286.213 1295.4 286.362C1295.25 286.512 1295.15 286.703 1295.11 286.91C1295.07 287.118 1295.09 287.333 1295.17 287.529C1295.25 287.725 1295.39 287.892 1295.56 288.009C1295.74 288.127 1295.95 288.19 1296.16 288.19C1296.44 288.19 1296.72 288.077 1296.92 287.876C1297.12 287.675 1297.23 287.403 1297.23 287.119Z" fill="#EBF3FA"/>
<path d="M1305.77 269.361C1305.77 269.15 1305.7 268.943 1305.59 268.767C1305.47 268.591 1305.3 268.454 1305.11 268.372C1304.91 268.291 1304.69 268.27 1304.49 268.312C1304.28 268.353 1304.09 268.455 1303.94 268.605C1303.79 268.754 1303.68 268.945 1303.64 269.153C1303.6 269.36 1303.62 269.576 1303.7 269.771C1303.79 269.967 1303.92 270.134 1304.1 270.251C1304.28 270.369 1304.48 270.432 1304.7 270.432C1304.98 270.432 1305.25 270.319 1305.45 270.118C1305.65 269.918 1305.77 269.645 1305.77 269.361Z" fill="#EBF3FA"/>
<path d="M1317.52 255.944C1317.52 255.733 1317.46 255.526 1317.34 255.35C1317.23 255.174 1317.06 255.037 1316.86 254.956C1316.67 254.874 1316.45 254.853 1316.24 254.895C1316.03 254.936 1315.84 255.038 1315.69 255.188C1315.54 255.337 1315.44 255.528 1315.4 255.736C1315.36 255.943 1315.38 256.158 1315.46 256.354C1315.54 256.55 1315.68 256.717 1315.86 256.834C1316.03 256.952 1316.24 257.015 1316.45 257.015C1316.74 257.015 1317.01 256.902 1317.21 256.701C1317.41 256.501 1317.52 256.228 1317.52 255.944Z" fill="#EBF3FA"/>
<path d="M1370.38 519.206C1328.61 517.4 1094.2 527.505 1141.2 547.714C1188.19 567.923 1361.61 581.396 1337.57 560.513C1313.52 539.63 1610.01 554.45 1578.68 536.263C1547.35 518.075 1370.38 519.206 1370.38 519.206Z" fill="#F0F0F0"/>
<path d="M71.7543 29.86H68.4543L64.1343 24.46V22.81L68.4543 17.38H71.7543L66.8643 23.62L71.7543 29.86ZM78.9243 29.86H75.6243L71.3043 24.46V22.81L75.6243 17.38H78.9243L74.0643 23.62L78.9243 29.86ZM86.4986 31H83.1986V10H86.4986V18.58L95.1086 10H99.3386L89.6186 19.6L100.899 31H96.3986L86.4986 20.92V31ZM117.778 28.48C118.098 28.48 118.388 28.41 118.648 28.27V30.73C118.208 31.05 117.578 31.21 116.758 31.21C115.078 31.21 114.048 30.51 113.668 29.11C112.328 30.63 110.518 31.39 108.238 31.39C106.658 31.39 105.338 30.95 104.278 30.07C103.238 29.21 102.718 28 102.718 26.44C102.718 24.88 103.288 23.68 104.428 22.84C105.548 21.98 106.948 21.55 108.628 21.55C110.408 21.55 111.978 21.93 113.338 22.69V21.88C113.338 19.74 111.898 18.67 109.018 18.67C107.338 18.67 105.788 19.11 104.368 19.99V17.14C105.828 16.3 107.618 15.88 109.738 15.88C111.818 15.88 113.468 16.38 114.688 17.38C115.928 18.36 116.548 19.74 116.548 21.52V27.01C116.548 27.47 116.658 27.83 116.878 28.09C117.118 28.35 117.418 28.48 117.778 28.48ZM113.338 26.83V25.03C112.098 24.33 110.788 23.98 109.408 23.98C108.328 23.98 107.478 24.18 106.858 24.58C106.258 24.98 105.958 25.54 105.958 26.26C105.958 27.02 106.238 27.6 106.798 28C107.378 28.4 108.158 28.6 109.138 28.6C109.938 28.6 110.718 28.44 111.478 28.12C112.238 27.78 112.858 27.35 113.338 26.83ZM125.688 31H122.448V16.27H125.688V21.85L131.508 16.27H135.648L128.658 22.87L136.698 31H132.258L125.688 24.34V31ZM143.217 31H140.187V16.27H143.427V26.26L151.377 16.27H154.407V31H151.167V20.98L143.217 31ZM158.575 23.62C158.575 21.4 159.275 19.56 160.675 18.1C162.095 16.62 163.915 15.88 166.135 15.88C167.655 15.88 168.945 16.28 170.005 17.08C172.085 18.56 173.125 20.78 173.125 23.74V24.58H161.845C162.045 25.82 162.635 26.79 163.615 27.49C164.615 28.19 165.875 28.54 167.395 28.54C169.075 28.54 170.655 28.1 172.135 27.22V29.95C170.775 30.91 168.965 31.39 166.705 31.39C164.445 31.39 162.515 30.67 160.915 29.23C159.355 27.79 158.575 25.92 158.575 23.62ZM161.875 22.12H169.855C169.815 21.2 169.465 20.39 168.805 19.69C168.125 18.97 167.185 18.61 165.985 18.61C164.845 18.61 163.895 18.95 163.135 19.63C162.395 20.29 161.975 21.12 161.875 22.12ZM189.026 31H185.786V16.27H189.026V21.85L194.846 16.27H198.986L191.996 22.87L200.036 31H195.596L189.026 24.34V31ZM212.014 15.88C214.094 15.88 215.804 16.63 217.144 18.13C218.484 19.61 219.154 21.45 219.154 23.65C219.154 25.83 218.484 27.66 217.144 29.14C215.804 30.64 214.094 31.39 212.014 31.39C209.754 31.39 208.004 30.59 206.764 28.99V37H203.524V16.27H206.764V18.28C208.004 16.68 209.754 15.88 212.014 15.88ZM211.144 18.73C210.204 18.73 209.344 18.98 208.564 19.48C207.784 19.96 207.184 20.59 206.764 21.37V25.93C207.184 26.69 207.784 27.32 208.564 27.82C209.364 28.3 210.224 28.54 211.144 28.54C212.504 28.54 213.634 28.07 214.534 27.13C215.434 26.17 215.884 25.01 215.884 23.65C215.884 22.27 215.434 21.11 214.534 20.17C213.634 19.21 212.504 18.73 211.144 18.73ZM226.344 31H223.314V16.27H226.554V26.26L234.504 16.27H237.534V31H234.294V20.98L226.344 31ZM249.262 31H246.022V19.12H241.042V16.27H254.212V19.12H249.262V31ZM256.452 23.62C256.452 21.4 257.152 19.56 258.552 18.1C259.972 16.62 261.792 15.88 264.012 15.88C265.532 15.88 266.822 16.28 267.882 17.08C269.962 18.56 271.002 20.78 271.002 23.74V24.58H259.722C259.922 25.82 260.512 26.79 261.492 27.49C262.492 28.19 263.752 28.54 265.272 28.54C266.952 28.54 268.532 28.1 270.012 27.22V29.95C268.652 30.91 266.842 31.39 264.582 31.39C262.322 31.39 260.392 30.67 258.792 29.23C257.232 27.79 256.452 25.92 256.452 23.62ZM259.752 22.12H267.732C267.692 21.2 267.342 20.39 266.682 19.69C266.002 18.97 265.062 18.61 263.862 18.61C262.722 18.61 261.772 18.95 261.012 19.63C260.272 20.29 259.852 21.12 259.752 22.12ZM283.76 15.88C285.84 15.88 287.55 16.63 288.89 18.13C290.23 19.61 290.9 21.45 290.9 23.65C290.9 25.83 290.23 27.66 288.89 29.14C287.55 30.64 285.84 31.39 283.76 31.39C281.5 31.39 279.75 30.59 278.51 28.99V37H275.27V16.27H278.51V18.28C279.75 16.68 281.5 15.88 283.76 15.88ZM282.89 18.73C281.95 18.73 281.09 18.98 280.31 19.48C279.53 19.96 278.93 20.59 278.51 21.37V25.93C278.93 26.69 279.53 27.32 280.31 27.82C281.11 28.3 281.97 28.54 282.89 28.54C284.25 28.54 285.38 28.07 286.28 27.13C287.18 26.17 287.63 25.01 287.63 23.65C287.63 22.27 287.18 21.11 286.28 20.17C285.38 19.21 284.25 18.73 282.89 18.73ZM298.09 31H295.06V16.27H298.3V26.26L306.25 16.27H309.28V31H306.04V20.98L298.09 31ZM317.528 31H314.498V16.27H317.738V26.26L325.688 16.27H328.717V31H325.478V20.98L317.528 31ZM343.768 35.05H340.648V28.15H342.568C343.348 26.97 343.888 25.52 344.188 23.8C344.488 22.14 344.658 19.63 344.698 16.27H356.428V28.15H358.978V35.05H355.918V31H343.768V35.05ZM345.988 28.15H353.188V19.12H347.668C347.668 22.94 347.108 25.95 345.988 28.15ZM373.501 19.12H367.951L367.891 21.25C367.871 23.37 367.651 25.19 367.231 26.71C366.531 29.51 364.841 30.96 362.161 31.06C361.741 31.06 361.401 31.02 361.141 30.94V28.15C361.361 28.21 361.581 28.24 361.801 28.24C362.861 28.24 363.611 27.7 364.051 26.62C364.491 25.52 364.731 23.67 364.771 21.07L364.861 16.27H376.741V31H373.501V19.12ZM384.426 31H380.706L384.876 25.27C383.836 25.01 383.026 24.5 382.446 23.74C381.886 22.98 381.606 22.04 381.606 20.92C381.606 19.5 382.076 18.37 383.016 17.53C383.976 16.69 385.356 16.27 387.156 16.27H394.896V31H391.656V25.93H388.086L384.426 31ZM387.606 23.32H391.656V18.88H387.606C386.746 18.88 386.076 19.08 385.596 19.48C385.136 19.86 384.906 20.4 384.906 21.1C384.906 21.8 385.136 22.35 385.596 22.75C386.076 23.13 386.746 23.32 387.606 23.32ZM416.998 31H408.508V16.27H416.548C417.988 16.27 419.118 16.62 419.938 17.32C420.758 18 421.168 18.9 421.168 20.02C421.168 20.74 420.988 21.39 420.628 21.97C420.288 22.53 419.838 22.94 419.278 23.2C421.198 23.76 422.158 25.02 422.158 26.98C422.158 28.24 421.698 29.23 420.778 29.95C419.878 30.65 418.618 31 416.998 31ZM411.748 24.76V28.39H416.428C417.188 28.39 417.778 28.23 418.198 27.91C418.638 27.59 418.858 27.15 418.858 26.59C418.858 26.01 418.638 25.56 418.198 25.24C417.778 24.92 417.188 24.76 416.428 24.76H411.748ZM411.748 18.88V22.15H415.768C416.468 22.15 417.008 22.01 417.388 21.73C417.788 21.43 417.988 21.03 417.988 20.53C417.988 19.43 417.248 18.88 415.768 18.88H411.748ZM440.369 28.48C440.689 28.48 440.979 28.41 441.239 28.27V30.73C440.799 31.05 440.169 31.21 439.349 31.21C437.669 31.21 436.639 30.51 436.259 29.11C434.919 30.63 433.109 31.39 430.829 31.39C429.249 31.39 427.929 30.95 426.869 30.07C425.829 29.21 425.309 28 425.309 26.44C425.309 24.88 425.879 23.68 427.019 22.84C428.139 21.98 429.539 21.55 431.219 21.55C432.999 21.55 434.569 21.93 435.929 22.69V21.88C435.929 19.74 434.489 18.67 431.609 18.67C429.929 18.67 428.379 19.11 426.959 19.99V17.14C428.419 16.3 430.209 15.88 432.329 15.88C434.409 15.88 436.059 16.38 437.279 17.38C438.519 18.36 439.139 19.74 439.139 21.52V27.01C439.139 27.47 439.249 27.83 439.469 28.09C439.709 28.35 440.009 28.48 440.369 28.48ZM435.929 26.83V25.03C434.689 24.33 433.379 23.98 431.999 23.98C430.919 23.98 430.069 24.18 429.449 24.58C428.849 24.98 428.549 25.54 428.549 26.26C428.549 27.02 428.829 27.6 429.389 28C429.969 28.4 430.749 28.6 431.729 28.6C432.529 28.6 433.309 28.44 434.069 28.12C434.829 27.78 435.449 27.35 435.929 26.83ZM451.94 31.39C449.72 31.39 447.84 30.66 446.3 29.2C444.76 27.72 443.99 25.85 443.99 23.59C443.99 21.33 444.76 19.48 446.3 18.04C447.86 16.6 449.75 15.88 451.97 15.88C453.65 15.88 455.13 16.22 456.41 16.9V19.69C455.07 19.05 453.75 18.73 452.45 18.73C450.97 18.73 449.73 19.19 448.73 20.11C447.73 21.05 447.23 22.22 447.23 23.62C447.23 25.04 447.73 26.22 448.73 27.16C449.73 28.08 450.97 28.54 452.45 28.54C454.03 28.54 455.43 28.17 456.65 27.43V30.19C455.25 30.99 453.68 31.39 451.94 31.39ZM192.561 69H184.071V54.27H192.111C193.551 54.27 194.681 54.62 195.501 55.32C196.321 56 196.731 56.9 196.731 58.02C196.731 58.74 196.551 59.39 196.191 59.97C195.851 60.53 195.401 60.94 194.841 61.2C196.761 61.76 197.721 63.02 197.721 64.98C197.721 66.24 197.261 67.23 196.341 67.95C195.441 68.65 194.181 69 192.561 69ZM187.311 62.76V66.39H191.991C192.751 66.39 193.341 66.23 193.761 65.91C194.201 65.59 194.421 65.15 194.421 64.59C194.421 64.01 194.201 63.56 193.761 63.24C193.341 62.92 192.751 62.76 191.991 62.76H187.311ZM187.311 56.88V60.15H191.331C192.031 60.15 192.571 60.01 192.951 59.73C193.351 59.43 193.551 59.03 193.551 58.53C193.551 57.43 192.811 56.88 191.331 56.88H187.311ZM215.933 66.48C216.253 66.48 216.543 66.41 216.803 66.27V68.73C216.363 69.05 215.733 69.21 214.913 69.21C213.233 69.21 212.203 68.51 211.823 67.11C210.483 68.63 208.673 69.39 206.393 69.39C204.813 69.39 203.493 68.95 202.433 68.07C201.393 67.21 200.873 66 200.873 64.44C200.873 62.88 201.443 61.68 202.583 60.84C203.703 59.98 205.103 59.55 206.783 59.55C208.563 59.55 210.133 59.93 211.493 60.69V59.88C211.493 57.74 210.053 56.67 207.173 56.67C205.493 56.67 203.943 57.11 202.523 57.99V55.14C203.983 54.3 205.773 53.88 207.893 53.88C209.973 53.88 211.623 54.38 212.843 55.38C214.083 56.36 214.703 57.74 214.703 59.52V65.01C214.703 65.47 214.813 65.83 215.033 66.09C215.273 66.35 215.573 66.48 215.933 66.48ZM211.493 64.83V63.03C210.253 62.33 208.943 61.98 207.563 61.98C206.483 61.98 205.633 62.18 205.013 62.58C204.413 62.98 204.113 63.54 204.113 64.26C204.113 65.02 204.393 65.6 204.953 66C205.533 66.4 206.313 66.6 207.293 66.6C208.093 66.6 208.873 66.44 209.633 66.12C210.393 65.78 211.013 65.35 211.493 64.83ZM223.093 69H219.103L226.123 61.11L219.943 54.27H223.753L228.913 60.03V54.27H232.153V60.03L237.313 54.27H241.123L234.883 61.11L241.963 69H237.943L232.153 62.43V69H228.913V62.43L223.093 69ZM248.906 69H245.666V54.27H248.906V60.03H256.376V54.27H259.616V69H256.376V62.88H248.906V69ZM282.9 69H279.66V54.27H282.9V69ZM271.8 69H264.84V54.27H268.08V58.74H271.65C273.45 58.74 274.89 59.21 275.97 60.15C277.05 61.07 277.59 62.31 277.59 63.87C277.59 65.33 277.08 66.56 276.06 67.56C275.04 68.52 273.62 69 271.8 69ZM268.08 61.47V66.27H271.29C272.23 66.27 272.97 66.06 273.51 65.64C274.05 65.2 274.32 64.61 274.32 63.87C274.32 63.11 274.05 62.52 273.51 62.1C272.99 61.68 272.25 61.47 271.29 61.47H268.08ZM292.286 69.24C291.686 69.24 291.186 69.04 290.786 68.64C290.386 68.22 290.186 67.71 290.186 67.11C290.186 66.53 290.386 66.04 290.786 65.64C291.186 65.22 291.686 65.01 292.286 65.01C292.866 65.01 293.356 65.22 293.756 65.64C294.176 66.04 294.386 66.53 294.386 67.11C294.386 67.71 294.176 68.22 293.756 68.64C293.356 69.04 292.866 69.24 292.286 69.24ZM293.756 62.25H290.636V57.9C292.016 57.64 293.236 57.13 294.296 56.37C295.356 55.61 295.886 54.72 295.886 53.7C295.886 52.74 295.526 51.99 294.806 51.45C294.086 50.89 293.116 50.61 291.896 50.61C290.136 50.61 288.386 51.18 286.646 52.32V49.47C288.246 48.29 290.176 47.7 292.436 47.7C294.336 47.7 295.936 48.22 297.236 49.26C298.556 50.3 299.216 51.71 299.216 53.49C299.216 54.95 298.676 56.2 297.596 57.24C296.556 58.26 295.276 59.01 293.756 59.49V62.25ZM316.777 60.81V62.46L312.458 67.86H309.158L314.048 61.62L309.158 55.38H312.458L316.777 60.81ZM309.608 60.81V62.46L305.288 67.86H301.988L306.848 61.62L301.988 55.38H305.288L309.608 60.81Z" fill="#6A6A6A"/>
<path d="M634.412 29.86H631.112L626.792 24.46V22.81L631.112 17.38H634.412L629.522 23.62L634.412 29.86ZM641.582 29.86H638.282L633.962 24.46V22.81L638.282 17.38H641.582L636.722 23.62L641.582 29.86ZM650.596 26.08C652.016 27.56 653.756 28.3 655.816 28.3C657.876 28.3 659.616 27.56 661.036 26.08C662.456 24.56 663.166 22.7 663.166 20.5C663.166 18.28 662.456 16.43 661.036 14.95C659.616 13.45 657.876 12.7 655.816 12.7C653.756 12.7 652.016 13.45 650.596 14.95C649.196 16.41 648.496 18.26 648.496 20.5C648.496 22.74 649.196 24.6 650.596 26.08ZM663.496 28.27C661.456 30.35 658.896 31.39 655.816 31.39C652.736 31.39 650.176 30.35 648.136 28.27C646.116 26.15 645.106 23.56 645.106 20.5C645.106 17.42 646.116 14.84 648.136 12.76C650.176 10.66 652.736 9.60999 655.816 9.60999C658.896 9.60999 661.456 10.66 663.496 12.76C665.536 14.84 666.556 17.42 666.556 20.5C666.556 23.58 665.536 26.17 663.496 28.27ZM687.642 35.05H684.492V31H671.322V16.27H674.562V28.15H681.822V16.27H685.062V28.15H687.642V35.05ZM690.442 23.62C690.442 21.4 691.142 19.56 692.542 18.1C693.962 16.62 695.782 15.88 698.002 15.88C699.522 15.88 700.812 16.28 701.872 17.08C703.952 18.56 704.992 20.78 704.992 23.74V24.58H693.712C693.912 25.82 694.502 26.79 695.482 27.49C696.482 28.19 697.742 28.54 699.262 28.54C700.942 28.54 702.522 28.1 704.002 27.22V29.95C702.642 30.91 700.832 31.39 698.572 31.39C696.312 31.39 694.382 30.67 692.782 29.23C691.222 27.79 690.442 25.92 690.442 23.62ZM693.742 22.12H701.722C701.682 21.2 701.332 20.39 700.672 19.69C699.992 18.97 699.052 18.61 697.852 18.61C696.712 18.61 695.762 18.95 695.002 19.63C694.262 20.29 693.842 21.12 693.742 22.12ZM712.5 31H709.26V16.27H712.5V22.03H719.97V16.27H723.21V31H719.97V24.88H712.5V31ZM731.464 31H728.434V16.27H731.674V26.26L739.624 16.27H742.654V31H739.414V20.98L731.464 31ZM754.382 31H751.142V19.12H746.162V16.27H759.332V19.12H754.382V31ZM761.573 23.62C761.573 21.4 762.273 19.56 763.673 18.1C765.093 16.62 766.913 15.88 769.133 15.88C770.653 15.88 771.943 16.28 773.003 17.08C775.083 18.56 776.123 20.78 776.123 23.74V24.58H764.843C765.043 25.82 765.633 26.79 766.613 27.49C767.613 28.19 768.873 28.54 770.393 28.54C772.073 28.54 773.653 28.1 775.133 27.22V29.95C773.773 30.91 771.963 31.39 769.703 31.39C767.443 31.39 765.513 30.67 763.913 29.23C762.353 27.79 761.573 25.92 761.573 23.62ZM764.873 22.12H772.853C772.813 21.2 772.463 20.39 771.803 19.69C771.123 18.97 770.183 18.61 768.983 18.61C767.843 18.61 766.893 18.95 766.133 19.63C765.393 20.29 764.973 21.12 764.873 22.12ZM792.774 31.39C791.014 31.39 789.454 31 788.094 30.22V27.4C789.394 28.16 790.784 28.54 792.264 28.54C793.584 28.54 794.714 28.21 795.654 27.55C796.614 26.87 797.184 25.98 797.364 24.88H791.154V22.27H797.364C797.124 21.17 796.544 20.31 795.624 19.69C794.704 19.05 793.584 18.73 792.264 18.73C790.904 18.73 789.614 19.05 788.394 19.69V16.87C789.674 16.21 791.134 15.88 792.774 15.88C794.974 15.88 796.844 16.6 798.384 18.04C799.924 19.48 800.694 21.33 800.694 23.59C800.694 25.85 799.924 27.72 798.384 29.2C796.864 30.66 794.994 31.39 792.774 31.39ZM810.952 31H807.712V19.12H802.732V16.27H815.902V19.12H810.952V31ZM822.486 31H819.456V16.27H822.696V26.26L830.646 16.27H833.676V31H830.436V20.98L822.486 31ZM850.527 31H847.287V16.27H850.527V21.85L856.347 16.27H860.487L853.497 22.87L861.537 31H857.097L850.527 24.34V31ZM873.516 15.88C875.596 15.88 877.306 16.63 878.646 18.13C879.986 19.61 880.656 21.45 880.656 23.65C880.656 25.83 879.986 27.66 878.646 29.14C877.306 30.64 875.596 31.39 873.516 31.39C871.256 31.39 869.506 30.59 868.266 28.99V37H865.026V16.27H868.266V18.28C869.506 16.68 871.256 15.88 873.516 15.88ZM872.646 18.73C871.706 18.73 870.846 18.98 870.066 19.48C869.286 19.96 868.686 20.59 868.266 21.37V25.93C868.686 26.69 869.286 27.32 870.066 27.82C870.866 28.3 871.726 28.54 872.646 28.54C874.006 28.54 875.136 28.07 876.036 27.13C876.936 26.17 877.386 25.01 877.386 23.65C877.386 22.27 876.936 21.11 876.036 20.17C875.136 19.21 874.006 18.73 872.646 18.73ZM887.845 31H884.815V16.27H888.055V26.26L896.005 16.27H899.035V31H895.795V20.98L887.845 31ZM910.763 31H907.523V19.12H902.543V16.27H915.713V19.12H910.763V31ZM917.954 23.62C917.954 21.4 918.654 19.56 920.054 18.1C921.474 16.62 923.294 15.88 925.514 15.88C927.034 15.88 928.324 16.28 929.384 17.08C931.464 18.56 932.504 20.78 932.504 23.74V24.58H921.224C921.424 25.82 922.014 26.79 922.994 27.49C923.994 28.19 925.254 28.54 926.774 28.54C928.454 28.54 930.034 28.1 931.514 27.22V29.95C930.154 30.91 928.344 31.39 926.084 31.39C923.824 31.39 921.894 30.67 920.294 29.23C918.734 27.79 917.954 25.92 917.954 23.62ZM921.254 22.12H929.234C929.194 21.2 928.844 20.39 928.184 19.69C927.504 18.97 926.564 18.61 925.364 18.61C924.224 18.61 923.274 18.95 922.514 19.63C921.774 20.29 921.354 21.12 921.254 22.12ZM945.262 15.88C947.342 15.88 949.052 16.63 950.392 18.13C951.732 19.61 952.402 21.45 952.402 23.65C952.402 25.83 951.732 27.66 950.392 29.14C949.052 30.64 947.342 31.39 945.262 31.39C943.002 31.39 941.252 30.59 940.012 28.99V37H936.772V16.27H940.012V18.28C941.252 16.68 943.002 15.88 945.262 15.88ZM944.392 18.73C943.452 18.73 942.592 18.98 941.812 19.48C941.032 19.96 940.432 20.59 940.012 21.37V25.93C940.432 26.69 941.032 27.32 941.812 27.82C942.612 28.3 943.472 28.54 944.392 28.54C945.752 28.54 946.882 28.07 947.782 27.13C948.682 26.17 949.132 25.01 949.132 23.65C949.132 22.27 948.682 21.11 947.782 20.17C946.882 19.21 945.752 18.73 944.392 18.73ZM959.591 31H956.561V16.27H959.801V26.26L967.751 16.27H970.781V31H967.541V20.98L959.591 31ZM979.029 31H975.999V16.27H979.239V26.26L987.189 16.27H990.219V31H986.979V20.98L979.029 31ZM1005.33 37.15C1004.11 37.15 1003.22 36.99 1002.66 36.67V33.82C1003.3 34.14 1004.01 34.3 1004.79 34.3C1005.61 34.3 1006.3 34 1006.86 33.4C1007.44 32.8 1008.02 31.82 1008.6 30.46L1002.15 16.27H1005.75L1010.19 26.65L1014.48 16.27H1017.99L1010.94 32.59C1009.62 35.63 1007.75 37.15 1005.33 37.15ZM774.05 69H770.81V54.27H774.05V60.03H781.52V54.27H784.76V69H781.52V62.88H774.05V69ZM803.814 66.48C804.134 66.48 804.424 66.41 804.684 66.27V68.73C804.244 69.05 803.614 69.21 802.794 69.21C801.114 69.21 800.084 68.51 799.704 67.11C798.364 68.63 796.554 69.39 794.274 69.39C792.694 69.39 791.374 68.95 790.314 68.07C789.274 67.21 788.754 66 788.754 64.44C788.754 62.88 789.324 61.68 790.464 60.84C791.584 59.98 792.984 59.55 794.664 59.55C796.444 59.55 798.014 59.93 799.374 60.69V59.88C799.374 57.74 797.934 56.67 795.054 56.67C793.374 56.67 791.824 57.11 790.404 57.99V55.14C791.864 54.3 793.654 53.88 795.774 53.88C797.854 53.88 799.504 54.38 800.724 55.38C801.964 56.36 802.584 57.74 802.584 59.52V65.01C802.584 65.47 802.694 65.83 802.914 66.09C803.154 66.35 803.454 66.48 803.814 66.48ZM799.374 64.83V63.03C798.134 62.33 796.824 61.98 795.444 61.98C794.364 61.98 793.514 62.18 792.894 62.58C792.294 62.98 791.994 63.54 791.994 64.26C791.994 65.02 792.274 65.6 792.834 66C793.414 66.4 794.194 66.6 795.174 66.6C795.974 66.6 796.754 66.44 797.514 66.12C798.274 65.78 798.894 65.35 799.374 64.83ZM815.385 69.39C813.165 69.39 811.285 68.66 809.745 67.2C808.205 65.72 807.435 63.85 807.435 61.59C807.435 59.33 808.205 57.48 809.745 56.04C811.305 54.6 813.195 53.88 815.415 53.88C817.095 53.88 818.575 54.22 819.855 54.9V57.69C818.515 57.05 817.195 56.73 815.895 56.73C814.415 56.73 813.175 57.19 812.175 58.11C811.175 59.05 810.675 60.22 810.675 61.62C810.675 63.04 811.175 64.22 812.175 65.16C813.175 66.08 814.415 66.54 815.895 66.54C817.475 66.54 818.875 66.17 820.095 65.43V68.19C818.695 68.99 817.125 69.39 815.385 69.39ZM828.548 69.24C827.948 69.24 827.448 69.04 827.048 68.64C826.648 68.22 826.448 67.71 826.448 67.11C826.448 66.53 826.648 66.04 827.048 65.64C827.448 65.22 827.948 65.01 828.548 65.01C829.128 65.01 829.618 65.22 830.018 65.64C830.438 66.04 830.648 66.53 830.648 67.11C830.648 67.71 830.438 68.22 830.018 68.64C829.618 69.04 829.128 69.24 828.548 69.24ZM830.018 62.25H826.898V57.9C828.278 57.64 829.498 57.13 830.558 56.37C831.618 55.61 832.148 54.72 832.148 53.7C832.148 52.74 831.788 51.99 831.068 51.45C830.348 50.89 829.378 50.61 828.158 50.61C826.398 50.61 824.648 51.18 822.908 52.32V49.47C824.508 48.29 826.438 47.7 828.698 47.7C830.598 47.7 832.198 48.22 833.498 49.26C834.818 50.3 835.478 51.71 835.478 53.49C835.478 54.95 834.938 56.2 833.858 57.24C832.818 58.26 831.538 59.01 830.018 59.49V62.25ZM853.039 60.81V62.46L848.719 67.86H845.419L850.309 61.62L845.419 55.38H848.719L853.039 60.81ZM845.869 60.81V62.46L841.549 67.86H838.249L843.109 61.62L838.249 55.38H841.549L845.869 60.81Z" fill="#6A6A6A"/>
<path d="M1352.38 59.91C1345.32 59.91 1339.45 57.7 1334.77 53.28C1330.09 48.7733 1327.75 43.0967 1327.75 36.25C1327.75 29.3167 1330.06 23.64 1334.7 19.22C1339.38 14.8 1345.27 12.59 1352.38 12.59C1356.8 12.59 1360.81 13.5433 1364.41 15.45V24.875C1360.9 22.535 1356.91 21.365 1352.45 21.365C1348.16 21.365 1344.54 22.7733 1341.59 25.59C1338.73 28.3633 1337.3 31.9167 1337.3 36.25C1337.3 40.5833 1338.77 44.1583 1341.72 46.975C1344.62 49.7483 1348.33 51.135 1352.84 51.135C1357.82 51.135 1361.98 49.8133 1365.32 47.17V56.595C1361.63 58.805 1357.32 59.91 1352.38 59.91ZM1389.67 59.91C1382.83 59.91 1377.06 58.285 1372.38 55.035V45.285C1374.29 46.9317 1376.8 48.3617 1379.92 49.575C1383.09 50.745 1386.21 51.33 1389.28 51.33C1391.84 51.33 1393.94 50.875 1395.59 49.965C1397.24 49.0117 1398.06 47.7117 1398.06 46.065C1398.06 44.2883 1397.28 43.0317 1395.72 42.295C1395.07 41.905 1394.2 41.515 1393.12 41.125L1391.56 40.605L1387.92 39.5L1384.54 38.395C1384.06 38.265 1383.04 37.8967 1381.48 37.29C1380.14 36.77 1379.17 36.315 1378.56 35.925C1376.31 34.365 1374.88 33.0433 1374.27 31.96C1373.23 29.88 1372.71 27.7567 1372.71 25.59C1372.71 21.56 1374.25 18.3967 1377.32 16.1C1380.4 13.76 1384.58 12.59 1389.87 12.59C1395.2 12.59 1400.16 13.8467 1404.75 16.36V25.46C1400.12 22.6 1395.2 21.17 1390 21.17C1384.84 21.17 1382.26 22.665 1382.26 25.655C1382.26 26.955 1383.07 27.995 1384.67 28.775C1385.62 29.295 1386.86 29.75 1388.37 30.14C1390.41 30.7033 1392.06 31.18 1393.31 31.57C1397.08 32.74 1400.38 34.3217 1403.19 36.315C1406.23 38.4383 1407.74 41.6017 1407.74 45.805C1407.74 50.1817 1406.03 53.6267 1402.61 56.14C1399.19 58.6533 1394.87 59.91 1389.67 59.91ZM1426.39 59H1417.1V13.5H1426.39V59Z" fill="#6A6A6A"/>
<path d="M957 534.504C957 547.485 747.694 558.007 489.5 558.007C231.306 558.007 22 547.485 22 534.504C22 521.529 231.306 511.007 489.5 511.007C747.694 511.007 957 521.529 957 534.504Z" fill="#F0F0F0"/>
<path d="M340.554 526H334.605V255.552H340.554V526Z" fill="#706865"/>
<path d="M348.917 481.362H188.858C178.996 481.362 171 473.369 171 463.504V160.427C171 150.565 178.996 142.569 188.858 142.569H348.917C358.779 142.569 366.777 150.565 366.777 160.427V463.504C366.777 473.369 358.779 481.362 348.917 481.362Z" fill="#BDAFAA"/>
<path d="M343.76 468.126H194.017C184.273 468.126 176.372 460.224 176.372 450.481V165.669C176.372 155.925 184.273 148.024 194.017 148.024H343.76C353.504 148.024 361.403 155.925 361.403 165.669V450.481C361.403 460.224 353.504 468.126 343.76 468.126Z" fill="white"/>
<path d="M298.058 153.173H239.719V140H298.058V153.173Z" fill="#706865"/>
<path d="M219.518 292.248C219.511 292.247 219.504 292.245 219.493 292.248C219.607 292.298 219.624 292.304 219.518 292.248Z" fill="#323657"/>
<path d="M774.831 250.252L738.991 269.95L703 213.309L746.535 198.19L774.831 250.252Z" fill="#292C47"/>
<path d="M772.561 248.549L739.046 266.972L705.384 214.004L746.097 199.863L772.561 248.549Z" fill="white"/>
<path d="M784.832 238.644C784.832 238.644 778.597 235.662 775.856 234.103C773.119 232.539 766.075 230.398 765.507 229.89C764.939 229.382 744.63 228.13 743.397 227.067C742.164 226.004 740.966 229.557 746.23 230.713C751.494 231.864 758.818 234.684 759.22 236.74C759.622 238.799 753.812 239.288 753.226 240.983C752.635 242.674 753.387 242.294 754.223 242.658C755.053 243.023 761.131 239.656 763.802 240.614C766.473 241.568 770.557 240.246 772.603 240.948C774.649 241.646 784.609 244.997 784.609 244.997L784.832 238.644Z" fill="#EEA886"/>
<path d="M737.247 262.844C737.247 262.844 732.007 258.128 729.471 256.153C726.935 254.179 722.177 248.377 721.473 248.036C720.773 247.698 711.684 229.047 710.202 228.303C708.72 227.554 711.606 225.041 714.738 229.551C717.879 234.066 723.387 239.872 725.478 239.445C727.577 239.022 725.774 233.36 727.145 232.146C728.508 230.932 728.446 231.789 729.109 232.433C729.776 233.077 728.973 240.112 730.912 242.257C732.851 244.402 733.196 248.765 734.658 250.421C736.115 252.077 743.146 260.156 743.146 260.156L737.247 262.844Z" fill="#EEA886"/>
<path d="M850.107 514.951C850.107 514.951 851.245 522.821 851.386 524.004C851.527 525.187 863.999 523.306 863.999 523.306L865.006 513.939C865.006 513.939 851.669 513.842 850.107 514.951Z" fill="#424773"/>
<path d="M851.253 523.003C851.253 523.003 847.302 527.742 843.482 529.809C839.658 531.877 833.656 532.695 831.395 534.836C829.768 536.379 825.456 543.027 841.324 542.895C857.196 542.759 864.849 543.834 866.544 541.282C868.249 538.734 864.088 522.471 864.088 522.471C864.088 522.471 860.327 523.821 851.253 523.003Z" fill="#292C47"/>
<path d="M760.765 514.952C760.765 514.952 761.9 522.821 762.038 524.004C762.181 525.187 774.649 523.306 774.649 523.306L775.659 513.939C775.659 513.939 762.323 513.843 760.765 514.952Z" fill="#424773"/>
<path d="M761.906 523.003C761.906 523.003 757.96 527.743 754.136 529.81C750.312 531.877 736.255 533.576 733.992 535.713C732.362 537.26 729.648 543.474 751.977 542.896C767.846 542.48 775.499 543.834 777.198 541.282C778.902 538.734 774.74 522.472 774.74 522.472C774.74 522.472 771.197 523.915 761.906 523.003Z" fill="#292C47"/>
<path d="M839.779 312.766C839.779 312.766 851.5 331.378 850.627 348.207C849.749 365.032 854.871 383.404 856.631 400.981C858.597 420.578 866.625 466.968 866.913 477.451C867.206 487.931 865.669 521.402 865.669 521.402L849.593 521.771C849.593 521.771 836.097 440.669 832.6 432.392C829.103 424.119 811.763 365.121 811.183 358.5C810.602 351.88 839.779 312.766 839.779 312.766Z" fill="#292C47"/>
<path d="M778.109 315.285C778.109 315.285 769.278 361.404 768.115 371.701C766.948 382.002 766.17 421.543 765.591 427.977C765.002 434.416 761.704 512.209 758.591 521.77H779.144C779.144 521.77 794.918 465.218 794.918 438.461C794.918 411.703 807.104 380.292 814.972 362.637C822.84 344.982 840.849 344.564 845.68 311.81C845.68 311.81 784.658 304.895 778.109 315.285Z" fill="#292C47"/>
<path d="M820.235 156.258C820.235 156.258 804.506 150.384 797.26 162.355C790.005 174.326 790.703 198.292 798.632 201.239C806.557 204.186 818.468 202.646 822.528 195.154C826.583 187.664 830.248 176.835 830.071 169.597C829.895 162.361 824.365 158.347 820.235 156.258Z" fill="#EEA886"/>
<path d="M800.334 201.789C800.334 201.789 800.993 206.034 799.907 208.128C798.826 210.218 820.285 210.272 820.285 210.272C820.285 210.272 822.026 198.895 825.33 189.283C828.63 179.671 800.334 201.789 800.334 201.789Z" fill="#EEA886"/>
<path d="M825.33 189.283C825.33 189.283 823.847 191.726 817.807 190.777C811.757 189.83 804.388 181.788 801.861 180.904C799.335 180.022 799.312 178.539 799.312 178.539L797.732 180.848L795.052 181.017C795.052 181.017 797.499 173.823 793.807 170.889C790.12 167.955 797.639 147.604 817.024 154.38C817.024 154.38 831.911 158.484 831.37 166.952C830.829 175.419 828.662 185.065 825.33 189.283Z" fill="#3A3F47"/>
<path d="M798.635 207.877C798.635 207.877 798.7 203.879 800.514 203.494C802.324 203.115 820.507 201.365 822.731 202.239V206.896C822.731 206.896 818.445 209.529 798.635 207.877Z" fill="#E2D2CA"/>
<path d="M799.711 175.46C800.053 174.04 803.662 169.981 805.044 174.327C806.427 178.673 802.954 184.519 801.017 184.019C799.08 183.518 798.851 179.062 799.711 175.46Z" fill="#EEA886"/>
<path d="M726.473 255.092L726.501 255.088C726.376 255.143 726.356 255.151 726.473 255.092Z" fill="#323657"/>
<path d="M852.997 357.112C852.997 357.112 843.357 359.951 826.907 361.762C810.461 363.573 769.37 361.107 769.11 359.163C768.85 357.221 777.951 286.816 777.436 283.189C776.916 279.563 776.637 266.644 776.637 266.644C776.435 270.185 772.825 284.644 768.475 292.529C766.901 295.375 761.626 304.3 759.08 302.271C746.769 292.443 727.71 255.404 726.502 255.09C727.513 254.648 735.536 250.956 736.662 250.583C737.644 250.253 746.528 259.655 751.904 265.484C754.306 268.083 756.01 269.971 756.01 269.971C757.564 266.477 763.224 244.452 764.981 236.827C768.946 219.637 768.34 218.924 768.34 218.924C780.372 215.282 798.632 207.878 798.632 207.878L822.729 206.893C822.729 206.893 844.844 211.764 853.555 215.697C854.383 216.069 854.388 235.426 856.655 240.503L849.435 255.738C849.435 255.738 845.258 285.916 844.396 299.335C843.997 305.498 852.997 357.112 852.997 357.112Z" fill="#FFDF69"/>
<path d="M857.661 265.629C857.025 267.661 854.171 269.38 852.316 270.128C851.127 270.609 849.797 270.764 848.457 270.516L847.511 270.341L831.001 267.278C831.001 267.278 827.389 225.666 853.559 215.694C854.249 215.919 863.438 246.997 857.661 265.629Z" fill="#FFDF69"/>
<path d="M852.311 270.13C851.124 270.611 849.794 270.766 848.454 270.518L847.511 270.343L849.138 249.078L852.311 270.13Z" fill="#AB9546"/>
<path d="M756.011 269.971L753.993 278.519C753.993 278.519 751.803 269.94 751.908 265.483C754.307 268.082 756.011 269.971 756.011 269.971Z" fill="#AB9546"/>
<path d="M824.71 157.673C824.71 157.673 845.319 155.093 825.056 189.519L824.71 157.673Z" fill="#3A3F47"/>
<path d="M719.568 210.271L717.474 206.672L733.978 200.978L736.072 204.558L719.568 210.271Z" fill="#292C47"/>
<path d="M151.555 534.772H154.375V521.459C154.375 521.459 159.913 525.149 163.384 530.253C166.858 535.352 171.632 534.921 178.906 534.592C186.179 534.267 185.854 531.337 185.204 527.213C184.55 523.089 177.171 521.784 174.781 521.134C172.396 520.484 166.971 511.143 165.228 508.867C162.851 505.765 161.594 502.788 161.594 502.788C161.594 502.788 160.238 497.254 153.505 502.788C146.776 508.326 148.731 518.964 149.491 519.94C150.251 520.919 151.555 534.772 151.555 534.772Z" fill="#163342"/>
<path d="M165.773 521.134C168.268 522.764 174.781 521.134 174.781 521.134C172.937 518.745 161.594 502.788 161.594 502.788C154.7 498.773 151.978 504.3 151.978 504.3C154.79 505.162 163.278 519.505 165.773 521.134Z" fill="#EEA886"/>
<path d="M238.35 275.584C238.35 275.584 242.87 276.45 244.413 274.327C245.726 272.521 248.726 271.135 249.65 270.708C250.884 270.132 254.017 266.964 254.758 268.515C255.494 270.062 249.842 273.99 248.82 275.048C247.798 276.109 254.362 276.579 255.498 277.609C256.63 278.639 255.236 289.469 250.766 288.627C246.297 287.781 242.083 283.931 241.268 283.939C240.45 283.947 237.99 283.453 237.99 283.453L238.35 275.584Z" fill="#EEA886"/>
<path d="M254.495 277.168C254.495 277.168 268.006 280.658 268.711 281.641C269.417 282.628 269.186 283.348 267.908 283.074C266.63 282.8 254.758 280.082 254.758 280.082C254.758 280.082 270.052 286.897 270.809 287.578C271.248 287.978 270.884 289.4 270.186 289.318C269.488 289.235 253.946 283.344 253.946 283.344C253.946 283.344 268.214 289.736 268.676 290.493C269.08 291.159 268.414 292.381 267.324 291.977C266.23 291.578 252.652 286.392 252.652 286.392C252.652 286.392 262.744 291.699 262.756 292.568C262.764 293.101 262.505 294.347 259.945 292.897C257.384 291.444 250.978 288.659 250.978 288.659L254.495 277.168Z" fill="#EEA886"/>
<path d="M114.984 535.681H116.719V525.909C116.719 525.909 119.81 529.089 121.22 533.754C122.63 538.423 127.682 539.805 135.39 539.59C143.099 539.375 143.204 536.331 142.554 531.772C141.904 527.213 135.39 524.824 135.39 524.824C132.461 522.219 125.187 511.421 125.187 511.421C125.187 511.421 120.518 510.171 116.856 513.128C113.194 516.086 114.334 522.764 114.44 524.499C114.549 526.238 114.984 535.681 114.984 535.681Z" fill="#163342"/>
<path d="M120.303 302.954C120.303 302.954 111.118 314.893 108.627 329.06C106.136 343.227 110.1 390.768 109.99 397.771C109.88 404.771 103.371 422.192 104.671 435.38C105.975 448.572 111.114 514.213 111.114 514.213L125.187 511.42C125.187 511.42 124.373 444.498 125.187 438.964C126.002 433.43 127.635 413.251 127.96 410.971C128.285 408.691 148.633 348.835 148.633 338.621C148.633 328.41 142.444 286.293 120.303 302.954Z" fill="#1D3B54"/>
<path d="M166.435 307.624C166.435 307.624 181.522 365.209 183.316 373.187C185.106 381.162 187.699 387.742 187.699 391.13C187.699 398.991 184.781 411.611 184.781 411.611L165.62 503.243H147.372C147.372 503.243 157.54 448.271 157.814 437.52C158.088 426.749 166.38 411.45 164.754 406.891C163.125 402.332 138.54 349.737 138.54 349.737C138.54 349.737 119.923 290.908 166.435 307.624Z" fill="#1D3B54"/>
<path d="M135.39 524.824L125.187 511.421L116.856 513.129C116.856 513.129 119.097 519.129 123.147 523.641C127.945 528.988 135.39 524.824 135.39 524.824Z" fill="#EEA886"/>
<path d="M160.203 209.764C160.203 209.764 166.423 210.352 171.123 215.389C175.823 220.426 180.237 228.455 181.467 231.142C182.697 233.829 199.954 258.72 200.851 259.28C201.744 259.836 210.42 262.734 216.166 264.669C225.037 267.654 242.815 274.116 242.815 274.116L239.283 285.295C239.283 285.295 205.853 274.355 197.479 272.295C187.241 269.773 163.673 239.535 163.673 239.535C163.673 239.535 146.103 218.941 160.203 209.764Z" fill="#285173"/>
<path d="M149.35 205.399C149.35 205.399 157.407 209.207 160.203 209.763C163 210.323 173.857 224.423 175.761 229.574C177.66 234.72 175.761 242.444 171.844 251.508C167.927 260.571 171.617 263.595 169.827 272.658C168.037 281.725 168.612 315.637 168.949 320.674C169.286 325.707 116.567 333.341 106.16 324.164C106.16 324.164 113.206 293.601 121.549 284.878C123.35 282.994 123.162 270.422 121.929 267.288C120.699 264.155 106.822 240.764 106.822 240.764C106.822 240.764 105.803 217.04 111.859 212.34C117.119 208.255 131.454 206.798 134.027 205.901C136.601 205.008 144.09 204.616 149.35 205.399Z" fill="#FFBF55"/>
<path d="M153.196 196.102C153.196 196.102 152.953 198.323 152.675 201.319C152.569 202.506 152.452 203.814 152.346 205.158C152.025 209.176 151.766 213.489 151.923 215.698C151.923 215.698 143.549 224.091 134.027 205.906C134.027 205.906 138.03 198.405 135.018 188.198C132.002 177.983 153.196 196.102 153.196 196.102Z" fill="#EEA886"/>
<path d="M176.63 254.854C176.63 254.854 178.647 241.446 176.505 233.292C176.505 233.292 176.505 240.303 172.658 250.259L176.63 254.854Z" fill="#183C59"/>
<path d="M127.592 207.195C127.592 207.195 133.354 224.205 149.166 222.956C164.982 221.703 156.662 208.589 156.662 208.589C156.662 208.589 152.722 206.329 151.614 206.118C150.505 205.902 134.129 205.699 134.129 205.699L127.592 207.195Z" fill="#EEA886"/>
<path d="M156.662 208.589C156.662 208.589 164.946 231.502 164.946 254.854C164.946 278.202 165.612 316.241 168.503 328.25C171.397 340.263 179.626 377.409 179.626 377.409L186.077 374.072C186.077 374.072 170.567 314.788 169.396 310.511C168.225 306.238 170.285 261.074 171.397 257.294C172.51 253.51 177.237 236.68 176.505 232.007C175.576 226.12 170.069 217.409 161.171 209.921L156.662 208.589Z" fill="#285173"/>
<path d="M130.718 206.478C130.718 206.478 135.868 222.963 138.473 244.071C141.081 265.182 130.467 363.176 123.35 385.419L95.7646 380.97C95.7646 380.97 101.702 311.705 109.763 299.101C117.824 286.493 120.389 275.342 111.686 249.033C102.987 222.725 115.501 209.693 115.501 209.693C115.501 209.693 128.301 206.752 130.718 206.478Z" fill="#285173"/>
<path d="M143.894 314.851C143.894 314.851 142.374 314.858 141.704 314.537C141.704 314.537 140.537 313.86 139.679 313.425C139.405 313.292 139.166 313.178 139.002 313.123C138.32 312.884 136.75 312.571 135.273 311.545C133.796 310.519 128.56 304.455 128.56 304.455L131.031 300.695L132.845 296.845C132.845 296.845 143.839 297.554 145.327 298.349C145.472 298.432 145.613 298.514 145.739 298.6C146.933 299.395 147.485 300.492 148.065 300.981C148.277 301.162 150.262 303.1 150.192 303.927C150.098 305.074 149.565 305.83 148.876 306.21C148.876 306.21 148.59 308.447 147.485 309.489C147.485 309.489 147.29 311.56 145.551 312.469C145.551 312.469 145.116 314.549 143.894 314.851Z" fill="#EEA886"/>
<path d="M121.231 209.764C121.231 209.764 111.075 206.858 105.255 218.048C99.4345 229.238 99.462 234.012 98.6865 239.48C97.9501 244.639 94.6365 258.727 94.2997 260.18C93.9668 261.637 86.4583 278.985 89.9011 285.048C93.3596 291.142 128.513 309.085 128.289 310.428C128.066 311.768 134.376 296.865 134.376 296.865C134.376 296.865 120.154 288.933 117.824 286.493C114.04 282.529 106.058 278.256 107.699 273.337C109.622 267.56 115.411 248.066 116.754 245.21C118.098 242.359 129.789 213.402 121.231 209.764Z" fill="#285173"/>
<path d="M154.445 152.034C154.445 152.034 172.525 157.718 162.71 188.919C152.894 220.123 128.203 185.303 130.784 166.291C133.369 147.283 154.445 152.034 154.445 152.034Z" fill="#EEA987"/>
<path d="M164.559 170.239C164.559 170.239 155.574 179.056 140.541 180.16C140.541 180.16 134.76 186.936 134.317 189.596C134.317 189.596 120.902 166.73 137.392 153.021C153.881 139.312 170.622 164.591 164.559 170.239Z" fill="#0E2D3D"/>
<path d="M140.721 180.779C140.604 178.507 139.205 173.341 135.829 174.786C132.453 176.236 136.037 186.76 138.277 186.11C138.277 186.11 140.995 186.153 140.721 180.779Z" fill="#EEA987"/>
<path d="M152.675 201.319C152.569 202.506 152.452 203.814 152.346 205.157C152.346 205.157 144.364 204.679 139.029 192.808C139.378 193.329 145.225 201.918 152.675 201.319Z" fill="#A77860"/>
<path d="M559.214 305.8H539.614V266H500.014V246.6H539.614V206.8H559.214V246.6H599.014V266H559.214V305.8Z" fill="#F70263"/>
<path d="M1099.01 246.2H1000.01V226.8H1099.01V246.2ZM1099.01 291.8H1000.01V272.4H1099.01V291.8Z" fill="#F70263"/>
<path d="M200.076 175.584C200.076 174.123 200.361 172.969 200.931 172.123C201.506 171.276 202.3 170.853 203.313 170.853C203.894 170.853 204.387 170.983 204.791 171.243V167.25H205.778V171.276C206.188 170.994 206.697 170.853 207.306 170.853C208.263 170.853 209.029 171.237 209.605 172.006C210.181 172.776 210.493 173.846 210.543 175.219L210.551 175.758C210.551 177.125 210.264 178.204 209.688 178.996C209.112 179.781 208.324 180.174 207.322 180.174C206.725 180.174 206.21 180.044 205.778 179.784V183.453H204.791V179.792C204.364 180.047 203.866 180.174 203.296 180.174C202.35 180.174 201.592 179.817 201.022 179.104C200.452 178.384 200.139 177.391 200.084 176.124L200.076 175.584ZM209.563 175.584C209.563 174.378 209.345 173.429 208.908 172.737C208.476 172.045 207.87 171.699 207.09 171.699C206.525 171.699 206.088 171.821 205.778 172.064V179.012C206.127 179.228 206.57 179.336 207.106 179.336C207.881 179.336 208.484 179.026 208.916 178.406C209.348 177.781 209.563 176.84 209.563 175.584ZM201.072 175.758C201.072 176.887 201.279 177.767 201.694 178.398C202.109 179.023 202.707 179.336 203.487 179.336C204.007 179.336 204.442 179.222 204.791 178.996V172.04C204.47 171.813 204.041 171.699 203.504 171.699C202.729 171.699 202.129 172.045 201.703 172.737C201.282 173.423 201.072 174.43 201.072 175.758ZM215.515 178.572L218.138 171.019H219.209L215.374 181.527L215.175 181.992C214.682 183.082 213.921 183.627 212.892 183.627C212.654 183.627 212.4 183.589 212.128 183.511L212.12 182.689L212.635 182.739C213.122 182.739 213.515 182.618 213.813 182.374C214.118 182.136 214.375 181.724 214.585 181.137L215.025 179.925L211.639 171.019H212.726L215.515 178.572ZM227.651 180H226.655V175.883H221.815V180H220.819V171.019H221.815V175.044H226.655V171.019H227.651V180ZM232.756 175.883H231.378V180H230.374V171.019H231.378V175.003H232.739L236.035 171.019H237.288L233.603 175.376L237.695 180H236.383L232.756 175.883ZM239.197 171.019H240.193V179.162H245.033V171.019H246.029V179.162H246.942L246.867 182.665H245.954V180H239.197V171.019ZM254.711 171.019H255.708V180H254.711V172.621L249.864 180H248.876V171.019H249.864V178.406L254.711 171.019ZM257.824 175.376C257.824 174.513 257.99 173.736 258.322 173.044C258.66 172.352 259.133 171.815 259.742 171.434C260.356 171.046 261.05 170.853 261.825 170.853C263.021 170.853 263.989 171.273 264.73 172.114C265.472 172.95 265.843 174.059 265.843 175.443V175.65C265.843 176.519 265.674 177.302 265.336 178C265.004 178.691 264.534 179.225 263.925 179.602C263.317 179.978 262.622 180.166 261.842 180.166C260.652 180.166 259.684 179.748 258.937 178.913C258.195 178.071 257.824 176.959 257.824 175.576V175.376ZM258.82 175.65C258.82 176.724 259.097 177.607 259.65 178.298C260.209 178.985 260.94 179.328 261.842 179.328C262.738 179.328 263.463 178.985 264.017 178.298C264.576 177.607 264.855 176.696 264.855 175.567V175.376C264.855 174.69 264.728 174.062 264.473 173.492C264.219 172.922 263.862 172.482 263.402 172.172C262.943 171.857 262.417 171.699 261.825 171.699C260.94 171.699 260.218 172.048 259.659 172.745C259.1 173.437 258.82 174.344 258.82 175.468V175.65ZM274.799 180H273.803V175.883H268.964V180H267.968V171.019H268.964V175.044H273.803V171.019H274.799V180ZM283.133 180C283.034 179.718 282.97 179.3 282.942 178.747C282.594 179.2 282.148 179.552 281.606 179.801C281.069 180.044 280.499 180.166 279.896 180.166C279.033 180.166 278.333 179.925 277.796 179.444C277.265 178.962 276.999 178.354 276.999 177.618C276.999 176.743 277.361 176.052 278.086 175.542C278.817 175.033 279.832 174.779 281.133 174.779H282.934V173.758C282.934 173.116 282.735 172.612 282.336 172.247C281.944 171.876 281.368 171.691 280.61 171.691C279.918 171.691 279.345 171.868 278.892 172.222C278.438 172.576 278.211 173.002 278.211 173.5L277.215 173.492C277.215 172.778 277.547 172.161 278.211 171.641C278.875 171.115 279.691 170.853 280.66 170.853C281.661 170.853 282.45 171.104 283.025 171.608C283.606 172.106 283.905 172.803 283.922 173.7V177.95C283.922 178.819 284.013 179.469 284.196 179.9V180H283.133ZM280.012 179.286C280.676 179.286 281.268 179.126 281.789 178.805C282.314 178.484 282.696 178.055 282.934 177.518V175.542H281.158C280.167 175.554 279.392 175.736 278.833 176.09C278.275 176.439 277.995 176.92 277.995 177.535C277.995 178.038 278.181 178.456 278.551 178.788C278.928 179.12 279.415 179.286 280.012 179.286ZM293.484 171.019V180H292.488V171.874H288.811L288.653 175.235C288.587 176.48 288.462 177.432 288.28 178.091C288.097 178.744 287.826 179.225 287.466 179.535C287.107 179.845 286.628 180 286.03 180H285.648V179.12L285.956 179.104C286.526 179.092 286.935 178.816 287.184 178.273C287.433 177.731 287.596 176.763 287.674 175.368L287.856 171.019H293.484ZM297.253 174.281H299.843C300.507 174.281 301.088 174.403 301.586 174.646C302.09 174.884 302.469 175.216 302.723 175.642C302.983 176.068 303.113 176.563 303.113 177.128C303.113 177.997 302.814 178.694 302.217 179.22C301.625 179.74 300.822 180 299.81 180H296.265V171.019H297.253V174.281ZM297.253 175.127V179.162H299.826C300.54 179.162 301.099 178.982 301.503 178.622C301.912 178.262 302.117 177.77 302.117 177.145C302.117 176.547 301.918 176.065 301.52 175.7C301.127 175.329 300.587 175.139 299.901 175.127H297.253ZM312.153 180H311.157V175.883H306.317V180H305.321V171.019H306.317V175.044H311.157V171.019H312.153V180ZM314.27 175.376C314.27 174.513 314.436 173.736 314.768 173.044C315.105 172.352 315.578 171.815 316.187 171.434C316.801 171.046 317.496 170.853 318.271 170.853C319.466 170.853 320.434 171.273 321.176 172.114C321.917 172.95 322.288 174.059 322.288 175.443V175.65C322.288 176.519 322.119 177.302 321.782 178C321.45 178.691 320.979 179.225 320.371 179.602C319.762 179.978 319.067 180.166 318.287 180.166C317.097 180.166 316.129 179.748 315.382 178.913C314.64 178.071 314.27 176.959 314.27 175.576V175.376ZM315.266 175.65C315.266 176.724 315.542 177.607 316.096 178.298C316.655 178.985 317.385 179.328 318.287 179.328C319.184 179.328 319.909 178.985 320.462 178.298C321.021 177.607 321.3 176.696 321.3 175.567V175.376C321.3 174.69 321.173 174.062 320.918 173.492C320.664 172.922 320.307 172.482 319.848 172.172C319.388 171.857 318.863 171.699 318.271 171.699C317.385 171.699 316.663 172.048 316.104 172.745C315.545 173.437 315.266 174.344 315.266 175.468V175.65ZM327.667 179.328C328.359 179.328 328.937 179.134 329.402 178.747C329.872 178.354 330.127 177.847 330.166 177.228H331.12C331.092 177.775 330.921 178.276 330.605 178.73C330.29 179.178 329.869 179.53 329.344 179.784C328.824 180.039 328.265 180.166 327.667 180.166C326.488 180.166 325.553 179.757 324.861 178.938C324.175 178.118 323.832 177.017 323.832 175.634V175.335C323.832 174.45 323.987 173.667 324.297 172.986C324.607 172.305 325.049 171.779 325.625 171.409C326.206 171.038 326.884 170.853 327.659 170.853C328.644 170.853 329.454 171.146 330.091 171.732C330.733 172.319 331.076 173.091 331.12 174.048H330.166C330.121 173.346 329.867 172.778 329.402 172.347C328.943 171.915 328.361 171.699 327.659 171.699C326.762 171.699 326.065 172.023 325.567 172.67C325.074 173.318 324.828 174.225 324.828 175.393V175.684C324.828 176.829 325.074 177.723 325.567 178.365C326.065 179.007 326.765 179.328 327.667 179.328ZM339.562 171.865H336.292V180H335.295V171.865H332.149V171.019H339.562V171.865ZM342.293 174.281H344.883C345.547 174.281 346.128 174.403 346.626 174.646C347.13 174.884 347.509 175.216 347.763 175.642C348.023 176.068 348.153 176.563 348.153 177.128C348.153 177.997 347.854 178.694 347.257 179.22C346.665 179.74 345.862 180 344.85 180H341.305V171.019H342.293V174.281ZM342.293 175.127V179.162H344.866C345.58 179.162 346.139 178.982 346.543 178.622C346.952 178.262 347.157 177.77 347.157 177.145C347.157 176.547 346.958 176.065 346.56 175.7C346.167 175.329 345.627 175.139 344.941 175.127H342.293Z" fill="#6A6A6A"/>
<path d="M203.969 208.328C204.66 208.328 205.239 208.134 205.704 207.747C206.174 207.354 206.429 206.847 206.467 206.228H207.422C207.394 206.775 207.223 207.276 206.907 207.73C206.592 208.178 206.171 208.53 205.646 208.784C205.125 209.039 204.566 209.166 203.969 209.166C202.79 209.166 201.855 208.757 201.163 207.938C200.477 207.118 200.134 206.017 200.134 204.634V204.335C200.134 203.45 200.289 202.667 200.599 201.986C200.909 201.305 201.351 200.779 201.927 200.409C202.508 200.038 203.186 199.853 203.96 199.853C204.945 199.853 205.756 200.146 206.393 200.732C207.035 201.319 207.378 202.091 207.422 203.048H206.467C206.423 202.346 206.168 201.778 205.704 201.347C205.244 200.915 204.663 200.699 203.96 200.699C203.064 200.699 202.367 201.023 201.869 201.67C201.376 202.318 201.13 203.225 201.13 204.393V204.684C201.13 205.829 201.376 206.723 201.869 207.365C202.367 208.007 203.067 208.328 203.969 208.328ZM215.864 200.865H212.593V209H211.597V200.865H208.451V200.019H215.864V200.865ZM223.036 209C222.936 208.718 222.872 208.3 222.845 207.747C222.496 208.2 222.051 208.552 221.508 208.801C220.972 209.044 220.402 209.166 219.798 209.166C218.935 209.166 218.235 208.925 217.698 208.444C217.167 207.962 216.901 207.354 216.901 206.618C216.901 205.743 217.264 205.052 217.989 204.542C218.719 204.033 219.735 203.779 221.035 203.779H222.836V202.758C222.836 202.116 222.637 201.612 222.239 201.247C221.846 200.876 221.27 200.691 220.512 200.691C219.82 200.691 219.248 200.868 218.794 201.222C218.34 201.576 218.113 202.002 218.113 202.5L217.117 202.492C217.117 201.778 217.449 201.161 218.113 200.641C218.777 200.115 219.594 199.853 220.562 199.853C221.564 199.853 222.352 200.104 222.928 200.608C223.509 201.106 223.808 201.803 223.824 202.7V206.95C223.824 207.819 223.916 208.469 224.098 208.9V209H223.036ZM219.915 208.286C220.579 208.286 221.171 208.126 221.691 207.805C222.217 207.484 222.598 207.055 222.836 206.518V204.542H221.06C220.069 204.554 219.295 204.736 218.736 205.09C218.177 205.439 217.897 205.92 217.897 206.535C217.897 207.038 218.083 207.456 218.454 207.788C218.83 208.12 219.317 208.286 219.915 208.286ZM230.1 200.616C231.24 200.616 232.164 200.99 232.872 201.737C233.58 202.478 233.935 203.463 233.935 204.692V204.908C233.935 205.721 233.771 206.454 233.445 207.107C233.124 207.755 232.659 208.261 232.05 208.626C231.447 208.986 230.753 209.166 229.967 209.166C228.783 209.166 227.822 208.773 227.086 207.987C226.356 207.196 225.991 206.142 225.991 204.825V204.028C225.991 202.168 226.345 200.683 227.053 199.57C227.762 198.458 228.769 197.794 230.075 197.578C230.899 197.445 231.478 197.265 231.81 197.039C232.147 196.812 232.316 196.502 232.316 196.109H233.171C233.171 196.574 233.074 196.958 232.88 197.263C232.687 197.567 232.396 197.813 232.009 198.001C231.621 198.184 231.029 198.339 230.232 198.466C229.319 198.61 228.583 199 228.024 199.637C227.471 200.268 227.111 201.114 226.945 202.177C227.299 201.712 227.742 201.336 228.273 201.048C228.81 200.76 229.419 200.616 230.1 200.616ZM226.987 204.7V204.908C226.987 205.92 227.261 206.745 227.809 207.381C228.356 208.012 229.076 208.328 229.967 208.328C230.863 208.328 231.583 208.009 232.125 207.373C232.667 206.731 232.938 205.89 232.938 204.85V204.634C232.938 203.699 232.662 202.935 232.108 202.343C231.561 201.751 230.841 201.455 229.95 201.455C229.059 201.455 228.343 201.756 227.8 202.359C227.258 202.957 226.987 203.737 226.987 204.7ZM241.596 200.019H242.592V209H241.596V201.621L236.749 209H235.761V200.019H236.749V207.406L241.596 200.019ZM252.163 200.019V209H251.167V200.874H247.49L247.332 204.235C247.266 205.48 247.141 206.432 246.958 207.091C246.776 207.744 246.505 208.225 246.145 208.535C245.785 208.845 245.307 209 244.709 209H244.327V208.12L244.634 208.104C245.204 208.092 245.614 207.816 245.863 207.273C246.112 206.731 246.275 205.763 246.353 204.368L246.535 200.019H252.163ZM255.932 203.281H258.521C259.186 203.281 259.767 203.403 260.265 203.646C260.768 203.884 261.147 204.216 261.402 204.642C261.662 205.068 261.792 205.563 261.792 206.128C261.792 206.997 261.493 207.694 260.896 208.22C260.303 208.74 259.501 209 258.488 209H254.944V200.019H255.932V203.281ZM255.932 204.127V208.162H258.505C259.219 208.162 259.778 207.982 260.182 207.622C260.591 207.262 260.796 206.77 260.796 206.145C260.796 205.547 260.597 205.065 260.198 204.7C259.805 204.329 259.266 204.139 258.58 204.127H255.932ZM270.832 209H269.835V204.883H264.996V209H264V200.019H264.996V204.044H269.835V200.019H270.832V209ZM279.166 209C279.066 208.718 279.002 208.3 278.975 207.747C278.626 208.2 278.181 208.552 277.638 208.801C277.101 209.044 276.531 209.166 275.928 209.166C275.065 209.166 274.365 208.925 273.828 208.444C273.297 207.962 273.031 207.354 273.031 206.618C273.031 205.743 273.394 205.052 274.119 204.542C274.849 204.033 275.865 203.779 277.165 203.779H278.966V202.758C278.966 202.116 278.767 201.612 278.369 201.247C277.976 200.876 277.4 200.691 276.642 200.691C275.95 200.691 275.378 200.868 274.924 201.222C274.47 201.576 274.243 202.002 274.243 202.5L273.247 202.492C273.247 201.778 273.579 201.161 274.243 200.641C274.907 200.115 275.723 199.853 276.692 199.853C277.694 199.853 278.482 200.104 279.058 200.608C279.639 201.106 279.938 201.803 279.954 202.7V206.95C279.954 207.819 280.045 208.469 280.228 208.9V209H279.166ZM276.044 208.286C276.708 208.286 277.301 208.126 277.821 207.805C278.347 207.484 278.728 207.055 278.966 206.518V204.542H277.19C276.199 204.554 275.425 204.736 274.866 205.09C274.307 205.439 274.027 205.92 274.027 206.535C274.027 207.038 274.213 207.456 274.583 207.788C274.96 208.12 275.447 208.286 276.044 208.286ZM289.16 200.019V209H288.164V205.381H285.375L283.183 209H282.087L284.345 205.256C283.731 205.096 283.252 204.786 282.909 204.327C282.572 203.867 282.403 203.325 282.403 202.7C282.403 201.886 282.693 201.236 283.274 200.749C283.861 200.262 284.652 200.019 285.648 200.019H289.16ZM283.399 202.716C283.399 203.242 283.565 203.674 283.897 204.011C284.235 204.349 284.702 204.523 285.3 204.534H288.164V200.865H285.624C284.932 200.865 284.387 201.031 283.988 201.363C283.595 201.695 283.399 202.146 283.399 202.716ZM303.196 204.601C303.196 206.001 302.886 207.113 302.267 207.938C301.647 208.757 300.817 209.166 299.776 209.166C298.548 209.166 297.607 208.734 296.954 207.871V212.453H295.966V200.019H296.888L296.938 201.289C297.585 200.331 298.523 199.853 299.751 199.853C300.825 199.853 301.666 200.259 302.275 201.073C302.889 201.886 303.196 203.015 303.196 204.459V204.601ZM302.2 204.426C302.2 203.281 301.965 202.376 301.495 201.712C301.024 201.048 300.368 200.716 299.527 200.716C298.919 200.716 298.396 200.862 297.958 201.156C297.521 201.449 297.187 201.875 296.954 202.434V206.742C297.192 207.257 297.532 207.65 297.975 207.921C298.418 208.192 298.941 208.328 299.544 208.328C300.38 208.328 301.03 207.996 301.495 207.332C301.965 206.662 302.2 205.694 302.2 204.426ZM311.074 209C310.974 208.718 310.91 208.3 310.883 207.747C310.534 208.2 310.089 208.552 309.546 208.801C309.01 209.044 308.44 209.166 307.836 209.166C306.973 209.166 306.273 208.925 305.736 208.444C305.205 207.962 304.939 207.354 304.939 206.618C304.939 205.743 305.302 205.052 306.027 204.542C306.757 204.033 307.773 203.779 309.073 203.779H310.875V202.758C310.875 202.116 310.675 201.612 310.277 201.247C309.884 200.876 309.308 200.691 308.55 200.691C307.859 200.691 307.286 200.868 306.832 201.222C306.378 201.576 306.151 202.002 306.151 202.5L305.155 202.492C305.155 201.778 305.487 201.161 306.151 200.641C306.815 200.115 307.632 199.853 308.6 199.853C309.602 199.853 310.39 200.104 310.966 200.608C311.547 201.106 311.846 201.803 311.862 202.7V206.95C311.862 207.819 311.954 208.469 312.136 208.9V209H311.074ZM307.953 208.286C308.617 208.286 309.209 208.126 309.729 207.805C310.255 207.484 310.637 207.055 310.875 206.518V204.542H309.098C308.108 204.554 307.333 204.736 306.774 205.09C306.215 205.439 305.936 205.92 305.936 206.535C305.936 207.038 306.121 207.456 306.492 207.788C306.868 208.12 307.355 208.286 307.953 208.286ZM318.138 200.616C319.278 200.616 320.202 200.99 320.91 201.737C321.618 202.478 321.973 203.463 321.973 204.692V204.908C321.973 205.721 321.809 206.454 321.483 207.107C321.162 207.755 320.697 208.261 320.088 208.626C319.485 208.986 318.791 209.166 318.005 209.166C316.821 209.166 315.861 208.773 315.125 207.987C314.394 207.196 314.029 206.142 314.029 204.825V204.028C314.029 202.168 314.383 200.683 315.091 199.57C315.8 198.458 316.807 197.794 318.113 197.578C318.937 197.445 319.516 197.265 319.848 197.039C320.185 196.812 320.354 196.502 320.354 196.109H321.209C321.209 196.574 321.112 196.958 320.918 197.263C320.725 197.567 320.434 197.813 320.047 198.001C319.66 198.184 319.067 198.339 318.271 198.466C317.357 198.61 316.621 199 316.062 199.637C315.509 200.268 315.149 201.114 314.983 202.177C315.338 201.712 315.78 201.336 316.312 201.048C316.848 200.76 317.457 200.616 318.138 200.616ZM315.025 204.7V204.908C315.025 205.92 315.299 206.745 315.847 207.381C316.395 208.012 317.114 208.328 318.005 208.328C318.901 208.328 319.621 208.009 320.163 207.373C320.705 206.731 320.977 205.89 320.977 204.85V204.634C320.977 203.699 320.7 202.935 320.146 202.343C319.599 201.751 318.879 201.455 317.988 201.455C317.097 201.455 316.381 201.756 315.838 202.359C315.296 202.957 315.025 203.737 315.025 204.7ZM323.334 204.376C323.334 203.513 323.5 202.736 323.832 202.044C324.17 201.352 324.643 200.815 325.251 200.434C325.866 200.046 326.56 199.853 327.335 199.853C328.53 199.853 329.499 200.273 330.24 201.114C330.982 201.95 331.353 203.059 331.353 204.443V204.65C331.353 205.519 331.184 206.302 330.846 207C330.514 207.691 330.044 208.225 329.435 208.602C328.826 208.978 328.132 209.166 327.352 209.166C326.162 209.166 325.193 208.748 324.446 207.913C323.705 207.071 323.334 205.959 323.334 204.576V204.376ZM324.33 204.65C324.33 205.724 324.607 206.607 325.16 207.298C325.719 207.985 326.45 208.328 327.352 208.328C328.248 208.328 328.973 207.985 329.526 207.298C330.085 206.607 330.365 205.696 330.365 204.567V204.376C330.365 203.69 330.237 203.062 329.983 202.492C329.728 201.922 329.371 201.482 328.912 201.172C328.453 200.857 327.927 200.699 327.335 200.699C326.45 200.699 325.727 201.048 325.168 201.745C324.61 202.437 324.33 203.344 324.33 204.468V204.65ZM339.678 200.865H336.408V209H335.412V200.865H332.266V200.019H339.678V200.865ZM346.85 209C346.75 208.718 346.687 208.3 346.659 207.747C346.311 208.2 345.865 208.552 345.323 208.801C344.786 209.044 344.216 209.166 343.613 209.166C342.75 209.166 342.049 208.925 341.513 208.444C340.981 207.962 340.716 207.354 340.716 206.618C340.716 205.743 341.078 205.052 341.803 204.542C342.534 204.033 343.549 203.779 344.85 203.779H346.651V202.758C346.651 202.116 346.452 201.612 346.053 201.247C345.66 200.876 345.085 200.691 344.327 200.691C343.635 200.691 343.062 200.868 342.608 201.222C342.155 201.576 341.928 202.002 341.928 202.5L340.932 202.492C340.932 201.778 341.264 201.161 341.928 200.641C342.592 200.115 343.408 199.853 344.376 199.853C345.378 199.853 346.167 200.104 346.742 200.608C347.323 201.106 347.622 201.803 347.639 202.7V206.95C347.639 207.819 347.73 208.469 347.913 208.9V209H346.85ZM343.729 208.286C344.393 208.286 344.985 208.126 345.505 207.805C346.031 207.484 346.413 207.055 346.651 206.518V204.542H344.875C343.884 204.554 343.109 204.736 342.55 205.09C341.991 205.439 341.712 205.92 341.712 206.535C341.712 207.038 341.897 207.456 342.268 207.788C342.644 208.12 343.131 208.286 343.729 208.286Z" fill="#6A6A6A"/>
<path d="M219.541 236.328C220.233 236.328 220.811 236.134 221.276 235.747C221.746 235.354 222.001 234.847 222.04 234.228H222.994C222.966 234.775 222.795 235.276 222.479 235.73C222.164 236.178 221.743 236.53 221.218 236.784C220.698 237.039 220.139 237.166 219.541 237.166C218.362 237.166 217.427 236.757 216.735 235.938C216.049 235.118 215.706 234.017 215.706 232.634V232.335C215.706 231.45 215.861 230.667 216.171 229.986C216.481 229.305 216.924 228.779 217.499 228.409C218.08 228.038 218.758 227.853 219.533 227.853C220.518 227.853 221.328 228.146 221.965 228.732C222.607 229.319 222.95 230.091 222.994 231.048H222.04C221.995 230.346 221.741 229.778 221.276 229.347C220.817 228.915 220.236 228.699 219.533 228.699C218.636 228.699 217.939 229.023 217.441 229.67C216.948 230.318 216.702 231.225 216.702 232.393V232.684C216.702 233.829 216.948 234.723 217.441 235.365C217.939 236.007 218.639 236.328 219.541 236.328ZM227.427 232.883H226.049V237H225.044V228.019H226.049V232.003H227.41L230.706 228.019H231.959L228.273 232.376L232.366 237H231.054L227.427 232.883ZM233.071 232.376C233.071 231.513 233.237 230.736 233.569 230.044C233.907 229.352 234.38 228.815 234.989 228.434C235.603 228.046 236.298 227.853 237.072 227.853C238.268 227.853 239.236 228.273 239.978 229.114C240.719 229.95 241.09 231.059 241.09 232.443V232.65C241.09 233.519 240.921 234.302 240.583 235C240.251 235.691 239.781 236.225 239.172 236.602C238.564 236.978 237.869 237.166 237.089 237.166C235.899 237.166 234.931 236.748 234.184 235.913C233.442 235.071 233.071 233.959 233.071 232.576V232.376ZM234.067 232.65C234.067 233.724 234.344 234.607 234.897 235.298C235.456 235.985 236.187 236.328 237.089 236.328C237.985 236.328 238.71 235.985 239.264 235.298C239.823 234.607 240.102 233.696 240.102 232.567V232.376C240.102 231.69 239.975 231.062 239.72 230.492C239.466 229.922 239.109 229.482 238.649 229.172C238.19 228.857 237.664 228.699 237.072 228.699C236.187 228.699 235.465 229.048 234.906 229.745C234.347 230.437 234.067 231.344 234.067 232.468V232.65ZM250.37 232.601C250.37 234.001 250.06 235.113 249.44 235.938C248.821 236.757 247.991 237.166 246.95 237.166C245.722 237.166 244.781 236.734 244.128 235.871V240.453H243.14V228.019H244.062L244.111 229.289C244.759 228.331 245.697 227.853 246.925 227.853C247.999 227.853 248.84 228.259 249.449 229.073C250.063 229.886 250.37 231.015 250.37 232.459V232.601ZM249.374 232.426C249.374 231.281 249.139 230.376 248.668 229.712C248.198 229.048 247.542 228.716 246.701 228.716C246.092 228.716 245.569 228.862 245.132 229.156C244.695 229.449 244.36 229.875 244.128 230.434V234.742C244.366 235.257 244.706 235.65 245.149 235.921C245.592 236.192 246.115 236.328 246.718 236.328C247.553 236.328 248.204 235.996 248.668 235.332C249.139 234.662 249.374 233.694 249.374 232.426ZM252.03 232.376C252.03 231.513 252.196 230.736 252.528 230.044C252.866 229.352 253.339 228.815 253.948 228.434C254.562 228.046 255.257 227.853 256.031 227.853C257.227 227.853 258.195 228.273 258.937 229.114C259.678 229.95 260.049 231.059 260.049 232.443V232.65C260.049 233.519 259.88 234.302 259.542 235C259.21 235.691 258.74 236.225 258.131 236.602C257.523 236.978 256.828 237.166 256.048 237.166C254.858 237.166 253.89 236.748 253.143 235.913C252.401 235.071 252.03 233.959 252.03 232.576V232.376ZM253.026 232.65C253.026 233.724 253.303 234.607 253.856 235.298C254.415 235.985 255.146 236.328 256.048 236.328C256.944 236.328 257.669 235.985 258.223 235.298C258.782 234.607 259.061 233.696 259.061 232.567V232.376C259.061 231.69 258.934 231.062 258.679 230.492C258.425 229.922 258.068 229.482 257.608 229.172C257.149 228.857 256.623 228.699 256.031 228.699C255.146 228.699 254.424 229.048 253.865 229.745C253.306 230.437 253.026 231.344 253.026 232.468V232.65ZM265.428 236.328C266.119 236.328 266.698 236.134 267.163 235.747C267.633 235.354 267.888 234.847 267.926 234.228H268.881C268.853 234.775 268.682 235.276 268.366 235.73C268.051 236.178 267.63 236.53 267.104 236.784C266.584 237.039 266.025 237.166 265.428 237.166C264.249 237.166 263.314 236.757 262.622 235.938C261.936 235.118 261.593 234.017 261.593 232.634V232.335C261.593 231.45 261.748 230.667 262.058 229.986C262.368 229.305 262.81 228.779 263.386 228.409C263.967 228.038 264.645 227.853 265.419 227.853C266.404 227.853 267.215 228.146 267.852 228.732C268.493 229.319 268.837 230.091 268.881 231.048H267.926C267.882 230.346 267.627 229.778 267.163 229.347C266.703 228.915 266.122 228.699 265.419 228.699C264.523 228.699 263.826 229.023 263.328 229.67C262.835 230.318 262.589 231.225 262.589 232.393V232.684C262.589 233.829 262.835 234.723 263.328 235.365C263.826 236.007 264.526 236.328 265.428 236.328ZM277.323 228.865H274.052V237H273.056V228.865H269.91V228.019H277.323V228.865ZM280.054 231.281H282.644C283.308 231.281 283.889 231.403 284.387 231.646C284.89 231.884 285.269 232.216 285.524 232.642C285.784 233.068 285.914 233.563 285.914 234.128C285.914 234.997 285.615 235.694 285.018 236.22C284.425 236.74 283.623 237 282.61 237H279.066V228.019H280.054V231.281ZM280.054 232.127V236.162H282.627C283.341 236.162 283.9 235.982 284.304 235.622C284.713 235.262 284.918 234.77 284.918 234.145C284.918 233.547 284.719 233.065 284.32 232.7C283.927 232.329 283.388 232.139 282.702 232.127H280.054ZM299.411 232.601C299.411 234.001 299.101 235.113 298.481 235.938C297.862 236.757 297.032 237.166 295.991 237.166C294.763 237.166 293.822 236.734 293.169 235.871V240.453H292.181V228.019H293.103L293.152 229.289C293.8 228.331 294.738 227.853 295.966 227.853C297.04 227.853 297.881 228.259 298.49 229.073C299.104 229.886 299.411 231.015 299.411 232.459V232.601ZM298.415 232.426C298.415 231.281 298.18 230.376 297.709 229.712C297.239 229.048 296.583 228.716 295.742 228.716C295.133 228.716 294.611 228.862 294.173 229.156C293.736 229.449 293.401 229.875 293.169 230.434V234.742C293.407 235.257 293.747 235.65 294.19 235.921C294.633 236.192 295.156 236.328 295.759 236.328C296.594 236.328 297.245 235.996 297.709 235.332C298.18 234.662 298.415 233.694 298.415 232.426ZM307.289 237C307.189 236.718 307.125 236.3 307.098 235.747C306.749 236.2 306.304 236.552 305.761 236.801C305.224 237.044 304.654 237.166 304.051 237.166C303.188 237.166 302.488 236.925 301.951 236.444C301.42 235.962 301.154 235.354 301.154 234.618C301.154 233.743 301.517 233.052 302.242 232.542C302.972 232.033 303.988 231.779 305.288 231.779H307.089V230.758C307.089 230.116 306.89 229.612 306.492 229.247C306.099 228.876 305.523 228.691 304.765 228.691C304.073 228.691 303.501 228.868 303.047 229.222C302.593 229.576 302.366 230.002 302.366 230.5L301.37 230.492C301.37 229.778 301.702 229.161 302.366 228.641C303.03 228.115 303.847 227.853 304.815 227.853C305.817 227.853 306.605 228.104 307.181 228.608C307.762 229.106 308.061 229.803 308.077 230.7V234.95C308.077 235.819 308.168 236.469 308.351 236.9V237H307.289ZM304.167 236.286C304.832 236.286 305.424 236.126 305.944 235.805C306.47 235.484 306.851 235.055 307.089 234.518V232.542H305.313C304.322 232.554 303.548 232.736 302.989 233.09C302.43 233.439 302.15 233.92 302.15 234.535C302.15 235.038 302.336 235.456 302.707 235.788C303.083 236.12 303.57 236.286 304.167 236.286ZM314.353 228.616C315.493 228.616 316.417 228.99 317.125 229.737C317.833 230.478 318.188 231.463 318.188 232.692V232.908C318.188 233.721 318.024 234.454 317.698 235.107C317.377 235.755 316.912 236.261 316.303 236.626C315.7 236.986 315.006 237.166 314.22 237.166C313.035 237.166 312.075 236.773 311.339 235.987C310.609 235.196 310.244 234.142 310.244 232.825V232.028C310.244 230.168 310.598 228.683 311.306 227.57C312.014 226.458 313.022 225.794 314.328 225.578C315.152 225.445 315.73 225.265 316.062 225.039C316.4 224.812 316.569 224.502 316.569 224.109H317.424C317.424 224.574 317.327 224.958 317.133 225.263C316.94 225.567 316.649 225.813 316.262 226.001C315.874 226.184 315.282 226.339 314.485 226.466C313.572 226.61 312.836 227 312.277 227.637C311.724 228.268 311.364 229.114 311.198 230.177C311.552 229.712 311.995 229.336 312.526 229.048C313.063 228.76 313.672 228.616 314.353 228.616ZM311.24 232.7V232.908C311.24 233.92 311.514 234.745 312.062 235.381C312.609 236.012 313.329 236.328 314.22 236.328C315.116 236.328 315.836 236.009 316.378 235.373C316.92 234.731 317.191 233.89 317.191 232.85V232.634C317.191 231.699 316.915 230.935 316.361 230.343C315.813 229.751 315.094 229.455 314.203 229.455C313.312 229.455 312.596 229.756 312.053 230.359C311.511 230.957 311.24 231.737 311.24 232.7ZM319.549 232.376C319.549 231.513 319.715 230.736 320.047 230.044C320.384 229.352 320.858 228.815 321.466 228.434C322.081 228.046 322.775 227.853 323.55 227.853C324.745 227.853 325.714 228.273 326.455 229.114C327.197 229.95 327.567 231.059 327.567 232.443V232.65C327.567 233.519 327.399 234.302 327.061 235C326.729 235.691 326.259 236.225 325.65 236.602C325.041 236.978 324.347 237.166 323.566 237.166C322.377 237.166 321.408 236.748 320.661 235.913C319.92 235.071 319.549 233.959 319.549 232.576V232.376ZM320.545 232.65C320.545 233.724 320.822 234.607 321.375 235.298C321.934 235.985 322.664 236.328 323.566 236.328C324.463 236.328 325.188 235.985 325.741 235.298C326.3 234.607 326.58 233.696 326.58 232.567V232.376C326.58 231.69 326.452 231.062 326.198 230.492C325.943 229.922 325.586 229.482 325.127 229.172C324.668 228.857 324.142 228.699 323.55 228.699C322.664 228.699 321.942 229.048 321.383 229.745C320.824 230.437 320.545 231.344 320.545 232.468V232.65ZM335.893 228.865H332.623V237H331.626V228.865H328.48V228.019H335.893V228.865ZM338.624 231.281H341.214C341.878 231.281 342.459 231.403 342.957 231.646C343.461 231.884 343.84 232.216 344.094 232.642C344.354 233.068 344.484 233.563 344.484 234.128C344.484 234.997 344.186 235.694 343.588 236.22C342.996 236.74 342.193 237 341.181 237H337.636V228.019H338.624V231.281ZM338.624 232.127V236.162H341.197C341.911 236.162 342.47 235.982 342.874 235.622C343.284 235.262 343.488 234.77 343.488 234.145C343.488 233.547 343.289 233.065 342.891 232.7C342.498 232.329 341.958 232.139 341.272 232.127H338.624ZM347.531 237H346.535V228.019H347.531V237Z" fill="#6A6A6A"/>
<path d="M272.01 255.019H273.006V264H272.01V256.621L267.163 264H266.175V255.019H267.163V262.406L272.01 255.019ZM282.569 264H281.573V259.883H276.733V264H275.737V255.019H276.733V259.044H281.573V255.019H282.569V264ZM291.683 255.865H288.413V264H287.417V255.865H284.271V255.019H291.683V255.865ZM296.132 264.166C295.369 264.166 294.677 263.978 294.057 263.602C293.443 263.225 292.964 262.702 292.621 262.033C292.278 261.358 292.106 260.602 292.106 259.767V259.41C292.106 258.546 292.272 257.769 292.604 257.077C292.942 256.385 293.41 255.843 294.007 255.45C294.605 255.052 295.252 254.853 295.95 254.853C297.04 254.853 297.903 255.226 298.54 255.973C299.181 256.715 299.502 257.73 299.502 259.02V259.576H293.094V259.767C293.094 260.785 293.385 261.634 293.966 262.315C294.552 262.99 295.288 263.328 296.174 263.328C296.705 263.328 297.173 263.231 297.577 263.037C297.986 262.843 298.357 262.534 298.689 262.107L299.312 262.581C298.581 263.638 297.521 264.166 296.132 264.166ZM295.95 255.699C295.203 255.699 294.572 255.973 294.057 256.521C293.548 257.069 293.238 257.805 293.127 258.729H298.515V258.621C298.487 257.758 298.241 257.055 297.776 256.513C297.311 255.97 296.702 255.699 295.95 255.699ZM308.658 259.601C308.658 261.001 308.348 262.113 307.729 262.938C307.109 263.757 306.279 264.166 305.238 264.166C304.01 264.166 303.069 263.734 302.416 262.871V267.453H301.428V255.019H302.35L302.399 256.289C303.047 255.331 303.985 254.853 305.213 254.853C306.287 254.853 307.128 255.259 307.737 256.073C308.351 256.886 308.658 258.015 308.658 259.459V259.601ZM307.662 259.426C307.662 258.281 307.427 257.376 306.957 256.712C306.486 256.048 305.83 255.716 304.989 255.716C304.381 255.716 303.858 255.862 303.42 256.156C302.983 256.449 302.648 256.875 302.416 257.434V261.742C302.654 262.257 302.994 262.65 303.437 262.921C303.88 263.192 304.403 263.328 305.006 263.328C305.841 263.328 306.492 262.996 306.957 262.332C307.427 261.662 307.662 260.694 307.662 259.426ZM310.493 259.584C310.493 258.123 310.778 256.969 311.348 256.123C311.923 255.276 312.717 254.853 313.73 254.853C314.311 254.853 314.804 254.983 315.208 255.243V251.25H316.195V255.276C316.605 254.994 317.114 254.853 317.723 254.853C318.68 254.853 319.446 255.237 320.022 256.006C320.597 256.776 320.91 257.846 320.96 259.219L320.968 259.758C320.968 261.125 320.681 262.204 320.105 262.996C319.529 263.781 318.741 264.174 317.739 264.174C317.142 264.174 316.627 264.044 316.195 263.784V267.453H315.208V263.792C314.781 264.047 314.283 264.174 313.713 264.174C312.767 264.174 312.009 263.817 311.439 263.104C310.869 262.384 310.556 261.391 310.501 260.124L310.493 259.584ZM319.98 259.584C319.98 258.378 319.762 257.429 319.325 256.737C318.893 256.045 318.287 255.699 317.507 255.699C316.942 255.699 316.505 255.821 316.195 256.064V263.012C316.544 263.228 316.987 263.336 317.523 263.336C318.298 263.336 318.901 263.026 319.333 262.406C319.765 261.781 319.98 260.84 319.98 259.584ZM311.489 259.758C311.489 260.887 311.696 261.767 312.111 262.398C312.526 263.023 313.124 263.336 313.904 263.336C314.424 263.336 314.859 263.222 315.208 262.996V256.04C314.887 255.813 314.458 255.699 313.921 255.699C313.146 255.699 312.546 256.045 312.12 256.737C311.699 257.423 311.489 258.43 311.489 259.758ZM326.663 264.166C325.899 264.166 325.207 263.978 324.587 263.602C323.973 263.225 323.494 262.702 323.151 262.033C322.808 261.358 322.637 260.602 322.637 259.767V259.41C322.637 258.546 322.803 257.769 323.135 257.077C323.472 256.385 323.94 255.843 324.538 255.45C325.135 255.052 325.783 254.853 326.48 254.853C327.57 254.853 328.433 255.226 329.07 255.973C329.712 256.715 330.033 257.73 330.033 259.02V259.576H323.625V259.767C323.625 260.785 323.915 261.634 324.496 262.315C325.083 262.99 325.819 263.328 326.704 263.328C327.235 263.328 327.703 263.231 328.107 263.037C328.516 262.843 328.887 262.534 329.219 262.107L329.842 262.581C329.111 263.638 328.052 264.166 326.663 264.166ZM326.48 255.699C325.733 255.699 325.102 255.973 324.587 256.521C324.078 257.069 323.768 257.805 323.658 258.729H329.045V258.621C329.017 257.758 328.771 257.055 328.306 256.513C327.841 255.97 327.233 255.699 326.48 255.699ZM337.869 255.019H338.865V264H337.869V256.621L333.021 264H332.033V255.019H333.021V262.406L337.869 255.019ZM337.819 251.781C337.819 252.418 337.6 252.932 337.163 253.325C336.731 253.718 336.15 253.915 335.42 253.915C334.701 253.915 334.119 253.721 333.677 253.333C333.24 252.941 333.021 252.423 333.021 251.781H333.868C333.868 252.241 334.003 252.592 334.274 252.835C334.551 253.079 334.933 253.201 335.42 253.201C335.907 253.201 336.286 253.073 336.557 252.819C336.834 252.564 336.972 252.218 336.972 251.781H337.819ZM344.85 263.328C345.541 263.328 346.12 263.134 346.584 262.747C347.055 262.354 347.309 261.847 347.348 261.228H348.303C348.275 261.775 348.104 262.276 347.788 262.73C347.473 263.178 347.052 263.53 346.526 263.784C346.006 264.039 345.447 264.166 344.85 264.166C343.671 264.166 342.736 263.757 342.044 262.938C341.358 262.118 341.015 261.017 341.015 259.634V259.335C341.015 258.45 341.17 257.667 341.479 256.986C341.789 256.305 342.232 255.779 342.808 255.409C343.389 255.038 344.067 254.853 344.841 254.853C345.826 254.853 346.637 255.146 347.273 255.732C347.915 256.319 348.258 257.091 348.303 258.048H347.348C347.304 257.346 347.049 256.778 346.584 256.347C346.125 255.915 345.544 255.699 344.841 255.699C343.945 255.699 343.248 256.023 342.75 256.67C342.257 257.318 342.011 258.225 342.011 259.393V259.684C342.011 260.829 342.257 261.723 342.75 262.365C343.248 263.007 343.948 263.328 344.85 263.328Z" fill="#6A6A6A"/>
<path d="M293.924 288.162L294.364 287.589C295.062 286.643 295.463 285.259 295.568 283.438L295.726 280.019H301.03V288.162H301.959V291.64H300.972V289H294.223V291.64H293.269L293.277 288.162H293.924ZM295.07 288.162H300.034V280.948H296.672L296.564 283.281C296.464 285.422 295.966 287.049 295.07 288.162ZM309.779 280.019H310.775V289H309.779V281.621L304.931 289H303.943V280.019H304.931V287.406L309.779 280.019ZM318.702 282.393C318.702 281.85 318.5 281.432 318.096 281.139C317.692 280.846 317.136 280.699 316.428 280.699C315.786 280.699 315.235 280.865 314.776 281.197C314.322 281.524 314.095 281.939 314.095 282.442H313.107C313.107 281.695 313.426 281.078 314.062 280.591C314.704 280.104 315.493 279.861 316.428 279.861C317.457 279.861 318.259 280.082 318.835 280.525C319.41 280.968 319.698 281.596 319.698 282.409C319.698 282.841 319.565 283.231 319.3 283.58C319.034 283.928 318.647 284.199 318.138 284.393C319.289 284.708 319.864 285.422 319.864 286.535C319.864 287.343 319.552 287.982 318.926 288.452C318.301 288.923 317.471 289.158 316.436 289.158C315.434 289.158 314.604 288.906 313.946 288.402C313.287 287.899 312.958 287.24 312.958 286.427H313.954C313.954 286.969 314.192 287.423 314.668 287.788C315.149 288.148 315.739 288.328 316.436 288.328C317.194 288.328 317.786 288.17 318.212 287.854C318.644 287.534 318.86 287.099 318.86 286.551C318.86 285.948 318.663 285.514 318.271 285.248C317.878 284.982 317.277 284.85 316.469 284.85H315.1V283.986H316.635C318.013 283.953 318.702 283.422 318.702 282.393ZM327.725 289C327.625 288.718 327.562 288.3 327.534 287.747C327.186 288.2 326.74 288.552 326.198 288.801C325.661 289.044 325.091 289.166 324.488 289.166C323.625 289.166 322.924 288.925 322.388 288.444C321.856 287.962 321.591 287.354 321.591 286.618C321.591 285.743 321.953 285.052 322.678 284.542C323.409 284.033 324.424 283.779 325.725 283.779H327.526V282.758C327.526 282.116 327.327 281.612 326.928 281.247C326.535 280.876 325.96 280.691 325.202 280.691C324.51 280.691 323.937 280.868 323.483 281.222C323.03 281.576 322.803 282.002 322.803 282.5L321.807 282.492C321.807 281.778 322.139 281.161 322.803 280.641C323.467 280.115 324.283 279.853 325.251 279.853C326.253 279.853 327.042 280.104 327.617 280.608C328.198 281.106 328.497 281.803 328.514 282.7V286.95C328.514 287.819 328.605 288.469 328.788 288.9V289H327.725ZM324.604 288.286C325.268 288.286 325.86 288.126 326.38 287.805C326.906 287.484 327.288 287.055 327.526 286.518V284.542H325.75C324.759 284.554 323.984 284.736 323.425 285.09C322.866 285.439 322.587 285.92 322.587 286.535C322.587 287.038 322.772 287.456 323.143 287.788C323.519 288.12 324.006 288.286 324.604 288.286ZM337.072 280.019H338.068V289H337.072V281.621L332.224 289H331.236V280.019H332.224V287.406L337.072 280.019ZM337.022 276.781C337.022 277.418 336.803 277.932 336.366 278.325C335.935 278.718 335.354 278.915 334.623 278.915C333.904 278.915 333.323 278.721 332.88 278.333C332.443 277.941 332.224 277.423 332.224 276.781H333.071C333.071 277.241 333.206 277.592 333.478 277.835C333.754 278.079 334.136 278.201 334.623 278.201C335.11 278.201 335.489 278.073 335.76 277.819C336.037 277.564 336.175 277.218 336.175 276.781H337.022ZM347.63 289H346.634V284.883H341.795V289H340.799V280.019H341.795V284.044H346.634V280.019H347.63V289Z" fill="#6A6A6A"/>
</g>
<defs>
<clipPath id="clip0">
<rect width="1581" height="571" fill="white"/>
</clipPath>
</defs>
</svg>
