<svg width="219" height="192" viewBox="0 0 219 192" fill="none" xmlns="http://www.w3.org/2000/svg">
<path d="M92.2109 0.552117C59.3706 1.39864 52.2021 33.6388 43.8776 47.2075C36.7884 58.7593 25.9476 68.0357 21.9746 81.1486C11.1614 116.842 54.723 149.044 91.7947 121.229C97.3368 117.073 102.365 111.803 108.829 109.587C130.003 102.327 147.033 128.151 166.14 133.708C194.502 141.955 220.031 111.446 208.567 81.9086C203.476 68.7926 191.245 59.1476 177.921 57.5395C170.008 56.5837 160.721 57.7501 155.36 51.5226C150.949 46.3987 151.406 38.637 150.853 31.7335C150.3 24.8309 147.622 16.2147 139.428 18.9107C134.762 20.4458 129.214 20.2587 125.313 15.7903C117.097 6.37794 105.262 0.539548 93.1737 0.539548C92.8533 0.539548 92.5321 0.543471 92.2109 0.552117" fill="url(#paint0_linear)"/>
<path d="M99.8829 108.326L57.054 117.989L40.8926 46.2333L83.7207 36.571L99.8829 108.326Z" fill="white"/>
<path d="M35.6358 36.5645C29.9358 37.8504 26.3571 43.5183 27.6419 49.2223C28.9267 54.9278 34.5889 58.5096 40.2889 57.2238L75.7262 49.2286L71.0731 28.5694L35.6358 36.5645Z" fill="#9CA4BB"/>
<path d="M63.0786 41.2276C61.7938 35.5228 65.3733 29.8557 71.0733 28.5698C76.7725 27.2831 82.4355 30.8657 83.7203 36.5705C85.0059 42.2753 81.4264 47.9424 75.7256 49.229C70.0264 50.5149 64.3642 46.9323 63.0786 41.2276Z" fill="white"/>
<path d="M68.8682 58.8137L48.3467 63.444L48.0459 62.1078L68.5674 57.4782L68.8682 58.8137Z" fill="#9CA4BB"/>
<path d="M69.6956 62.4872L49.1741 67.1176L48.8733 65.7814L69.3948 61.1518L69.6956 62.4872Z" fill="#9CA4BB"/>
<path d="M70.5233 66.1607L50.0017 70.791L49.7009 69.4548L70.2217 64.8245L70.5233 66.1607Z" fill="#9CA4BB"/>
<path d="M71.3506 69.8345L50.8291 74.464L50.5283 73.1286L71.0491 68.4983L71.3506 69.8345Z" fill="#9CA4BB"/>
<path d="M81.0217 72.7409L51.9196 79.3071L51.6196 77.9709L80.7209 71.4047L81.0217 72.7409Z" fill="#9CA4BB"/>
<path d="M87.2447 71.3369L84.3483 71.9901L84.0483 70.6547L86.9439 70.0007L87.2447 71.3369Z" fill="#9CA4BB"/>
<path d="M82.1126 77.5832L53.0104 84.1494L52.7104 82.8132L81.8118 76.2477L82.1126 77.5832Z" fill="#9CA4BB"/>
<path d="M88.3362 76.1792L85.4399 76.8331L85.1392 75.4969L88.0346 74.843L88.3362 76.1792Z" fill="#9CA4BB"/>
<path d="M83.2036 82.4258L54.1008 88.9921L53.8008 87.6559L82.902 81.0896L83.2036 82.4258Z" fill="#9CA4BB"/>
<path d="M89.4265 81.0216L86.5303 81.6755L86.2295 80.3393L89.125 79.6862L89.4265 81.0216Z" fill="#9CA4BB"/>
<path d="M84.2939 87.2682L55.1911 93.8345L54.8911 92.4983L83.9924 85.932L84.2939 87.2682Z" fill="#9CA4BB"/>
<path d="M90.517 85.8642L87.6206 86.5173L87.3198 85.1819L90.2154 84.528L90.517 85.8642Z" fill="#9CA4BB"/>
<path d="M85.3848 92.1104L56.2827 98.6766L55.9819 97.3404L85.084 90.775L85.3848 92.1104Z" fill="#9CA4BB"/>
<path d="M91.6078 90.7064L88.7114 91.3604L88.4106 90.0242L91.307 89.371L91.6078 90.7064Z" fill="#9CA4BB"/>
<path d="M86.4751 96.9525L57.373 103.519L57.0723 102.183L86.1743 95.6171L86.4751 96.9525Z" fill="#9CA4BB"/>
<path d="M92.6983 95.5487L89.802 96.2026L89.502 94.8664L92.3975 94.2133L92.6983 95.5487Z" fill="#9CA4BB"/>
<path d="M109.324 44.6203C107.864 46.3558 106.266 48.6863 105.381 51.6841C104.315 55.3555 104.289 58.9208 104.572 61.8054C104.663 62.7769 104.785 63.6658 104.904 64.4817C104.015 61.4988 102.929 58.2621 101.608 54.9043C101.538 53.6058 101.699 51.8727 102.006 49.9195C102.4 47.2597 103.077 44.2454 103.551 40.9795C103.962 38.3126 103.962 35.869 104.014 33.7538C104.048 31.6458 104.172 29.9174 104.619 28.9907C104.176 29.9134 102.853 31.0508 101.516 32.8554C100.17 34.6357 98.7725 37.1045 98.3005 40.1904C98.0304 42.0729 98.0531 43.9058 98.2652 45.5933C98.3838 46.4462 98.5408 47.2612 98.7285 48.0331C98.266 46.3951 97.7586 44.3287 97.0149 41.9809C95.866 38.3008 94.099 33.9378 91.2302 29.7272C88.8726 26.2923 86.0996 23.8251 83.7192 22.0094C81.3381 20.1812 79.3198 19.0061 78.3491 17.9529C79.3221 19.0077 80.3682 21.0898 81.6813 23.7143C83.0054 26.3371 84.6082 29.4678 86.848 32.7297C89.5723 36.7288 92.3665 40.2092 94.6597 43.2063C95.427 44.2013 96.1322 45.1335 96.7691 46.006C99.6442 51.6047 101.817 57.2332 103.435 62.2778C103.07 61.4768 102.654 60.6154 102.144 59.7036C101.381 58.2935 100.379 56.8237 99.1557 55.3578C97.9126 53.9139 96.4118 52.5117 94.655 51.3013C91.7524 49.3434 88.688 48.5636 86.2197 48.2642C83.7389 47.9403 81.8101 48.1148 80.7036 47.7918C81.8164 48.1148 83.3839 49.2278 85.2074 50.7212C87.049 52.2028 89.1365 53.9902 91.6731 55.6989C93.217 56.7663 94.7233 57.7465 96.1581 58.6912C97.5702 59.6572 98.9429 60.5509 100.144 61.4517C101.848 62.6904 103.269 63.8796 104.249 64.925C106.907 73.9058 107.746 80.4713 107.761 80.5986L108.511 80.5067C108.496 80.3888 107.783 74.7752 105.579 66.8216C105.9 65.5522 106.49 63.9669 107.203 62.1685C108.223 59.559 109.499 56.551 110.478 53.1806C111.291 50.4288 111.557 47.8531 111.767 45.6633C111.966 43.4767 112.129 41.7074 112.603 40.7595C112.131 41.705 110.782 42.8714 109.324 44.6203Z" fill="#C69B71"/>
<path d="M172.083 36.7299C172.083 43.3748 165.358 48.7612 157.061 48.7612C148.765 48.7612 142.039 43.3748 142.039 36.7299C142.039 30.0851 148.765 24.6986 157.061 24.6986C165.358 24.6986 172.083 30.0851 172.083 36.7299Z" fill="#C69B71"/>
<path d="M161.612 41.1654H153.971C153.338 41.1654 152.786 40.737 152.628 40.124L150.487 32.2467C150.367 31.779 149.945 31.4512 149.461 31.4512H148.657" stroke="white" stroke-width="1.33333" stroke-miterlimit="10" stroke-linecap="round"/>
<path d="M149.288 31.4513C149.288 31.8003 149.006 32.0833 148.657 32.0833C148.308 32.0833 148.025 31.8003 148.025 31.4513C148.025 31.1023 148.308 30.8194 148.657 30.8194C149.006 30.8194 149.288 31.1023 149.288 31.4513Z" fill="white"/>
<path d="M155.032 42.0312C155.032 42.4879 154.662 42.8573 154.206 42.8573C153.75 42.8573 153.381 42.4879 153.381 42.0312C153.381 41.5753 153.75 41.2059 154.206 41.2059C154.662 41.2059 155.032 41.5753 155.032 42.0312Z" fill="white"/>
<path d="M161.612 42.0312C161.612 42.4879 161.242 42.8573 160.786 42.8573C160.331 42.8573 159.961 42.4879 159.961 42.0312C159.961 41.5753 160.331 41.2059 160.786 41.2059C161.242 41.2059 161.612 41.5753 161.612 42.0312Z" fill="white"/>
<path d="M150.853 33.2363H163.411C163.747 33.2363 163.978 33.572 163.858 33.8848L161.847 39.1518C161.776 39.3373 161.6 39.4591 161.402 39.4591H152.457" stroke="white" stroke-width="1.33333" stroke-miterlimit="10" stroke-linecap="round" stroke-linejoin="round"/>
<path d="M151.182 34.5125H163.617" stroke="white" stroke-width="1.33333" stroke-miterlimit="10" stroke-linecap="round" stroke-linejoin="round"/>
<path d="M61.6568 65.8741L57.0713 64.7038L53.7108 68.0356L49.1315 66.8629L45.7727 70.1948L41.1918 69.0221L37.8345 72.3531L33.2537 71.1812L49.0247 129.263L80.7899 120.623L65.0196 62.5423L61.6568 65.8741Z" fill="#8C1314"/>
<path d="M50.9966 78.5353L46.2658 78.6273L43.9113 82.7326L39.1852 82.8206L36.8316 86.9259L32.1046 87.0147L29.7526 91.1192L25.0256 91.208L55.6544 143.005L83.9822 126.225L53.3534 74.4285L50.9966 78.5353Z" fill="#0F3893"/>
<path d="M62.1678 67.3267C59.2212 67.3267 56.833 69.7169 56.833 72.6668V148.139C56.833 151.088 59.2212 153.478 62.1678 153.478H190.277C193.223 153.478 195.612 151.088 195.612 148.139V72.6668C195.612 69.7169 193.223 67.3267 190.277 67.3267H62.1678Z" fill="url(#paint1_linear)"/>
<path d="M195.612 97.0392H56.8325V80.7344H195.612V97.0392Z" fill="#0D1053"/>
<path d="M46.408 188.629C39.1821 172.511 7.20651 164.844 0.542969 143.808C11.4018 161.292 28.617 146.155 32.1408 164.777C32.8916 168.748 38.451 167.386 41.8444 169.801C45.9116 172.663 43.4308 182.179 46.408 188.629Z" fill="#C69B71"/>
<path d="M174.689 155.732C175.01 129.272 186.755 103.434 206.475 85.8074C196.171 101.535 201.47 111.35 196.013 119.216C191.959 124.761 186.727 121.338 186.649 128.787C186.763 139.523 187.172 136.028 180.906 142.407C177.011 146.381 174.916 150.237 174.689 155.732Z" fill="#C69B71"/>
<path d="M176.972 187.337C203.353 171.533 213.214 156.871 218.395 126.922C217.474 126.867 216.567 126.84 215.665 126.84C184.354 126.843 164.331 159.589 176.972 187.337Z" fill="url(#paint2_linear)"/>
<path d="M210.752 153.393C211.412 151.819 197.159 152.343 189.381 160.418C196.144 149.006 199.384 145.084 205.931 142.845C211.63 140.824 214.552 142.344 214.957 140.966C211.008 140.758 205.255 141.446 200.483 144.822C213.207 129.454 220.849 127.005 217.868 126.904C191.093 148.269 201.796 151.518 203.412 128.968C201.602 129.53 203.367 139.831 196.703 148.431C181.652 168.048 193.314 162.245 190.394 135.268C188.73 136.492 191.767 145.418 188.901 156.988C187.635 162.855 185.874 164.617 182.15 172.705C178.503 180.474 185.073 168.856 178.58 148.224C177.534 150.113 182.178 161.764 180.577 173.436C179.957 178.373 179.276 179.251 176.767 186.851C177.613 188.845 178.033 183.496 180.53 178.62C187.868 165.187 203.034 166.314 204.19 164.887C183.863 165.24 178.219 182.709 182.782 172.992C186.575 164.755 191.428 152.824 210.752 153.393Z" fill="white"/>
<path d="M44.2348 178.828C65.1451 155.594 48.5777 119.306 15.9863 117.26C17.356 146.264 22.8423 158.01 44.2348 178.828" fill="url(#paint3_linear)"/>
<path d="M42.9122 129.565C41.5717 128.243 38.4822 143.424 39.2871 151.869C35.128 140.288 31.8909 139.055 31.1118 130.244C30.3893 120.53 32.0966 121.858 30.4694 121.113C28.9341 143.594 38.5057 138.424 16.5054 117.306C13.785 117.064 22.0766 121.627 30.8291 136.029C27.2975 132.698 22.0781 130.797 17.3669 130.432C17.7706 133.345 29.3872 126.313 38.6361 152.076C34.2555 145.847 27.0454 142.39 19.1795 141.531C19.4842 142.85 35.7021 142.909 40.3371 157.139C41.446 160.796 42.0468 163.846 42.2298 164.707C44.2339 173.715 42.423 157.092 23.3849 153.341C24.197 154.783 39.2078 156.48 43.0497 170.232C44.2418 175.164 43.2256 180.016 44.5583 178.447C44.0934 170.544 43.674 170.263 44.252 165.591C45.419 154.808 52.2506 145.07 51.5815 143.09C41.0369 161.059 44.5936 172.181 42.9052 164.589C41.0227 155.709 36.9178 149.179 42.9122 129.565Z" fill="white"/>
<path d="M12.9683 175.45C18.3619 186.296 29.0409 190.542 40.389 186.4C41.3879 188.41 40.089 184.398 36.2243 180.386C33.0697 177.11 28.2061 173.834 21.4844 173.835C18.9195 173.835 16.0821 174.313 12.9683 175.45Z" fill="url(#paint4_linear)"/>
<path d="M24.3454 174.123C23.6457 174.045 25.9781 179.436 29.4713 181.892C24.0431 179.724 21.3258 179.35 18.9902 174.147C18.303 174.223 20.4651 177.635 22.386 179.062C12.5528 175.135 12.7876 175.115 13.0657 175.637C27.7632 181.507 21.8473 177.994 16.2541 180.324C16.7057 180.868 20.1023 178.447 24.1938 180.081C34.2917 184.114 27.9045 179.986 20.063 184.067C20.7164 184.579 25.7896 180.719 31.4998 182.999C40.4173 186.56 33.3414 182.288 25.5705 187.019C26.5326 187.319 31.854 183.141 37.7943 185.513C41.0495 186.813 41.4288 186.667 37.8956 185.256C31.9113 182.866 30.9768 176.19 30.0666 175.742C32.4242 184.441 40.5429 186.314 31.6019 182.743C27.1985 180.984 25.0868 176.228 24.3454 174.123Z" fill="white"/>
<path d="M183.442 188.723C197.756 189.15 206.799 184.048 214.055 172.049C210.925 170.602 207.726 169.93 204.629 169.93C194.262 169.931 185.046 177.465 183.442 188.723" fill="url(#paint5_linear)"/>
<path d="M205.851 181.977C202.557 180.302 198.44 179.578 194.937 180.706C196.823 179.566 198.762 178.513 200.734 177.53C205.578 175.111 209.408 178.272 209.982 177.592C208.274 176.783 205.647 175.992 202.933 176.472C210.533 172.919 213.69 172.635 214.056 172.049C213.893 171.724 207.849 173.812 202.796 176.174C204.456 174.795 207.813 170.305 206.85 170.197C203.457 176.96 200.868 176.738 194.768 180.423C197.466 177.77 199.353 173.931 200.533 170.366C199.493 170.561 200.632 170.84 197.693 176.014C194.786 181.073 192.663 181.482 188.045 184.887C190.617 181.863 192.372 177.121 193.07 173.252C191.36 174.399 193.756 180.022 183.483 188.477C183.189 190.248 186.462 183.916 194.363 184.581C198.207 184.893 199.368 186.171 200.177 185.812C196.878 184.172 192.043 183.542 188.239 185.151C200.784 175.902 204.403 183.252 205.851 181.977Z" fill="white"/>
<path d="M43.9411 104.921C40.9945 104.921 38.6047 107.312 38.6047 110.261V185.733C38.6047 188.682 40.9945 191.072 43.9411 191.072H172.049C174.996 191.072 177.385 188.682 177.385 185.733V110.261C177.385 107.312 174.996 104.921 172.049 104.921H43.9411Z" fill="url(#paint6_linear)"/>
<path d="M43.9411 104.921C40.9945 104.921 38.6047 107.312 38.6047 110.261V185.733C38.6047 188.682 40.9945 191.072 43.9411 191.072H172.049C174.996 191.072 177.385 188.682 177.385 185.733V180.142C177.385 146.936 119.099 104.921 92.8344 104.921H43.9411Z" fill="url(#paint7_linear)"/>
<path d="M67.4325 147.865H53.7598C51.6897 147.865 50.0122 146.186 50.0122 144.115V136.079C50.0122 134.007 51.6897 132.329 53.7598 132.329H67.4325C69.5026 132.329 71.1793 134.007 71.1793 136.079V144.115C71.1793 146.186 69.5026 147.865 67.4325 147.865Z" fill="#CED2DD"/>
<path d="M60.5961 143.236C56.444 143.236 56.4495 136.958 60.5961 136.958C64.7481 136.958 64.7434 143.236 60.5961 143.236ZM68.2138 136.958C71.7721 136.958 71.18 137.25 71.18 136.078C66.2622 136.078 66.7594 135.914 64.4528 138.99C64.0107 137.447 62.6701 136.282 61.0359 136.103C61.0359 131.577 61.328 132.329 60.1563 132.329V136.103C58.522 136.282 57.1814 137.447 56.7393 138.99C55.5904 137.457 54.8914 136.078 52.9783 136.078C49.42 136.078 50.0121 135.786 50.0121 136.958C52.771 136.958 53.9137 136.686 54.8011 137.869C56.9042 140.674 56.9042 139.519 54.8011 142.324C53.9097 143.513 52.7498 143.236 50.0121 143.236C50.0121 144.407 49.4192 144.115 52.9783 144.115C54.8914 144.115 55.5904 142.735 56.7393 141.204C57.1814 142.746 58.522 143.91 60.1563 144.09V147.865C61.328 147.865 61.0359 148.619 61.0359 144.09C62.6701 143.91 64.0107 142.746 64.4528 141.204C66.8324 144.378 66.3518 144.115 71.18 144.115C71.18 142.944 71.7729 143.236 68.2138 143.236C66.7067 143.236 66.1931 142.06 64.7214 140.097C66.2968 137.995 66.7633 136.958 68.2138 136.958Z" fill="white"/>
<path d="M73.2043 163.975H51.8244C50.7077 163.975 49.803 163.07 49.803 161.951V157.647C49.803 156.529 50.7077 155.624 51.8244 155.624H73.2043C74.3211 155.624 75.2258 156.529 75.2258 157.647V161.951C75.2258 163.07 74.3211 163.975 73.2043 163.975Z" fill="#9CE8F5"/>
<path d="M103.525 163.975H82.1448C81.028 163.975 80.1226 163.07 80.1226 161.951V157.647C80.1226 156.529 81.028 155.624 82.1448 155.624H103.525C104.641 155.624 105.546 156.529 105.546 157.647V161.951C105.546 163.07 104.641 163.975 103.525 163.975Z" fill="#9CE8F5"/>
<path d="M133.845 163.975H112.465C111.348 163.975 110.443 163.07 110.443 161.951V157.647C110.443 156.529 111.348 155.624 112.465 155.624H133.845C134.962 155.624 135.866 156.529 135.866 157.647V161.951C135.866 163.07 134.962 163.975 133.845 163.975Z" fill="#9CE8F5"/>
<path d="M164.165 163.975H142.786C141.669 163.975 140.764 163.07 140.764 161.951V157.647C140.764 156.529 141.669 155.624 142.786 155.624H164.165C165.283 155.624 166.187 156.529 166.187 157.647V161.951C166.187 163.07 165.283 163.975 164.165 163.975Z" fill="#9CE8F5"/>
<path d="M104.039 173.891H51.3258C50.6009 173.891 50.0127 173.303 50.0127 172.577C50.0127 171.851 50.6009 171.262 51.3258 171.262H104.039C104.765 171.262 105.352 171.851 105.352 172.577C105.352 173.303 104.765 173.891 104.039 173.891Z" fill="#9CE8F5"/>
<path d="M73.9138 181.456H51.3253C50.6004 181.456 50.0122 180.868 50.0122 180.142C50.0122 179.416 50.6004 178.828 51.3253 178.828H73.9138C74.6387 178.828 75.2261 179.416 75.2261 180.142C75.2261 180.868 74.6387 181.456 73.9138 181.456Z" fill="#244AB5"/>
<path d="M164.77 120.345H142.182C141.456 120.345 140.869 119.757 140.869 119.031C140.869 118.305 141.456 117.717 142.182 117.717H164.77C165.495 117.717 166.083 118.305 166.083 119.031C166.083 119.757 165.495 120.345 164.77 120.345Z" fill="white"/>
<path d="M99.6089 123.501H51.6674C50.7533 123.501 50.0127 122.76 50.0127 121.846V116.217C50.0127 115.302 50.7533 114.561 51.6674 114.561H99.6089C100.522 114.561 101.263 115.302 101.263 116.217V121.846C101.263 122.76 100.522 123.501 99.6089 123.501Z" fill="white"/>
<path d="M154.847 176.443C154.847 180.009 151.957 182.9 148.394 182.9C144.831 182.9 141.943 180.009 141.943 176.443C141.943 172.877 144.831 169.986 148.394 169.986C151.957 169.986 154.847 172.877 154.847 176.443Z" fill="white"/>
<path d="M158.556 169.986C154.993 169.986 152.104 172.877 152.104 176.443C152.104 180.009 154.993 182.9 158.556 182.9C162.119 182.9 165.008 180.009 165.008 176.443C165.008 172.877 162.119 169.986 158.556 169.986ZM158.556 171.558C161.248 171.558 163.437 173.75 163.437 176.443C163.437 179.137 161.248 181.328 158.556 181.328C155.864 181.328 153.675 179.137 153.675 176.443C153.675 173.75 155.864 171.558 158.556 171.558Z" fill="white"/>
<path d="M143.994 91.7623C153.112 91.7623 150.855 102.526 150.855 102.526C156.091 89.8955 144.355 82.3161 144.265 77.7031C144.174 73.0901 147.936 69.8061 147.641 64.8677C147.348 59.9293 151.629 54.8038 151.629 54.8038C151.439 53.8197 144.939 50.5641 139.932 49.7113H129.253C124.246 50.5641 118.491 53.8904 117.557 54.8038C117.557 54.8038 121.838 59.9293 121.545 64.8677C121.25 69.8061 125.011 73.0901 124.921 77.7031C124.831 82.3161 112.293 91.7623 118.33 102.526C118.33 102.526 116.073 91.7623 125.192 91.7623H143.994Z" fill="white"/>
<path d="M135.111 47.0018C135.481 47.5606 136.088 47.8153 136.684 48.0715C137.257 48.3191 139.364 51.772 140.558 51.772C141.177 51.772 141.654 51.265 142.211 51.265C143.107 51.265 144.27 52.8087 145.246 52.8087C146.167 52.8087 146.981 51.302 146.981 50.4829C146.981 49.0729 145.205 48.4928 145.205 47.2596C145.205 45.561 147.543 45.4659 147.543 43.5567C147.543 40.6407 143.54 41.4282 142.706 39.1976C142.18 37.793 143.082 28.5693 134.593 28.5693C126.103 28.5693 127.005 37.793 126.48 39.1976C125.644 41.4282 121.642 40.6407 121.642 43.5567C121.642 45.4659 123.981 45.561 123.981 47.2596C123.981 48.4928 122.204 49.0729 122.204 50.4829C122.204 51.302 123.018 52.8087 123.938 52.8087C124.915 52.8087 126.078 51.265 126.975 51.265C127.532 51.265 128.008 51.772 128.626 51.772C129.821 51.772 131.928 48.3191 132.502 48.0715C133.098 47.8153 133.704 47.5606 134.075 47.0018H135.111Z" fill="#0D1053"/>
<path d="M138.528 43.5565C138.528 43.5565 138.082 51.2711 140.559 51.7726V54.8042C140.559 56.0964 138.832 58.7727 134.593 58.7727C130.354 58.7727 128.627 56.0964 128.627 54.8042V51.7726C131.104 51.2711 130.658 43.5565 130.658 43.5565H138.528Z" fill="#FFB7A4"/>
<path d="M130.501 48.0671C129.509 52.5654 133.6 54.3213 136.005 53.8026C137.716 53.4339 139.315 51.5475 138.725 48.3572C138.448 46.8606 138.529 45.265 138.529 43.5563H130.657C130.657 43.5563 130.744 46.9651 130.501 48.0671Z" fill="#E08D7E"/>
<path d="M140.434 38.5572C140.616 42.2113 139.582 45.9873 137.757 47.6316C135.931 49.2759 135.018 49.2759 134.593 49.2759C134.167 49.2759 133.253 49.2759 131.428 47.6316C129.603 45.9873 128.569 42.2113 128.751 38.5572C128.751 38.5572 132.249 38.8614 134.593 36.7298C134.593 36.7298 136.082 38.1917 140.434 38.5572" fill="#FFB7A4"/>
<path d="M132.775 146.646C132.713 144.369 129.051 142.58 126.701 144.721C124.037 150.808 120.065 157.032 124.559 157.532C130.603 158.204 132.618 155.919 134.443 151.617C135.42 149.311 135.364 147.741 135.095 146.323C134.45 147.689 132.81 147.932 132.775 146.646Z" fill="#244AB5"/>
<path d="M129.953 157.048C132.119 156.148 133.318 154.267 134.443 151.618C135.421 149.311 135.364 147.741 135.095 146.322C134.45 147.689 132.81 147.931 132.775 146.647C132.714 144.369 129.051 142.581 126.7 144.72C126.412 145.38 126.108 146.04 125.801 146.696C125.314 149.785 132.297 154.357 129.953 157.048Z" fill="#0F3893"/>
<path d="M128.589 138.713C128.382 140.539 127.619 142.622 126.701 144.721C129.05 142.581 132.713 144.369 132.774 146.647C132.81 147.932 134.45 147.689 135.094 146.323C134.86 145.096 134.468 143.983 134.443 142.611C134.415 141.075 134.945 139.169 136.206 136.381C134.193 135.954 131.043 135.29 129.188 134.912C128.917 136.373 128.706 137.671 128.589 138.713Z" fill="#E08D7E"/>
<path d="M145.048 91.8161H134.443V108.065C134.443 112.082 130.765 126.38 129.188 134.912C131.043 135.29 134.193 135.954 136.207 136.381C137.374 133.8 139.169 130.466 141.751 125.943C147.123 116.533 143.631 109.41 144.168 107.125C144.705 104.839 148.764 105.989 150.855 102.526C151.833 99.4356 151.682 91.8161 145.048 91.8161Z" fill="#244AB5"/>
<path d="M144.295 103.842C143.177 105.719 143.35 106.703 144.19 108.765C144.106 108.08 144.074 107.526 144.168 107.125C144.706 104.84 148.764 105.989 150.856 102.526C151.309 101.092 151.518 98.6847 150.952 96.5145C149.588 100.463 144.965 102.719 144.295 103.842Z" fill="#0F3893"/>
<path d="M134.443 91.8161V108.065C134.443 112.082 130.765 126.38 129.188 134.912C131.043 135.29 134.193 135.954 136.207 136.381C136.887 134.878 137.787 133.109 138.923 131.009C135.845 122.729 138.13 113.74 137.788 112.276C137.423 110.714 136.386 109.777 135.585 104.725C135.315 103.022 135.111 93.8306 140.242 91.8161H134.443Z" fill="#0F3893"/>
<path d="M140.627 144.985C140.482 144.098 139.91 142.542 137.789 141.126C134.75 139.53 131.701 141.139 130.759 144.964C130.22 146.85 130.745 148.906 131.204 150.164C131.437 150.8 132.194 151.06 132.766 150.698L140.144 146.039C140.5 145.814 140.695 145.401 140.627 144.985Z" fill="#244AB5"/>
<path d="M134.593 128.12C135.019 122.257 134.699 117.034 134.593 111.702C134.486 106.372 134.593 91.8165 134.593 91.8165C134.593 91.8165 133.417 91.7623 125.192 91.7623C116.967 91.7623 117.271 99.8895 118.33 102.526C119.478 105.384 124.022 107.528 124.022 107.528C124.022 109.553 120.533 114.794 124.9 124.708C126.807 129.039 128.328 132.882 129.367 136.085L134.515 133.49C134.409 131.836 134.454 130.024 134.593 128.12Z" fill="#244AB5"/>
<path d="M128.05 91.816C131.823 91.816 135.193 100.95 134.055 106.43C132.918 111.91 132.08 109.824 134.721 116.539V91.816H128.05Z" fill="#0F3893"/>
<path d="M123.687 103.303C122.029 102.611 119.679 100.261 117.979 97.2796C117.574 99.324 117.884 101.414 118.331 102.526C119.478 105.383 124.023 107.527 124.023 107.527C124.023 107.854 123.932 108.265 123.797 108.765C124.17 107.414 125.344 103.994 123.687 103.303Z" fill="#0F3893"/>
<path d="M134.516 133.49L129.366 136.085C130.704 140.215 131.238 143.283 130.759 144.964C131.701 141.139 134.75 139.53 137.788 141.126C135.631 139.686 134.738 136.931 134.516 133.49Z" fill="#FFB7A4"/>
<path d="M122.136 68.855C121.725 67.6171 121.459 66.3147 121.544 64.8677C121.838 59.9292 117.557 54.8037 117.557 54.8037C114.593 56.6406 113.09 80.7079 112.812 82.9441L120.213 79.5894L122.136 68.855Z" fill="white"/>
<path d="M121.544 64.8674C121.679 62.6053 120.853 60.3102 119.919 58.4804C120.724 60.3786 118.179 74.7356 118.005 76.5332C117.838 78.253 113.554 77.3122 112.885 82.2082C112.856 82.5398 112.83 82.7937 112.812 82.9438L120.213 79.5892L122.136 68.8548C121.724 67.6176 121.459 66.3144 121.544 64.8674Z" fill="#E3E5EC"/>
<path d="M112.812 82.9441C112.812 85.1975 124.549 89.3735 124.549 89.3735H131.385C131.385 89.3735 127.053 83.1052 120.213 79.5894C117.465 78.1762 112.812 79.187 112.812 82.9441Z" fill="white"/>
<path d="M114.55 79.7878C113.524 80.437 112.812 81.4785 112.812 82.9444C112.812 85.1978 124.549 89.373 124.549 89.373H128.05C128.05 89.373 113.218 80.9707 114.55 79.7878" fill="#E3E5EC"/>
<path d="M147.049 68.855C147.46 67.6171 147.727 66.3147 147.641 64.8677C147.347 59.9292 151.629 54.8037 151.629 54.8037C154.592 56.6406 156.095 80.7079 156.374 82.9441L148.972 79.5894L147.049 68.855Z" fill="white"/>
<path d="M147.641 64.8674C147.506 62.6053 148.333 60.3102 149.266 58.4804C148.461 60.3786 151.006 74.7356 151.18 76.5332C151.347 78.253 155.631 77.3122 156.301 82.2082C156.33 82.5398 156.355 82.7937 156.374 82.9438L148.972 79.5892L147.049 68.8548C147.461 67.6176 147.727 66.3144 147.641 64.8674Z" fill="#E3E5EC"/>
<path d="M156.374 82.9441C156.374 85.1975 144.636 89.3735 144.636 89.3735H137.8C137.8 89.3735 142.132 83.1052 148.972 79.5894C151.721 78.1762 156.374 79.187 156.374 82.9441Z" fill="white"/>
<path d="M154.635 79.7878C155.662 80.437 156.374 81.4785 156.374 82.9444C156.374 85.1978 144.636 89.373 144.636 89.373H141.135C141.135 89.373 155.967 80.9707 154.635 79.7878" fill="#E3E5EC"/>
<path d="M149.465 96.5144H119.346C118.525 96.5144 117.804 95.8447 117.737 95.0131L116.364 77.9043C116.285 76.9218 116.954 76.1185 117.857 76.1185H150.954C151.858 76.1185 152.526 76.9218 152.447 77.9043L151.075 95.0131C151.008 95.8447 150.288 96.5144 149.465 96.5144Z" fill="#9CA4BB"/>
<path d="M119.347 96.5145C119.347 96.5145 122.19 97.28 134.808 97.28C147.427 97.28 149.465 96.5145 149.465 96.5145H119.347Z" fill="#0F3893"/>
<path d="M180.486 137.909C180.486 145.274 186.452 151.245 193.811 151.245C201.17 151.245 207.136 145.274 207.136 137.909C207.136 130.544 201.17 124.573 193.811 124.573C186.452 124.573 180.486 130.544 180.486 137.909Z" fill="url(#paint8_linear)"/>
<path d="M180.486 140.735C180.486 148.099 186.452 154.071 193.811 154.071C201.17 154.071 207.136 148.099 207.136 140.735V137.908C207.136 145.274 201.17 151.245 193.811 151.245C186.452 151.245 180.486 145.274 180.486 137.908V140.735Z" fill="#C69B71"/>
<path d="M183.612 137.909C183.612 143.547 188.178 148.116 193.811 148.116C199.444 148.116 204.009 143.547 204.009 137.909C204.009 132.272 199.444 127.702 193.811 127.702C188.178 127.702 183.612 132.272 183.612 137.909Z" fill="url(#paint9_linear)"/>
<path d="M173.598 151.895C173.598 159.26 179.564 165.231 186.924 165.231C194.282 165.231 200.248 159.26 200.248 151.895C200.248 144.53 194.282 138.559 186.924 138.559C179.564 138.559 173.598 144.53 173.598 151.895" fill="url(#paint10_linear)"/>
<path d="M173.598 154.721C173.598 162.085 179.564 168.057 186.924 168.057C194.282 168.057 200.248 162.085 200.248 154.721V151.894C200.248 159.26 194.282 165.231 186.924 165.231C179.564 165.231 173.598 159.26 173.598 151.894V154.721Z" fill="#C69B71"/>
<path d="M176.725 151.895C176.725 157.533 181.29 162.102 186.923 162.102C192.556 162.102 197.122 157.533 197.122 151.895C197.122 146.258 192.556 141.687 186.923 141.687C181.29 141.687 176.725 146.258 176.725 151.895Z" fill="url(#paint11_linear)"/>
<defs>
<linearGradient id="paint0_linear" x1="115.836" y1="144.371" x2="115.836" y2="-15.2294" gradientUnits="userSpaceOnUse">
<stop stop-color="white"/>
<stop offset="0.970309" stop-color="#39D0EB"/>
<stop offset="1" stop-color="#39D0EB"/>
</linearGradient>
<linearGradient id="paint1_linear" x1="126.222" y1="199.306" x2="126.222" y2="33.9401" gradientUnits="userSpaceOnUse">
<stop stop-color="#244AB5"/>
<stop offset="0.00070271" stop-color="#244AB5"/>
<stop offset="0.870695" stop-color="#39D0EB"/>
<stop offset="0.974781" stop-color="#39D0EB"/>
<stop offset="1" stop-color="#39D0EB"/>
</linearGradient>
<linearGradient id="paint2_linear" x1="195.763" y1="114.36" x2="195.763" y2="193.291" gradientUnits="userSpaceOnUse">
<stop stop-color="#C69B71"/>
<stop offset="0.988571" stop-color="white"/>
<stop offset="1" stop-color="white"/>
</linearGradient>
<linearGradient id="paint3_linear" x1="34.7519" y1="112.881" x2="34.7519" y2="197.456" gradientUnits="userSpaceOnUse">
<stop stop-color="#C69B71"/>
<stop offset="0.988571" stop-color="white"/>
<stop offset="1" stop-color="white"/>
</linearGradient>
<linearGradient id="paint4_linear" x1="26.8399" y1="118.068" x2="26.8399" y2="196.999" gradientUnits="userSpaceOnUse">
<stop stop-color="#C69B71"/>
<stop offset="0.988571" stop-color="white"/>
<stop offset="1" stop-color="white"/>
</linearGradient>
<linearGradient id="paint5_linear" x1="198.749" y1="114.36" x2="198.749" y2="193.291" gradientUnits="userSpaceOnUse">
<stop stop-color="#C69B71"/>
<stop offset="0.988571" stop-color="white"/>
<stop offset="1" stop-color="white"/>
</linearGradient>
<linearGradient id="paint6_linear" x1="107.995" y1="236.9" x2="107.995" y2="71.5345" gradientUnits="userSpaceOnUse">
<stop stop-color="#244AB5"/>
<stop offset="0.00070271" stop-color="#244AB5"/>
<stop offset="0.870695" stop-color="#39D0EB"/>
<stop offset="0.974781" stop-color="#39D0EB"/>
<stop offset="1" stop-color="#39D0EB"/>
</linearGradient>
<linearGradient id="paint7_linear" x1="107.995" y1="213.282" x2="107.995" y2="47.9163" gradientUnits="userSpaceOnUse">
<stop stop-color="#244AB5"/>
<stop offset="0.00070271" stop-color="#244AB5"/>
<stop offset="0.870695" stop-color="#39D0EB"/>
<stop offset="0.974781" stop-color="#39D0EB"/>
<stop offset="1" stop-color="#39D0EB"/>
</linearGradient>
<linearGradient id="paint8_linear" x1="193.811" y1="164.061" x2="193.811" y2="131.46" gradientUnits="userSpaceOnUse">
<stop stop-color="#C69B71"/>
<stop offset="0.988571" stop-color="#E2C686"/>
<stop offset="1" stop-color="#E2C686"/>
</linearGradient>
<linearGradient id="paint9_linear" x1="193.811" y1="125.33" x2="193.811" y2="148.061" gradientUnits="userSpaceOnUse">
<stop stop-color="#C69B71"/>
<stop offset="0.988571" stop-color="#E2C686"/>
<stop offset="1" stop-color="#E2C686"/>
</linearGradient>
<linearGradient id="paint10_linear" x1="186.923" y1="178.047" x2="186.923" y2="145.446" gradientUnits="userSpaceOnUse">
<stop stop-color="#C69B71"/>
<stop offset="0.988571" stop-color="#E2C686"/>
<stop offset="1" stop-color="#E2C686"/>
</linearGradient>
<linearGradient id="paint11_linear" x1="186.923" y1="139.316" x2="186.923" y2="162.047" gradientUnits="userSpaceOnUse">
<stop stop-color="#C69B71"/>
<stop offset="0.988571" stop-color="#E2C686"/>
<stop offset="1" stop-color="#E2C686"/>
</linearGradient>
</defs>
</svg>
