<svg width="2291" height="967" viewBox="0 0 2291 967" fill="none" xmlns="http://www.w3.org/2000/svg">
<path d="M1766.99 833.032C1606.95 830.828 1111.05 822.808 810.369 808.505C252.837 781.899 -204.088 815.083 94.1787 859.41C177.487 871.804 -65.8612 940.239 524.555 960.767C1042.8 978.784 1572.36 953.087 1828.62 942.284C2084.88 931.48 2203.51 909.668 2258.71 899.842C2307.18 891.197 2326.43 840.723 1766.99 833.032Z" fill="#F0F0F0"/>
<path d="M363.476 858.211C362.564 859.478 363.244 862.815 363.244 862.815C363.244 862.815 379.292 864.901 384.44 863.537C386.462 862.78 388.384 861.761 390.161 860.505C390.532 860.264 391.15 858.9 391.506 858.628C392.155 858.194 392.495 858.932 393.052 858.531C393.916 857.967 394.733 857.328 395.495 856.622C396.871 848.263 395 844.878 395 844.878C395 844.878 381.333 839.663 378.782 843.273C372.767 851.712 365.486 855.451 363.476 858.211Z" fill="#163F59"/>
<path d="M273 850.581L270.625 864H264.456C264.456 864 263.747 862.106 262.683 862.106C261.619 862.106 260.616 864 259.383 864H227.227C227.227 864 226.641 861.183 227.351 860.212C228.529 859.372 229.846 858.763 231.237 858.413C237.761 856.423 256.452 850.215 259.706 843.45C263.608 835.156 273 850.581 273 850.581Z" fill="#163F59"/>
<path d="M2069.62 389.122C2069.62 389.122 2084.69 359.001 2087.03 347.945C2089.37 336.89 2097.47 281.197 2096.77 277.638C2096.06 274.08 2083.28 265.424 2084.86 262.377C2086.44 259.33 2098.64 259.324 2101.43 259.586C2104.23 259.847 2109.81 261.533 2112.24 263.596C2114.66 265.658 2109.54 332.385 2108.01 346.754C2106.49 361.123 2087.76 405.368 2087.76 405.368L2069.62 389.122Z" fill="#E9D6B8"/>
<path d="M2089.7 260.642L2088.53 256.016C2085.69 256.023 2082.86 255.577 2080.16 254.693L2075.29 251.1C2074.26 250.655 2072.81 251.774 2072.81 252.893C2072.81 254.013 2074.19 256.115 2074.89 256.666C2074.89 256.666 2083.6 263.845 2086.64 266.022C2088.16 267.104 2092.94 270.017 2092.94 270.017L2095.71 264.816L2089.7 260.642Z" fill="#E9D6B8"/>
<path d="M1906.38 486.26C1934.83 515.887 1959.8 489.636 1958.56 490.075C1959.54 489.661 1965.77 489.692 1969.84 489.531C1986.78 488.863 2002.2 476.736 2008.94 460.645C2034.3 457.325 2050.87 433.906 2043.45 413.647C2054.65 399.702 2051.2 377.44 2040.59 363.179C2038.12 339.816 2007.59 335.859 1986.57 344.046C1975.91 348.196 1966.84 357.162 1962.17 368.04C1941.91 367.552 1924.61 382.449 1920.1 403.19C1888.58 411.971 1877.35 456.014 1906.38 486.26Z" fill="#2A425B"/>
<path d="M2089.09 773.357C2087.06 784.155 2084.15 794.769 2080.39 805.094C2080.06 805.885 2076.88 808.804 2076.52 809.614C2078.23 829.125 2090.66 840.707 2102.34 848.975C2099.8 839.13 2094.17 827.845 2094.92 825.656C2099.01 812.165 2104.12 799.002 2110.2 786.282C2100.46 785.187 2097 779.282 2089.09 773.357Z" fill="#E9D6B8"/>
<path d="M2053.53 541.217L1986.06 587.275C1986.06 587.275 2018.92 608.61 2030.18 619.345C2041.45 630.081 2101.75 678.767 2102.72 681.223C2103.45 683.078 2097.16 706.138 2082.63 780.061C2089.05 786.616 2103.16 793.048 2111.53 795.15C2129.06 755.715 2148.86 673.659 2146.63 664.631C2143.19 650.624 2053.53 541.217 2053.53 541.217Z" fill="#2A425B"/>
<path d="M1882.67 633.908C1884.66 635.844 1897.83 661.483 1902.84 675.211C1910.17 670.592 1914.59 665.094 1922.8 661.99C1916.34 652.633 1903.73 630.13 1902.69 624.774C1900.21 612.066 1897.34 610.192 1897.34 610.192C1897.34 610.192 1854.73 624.607 1851.89 628.646C1849.05 632.684 1874.71 626.147 1882.67 633.908Z" fill="#E9D6B8"/>
<path d="M1903.19 627.594C1906.49 627.594 1902.9 612.666 1902.15 609.221C1901.29 605.35 1899.05 604.193 1898.49 604.057C1896.98 603.68 1849.62 619.697 1841.61 625.454C1840.98 626.01 1840.42 626.648 1839.95 627.353C1835.57 635.522 1874.6 637.08 1880.23 633.537C1885.23 630.327 1888.32 627.551 1903.19 627.594Z" fill="#003F1C"/>
<path d="M2065.79 555.625C2065.79 555.625 2008.62 533.122 2007.88 535.515C2001.97 554.574 1983.54 548.427 1972.62 581.994C1968.04 596.05 1964.43 633.16 1961.35 660.679C1959.23 679.59 1956.26 694.747 1956.26 694.747C1956.26 694.747 1943.03 675.181 1918.12 647.13C1916.19 644.96 1896.08 664.074 1896.08 664.074C1935.75 742.716 1964.69 753.835 1971.01 751.695C1999.68 742.011 2037.69 610.187 2037.63 610.199C2042.28 601.115 2065.79 555.625 2065.79 555.625Z" fill="#2A425B"/>
<path d="M1977.57 422.385C1977.57 422.385 1909.32 422.298 1894.71 421.457C1881.49 420.691 1829.04 422.026 1826.99 421.791C1824.94 421.556 1811.38 398.601 1809.13 401.063C1806.88 403.524 1816.67 412.447 1813.64 414.76C1810.61 417.073 1778.06 411.891 1778.49 414.296C1779.3 418.798 1798.29 418.223 1798.29 420.4C1798.29 422.577 1778.41 419.163 1777.06 422.787C1775.72 426.411 1796.17 424.259 1796.98 425.879C1797.8 427.499 1778.02 430.437 1780.05 433.788C1781.14 435.644 1797.57 430.746 1797.49 433.232C1797.41 435.718 1785.42 441.364 1786.89 443.343C1788.37 445.321 1796.3 437.27 1803.26 437.159C1810.22 437.047 1815.19 433.448 1826.29 436.478C1831.77 437.981 1873.61 443.095 1908.97 446.113C1945.22 449.205 1974.93 450.194 1974.93 450.194L1977.57 422.385Z" fill="#E9D6B8"/>
<path d="M2078.76 483.025C2079.66 472.073 2077.52 451.221 2077.01 447.591C2080.33 436.212 2087.38 411.94 2089.91 407.172C2089.91 407.172 2078.03 384.347 2065.87 384.502C2065.87 384.502 2053.45 412.491 2043.84 417.5C2043.71 417.462 2040.45 418.947 2039.01 418.94C2029.73 418.872 1997.34 417.889 1991.29 417.784L1994.69 463.737C2007.46 497.582 2005.13 527.544 2002.88 537.945C2001.65 543.746 2057.9 561.172 2066.55 555.613C2066.89 555.421 2076.93 505.17 2078.76 483.025Z" fill="#137F7F"/>
<path d="M2007.76 419.529C2001.78 416.672 1958.53 418.1 1958.53 418.1C1958.53 418.1 1952.48 448.21 1957.36 455.445C1957.36 455.445 1996.04 461.197 1994.94 464.369L2007.76 419.529Z" fill="#137F7F"/>
<path d="M2015.29 398.46C2015.29 398.46 2019.79 414.272 2020.6 421.105C2021.41 427.939 2031.84 449.23 2046.01 446.188C2060.19 443.145 2045.4 423.264 2042.62 416.999C2039.85 410.735 2032.34 385.461 2032.34 385.461L2015.29 398.46Z" fill="#E9D6B8"/>
<path d="M2035.49 395.812C2033.71 390.043 2032.34 385.436 2032.34 385.436L2015.29 398.459C2015.29 398.459 2016.12 401.366 2017.15 405.224C2026.14 406.449 2032.31 402.139 2035.49 395.812Z" fill="#DFCAA8"/>
<path d="M2002.93 351.102C1998.11 354.202 1994.55 358.921 1992.89 364.41C1990.28 373.458 1993.75 396.648 2013.18 401.978C2032.62 407.309 2040.74 388.781 2036.54 374.447C2032.34 360.112 2023.4 342.024 2002.93 351.102Z" fill="#E9D6B8"/>
<path d="M2038.91 368.819C2038.58 372.69 2036.5 375.671 2034.24 375.486C2031.98 375.3 2030.42 372.01 2030.74 368.139C2031.06 364.268 2033.15 361.281 2035.41 361.473C2037.67 361.664 2039.2 364.967 2038.91 368.819Z" fill="#E9D6B8"/>
<path d="M2080.24 805.572C2079.01 802.48 2066.67 812.287 2063.76 814.272C2060.48 816.505 2060.24 819.016 2060.32 819.585C2060.53 821.087 2091.95 859.78 2101.15 865.111C2102.17 865.548 2103.3 865.656 2104.38 865.42C2109.49 863.454 2101.18 831.81 2094.48 825.558C2090.13 821.52 2085.74 819.38 2080.24 805.572Z" fill="#003F1C"/>
<path d="M2005.18 349.89C2005.18 349.89 2002.05 375.862 1993.74 380.667C1985.43 385.472 1989.1 396.919 1989.1 396.919C1989.1 396.919 1981.1 370.328 1987.61 361.67C1994.12 353.013 2005.18 349.89 2005.18 349.89Z" fill="#2A425B"/>
<path d="M1998.76 384.323C2001.08 387.662 2001.13 391.651 1998.87 393.216C1996.6 394.78 1992.89 393.352 1990.57 390.006C1988.24 386.661 1988.2 382.678 1990.45 381.107C1992.71 379.537 1996.44 380.977 1998.76 384.323Z" fill="#E9D6B8"/>
<path d="M258.991 846.309C258.991 846.309 266.669 857.44 272.308 847.016C285.33 823.029 304.68 763.759 305.321 736.779C306.259 698.094 299.699 671.197 299.699 671.197L258.481 657.748L258.991 846.309Z" fill="#B91819"/>
<path d="M260.356 480.466L258.481 657.732L295.95 678.415C310.621 648.293 319.219 615.579 321.253 582.137C322.453 559.218 323.028 507.807 310.204 490.33C292.843 466.639 260.356 480.466 260.356 480.466Z" fill="#B91819"/>
<path d="M274.017 480.466L280.149 541.824L296.804 608.377L314.527 670.59L377.825 843.22L396.255 844.716C396.255 844.716 393.92 715.095 371.445 677.314C359.542 657.305 359.559 612.915 354.068 565.121C353.065 556.506 357.947 537.056 357.158 529.198C354.996 509.931 348.487 491.407 338.12 475.024L274.017 480.466Z" fill="#D22C2D"/>
<path d="M280.326 328.212C280.326 328.212 297.184 342.278 258.122 391.058C219.06 439.838 209.122 428.545 209.122 428.545L194.258 421.404L177.566 375.521L198.598 367.443L201.388 369.893C201.388 369.893 206.13 369.704 207.998 366.051C209.865 362.398 223.228 349.127 240.865 318.527C248.943 304.405 277.099 325.535 280.326 328.212Z" fill="#D05556"/>
<path d="M280.326 328.212C277.823 326.071 265.267 323.542 266.879 324.911C266.879 324.911 283.747 338.964 244.685 387.744C222.877 414.976 210.148 423.472 203.153 425.685L209.129 428.606C209.129 428.606 219.057 439.913 258.13 391.119C297.202 342.325 280.326 328.212 280.326 328.212Z" fill="#CE3031"/>
<path d="M181.545 377.715C181.545 377.715 136.048 383.219 125.838 336.486C122.782 322.587 121.096 336.675 120.491 350.436C119.886 364.197 133.453 400.834 159.832 412.64C186.21 424.447 197.079 426.727 205.58 419.229C214.081 411.732 181.545 377.715 181.545 377.715Z" fill="#E9D6B8"/>
<path d="M261.206 481.806L340.074 475.4L357.025 364.443C357.025 364.443 368.669 297.152 329.006 301.854C289.343 306.557 243.77 312.898 243.77 312.898C243.77 312.898 214.899 371.888 261.206 481.806Z" fill="#D05557"/>
<path d="M459.062 378.253L525.869 344.064C525.869 344.064 533.733 347.541 528.552 350.318C527.93 350.659 526.765 348.083 524.593 350.541C515.861 360.612 500.386 385.372 488.608 393.213C478.419 399.825 467.547 405.319 456.18 409.599L459.062 378.253Z" fill="#E9D6B8"/>
<path d="M284.098 322.222C284.098 322.222 291.861 387.885 260.401 447.572C257.929 452.267 246.604 452.911 246.604 452.911L245.63 438.221C245.63 438.221 276.093 375.639 284.098 322.222Z" fill="#7DCCD0"/>
<path d="M285.081 320.772L288.813 333.705L308.456 309.09L306.596 305.161L285.081 320.772Z" fill="#CE3031"/>
<path d="M217.711 380.906L210.321 371.057L207.122 367.278C205.57 368.844 203.493 369.78 201.292 369.906L208.169 376.217L214.919 385.137L220.031 399.457L217.711 380.906Z" fill="#CE3031"/>
<path d="M387.842 330.684L455.886 372.297L456.876 378.341L462.459 376.375L461.065 409.095L433.99 417.705L342.074 359.005C342.074 359.005 324.2 340.194 327.615 307.729C330.115 284.211 382.129 327.505 387.842 330.684Z" fill="#D05556"/>
<path d="M443.558 407.227C443.558 407.227 452.277 386.6 456.442 375.694L456.872 378.317L462.455 376.351L461.875 387.664L458.756 403.631L452.332 404.831L452.194 399.91L443.558 407.227Z" fill="#CE3031"/>
<path d="M308.574 289.443C308.327 294.39 307.645 299.306 306.535 304.133C304.771 310.279 283.445 320.827 280.123 322.139C276.8 323.451 278.563 304.673 277.984 300.539C277.573 297.394 279.726 298.088 276.645 293.898L308.574 289.443Z" fill="#E9D6B8"/>
<path d="M269.085 285.577C269.068 286.438 269.221 287.294 269.535 288.095C269.85 288.897 270.319 289.629 270.916 290.249C271.513 290.869 272.227 291.365 273.017 291.71C273.806 292.054 274.655 292.239 275.516 292.254L304.984 292.864C305.844 292.881 306.699 292.728 307.501 292.415C308.302 292.101 309.033 291.633 309.653 291.037C310.274 290.441 310.77 289.729 311.115 288.941C311.46 288.153 311.646 287.304 311.663 286.444L312.561 242.775C312.578 241.915 312.425 241.06 312.112 240.259C311.799 239.458 311.331 238.726 310.734 238.106C310.138 237.486 309.426 236.989 308.638 236.644C307.85 236.3 307.002 236.113 306.142 236.096L276.675 235.499C274.938 235.464 273.259 236.119 272.004 237.32C270.75 238.522 270.023 240.171 269.982 241.908L269.085 285.577Z" fill="#E9D6B8"/>
<path d="M269.731 250.917C269.731 250.917 265.857 246.609 265.193 243.992C264.848 242.679 266.219 237.683 269.54 235.89C272.861 234.097 275.513 237.651 275.513 237.651C275.513 237.651 270.225 240.456 269.923 241.545C269.621 242.634 269.731 250.917 269.731 250.917Z" fill="#163F59"/>
<path d="M315.159 262.513C315.159 262.513 319.962 245.831 319.24 240.888C318.519 235.945 318.047 232.536 312.059 231.876C303.085 230.866 302.94 232.775 298.628 229.931C294.317 227.088 286.599 220.394 283.912 219.672C279.422 218.482 272.351 219.84 271.905 228.308C271.93 229.88 271.559 231.433 270.826 232.823C270.093 234.214 269.022 235.398 267.712 236.266C268.047 237.037 269.677 237.787 272.515 239.28C280.605 243.542 285.54 244.451 291.811 242.926C298.081 241.4 309.884 238.088 311.153 242.775C312.421 247.461 311.585 261.623 312.1 262.729C312.615 263.834 314.05 263.288 315.159 262.513Z" fill="#194866"/>
<path d="M305.61 275.395C305.61 275.965 305.832 276.513 306.229 276.922C306.626 277.331 307.167 277.569 307.737 277.586L314.113 277.714C314.686 277.716 315.237 277.494 315.646 277.093C316.056 276.693 316.292 276.147 316.302 275.575L316.542 263.924C316.542 263.354 316.32 262.806 315.923 262.397C315.525 261.988 314.985 261.75 314.415 261.733L308.039 261.605C307.467 261.605 306.918 261.829 306.509 262.229C306.1 262.629 305.863 263.172 305.849 263.744L305.61 275.395Z" fill="#E9D6B8"/>
<path d="M267.638 274.627C267.635 275.2 267.858 275.751 268.258 276.161C268.658 276.57 269.204 276.806 269.777 276.817L276.141 276.946C276.713 276.949 277.264 276.726 277.674 276.326C278.084 275.925 278.319 275.38 278.33 274.807L278.559 263.17C278.559 262.6 278.337 262.052 277.94 261.643C277.543 261.234 277.002 260.996 276.432 260.979L270.056 260.851C269.485 260.855 268.938 261.08 268.529 261.479C268.121 261.878 267.883 262.42 267.867 262.99L267.638 274.627Z" fill="#E9D6B8"/>
<path d="M312.265 266.25C312.265 266.25 311.913 283.447 311.787 289.181C311.687 294.356 309.393 305.683 280.113 305.098C262.779 304.739 263.692 292.012 263.762 287.83C263.839 284.646 267.637 275.184 269.5 273.384L269.356 280.478C270.602 278.422 272.362 276.726 274.462 275.557C276.563 274.387 278.932 273.785 281.336 273.809C294.621 274.081 297.488 281.917 303.387 281.897C307.857 281.892 311.385 274.614 312.265 266.25Z" fill="#194866"/>
<path d="M286.569 285.199L277.482 285.019C276.91 285.008 276.364 284.773 275.964 284.363C275.563 283.953 275.341 283.402 275.343 282.83L275.378 281.59L288.838 281.877L288.803 283.116C288.778 283.687 288.53 284.225 288.112 284.614C287.694 285.004 287.14 285.214 286.569 285.199Z" fill="#E9D6B8"/>
<path d="M127.619 344.328C127.619 344.328 129.886 329.214 127.151 325.868C124.416 322.521 113.712 311.131 113.712 311.131L110.734 308.472C110.734 308.472 106.255 310.293 113.548 317.981C120.84 325.669 115.423 323.91 115.423 323.91L106.446 319.665L95.0671 315.377L90.2453 312.786C90.2453 312.786 87.555 311.101 86.663 311.267C83.9491 311.758 85.3401 313.799 85.3401 313.799L103.352 325.553L84.0295 319.44C84.0295 319.44 81.4429 319.113 80.8202 320.392C80.1975 321.671 81.0222 321.934 81.0222 321.934L101.429 334.251L91.1855 332.308C91.1855 332.308 88.6811 332.043 87.9914 333.282C87.3017 334.521 86.9778 334.971 86.9778 334.971L125.611 348.234L127.619 344.328Z" fill="#E9D6B8"/>
<path d="M101.223 328.818L87.4517 325.399C87.4517 325.399 84.4381 324.263 82.764 324.679C82.5097 324.724 82.2667 324.818 82.0493 324.957C81.8319 325.097 81.6443 325.277 81.4974 325.49C81.3506 325.702 81.2475 325.941 81.194 326.194C81.1405 326.446 81.1377 326.707 81.1859 326.961L101.521 334.298L101.223 328.818Z" fill="#E9D6B8"/>
<path d="M518.221 353.081C518.221 353.081 513.135 338.67 515.184 334.895C517.233 331.12 525.586 317.875 525.586 317.875L528.011 314.705C528.011 314.705 532.756 315.676 527.048 324.512C521.34 333.348 526.327 330.694 526.327 330.694L534.338 324.829L544.712 318.53L548.964 315.072C548.964 315.072 551.237 312.909 552.186 312.896C554.936 312.869 553.96 315.133 553.96 315.133L538.497 330.087L556.281 320.497C556.281 320.497 558.742 319.68 559.596 320.828C560.451 321.976 559.674 322.361 559.674 322.361L542.008 338.32L551.706 334.494C551.706 334.494 554.151 333.741 555.034 334.823C555.916 335.906 556.277 336.303 556.277 336.303L520.791 356.584L518.221 353.081Z" fill="#E9D6B8"/>
<path d="M541.203 332.831L554.091 326.87C554.091 326.87 556.834 325.189 558.561 325.271C558.82 325.268 559.077 325.316 559.317 325.412C559.557 325.509 559.775 325.652 559.96 325.833C560.144 326.014 560.291 326.231 560.392 326.469C560.492 326.707 560.544 326.963 560.546 327.222L541.956 338.301L541.203 332.831Z" fill="#E9D6B8"/>
<path d="M276.76 313.243L275.181 330.971L284.025 320.91L276.76 313.243Z" fill="#CE3031"/>
<path d="M702.681 855.919C697.674 866.04 691.458 873.161 688.778 871.844C686.099 870.527 687.997 861.248 693.004 851.142C698.011 841.036 704.213 833.9 706.892 835.217C709.572 836.534 707.673 845.813 702.681 855.919Z" fill="#B91819"/>
<path d="M790.761 634.433C787.974 632.718 778.435 643.344 774.377 652.807C766.43 671.182 764.393 681.441 761.3 701.807C756.416 734.054 748.147 785.274 745.421 807.078C742.956 826.724 735.04 849.953 746.861 846.676C746.677 819.711 759.11 779.042 766.277 757.681C790.837 684.657 799.366 639.685 790.761 634.433Z" fill="#E9D6B8"/>
<path d="M720.355 650.635C721.376 645.449 722.443 640.345 723.555 635.322C727.215 628.018 730.4 624.175 732.835 624.741C742.022 626.916 750.398 668.596 721.442 767.59C719.988 772.566 700.556 858.866 700.694 856.753C704.048 801.307 704.844 727.349 720.355 650.635Z" fill="#E9D6B8"/>
<path d="M702.987 852.428C700.43 860.36 694.994 866.072 692.269 864.755C689.543 863.438 690.585 856.654 694.596 849.366C699.68 840.178 701.61 837.499 702.054 830.899C702.498 824.698 712.634 822.615 702.987 852.428Z" fill="#E9D6B8"/>
<path d="M762.993 846.005C764.141 850.829 749.365 848.884 745.537 847.628C743.579 846.979 741.578 846.468 739.549 846.097H739.09C739.083 846.214 739.083 846.332 739.09 846.449C739.09 849.083 737.926 852.574 742.152 852.574H768.643C790.202 852.528 762.901 845.898 762.993 846.005Z" fill="#B91819"/>
<path d="M812.074 339.815L806.393 300.539C799.181 292.883 789.948 288.901 780.561 290.264C762.432 292.883 750.595 314.595 754.086 338.774C757.577 362.952 775.11 380.408 793.225 377.789C805.903 375.952 815.504 364.758 818.934 349.936C817.115 348.859 815.556 347.394 814.37 345.644C813.185 343.894 812.4 341.903 812.074 339.815Z" fill="#163F59"/>
<path d="M740.103 362.493C739.414 368.771 746.029 374.65 754.879 375.615L775.061 377.851C783.911 378.815 791.66 374.528 792.333 368.25L798.642 310.982C799.346 304.704 792.716 298.839 783.881 297.859L763.684 295.639C754.833 294.659 747.101 298.962 746.412 305.24L740.103 362.493Z" fill="#163F59"/>
<path d="M792.763 387.069C804.737 392.26 810.724 390.637 801.582 394.495C797.188 399.885 740.992 392.382 737.93 385.415C737.424 384.236 760.239 380.822 760.362 380.025C761.771 369.904 762.306 361.36 759.489 350.044C759.521 349.648 759.692 349.277 759.973 348.996C760.253 348.716 760.625 348.544 761.02 348.513C765.277 348.635 769.565 348.666 773.852 348.788C774.556 348.788 782.917 350.672 781.064 354.684C780.115 365.662 780.099 381.587 792.763 387.069Z" fill="#E9D6B8"/>
<path d="M796.575 353.858C796.774 353.46 796.958 353.046 797.142 352.648C797.142 352.526 797.249 352.403 797.311 352.266C797.54 351.76 797.755 351.255 797.969 350.734C798.011 350.588 798.062 350.445 798.122 350.306C798.26 349.908 798.413 349.494 798.551 349.081C798.689 348.667 798.719 348.637 798.781 348.407C798.842 348.177 799.01 347.703 799.117 347.335C799.225 346.968 799.27 346.845 799.332 346.615C799.469 346.141 799.592 345.666 799.714 345.191C799.837 344.717 799.898 344.472 799.975 344.104C800.052 343.737 800.143 343.446 800.205 343.124C800.266 342.803 800.342 342.45 800.419 342.114C800.495 341.777 800.526 341.532 800.587 341.225C800.649 340.919 800.679 340.751 800.725 340.521C801.414 336.448 800.036 317.262 796.805 308.105C796.555 307.48 796.097 306.961 795.508 306.635C794.92 306.308 794.237 306.195 793.574 306.313C783.698 307.401 753.609 306.007 761.418 333.432C761.418 333.432 761.863 335.851 762.108 336.938C762.1 337.03 762.1 337.122 762.108 337.214C762.353 338.301 762.613 339.373 762.904 340.414V340.628C763.21 341.685 763.516 342.726 763.853 343.691C763.853 343.691 763.853 343.691 763.853 343.798C768.171 356.722 775.705 365.235 783.759 364.699C788.353 364.378 792.502 361.009 795.58 355.604C795.586 355.558 795.586 355.512 795.58 355.466C795.81 355.068 796.04 354.639 796.269 354.21L796.575 353.858Z" fill="#E9D6B8"/>
<path d="M632.028 376.826C632.028 376.826 629.946 377.821 629.058 376.244C627.619 373.611 627.098 367.623 627.006 365.526C626.899 363.137 628.292 351.821 628.292 351.821C629.727 354.265 630.343 357.103 630.053 359.921C629.272 366.582 632.028 376.826 632.028 376.826Z" fill="#E9D6B8"/>
<path d="M631.833 375.293C629.919 371.435 630.914 366.55 633.456 361.084C635.875 355.893 634.114 352.646 634.114 352.646C632.154 356.365 630.54 360.255 629.291 364.269C628.331 366.646 627.812 369.178 627.76 371.741C628.127 379.259 636.733 385.246 631.833 375.293Z" fill="#E9D6B8"/>
<path d="M857.535 478.898C877.854 495.481 965.594 518.311 965.594 518.311C965.594 518.311 984.504 513.549 873.368 467.107C867.81 464.78 852.512 474.825 857.535 478.898Z" fill="#E9D6B8"/>
<path d="M970.892 522.676C970.892 522.676 977.905 525.294 980.079 528.387C981.611 530.546 986.786 541.847 986.786 541.847C984.055 540.395 981.852 538.118 980.493 535.339C977.994 530.629 974.752 526.353 970.892 522.676Z" fill="#E9D6B8"/>
<path d="M976.8 528.8C981.394 529.995 984.67 534.313 987.35 540.315C989.907 546.011 993.842 546.915 993.842 546.915C992.176 542.654 990.126 538.554 987.717 534.665C986.339 532.292 984.839 529.949 983.308 527.713C978.255 520.271 965.101 525.753 976.8 528.8Z" fill="#E9D6B8"/>
<path d="M963.939 519.764C964.705 522.965 969.773 526.624 969.62 528.676C969.468 531.817 968.654 534.89 967.231 537.695C974.107 536.883 973.969 526.976 976.587 523.699C979.205 520.422 961.979 511.465 963.939 519.764Z" fill="#E9D6B8"/>
<path d="M928.784 503.441C940.742 506.503 954.539 509.78 960.266 514.159C968.427 520.284 969.943 527.083 976.803 528.859C977.544 529.097 978.27 529.379 978.977 529.702C980.891 530.483 983.203 531.003 983.969 531.432C984.735 531.861 987.032 533.545 986.435 532.534C980.784 523.5 973.557 513.961 971.29 512.736C966.697 510.224 940.283 497.423 929.519 494.652C917.376 491.513 912.629 499.322 928.784 503.441Z" fill="#E9D6B8"/>
<path d="M976.999 527.789C976.999 527.789 977.657 525.324 979.602 525.737C982.787 526.442 988.1 530.331 989.938 531.755C991.775 533.179 1000.33 542.627 1000.33 542.627C997.288 542.056 994.5 540.533 992.373 538.278C987.457 532.857 976.999 527.789 976.999 527.789Z" fill="#E9D6B8"/>
<path d="M912.872 486.063C905.002 489.248 882.094 483 882.033 487.517C903.072 500.104 966.909 510.486 966.909 510.486L912.872 486.063Z" fill="#E9D6B8"/>
<path d="M712.329 422.761C701.396 430.831 691.734 459.22 684.215 477.212C679.989 487.349 681.551 494.989 681.551 494.989C681.551 494.989 685.256 518.754 713.569 453.983C720.658 437.752 716.432 419.699 712.329 422.761Z" fill="#E9D6B8"/>
<path d="M690.525 493.902C690.387 469.969 647.559 406.928 647.559 406.928C647.559 406.928 625.05 387.926 666.117 480.565C678.459 508.387 690.571 499.797 690.525 493.902Z" fill="#E9D6B8"/>
<path d="M631.892 370.607L630.07 371.771L628.845 379.09C628.845 379.09 632.153 392.06 635.154 396.515C638.155 400.971 642.703 421.015 643.912 423.205C645.122 425.394 656.958 425.318 656.958 425.318C656.958 425.318 647.465 406.3 644.341 398.445C641.217 390.59 640.605 377.85 639.503 374.726C637.604 369.382 636.945 366.58 636.945 366.58C636.945 366.58 634.235 367.989 636.716 376.533C637.374 378.784 634.511 378.309 634.511 378.309L631.892 370.607Z" fill="#E9D6B8"/>
<path d="M732.816 463.676L807.815 463.048L816.987 377.269L727.992 385.721L732.816 463.676Z" fill="#D05556"/>
<path d="M812.072 719.207C775.184 724.98 768.523 720.08 726.139 714.031C722.143 714.031 704.962 672.841 717.044 563.971C719.54 541.554 736.491 523.547 732.617 462.681L808.228 461.149C798.291 516.61 858.162 525.201 812.072 719.207Z" fill="#D05556"/>
<path d="M856.384 477.12L814.061 414.049L803.205 385.629C803.988 383.266 805.548 381.237 807.63 379.872L809.07 378.938C814.628 375.37 822.345 377.774 826.311 384.328L874.79 464.258L856.384 477.12Z" fill="#D05556"/>
<path d="M702.895 484.623L728.697 429.713L739.078 391.432C737.695 389.451 735.739 387.939 733.474 387.099L731.943 386.487C728.974 385.375 725.686 385.488 722.8 386.8C719.914 388.112 717.668 390.516 716.554 393.484L685.501 469.127L702.895 484.623Z" fill="#D05556"/>
<path d="M631.387 379.888C631.387 379.888 629.32 373.365 630.362 370.088C631.097 367.806 636.303 357.654 636.303 357.654C636.803 360.446 636.406 363.325 635.17 365.877C633.162 370.313 631.885 375.044 631.387 379.888Z" fill="#E9D6B8"/>
<path d="M634.451 378.356C634.451 378.356 636.349 378.8 636.977 378.203C636.969 378.804 636.908 379.404 636.793 379.994C636.671 381.127 637.299 388.799 637.299 388.799C636.661 386.444 635.889 384.129 634.987 381.862C634.332 380.194 633.82 378.473 633.455 376.718C633.433 376.345 633.433 375.972 633.455 375.6L634.451 378.356Z" fill="#E9D6B8"/>
<path d="M636.717 376.535C635.048 370.792 635.722 368.281 636.35 367.225C636.733 368.587 637.407 370.762 638.463 373.778C638.994 375.787 639.363 377.835 639.566 379.903C639.658 380.439 637.621 380.944 636.84 385.569C636.687 386.396 635.156 381.388 634.895 378.341C635.661 378.357 637.223 378.265 636.717 376.535Z" fill="#E9D6B8"/>
<path d="M778.016 346.2C776.195 345.122 774.636 343.654 773.449 341.901C772.263 340.148 771.48 338.155 771.156 336.063L765.475 296.787C765.123 296.435 764.756 296.114 764.403 295.777H763.714C754.864 294.797 747.131 299.1 746.442 305.378L740.133 362.63C739.597 367.484 743.441 372.047 749.321 374.344C750.346 374.338 751.369 374.261 752.383 374.114C764.985 372.139 774.586 360.946 778.016 346.2Z" fill="#163F59"/>
<path d="M1207.09 495.356L1212.83 569.526C1212.83 569.526 1232.86 529.781 1235.01 501.88C1237.16 473.98 1206.53 494.244 1207.09 495.356Z" fill="#E9D6B8"/>
<path d="M1074.44 453.07L1110.87 512.283C1110.87 512.283 1056.75 486.262 1059.5 462.044C1062.25 437.827 1074.44 453.07 1074.44 453.07Z" fill="#E9D6B8"/>
<path d="M1166.64 312.533C1165.93 320.996 1161.38 328.332 1156.6 328.677H1142.98C1138.2 328.332 1133.64 320.996 1132.94 312.533C1131.83 298.583 1130.71 284.628 1129.59 270.667C1128.85 262.294 1132.11 245.503 1139.36 240.603C1142.4 238.444 1146.05 237.285 1149.78 237.285C1153.52 237.285 1157.16 238.444 1160.21 240.603C1167.45 245.563 1170.73 262.355 1169.99 270.667C1168.87 284.618 1167.75 298.573 1166.64 312.533Z" fill="#E9D6B8"/>
<path d="M1209.97 334C1209.97 334 1225.73 345.628 1234.86 416.267C1243.98 486.906 1238.18 484.209 1238.18 484.209L1236.53 500.318L1213.28 503L1200 442.191L1209.97 334Z" fill="#EFB419"/>
<path d="M1213 334.644L1173.07 316L1152.46 322.375L1126.98 319.361L1098.91 331.946C1098.91 331.946 1086.23 344.546 1098.01 385.013C1109.79 425.481 1108.02 492.308 1108.02 492.308L1209.95 499C1209.95 499 1203.05 357.1 1213 334.644Z" fill="#FFCF50"/>
<path d="M1113.66 333.772C1113.66 333.772 1097.79 324.753 1081.92 344.536C1054.86 378.163 1041.76 419.878 1038.95 427.965C1036.14 436.053 1032.43 460.255 1043.63 467.425L1054.83 474.596L1078.19 460.255L1074.44 453.07L1072.58 448.56C1072.58 448.56 1085.66 419.848 1099.64 393.842C1113.62 367.836 1113.66 333.772 1113.66 333.772Z" fill="#FFCF50"/>
<path d="M1145.02 321.506L1134.63 332.855L1124.25 317.883L1130.48 308.653L1145.02 321.506Z" fill="#D0D0D0"/>
<path d="M1167.84 309.539L1147.86 322.422L1157.3 333.756L1172.89 316.063L1167.84 309.539Z" fill="#D0D0D0"/>
<path d="M1151.79 230.681V221H1172.7C1176.07 221 1179.31 222.341 1181.7 224.729C1184.09 227.117 1185.43 230.356 1185.43 233.732V243.413H1164.52C1161.14 243.413 1157.9 242.072 1155.52 239.684C1153.13 237.296 1151.79 234.058 1151.79 230.681Z" fill="#163F59"/>
<path d="M1131.75 289.413C1131.75 292.417 1132.95 295.296 1135.07 297.418C1137.2 299.541 1140.08 300.733 1143.08 300.733H1168.77C1171.77 300.717 1174.63 299.517 1176.74 297.396C1178.85 295.275 1180.03 292.405 1180.03 289.413V238.033C1180.03 236.545 1179.74 235.071 1179.18 233.696C1178.61 232.321 1177.77 231.072 1176.72 230.019C1175.67 228.966 1174.42 228.131 1173.05 227.561C1171.67 226.991 1170.2 226.698 1168.71 226.698H1143.02C1140.02 226.698 1137.13 227.892 1135.01 230.018C1132.88 232.144 1131.69 235.026 1131.69 238.033L1131.75 289.413Z" fill="#E9D6B8"/>
<path d="M1150.97 221C1148.86 221.003 1146.78 221.53 1144.93 222.535C1143.07 223.54 1141.49 224.991 1140.33 226.757H1135.96C1133.34 226.757 1130.83 227.796 1128.98 229.646C1127.13 231.495 1126.1 234.003 1126.1 236.619V261.001H1133.04V251.095C1133.04 249.253 1133.77 247.486 1135.07 246.184C1136.38 244.882 1138.14 244.15 1139.99 244.15H1160.94C1164.32 244.15 1167.56 242.808 1169.94 240.421C1172.33 238.033 1173.67 234.794 1173.67 231.418V221H1150.97Z" fill="#163F59"/>
<path d="M1135.22 267.33C1135.22 265.736 1134.59 264.206 1133.46 263.078C1132.33 261.951 1130.81 261.317 1129.21 261.317H1128.71C1127.12 261.317 1125.59 261.951 1124.46 263.078C1123.33 264.206 1122.7 265.736 1122.7 267.33V274.666C1122.7 276.261 1123.33 277.79 1124.46 278.918C1125.59 280.046 1127.12 280.679 1128.71 280.679H1129.21C1130.38 280.684 1131.53 280.347 1132.51 279.709C1133.5 279.071 1134.27 278.159 1134.74 277.086L1135.22 267.33Z" fill="#E9D6B8"/>
<path d="M1149.14 536.575C1149.14 536.575 1180.81 648.762 1206.18 688.914C1231.56 729.065 1240.41 676.888 1240.41 676.888L1208.84 490.336L1135.19 489.87C1135.19 489.87 1137.05 493.643 1149.14 536.575Z" fill="#084949"/>
<path d="M1177.13 490.261C1177.13 490.261 1155.98 674.243 1152.87 683.548C1142.6 714.83 1119.12 694.627 1115.5 684.194C1111.88 673.762 1105.83 596.615 1107.05 540.319C1108.27 484.023 1108.24 487.706 1108.24 487.706L1177.13 490.261Z" fill="#137F7F"/>
<path d="M1112.48 851.624C1111.38 852.947 1112.18 856.435 1112.18 856.435C1112.18 856.435 1131.27 858.554 1137.4 857.111C1139.8 856.32 1142.09 855.251 1144.24 853.924C1144.66 853.669 1145.43 852.211 1145.83 851.955C1146.6 851.504 1147.01 852.271 1147.65 851.85C1148.69 851.265 1149.67 850.591 1150.58 849.836C1152.25 841.072 1150.03 837.554 1150.03 837.554C1150.03 837.554 1133.76 832.157 1130.73 835.916C1123.56 844.755 1114.87 848.708 1112.48 851.624Z" fill="#161711"/>
<path d="M1234.14 843.731L1236.85 857.967H1251.36C1251.36 857.967 1252.15 855.953 1253.4 855.953C1254.42 855.953 1255.76 857.967 1257.16 857.967H1294.05C1294.05 857.967 1294.71 854.961 1293.91 853.939C1292.53 853.049 1291 852.404 1289.4 852.029C1281.89 849.94 1260.48 843.356 1256.75 836.215C1252.29 827.572 1234.14 843.731 1234.14 843.731Z" fill="#161711"/>
<path d="M1158.25 605.093C1158.25 605.093 1153.55 674.888 1154.22 711.823C1154.72 739.648 1154.78 792.998 1150.54 838.471C1150.28 841.252 1127.59 839.147 1127.59 839.147C1127.59 839.147 1112.34 665.162 1109.92 636.661C1107.5 608.159 1140.12 584.664 1158.25 605.093Z" fill="#137F7F"/>
<path d="M1233.56 685.283C1233.56 685.283 1227.16 686.681 1206.97 688.44C1197.79 689.221 1233.88 849.467 1233.88 849.467L1262.44 837.14L1240.93 675.737L1233.56 685.283Z" fill="#084949"/>
<path d="M1634.01 851.451C1634.01 851.451 1626.72 862.166 1621.36 852.131C1608.99 829.038 1590.62 771.979 1590.01 746.006C1589.12 708.763 1595.35 682.869 1595.35 682.869L1634.49 669.922L1634.01 851.451Z" fill="#163F59"/>
<path d="M1632.71 499.25L1634.49 669.905L1598.91 689.816C1584.98 660.819 1576.81 629.324 1574.88 597.129C1573.74 575.065 1573.19 525.572 1585.37 508.747C1601.86 485.939 1632.71 499.25 1632.71 499.25Z" fill="#163F59"/>
<path d="M1619.74 499.251L1613.91 558.32L1598.1 622.391L1581.27 682.284L1521.15 848.475L1503.65 849.916C1503.65 849.916 1505.87 725.129 1527.21 688.757C1538.52 669.495 1538.5 626.76 1543.72 580.748C1544.67 572.454 1540.03 553.73 1540.78 546.165C1542.83 527.617 1549.02 509.784 1558.86 494.012L1619.74 499.251Z" fill="#194866"/>
<path d="M1633.29 501.847L1556.19 500.122L1523.27 388.361C1523.27 388.361 1501.91 320.793 1542.84 319.922C1583.76 319.052 1630.93 319.067 1630.93 319.067C1630.93 319.067 1664.73 382.094 1633.29 501.847Z" fill="#E2E3E4"/>
<path d="M1494.95 469.192L1543.81 529.433C1543.81 529.433 1542.06 538.217 1538.12 533.548C1537.66 532.994 1540.03 531.221 1537.05 529.575C1525.06 522.943 1496.87 512.719 1486.46 502.51C1477.64 493.641 1469.79 483.841 1463.04 473.276L1494.95 469.192Z" fill="#E9D6B8"/>
<path d="M1591.4 334.751C1591.4 334.751 1627.31 397.461 1617.08 466.85C1616.29 472.31 1609.87 476.22 1609.87 476.22L1601.03 468.417C1601.03 468.417 1601.75 389.879 1591.4 334.751Z" fill="#0C6D6A"/>
<path d="M1590.12 333.09L1588.17 346.939L1564.73 324.432V320.981L1590.12 333.09Z" fill="#D0D0D0"/>
<path d="M1597.5 324.162L1601.61 342.174L1591.21 333.089L1597.5 324.162Z" fill="#D0D0D0"/>
<path d="M1667.03 385.307L1673.14 374.1L1675.84 369.764C1677.63 371.134 1679.85 371.798 1682.08 371.632L1675.99 379.102L1670.42 389.248L1667.3 404.727L1667.03 385.307Z" fill="#D0D0D0"/>
<path d="M1526.99 386.382L1500.18 464.666L1494.37 467.009L1497.61 472.216L1464.54 478.041L1450 452.463L1488.63 346.211C1488.63 346.211 1503.56 323.878 1536.81 320.174C1560.98 317.484 1528.93 379.877 1526.99 386.382Z" fill="#E2E3E4"/>
<path d="M1462.52 459.886C1462.52 459.886 1485.07 464.175 1496.87 465.979L1494.34 467.008L1497.57 472.215L1486.11 474.131L1469.44 474.511L1466.85 468.258L1471.72 467.024L1462.52 459.886Z" fill="#D0D0D0"/>
<path d="M1561.83 304.235C1562.79 309.291 1564.18 314.252 1565.98 319.066C1568.65 325.128 1591.79 332.915 1595.35 333.786C1598.91 334.656 1594.46 315.6 1594.46 311.263C1594.46 307.955 1592.35 308.984 1594.88 304.235H1561.83Z" fill="#E9D6B8"/>
<path d="M1601.36 294.581C1601.65 296.362 1601.22 298.186 1600.18 299.649C1599.13 301.112 1597.56 302.096 1595.8 302.383L1565.97 307.227C1565.09 307.371 1564.2 307.34 1563.35 307.135C1562.49 306.93 1561.68 306.554 1560.96 306.031C1560.25 305.507 1559.64 304.846 1559.18 304.084C1558.72 303.322 1558.41 302.475 1558.27 301.592L1551.18 256.784C1550.9 255.002 1551.33 253.181 1552.38 251.72C1553.42 250.26 1555 249.28 1556.75 248.996L1586.57 244.137C1587.45 243.995 1588.34 244.028 1589.2 244.235C1590.05 244.443 1590.87 244.819 1591.58 245.344C1592.29 245.869 1592.9 246.532 1593.36 247.294C1593.82 248.057 1594.13 248.904 1594.27 249.788L1601.36 294.581Z" fill="#E9D6B8"/>
<path d="M1595.79 259.014C1595.79 259.014 1599.1 254.013 1599.41 251.243C1599.18 249.593 1598.56 248.026 1597.59 246.681C1596.62 245.336 1595.33 244.255 1593.85 243.535C1590.23 242.111 1588.04 246.194 1588.04 246.194C1588.04 246.194 1593.8 248.315 1594.29 249.36C1594.77 250.404 1595.79 259.014 1595.79 259.014Z" fill="#163F59"/>
<path d="M1551.34 277.44C1551.34 277.44 1544.09 260.963 1544.12 255.787C1544.15 250.612 1544.12 247.019 1550.13 245.468C1559.11 243.141 1559.5 245.088 1563.5 241.574C1567.5 238.06 1574.35 230.02 1576.99 228.912C1581.38 227.044 1588.75 227.424 1590.4 236.066C1590.6 237.681 1591.2 239.22 1592.14 240.539C1593.08 241.859 1594.34 242.917 1595.79 243.616C1595.55 244.455 1594.01 245.468 1591.34 247.399C1583.72 252.954 1578.85 254.6 1572.26 253.951C1565.67 253.302 1553.22 251.593 1552.6 256.563C1551.98 261.533 1554.83 276.031 1554.46 277.234C1554.08 278.437 1552.57 278.104 1551.34 277.44Z" fill="#194866"/>
<path d="M1562.86 289.358C1562.95 289.952 1562.8 290.557 1562.45 291.043C1562.11 291.529 1561.58 291.857 1561 291.954L1554.55 292.999C1554.26 293.048 1553.96 293.039 1553.68 292.972C1553.39 292.905 1553.12 292.781 1552.88 292.607C1552.65 292.433 1552.45 292.213 1552.29 291.96C1552.14 291.706 1552.04 291.425 1551.99 291.131L1550.08 279.181C1549.99 278.585 1550.14 277.978 1550.49 277.489C1550.83 277.001 1551.36 276.67 1551.94 276.569L1558.39 275.525C1558.98 275.433 1559.57 275.58 1560.05 275.932C1560.53 276.285 1560.86 276.815 1560.95 277.408L1562.86 289.358Z" fill="#E9D6B8"/>
<path d="M1601.28 283.104C1601.33 283.398 1601.32 283.698 1601.26 283.987C1601.19 284.277 1601.07 284.551 1600.9 284.792C1600.72 285.034 1600.51 285.238 1600.26 285.394C1600.01 285.55 1599.73 285.654 1599.44 285.7L1592.99 286.745C1592.7 286.794 1592.4 286.785 1592.12 286.716C1591.83 286.648 1591.56 286.523 1591.32 286.347C1591.08 286.172 1590.88 285.95 1590.73 285.695C1590.58 285.44 1590.47 285.156 1590.43 284.861L1588.54 272.927C1588.45 272.331 1588.59 271.721 1588.94 271.232C1589.29 270.742 1589.81 270.412 1590.4 270.315L1596.83 269.271C1597.42 269.179 1598.02 269.325 1598.5 269.678C1598.98 270.03 1599.31 270.56 1599.41 271.154L1601.28 283.104Z" fill="#E9D6B8"/>
<path d="M1554.74 280.905C1554.74 280.905 1557.53 298.537 1558.47 304.425C1559.31 309.743 1563.25 321.06 1592.82 316.249C1610.37 313.4 1607.65 300.421 1606.98 296.147C1606.47 292.871 1601.27 283.675 1599.17 282.108L1600.33 289.373C1598.77 287.44 1596.75 285.951 1594.45 285.052C1592.15 284.152 1589.66 283.874 1587.23 284.245C1573.77 286.429 1571.98 294.897 1566.03 295.736C1561.5 296.353 1556.88 289.373 1554.74 280.905Z" fill="#194866"/>
<path d="M1583.56 296.716L1592.77 295.133C1593.36 295.036 1593.88 294.709 1594.23 294.222C1594.58 293.736 1594.72 293.131 1594.63 292.537L1594.43 291.224L1580.8 293.439L1581 294.753C1581.04 295.054 1581.13 295.343 1581.28 295.605C1581.43 295.868 1581.63 296.097 1581.87 296.279C1582.11 296.462 1582.38 296.595 1582.67 296.67C1582.96 296.745 1583.26 296.76 1583.56 296.716Z" fill="#E9D6B8"/>
<path d="M1766.65 340.419C1766.65 340.419 1762.21 325.193 1764.51 321.426C1766.8 317.659 1776.05 304.332 1776.05 304.332L1778.7 301.166C1778.7 301.166 1783.51 302.432 1777.14 311.296C1770.77 320.16 1776.08 317.627 1776.08 317.627L1784.59 311.977L1795.52 305.93L1800.04 302.575C1800.04 302.575 1802.5 300.454 1803.46 300.486C1806.27 300.612 1805.15 302.907 1805.15 302.907L1788.54 317.595L1807.27 308.59C1807.27 308.59 1809.85 307.877 1810.65 309.112C1811.44 310.346 1810.65 310.695 1810.65 310.695L1791.68 326.317L1801.81 322.85C1801.81 322.85 1804.34 322.217 1805.18 323.388C1806.02 324.56 1806.38 324.971 1806.38 324.971L1769.05 344.17L1766.65 340.419Z" fill="#E9D6B8"/>
<path d="M1769.76 338.703L1783.25 333.195C1784.69 332.382 1786.29 331.901 1787.94 331.786C1788.2 331.796 1788.46 331.859 1788.7 331.971C1788.94 332.084 1789.16 332.243 1789.34 332.44C1789.52 332.637 1789.66 332.868 1789.75 333.119C1789.84 333.371 1789.88 333.639 1789.87 333.907L1770.25 344.385L1769.76 338.703Z" fill="#E9D6B8"/>
<path d="M1606.18 340.167C1606.18 340.167 1591.06 357.056 1637.63 401.643C1684.21 446.229 1692.68 433.171 1692.68 433.171L1706.74 423.675L1717.17 374.055L1694.7 368.768L1692.25 371.696C1692.25 371.696 1687.42 372.171 1684.99 368.689C1682.55 365.207 1667.14 353.463 1644.91 324.498C1634.66 311.155 1609.07 336.891 1606.18 340.167Z" fill="#E2E3E4"/>
<path d="M1713.46 376.903C1713.46 376.903 1760.43 376.032 1764.18 326.475C1765.29 311.74 1769 326.001 1771.56 340.056C1774.12 354.111 1765.55 393.87 1740.45 409.698C1715.34 425.526 1704.64 429.53 1694.95 423.041C1685.25 416.551 1713.46 376.903 1713.46 376.903Z" fill="#E9D6B8"/>
<path d="M1536.14 860.994C1537.06 862.244 1536.37 865.536 1536.37 865.536C1536.37 865.536 1520.16 867.594 1514.96 866.249C1512.92 865.501 1510.98 864.496 1509.19 863.257C1508.81 863.019 1508.19 861.674 1507.83 861.405C1507.17 860.978 1506.83 861.706 1506.27 861.31C1505.39 860.753 1504.57 860.123 1503.8 859.427C1502.41 851.18 1504.3 847.841 1504.3 847.841C1504.3 847.841 1518.1 842.697 1520.68 846.258C1526.75 854.583 1534.11 858.271 1536.14 860.994Z" fill="#163F59"/>
<path d="M1621.42 850.359L1623.82 863.701H1630.07C1630.07 863.701 1630.79 861.818 1631.86 861.818C1632.94 861.818 1633.96 863.701 1635.21 863.701H1667.76C1667.76 863.701 1668.35 860.9 1667.64 859.934C1666.44 859.1 1665.11 858.494 1663.7 858.146C1657.1 856.167 1638.17 849.995 1634.88 843.268C1630.93 835.021 1621.42 850.359 1621.42 850.359Z" fill="#163F59"/>
<path d="M270.549 95.7745C270.549 146.459 229.46 187.548 178.775 187.548C128.089 187.548 87 146.459 87 95.7745C87 45.0879 128.089 3.99985 178.775 3.99985C229.46 3.99985 270.549 45.0879 270.549 95.7745Z" fill="#FAD012"/>
<path d="M126.964 66.5692L140.087 74.0159L127.139 81.3545C124.348 82.9359 123.368 86.4799 124.949 89.2705C126.531 92.0612 130.076 93.0412 132.867 91.4599L154.725 79.0705C156.547 78.0385 157.669 76.1132 157.669 74.0199C157.669 71.9252 156.548 69.9999 154.727 68.9665L132.696 56.4665C129.907 54.8839 126.361 55.8626 124.779 58.6519C123.196 61.4426 124.175 64.9865 126.964 66.5692Z" fill="#392F17"/>
<path d="M230.603 81.4429L217.631 73.9109L230.432 66.4843C233.175 64.8936 234.108 61.3802 232.517 58.6376C230.925 55.8949 227.412 54.9616 224.671 56.5536L203.313 68.9416C201.539 69.9709 200.453 71.8549 200.453 73.9069C200.453 75.9576 201.537 77.8429 203.311 78.8722L224.836 91.3722C227.577 92.9642 231.091 92.0322 232.684 89.2909C234.276 86.5496 233.344 83.0349 230.603 81.4429Z" fill="#392F17"/>
<path d="M150.373 133.328L150.284 133.301L150.373 133.329V133.328L150.284 133.301L150.373 133.329C150.464 132.987 152.239 127.464 156.645 122.344C158.847 119.775 161.673 117.3 165.283 115.461C168.899 113.625 173.307 112.385 178.921 112.379C184.723 112.385 189.216 113.696 192.864 115.612C195.596 117.053 197.853 118.857 199.721 120.781C202.521 123.664 204.429 126.828 205.604 129.244C206.192 130.451 206.597 131.467 206.848 132.155C206.973 132.499 207.059 132.76 207.111 132.923L207.163 133.091L207.169 133.115L209.191 132.537L207.164 133.096L207.169 133.115L209.191 132.537L207.164 133.096C207.849 135.581 210.419 137.04 212.904 136.355C215.388 135.669 216.847 133.1 216.161 130.615C216.045 130.244 214.239 123.664 208.689 116.833C205.912 113.428 202.161 109.964 197.219 107.356C192.281 104.745 186.163 103.039 178.921 103.045C171.675 103.039 165.536 104.76 160.576 107.388C156.852 109.353 153.791 111.808 151.311 114.352C147.589 118.173 145.159 122.191 143.625 125.283C142.093 128.376 141.46 130.555 141.399 130.764C140.691 133.241 142.127 135.825 144.604 136.533C147.083 137.241 149.665 135.805 150.373 133.328Z" fill="#392F17"/>
<path d="M248.914 215.023L191.443 166.363L210.64 150.171L248.914 215.023Z" fill="#FAD012"/>
<path d="M731.505 225.34L679.806 170.587L700.686 156.631L731.505 225.34Z" fill="#FAD012"/>
<path d="M768.548 95.7745C768.548 146.459 727.459 187.548 676.773 187.548C626.088 187.548 585 146.459 585 95.7745C585 45.0879 626.088 3.99985 676.773 3.99985C727.459 3.99985 768.548 45.0879 768.548 95.7745Z" fill="#FAD012"/>
<path d="M634.996 96.4053C631.329 96.4053 628.329 93.4053 628.329 89.7386V66.6279C628.329 62.9613 631.329 59.9613 634.996 59.9613C638.663 59.9613 641.663 62.9613 641.663 66.6279V89.7386C641.663 93.4053 638.663 96.4053 634.996 96.4053Z" fill="#392F17"/>
<path d="M718.552 96.4053C714.885 96.4053 711.885 93.4053 711.885 89.7386V66.6279C711.885 62.9613 714.885 59.9613 718.552 59.9613C722.219 59.9613 725.219 62.9613 725.219 66.6279V89.7386C725.219 93.4053 722.219 96.4053 718.552 96.4053Z" fill="#392F17"/>
<path d="M648.373 133.328L648.285 133.303L648.372 133.329L648.373 133.328L648.285 133.303L648.372 133.329C648.464 132.987 650.239 127.464 654.645 122.344C656.845 119.775 659.672 117.3 663.281 115.461C666.897 113.625 671.307 112.385 676.921 112.379C682.721 112.385 687.216 113.696 690.864 115.612C693.596 117.053 695.853 118.857 697.721 120.781C700.521 123.664 702.428 126.828 703.603 129.244C704.191 130.451 704.596 131.467 704.847 132.155C704.972 132.499 705.059 132.76 705.111 132.923L705.161 133.091L705.169 133.115L707.191 132.537L705.164 133.096L705.169 133.115L707.191 132.537L705.164 133.096C705.849 135.581 708.419 137.04 710.903 136.355C713.388 135.669 714.847 133.1 714.161 130.615C714.045 130.244 712.239 123.664 706.689 116.833C703.911 113.428 700.161 109.964 695.217 107.356C690.281 104.745 684.161 103.039 676.921 103.045C669.675 103.039 663.536 104.76 658.576 107.388C654.852 109.353 651.791 111.808 649.311 114.352C645.589 118.173 643.159 122.191 641.625 125.283C640.093 128.376 639.459 130.555 639.399 130.764C638.691 133.241 640.125 135.825 642.604 136.533C645.081 137.241 647.665 135.805 648.373 133.328Z" fill="#392F17"/>
<path d="M1242.55 95.7734C1242.55 146.459 1201.46 187.548 1150.77 187.548C1100.09 187.548 1059 146.459 1059 95.7734C1059 45.0881 1100.09 4.00012 1150.77 4.00012C1201.46 4.00012 1242.55 45.0881 1242.55 95.7734Z" fill="#FAD012"/>
<path d="M1109 101.429C1105.33 101.429 1102.33 98.4287 1102.33 94.762V78.762C1102.33 75.0954 1105.33 72.0954 1109 72.0954C1112.66 72.0954 1115.66 75.0954 1115.66 78.762V94.762C1115.66 98.4287 1112.66 101.429 1109 101.429Z" fill="#392F17"/>
<path d="M1192.55 101.429C1188.89 101.429 1185.89 98.4287 1185.89 94.762V78.762C1185.89 75.0954 1188.89 72.0954 1192.55 72.0954C1196.22 72.0954 1199.22 75.0954 1199.22 78.762V94.762C1199.22 98.4287 1196.22 101.429 1192.55 101.429Z" fill="#392F17"/>
<path d="M1098.22 125.991H1203.33C1205.54 125.991 1207.33 124.201 1207.33 121.991C1207.33 119.782 1205.54 117.991 1203.33 117.991H1098.22C1096.01 117.991 1094.22 119.782 1094.22 121.991C1094.22 124.201 1096.01 125.991 1098.22 125.991Z" fill="#392F17"/>
<path d="M1791.55 95.7746C1791.55 146.459 1750.46 187.548 1699.77 187.548C1649.09 187.548 1608 146.459 1608 95.7746C1608 45.0879 1649.09 3.99988 1699.77 3.99988C1750.46 3.99988 1791.55 45.0879 1791.55 95.7746Z" fill="#FAD012"/>
<path d="M1658 97.1074C1654.33 97.1074 1651.33 94.1074 1651.33 90.4408V74.4408C1651.33 70.7741 1654.33 67.7741 1658 67.7741C1661.66 67.7741 1664.66 70.7741 1664.66 74.4408V90.4408C1664.66 94.1074 1661.66 97.1074 1658 97.1074Z" fill="#392F17"/>
<path d="M1741.55 97.1074C1737.89 97.1074 1734.89 94.1074 1734.89 90.4408V74.4408C1734.89 70.7741 1737.89 67.7741 1741.55 67.7741C1745.22 67.7741 1748.22 70.7741 1748.22 74.4408V90.4408C1748.22 94.1074 1745.22 97.1074 1741.55 97.1074Z" fill="#392F17"/>
<path d="M1728.54 118.607L1728.63 118.631L1728.54 118.605V118.607L1728.63 118.631L1728.54 118.605C1728.45 118.947 1726.68 124.47 1722.27 129.59C1720.07 132.159 1717.24 134.634 1713.63 136.474C1710.02 138.309 1705.61 139.549 1699.99 139.555C1694.19 139.549 1689.7 138.238 1686.05 136.322C1683.32 134.881 1681.06 133.077 1679.19 131.153C1676.39 128.27 1674.49 125.106 1673.31 122.69C1672.72 121.483 1672.32 120.467 1672.07 119.779C1671.94 119.435 1671.85 119.174 1671.8 119.011L1671.75 118.843L1671.75 118.819L1669.72 119.397L1671.75 118.838L1671.75 118.819L1669.72 119.397L1671.75 118.838C1671.07 116.354 1668.5 114.895 1666.01 115.581C1663.53 116.265 1662.07 118.835 1662.75 121.319C1662.87 121.69 1664.68 128.27 1670.23 135.101C1673 138.506 1676.75 141.97 1681.7 144.578C1686.63 147.189 1692.75 148.895 1699.99 148.889C1707.24 148.895 1713.38 147.174 1718.34 144.546C1722.06 142.581 1725.12 140.127 1727.6 137.582C1731.33 133.761 1733.76 129.743 1735.29 126.651C1736.82 123.558 1737.45 121.379 1737.52 121.17C1738.22 118.693 1736.79 116.11 1734.31 115.402C1731.83 114.694 1729.25 116.129 1728.54 118.607Z" fill="#392F17"/>
<path d="M1639.54 228.56L1674.51 161.871L1694.5 177.081L1639.54 228.56Z" fill="#FAD012"/>
<path d="M2146.54 231.56L2181.51 164.871L2201.5 180.081L2146.54 231.56Z" fill="#FAD012"/>
<path d="M2290.55 91.7746C2290.55 142.459 2249.46 183.548 2198.77 183.548C2148.09 183.548 2107 142.459 2107 91.7746C2107 41.0879 2148.09 -0.00012207 2198.77 -0.00012207C2249.46 -0.00012207 2290.55 41.0879 2290.55 91.7746Z" fill="#FAD012"/>
<path d="M2165.68 105.445C2164.22 105.451 2163.22 107.464 2163.77 109.305C2166.64 118.869 2176.23 142.949 2200.02 142.949C2223.79 142.949 2233.59 118.703 2236.56 109.053C2237.12 107.204 2236.11 105.167 2234.64 105.173L2165.68 105.445Z" fill="#392F17"/>
<path d="M2231.99 84.6557L2228.39 84.7504H2232L2231.99 84.6557L2228.39 84.7504H2232C2231.99 84.749 2232 84.0011 2232.16 82.9437C2232.28 82.1491 2232.49 81.1864 2232.82 80.2517C2233.07 79.5504 2233.39 78.8677 2233.77 78.2664C2234.34 77.3597 2235.01 76.657 2235.89 76.1397C2236.78 75.629 2237.94 75.2317 2239.83 75.2224C2240.93 75.2224 2241.79 75.3677 2242.48 75.5784C2243.69 75.9557 2244.45 76.5051 2245.13 77.2491C2245.63 77.8077 2246.05 78.4944 2246.4 79.2544C2246.92 80.3904 2247.23 81.6797 2247.39 82.7104C2247.54 83.7411 2247.55 84.5064 2247.55 84.5944V84.617L2249.33 84.629L2247.55 84.6064V84.617L2249.33 84.629L2247.55 84.6064C2247.52 87.1824 2249.58 89.2997 2252.16 89.333C2254.73 89.3664 2256.85 87.305 2256.88 84.7277L2256.89 84.5944C2256.88 84.1397 2256.86 82.9011 2256.6 81.2211C2256.4 79.9624 2256.07 78.453 2255.48 76.8343C2255.04 75.621 2254.45 74.345 2253.64 73.0864C2252.44 71.2024 2250.7 69.3397 2248.34 67.9983C2245.99 66.6477 2243.08 65.881 2239.83 65.889C2237.86 65.8877 2236.03 66.161 2234.36 66.6837C2231.43 67.589 2229.07 69.289 2227.42 71.205C2226.16 72.6424 2225.27 74.185 2224.61 75.665C2223.63 77.8903 2223.17 79.9891 2222.92 81.6157C2222.68 83.2424 2222.66 84.405 2222.66 84.7504L2222.66 84.8997C2222.73 87.4757 2224.87 89.5104 2227.45 89.4437C2230.03 89.3757 2232.06 87.233 2231.99 84.6557Z" fill="#392F17"/>
<path d="M2149.99 84.6557L2146.39 84.7504H2150L2149.99 84.6557L2146.39 84.7504H2150C2149.99 84.749 2150 84.0011 2150.16 82.9437C2150.28 82.1491 2150.49 81.1864 2150.82 80.2517C2151.07 79.5504 2151.39 78.8677 2151.77 78.2664C2152.34 77.3597 2153.01 76.657 2153.89 76.1397C2154.78 75.629 2155.94 75.2317 2157.83 75.2224C2158.93 75.2224 2159.79 75.3677 2160.48 75.5784C2161.69 75.9557 2162.45 76.5051 2163.13 77.2491C2163.63 77.8077 2164.05 78.4944 2164.4 79.2544C2164.92 80.3904 2165.23 81.6797 2165.39 82.7104C2165.54 83.7411 2165.55 84.5064 2165.55 84.5944V84.617L2167.33 84.629L2165.55 84.6064V84.617L2167.33 84.629L2165.55 84.6064C2165.52 87.1824 2167.58 89.2997 2170.16 89.333C2172.73 89.3664 2174.85 87.305 2174.88 84.7277L2174.89 84.5944C2174.88 84.1397 2174.86 82.9011 2174.6 81.2211C2174.4 79.9624 2174.07 78.453 2173.48 76.8343C2173.04 75.621 2172.45 74.345 2171.64 73.0864C2170.44 71.2024 2168.7 69.3397 2166.34 67.9983C2163.99 66.6477 2161.08 65.881 2157.83 65.889C2155.86 65.8877 2154.03 66.161 2152.36 66.6837C2149.43 67.589 2147.07 69.289 2145.42 71.205C2144.16 72.6424 2143.27 74.185 2142.61 75.665C2141.63 77.8903 2141.17 79.9891 2140.92 81.6157C2140.68 83.2424 2140.66 84.405 2140.66 84.7504L2140.66 84.8997C2140.73 87.4757 2142.87 89.5104 2145.45 89.4437C2148.03 89.3757 2150.06 87.233 2149.99 84.6557Z" fill="#392F17"/>
<path d="M2134.52 118.914C2127.14 118.914 2121.16 112.935 2121.16 105.559C2121.16 98.1834 2127.14 92.2061 2134.52 92.2061C2141.89 92.2061 2147.87 98.1834 2147.87 105.559C2147.87 112.935 2141.89 118.914 2134.52 118.914Z" fill="#F6894E"/>
<path d="M2263.03 118.914C2255.65 118.914 2249.68 112.935 2249.68 105.559C2249.68 98.1834 2255.65 92.2061 2263.03 92.2061C2270.41 92.2061 2276.38 98.1834 2276.38 105.559C2276.38 112.935 2270.41 118.914 2263.03 118.914Z" fill="#F6894E"/>
</svg>
