<svg width="645" height="266" viewBox="0 0 645 266" fill="none" xmlns="http://www.w3.org/2000/svg">
<g clip-path="url(#clip0)">
<path fill-rule="evenodd" clip-rule="evenodd" d="M133.376 260.598L132.324 260.602C61.866 260.602 4.75 203.329 4.75 132.676C4.75 62.023 61.866 4.75 132.324 4.75L133.471 4.754H513.744C583.719 5.32 640.171 62.375 640.171 132.675C640.171 202.976 583.623 260.031 513.649 260.597H133.376V260.598Z" fill="white" stroke="white" stroke-width="9.5"/>
<path fill-rule="evenodd" clip-rule="evenodd" d="M133.376 260.598L132.324 260.602C61.866 260.602 4.75 203.329 4.75 132.676C4.75 62.023 61.866 4.75 132.324 4.75L133.471 4.754H513.744C583.719 5.32 640.171 62.375 640.171 132.675C640.171 202.976 583.623 260.031 513.649 260.597H133.376V260.598Z" fill="#2C292C"/>
<path fill-rule="evenodd" clip-rule="evenodd" d="M440.511 85.6125H443.345V74.8805C443.345 73.5815 444.577 70.4815 447.945 70.4815C450.478 70.4815 451.177 72.0815 451.177 74.3145V85.6135H454.01V74.8805C454.01 72.2145 455.777 70.4815 458.509 70.4815C461.276 70.4815 461.842 72.1815 461.842 74.3145V85.6135H464.675V72.9805C464.675 69.4145 462.375 67.9805 458.943 67.9805C456.744 67.9805 454.711 69.0805 453.545 70.9145C452.844 68.8145 450.911 67.9805 448.812 67.9805C446.446 67.9805 444.512 68.9805 443.246 70.9145H443.179V68.3815H440.513V85.6125H440.511Z" fill="white"/>
<path fill-rule="evenodd" clip-rule="evenodd" d="M483.966 68.3818H481L476.3 82.7468H476.233L471.4 68.3818H468.234L474.633 85.6128H477.666L483.966 68.3818Z" fill="white"/>
<path fill-rule="evenodd" clip-rule="evenodd" d="M487.7 85.6125H490.533V68.3815H487.7V85.6125ZM490.533 61.8145H487.7V65.2805H490.533V61.8145Z" fill="white"/>
<path fill-rule="evenodd" clip-rule="evenodd" d="M511.293 61.8145H508.46V70.6805H508.394C507.126 68.6475 504.593 67.9805 502.828 67.9805C497.562 67.9805 494.962 72.0805 494.962 76.9465C494.962 81.8125 497.596 86.0115 502.895 86.0115C505.262 86.0115 507.461 85.1785 508.395 83.2785H508.461V85.6115H511.294V61.8145H511.293ZM497.961 77.1465C497.961 73.7805 499.261 70.4805 503.128 70.4805C507.026 70.4805 508.56 73.6135 508.56 77.0135C508.56 80.2465 507.093 83.5135 503.294 83.5135C499.627 83.5135 497.961 80.3805 497.961 77.1465Z" fill="white"/>
<path fill-rule="evenodd" clip-rule="evenodd" d="M528.519 80.1465C528.019 82.3795 526.386 83.5135 524.052 83.5135C520.286 83.5135 518.586 80.8465 518.687 77.8465H531.585C531.751 73.6805 529.886 67.9805 523.786 67.9805C519.086 67.9805 515.686 71.7805 515.686 76.9465C515.852 82.2125 518.452 86.0115 523.952 86.0115C527.818 86.0115 530.552 83.9455 531.318 80.1455H528.519V80.1465ZM518.687 75.3475C518.886 72.7145 520.653 70.4815 523.619 70.4815C526.42 70.4815 528.453 72.6475 528.586 75.3475H518.687Z" fill="white"/>
<path fill-rule="evenodd" clip-rule="evenodd" d="M535.878 77.0135C535.878 82.0465 538.778 86.0125 544.243 86.0125C549.71 86.0125 552.609 82.0465 552.609 77.0135C552.609 71.9475 549.71 67.9805 544.243 67.9805C538.778 67.9805 535.878 71.9475 535.878 77.0135ZM538.878 77.0135C538.878 72.8135 541.277 70.4805 544.243 70.4805C547.21 70.4805 549.61 72.8135 549.61 77.0135C549.61 81.1805 547.21 83.5135 544.243 83.5135C541.277 83.5135 538.878 81.1805 538.878 77.0135Z" fill="white"/>
<path d="M561.24 81.9131H557.54V85.6121H561.24V81.9131Z" fill="white"/>
<path fill-rule="evenodd" clip-rule="evenodd" d="M567.034 85.6127H569.867V77.9467C569.867 73.5807 571.533 70.9807 576.099 70.9807V67.9807C573.033 67.8807 571.133 69.2477 569.767 72.0137H569.7V68.3807H567.034V85.6127Z" fill="white"/>
<path fill-rule="evenodd" clip-rule="evenodd" d="M594.455 68.3818H591.621V78.1138C591.621 81.2138 589.955 83.5138 586.522 83.5138C584.355 83.5138 583.022 82.1468 583.022 80.0468V68.3818H580.189V79.7138C580.189 83.4138 581.589 86.0128 586.122 86.0128C588.589 86.0128 590.521 85.0128 591.722 82.8798H591.788V85.6128H594.455V68.3818V68.3818Z" fill="white"/>
<path d="M239.286 61.409H240.936L243.466 65.407H245L242.363 61.306C243.791 61.198 244.78 60.442 244.78 58.821C244.78 56.986 243.684 56.124 241.486 56.124H237.862V65.407H239.287V61.409H239.286ZM239.286 57.31H241.265C242.255 57.31 243.353 57.526 243.353 58.715C243.353 60.117 242.254 60.225 241.045 60.225H239.285V57.31H239.286Z" fill="white"/>
<path d="M241.045 68.9704C245.437 68.9704 249.285 65.4074 249.285 60.7644C249.285 56.1234 245.437 52.7744 241.045 52.7744C236.543 52.7744 232.587 56.1234 232.587 60.7644C232.587 65.4064 236.543 68.9704 241.045 68.9704ZM241.045 54.0714C244.778 54.0714 247.638 56.9854 247.638 60.7644C247.638 64.6524 244.778 67.4584 241.045 67.4584C237.307 67.4584 234.345 64.6514 234.345 60.7644C234.346 56.9854 237.308 54.0714 241.045 54.0714Z" fill="white"/>
<path d="M230.869 178.932C230.869 183.844 226.883 187.828 221.973 187.828C217.062 187.828 213.084 183.844 213.084 178.932C213.084 174.022 217.062 170.045 221.973 170.045C226.883 170.045 230.869 174.022 230.869 178.932Z" fill="white"/>
<path d="M341.119 71.0267C328.008 63.7227 269.681 80.2376 250.965 143.299C248.762 143.904 238.177 146.656 238.177 146.656L233.55 159.119L249.962 154.113C249.962 154.113 248.161 184.345 275.682 185.248C297.293 184.441 308.597 153.711 301.675 132.092C300.357 132.789 283.087 141.098 283.087 141.098C283.087 141.098 287.088 164.825 277.483 167.729C274.373 168.127 270.723 158.629 274.069 144.401C319.98 120.53 349.087 75.4997 341.119 71.0267ZM322.809 85.4407C331.611 84.6467 289.29 129.688 278.478 131.888C274.979 129.889 305.296 89.7467 322.809 85.4407Z" fill="white"/>
<path d="M315.902 128.589V137.495C315.902 137.495 327.611 129.889 328.511 131.292C328.808 135.294 314.007 169.132 313.704 174.233C313.402 177.338 316.304 189.051 330.007 182.944C336.718 180.044 354.704 165.299 354.704 165.299C354.704 165.299 351.806 172.822 353.036 178.836C354.254 184.852 361.719 186.436 368.447 183.945C375.176 181.449 382.859 176.334 386.168 172.332C385.666 171.027 383.763 165.023 383.763 165.023C383.763 165.023 377.733 170.714 376.248 169.972C374.758 169.226 393.371 114.676 393.371 114.676C393.371 114.676 374.286 113.937 372.383 113.937C369.239 128.267 351.419 164.621 339.123 166.225C334.91 165.924 354.03 123.282 354.737 118.475C356.136 112.167 351.419 109.267 345.824 110.568C339.922 112.573 315.902 128.589 315.902 128.589Z" fill="white"/>
<path d="M447.027 113.33C447.027 113.33 444.714 119.038 444.282 120.022C441.868 115.854 433.519 107.732 416.282 118.489C398.29 130.124 390.603 149.994 393.024 171.065C395.657 188.518 414.532 190.598 427.26 175.78C425.947 179.628 412.444 221.118 412.444 221.118L433.407 221.227L467.661 113.767L447.027 113.33ZM424.044 165.245C421.082 166.888 416.476 169.628 415.823 159.202C415.49 146.911 425.383 133.17 427.272 131.016C432.21 125.42 438.37 125.317 438.213 134.179C437.561 144.383 430.963 160.518 424.044 165.245Z" fill="white"/>
<path d="M110.386 183.836C99.9031 172.758 108.056 152.363 109.814 134.297C107.478 136.631 84.1651 190.826 63.1851 188.485C44.5381 182.672 46.8681 161.684 52.6951 145.952H82.9951C73.6721 171.589 86.4921 161.102 95.2361 144.788C112.719 109.24 113.886 106.328 133.118 52.708C144.189 52.708 155.258 52.708 166.337 52.708C156.431 83.015 147.102 112.736 143.029 144.204C143.029 145.368 143.608 146.534 144.775 145.952C151.763 144.788 190.229 58.543 193.723 52.708C203.634 52.708 215.29 52.708 225.772 52.708C225.772 55.622 190.229 152.944 196.057 162.266C198.974 167.51 203.056 157.608 206.547 153.524L211.797 158.772C201.307 170.432 189.072 191.403 171.586 187.911C169.253 187.327 166.922 186.169 165.178 184.415C147.103 168.683 179.741 111.806 176.249 108.073C175.163 108.194 174.076 111.085 172.164 115.064C162.253 135.464 139.537 189.075 120.876 189.075C117.968 189.075 112.132 186.168 110.386 183.836Z" fill="white"/>
<path d="M487.981 167.85C526.833 147.432 536.16 121.53 524.2 114.284C506.522 104.405 458.125 122.077 463.614 170.487C461.19 171.911 456.136 174.657 456.136 174.657L459.657 184.315C459.657 184.315 466.79 180.038 468.631 178.76C493.358 198.807 520.49 165.936 520.49 165.936L515.745 158.629C515.746 158.629 495.212 178.381 487.981 167.85ZM493.133 138.211C498.73 128.332 507.737 120.65 512.125 123.724C516.515 126.799 507.622 142.383 486.694 158.943C485.857 157.5 487.534 148.092 493.133 138.211Z" fill="white"/>
<path d="M551.646 115.051L574.148 114.395C574.148 114.395 542.539 139.336 547.145 162.91C550.778 177.24 564.15 170.26 571.512 154.019C572.929 150.835 581.827 129.211 576.227 129.211C570.629 129.211 564.784 140.298 564.784 140.298L558.661 134.152C558.661 134.152 571.065 116.476 585.188 111.744C586.876 111.212 597.076 109.128 597.191 123.723C597.638 130.528 590.288 167.852 564.712 181.02C541.251 193.084 530.957 178.637 529.101 174.325C516.248 142.418 551.646 115.051 551.646 115.051Z" fill="white"/>
</g>
<defs>
<clipPath id="clip0">
<rect width="644.922" height="265.352" fill="white"/>
</clipPath>
</defs>
</svg>
