<svg width="100" height="96" viewBox="0 0 100 96" fill="none" xmlns="http://www.w3.org/2000/svg">
<path d="M37.8968 78.6774C33.8773 81.0876 28.6667 79.7788 26.2589 75.7543C23.8522 71.7288 25.1594 66.5121 29.1794 64.1019C33.1994 61.6916 38.4095 63.0004 40.8167 67.0256C43.2245 71.0505 41.9167 76.2677 37.8968 78.6774V78.6774ZM42.7024 65.8954C42.6068 65.7349 42.5085 65.5795 42.4063 65.4267L43.7394 63.9072C43.4157 63.4629 43.0659 63.0469 42.6958 62.657L40.9665 63.703C40.699 63.4441 40.4206 63.2012 40.1322 62.9749L40.9322 61.1141C40.4896 60.7955 40.0283 60.5073 39.5526 60.25L38.2288 61.7824C37.8967 61.6203 37.5581 61.4748 37.2122 61.3487L37.3989 59.3339C36.8812 59.168 36.3536 59.0352 35.8194 58.9367L35.0337 60.8016C34.6696 60.7496 34.3022 60.7169 33.9331 60.7031L33.4878 58.7271C32.9475 58.7282 32.4054 58.7641 31.8646 58.8366L31.6927 60.8547C31.3314 60.9183 30.9717 61.0001 30.6143 61.1019L29.5827 59.3627C29.0722 59.5314 28.5678 59.7333 28.0733 59.9718L28.5319 61.9417C28.37 62.0274 28.2092 62.1181 28.0501 62.2139C27.891 62.309 27.7352 62.4086 27.5827 62.5104L26.065 61.1755C25.6213 61.4997 25.2053 61.8498 24.8158 62.2205L25.8611 63.9525C25.6025 64.2192 25.3605 64.4986 25.1334 64.7877L23.2754 63.9863C22.9571 64.4294 22.6693 64.8912 22.4129 65.3675L23.9428 66.6936C23.7809 67.026 23.6356 67.3653 23.5097 67.7115L21.4975 67.5245C21.3317 68.0423 21.1991 68.5706 21.1013 69.1055L22.9632 69.8922C22.9113 70.2568 22.8787 70.6246 22.8649 70.9941L20.8914 71.4399C20.893 71.9816 20.9284 72.5242 21.0002 73.0646L23.0163 73.2373C23.0798 73.599 23.1616 73.9597 23.2638 74.3171L21.5262 75.35C21.6947 75.8611 21.8964 76.3661 22.1345 76.8618L24.1014 76.4026C24.1876 76.5647 24.2787 76.7257 24.3738 76.8852C24.4688 77.0444 24.5677 77.1998 24.6705 77.3525L23.3367 78.8727C23.6605 79.3164 24.0102 79.7323 24.3804 80.1224L26.1103 79.0767C26.3766 79.3352 26.6556 79.578 26.9446 79.8047L26.144 81.6653C26.5865 81.9844 27.0473 82.272 27.5236 82.5292L28.8474 80.9969C29.18 81.1589 29.5187 81.3044 29.8645 81.4312L29.6778 83.4454C30.1954 83.6114 30.7231 83.7441 31.2568 83.8426L32.0419 81.9784C32.4066 82.0302 32.774 82.0624 33.143 82.0767L33.5878 84.0529C34.1292 84.0511 34.6707 84.015 35.2116 83.9433L35.3834 81.9246C35.7448 81.8611 36.105 81.7791 36.4619 81.6773L37.4934 83.4165C38.004 83.2484 38.5078 83.0459 39.0034 82.8082L38.5443 80.8381C38.7067 80.7519 38.8669 80.6611 39.0261 80.5654C39.1857 80.4703 39.341 80.3713 39.494 80.2689L41.0117 81.6037C41.4549 81.2795 41.8703 80.9295 42.2599 80.5589L41.2156 78.8274C41.4742 78.5601 41.7156 78.2806 41.9422 77.9919L43.8008 78.793C44.1196 78.3498 44.4069 77.888 44.6638 77.4117L43.1333 76.0856C43.2952 75.7537 43.4405 75.4147 43.5671 75.0685L45.5787 75.2547C45.7445 74.737 45.8765 74.2086 45.9749 73.6738L44.1135 72.8877C44.1654 72.5225 44.1969 72.1547 44.2113 71.7852L46.1854 71.3394C46.1837 70.7983 46.1478 70.2557 46.076 69.7146L44.0599 69.5419C43.9963 69.1802 43.9151 68.82 43.8129 68.4621L45.55 67.4292C45.382 66.9182 45.1804 66.4136 44.9422 65.9181L42.9742 66.3777C42.8886 66.215 42.798 66.0547 42.7024 65.8954" fill="white"/>
<path d="M55.0893 91.404C51.7434 93.0338 47.7123 91.6402 46.0841 88.2908C44.4559 84.9405 45.8482 80.9039 49.1936 79.2737C52.539 77.644 56.5706 79.0376 58.1988 82.387C59.8265 85.7372 58.4347 89.7738 55.0893 91.404V91.404ZM61.6829 81.5131C61.5917 81.2851 61.495 81.0589 61.3862 80.8341C61.2768 80.6102 61.158 80.3944 61.0359 80.1815L59.011 80.6085C58.6519 80.0852 58.2391 79.6145 57.7861 79.1968L58.4955 77.2447C58.1065 76.9387 57.6971 76.6621 57.2711 76.4174L55.7263 77.8054C55.1633 77.5366 54.5716 77.3326 53.9628 77.1954L53.6025 75.149C53.1163 75.0788 52.624 75.0434 52.1296 75.0434L51.4848 77.0184C50.8704 77.0671 50.2555 77.1826 49.6505 77.3728L48.3201 75.7852C48.0925 75.877 47.8665 75.9738 47.6427 76.083C47.4184 76.1918 47.2029 76.3107 46.9908 76.433L47.4173 78.461C46.8941 78.82 46.4244 79.2334 46.0073 79.6874L44.057 78.9766C43.752 79.3667 43.4757 79.7759 43.231 80.2025L44.6172 81.7497C44.3493 82.3135 44.1454 82.906 44.0078 83.5149L41.9641 83.8756C41.8939 84.3625 41.8586 84.8554 41.8591 85.3504L43.831 85.9961C43.8796 86.6111 43.9951 87.227 44.1851 87.8327L42.6 89.1646C42.6912 89.3926 42.7879 89.6189 42.8973 89.8436C43.0056 90.0675 43.1243 90.2834 43.247 90.4958L45.2725 90.0692C45.631 90.5926 46.0432 91.0632 46.4968 91.4809L45.7869 93.4331C46.1764 93.7391 46.5858 94.0157 47.0112 94.2603L48.5565 92.8724C49.1195 93.1412 49.7113 93.3451 50.3196 93.4824L50.6809 95.5287C51.1666 95.599 51.6588 95.6344 52.1539 95.6344L52.7981 93.6593C53.4125 93.6107 54.0269 93.4951 54.6324 93.3047L55.9623 94.8926C56.1899 94.8007 56.4164 94.7039 56.6402 94.5948C56.8639 94.4859 57.08 94.367 57.2921 94.2447L56.8656 92.2167C57.3883 91.8571 57.859 91.4444 58.2761 90.9902L60.2259 91.7011C60.5314 91.3111 60.8071 90.9018 61.0513 90.4753L59.6651 88.9281C59.9336 88.3642 60.1381 87.7717 60.2745 87.1628L62.3182 86.8021C62.389 86.3153 62.4243 85.8224 62.4243 85.3273L60.4513 84.6816C60.4033 84.066 60.2872 83.4508 60.0977 82.8451L61.6829 81.5131" fill="#2B6299"/>
<path d="M80.6783 21.8889C75.9003 22.0737 71.878 18.3452 71.6935 13.5612C71.5095 8.77774 75.2328 4.74995 80.0109 4.56518C84.7883 4.38097 88.8111 8.10948 88.9951 12.8929C89.1796 17.6764 85.4558 21.7047 80.6783 21.8889ZM93.546 13.6691C93.556 13.3543 93.5593 13.0373 93.5477 12.7176C93.535 12.3978 93.5073 12.0814 93.4731 11.7683L90.8697 11.2217C90.7178 10.4196 90.4763 9.65233 90.1586 8.92599L92.0023 6.99701C91.7023 6.43552 91.3636 5.89837 90.9896 5.38999L88.4547 6.22199C87.931 5.61514 87.3403 5.06803 86.695 4.59118L87.3287 1.99727C86.7934 1.66204 86.2326 1.36552 85.6508 1.1094L83.8717 3.09867C83.1236 2.83757 82.3408 2.65501 81.5313 2.56594L80.786 0.00909148C80.4716 -0.00141916 80.1545 -0.0041862 79.8352 0.00798401C79.5158 0.0207074 79.2003 0.0478192 78.8871 0.0826703L78.3412 2.68932C77.5406 2.84034 76.7738 3.08318 76.0489 3.40127L74.1218 1.55527C73.5615 1.8551 73.025 2.1942 72.5167 2.56926L73.3483 5.10675C72.7411 5.63173 72.1952 6.22255 71.7195 6.86867L69.1282 6.23416C68.794 6.77075 68.4978 7.33169 68.242 7.91476L70.2283 9.69604C69.968 10.444 69.7857 11.2284 69.6968 12.0394L67.1431 12.7856C67.1326 13.1004 67.1293 13.4168 67.142 13.7371C67.1542 14.0574 67.1818 14.3733 67.216 14.6864L69.8194 15.2335C69.9708 16.0351 70.2128 16.8023 70.5305 17.5287L68.6868 19.4577C68.9863 20.0191 69.3255 20.5563 69.699 21.0647L72.2338 20.2327C72.7582 20.8395 73.3482 21.3872 73.9936 21.8635L73.3599 24.4574C73.8952 24.7921 74.4566 25.0886 75.0389 25.3447L76.8174 23.3554C77.5649 23.6171 78.3484 23.7997 79.1583 23.8887L79.9026 26.4456C80.218 26.4561 80.5341 26.4583 80.854 26.4467C81.1733 26.4345 81.4882 26.4068 81.8021 26.372L82.3474 23.7654C83.1485 23.6138 83.9154 23.3715 84.6403 23.0534L86.5674 24.8994C87.1276 24.599 87.6641 24.2605 88.1718 23.8854L87.3409 21.3479C87.9475 20.8229 88.4939 20.2321 88.9696 19.586L91.5609 20.22C91.8946 19.6839 92.1907 19.123 92.4465 18.5399L90.4603 16.7586C90.7211 16.0107 90.9029 15.2263 90.9929 14.4153L93.546 13.6691" fill="#2B6299"/>
<path d="M88.7941 23.9247L88.7587 23.8998C88.5549 23.8185 88.3532 23.73 88.1515 23.6387C88.1311 23.6569 88.2985 23.7538 88.7941 23.9247Z" fill="#DB0081"/>
<path d="M4.61302 55.5219C1.80854 54.3994 -0.179918 53.298 0.0129043 52.6425C0.247164 51.8465 1.55882 51.5483 3.15443 51.5483C4.10252 51.5483 5.15114 51.6534 6.13293 51.8227C5.55171 53.0364 5.04618 54.2739 4.61302 55.5219" fill="#D2BED8"/>
<path d="M19.1659 59.3433C16.3056 59.3433 9.31316 57.4032 4.61304 55.5218C5.0462 54.2738 5.55172 53.0363 6.13295 51.8226C7.17939 52.0024 8.15071 52.2552 8.8452 52.529C11.2895 53.4944 21.9759 53.0833 25.2324 54.6245C28.4888 56.1652 25.192 59.1983 19.3079 59.3416C19.2615 59.3427 19.2145 59.3433 19.1659 59.3433" fill="url(#paint0_linear)"/>
<path d="M9.79868 41.4802C9.76663 41.4819 9.64232 41.4879 9.39371 41.5012C8.56057 41.545 9.31084 41.5062 9.79868 41.4802Z" fill="#DB0081"/>
<path d="M24.7638 8.04697C25.5445 7.90038 27.1837 7.1237 26.8749 6.21425C26.566 5.30425 25.7351 5.33911 25.5506 4.75991C25.366 4.18072 23.398 1.93698 21.5626 2.63345C19.7278 3.32936 19.977 4.73833 18.2919 4.66808C16.6062 4.59782 14.5017 8.36562 14.6476 9.84983C14.7934 11.334 12.4541 12.7131 12.626 14.594C12.9464 18.1084 15.8841 18.1355 16.741 17.9403C23.4262 16.4173 24.7638 8.04697 24.7638 8.04697" fill="black"/>
<path d="M21.5669 12.4282C24.6692 14.5696 26.1742 22.0476 26.3742 23.4157C26.6256 25.1295 26.0422 26.1374 25.0736 25.9062C24.1051 25.6749 21.3089 18.4867 21.1189 17.4794C20.9288 16.4726 21.5669 12.4282 21.5669 12.4282Z" fill="#F4BA8E"/>
<path d="M21.8698 12.5278C23.7405 13.3924 25.6798 18.3988 25.6715 18.489C25.6632 18.5786 22.6582 21.4231 22.6582 21.4231L20.6985 19.7685L21.8698 12.5278" fill="#EA6BB6"/>
<path d="M25.4649 17.9325C25.6511 17.7134 26.3837 19.3077 26.1771 19.591C25.971 19.8753 22.5118 23.0717 22.5118 23.0717L21.7803 21.7379L25.4649 17.9325" fill="#FF98C6"/>
<path d="M31.7552 27.1115C33.6663 27.2476 35.2122 27.4257 35.5996 27.1326C35.9869 26.8399 36.0366 26.3758 34.7454 25.9426C33.4536 25.5095 28.9491 24.2189 27.6778 23.9639C26.4065 23.7089 24.6014 23.8333 24.339 24.9032C23.9522 26.6978 29.8436 26.9754 31.7552 27.1115" fill="#F4BA8E"/>
<path d="M33.7044 27.241C34.2751 27.3251 34.6994 27.3195 35.0878 27.3146C35.4265 27.3096 35.7376 27.3052 36.095 27.3599C36.3486 27.3992 37.3282 27.5591 37.4055 27.413C37.4834 27.2675 36.3425 27.0927 36.4248 27.0324C36.4569 27.0092 36.7679 27.0524 37.1099 27.0949C37.5437 27.1492 38.0277 27.2034 38.0597 27.1232C38.1155 26.9788 36.6873 26.7016 36.7381 26.6474C36.7751 26.6081 37.1459 26.6485 37.5309 26.6889C37.9674 26.7348 38.421 26.7807 38.4271 26.7105C38.4442 26.4958 36.8066 26.4046 36.8304 26.3094C36.8365 26.2845 37.0293 26.295 37.2663 26.305C37.6354 26.3216 38.1111 26.3376 38.1475 26.2198C38.2067 26.0256 36.2613 25.8597 36.0486 25.8779C35.8353 25.8962 36.9823 25.052 36.7182 24.7793C36.579 24.6355 35.7458 25.2324 35.2287 25.775C34.827 26.1971 34.3259 25.8038 33.6414 25.5964C33.2314 25.4724 33.4088 27.2072 33.4088 27.2072L33.7044 27.241" fill="#F4BA8E"/>
<path d="M14.7944 39.5308C14.5678 39.2304 13.7717 39.8411 13.5059 39.6818C13.1463 40.0768 12.9418 40.3135 12.9418 40.3135C12.9418 40.3135 9.89922 40.5403 8.21465 41.8038C6.75164 42.9019 3.48804 47.2212 3.48804 47.2212L4.45159 48.6086C4.45159 48.6086 12.0904 44.6035 13.0424 44.3103C13.5181 44.1626 15.2463 43.6814 16.0983 42.7697C16.8463 41.764 15.3806 40.6604 14.7944 39.5308" fill="#F4BA8E"/>
<path d="M20.8663 26.9179C17.7972 24.2759 14.2672 25.0858 13.16 28.4293C11.9633 32.0427 12.4258 38.2772 12.6468 40.5281C12.9423 40.4374 13.2623 40.4042 13.6369 40.438C14.8673 40.7577 15.9662 41.3541 16.2115 42.5844C17.606 39.7111 22.6089 28.4182 20.8663 26.9179" fill="#F4BA8E"/>
<path d="M22.2114 26.7416C24.4761 27.8955 21.7721 41.3259 21.8522 43.6731C21.886 44.6694 20.9367 55.0118 20.9367 55.0118L19.3417 55.0826C19.3417 55.0826 17.8853 49.0717 17.6135 47.2616C17.3013 45.1772 18.2256 43.0574 18.2256 43.0574C18.2256 43.0574 14.704 34.7313 15.0835 30.0397C15.3675 26.5286 18.6046 24.9039 22.2114 26.7416" fill="#F4BA8E"/>
<path d="M13.4789 27.277C12.8993 28.2274 12.0269 34.1709 11.9048 35.5406C11.7833 36.9109 11.6147 38.8133 11.6147 38.8133C11.6147 38.8133 16.5983 41.2136 18.3094 41.2119C20.0205 41.2103 22.4648 41.0061 22.4648 41.0061C22.4648 41.0061 24.2272 30.5005 22.8162 27.8435C21.4045 25.1871 13.4789 27.277 13.4789 27.277" fill="black"/>
<path d="M21.0238 54.0493C21.8161 55.9838 24.5758 56.5713 24.2504 57.1129C23.9255 57.6545 20.2083 57.1715 19.6491 56.61C19.0895 56.0491 19.174 54.3879 19.174 54.3879L21.0238 54.0493" fill="#DB0081"/>
<path d="M13.4663 27.6908C13.4619 24.8933 15.1122 24.7567 15.1349 22.8421C15.1575 20.9269 15.1885 19.0389 15.1581 17.7273C15.1271 16.4156 14.6973 11.8867 19.2742 11.292C23.2262 10.7792 23.5688 14.8042 23.9329 16.8615C24.5472 20.3405 22.5555 20.8318 22.2356 23.7266C22.1467 24.5348 23.5716 28.5405 23.5716 28.5405C23.5716 28.5405 21.1168 29.7371 18.8267 29.8947C17.004 30.0208 13.4663 27.6908 13.4663 27.6908" fill="#FF98C6"/>
<path d="M21.2875 12.6113C20.9344 13.0052 19.3355 11.932 19.0973 11.5741C18.8586 11.2167 19.2299 10.3255 19.4172 9.45756C19.6051 8.58961 20.1405 8.74948 20.7328 9.02276C21.3245 9.29659 21.7781 12.0653 21.2875 12.6113Z" fill="#EE9956"/>
<path d="M22.6173 3.89794C23.8747 4.05948 25.172 5.28148 24.7731 6.97922C24.3217 8.901 23.6841 10.9118 21.6995 11.1375C20.5404 11.2692 18.9564 9.84861 19.2569 7.89419C19.5558 5.95028 18.7691 6.46807 19.0387 5.80977C19.3404 5.07292 19.5365 5.53207 19.616 5.38547C20.2266 4.25641 21.1482 3.70875 22.6173 3.89794Z" fill="#F4BA8E"/>
<path d="M23.2852 8.39442C23.5582 8.69702 23.2659 10.3721 22.9399 10.3931C22.6139 10.4147 22.2686 10.3356 22.2045 10.1906C22.1393 10.0468 23.2195 8.32085 23.2852 8.39442Z" fill="#EE9956"/>
<path d="M18.395 12.4636C20.7038 15.8608 19.3768 22.9715 19.0425 24.4396C18.6231 26.2796 17.6347 27.0734 16.7419 26.4571C15.8491 25.8403 15.8341 17.4368 16.0375 16.3393C16.2408 15.2406 18.395 12.4636 18.395 12.4636Z" fill="#F4BA8E"/>
<path d="M17.143 11.7345C17.9381 11.4225 18.8254 11.8329 19.1309 12.6312C20.0127 14.9314 20.0072 18.9437 19.9718 19.0161C19.9276 19.1052 15.7568 20.8096 15.7568 20.8096C15.7568 20.8096 15.2126 17.3798 15.3059 14.4224C15.3573 12.7972 16.3021 12.0647 17.143 11.7345" fill="#EA6BB6"/>
<path d="M20.4455 18.3855C20.7206 18.2356 20.8378 20.1436 20.5168 20.3505C20.1958 20.5579 15.4255 22.4415 15.4255 22.4415L15.2073 20.798L20.4455 18.3855" fill="#FF98C6"/>
<path d="M23.0545 30.3141C24.9423 31.2064 26.4424 31.9958 26.9507 31.8514C27.4595 31.7064 27.6921 31.2545 26.5512 30.3058C25.4098 29.3565 21.3411 26.2702 20.1505 25.5101C18.9599 24.7501 17.0775 24.1653 16.3902 25.1484C15.2913 26.819 21.1666 29.4229 23.0545 30.3141" fill="#F4BA8E"/>
<path d="M24.9838 31.2136C26.0076 31.7955 26.6325 31.8553 27.3651 32.2773C27.6076 32.4167 28.5392 32.965 28.6756 32.8477C28.8121 32.7304 27.7209 32.1031 27.8286 32.0749C27.9242 32.05 29.3403 32.9351 29.4535 32.8106C29.5674 32.6862 28.2259 31.842 28.2983 31.8071C28.411 31.7529 29.9259 32.6662 29.9883 32.5368C30.0911 32.3255 28.464 31.587 28.5253 31.4996C28.5657 31.4415 29.7618 32.1014 29.8983 31.9277C30.0348 31.7546 28.1237 30.8186 27.9005 30.7533C27.6772 30.688 29.1734 30.2831 29.0126 29.9014C28.9281 29.7006 27.8474 29.9783 27.1087 30.3262C26.5347 30.5962 26.18 29.9993 25.5661 29.5191C25.1987 29.2315 24.6965 31.0636 24.6965 31.0636L24.9838 31.2136" fill="#F4BA8E"/>
<path d="M4.9433 48.3514C3.48083 49.9026 4.22671 52.5977 3.60349 52.4987C2.98082 52.3997 2.0355 48.7685 2.34545 48.0383C2.65595 47.3092 3.78748 46.8296 3.78748 46.8296L4.9433 48.3514Z" fill="#DB0081"/>
<path d="M24.813 7.58666C24.3837 8.15866 23.9373 6.33369 23.339 6.32318C22.74 6.31322 21.3627 6.83378 20.2295 6.53007C19.6389 6.37131 19.6162 5.38552 19.6162 5.38552L20.1709 3.99259C20.1709 3.99259 21.4367 3.05991 21.7019 3.02285C21.9677 2.98634 24.2329 3.73038 24.2329 3.73038L25.7982 6.14173L24.813 7.58666" fill="black"/>
<path d="M46.6197 43.1956C41.8096 42.7674 38.257 38.5167 38.6847 33.7006C39.1117 28.8846 43.3577 25.3275 48.1678 25.7557C52.9773 26.1833 56.5299 30.4346 56.1022 35.2507C55.6752 40.0662 51.4292 43.6238 46.6197 43.1956ZM48.8827 17.7012C39.63 16.8781 31.4624 23.7205 30.6403 32.9848C29.8182 42.2491 36.652 50.4264 45.9047 51.2495C55.1569 52.0727 63.324 45.2303 64.1466 35.9665C64.9688 26.7022 58.1349 18.5249 48.8827 17.7012" fill="#FFC228"/>
<path d="M40.6682 27.3892C40.734 27.449 40.7981 27.5098 40.8638 27.5696C40.8008 27.5109 40.7345 27.4501 40.6682 27.3892Z" fill="#DB0081"/>
<path d="M61.5636 41.1455C60.6508 39.6718 59.5702 38.2639 58.0038 37.4524C57.3364 37.1077 56.648 36.9036 55.9137 36.752L55.8408 36.7365C55.5032 38.0067 54.8916 39.1551 54.0767 40.1204C54.1297 40.1619 54.1838 40.2017 54.2418 40.236C54.428 40.3666 54.6198 40.4866 54.7982 40.6288C54.8187 40.6448 54.8772 40.6952 54.9308 40.7411L55.0026 40.8119C55.3308 41.1571 55.6524 41.525 55.9529 41.8945C56.0894 42.0621 56.2098 42.2402 56.3391 42.4123C56.3795 42.4809 56.4204 42.5495 56.459 42.6192C56.685 43.0241 56.8767 43.4429 57.0557 43.8699C57.2425 44.318 57.4198 44.7683 57.6011 45.2186C57.6723 45.4869 57.7552 45.758 57.853 46.0163C57.9514 46.2774 58.0972 46.5148 58.2154 46.7676C58.2801 46.9059 58.3624 47.037 58.4547 47.1609C59.9818 45.8266 61.2697 44.2173 62.2376 42.4012C62.0371 41.9603 61.8061 41.5382 61.5636 41.1455" fill="#FFDC85"/>
<path d="M37.3664 30.7223C37.8515 31.2329 38.3957 31.7175 38.9609 32.1578C39.3963 30.5624 40.266 29.1623 41.4257 28.0786C41.356 28.0172 41.2837 27.958 41.2372 27.9132C41.114 27.797 40.9886 27.6836 40.8638 27.5697C40.7328 27.4911 40.6162 27.3285 40.5085 27.2173C40.2726 26.9744 40.0461 26.7227 39.8317 26.4605C39.7007 26.2995 39.2521 25.8625 39.2355 25.6573C39.2847 25.7347 39.3333 25.8116 39.3819 25.8891C39.3283 25.8022 39.2753 25.7137 39.2234 25.6252C39.1471 25.4913 39.0731 25.3564 39.0035 25.2192C38.8653 24.947 38.7416 24.6671 38.6344 24.3811C38.5421 24.1349 38.3349 23.7952 38.3139 23.5358C38.4029 23.8185 38.414 23.8467 38.3488 23.6204C38.3294 23.5485 38.3118 23.4761 38.2957 23.403C38.2648 23.2658 38.2383 23.1275 38.2173 22.9881C38.199 22.8692 38.1891 22.7497 38.1758 22.6308C38.1753 22.5688 38.1747 22.5069 38.1769 22.4455C38.1847 22.165 38.214 21.8834 38.2394 21.6041C38.2515 21.4674 38.2758 21.3335 38.2913 21.1975C38.2471 21.5985 38.3432 20.8888 38.3571 20.803C38.377 20.6797 38.4123 20.5469 38.404 20.4208C38.398 20.3345 38.3896 20.3162 38.3841 20.3157L38.4068 20.2415C36.8277 21.2423 35.4216 22.5002 34.252 23.9645C34.2652 24.9403 34.4177 25.7829 34.7625 26.7122C35.315 28.2025 36.2791 29.5744 37.3664 30.7223" fill="#FFDC85"/>
<path d="M37.7382 36.4832L37.6459 36.5407L37.7382 36.4832ZM40.5405 39.9124C39.5554 38.6677 38.9051 37.1542 38.7111 35.5173L38.6719 35.5709C38.6134 35.6545 38.3222 35.9809 38.6101 35.6711C38.5128 35.7756 38.4161 35.8813 38.3194 35.9858C38.2134 36.081 38.1078 36.1739 37.999 36.2652C37.9907 36.2718 37.91 36.3426 37.8283 36.4107L37.7736 36.44L37.6542 36.5042C37.5133 36.5805 37.3763 36.6591 37.2288 36.7238L37.1376 36.7609C37.036 36.788 36.8658 36.8378 36.8238 36.8472C36.6852 36.8765 36.5459 36.9003 36.4056 36.9218C35.7978 37.0131 35.1851 37.0812 34.5735 37.1404C33.3282 37.2621 32.0817 37.3583 30.8325 37.4324C31.1469 39.2032 31.7397 40.8871 32.5685 42.4316C33.7243 42.3193 34.879 42.1882 36.0282 42.0256C37.6609 41.7949 39.4267 41.1886 40.5405 39.9124" fill="#FFDC85"/>
<path d="M48.45 51.2844C48.9313 50.604 49.323 49.8638 49.581 49.0479C50.1153 47.3606 50.1197 45.7044 49.3639 44.0807C49.2092 43.7472 49.0335 43.4241 48.8462 43.1104C48.1268 43.231 47.3798 43.2631 46.6196 43.1956C46.0494 43.1453 45.4975 43.0396 44.9676 42.8875C44.9754 42.9799 44.9809 43.0983 44.9875 43.2498C45.0615 43.8456 45.2168 44.4381 45.3256 45.0284C45.3511 45.1661 45.3748 45.3038 45.3931 45.4427C45.4052 45.5262 45.4146 45.6103 45.4218 45.6939C45.4356 45.8631 45.435 45.8062 45.4179 45.5235C45.4991 45.6474 45.3892 46.1314 45.3776 46.2808C45.366 46.4263 45.3472 46.5684 45.329 46.7128C45.2488 46.959 45.1737 47.203 45.0693 47.4425L45.0052 47.5841C44.9737 47.6411 44.9516 47.6776 44.93 47.7136C44.7792 47.9575 44.6113 48.1871 44.4389 48.4155C44.2842 48.6191 44.0687 48.8199 43.9256 49.0357C44.0394 48.8708 44.1565 48.8105 43.9223 49.0434L43.8886 49.0932L43.9162 49.0484C43.8217 49.143 43.7245 49.2359 43.6256 49.3272C43.1814 49.7366 42.7051 50.1044 42.2637 50.5166C43.4239 50.8872 44.6411 51.1378 45.9047 51.2495C46.7644 51.3264 47.6141 51.3364 48.45 51.2844" fill="#FFDC85"/>
<path d="M57.1756 25.6578C55.7762 26.2187 54.6424 27.2521 53.6606 28.3718C54.5988 29.3387 55.3121 30.5176 55.727 31.8209C55.8778 31.697 56.0298 31.5748 56.1845 31.4558C56.3043 31.3645 56.4259 31.2749 56.5497 31.187C56.5867 31.1604 56.659 31.104 56.7154 31.0592C56.9005 30.9369 57.1132 30.8373 57.3038 30.7389C57.7839 30.4922 58.3099 30.3489 58.7944 30.1199C58.9281 30.0856 59.0403 30.0612 59.1525 30.0396C59.3713 29.997 59.5906 29.9722 59.8111 29.9473C59.9431 29.9517 60.0746 29.9539 60.2061 29.9627C60.3464 29.9727 60.5138 29.9777 60.6746 29.9965C60.7 30.0059 60.7437 30.0197 60.81 30.0391C60.9381 30.0773 61.0663 30.1187 61.1939 30.1613C61.2973 30.1956 61.3978 30.2405 61.4984 30.2858C61.5078 30.2775 61.621 30.3113 61.7404 30.3898L61.873 30.4407L61.7575 30.4014C61.863 30.4722 61.9619 30.5491 62.0647 30.6233C62.4139 30.8761 62.8271 31.0453 63.2144 31.2362C63.4387 31.3463 63.684 31.3988 63.9343 31.406C63.5028 29.0688 62.5857 26.8859 61.2823 24.9779C59.8901 24.8623 58.4624 25.1422 57.1756 25.6578" fill="#FFDC85"/>
<path d="M47.1068 17.6371C46.1565 18.7086 45.4437 19.9555 44.9713 21.3191C44.4105 22.9416 44.221 24.5801 44.3321 26.2734C45.5189 25.8287 46.8206 25.6356 48.1676 25.7557L48.1703 25.6483C48.1714 25.6207 48.1659 25.4342 48.1665 25.3402C48.1676 24.9978 48.1825 24.6548 48.1969 24.3124C48.2129 23.9423 48.2455 23.5733 48.2968 23.206C48.3245 23.0096 48.3609 22.8149 48.3946 22.6191L48.4079 22.535L48.4372 22.4338C48.6184 21.7921 48.8311 21.167 49.1217 20.5651L49.1886 20.4301L49.2173 20.3781C49.293 20.2536 49.3621 20.1247 49.4345 19.9981C49.5775 19.7447 49.7273 19.4958 49.8897 19.254C50.2107 18.7783 50.5201 18.3695 50.8582 17.9961C50.2135 17.8611 49.5549 17.7615 48.8825 17.7012C48.2852 17.6487 47.693 17.6282 47.1068 17.6371" fill="#FFDC85"/>
<path d="M38.6864 24.5155C38.6687 24.4707 38.6515 24.4259 38.6344 24.3811C38.5422 24.1349 38.3349 23.7952 38.314 23.5358C38.3631 23.6929 38.3886 23.7715 38.3902 23.7715C38.3919 23.7715 38.3781 23.7211 38.3488 23.6204C38.3294 23.5485 38.3118 23.4761 38.2957 23.403C38.2648 23.2658 38.2383 23.1276 38.2173 22.9881C38.2145 22.9688 38.2117 22.9494 38.209 22.9306C38.9294 22.3702 39.6875 21.8563 40.4742 21.3966C41.5212 20.7848 42.629 20.2504 43.7732 19.8449C44.3439 19.643 44.9351 19.4826 45.5257 19.3531C45.6418 19.3277 45.7771 19.2945 45.9219 19.2635C45.6136 19.7835 45.3484 20.3301 45.1268 20.8988C44.8616 21.0011 44.5981 21.1067 44.334 21.2119C43.2715 21.6356 42.2406 22.1241 41.2566 22.7099C40.3549 23.2465 39.4952 23.8484 38.6864 24.5155Z" fill="#FFD773"/>
<path d="M35.5994 26.9418C35.332 26.9418 35.0939 26.6165 35.1994 26.3554C35.327 26.0412 35.4027 25.79 35.5911 25.4991C35.7674 25.2274 35.9817 24.994 36.2005 24.7556C36.6149 24.3036 37.053 23.8865 37.5204 23.4893C37.7459 23.2985 37.9751 23.112 38.2089 22.9306C38.2116 22.9494 38.2144 22.9688 38.2171 22.9881C38.2381 23.1275 38.2647 23.2658 38.2956 23.403C38.3116 23.476 38.3293 23.5485 38.3486 23.6204C38.3779 23.7211 38.3917 23.7714 38.3901 23.7714C38.3884 23.7714 38.363 23.6929 38.3138 23.5358C38.3348 23.7952 38.542 24.1349 38.6343 24.3811C38.6514 24.4259 38.6685 24.4707 38.6862 24.5155C38.6061 24.5819 38.5271 24.6483 38.4481 24.7152C38.0144 25.0847 37.5912 25.4703 37.1735 25.8581C36.9552 26.0605 36.7414 26.2613 36.5083 26.4467C36.2729 26.6342 36.0298 26.7332 35.7784 26.8892C35.7199 26.9257 35.6585 26.9418 35.5994 26.9418" fill="#FFE8B0"/>
<path d="M45.1267 20.8987C45.3483 20.33 45.6135 19.7834 45.9218 19.2634C46.1428 19.2159 46.3864 19.1738 46.614 19.1738C46.8538 19.1738 47.0759 19.2203 47.2389 19.3558C47.3594 19.4554 47.4538 19.6418 47.3748 19.7995C47.1301 20.2907 46.4792 20.4102 45.9958 20.5778C45.7035 20.6791 45.4146 20.7869 45.1267 20.8987" fill="#FFE8B0"/>
<path d="M33.012 33.0778C32.9031 33.0778 32.7943 33.0064 32.7589 32.8758C32.5423 32.0804 32.6639 31.4077 32.8943 30.6255C33.0661 30.0424 33.3181 29.0732 33.912 28.7916C33.9485 28.7745 33.9855 28.7662 34.0214 28.7662C34.1424 28.7662 34.2507 28.8563 34.28 28.9814C34.3535 29.2928 34.2181 29.5943 34.133 29.8947C34.0385 30.2272 33.922 30.5513 33.8324 30.8844C33.644 31.5913 33.5396 32.248 33.2435 32.919C33.1959 33.0269 33.1042 33.0778 33.012 33.0778" fill="#FFD773"/>
<path d="M55.1563 41.806C55.1298 41.806 55.1033 41.8049 55.0768 41.8033C54.9431 41.7933 54.8679 41.6766 54.8679 41.5538C54.8679 41.312 54.9552 41.0941 55.0768 40.8905C55.3038 41.1322 55.527 41.3845 55.7419 41.6395C55.5591 41.7446 55.3635 41.806 55.1563 41.806ZM57.8193 37.3611C57.511 37.214 57.1967 37.0951 56.8757 36.9955C56.9607 36.626 57.0481 36.2564 57.1635 35.8902C57.195 35.7895 57.2917 35.7381 57.3878 35.7381C57.4773 35.7381 57.5663 35.7823 57.6033 35.872C57.7945 36.3333 57.8514 36.845 57.8193 37.3611" fill="#FFD773"/>
<path d="M55.7418 41.6395C55.5269 41.3845 55.3037 41.1323 55.0767 40.8905C55.2115 40.6659 55.3883 40.459 55.5374 40.2588C55.8496 39.8372 56.1148 39.388 56.3214 38.9051C56.5877 38.2816 56.7275 37.6388 56.8756 36.9955C57.1966 37.095 57.5109 37.214 57.8192 37.3611C57.7761 38.0559 57.5723 38.7585 57.317 39.357C57.0369 40.0153 56.4993 41.2031 55.7418 41.6395" fill="#FFE8B0"/>
<path d="M51.9795 44.1382C51.7513 44.1382 51.5386 44.0746 51.3922 43.8915C51.3281 43.8118 51.3143 43.6835 51.38 43.5994C51.6342 43.2769 52.0916 43.2885 52.4568 43.1695C52.8861 43.0301 53.253 42.769 53.6701 42.6036C53.7016 42.5914 53.7342 42.5854 53.7668 42.5854C53.9364 42.5854 54.0989 42.7419 54.0204 42.9261C53.8027 43.4329 53.3358 43.7543 52.8309 43.944C52.5938 44.0331 52.274 44.1382 51.9795 44.1382" fill="#FFD773"/>
<path d="M90.5015 87.0575C88.5147 87.0575 86.5909 86.8362 85.2135 86.3429C80.9377 84.8089 66.156 85.2659 66.2185 83.067C66.2566 81.7011 69.6081 81.3752 73.7557 81.3752C76.285 81.3752 79.1111 81.4964 81.6614 81.577C85.9041 81.7104 99.6956 82.3854 99.3674 84.5848C99.1448 86.0762 94.6845 87.0582 90.5015 87.0575Z" fill="url(#paint1_linear)"/>
<path d="M64.3444 31.4901C64.1261 30.4507 64.3803 29.851 64.1289 29.7587C63.8775 29.6663 63.9852 30.6416 63.8311 30.7068C63.6775 30.7716 62.9548 28.9953 62.7836 29.0749C62.6112 29.1546 63.1769 30.4092 63.1333 30.4446C63.0896 30.48 62.2554 29.1175 62.1399 29.2104C62.025 29.3034 62.8653 30.6775 62.783 30.7212C62.7001 30.7649 61.6603 29.5092 61.578 29.6635C61.4968 29.8184 62.3852 30.8861 62.4244 31.0083C62.4648 31.1311 61.6913 30.2803 61.5808 30.3993C61.4702 30.5176 63.0802 32.0793 63.7725 32.3172C64.4648 32.555 64.4411 31.9504 64.3444 31.4901" fill="#F4BA8E"/>
<path d="M63.4084 32.0654C64.2665 33.6796 65.9665 39.6203 66.9351 40.3478C68.1014 41.2235 75.1911 44.1537 76.058 43.0313C76.9254 41.9095 75.8579 37.6925 75.8579 37.6925C72.7474 39.201 68.9904 38.2136 68.3981 37.7284C67.9412 37.3539 65.3577 33.5363 64.3786 31.8331L63.4084 32.0654" fill="#F4BA8E"/>
<path d="M73.5081 37.9005C72.3993 38.0437 70.9219 38.3568 70.5849 38.2484C70.2484 38.1405 70.1689 38.1151 70.1689 38.1151C70.1689 38.1151 69.2396 41.593 69.3766 41.7291C69.5136 41.8657 71.7882 42.8156 71.7882 42.8156L73.5081 37.9005Z" fill="#EA6BB6"/>
<path d="M72.7136 80.3965C72.4816 81.8946 69.0196 81.9195 68.7566 82.7184C68.4279 83.718 74.9772 83.2931 75.1606 82.424C75.2065 82.2077 75.2197 81.1865 74.9181 80.4043C73.8341 80.5748 73.7059 80.8518 72.7136 80.3965Z" fill="black"/>
<path d="M67.3434 64.291C66.9644 64.9851 66.6218 65.6369 66.3544 66.1812C65.9693 66.9878 66.6737 67.7783 66.7754 67.9709C67.4483 69.2436 72.9093 79.5114 73.1187 80.7042C73.1607 80.9447 73.5463 80.5333 74.6292 80.7086C74.4966 78.1801 74.5099 73.9067 73.8552 71.9439C73.1402 69.8007 71.8518 68.9919 71.4109 68.7708C71.7164 68.5046 72.0562 68.2064 72.422 67.8844C70.3595 67.2936 68.3976 66.0965 67.3434 64.291" fill="#F4BA8E"/>
<path d="M73.8368 54.8414C73.8368 54.8414 71.9942 57.1372 71.2323 57.9271C70.7212 58.4566 68.4875 61.6562 67.062 64.2661C68.1156 66.0713 70.7549 67.5709 72.8174 68.1617C76.4904 64.926 82.3961 58.9002 82.9265 57.4558C83.6956 55.3614 73.8368 54.8414 73.8368 54.8414Z" fill="black"/>
<path d="M90.7996 81.4195C90.8935 81.5468 90.9571 81.6496 90.9758 81.7182C91.2228 82.605 89.0543 84.0692 89.5919 85.1801C90.13 86.2915 93.2118 83.7887 93.5759 82.5602C93.6665 82.2549 93.3206 81.3985 92.7123 80.2671C92.1278 80.7723 91.4946 81.1887 90.7996 81.4195" fill="black"/>
<path d="M85.2144 70.1273C85.1299 69.1879 85.0189 68.1628 84.8901 67.1145C83.3183 68.4588 81.3558 69.1121 79.4331 69.5397C80.2348 71.0904 80.9784 72.3865 81.6 73.0458L81.6895 73.1433C83.8636 74.8132 90.2908 80.099 91.3505 81.5854C92.0494 81.3663 91.9079 81.0102 92.5002 80.515C90.7781 77.1792 88.2963 70.473 85.2144 70.1273Z" fill="#F4BA8E"/>
<path d="M80.7175 54.5139C80.1976 53.2819 81.975 53.0346 81.4203 51.5687C80.0854 48.041 78.9578 40.6813 77.2594 38.4735C75.5804 36.2917 73.0206 37.6736 71.9411 39.5539C70.8615 41.4353 72.1206 53.5281 72.5438 53.8274C73.324 54.3789 73.9974 55.3083 74.256 55.9865C76.7389 56.4749 78.5821 56.044 80.7175 54.5139" fill="white"/>
<path d="M85.5913 66.7067C85.0979 62.6928 83.6365 58.7314 83.0686 57.4082C82.352 55.7381 81.2862 54.879 80.9332 54.0132C78.6353 55.2668 76.301 55.2717 73.9043 54.4868C74.2375 55.8349 74.3165 57.734 74.5745 58.3851C75.3458 60.339 75.4104 61.6467 76.2275 63.1762C77.3027 65.1904 78.1685 67.7135 79.1862 69.6823C81.1094 69.2549 84.0189 68.051 85.5913 66.7067" fill="black"/>
<path d="M73.3501 54.3397C73.0622 54.3021 73.0921 55.3011 73.4098 55.4311C73.7274 55.56 75.8905 56.0076 77.8469 55.6048C79.8033 55.2016 81.2066 54.3939 81.2966 54.1112C81.332 53.9984 81.095 53.2355 80.7651 53.3511C80.4353 53.4662 78.6817 54.3646 77.1678 54.5554C75.6535 54.7452 73.3501 54.3397 73.3501 54.3397Z" fill="#DB0081"/>
<path d="M67.7704 48.3093C70.2605 48.2606 74.2601 46.3056 76.9877 43.7344C78.1215 42.6662 78.1718 40.8777 77.1154 39.7332C76.3667 38.9211 75.0833 38.9283 74.3441 39.7492L72.3805 41.9282C72.3805 41.9282 70.6047 44.495 67.3207 45.5107C64.0361 46.5258 60.2968 46.0683 60.2968 46.0683L60.1802 47.1221C60.1802 47.1221 64.6228 48.3712 67.7704 48.3093" fill="#F4BA8E"/>
<path d="M60.2967 46.0684C59.4729 45.399 59.2928 44.7722 59.0398 44.8591C58.7867 44.9454 59.4834 45.6358 59.405 45.7829C59.3265 45.9306 57.6474 45.0068 57.5646 45.1766C57.4811 45.3464 58.7094 45.9644 58.6972 46.0197C58.6856 46.0744 57.1811 45.5434 57.1502 45.6878C57.1193 45.8327 58.637 46.3699 58.6 46.4556C58.5624 46.5413 56.9657 46.2222 56.9988 46.3942C57.0331 46.5657 58.395 46.8345 58.5027 46.9042C58.6105 46.9745 57.4751 46.8013 57.4635 46.9634C57.4519 47.1255 59.6851 47.3225 60.3729 47.0708C61.0597 46.8185 60.6608 46.3643 60.2967 46.0684" fill="#F4BA8E"/>
<path d="M74.2721 37.7937C74.0428 38.124 74.8671 38.4343 75.2395 38.457C75.5787 38.4775 76.2633 37.8706 76.3257 37.7384C76.7743 36.7775 76.4478 34.2201 75.6561 34.1144C75.4776 34.0907 75.3218 34.1875 75.1914 34.3639C74.5765 35.1943 74.7549 37.0962 74.2721 37.7937Z" fill="#EE9956"/>
<path d="M73.0389 36.3941C74.8704 37.3876 78.8805 35.7679 79.2617 33.1197C79.644 30.4711 76.8401 28.2843 74.3389 30.252C71.8378 32.2197 71.782 35.7126 73.0389 36.3941Z" fill="#F4BA8E"/>
<path d="M74.2462 32.1118C73.602 32.4692 72.4457 33.507 72.6589 33.8218C72.8722 34.136 73.3247 34.209 73.3247 34.209C73.3247 34.209 74.5319 31.9536 74.2462 32.1118" fill="#EE9956"/>
<path d="M77.0464 39.2298C76.284 38.8359 74.8845 38.4796 72.99 40.9037C71.7651 42.4704 71.1021 43.064 70.7855 43.288C70.6606 43.3771 70.633 43.5519 70.7198 43.6791L72.8668 46.8235C72.9518 46.9485 73.1154 46.99 73.2496 46.9208C74.2624 46.3997 77.7934 44.1925 78.258 42.1141C78.6459 40.3788 77.3409 39.3825 77.0464 39.2298" fill="#EA6BB6"/>
<path d="M74.3815 30.0722C74.2202 29.2303 77.7998 28.5144 80.6264 30.1519C83.453 31.7899 83.2513 34.1476 82.7646 34.5741C82.2778 35.0017 81.3905 34.1332 81.3905 34.1332C81.3905 34.1332 84.0817 36.1938 82.6817 36.9257C81.2806 37.6581 79.8966 35.8127 79.8966 35.8127C79.8966 35.8127 81.1452 38.0813 79.8673 38.3419C78.5882 38.6024 77.3103 35.7817 77.3103 35.7817C77.3103 35.7817 78.0192 33.6044 77.9241 32.7862C77.8291 31.9675 74.555 30.9739 74.3815 30.0722" fill="black"/>
<defs>
<linearGradient id="paint0_linear" x1="44.0218" y1="9.49679" x2="83.0412" y2="132.739" gradientUnits="userSpaceOnUse">
<stop stop-color="#798ABF"/>
<stop offset="0.00903614" stop-color="#798ABF"/>
<stop offset="0.947289" stop-color="#5071B2"/>
<stop offset="1" stop-color="#5071B2"/>
</linearGradient>
<linearGradient id="paint1_linear" x1="44.0217" y1="9.49693" x2="83.0409" y2="132.739" gradientUnits="userSpaceOnUse">
<stop stop-color="#798ABF"/>
<stop offset="0.00903614" stop-color="#798ABF"/>
<stop offset="0.947289" stop-color="#5071B2"/>
<stop offset="1" stop-color="#5071B2"/>
</linearGradient>
</defs>
</svg>
