<svg width="436" height="224" viewBox="0 0 436 224" fill="none" xmlns="http://www.w3.org/2000/svg">
<path d="M271.724 142.603C271.645 142.607 271.567 142.617 271.49 142.633C270.372 142.689 266.807 142.143 266.807 142.143C266.807 142.143 267.93 146.886 268.547 147.067C270.218 147.561 271.625 149.038 273.031 149.378C273.989 149.609 274.948 148.998 275.135 148.027C275.164 147.925 275.186 147.821 275.194 147.714C275.226 147.395 275.172 147.064 275.014 146.759L273.352 143.532C273.031 142.912 272.383 142.568 271.724 142.603" fill="#E7B2B6"/>
<path d="M266.005 141.442L268.899 142.048L269.488 147.484L265.91 147.468L266.005 141.442" fill="#D0D6EC"/>
<path d="M266.004 141.444L265.909 147.468C265.909 147.468 260.793 147.666 255.664 147.461C251.158 147.284 246.641 146.794 245.579 145.586C244.368 144.208 243.496 133.606 242.948 124.015C242.468 115.628 242.237 108.014 242.237 108.014C242.237 108.014 246.103 109.828 246.791 110.295C249.719 112.283 254.062 137.797 254.062 137.797C254.062 137.797 264.592 140.886 266.004 141.444Z" fill="#DFE5F4"/>
<path d="M282.183 204.755L283.329 209.133L295.229 209.138C295.229 209.138 292.255 203.354 282.183 204.755Z" fill="#221E50"/>
<path d="M231.215 206.669C231.215 206.669 230.574 207.239 229.055 207.239C227.334 207.239 226.896 206.669 226.896 206.669V182.463H231.215V206.669Z" fill="#B9C0D6"/>
<path d="M254.975 172.627C254.972 172.643 254.971 172.662 254.968 172.682C254.818 173.759 254.605 174.764 254.349 175.68C253.854 177.462 253.206 178.913 252.603 179.931C250.265 183.884 245.83 188.281 235.194 189.717C234.679 189.785 234.148 189.85 233.603 189.905C232.61 190.007 231.566 190.082 230.471 190.132C230.402 190.136 230.331 190.139 230.262 190.14C230.193 190.145 230.124 190.146 230.052 190.148C226.958 190.071 223.497 189.503 219.636 188.584C211.713 186.702 206.55 182.824 203.287 178.108L203.285 178.106C203.007 177.706 202.745 177.299 202.493 176.887C201.841 175.816 201.279 174.709 200.795 173.576C198.982 169.334 198.287 164.76 198.223 160.518C198.284 156.492 198.906 152.86 199.601 150.275C200.14 148.26 200.979 146.344 202.119 144.657C202.418 144.214 202.738 143.784 203.082 143.374C204.168 142.067 205.469 140.945 206.99 140.077C210.775 137.917 223.225 135.763 233.771 141.338C253.181 151.599 256.104 164.274 254.975 172.627Z" fill="#B7451D"/>
<path d="M246.657 209.138H210.833C209.997 209.138 209.313 208.453 209.313 207.615C209.313 206.778 209.997 206.093 210.833 206.093H246.657C247.493 206.093 248.177 206.778 248.177 207.615C248.177 208.453 247.493 209.138 246.657 209.138" fill="#B9C0D6"/>
<path d="M254.967 175.735C254.532 178.348 253.517 180.444 252.601 181.718C250.263 184.977 245.828 188.607 235.193 189.793C234.679 189.849 234.147 189.902 233.601 189.945C232.609 190.03 231.566 190.093 230.469 190.135C230.401 190.137 230.33 190.14 230.261 190.14C230.193 190.145 230.122 190.146 230.05 190.148C226.958 190.071 223.496 189.503 219.636 188.584C211.711 186.702 206.55 182.824 203.285 178.108L203.283 178.106C203.007 177.706 202.742 177.299 202.492 176.887C208.503 175.45 221.344 172.931 234.102 173.961C241.022 174.519 248.2 175.137 254.347 175.68C254.554 175.698 254.762 175.716 254.967 175.735Z" fill="#C5592D"/>
<path d="M211.749 136.305C211.557 139.019 211.966 137.871 211.958 139.906C211.185 139.645 210.496 139.397 209.954 139.174C209.268 138.894 208.814 138.651 208.717 138.47C208.717 138.47 209.988 136.575 211.19 134.372C211.734 133.373 212.266 132.312 212.659 131.335C212.118 132.684 211.933 133.718 211.749 136.305V136.305ZM242.237 108.014C242.237 108.014 238.918 107.084 238.78 107.072C238.934 107.31 237.368 109.078 234.076 109.544C234.068 109.545 233.387 110.172 232.928 110.196C228.759 110.411 223.995 108.199 223.505 106.867C212.659 108.993 211.924 109.999 211.636 110.294C203.463 118.724 198.708 138.856 197.854 142.726C197.766 143.127 197.936 143.539 198.28 143.763C199.499 144.553 202.663 146.378 207.502 147.593C208.93 147.953 210.503 148.26 212.216 148.47C212.786 153.342 214.056 156.225 215.265 157.739C215.265 157.739 220.649 157.663 226.519 157.439C233.189 157.182 241.487 156.964 242.237 156.212C243.291 155.152 247.094 129.298 242.237 108.014" fill="#DFE5F4"/>
<path d="M234.789 101.296C234.789 101.296 235.699 108.773 235.802 109.83L229.762 110.764L225.796 107.473C225.796 107.473 227.75 103.789 227.356 98.3177L234.789 101.296" fill="#D98789"/>
<path d="M226.518 157.439C220.649 157.663 215.373 160.006 215.373 160.006C214.164 158.492 212.786 153.342 212.217 148.47C210.502 148.26 208.93 147.953 207.501 147.593C208.385 144.531 209.298 141.411 209.955 139.174C210.496 139.397 211.184 139.645 211.958 139.906C211.966 137.871 211.556 139.019 211.749 136.305C211.933 133.718 212.657 129.528 214.009 129.277C215.364 129.026 215.699 135.425 216.312 141.296C216.613 144.198 216.985 146.976 217.586 148.776C217.801 149.421 218.045 149.941 218.326 150.295C220.846 153.469 227.203 155.494 226.518 157.439" fill="#D0D6EC"/>
<path d="M235.54 101.879C235.54 101.879 226.889 102.275 226.726 96.8736C226.562 91.4722 225.336 87.8855 230.852 87.4041C236.37 86.9229 237.505 88.9514 237.998 90.7411C238.49 92.5308 237.786 101.637 235.54 101.879Z" fill="#E7B2B6"/>
<path d="M226.725 96.8732C226.725 96.8732 227.372 89.6657 235.08 89.9241C242.787 90.1826 239.453 82.8793 232.829 81.8035C232.829 81.8035 233.52 84.3768 229.356 84.7831C220.611 85.6364 225.949 95.7296 226.725 96.8732" fill="#555CA5"/>
<path d="M230.848 110.274L234.821 109.851C234.821 109.851 235.319 109.961 235.222 110.588C235.128 111.215 233.818 112.912 233.325 112.997C232.83 113.082 229.772 111.427 230.848 110.274Z" fill="#C5592D"/>
<path d="M216.439 162.076C216.439 162.076 221.444 175.126 237.803 175.438C263.494 175.926 263.492 176.023 263.492 176.023C263.492 176.023 261.533 188.481 279.76 205.389H290.023L270.321 157.272L236.792 156.007C236.792 156.007 213.354 155.478 211.509 158.717C211.108 159.421 216.439 162.076 216.439 162.076" fill="#333383"/>
<path d="M235.193 189.718C235.193 189.779 233.101 190.079 231.957 190.13C231.495 190.151 231.026 190.159 230.544 190.155C230.505 190.156 230.463 190.156 230.422 190.155C230.3 190.151 230.176 190.15 230.051 190.147C226.959 190.07 223.497 189.502 219.636 188.583C209.286 186.124 203.648 180.261 200.794 173.576C198.981 169.333 198.288 164.759 198.223 160.518C198.284 156.492 198.906 152.859 199.6 150.275C200.139 148.259 200.978 146.344 202.118 144.657C202.343 144.323 202.581 143.996 202.833 143.682C202.914 143.578 202.996 143.477 203.081 143.375C210.212 150.846 231.763 174.602 235.193 189.718" fill="#E09139"/>
<path d="M234.654 189.718C234.654 189.779 232.561 190.079 231.416 190.13C231.128 190.144 230.839 190.152 230.545 190.155C230.505 190.156 230.463 190.156 230.423 190.155C230.3 190.152 230.177 190.15 230.051 190.147C226.959 190.07 223.498 189.502 219.636 188.584C209.287 186.124 203.649 180.261 200.794 173.575C198.981 169.333 198.288 164.759 198.223 160.517C198.284 156.492 198.906 152.859 199.6 150.275C200.139 148.259 200.977 146.344 202.117 144.657C202.344 144.323 202.581 143.996 202.833 143.682C210.243 151.477 231.268 174.802 234.654 189.718" fill="#D5652C"/>
<path d="M235.332 105.808C235.332 105.808 234.671 108.765 232.927 110.196L235.616 113.7C235.616 113.7 238.874 109.837 238.779 107.072C238.779 107.072 236.195 105.91 235.332 105.808" fill="#D0D6EC"/>
<path d="M235.332 105.808C235.332 105.808 234.83 108.592 233.085 110.022L235.669 113.208C235.669 113.208 238.505 109.907 238.779 107.072C238.779 107.072 236.195 105.911 235.332 105.808Z" fill="#DFE5F4"/>
<path d="M226.284 105.808C226.284 105.808 230.395 109.712 233.085 110.023L231.244 114.626C231.244 114.626 223.234 109.872 223.209 107.024C223.209 107.024 225.414 105.834 226.284 105.808Z" fill="#D0D6EC"/>
<path d="M226.576 105.652C226.576 105.652 230.395 109.712 233.085 110.023L231.595 114.265C231.595 114.265 223.527 109.715 223.504 106.867C223.504 106.867 225.709 105.677 226.576 105.652Z" fill="#DFE5F4"/>
<path d="M207.243 138.282C207.243 138.282 219.196 141.554 220.294 142.86L220.2 148.884C220.2 148.884 207.705 149.676 198.673 144.012C198.212 143.723 198.211 143.051 198.669 142.76C200.848 141.372 206.083 138.133 207.243 138.282" fill="#DFE5F4"/>
<path d="M255.664 147.461C251.158 147.284 246.392 146.974 245.579 145.586C242.856 140.933 245.534 129.08 244.986 119.489C249.303 128.291 246.105 135.309 246.93 139.906C247.748 144.464 251.833 146.532 255.664 147.461" fill="#D0D6EC"/>
<path d="M260.865 169.605C260.403 169.541 259.902 169.318 259.416 169.102C258.965 168.9 258.497 168.693 258.101 168.635C253.003 167.89 248.382 166.979 244.305 166.174C243.236 165.964 242.19 165.758 241.162 165.56C231.885 163.769 226.621 162.789 226.568 162.782C226.621 162.789 231.924 163.454 241.213 165.246C242.241 165.444 243.287 165.651 244.357 165.862C248.431 166.665 253.046 167.576 258.137 168.319C258.581 168.384 259.068 168.603 259.541 168.812C260.006 169.019 260.486 169.232 260.897 169.289C262.239 169.475 262.209 169.791 260.865 169.605" fill="#2B295E"/>
<path d="M257.532 142.395L257.415 142.06C257.404 142.033 257.395 142.006 257.385 141.982L257.365 141.922L257.333 141.832C257.324 141.805 257.314 141.78 257.308 141.76C257.3 141.738 257.295 141.724 257.291 141.713L257.532 142.395" fill="#2B295E"/>
<path d="M257.292 141.712C257.297 141.724 257.3 141.738 257.308 141.759C257.316 141.78 257.324 141.804 257.335 141.832L257.365 141.922L257.387 141.981C257.395 142.006 257.404 142.033 257.415 142.06L257.534 142.394L257.592 142.559L257.292 141.712Z" fill="#2B295E"/>
<path d="M257.291 141.713C257.295 141.724 257.3 141.739 257.308 141.76L257.291 141.713Z" fill="#2B295E"/>
<path d="M281.32 201.596L281.232 201.619C278.091 196.001 274.706 189.219 271.567 182.016C271.085 180.916 270.6 179.779 270.121 178.641C269.591 177.387 269.064 176.111 268.552 174.853C268.414 174.516 268.35 174.108 268.302 173.691V173.69C268.393 173.554 268.483 173.416 268.572 173.279C268.572 173.289 268.572 173.3 268.576 173.31C268.629 173.815 268.683 174.337 268.842 174.724C269.353 175.981 269.879 177.255 270.407 178.508C270.889 179.645 271.375 180.779 271.853 181.879C274.988 189.073 278.182 195.987 281.32 201.596" fill="#2B295E"/>
<path d="M232.71 112.531C232.71 112.531 231.957 119.65 231.823 122.033C231.447 128.734 231.309 148.875 231.309 148.875C231.309 148.875 231.11 150.633 232.282 152.035C233.454 153.438 234.676 154.399 234.676 154.399C234.676 154.399 236.396 152.891 237.078 150.061C237.531 148.177 236.442 132.363 235.344 121.828C234.791 116.534 233.879 112.387 233.879 112.387C233.879 112.387 232.981 112.23 232.71 112.531" fill="#D5652C"/>
<path d="M229.329 147.83L227.836 144.929C227.548 144.37 226.962 144.062 226.372 144.094C226.302 144.098 221.952 143.681 221.952 143.681C221.952 143.681 224.254 149.473 224.675 149.907C224.826 150.063 225.031 150.152 225.248 150.154C226.262 150.161 229.252 150.085 229.437 148.969C229.464 148.877 229.483 148.784 229.491 148.689C229.521 148.401 229.47 148.103 229.329 147.83Z" fill="#E7B2B6"/>
<path d="M220.296 142.859L223.191 143.464L223.779 148.901L220.199 148.884L220.296 142.859" fill="#D0D6EC"/>
<path d="M118.868 151.567C118.83 151.589 118.794 151.612 118.76 151.639C118.229 151.933 116.362 152.517 116.362 152.517C116.362 152.517 116.508 154.496 116.55 154.528L122.059 154.287L121.818 153.398C121.808 153.342 121.794 153.285 121.774 153.231C121.713 153.068 121.607 152.919 121.458 152.808L119.881 151.632C119.578 151.406 119.18 151.394 118.868 151.567" fill="#E7B2B6"/>
<path d="M113.566 193.983L114.388 200.472L117.755 200.576L119.931 191.182L113.566 193.983" fill="#E7B2B6"/>
<path d="M114.065 197.869L113.566 201.476L123.045 205.847C123.045 205.847 122.582 200.46 114.065 197.869" fill="#D35C2B"/>
<path d="M134.263 203.542L138.837 208.211L141.58 206.254L137.641 197.454L134.263 203.542Z" fill="#E7B2B6"/>
<path d="M136.877 206.324L137.928 209.81H148.363C148.363 209.81 145.693 205.109 136.877 206.324Z" fill="#D35C2B"/>
<path d="M90.0804 206.44C90.0804 206.44 89.4223 207.024 87.8636 207.024C86.097 207.024 85.6467 206.44 85.6467 206.44V181.586H90.0804V206.44Z" fill="#B9C0D6"/>
<path d="M114.476 171.487C114.472 171.504 114.471 171.524 114.468 171.543C114.022 174.794 112.979 177.404 112.04 178.988C109.639 183.044 105.085 187.559 94.1664 189.035C93.6376 189.104 93.0917 189.17 92.5318 189.226C91.5132 189.33 90.4417 189.409 89.3173 189.46C89.1743 189.466 89.0312 189.473 88.8865 189.475C85.7109 189.395 82.1574 188.813 78.1932 187.871C70.0581 185.937 64.758 181.956 61.4067 177.116L61.4051 177.115C60.3786 175.633 59.5358 174.072 58.8483 172.462C56.9869 168.105 56.2746 163.409 56.2076 159.055C56.2699 154.922 56.909 151.191 57.6213 148.538C58.175 146.469 59.0366 144.502 60.2076 142.771C60.514 142.315 60.8437 141.875 61.1967 141.454C62.3118 140.112 63.6476 138.96 65.209 138.068C69.0955 135.849 81.8774 133.638 92.7045 139.363C112.634 149.896 115.634 162.911 114.476 171.487" fill="#B7451D"/>
<path d="M105.936 208.973H69.1548C68.2968 208.973 67.5947 208.27 67.5947 207.411C67.5947 206.55 68.2968 205.847 69.1548 205.847H105.936C106.794 205.847 107.496 206.55 107.496 207.411C107.496 208.27 106.794 208.973 105.936 208.973Z" fill="#B9C0D6"/>
<path d="M114.468 171.543C114.022 174.794 112.979 177.404 112.04 178.988C109.639 183.044 105.085 187.559 94.1664 189.035C93.6376 189.104 93.0917 189.17 92.5318 189.226C91.5133 189.33 90.4417 189.409 89.3173 189.46C89.1743 189.466 89.0312 189.473 88.8865 189.475C85.7109 189.395 82.1574 188.813 78.1932 187.871C70.0582 185.937 64.7581 181.956 61.4067 177.116L61.4051 177.115C60.6508 175.892 60.0117 174.617 59.4751 173.311C65.0442 171.619 79.0936 167.972 93.0451 169.335C100.39 170.053 108.018 170.853 114.468 171.543Z" fill="#C5592D"/>
<path d="M100.208 127.748C97.7315 125.289 98.0496 106.167 98.0213 104.999C97.9393 101.621 96.6654 100.211 96.6654 100.211C96.0117 98.4223 85.3686 97.5129 82.6993 104.336C80.9864 108.715 76.6056 117.227 76.6056 117.227C58.7018 142.115 65.8164 154.393 65.8164 154.393L66.5814 154.309C66.318 153.494 66.1104 152.342 66.3789 151.854L67.1083 154.291L80.334 152.587C80.4342 150.041 81.4554 146.07 81.4554 146.07L81.5176 152.81L83.2925 152.904C82.5898 138.693 85.6039 131.715 86.4959 129.985C85.7304 137.886 89.547 150.769 89.547 150.769L90.0938 150.646L88.8545 144.205L90.44 150.568L91.9769 150.218C91.7321 149.361 91.5084 148.526 91.302 147.709C91.7248 149.283 91.9769 150.218 91.9769 150.218C95.2719 146.626 101.308 146.944 101.308 146.944C104.588 142.325 100.208 127.748 100.208 127.748" fill="#D35C2B"/>
<path d="M92.6127 113.09C92.6127 113.09 91.587 119.063 95.2982 121.881L91.7634 128.098L85.2637 120.443C85.2637 120.443 86.076 116.725 85.9082 111.044L92.6127 113.09" fill="#D98789"/>
<path d="M94.7969 115.855C94.7969 115.855 86.7432 117.329 85.9048 112.29C85.0663 107.251 83.4621 104.047 88.5687 102.893C93.6754 101.741 94.997 103.496 95.6852 105.11C96.3735 106.723 96.8703 115.342 94.7969 115.855" fill="#E7B2B6"/>
<path d="M96.1651 102.336C96.1651 102.336 86.1336 110.08 87.0197 115.801C87.852 121.175 86.2734 121.653 85.0999 122.166C82.0714 123.489 78.1016 121.071 76.5285 121.149C75.4088 121.204 78.2853 119.855 80.1144 117.406C84.9808 110.895 84.5068 102.097 85.4784 101.463C92.0959 97.1466 96.1651 102.336 96.1651 102.336" fill="#D35C2B"/>
<path d="M116.771 154.695C116.771 154.695 110.898 154.39 107.328 153.385C100.454 151.449 99.4431 150.554 98.4322 143.855C97.3778 136.867 97.6065 129.864 97.9066 125.742C97.9408 125.256 97.9766 124.811 98.0123 124.411C98.143 122.915 98.2611 122.044 98.2611 122.044C98.2611 122.044 102.272 123.175 103.02 127.885C103.905 133.463 104.51 143.947 105.113 145.867C105.457 146.96 116.362 152.517 116.362 152.517L116.677 154.196L116.771 154.695" fill="#DFE5F4"/>
<path d="M116.771 154.695C116.771 154.695 110.898 154.39 107.328 153.385C100.454 151.449 99.4431 150.554 98.4322 143.855C97.3778 136.867 97.6065 129.864 97.9066 125.742C98.9735 126.207 100.025 127.746 100.532 131.625C101.776 141.128 99.5987 147.049 103.487 149.775C106.729 152.049 113.756 153.648 116.677 154.196L116.771 154.695" fill="#D0D6EC"/>
<path d="M74.8411 145.043C73.908 144.776 72.9815 144.59 72.1463 144.485C77.7605 136.624 78.2834 136.138 78.3362 136.074L78.3394 136.083C78.4078 136.348 79.9225 142.167 79.9225 144.791C79.9225 145.255 79.9475 145.986 79.848 146.583C78.7423 146.084 76.628 145.556 74.8411 145.043V145.043ZM100.385 129.367C100.32 129.258 100.26 129.144 100.207 129.029C99.9578 128.503 99.8133 127.933 99.7386 127.357C99.4508 125.129 98.2611 122.044 98.2611 122.044L93.8133 120.253C93.8739 120.349 95.9905 123.719 90.5786 123.678C88.4806 123.663 87.6035 121.761 87.0017 120.343L80.3658 121.913C80.3658 121.913 76.6987 122.594 75.8557 123.99C69.6724 134.243 66.0224 143.693 65.2713 146.692C65.1515 147.171 65.4035 147.948 65.8 148.244C66.9136 149.074 67.7518 149.286 71.2945 149.931C71.8916 150.04 72.467 150.123 73.0176 150.183C75.5463 150.465 77.5602 150.294 78.8556 150.083C77.6753 153.994 75.9382 158.105 75.9382 158.105C75.9382 158.105 76.4654 158.469 77.8884 158.851C78.2289 158.943 91.8787 161.177 92.3281 161.265C94.0498 161.606 100.073 158.249 100.073 158.249C100.073 158.249 96.1647 153.437 99.2876 143.25C100.829 138.224 101.88 131.927 100.385 129.367" fill="#DFE5F4"/>
<path d="M85.263 150.372C84.5134 153.177 82.9333 157.02 80.4062 158.266C79.8137 158.558 78.9163 158.742 77.8884 158.851C76.4653 158.469 75.9382 158.105 75.9382 158.105C75.9382 158.105 80.2107 149.429 79.9225 144.791C79.7598 142.173 78.4078 136.348 78.3394 136.083C78.6706 135.451 79.1169 134.873 79.6411 134.896C80.781 134.948 86.0142 147.568 85.263 150.372" fill="#D0D6EC"/>
<path d="M75.9376 158.105C75.458 159.111 69.1348 170.508 79.6316 173.546C90.1285 176.584 112.831 175.763 112.831 175.763C112.831 175.763 115.239 185.295 118.209 189.485C122.978 196.214 131.48 203.76 131.48 203.76H141.214C141.214 203.76 124.376 167.222 120.955 164.729C118.452 162.905 105.863 159.678 98.9035 158.597C97.2082 158.333 86.9479 158.022 84.2016 157.913C79.8979 157.744 76.2039 157.547 75.9376 158.105" fill="#555CA5"/>
<path d="M98.9036 158.596C98.9036 158.596 120.328 152.039 124.419 154.393C131.687 158.579 119.247 195.796 119.247 195.796L112.078 194.645C112.078 194.645 110.736 184.579 111.807 177.82C112.429 173.895 114.69 163.764 114.69 163.764C114.69 163.764 109.217 161.538 107.328 160.99C104.956 160.301 98.9036 158.596 98.9036 158.596" fill="#333383"/>
<path d="M94.1663 189.035C94.1663 189.096 92.0171 189.405 90.8429 189.458C90.3686 189.48 89.8865 189.488 89.3935 189.483C89.3516 189.485 89.3095 189.485 89.2675 189.483C89.1415 189.48 89.0141 189.478 88.8865 189.475C85.7109 189.395 82.1574 188.813 78.1932 187.871C67.5667 185.345 61.7783 179.324 58.8483 172.462C56.9869 168.105 56.2746 163.409 56.2076 159.055C56.2699 154.922 56.909 151.191 57.6213 148.538C58.175 146.469 59.0366 144.502 60.2075 142.771C60.4377 142.428 60.6819 142.092 60.9417 141.768C61.0241 141.662 61.1096 141.558 61.1967 141.454C68.5185 149.126 90.6439 173.515 94.1663 189.035" fill="#E09139"/>
<path d="M93.6112 189.035C93.6112 189.096 91.4619 189.405 90.2878 189.458C89.9923 189.473 89.6952 189.48 89.3935 189.483C89.3516 189.485 89.3095 189.485 89.2675 189.483C89.1415 189.48 89.0141 189.478 88.8865 189.475C85.7109 189.395 82.1574 188.813 78.1932 187.871C67.5667 185.345 61.7783 179.324 58.8483 172.462C56.9869 168.105 56.2746 163.409 56.2076 159.055C56.2699 154.922 56.909 151.191 57.6213 148.538C58.175 146.469 59.0366 144.502 60.2076 142.771C60.4377 142.428 60.6819 142.092 60.9417 141.768C68.548 149.772 90.1354 173.721 93.6112 189.035" fill="#D5652C"/>
<path d="M82.7033 147.655C82.661 147.649 82.6181 147.643 82.5746 147.642C81.978 147.533 80.8588 146.971 80.8588 146.971L80.4995 148.933C80.5037 148.984 80.2682 149.601 80.5283 149.95C82.1806 152.171 82.7833 151.874 82.7833 151.874L83.8345 150.942C83.8627 150.892 83.8863 150.839 83.905 150.785C83.961 150.62 83.9726 150.438 83.9273 150.258L83.4478 148.347C83.3555 147.98 83.0544 147.718 82.7033 147.655" fill="#E7B2B6"/>
<path d="M117.154 171.918C116.68 171.852 116.165 171.622 115.666 171.4C115.202 171.194 114.724 170.981 114.316 170.921C109.082 170.157 104.338 169.221 100.153 168.395C99.0547 168.178 97.9805 167.966 96.9258 167.763C87.4006 165.925 81.9959 164.918 81.942 164.911C81.9958 164.918 87.44 165.601 96.9783 167.441C98.0332 167.645 99.108 167.857 100.206 168.074C104.388 168.898 109.127 169.833 114.353 170.597C114.808 170.663 115.311 170.887 115.796 171.104C116.272 171.315 116.764 171.534 117.188 171.593C118.565 171.783 118.533 172.108 117.154 171.918" fill="#333383"/>
<path d="M108.601 139.749C108.606 139.76 108.611 139.775 108.618 139.796L108.601 139.749Z" fill="#333383"/>
<path d="M133.273 201.229L133.182 201.254C129.957 195.486 126.483 188.523 123.259 181.128C122.766 179.997 122.267 178.83 121.774 177.662C121.232 176.374 120.689 175.065 120.164 173.774C120.023 173.428 119.956 173.008 119.906 172.58V172.579C120.001 172.44 120.092 172.299 120.184 172.156C120.186 172.168 120.186 172.178 120.187 172.189C120.243 172.709 120.299 173.244 120.461 173.641C120.986 174.932 121.527 176.239 122.069 177.526C122.562 178.693 123.062 179.857 123.552 180.988C126.772 188.372 130.052 195.47 133.273 201.229" fill="#333383"/>
<path d="M108.618 139.796L108.601 139.749C108.606 139.76 108.611 139.775 108.618 139.796Z" fill="#333383"/>
<path d="M67.0178 144.517C67.0178 144.517 70.0244 143.517 76.3228 145.464C81.4335 147.045 80.8588 146.971 80.8588 146.971L80.4058 149.645C80.4058 149.645 74.2878 151.707 67.6591 149.164C67.6591 149.164 64.6755 148.503 65.3492 146.396C66.0228 144.288 67.0178 144.517 67.0178 144.517Z" fill="#DFE5F4"/>
<path d="M410.11 151.562H49.6115V209.475H410.11V151.562Z" fill="#555CA5"/>
<path d="M426.537 209.475H118.372H94.4102H10.8605C10.2982 209.475 9.83801 209.948 9.83801 210.528C9.83801 211.108 10.2982 211.581 10.8605 211.581H94.4102H118.372H426.537C427.098 211.581 427.56 211.108 427.56 210.528C427.56 209.948 427.098 209.475 426.537 209.475Z" fill="#D0D6EC"/>
<path d="M418.583 152.275H45.2977V147.965H418.583V152.275Z" fill="#333383"/>
<path d="M97.7159 129.272H124.829L118.906 147.965H91.302L97.7159 129.272Z" fill="#D35C2B"/>
<path d="M256.457 129.271H283.571L276.521 147.965H250.043L256.457 129.271Z" fill="#D35C2B"/>
<path d="M110.966 117.457H121.446C121.446 117.457 127.864 122.093 126.707 131.105L115.047 131.956C115.047 131.956 117.604 124.456 110.966 117.457Z" fill="#DFE5F4"/>
<path d="M142.655 113.253C142.655 113.253 144.34 119.237 146.042 122.665L150.523 121.124C150.523 121.124 149.653 117.145 149.832 111.063L142.655 113.253Z" fill="#D98789"/>
<path d="M162.278 157.427C162.278 157.427 129.822 161.842 125.504 168.858C125.504 168.858 123.365 172.011 126.705 181.065C130.045 190.12 138.527 204.985 138.527 204.985H143.366C143.366 204.985 135.939 176.222 135.69 174.971C135.69 174.971 160.151 177.841 163.397 173.117C166.645 168.392 162.278 157.427 162.278 157.427" fill="#D98789"/>
<path d="M151.783 157.427C151.783 157.427 120.337 161.842 116.02 168.858C116.02 168.858 113.879 172.011 117.219 181.065C120.56 190.12 129.042 204.985 129.042 204.985H133.88C133.88 204.985 126.454 176.222 126.204 174.971C126.204 174.971 150.665 177.841 153.913 173.117C157.159 168.392 152.794 157.427 152.794 157.427H151.783" fill="#E7B2B6"/>
<path d="M140.609 121.333C138.058 122.611 124.829 135.577 124.829 135.577C124.829 135.577 118.237 126.818 117.224 125.023C117.193 124.926 117.174 124.824 117.176 124.722C117.18 123.673 116.319 122.444 115.088 121.691C113.806 120.907 114.217 121 113.318 120.425C112.419 119.849 112.22 121.27 112.22 121.27C112.04 124.005 113.88 125.132 114.685 125.493C114.907 125.591 115.049 125.814 115.047 126.058C115.047 126.058 118.771 140.675 124.829 143.624C124.829 143.624 140.02 134.708 140.609 130.056C141.199 125.403 146.016 120.299 146.016 120.299C146.016 120.299 143.083 120.094 140.609 121.333" fill="#E7B2B6"/>
<path d="M162.381 175.289C158.252 178.352 128.957 176.602 128.957 176.602C129.262 175.908 129.148 174.284 128.849 172.386C128.206 168.297 126.708 162.94 126.708 162.94C132.892 160.484 148.8 157.89 148.957 156.915C149.077 156.153 144.079 147.137 141.436 142.718L141.426 142.7L141.424 142.697C140.7 141.485 140.153 140.625 139.942 140.379C138.963 139.243 139.535 134.649 139.36 134.43L139.357 134.427C139.148 134.249 136.511 136.923 136.511 136.923C136.249 134.673 132.116 128.339 132.116 128.339C132.116 128.339 139.64 121.439 140.748 120.788C142.318 119.862 151.052 118.506 157.166 118.156C160.633 117.958 161.487 122.88 161.78 128.671C162.002 133.094 161.899 138.024 162.381 141.571C163.492 149.763 169.566 158.404 169.916 163.828C170.266 169.252 166.511 172.227 162.381 175.289" fill="#F2D370"/>
<path d="M141.561 115.777C141.561 115.777 150.183 117.354 151.081 111.959C151.979 106.565 153.696 103.135 148.229 101.9C142.762 100.666 141.347 102.545 140.61 104.272C139.873 105.999 139.341 115.227 141.561 115.777Z" fill="#E7B2B6"/>
<path d="M160.271 134.178L158.509 134.285L157.995 132.33V134.315L151.866 134.683C151.859 131.735 151.254 127.038 150.983 125.088C151.166 127.561 151.385 132.527 151.271 134.777L149.47 134.828C149.47 134.828 147.366 114.026 143.836 111.552C138.257 107.64 140.305 104.272 140.305 104.272C142.143 99.4549 149.883 99.5747 152.667 101.97C158.123 106.66 160.271 134.178 160.271 134.178" fill="#555CA5"/>
<path d="M150.857 124.198C150.916 124.431 150.958 124.732 150.984 125.088C150.911 124.568 150.862 124.242 150.857 124.198Z" fill="#555CA5"/>
<path d="M145.696 177.1C142.332 177.1 138.979 177.021 136.167 176.924C131.954 176.781 128.957 176.602 128.957 176.602C129.082 176.317 129.137 175.877 129.137 175.325C129.137 174.53 129.025 173.506 128.849 172.386C134.735 172.348 151.843 172.154 156.161 171.198C161.402 170.036 161.269 157.427 158.126 150.507C156.185 146.233 158.047 139.152 159.747 134.21L160.271 134.178C160.271 134.178 160.239 133.757 160.171 133.01C161.037 130.614 161.767 128.928 161.78 128.671C162.002 133.094 161.899 138.024 162.381 141.571C163.492 149.763 169.566 158.404 169.916 163.828C169.932 164.061 169.938 164.29 169.939 164.514C169.943 169.508 166.333 172.359 162.381 175.289C160.455 176.718 153.047 177.1 145.696 177.1" fill="#EEC565"/>
<path d="M159.747 134.21C159.89 133.794 160.032 133.393 160.171 133.01C160.239 133.757 160.271 134.178 160.271 134.178L159.747 134.21Z" fill="#70668F"/>
<path d="M141.424 142.697C140.699 141.485 140.153 140.625 139.942 140.378C139.448 139.806 139.349 138.356 139.349 137.03C139.35 136.125 139.396 135.278 139.396 134.806C139.396 134.598 139.387 134.464 139.36 134.43L139.357 134.427C139.625 134.087 140.009 133.81 140.552 133.81C140.601 133.81 140.651 133.812 140.703 133.816C142.143 133.949 140.099 140.428 141.424 142.697" fill="#EEC565"/>
<path d="M144.266 204.512L143.044 209.475H130.92C130.92 209.475 134.021 202.78 144.266 204.512Z" fill="#C5592D"/>
<path d="M135.186 204.512L133.964 209.475H121.839C121.839 209.475 124.941 202.78 135.186 204.512Z" fill="#D35C2B"/>
<path d="M170.947 207.899C170.947 208.813 170.2 209.561 169.288 209.561H130.172C129.258 209.561 128.513 208.813 128.513 207.899C128.513 206.984 129.258 206.236 130.172 206.236H147.71V180.434H152.424V206.236H169.288C170.2 206.236 170.947 206.984 170.947 207.899Z" fill="#B9C0D6"/>
<path d="M192.129 144.524C190.099 157.178 187.157 175.408 186.66 177.831C185.893 181.593 178.46 181.516 160.525 181.189C157.51 181.134 154.815 181.103 152.424 181.086C150.7 181.076 149.131 181.071 147.71 181.076C139.386 181.095 136.119 181.331 136.119 181.331C136.119 181.331 131.096 172.053 160.525 175.099C163.861 175.442 165.321 158.629 165.953 145.535C166.353 137.248 173.461 130.9 181.726 131.444C182.674 131.507 183.586 131.685 184.448 131.963C189.621 133.627 193.035 138.884 192.129 144.524" fill="#D35C2B"/>
<path d="M104.402 29.5136V11.1497H100.65V29.5136H51.3989V67.7626H152.061V29.5136H104.402Z" fill="#D0D6EC"/>
<path d="M150.444 65.8214H53.2051V31.1382H150.444V65.8214Z" fill="#DFE5F4"/>
<path d="M73.9671 62.0349H57.5283V34.269H73.9671V62.0349Z" fill="#D0D6EC"/>
<path d="M147.137 37.7622H78.0133V34.2691H147.137V37.7622" fill="#D0D6EC"/>
<path d="M147.136 44.2602H78.0132V40.7664H147.136V44.2602" fill="#D0D6EC"/>
<path d="M147.137 51.6455H78.0131V48.1522H147.137V51.6455Z" fill="#D0D6EC"/>
<path d="M354.192 29.513V11.1484H350.437V29.513H301.187V67.7615H401.849V29.513H354.192Z" fill="#D0D6EC"/>
<path d="M400.231 65.8215H302.992V31.1387H400.231V65.8215Z" fill="#DFE5F4"/>
<path d="M323.755 62.0349H307.315V34.2695H323.755V62.0349Z" fill="#D0D6EC"/>
<path d="M396.924 37.7629H327.801V34.2695H396.924V37.7629Z" fill="#D0D6EC"/>
<path d="M396.924 44.2603H327.801V40.7665H396.924V44.2603Z" fill="#D0D6EC"/>
<path d="M396.924 51.6459H327.801V48.1521H396.924V51.6459Z" fill="#D0D6EC"/>
<path d="M230.822 29.5132V11.1495H227.07V29.5132H177.818V67.7617H278.479V29.5132H230.822Z" fill="#D0D6EC"/>
<path d="M276.861 65.8218H179.623V31.1384H276.861V65.8218Z" fill="#DFE5F4"/>
<path d="M189.749 49.8825V56.4392H194.028C194.673 56.4392 195.229 56.3581 195.694 56.1974C196.16 56.0354 196.549 55.8135 196.86 55.5294C197.171 55.2465 197.401 54.9125 197.55 54.5286C197.701 54.1448 197.775 53.7248 197.775 53.2686C197.775 52.7465 197.709 52.2766 197.576 51.8591C197.442 51.4429 197.234 51.0864 196.95 50.7923C196.668 50.4982 196.299 50.2726 195.845 50.1168C195.388 49.961 194.844 49.8825 194.212 49.8825H189.749ZM189.749 46.3469H193.446C194.722 46.3244 195.672 46.0552 196.294 45.538C196.916 45.0208 197.225 44.2843 197.225 43.3272C197.225 42.2267 196.906 41.4341 196.267 40.9505C195.629 40.467 194.622 40.2252 193.246 40.2252H189.749V46.3469ZM184.754 60.4584V36.1711H193.246C194.655 36.1711 195.915 36.3044 197.026 36.5711C198.136 36.8378 199.076 37.2466 199.849 37.7975C200.62 38.3483 201.209 39.04 201.613 39.875C202.018 40.7087 202.221 41.692 202.221 42.8274C202.221 43.3832 202.152 43.9166 202.013 44.4289C201.874 44.9398 201.663 45.4184 201.38 45.8633C201.098 46.3082 200.738 46.7108 200.305 47.0722C199.874 47.4336 199.356 47.7315 198.758 47.9645C199.467 48.1427 200.075 48.4119 200.58 48.7734C201.087 49.1348 201.502 49.5548 201.829 50.0333C202.158 50.5119 202.395 51.0316 202.545 51.5924C202.695 52.1545 202.77 52.7303 202.77 53.3197C202.77 55.6777 202.013 57.4561 200.498 58.6575C198.982 59.8589 196.826 60.4584 194.028 60.4584H184.754" fill="#D0D6EC"/>
<path d="M212.794 51.4016H218.855L215.808 42.3096L212.794 51.4016ZM220.203 55.454H211.445L209.781 60.4587H204.469L213.493 36.171H218.123L227.197 60.4587H221.885L220.203 55.454Z" fill="#D0D6EC"/>
<path d="M249.177 60.4573H244.181L234.459 44.4777V60.4573H229.462V36.1708H234.459L244.198 52.1842V36.1708H249.177V60.4573" fill="#D0D6EC"/>
<path d="M261.129 50.7177L258.534 53.5196V60.4589H253.537V36.1709H258.534V47.1801L260.73 44.1616L266.909 36.1709H273.052L264.444 46.9634L273.302 60.4589H267.358L261.129 50.7177" fill="#D0D6EC"/>
<path d="M192.129 144.524C190.099 157.178 187.157 175.408 186.66 177.831C185.893 181.593 178.46 181.516 160.525 181.189C157.51 181.134 136.119 181.331 136.119 181.331C136.119 181.331 131.096 172.053 160.525 175.099C170.934 177.474 168.594 144.648 172.511 137.797C175.262 132.983 181.095 131.962 184.448 131.963C189.621 133.627 193.035 138.884 192.129 144.524" fill="#B65224"/>
<path d="M310.053 188.881L310.069 188.865L319.278 188.877L319.294 188.892L319.29 190.831L310.051 190.82L310.053 188.881ZM328.067 190.842L320.999 190.833L321.001 188.895C321.001 187.943 320.229 187.166 319.28 187.166L310.071 187.154C309.122 187.153 308.346 187.927 308.344 188.879L308.342 190.818L301.276 190.809C300.193 190.808 299.312 191.687 299.312 192.772L299.294 207.474C299.292 208.56 300.169 209.441 301.254 209.442L328.043 209.475C329.126 209.476 330.007 208.597 330.009 207.511L330.025 192.81C330.027 191.724 329.15 190.843 328.067 190.842Z" fill="#D5652C"/>
<path d="M330.018 198.328L299.304 198.29V197.715L330.02 197.753L330.018 198.328Z" fill="#C5592D"/>
<path d="M344.995 154.065C344.995 154.065 304.992 168.53 304.53 169.662L289.547 205.412C285.45 206.758 284.054 209.475 284.054 209.475L296.465 209.469L297.488 205.565H300.187C315.516 191.345 317.154 180.143 317.215 176.339C317.226 175.547 317.857 174.902 318.651 174.878C321.068 174.803 316.445 174.645 332.992 174.33C350.054 174.005 355.586 158.293 355.586 158.293L344.995 154.065" fill="#2B295E"/>
<path d="M286.71 204.904L285.514 209.469L273.103 209.475C273.103 209.475 276.204 203.442 286.71 204.904Z" fill="#221E50"/>
<path d="M355.273 160.395C355.273 160.395 350.052 174.005 332.993 174.33C316.443 174.645 310.118 174.803 307.699 174.878C306.908 174.903 306.275 175.546 306.265 176.34C306.204 180.143 304.564 191.345 289.235 205.565H278.534L295.674 162.696C296.138 161.563 334.046 154.065 334.046 154.065L355.273 160.395Z" fill="#333383"/>
<path d="M308.942 168.248C309.422 168.18 309.946 167.947 310.454 167.722C310.923 167.513 311.412 167.295 311.824 167.235C317.141 166.459 321.96 165.508 326.211 164.669C327.325 164.45 328.417 164.235 329.489 164.027C339.164 162.16 344.654 161.138 344.709 161.131C344.654 161.138 339.124 161.831 329.436 163.701C328.364 163.907 327.273 164.123 326.156 164.343C321.91 165.181 317.094 166.131 311.788 166.906C311.325 166.974 310.813 167.201 310.321 167.42C309.838 167.636 309.337 167.858 308.906 167.917C307.508 168.112 307.542 168.441 308.942 168.248Z" fill="#2B295E"/>
<path d="M287.609 201.609L287.701 201.634C290.977 195.775 294.505 188.702 297.781 181.19C298.282 180.042 298.788 178.857 299.289 177.67C299.841 176.362 300.39 175.032 300.924 173.72C301.068 173.369 301.136 172.941 301.186 172.508V172.507C301.09 172.366 300.998 172.221 300.904 172.078C300.902 172.089 300.902 172.1 300.9 172.11C300.844 172.638 300.787 173.182 300.623 173.585C300.091 174.896 299.54 176.224 298.989 177.531C298.489 178.716 297.98 179.9 297.483 181.048C294.213 188.548 290.881 195.759 287.609 201.609" fill="#2B295E"/>
<path d="M327.987 112.896C325.621 109.382 324.722 106.49 324.722 106.49L330.681 102.967C332.784 107.385 337.717 110.69 337.717 110.69C337.717 110.69 328.012 112.934 327.987 112.896Z" fill="#91562D"/>
<path d="M322.903 106.775C322.903 106.775 332.261 107.203 332.437 101.36C332.614 95.5175 333.941 91.6377 327.973 91.1172C322.005 90.5967 320.776 92.791 320.243 94.7267C319.713 96.6626 320.473 106.513 322.903 106.775" fill="#A05F32"/>
<path d="M320.244 94.7266C320.244 94.7266 323.385 95.2221 324.412 98.9104C325.44 102.599 329.855 106.275 331.219 106.093C331.219 106.093 339.308 95.1618 331.069 90.6666C324.967 87.3386 319.293 91.2678 320.244 94.7266Z" fill="#555CA5"/>
<path d="M288.309 147.992C288.834 146.532 289.352 144.351 289.352 144.351C289.352 144.351 285.788 144.896 284.671 144.84C284.591 144.824 284.513 144.814 284.433 144.811C283.777 144.775 283.127 145.119 282.807 145.739L281.646 147.992H288.309" fill="#A05F32"/>
<path d="M348.739 117.495C348.348 116.901 347.967 116.325 347.596 115.771C345.615 112.803 344.619 111.016 343.129 109.71C340.089 107.043 334.247 107.75 334.223 107.753V107.753C334.223 107.753 331.882 108.579 330.774 108.849C329.361 109.194 327.854 109.631 326.38 110.181C326.231 110.221 317.302 112.663 316.486 115.962C315.101 121.548 306.144 140.112 306.144 140.112C306.144 140.112 292.76 143.085 288.892 144.463L288.096 147.992L310.672 147.965C310.672 147.965 317.537 141.041 321.459 134.931C321.474 134.971 321.49 135.012 321.503 135.052C322.394 137.574 323.271 140.112 323.971 142.482C325.827 148.784 327.336 154.333 331.011 155.082C333.297 155.547 335.273 155.948 336.993 156.276C350.204 158.804 347.936 157.029 350.481 147.14C351.472 143.295 351.402 139.455 350.709 135.743C351.466 135.464 352.201 135.166 352.881 134.853C353.813 134.422 354.636 133.961 355.272 133.476C357.589 131.705 352.81 123.704 348.739 117.495" fill="#F2D370"/>
<path d="M352.88 134.853C349.847 128.261 347.926 119.399 347.155 115.375C347.659 116.048 348.192 116.758 348.74 117.495C352.072 122.576 355.875 128.858 355.879 131.943C355.879 132.627 355.692 133.155 355.27 133.476C355.253 133.491 355.233 133.506 355.211 133.522C354.585 133.99 353.781 134.436 352.88 134.853" fill="#EEC565"/>
<path d="M325.659 147.965C325.082 146.286 324.542 144.419 323.973 142.482C323.274 140.112 322.397 137.574 321.505 135.052C322.397 137.574 323.274 140.112 323.973 142.482C324.542 144.419 325.082 146.286 325.659 147.965Z" fill="#EEE1D4"/>
<path d="M336.994 156.276C335.276 155.948 333.297 155.547 331.012 155.082C328.467 154.562 326.96 151.743 325.658 147.965C325.081 146.287 324.541 144.42 323.971 142.482C323.274 140.112 322.395 137.574 321.504 135.052C321.876 133.897 322.55 132.88 323.768 132.531C323.82 132.515 323.88 132.507 323.94 132.507C326.933 132.507 336.956 151.468 336.994 156.276" fill="#EEC565"/>
<path d="M344.812 206.237H327.996V180.434H323.281V206.237H305.786C304.94 206.237 304.196 206.854 304.094 207.696C303.975 208.7 304.763 209.561 305.742 209.561H344.857C345.835 209.561 346.624 208.7 346.505 207.696C346.403 206.854 345.659 206.237 344.812 206.237" fill="#B9C0D6"/>
<path d="M367.657 144.783C365.627 157.425 362.722 175.425 362.23 177.832C361.645 180.691 357.213 181.331 347.244 181.331C344.098 181.331 340.398 181.268 336.093 181.189C318.157 180.863 311.689 181.331 311.689 181.331C311.689 181.331 306.666 172.053 336.093 175.099C339.449 175.445 340.908 158.425 341.532 145.299C341.92 137.145 348.902 130.894 357.033 131.428C360.689 131.667 363.808 133.583 365.735 136.35C367.377 138.71 368.154 141.691 367.657 144.783" fill="#D35C2B"/>
<path d="M367.657 144.783C365.627 157.425 362.722 175.425 362.23 177.832C361.645 180.691 357.213 181.331 347.244 181.331H311.689C311.689 181.331 306.666 172.053 336.093 175.099C347.088 177.351 344.802 146.364 345.051 143.789C345.301 141.215 349.981 134.8 355.271 133.476C360.561 132.152 365.731 136.349 365.731 136.349L365.735 136.35C367.377 138.71 368.154 141.691 367.657 144.783" fill="#B65224"/>
</svg>
