<svg width="717" height="143" viewBox="0 0 717 143" fill="none" xmlns="http://www.w3.org/2000/svg">
<g clip-path="url(#clip0)">
<path d="M246.916 90.8134V38.6273H254.446C260.541 38.6273 261.975 39.4556 261.975 42.9761C261.975 48.4023 263.04 48.4227 268.309 43.0974C276.787 34.5283 297.313 34.6867 308.28 43.406C327.157 58.4147 326.122 96.8597 306.451 111.343C297.848 117.677 279.471 117.371 270.607 110.747L264.126 105.904V124.452V143H255.521H246.916V90.8134ZM298.379 97.8405C305.574 90.5687 308.143 78.6899 305.04 67.0436C300.397 49.6147 282.356 43.7854 270.415 55.8554C264.877 61.4524 264.136 63.7245 264.203 74.8816C264.288 89.0049 267.455 96.5315 275.12 100.826C283.538 105.541 291.811 104.48 298.379 97.8405ZM350.88 114.517C347.125 113.418 341.322 109.596 337.985 106.022C311.689 77.8614 334.509 30.5503 371.046 37.4784C381.297 39.4223 394.113 52.2339 397.257 63.6822C401.91 80.6214 402.979 79.9413 371.69 79.9413H343.723V85.5446C343.723 88.8385 346.315 93.7676 350.012 97.504C358.798 106.385 369.843 106.319 378.144 97.3367C382.334 92.803 386.206 90.8134 390.839 90.8134C398.684 90.8134 398.892 91.7502 393.15 101.268C385.613 113.765 367.602 119.409 350.88 114.517ZM382.446 65.6403C382.446 59.1734 370.473 49.4994 362.468 49.4994C354.153 49.4994 343.723 58.1336 343.723 65.0169C343.723 68.6702 345.63 69.0692 363.085 69.0692C379.281 69.0692 382.446 68.5086 382.446 65.6403ZM466.332 114.875C442.572 107.57 429.909 89.2073 429.822 61.9325C429.716 28.8425 449.198 7.49278 479.521 7.46974C500.82 7.45355 522.279 22.7063 522.279 37.8616C522.279 42.3295 521.251 42.9761 514.146 42.9761C507.114 42.9761 505.688 42.1068 503.616 36.5605C500.011 26.9047 488.929 20.8038 476.892 21.8471C458.584 23.4339 449.113 35.1829 447.474 58.3428C446.606 70.595 447.249 74.7713 451.304 83.2387C457.097 95.3338 466.335 101.669 478.178 101.669C490.54 101.669 499.533 95.3116 504.038 83.387C507.481 74.2747 508.427 73.418 515.042 73.418C521.352 73.418 522.279 74.1235 522.279 78.9239C522.279 103.164 491.847 122.72 466.332 114.875ZM551.839 113.799C541.226 109.971 537.911 106.996 532.655 96.5835C526.861 85.1028 527.753 61.2991 534.31 52.4213C542.1 41.8758 549.42 37.8748 562.587 36.9661C591.018 35.0038 609.7 59.2713 602.002 88.1656C595.924 110.982 574.451 121.954 551.839 113.799ZM575.749 100.761C583.23 96.8511 586.817 88.9783 586.817 76.4694C586.817 59.4406 579.047 49.4994 565.736 49.4994C545.568 49.4994 536.634 81.7391 552.39 97.6639C559.221 104.569 566.594 105.547 575.749 100.761ZM24.1217 64.1767C14.9751 36.3713 7.04643 12.3983 6.50244 10.9034C4.83436 6.31941 22.6373 7.37248 24.8825 11.9906C25.9001 14.0835 31.9556 32.6748 38.3393 53.3046C44.7231 73.9345 50.4898 90.8134 51.1544 90.8134C51.819 90.8134 58.1549 72.4667 65.2341 50.043L78.1055 9.27256L87.4993 8.58996C94.5633 8.07665 96.626 8.61592 95.8162 10.7644C95.224 12.3357 87.11 36.3612 77.7853 64.1544L60.8311 114.687L50.7915 114.71L40.7519 114.732L24.1217 64.1767ZM98.4784 76.6797V38.6273H107.084H115.689V76.6797V114.732H107.084H98.4784V76.6797ZM126.445 76.6797V38.6273H133.974C140.676 38.6273 141.504 39.2579 141.504 44.3598V50.0924L147.219 44.3158C150.362 41.1387 155.255 37.9503 158.092 37.2307C165.854 35.2615 178.123 37.9239 183.224 42.6844C187.723 46.8831 187.81 46.8758 195.225 41.6833C208.241 32.5682 228.025 36.0069 233.59 48.3514C235.19 51.9015 236.16 65.5011 236.16 84.3925V114.732H228.841H221.523L220.774 85.7082C219.923 52.7141 218.621 49.4994 206.112 49.4994C192.146 49.4994 190.029 54.143 189.154 86.6906L188.4 114.732H181.086H173.773V86.9484C173.773 54.6826 171.842 49.4994 159.824 49.4994C154.552 49.4994 151.355 51.0637 148.114 55.2287C144.149 60.3233 143.655 63.9366 143.655 87.845V114.732H135.05H126.445V76.6797ZM404.459 62.0023L405.035 9.27256L413.102 8.5977L421.169 7.92283V61.3275V114.732H412.526H403.883L404.459 62.0023ZM610.481 76.6797V38.6273H618.011C624.712 38.6273 625.54 39.2579 625.54 44.3598V50.0924L631.255 44.3158C634.399 41.1387 639.292 37.9503 642.128 37.2307C649.891 35.2615 662.16 37.9239 667.261 42.6844C671.76 46.8831 671.847 46.8758 679.261 41.6833C692.277 32.5682 712.061 36.0069 717.626 48.3514C719.226 51.9015 720.196 65.5011 720.196 84.3925V114.732H712.878H705.559L704.811 85.7082C703.959 52.7141 702.657 49.4994 690.148 49.4994C676.182 49.4994 674.065 54.143 673.19 86.6906L672.436 114.732H665.123H657.809V86.9484C657.809 54.6826 655.879 49.4994 643.86 49.4994C638.589 49.4994 635.391 51.0637 632.15 55.2287C628.185 60.3233 627.692 63.9366 627.692 87.845V114.732H619.086H610.481V76.6797ZM99.3164 22.4772C98.6684 20.7703 98.4567 17.101 98.8461 14.3232C99.422 10.2145 101.059 9.1467 107.621 8.5977L115.689 7.92283V16.7518C115.689 25.4073 115.539 25.5807 108.092 25.5807C103.495 25.5807 100.029 24.3549 99.3164 22.4772Z" fill="#2C292C"/>
</g>
<defs>
<clipPath id="clip0">
<rect width="717" height="143" fill="white"/>
</clipPath>
</defs>
</svg>
