<svg width="321" height="214" viewBox="0 0 321 214" fill="none" xmlns="http://www.w3.org/2000/svg">
<path d="M215.325 73.0431C215.325 73.0431 236.313 39.1121 247.507 42.9608C258.701 46.808 220.222 73.7428 220.222 73.7428L215.325 73.0431Z" fill="#A8D29F"/>
<path d="M232.817 71.6432C232.817 71.6432 247.509 56.6016 254.503 60.0998C261.5 63.5978 250.307 70.2439 232.817 71.6432Z" fill="#A8D29F"/>
<path d="M94.2055 194.552L245.538 194.785C245.538 194.785 234.579 186.158 226.65 189.189C218.723 192.22 203.099 190.121 201.001 183.825C198.902 177.529 191.208 171.001 171.388 170.068C151.568 169.135 142.706 180.328 132.913 183.359C126.851 185.235 121.415 184.968 118.152 184.49C114.138 170.01 104.117 141.43 87.6491 141.952C65.6115 142.652 84.5009 151.747 91.147 155.945C95.3895 158.624 104.335 173.56 110.251 184.014C107.806 184.255 105.731 184.707 103.97 185.294C99.6545 177.78 91.4901 166.316 82.0523 166.788C68.0601 167.488 77.5049 175.533 84.8507 179.731C88.6669 181.912 94.5595 185.036 99.3416 187.536C94.7892 190.637 94.2055 194.552 94.2055 194.552Z" fill="#A8D29F"/>
<path d="M291.414 195.135H20.5685C20.3918 195.135 20.2474 194.99 20.2474 194.814C20.2474 194.637 20.3918 194.493 20.5685 194.493H291.414C291.589 194.493 291.734 194.637 291.734 194.814C291.734 194.99 291.589 195.135 291.414 195.135Z" fill="#202F4E"/>
<path d="M172.638 110.002C169.976 112.671 167.045 114.989 163.881 116.943C156.21 111.336 148.013 106.537 139.475 102.653C140.649 100.502 141.806 98.2296 142.935 95.8579C150.751 96.8939 158.266 97.5153 165.125 97.676C166.915 97.7279 168.654 97.7279 170.341 97.7151C174.713 97.663 178.607 97.4036 181.94 96.9365C179.606 101.776 176.477 106.162 172.638 110.002ZM157.341 120.317C151.398 122.835 145.105 124.106 138.605 124.106C133.597 124.106 128.705 123.35 124.006 121.853C127.567 119.986 131.146 115.699 133.901 111.748C135.323 109.711 136.744 107.457 138.146 105.023C146.231 108.684 154.005 113.182 161.307 118.422C160.019 119.111 158.697 119.743 157.341 120.317ZM94.231 94.6918C94.121 94.4304 94.014 94.1682 93.9086 93.9055C98.1329 94.0777 105.154 94.7721 113.36 96.6474C113.955 96.7832 114.548 96.9248 115.142 97.0695C114.69 99.7033 114.357 102.22 114.151 104.586C113.762 109.067 113.734 114.235 114.984 117.924C111.18 115.783 107.69 113.133 104.559 110.002C100.134 105.578 96.6572 100.427 94.231 94.6918ZM92.5313 83.8057C93.7768 84.2733 95.0485 84.7396 96.359 85.1939C102.383 87.2823 109.136 89.2224 116.359 90.9431C116.096 92.1132 115.855 93.2665 115.632 94.4022C115.043 94.2592 114.452 94.1189 113.86 93.9844C103.874 91.712 96.3805 91.2492 92.9069 91.1709C92.0464 88.5789 91.4139 85.9278 91.0133 83.2225C91.5192 83.4165 92.0253 83.6117 92.5313 83.8057ZM85.5508 78.2915C76.3518 73.8028 72.1479 69.4695 74.0292 66.3942C75.5473 63.9022 81.0745 62.2164 89.5341 61.5934C88.4962 65.0964 87.8603 68.7163 87.6138 72.388C87.5361 73.4786 87.497 74.568 87.4841 75.6706V75.9562C87.4841 77.0588 87.523 78.1626 87.5879 79.2519C86.8871 78.941 86.2127 78.6157 85.5508 78.2915ZM94.231 57.2203C94.6591 56.2346 95.1003 55.2621 95.5804 54.3137L95.5816 54.3125C101.528 61.7452 110.293 69.3429 120.534 75.9333C119.082 80.3521 117.843 84.6963 116.843 88.8584C109.393 87.0557 102.488 85.0168 96.4367 82.8333C95.1651 82.379 93.9326 81.9114 92.7518 81.4451C92.0512 81.1715 91.3635 80.8872 90.6889 80.6016C90.5852 79.5628 90.5073 78.512 90.4813 77.4612C90.4683 76.9551 90.4554 76.4623 90.4554 75.9562C90.4554 75.3729 90.4683 74.7752 90.4813 74.192C90.65 69.8189 91.3895 65.5507 92.687 61.4246C92.9075 60.7245 93.141 60.0364 93.4006 59.3484C93.66 58.635 93.9326 57.9216 94.231 57.2203ZM91.5721 33.8318C93.1373 31.347 96.6348 30.0648 101.546 30.0648C103.895 30.0648 106.569 30.3577 109.507 30.9554C110.623 31.1807 111.763 31.447 112.922 31.7519L112.925 31.7531C109.111 33.9583 105.609 36.6564 102.457 39.822C101.795 40.4703 101.159 41.1451 100.537 41.8453C99.7582 42.702 99.0187 43.5974 98.3051 44.506C97.1633 45.9592 96.1123 47.4764 95.1392 49.0333L95.1369 49.0381C90.7972 42.5936 89.4925 37.1312 91.5721 33.8318ZM138.605 27.8066C141.94 27.8066 145.22 28.1428 148.425 28.808C144.644 30.4541 140.783 35.0368 137.852 39.2376C134.853 43.5383 131.856 48.8007 129.029 54.6909C127.12 53.6546 125.315 52.5339 123.618 51.3313C117.992 47.339 114.622 43.1599 112.785 40.3558C111.81 38.8676 111.152 37.5999 110.734 36.6901C112.708 35.2851 114.785 34.0306 116.956 32.9352L116.958 32.9364C117.842 32.4906 118.743 32.0724 119.657 31.6808C119.724 31.6531 119.79 31.6242 119.856 31.5952C119.871 31.5892 119.887 31.5832 119.902 31.576C120.097 31.494 120.293 31.4133 120.49 31.3337C120.542 31.3133 120.596 31.2916 120.647 31.2711C126.344 28.9743 132.39 27.8066 138.605 27.8066ZM172.638 41.9103C177.062 46.3352 180.539 51.4855 182.965 57.2203C183.83 59.27 184.549 61.3632 185.119 63.4949C174.021 64.3059 163.853 64.0516 154.764 62.7357C156.206 56.8419 157.176 51.2975 157.602 46.4015C158.073 40.9933 158.015 34.5885 155.823 30.9831C156.33 31.1783 156.836 31.3819 157.341 31.5952C163.075 34.0222 168.226 37.4854 172.638 41.9103ZM146.203 63.8889C147.894 64.2818 149.631 64.63 151.408 64.9397C150.159 69.6357 148.623 74.527 146.831 79.4664C146.14 81.3692 145.425 83.2442 144.69 85.0807C137.962 82.6103 130.82 79.0772 123.798 74.7126C124.161 73.6509 124.535 72.5869 124.923 71.5204C126.586 66.9316 128.393 62.5164 130.287 58.3807C135.059 60.6932 140.382 62.5369 146.203 63.8889ZM152.005 31.0228C153.482 31.5579 154.231 33.6775 154.601 35.361C155.183 38.0205 155.289 41.7573 154.905 46.1665C154.485 50.9927 153.519 56.4732 152.08 62.3103C150.342 62.0115 148.647 61.6729 146.995 61.2933C141.287 59.981 136.083 58.1855 131.435 55.9297C134.208 50.1467 137.141 44.9892 140.073 40.7872C142.605 37.1577 145.081 34.3572 147.233 32.6894C148.357 31.8182 149.868 30.8867 151.192 30.8867C151.473 30.8867 151.746 30.9288 152.005 31.0228ZM108.526 38.3579C108.97 39.2665 109.582 40.392 110.408 41.6681C113.926 47.1064 118.574 51.0481 121.853 53.3979C123.735 54.7464 125.744 55.9972 127.875 57.1468C125.931 61.3825 124.08 65.9038 122.377 70.5974C122.059 71.4722 121.752 72.3459 121.449 73.2183C111.282 66.5991 102.672 59.0037 97.0249 51.6542L97.0226 51.6506C98.4364 49.2393 100.058 46.957 101.873 44.8169C102.626 43.9348 103.404 43.078 104.222 42.2477C104.338 42.1308 104.442 42.0272 104.559 41.9103C105.822 40.6474 107.147 39.4641 108.526 38.3579ZM125.526 90.7998C123.479 90.378 121.46 89.9382 119.478 89.4802C120.411 85.5952 121.558 81.5451 122.897 77.4191C129.857 81.6969 136.935 85.1783 143.639 87.6474C142.798 89.655 141.934 91.6119 141.052 93.5067C135.962 92.7772 130.752 91.871 125.526 90.7998ZM136.991 101.554C130.881 98.9221 124.603 96.747 118.26 95.0679C118.484 93.9168 118.729 92.7459 118.995 91.5565C120.759 91.9578 122.547 92.3458 124.358 92.7194C129.659 93.8037 134.946 94.7239 140.12 95.4685C139.096 97.5893 138.05 99.6222 136.991 101.554ZM119.748 119.964C118.272 119.429 117.522 117.309 117.154 115.626C116.57 112.966 116.466 109.23 116.849 104.82C117.042 102.59 117.355 100.22 117.774 97.7397C123.826 99.3526 129.818 101.427 135.653 103.927C134.338 106.193 133.01 108.294 131.681 110.2C129.148 113.83 126.672 116.63 124.521 118.298C123.158 119.353 121.225 120.499 119.748 119.964ZM182.99 94.6269C179.527 95.2497 175.207 95.613 170.159 95.665C162.328 95.7604 153.332 95.142 143.855 93.8927C144.651 92.1566 145.434 90.372 146.197 88.5475C149.139 89.5321 151.992 90.3105 154.716 90.8636C157.834 91.4963 160.68 91.8096 163.221 91.8096C169.175 91.8096 173.441 90.09 175.548 86.7448C175.895 86.1941 176.178 85.6097 176.396 84.9927H173.361C173.31 85.0855 173.257 85.1771 173.201 85.2662C171.637 87.7498 168.138 89.0332 163.227 89.032C160.878 89.032 158.204 88.7392 155.266 88.1427C152.704 87.6233 150.018 86.893 147.249 85.9736C147.979 84.1456 148.69 82.2814 149.376 80.3895C151.227 75.2874 152.81 70.2298 154.093 65.3735C159.932 66.2339 166.201 66.6665 172.861 66.6665C177.007 66.6665 181.307 66.499 185.749 66.164C186.408 69.361 186.742 72.6327 186.742 75.9562C186.742 82.4308 185.482 88.7102 182.99 94.6269ZM195.201 86.258L191.244 86.1676C192.515 87.8149 192.801 89.3332 192.009 90.6178C191.217 91.9277 189.323 93.005 186.495 93.8225C188.635 88.127 189.712 82.1187 189.712 75.9562C189.712 69.0537 188.364 62.3585 185.691 56.0659C183.122 49.9804 179.437 44.506 174.74 39.822C170.042 35.1248 164.58 31.4398 158.496 28.8574C152.19 26.1979 145.495 24.8483 138.605 24.8483C131.703 24.8483 125.008 26.1979 118.702 28.8574C117.949 29.1828 117.196 29.519 116.47 29.8696L116.463 29.8732C114.265 29.202 112.124 28.6525 110.058 28.2344C99.6305 26.1184 92.2303 27.5801 89.2243 32.352C86.3638 36.8902 87.9209 43.7227 93.5974 51.6892L93.5953 51.694C92.8297 53.1075 92.1421 54.5608 91.5063 56.0659C91.0263 57.195 90.5981 58.3241 90.2087 59.4785C79.5437 60.1136 73.8346 61.991 71.7585 65.3904C69.3453 69.3477 72.6409 74.6583 83.1895 79.8231C84.6426 80.5365 86.1996 81.2366 87.8344 81.9379C88.3793 86.7255 89.612 91.383 91.5063 95.8467C94.0752 101.932 97.76 107.407 102.457 112.104C107.154 116.788 112.616 120.473 118.702 123.055C125.008 125.714 131.703 127.064 138.605 127.064C145.495 127.064 152.19 125.714 158.496 123.055C164.58 120.473 170.042 116.788 174.74 112.104C179.307 107.537 182.927 102.217 185.482 96.3268C190.686 95.2497 194.111 93.5631 195.473 91.3312C196.421 89.7875 196.304 88.0752 195.201 86.258Z" fill="#ADCBF9"/>
<path d="M127.529 21.8069L115.437 23.8603L123.346 18.1568L123.802 19.9061L126.768 20.3627L127.529 21.8069Z" fill="#456AA3"/>
<path d="M115.436 23.8606L125.399 18.385L135.286 17.6248L115.436 23.8606Z" fill="#ADCBF9"/>
<path d="M123.347 18.1569L115.437 23.8611L121.445 15.1151L123.347 18.1569Z" fill="#ADCBF9"/>
<path d="M74.4302 51.3055L85.8756 55.7149L79.2535 48.5566L78.4596 50.1809L75.462 50.0396L74.4302 51.3055Z" fill="#456AA3"/>
<path d="M85.8756 55.7149L77.1955 48.3737L67.6556 45.6687L85.8756 55.7149Z" fill="#ADCBF9"/>
<path d="M79.2535 48.5566L85.8756 55.7149L81.7198 45.9512L79.2535 48.5566Z" fill="#ADCBF9"/>
<path d="M296.226 89.3365H268.753C268.11 89.3365 267.583 89.8627 267.583 90.5056V102.391C267.583 103.034 268.11 103.56 268.753 103.56H270.312V106.677L275.171 103.56H296.226C296.868 103.56 297.393 103.034 297.393 102.391V90.5056C297.393 89.8627 296.868 89.3365 296.226 89.3365Z" fill="#F7C78F"/>
<path d="M293.497 94.1107H271.479C271.051 94.1107 270.701 93.76 270.701 93.3314C270.701 92.9028 271.051 92.552 271.479 92.552H293.497C293.925 92.552 294.275 92.9028 294.275 93.3314C294.275 93.76 293.925 94.1107 293.497 94.1107Z" fill="#E2923D"/>
<path d="M293.497 96.9358H271.479C271.051 96.9358 270.701 96.5852 270.701 96.1564C270.701 95.7278 271.051 95.3772 271.479 95.3772H293.497C293.925 95.3772 294.275 95.7278 294.275 96.1564C294.275 96.5852 293.925 96.9358 293.497 96.9358Z" fill="#E2923D"/>
<path d="M293.497 99.761H271.479C271.051 99.761 270.701 99.4102 270.701 98.9816C270.701 98.5531 271.051 98.2023 271.479 98.2023H293.497C293.925 98.2023 294.275 98.5531 294.275 98.9816C294.275 99.4102 293.925 99.761 293.497 99.761Z" fill="#E2923D"/>
<path d="M27.3891 54.3571H54.8612C55.5041 54.3571 56.0303 54.8825 56.0303 55.5256V67.4111C56.0303 68.0542 55.5041 68.5796 54.8612 68.5796H53.3025V71.6976L48.443 68.5796H27.3891C26.746 68.5796 26.22 68.0542 26.22 67.4111V55.5256C26.22 54.8825 26.746 54.3571 27.3891 54.3571Z" fill="#F7C78F"/>
<path d="M30.1167 59.1304H52.1335C52.562 59.1304 52.9128 58.7794 52.9128 58.3514C52.9128 57.9224 52.562 57.5714 52.1335 57.5714H30.1167C29.6881 57.5714 29.3375 57.9224 29.3375 58.3514C29.3375 58.7794 29.6881 59.1304 30.1167 59.1304Z" fill="#E2923D"/>
<path d="M30.1167 61.9552H52.1335C52.562 61.9552 52.9128 61.6042 52.9128 61.1762C52.9128 60.7471 52.562 60.3972 52.1335 60.3972H30.1167C29.6881 60.3972 29.3375 60.7471 29.3375 61.1762C29.3375 61.6042 29.6881 61.9552 30.1167 61.9552Z" fill="#E2923D"/>
<path d="M30.1167 64.7811H52.1335C52.562 64.7811 52.9128 64.4301 52.9128 64.001C52.9128 63.573 52.562 63.222 52.1335 63.222H30.1167C29.6881 63.222 29.3375 63.573 29.3375 64.001C29.3375 64.4301 29.6881 64.7811 30.1167 64.7811Z" fill="#E2923D"/>
<path d="M187.03 110.402L193.696 189.669C193.696 189.669 194.394 194.473 190.82 194.482C184.944 194.496 161.57 194.482 161.57 194.482C161.57 194.482 165.993 193.482 165.941 191.231C165.878 188.579 158.148 109.652 158.148 109.652L187.03 110.402Z" fill="#D86713"/>
<path d="M188.876 193.044C183.153 193.118 160.83 193.047 159.673 193.044C160.108 193.044 163.466 192.962 163.94 190.434C163.978 190.236 163.998 190.023 163.997 189.793C163.994 189.299 163.723 186.163 163.282 181.384C162.888 177.098 162.357 171.492 161.763 165.288C159.46 141.243 156.204 108.214 156.204 108.214L185.086 108.963L189.823 165.288L190.747 176.281L191.579 186.171L191.753 188.231C191.753 188.231 192.568 192.997 188.876 193.044Z" fill="#EE9849"/>
<path d="M257.168 67.2686L240.93 132.495L238.705 141.428L231.143 171.809H90.6328L118.509 67.2686H257.168Z" fill="#F1A34F"/>
<path d="M257.167 67.2681L259.419 68.0183L234.135 174.078L231.144 171.809L257.167 67.2681Z" fill="#EE9849"/>
<path d="M234.135 174.078H94.4895L90.6332 171.809H231.143L234.135 174.078Z" fill="#D86713"/>
<path d="M185.096 194.513H154.861V193.076H185.096V194.513Z" fill="#F1A34F"/>
<path d="M190.935 174.032L190.747 176.282L190.74 176.364C190.74 176.364 171.1 178.247 163.281 181.384C163.085 179.236 162.853 176.755 162.595 174.032H190.935Z" fill="#D86713"/>
<path d="M181.798 193.076H175.183C167.798 193.07 160.33 193.046 159.673 193.044C160.109 193.044 163.466 192.962 163.941 190.434C164.421 190.46 165.36 190.497 166.659 190.497C171.574 190.497 181.648 189.96 191.579 186.171L191.754 188.231C191.754 188.231 191.83 188.68 191.83 189.302C191.829 190.71 191.436 193.012 188.877 193.044C187.404 193.063 184.828 193.072 181.798 193.076Z" fill="#E58433"/>
<path d="M178.715 193.077C177.559 193.077 176.372 193.077 175.182 193.076H181.798C180.811 193.077 179.777 193.077 178.715 193.077Z" fill="#E78B37"/>
<path d="M230.96 171.809H192.192H190.37H183.655C203.655 165.454 213.124 156.158 216.94 151.286H236.069L230.96 171.809Z" fill="#E78B37"/>
<path d="M118.51 67.2677L96.0731 151.286H96.0121L118.313 67.2677H118.51Z" fill="#9ED9F0"/>
<path d="M256.109 68.6501L236.069 151.286H97.783L120.239 68.6501H256.109Z" fill="#9ED9F0"/>
<path d="M96.0731 151.286H97.783L97.4406 152.546L95.7864 152.358L96.0731 151.286Z" fill="#F1A34F"/>
<path d="M257.393 67.2678V68.6503H256.109L256.444 67.2678H257.393Z" fill="#F1A34F"/>
<path d="M121.382 145.173H172.92L190.192 75.8947H138.656L121.382 145.173Z" fill="white"/>
<path d="M173.711 107.825H139.571C139.148 107.825 138.887 107.479 138.994 107.055L139.065 106.767C139.171 106.344 139.604 105.998 140.027 105.998H174.167C174.59 105.998 174.85 106.344 174.743 106.767L174.671 107.055C174.567 107.479 174.134 107.825 173.711 107.825Z" fill="#B4CEF6"/>
<path d="M176.747 95.6436H142.607C142.183 95.6436 141.925 95.2977 142.029 94.8743L142.101 94.5862C142.207 94.1627 142.639 93.8168 143.063 93.8168H177.202C177.626 93.8168 177.886 94.1627 177.78 94.5862L177.708 94.8743C177.602 95.2977 177.17 95.6436 176.747 95.6436Z" fill="#B4CEF6"/>
<path d="M175.692 99.8758H141.551C141.128 99.8758 140.869 99.5287 140.974 99.1056L141.046 98.8181C141.152 98.395 141.584 98.0479 142.008 98.0479H176.147C176.57 98.0479 176.831 98.395 176.724 98.8181L176.653 99.1056C176.548 99.5287 176.115 99.8758 175.692 99.8758Z" fill="#B4CEF6"/>
<path d="M174.702 103.85H140.562C140.138 103.85 139.878 103.503 139.984 103.08L140.056 102.792C140.162 102.369 140.594 102.022 141.017 102.022H175.157C175.58 102.022 175.84 102.369 175.736 102.792L175.663 103.08C175.558 103.503 175.125 103.85 174.702 103.85Z" fill="#B4CEF6"/>
<path d="M171.69 115.927H137.551C137.127 115.927 136.867 115.58 136.973 115.158L137.045 114.869C137.15 114.446 137.583 114.099 138.005 114.099H172.146C172.569 114.099 172.829 114.446 172.724 114.869L172.651 115.158C172.546 115.58 172.113 115.927 171.69 115.927Z" fill="#B4CEF6"/>
<path d="M172.681 111.952H138.541C138.118 111.952 137.858 111.605 137.964 111.183L138.035 110.894C138.141 110.471 138.573 110.124 138.997 110.124H173.137C173.56 110.124 173.82 110.471 173.714 110.894L173.643 111.183C173.537 111.605 173.105 111.952 172.681 111.952Z" fill="#B4CEF6"/>
<path d="M142.872 128.419H134.579C134.077 128.419 133.768 128.007 133.894 127.505C134.02 127.003 134.533 126.592 135.035 126.592H143.328C143.829 126.592 144.139 127.003 144.013 127.505C143.888 128.007 143.375 128.419 142.872 128.419Z" fill="#B4CEF6"/>
<path d="M168.273 128.419H159.982C159.479 128.419 159.171 128.007 159.296 127.505C159.421 127.003 159.935 126.592 160.438 126.592H168.729C169.232 126.592 169.54 127.003 169.415 127.505C169.29 128.007 168.776 128.419 168.273 128.419Z" fill="#B4CEF6"/>
<path d="M131.074 132.425C130.451 132.425 129.82 132.931 129.665 133.554L128.793 137.05C128.717 137.352 128.766 137.634 128.931 137.844C129.087 138.045 129.332 138.155 129.621 138.155H141.713C142.335 138.155 142.967 137.649 143.122 137.026L143.993 133.531C144.069 133.228 144.02 132.946 143.856 132.736C143.699 132.536 143.454 132.425 143.166 132.425H131.074ZM141.713 138.253H129.621C129.302 138.253 129.029 138.128 128.854 137.904C128.671 137.669 128.616 137.358 128.699 137.026L129.571 133.531C129.735 132.867 130.409 132.328 131.074 132.328H143.166C143.485 132.328 143.757 132.452 143.932 132.677C144.115 132.91 144.171 133.223 144.088 133.554L143.216 137.05C143.05 137.713 142.376 138.253 141.713 138.253Z" fill="#476BA7"/>
<path d="M156.519 132.425C155.897 132.425 155.264 132.931 155.109 133.554L154.238 137.05C154.162 137.352 154.212 137.634 154.375 137.844C154.533 138.045 154.778 138.155 155.065 138.155H167.158C167.78 138.155 168.412 137.649 168.567 137.026L169.439 133.531C169.515 133.228 169.465 132.946 169.301 132.736C169.144 132.536 168.899 132.425 168.611 132.425H156.519ZM167.158 138.253H155.065C154.747 138.253 154.475 138.128 154.299 137.904C154.116 137.669 154.061 137.358 154.143 137.026L155.015 133.531C155.181 132.867 155.855 132.328 156.519 132.328H168.611C168.929 132.328 169.202 132.452 169.378 132.677C169.561 132.91 169.615 133.223 169.533 133.554L168.661 137.05C168.496 137.713 167.822 138.253 167.158 138.253Z" fill="#476BA7"/>
<path d="M145.092 82.9721C145.503 81.7202 146.784 80.6941 148.137 80.6941C148.968 80.6941 149.33 81.0087 149.607 81.412L148.809 82.0787C148.571 81.7705 148.341 81.5875 147.838 81.5875C147.095 81.5875 146.358 82.2049 146.105 82.9721C145.858 83.7275 146.174 84.3578 146.929 84.3578C147.432 84.3578 147.807 84.1555 148.256 83.8409L148.656 84.5022C148.044 84.9869 147.453 85.2512 146.604 85.2512C145.308 85.2512 144.673 84.2508 145.092 82.9721Z" fill="#476BA7"/>
<path d="M153.281 82.9721C153.529 82.2178 153.181 81.5875 152.401 81.5875C151.62 81.5875 150.876 82.2049 150.625 82.9721C150.377 83.7275 150.724 84.3578 151.506 84.3578C152.286 84.3578 153.029 83.7404 153.281 82.9721ZM149.612 82.9721C150.023 81.7202 151.347 80.6941 152.707 80.6941C154.066 80.6941 154.709 81.7074 154.294 82.9721C153.883 84.2251 152.558 85.2512 151.2 85.2512C149.84 85.2512 149.197 84.2379 149.612 82.9721Z" fill="#476BA7"/>
<path d="M155.88 80.77H156.773L157.948 83.4825L158.838 80.77H159.795L158.349 85.1752H157.524L156.31 82.375L155.391 85.1752H154.434L155.88 80.77Z" fill="#476BA7"/>
<path d="M161.585 81.6635H160.244L160.537 80.77H164.188L163.895 81.6635H162.554L161.402 85.1752H160.433L161.585 81.6635Z" fill="#476BA7"/>
<path d="M166.181 82.91C166.652 82.91 167.006 82.6575 167.132 82.2744C167.268 81.8582 167.048 81.6442 166.577 81.6442H165.614L165.198 82.91H166.181ZM164.931 80.77H166.946C167.505 80.77 167.888 80.9273 168.083 81.2162C168.248 81.4623 168.266 81.8079 168.126 82.2359C167.893 82.9475 167.362 83.3947 166.734 83.6023L167.293 85.1752H166.161L165.667 83.766H164.918L164.455 85.1752H163.486L164.931 80.77Z" fill="#476BA7"/>
<path d="M171.172 83.3316L171.055 81.9032L170.002 83.3316H171.172ZM171.003 80.7379H171.896L172.329 85.1752H171.315L171.237 84.1876H169.375L168.647 85.1752H167.659L171.003 80.7379Z" fill="#476BA7"/>
<path d="M173.254 82.9722C173.664 81.7202 174.946 80.6939 176.299 80.6939C177.129 80.6939 177.492 81.0091 177.769 81.4115L176.971 82.079C176.732 81.7703 176.503 81.5882 175.999 81.5882C175.256 81.5882 174.519 82.2044 174.267 82.9722C174.02 83.728 174.336 84.3572 175.091 84.3572C175.595 84.3572 175.97 84.1555 176.419 83.8414L176.818 84.5023C176.206 84.9865 175.616 85.2505 174.767 85.2505C173.47 85.2505 172.835 84.2504 173.254 82.9722Z" fill="#476BA7"/>
<path d="M179.548 81.6638H178.208L178.501 80.7698H182.152L181.859 81.6638H180.518L179.367 85.1761H178.397L179.548 81.6638Z" fill="#476BA7"/>
<path d="M160.83 135.096C160.809 135.197 160.786 135.298 160.823 135.371C160.765 135.415 160.705 135.455 160.642 135.491C160.631 135.383 160.637 135.268 160.663 135.153C160.746 135.054 160.825 134.952 160.898 134.848C160.868 134.933 160.845 135.018 160.83 135.096ZM161.361 134.642C161.345 134.694 161.325 134.744 161.301 134.793C161.285 134.828 161.267 134.862 161.248 134.895C161.276 134.809 161.313 134.725 161.361 134.642ZM169.777 131.864C167.94 132.622 166.115 133.453 164.307 134.351C164.379 134.149 164.444 133.946 164.501 133.744C164.546 133.58 164.326 133.472 164.19 133.65C164.129 133.731 164.066 133.806 163.999 133.878C164.044 133.733 163.872 133.652 163.724 133.759C163.714 133.765 163.706 133.772 163.696 133.78C163.768 133.584 163.463 133.554 163.349 133.745L163.179 134.028C163.036 134.199 162.837 134.33 162.631 134.394C162.59 134.301 162.561 134.199 162.551 134.089C162.544 134.006 162.484 133.961 162.41 133.96C162.407 133.86 162.317 133.801 162.184 133.86C162.023 133.932 161.881 134.041 161.768 134.167C161.677 133.998 161.386 134.119 161.231 134.282L161.244 134.254C161.317 134.098 161.18 133.918 160.996 134.076C160.669 134.359 160.431 134.713 160.32 135.067C160.212 135.187 160.098 135.303 159.975 135.409C159.915 135.46 159.634 135.72 159.569 135.697C159.508 135.676 159.54 135.514 159.568 135.401C159.579 135.387 159.588 135.373 159.598 135.359C159.831 135.035 160.955 133.508 160.163 133.522C160.079 133.523 159.994 133.578 159.944 133.656C159.654 134.101 159.43 134.571 159.294 135.038C159.268 135.128 159.232 135.244 159.203 135.365C159.18 135.396 159.157 135.427 159.134 135.458C158.819 135.87 158.385 136.465 157.875 136.668C157.828 136.022 158.153 135.258 158.4 134.58C158.506 134.288 158.617 133.997 158.731 133.705C158.766 133.699 158.803 133.68 158.841 133.648C159.391 133.185 159.616 132.498 159.367 132.036C159.295 131.903 159.076 132.024 159.013 132.165C158.634 133.015 158.289 133.87 157.982 134.726C157.71 135.484 157.401 136.286 157.515 136.987C157.526 137.061 157.613 137.088 157.693 137.07C158.274 136.944 158.78 136.427 159.188 135.911C159.217 135.978 159.267 136.028 159.347 136.052C159.617 136.132 159.986 135.831 160.253 135.58C160.258 135.667 160.273 135.753 160.3 135.834C160.329 135.923 160.421 135.944 160.528 135.901C160.779 135.8 161.015 135.639 161.213 135.443C161.475 135.363 161.705 135.146 161.896 134.894C162.018 134.788 162.13 134.676 162.234 134.558C162.257 134.623 162.287 134.682 162.328 134.729C162.427 134.842 162.676 134.74 162.836 134.667C162.989 134.597 163.129 134.503 163.253 134.393C163.35 134.386 163.448 134.358 163.541 134.315C163.558 134.343 163.58 134.366 163.609 134.386C163.709 134.452 163.826 134.426 163.941 134.355C163.915 134.428 163.889 134.502 163.86 134.576C163.597 134.709 163.333 134.842 163.071 134.978C162.897 135.068 162.856 135.334 163.051 135.319C163.293 135.3 163.534 135.282 163.775 135.264C163.885 135.256 163.971 135.186 164.018 135.081C164.061 134.985 164.102 134.887 164.141 134.791C166.029 133.844 167.936 132.973 169.857 132.179C170.103 132.078 170.021 131.763 169.777 131.864Z" fill="#365DA2"/>
<path d="M132.458 136.226C132.481 136.311 132.399 136.423 132.33 136.502C132.305 136.531 132.284 136.556 132.253 136.578C132.236 136.591 132.218 136.602 132.198 136.61L132.181 136.614C132.167 136.588 132.142 136.577 132.113 136.576C132.142 136.512 132.172 136.449 132.2 136.389C132.242 136.299 132.412 136.046 132.458 136.226ZM135.979 130.738C135.329 131.947 134.964 133.187 134.436 134.41C134.178 135.006 133.875 135.601 133.481 136.164C133.206 136.556 132.609 137.407 132.102 137.223C131.976 137.177 131.942 137.069 131.982 136.921C131.991 136.888 132.003 136.855 132.014 136.822C132.078 136.861 132.177 136.844 132.277 136.791C132.44 136.703 132.579 136.53 132.651 136.375C132.727 136.211 132.714 136.04 132.582 135.966C132.465 135.902 132.292 135.96 132.17 136.083C132.034 136.219 131.972 136.393 131.905 136.55C131.824 136.743 131.715 136.951 131.727 137.138C131.745 137.417 132.047 137.515 132.341 137.451C132.698 137.372 133.015 137.061 133.256 136.776C133.539 136.44 133.788 136.083 134.006 135.718C134.447 134.976 134.759 134.206 135.052 133.442C135.392 132.558 135.709 131.668 136.177 130.799C136.254 130.657 136.056 130.596 135.979 130.738Z" fill="#365DA2"/>
<path d="M139.698 134.488C139.712 134.465 139.776 134.393 139.767 134.442C139.76 134.468 139.712 134.518 139.675 134.556C139.677 134.533 139.685 134.51 139.698 134.488ZM139.156 134.495C139.072 134.597 138.974 134.688 138.868 134.765C138.927 134.635 139.064 134.487 139.156 134.495ZM137.179 134.942C137.154 135.059 137.013 135.215 136.936 135.29C136.921 135.305 136.906 135.32 136.89 135.334C136.975 135.201 137.079 135.07 137.179 134.942ZM135.909 135.538C136.022 135.321 136.183 135.122 136.38 134.954C136.463 135.047 136.539 135.173 136.426 135.322C136.362 135.404 136.262 135.472 136.182 135.537C136.089 135.611 135.995 135.685 135.901 135.758C135.877 135.778 135.851 135.796 135.827 135.815C135.795 135.751 135.874 135.608 135.909 135.538ZM140.334 134.514C140.201 134.584 140.059 134.663 139.921 134.685C139.887 134.691 139.85 134.693 139.815 134.688C139.913 134.591 140.004 134.477 140.019 134.368C140.044 134.193 139.85 134.152 139.686 134.242C139.541 134.324 139.447 134.486 139.437 134.62C139.433 134.667 139.441 134.709 139.456 134.745C139.316 134.847 139.073 134.986 138.923 134.959C139.114 134.829 139.284 134.663 139.415 134.474C139.439 134.438 139.44 134.39 139.421 134.364C139.339 134.256 139.172 134.249 139.008 134.332C138.832 134.423 138.722 134.597 138.654 134.759C138.631 134.814 138.615 134.866 138.609 134.915C138.435 134.994 138.254 135.037 138.084 135.034V135.031C138.139 134.979 138.194 134.928 138.246 134.875C138.325 134.795 138.278 134.715 138.204 134.704C138.038 134.683 137.915 134.824 137.867 134.969C137.61 135.197 137.331 135.401 137.037 135.57C136.963 135.612 136.864 135.698 136.814 135.644C136.935 135.554 137.049 135.455 137.151 135.345C137.352 135.136 137.549 134.759 137.313 134.628C137.271 134.606 137.19 134.609 137.145 134.669C137.041 134.807 136.937 134.945 136.834 135.083C136.743 135.203 136.649 135.323 136.594 135.455C136.577 135.497 136.565 135.541 136.56 135.585C136.454 135.651 136.343 135.708 136.231 135.755C136.222 135.758 136.212 135.763 136.202 135.767C136.263 135.718 136.324 135.669 136.385 135.619C136.557 135.479 136.713 135.315 136.722 135.121C136.731 134.939 136.614 134.811 136.505 134.703C136.475 134.674 136.406 134.688 136.363 134.722C136.03 134.974 135.759 135.313 135.623 135.67C135.581 135.783 135.565 135.901 135.613 135.98C135.317 136.206 135.018 136.426 134.715 136.641C134.684 136.664 134.606 136.735 134.574 136.725C134.545 136.714 134.557 136.645 134.557 136.614C134.557 136.531 134.561 136.446 134.572 136.361C134.593 136.175 134.64 135.983 134.71 135.793C134.77 135.627 134.847 135.462 134.94 135.302C134.975 135.318 135.022 135.314 135.067 135.279C135.294 135.093 135.407 134.85 135.385 134.623C135.377 134.543 135.25 134.555 135.19 134.623C134.626 135.263 134.29 136.056 134.321 136.746C134.328 136.898 134.396 137.025 134.601 136.941C134.693 136.902 134.78 136.831 134.865 136.772C134.975 136.693 135.085 136.613 135.194 136.533C135.401 136.382 135.606 136.229 135.81 136.073C135.924 136.076 136.056 136.034 136.173 135.992C136.317 135.939 136.458 135.872 136.594 135.791C136.633 135.862 136.705 135.906 136.813 135.895C136.925 135.885 137.078 135.772 137.181 135.709C137.304 135.635 137.425 135.557 137.543 135.473C137.658 135.391 137.768 135.305 137.876 135.215C137.9 135.249 137.943 135.259 138.017 135.261C138.117 135.264 138.223 135.251 138.328 135.228C138.441 135.202 138.553 135.161 138.663 135.11C138.678 135.124 138.695 135.137 138.718 135.147C138.842 135.207 139.013 135.18 139.172 135.12C139.319 135.063 139.466 134.981 139.597 134.88C139.636 134.897 139.678 134.908 139.723 134.913C139.935 134.937 140.168 134.823 140.384 134.709C140.532 134.631 140.482 134.435 140.334 134.514Z" fill="#365DA2"/>
<path d="M193.677 109.065H218.353L226.623 75.8948H201.948L193.677 109.065Z" fill="white"/>
<path d="M219.794 85.2821H203.449C203.246 85.2821 203.12 85.1165 203.172 84.9139L203.207 84.7756C203.257 84.5729 203.464 84.4072 203.666 84.4072H220.013C220.215 84.4072 220.339 84.5729 220.289 84.7756L220.254 84.9139C220.204 85.1165 219.997 85.2821 219.794 85.2821Z" fill="#B4CEF6"/>
<path d="M221.248 79.45H204.9C204.699 79.45 204.574 79.2843 204.626 79.0818L204.66 78.9437C204.71 78.7411 204.917 78.5752 205.119 78.5752H221.465C221.668 78.5752 221.792 78.7411 221.742 78.9437L221.708 79.0818C221.657 79.2843 221.449 79.45 221.248 79.45Z" fill="#B4CEF6"/>
<path d="M220.744 81.4756H204.397C204.194 81.4756 204.07 81.3098 204.12 81.1072L204.155 80.969C204.205 80.7665 204.412 80.6007 204.615 80.6007H220.962C221.164 80.6007 221.288 80.7665 221.238 80.969L221.204 81.1072C221.154 81.3098 220.946 81.4756 220.744 81.4756Z" fill="#B4CEF6"/>
<path d="M220.268 83.3792H203.922C203.719 83.3792 203.595 83.2134 203.646 83.0109L203.679 82.8727C203.73 82.67 203.937 82.5043 204.14 82.5043H220.486C220.689 82.5043 220.814 82.67 220.763 82.8727L220.728 83.0109C220.678 83.2134 220.471 83.3792 220.268 83.3792Z" fill="#B4CEF6"/>
<path d="M218.826 89.1615H202.48C202.278 89.1615 202.153 88.9957 202.204 88.7932L202.239 88.6551C202.288 88.4524 202.496 88.2866 202.699 88.2866H219.045C219.247 88.2866 219.371 88.4524 219.321 88.6551L219.286 88.7932C219.237 88.9957 219.029 89.1615 218.826 89.1615Z" fill="#B4CEF6"/>
<path d="M219.301 87.2576H202.957C202.753 87.2576 202.629 87.0917 202.679 86.8892L202.713 86.7512C202.764 86.5485 202.972 86.3826 203.174 86.3826H219.52C219.723 86.3826 219.847 86.5485 219.797 86.7512L219.762 86.8892C219.711 87.0917 219.505 87.2576 219.301 87.2576Z" fill="#B4CEF6"/>
<path d="M203.966 101.043H199.997C199.756 101.043 199.607 100.847 199.668 100.606C199.728 100.366 199.974 100.169 200.214 100.169H204.185C204.424 100.169 204.572 100.366 204.512 100.606C204.452 100.847 204.206 101.043 203.966 101.043Z" fill="#B4CEF6"/>
<path d="M216.128 101.044H212.156C211.917 101.044 211.769 100.847 211.829 100.607C211.889 100.366 212.135 100.169 212.375 100.169H216.346C216.587 100.169 216.734 100.366 216.674 100.607C216.614 100.847 216.368 101.044 216.128 101.044Z" fill="#B4CEF6"/>
<path d="M198.316 102.962C198.018 102.962 197.715 103.205 197.641 103.503L197.224 105.177C197.187 105.321 197.211 105.456 197.29 105.557C197.366 105.653 197.481 105.706 197.619 105.706H203.409C203.708 105.706 204.01 105.464 204.084 105.165L204.502 103.491C204.539 103.347 204.515 103.212 204.436 103.111C204.361 103.015 204.244 102.962 204.106 102.962H198.316ZM203.409 105.752H197.619C197.467 105.752 197.337 105.693 197.253 105.586C197.165 105.473 197.14 105.324 197.179 105.165L197.597 103.491C197.676 103.174 197.998 102.916 198.316 102.916H204.106C204.258 102.916 204.388 102.975 204.473 103.083C204.561 103.195 204.586 103.344 204.546 103.503L204.13 105.177C204.05 105.494 203.727 105.752 203.409 105.752Z" fill="#476BA7"/>
<path d="M210.499 102.962C210.201 102.962 209.899 103.205 209.825 103.502L209.407 105.177C209.371 105.321 209.394 105.456 209.474 105.557C209.548 105.653 209.667 105.706 209.803 105.706H215.594C215.892 105.706 216.194 105.463 216.268 105.165L216.686 103.491C216.721 103.347 216.698 103.212 216.62 103.111C216.543 103.015 216.428 102.962 216.289 102.962H210.499ZM215.594 105.752H209.803C209.651 105.752 209.52 105.693 209.436 105.585C209.349 105.473 209.322 105.324 209.362 105.165L209.78 103.491C209.858 103.174 210.181 102.916 210.499 102.916H216.289C216.441 102.916 216.571 102.975 216.656 103.082C216.744 103.195 216.771 103.344 216.731 103.502L216.313 105.177C216.233 105.494 215.912 105.752 215.594 105.752Z" fill="#476BA7"/>
<path d="M212.563 104.241C212.553 104.289 212.541 104.338 212.56 104.373C212.532 104.394 212.503 104.413 212.474 104.43C212.468 104.378 212.471 104.324 212.483 104.268C212.524 104.221 212.561 104.172 212.596 104.122C212.581 104.163 212.571 104.204 212.563 104.241ZM212.818 104.024C212.809 104.048 212.8 104.073 212.789 104.096C212.781 104.113 212.772 104.129 212.764 104.145C212.776 104.104 212.794 104.063 212.818 104.024ZM216.847 102.693C215.968 103.057 215.094 103.454 214.228 103.885C214.263 103.788 214.293 103.691 214.32 103.593C214.343 103.515 214.236 103.463 214.172 103.549C214.143 103.587 214.112 103.624 214.08 103.658C214.102 103.588 214.019 103.549 213.949 103.601L213.937 103.611C213.97 103.517 213.824 103.503 213.769 103.594L213.688 103.73C213.62 103.812 213.524 103.874 213.425 103.905C213.406 103.86 213.392 103.812 213.387 103.759C213.384 103.719 213.355 103.697 213.32 103.697C213.319 103.649 213.275 103.621 213.211 103.649C213.135 103.684 213.066 103.736 213.013 103.796C212.969 103.715 212.829 103.773 212.755 103.851L212.761 103.838C212.797 103.763 212.732 103.677 212.644 103.753C212.487 103.888 212.372 104.058 212.319 104.227C212.269 104.285 212.213 104.34 212.154 104.391C212.125 104.415 211.99 104.54 211.96 104.529C211.93 104.519 211.946 104.441 211.958 104.387L211.974 104.367C212.085 104.212 212.623 103.481 212.245 103.487C212.203 103.488 212.163 103.514 212.138 103.552C212.001 103.765 211.893 103.989 211.828 104.213C211.816 104.256 211.799 104.312 211.784 104.37C211.773 104.385 211.761 104.399 211.751 104.414C211.6 104.612 211.393 104.896 211.149 104.994C211.126 104.684 211.282 104.319 211.401 103.994C211.451 103.855 211.504 103.715 211.559 103.575C211.575 103.572 211.592 103.563 211.611 103.548C211.875 103.326 211.982 102.997 211.863 102.776C211.828 102.712 211.723 102.77 211.693 102.838C211.511 103.245 211.347 103.654 211.2 104.064C211.069 104.427 210.921 104.811 210.976 105.146C210.981 105.182 211.022 105.195 211.061 105.186C211.339 105.126 211.582 104.878 211.777 104.631C211.791 104.663 211.816 104.687 211.853 104.699C211.982 104.737 212.159 104.593 212.287 104.473C212.29 104.515 212.297 104.556 212.31 104.595C212.323 104.637 212.367 104.647 212.419 104.626C212.539 104.578 212.652 104.501 212.747 104.407C212.873 104.368 212.982 104.265 213.074 104.144C213.133 104.093 213.186 104.04 213.235 103.983C213.246 104.014 213.26 104.043 213.28 104.066C213.328 104.12 213.447 104.071 213.523 104.036C213.597 104.002 213.664 103.957 213.724 103.904C213.77 103.901 213.817 103.888 213.861 103.867C213.87 103.88 213.881 103.892 213.894 103.901C213.942 103.933 213.997 103.92 214.053 103.886C214.041 103.921 214.029 103.957 214.014 103.992C213.887 104.056 213.762 104.12 213.637 104.185C213.553 104.228 213.533 104.355 213.627 104.348C213.742 104.339 213.858 104.33 213.974 104.321C214.026 104.317 214.067 104.284 214.09 104.234C214.111 104.188 214.13 104.141 214.148 104.095C215.052 103.642 215.966 103.225 216.886 102.844C217.003 102.796 216.964 102.645 216.847 102.693Z" fill="#365DA2"/>
<path d="M198.98 104.782C198.989 104.823 198.95 104.876 198.918 104.914C198.906 104.928 198.896 104.94 198.881 104.951L198.855 104.966L198.846 104.968C198.839 104.955 198.828 104.95 198.813 104.95C198.828 104.919 198.842 104.889 198.855 104.86C198.876 104.817 198.957 104.696 198.98 104.782ZM200.665 102.155C200.353 102.733 200.178 103.327 199.926 103.913C199.802 104.198 199.657 104.483 199.469 104.752C199.337 104.94 199.051 105.348 198.808 105.26C198.749 105.238 198.732 105.186 198.75 105.115C198.755 105.099 198.76 105.083 198.765 105.067C198.797 105.086 198.845 105.078 198.892 105.053C198.97 105.011 199.036 104.928 199.071 104.853C199.106 104.775 199.101 104.693 199.039 104.658C198.982 104.627 198.899 104.654 198.84 104.713C198.775 104.779 198.747 104.862 198.715 104.937C198.675 105.029 198.622 105.13 198.628 105.219C198.637 105.352 198.781 105.4 198.923 105.369C199.094 105.331 199.246 105.182 199.36 105.046C199.497 104.885 199.616 104.714 199.72 104.539C199.93 104.184 200.081 103.815 200.221 103.449C200.384 103.026 200.535 102.6 200.76 102.183C200.796 102.115 200.702 102.087 200.665 102.155Z" fill="#365DA2"/>
<path d="M202.446 103.949C202.453 103.938 202.484 103.904 202.479 103.927C202.476 103.94 202.453 103.964 202.435 103.982C202.436 103.971 202.44 103.96 202.446 103.949ZM202.186 103.952C202.148 104.001 202.1 104.045 202.048 104.082C202.078 104.02 202.143 103.949 202.186 103.952ZM201.24 104.167C201.228 104.222 201.162 104.297 201.125 104.333L201.102 104.354C201.142 104.291 201.193 104.228 201.24 104.167ZM200.632 104.452C200.687 104.348 200.764 104.252 200.857 104.172C200.898 104.217 200.934 104.277 200.881 104.348C200.85 104.388 200.802 104.42 200.763 104.451C200.719 104.487 200.674 104.522 200.628 104.557C200.617 104.567 200.606 104.576 200.593 104.585C200.577 104.554 200.616 104.485 200.632 104.452ZM202.75 103.962C202.688 103.995 202.619 104.033 202.553 104.044C202.537 104.046 202.52 104.047 202.502 104.045C202.55 103.998 202.593 103.944 202.601 103.892C202.612 103.808 202.52 103.789 202.441 103.832C202.37 103.87 202.326 103.948 202.322 104.013C202.319 104.035 202.323 104.055 202.331 104.072C202.263 104.121 202.148 104.188 202.076 104.175C202.166 104.112 202.247 104.033 202.311 103.943C202.323 103.925 202.323 103.902 202.314 103.89C202.275 103.838 202.194 103.835 202.117 103.875C202.033 103.918 201.98 104.002 201.947 104.079C201.935 104.105 201.927 104.13 201.925 104.154C201.842 104.192 201.754 104.212 201.674 104.21V104.209C201.7 104.185 201.727 104.16 201.751 104.135C201.789 104.097 201.767 104.058 201.731 104.053C201.651 104.042 201.593 104.11 201.57 104.179C201.447 104.289 201.314 104.386 201.172 104.467C201.137 104.488 201.09 104.529 201.066 104.503C201.125 104.46 201.178 104.412 201.228 104.36C201.323 104.259 201.417 104.079 201.305 104.017C201.285 104.006 201.247 104.007 201.224 104.036C201.175 104.102 201.125 104.168 201.075 104.234C201.033 104.292 200.988 104.349 200.96 104.412C200.952 104.432 200.947 104.453 200.944 104.474C200.893 104.506 200.841 104.533 200.786 104.556L200.774 104.561C200.802 104.538 200.831 104.515 200.861 104.491C200.942 104.424 201.018 104.346 201.021 104.252C201.025 104.165 200.97 104.104 200.918 104.052C200.903 104.039 200.871 104.045 200.85 104.061C200.69 104.182 200.56 104.344 200.496 104.515C200.476 104.569 200.468 104.626 200.491 104.664C200.349 104.772 200.206 104.877 200.061 104.98C200.046 104.991 200.008 105.025 199.994 105.02C199.98 105.015 199.985 104.982 199.985 104.967C199.985 104.928 199.987 104.887 199.992 104.846C200.002 104.757 200.026 104.665 200.058 104.574C200.087 104.494 200.124 104.416 200.169 104.339C200.186 104.346 200.209 104.345 200.229 104.328C200.338 104.239 200.392 104.123 200.382 104.014C200.378 103.976 200.316 103.981 200.288 104.014C200.018 104.32 199.858 104.7 199.873 105.03C199.875 105.103 199.909 105.164 200.006 105.124C200.05 105.105 200.092 105.071 200.133 105.042C200.185 105.005 200.239 104.967 200.291 104.928C200.389 104.856 200.488 104.783 200.585 104.708C200.639 104.71 200.703 104.69 200.759 104.669C200.827 104.644 200.896 104.612 200.96 104.573C200.979 104.607 201.014 104.628 201.065 104.623C201.119 104.618 201.192 104.564 201.242 104.534C201.3 104.499 201.359 104.461 201.415 104.421C201.469 104.382 201.522 104.34 201.574 104.297C201.586 104.314 201.606 104.318 201.642 104.319C201.69 104.321 201.741 104.315 201.791 104.303C201.844 104.291 201.899 104.272 201.951 104.247C201.959 104.254 201.967 104.26 201.977 104.265C202.037 104.294 202.119 104.28 202.194 104.252C202.265 104.225 202.336 104.185 202.399 104.137C202.417 104.145 202.438 104.15 202.459 104.153C202.56 104.164 202.672 104.11 202.775 104.055C202.846 104.018 202.822 103.924 202.75 103.962Z" fill="#365DA2"/>
<path d="M184.386 145.584H209.062L217.332 112.413H192.656L184.386 145.584Z" fill="white"/>
<path d="M210.995 122.106H194.649C194.447 122.106 194.322 121.94 194.373 121.737L194.407 121.599C194.457 121.397 194.664 121.231 194.867 121.231H211.214C211.416 121.231 211.54 121.397 211.49 121.599L211.456 121.737C211.405 121.94 211.198 122.106 210.995 122.106Z" fill="#B4CEF6"/>
<path d="M212.449 116.273H196.103C195.9 116.273 195.776 116.107 195.827 115.905L195.861 115.767C195.911 115.565 196.119 115.399 196.321 115.399H212.667C212.869 115.399 212.995 115.565 212.944 115.767L212.909 115.905C212.859 116.107 212.651 116.273 212.449 116.273Z" fill="#B4CEF6"/>
<path d="M211.944 118.299H195.598C195.396 118.299 195.271 118.133 195.322 117.931L195.357 117.793C195.407 117.59 195.615 117.424 195.817 117.424H212.164C212.366 117.424 212.491 117.59 212.44 117.793L212.405 117.931C212.355 118.133 212.148 118.299 211.944 118.299Z" fill="#B4CEF6"/>
<path d="M211.468 120.203H195.124C194.921 120.203 194.796 120.037 194.847 119.834L194.88 119.696C194.931 119.494 195.138 119.328 195.341 119.328H211.687C211.891 119.328 212.015 119.494 211.964 119.696L211.93 119.834C211.879 120.037 211.672 120.203 211.468 120.203Z" fill="#B4CEF6"/>
<path d="M210.029 125.985H193.681C193.48 125.985 193.355 125.819 193.406 125.616L193.44 125.478C193.49 125.276 193.698 125.11 193.9 125.11H210.247C210.449 125.11 210.574 125.276 210.522 125.478L210.489 125.616C210.438 125.819 210.23 125.985 210.029 125.985Z" fill="#B4CEF6"/>
<path d="M210.503 124.081H194.157C193.953 124.081 193.83 123.915 193.88 123.713L193.915 123.575C193.966 123.372 194.172 123.206 194.374 123.206H210.721C210.924 123.206 211.048 123.372 210.998 123.575L210.964 123.713C210.912 123.915 210.706 124.081 210.503 124.081Z" fill="#B4CEF6"/>
<path d="M194.676 137.562H190.705C190.464 137.562 190.317 137.366 190.377 137.125C190.437 136.884 190.682 136.687 190.923 136.687H194.894C195.134 136.687 195.282 136.884 195.222 137.125C195.162 137.366 194.916 137.562 194.676 137.562Z" fill="#B4CEF6"/>
<path d="M206.837 137.563H202.867C202.626 137.563 202.479 137.366 202.538 137.125C202.598 136.884 202.844 136.687 203.086 136.687H207.055C207.296 136.687 207.443 136.884 207.383 137.125C207.324 137.366 207.077 137.563 206.837 137.563Z" fill="#B4CEF6"/>
<path d="M189.026 139.48C188.729 139.48 188.426 139.723 188.352 140.021L187.934 141.695C187.899 141.839 187.922 141.974 187.999 142.075C188.075 142.171 188.192 142.225 188.33 142.225H194.121C194.418 142.225 194.721 141.982 194.795 141.684L195.212 140.01C195.248 139.865 195.224 139.73 195.146 139.63C195.072 139.533 194.953 139.48 194.816 139.48H189.026ZM194.121 142.271H188.33C188.178 142.271 188.049 142.212 187.963 142.104C187.876 141.991 187.848 141.842 187.889 141.684L188.306 140.01C188.385 139.692 188.709 139.434 189.026 139.434H194.816C194.969 139.434 195.1 139.493 195.182 139.601C195.271 139.713 195.297 139.862 195.258 140.021L194.841 141.695C194.762 142.013 194.438 142.271 194.121 142.271Z" fill="#476BA7"/>
<path d="M201.208 139.48C200.912 139.48 200.609 139.723 200.535 140.021L200.117 141.695C200.081 141.839 200.105 141.974 200.182 142.075C200.259 142.171 200.375 142.225 200.513 142.225H206.302C206.6 142.225 206.903 141.982 206.978 141.684L207.396 140.01C207.431 139.865 207.408 139.73 207.328 139.63C207.254 139.534 207.136 139.48 206.999 139.48H201.208ZM206.302 142.271H200.513C200.361 142.271 200.231 142.212 200.145 142.104C200.059 141.991 200.032 141.843 200.072 141.684L200.489 140.01C200.569 139.692 200.891 139.434 201.208 139.434H206.999C207.151 139.434 207.281 139.493 207.365 139.601C207.453 139.713 207.48 139.862 207.44 140.021L207.023 141.695C206.944 142.013 206.621 142.271 206.302 142.271Z" fill="#476BA7"/>
<path d="M203.273 140.759C203.264 140.808 203.252 140.856 203.271 140.891C203.243 140.912 203.214 140.931 203.185 140.948C203.178 140.897 203.181 140.842 203.194 140.786C203.233 140.739 203.271 140.69 203.306 140.641C203.293 140.682 203.28 140.722 203.273 140.759ZM203.527 140.542C203.52 140.567 203.511 140.591 203.499 140.614C203.492 140.631 203.483 140.647 203.473 140.663C203.487 140.623 203.506 140.582 203.527 140.542ZM207.557 139.211C206.678 139.575 205.803 139.972 204.939 140.403C204.974 140.306 205.004 140.209 205.031 140.111C205.053 140.033 204.947 139.982 204.882 140.067C204.854 140.106 204.823 140.142 204.79 140.177C204.813 140.107 204.73 140.067 204.66 140.119L204.646 140.129C204.681 140.035 204.534 140.021 204.481 140.112L204.399 140.248C204.33 140.331 204.235 140.393 204.137 140.424C204.116 140.379 204.102 140.331 204.098 140.277C204.093 140.237 204.066 140.215 204.031 140.215C204.028 140.168 203.986 140.139 203.921 140.168C203.845 140.202 203.777 140.254 203.722 140.315C203.679 140.233 203.54 140.292 203.466 140.369L203.473 140.356C203.507 140.281 203.441 140.196 203.353 140.272C203.197 140.406 203.083 140.576 203.029 140.746C202.978 140.804 202.923 140.858 202.865 140.909C202.835 140.934 202.7 141.058 202.671 141.047C202.641 141.037 202.657 140.96 202.67 140.905L202.684 140.886C202.796 140.73 203.334 139.999 202.954 140.005C202.914 140.006 202.872 140.032 202.849 140.07C202.711 140.282 202.604 140.508 202.539 140.732C202.526 140.775 202.509 140.83 202.495 140.888C202.484 140.903 202.472 140.918 202.461 140.933C202.312 141.13 202.103 141.414 201.858 141.512C201.836 141.203 201.992 140.837 202.11 140.512C202.161 140.372 202.214 140.233 202.27 140.093C202.285 140.09 202.303 140.081 202.322 140.066C202.584 139.845 202.693 139.515 202.573 139.294C202.539 139.231 202.434 139.288 202.405 139.356C202.223 139.763 202.058 140.172 201.91 140.582C201.779 140.945 201.631 141.329 201.686 141.665C201.691 141.7 201.733 141.713 201.771 141.704C202.051 141.645 202.291 141.396 202.488 141.149C202.502 141.181 202.525 141.206 202.564 141.217C202.693 141.255 202.87 141.112 202.997 140.991C203 141.033 203.008 141.074 203.019 141.113C203.033 141.156 203.078 141.165 203.13 141.145C203.25 141.097 203.362 141.019 203.457 140.925C203.582 140.887 203.693 140.783 203.785 140.662C203.842 140.612 203.896 140.558 203.947 140.502C203.957 140.533 203.971 140.561 203.991 140.584C204.038 140.638 204.158 140.588 204.233 140.554C204.307 140.521 204.374 140.476 204.433 140.423C204.481 140.419 204.527 140.406 204.572 140.385C204.58 140.398 204.59 140.41 204.604 140.419C204.653 140.451 204.707 140.439 204.764 140.404C204.751 140.44 204.738 140.475 204.725 140.51C204.599 140.573 204.473 140.638 204.347 140.703C204.264 140.746 204.244 140.873 204.338 140.866C204.454 140.857 204.569 140.848 204.685 140.84C204.737 140.836 204.778 140.803 204.8 140.752C204.821 140.706 204.84 140.66 204.859 140.613C205.763 140.161 206.676 139.743 207.596 139.363C207.714 139.314 207.674 139.163 207.557 139.211Z" fill="#365DA2"/>
<path d="M189.689 141.3C189.7 141.341 189.66 141.396 189.628 141.433C189.616 141.447 189.606 141.459 189.591 141.469L189.565 141.484L189.557 141.486C189.549 141.474 189.537 141.468 189.522 141.468C189.537 141.437 189.551 141.407 189.565 141.378C189.585 141.336 189.666 141.215 189.689 141.3ZM191.374 138.673C191.063 139.252 190.889 139.846 190.636 140.431C190.512 140.716 190.367 141.002 190.179 141.271C190.048 141.459 189.761 141.866 189.519 141.779C189.458 141.756 189.44 141.704 189.461 141.634C189.465 141.618 189.471 141.602 189.475 141.586C189.507 141.604 189.554 141.597 189.602 141.571C189.68 141.529 189.747 141.446 189.781 141.372C189.817 141.293 189.81 141.211 189.748 141.176C189.692 141.145 189.608 141.173 189.551 141.232C189.486 141.297 189.455 141.381 189.424 141.455C189.385 141.549 189.332 141.648 189.338 141.737C189.347 141.871 189.491 141.918 189.632 141.887C189.803 141.849 189.955 141.7 190.071 141.563C190.206 141.403 190.325 141.232 190.429 141.057C190.641 140.702 190.79 140.333 190.931 139.968C191.093 139.544 191.246 139.119 191.469 138.702C191.506 138.634 191.412 138.605 191.374 138.673Z" fill="#365DA2"/>
<path d="M193.157 140.468C193.163 140.457 193.194 140.422 193.189 140.446C193.186 140.459 193.163 140.482 193.145 140.5C193.146 140.49 193.15 140.478 193.157 140.468ZM192.897 140.471C192.857 140.52 192.81 140.564 192.759 140.601C192.787 140.539 192.853 140.467 192.897 140.471ZM191.951 140.686C191.938 140.741 191.871 140.816 191.834 140.853L191.812 140.873C191.852 140.81 191.902 140.747 191.951 140.686ZM191.343 140.971C191.396 140.866 191.473 140.771 191.568 140.691C191.608 140.736 191.644 140.796 191.59 140.868C191.559 140.906 191.511 140.939 191.472 140.97C191.428 141.006 191.384 141.041 191.339 141.076C191.326 141.086 191.314 141.094 191.302 141.103C191.288 141.073 191.325 141.004 191.343 140.971ZM193.461 140.48C193.397 140.514 193.329 140.552 193.263 140.563C193.246 140.565 193.23 140.566 193.213 140.564C193.259 140.518 193.302 140.462 193.31 140.411C193.322 140.327 193.23 140.308 193.15 140.351C193.081 140.389 193.036 140.467 193.031 140.532C193.03 140.554 193.032 140.573 193.041 140.591C192.973 140.64 192.857 140.707 192.785 140.693C192.877 140.631 192.958 140.552 193.019 140.461C193.032 140.444 193.032 140.421 193.024 140.408C192.985 140.357 192.904 140.353 192.826 140.393C192.742 140.436 192.689 140.521 192.656 140.598C192.645 140.623 192.638 140.649 192.635 140.673C192.552 140.71 192.465 140.73 192.383 140.73V140.727C192.41 140.704 192.435 140.678 192.461 140.654C192.499 140.615 192.477 140.576 192.441 140.572C192.362 140.562 192.303 140.629 192.28 140.698C192.156 140.808 192.023 140.905 191.883 140.986C191.847 141.007 191.799 141.047 191.775 141.022C191.833 140.979 191.888 140.931 191.938 140.879C192.033 140.778 192.128 140.598 192.014 140.536C191.993 140.524 191.955 140.526 191.934 140.555C191.884 140.621 191.834 140.687 191.786 140.753C191.742 140.811 191.697 140.868 191.669 140.931C191.662 140.951 191.656 140.972 191.654 140.993C191.603 141.025 191.549 141.053 191.496 141.075L191.483 141.08C191.513 141.057 191.541 141.033 191.57 141.01C191.653 140.942 191.727 140.864 191.732 140.771C191.736 140.685 191.68 140.623 191.628 140.571C191.613 140.557 191.58 140.564 191.559 140.58C191.4 140.701 191.27 140.863 191.205 141.033C191.185 141.088 191.178 141.145 191.201 141.182C191.059 141.29 190.915 141.396 190.77 141.499C190.756 141.509 190.718 141.544 190.704 141.538C190.69 141.534 190.694 141.501 190.694 141.486C190.694 141.446 190.697 141.406 190.702 141.365C190.712 141.275 190.735 141.184 190.768 141.093C190.796 141.013 190.834 140.935 190.877 140.858C190.895 140.865 190.918 140.864 190.939 140.846C191.048 140.757 191.103 140.642 191.092 140.533C191.087 140.494 191.027 140.5 190.997 140.533C190.728 140.839 190.567 141.219 190.582 141.549C190.585 141.622 190.617 141.683 190.715 141.642C190.76 141.624 190.801 141.59 190.843 141.561C190.895 141.523 190.947 141.485 191 141.447C191.099 141.375 191.198 141.302 191.295 141.227C191.35 141.229 191.413 141.209 191.469 141.187C191.537 141.163 191.605 141.131 191.669 141.092C191.688 141.125 191.723 141.147 191.775 141.141C191.828 141.136 191.902 141.083 191.952 141.053C192.01 141.017 192.068 140.98 192.124 140.939C192.179 140.901 192.232 140.859 192.283 140.816C192.295 140.832 192.316 140.838 192.351 140.839C192.4 140.84 192.449 140.833 192.5 140.823C192.554 140.81 192.607 140.79 192.661 140.766C192.668 140.772 192.676 140.779 192.687 140.784C192.746 140.812 192.828 140.799 192.904 140.77C192.975 140.743 193.044 140.704 193.108 140.656C193.127 140.664 193.148 140.67 193.168 140.672C193.269 140.682 193.382 140.629 193.485 140.574C193.555 140.537 193.531 140.443 193.461 140.48Z" fill="#365DA2"/>
<path d="M71.5473 192.172L74.0727 192.138C74.0727 192.138 70.2754 187.923 69.1095 185.779L65.9032 179.857L61.7061 180.895L67.0332 188.444L71.5473 192.172Z" fill="#E49963"/>
<path d="M47.8564 76.9384C46.8882 76.3873 45.728 76.3274 44.9165 76.3755C45.1255 76.1605 45.5365 76.0813 45.5365 76.0813C45.0333 76.0064 43.9101 76.5061 43.9101 76.5061C36.9105 73.8086 35.8102 84.1148 35.9573 86.5095C36.1033 88.9042 33.6051 89.6863 29.9633 91.5727C23.0149 95.1722 22.4046 99.9926 22.4046 99.9926C22.4587 100.024 22.5152 100.06 22.5753 100.102C22.92 99.5175 23.6298 98.4207 24.2282 98.2549C24.2055 98.3084 23.521 99.7657 23.2656 100.6C25.3154 102.159 29.1502 105.615 31.8229 108.065C31.811 107.585 31.83 106.906 32.0049 106.547L32.3351 108.535C33.7652 109.85 34.7514 110.775 34.7514 110.775C34.5748 108.84 43.5026 98.6294 48.1607 95.5713C49.2946 93.9011 49.6975 90.9521 49.7277 90.72C49.532 93.059 49.132 94.3697 48.7744 95.1091C52.7187 91.4786 50.4224 78.3957 47.8564 76.9384Z" fill="#163560"/>
<path d="M47.8848 95.7233C47.9082 95.734 45.6359 96.9131 43.9267 96.4455C42.3189 96.0079 41.2685 93.9225 41.2906 93.9182C41.9715 93.7834 42.1678 92.8471 42.1535 88.8272L42.4612 88.8871L47.6366 89.9121C47.6366 89.9121 47.5188 91.5407 47.5153 93.075C47.5118 94.3633 47.5899 95.5853 47.8848 95.7233Z" fill="#E49963"/>
<path d="M42.0322 78.6258C42.0322 78.6258 44.5854 75.908 47.7906 78.4867C47.7906 78.4867 45.9252 78.1646 42.0322 78.6258Z" fill="#E37970"/>
<path d="M47.6366 89.9121C47.6366 89.9121 47.5187 91.5406 47.5153 93.075C44.6192 92.9937 43.0884 90.3519 42.4612 88.887L47.6366 89.9121Z" fill="#D68D5D"/>
<path d="M41.9267 88.3242C41.9267 88.3242 40.409 85.9264 40.0448 83.8752C39.7847 82.4114 40.5304 76.9854 45.9833 77.7665C45.9833 77.7665 47.5671 77.9228 49.0557 78.9286C50.2396 79.7278 51.9483 81.4538 50.0378 86.1896L49.5416 87.7892L41.9267 88.3242Z" fill="#163560"/>
<path d="M68.2643 183.708L65.5209 183.793L62.5515 183.884C62.5515 183.884 55.6925 176.247 51.8451 164.005C51.7554 163.721 51.6609 163.433 51.5606 163.142C49.455 157.002 45.0899 149.295 42.7896 142.32C42.4236 141.209 42.0948 140.163 41.7998 139.173C41.7054 138.856 41.6133 138.545 41.5259 138.238C39.8307 132.348 39.3398 128.48 38.8875 124.349L53.5759 124.467C53.5759 124.467 58.1793 152.697 68.2643 183.708Z" fill="#80BDCC"/>
<path d="M53.1723 114.937C53.3671 122.839 54.3319 126.232 54.3319 126.232C54.3319 126.232 47.22 129.846 38.7674 127.187C38.6678 127.155 39.3153 94.5334 41.7124 93.6346C42.2638 94.3205 43.907 94.9882 45.3692 94.9561C47.0529 94.9186 47.5989 94.1975 47.5115 93.411C49.3058 94.4093 52.8936 103.623 53.1723 114.937Z" fill="#E7F1FD"/>
<path d="M48.6038 91.3652C48.6038 91.3652 41.7517 91.4786 41.747 87.2104C41.7423 82.9422 40.8547 80.082 45.2294 79.8295C49.604 79.577 50.4559 81.2045 50.8039 82.6286C51.152 84.0528 50.386 91.2261 48.6038 91.3652Z" fill="#E49963"/>
<path d="M50.6003 80.2554C49.5429 78.9735 48.7433 79.2528 48.2944 79.6369C46.8138 77.4242 42.1337 80.6245 42.1337 80.6245C39.8308 82.818 39.4669 85.4417 39.4669 85.4417C39.4669 85.4417 40.7158 86.2131 43.595 85.4727C45.8608 84.8895 47.5052 81.6646 48.103 80.3174C48.5105 80.6791 49.3703 81.5158 49.628 82.3355C49.9695 83.4226 50.1232 85.6599 50.7753 85.584C50.7753 85.584 52.1887 82.1803 50.6003 80.2554Z" fill="#163560"/>
<path d="M76.176 98.4486C76.176 98.4486 77.1419 94.9679 80.9692 95.459C81.4084 95.5971 82.6919 96.1085 81.8715 97.4835C81.2668 98.4957 81.0049 97.9735 80.0538 99.3345C79.1026 100.696 78.0702 101.003 76.8906 100.84L76.176 98.4486Z" fill="#E49963"/>
<path d="M43.4701 191.928C43.2368 190.646 42.7933 188.428 42.7933 188.428L42.8962 180.558H38.1167L39.9051 188.091C39.9419 188.441 40.0396 189.798 39.5377 191.236C39.5377 191.236 39.0786 193.328 41.1383 193.366C43.198 193.406 43.7033 193.211 43.4701 191.928Z" fill="#E49963"/>
<path d="M39.5376 191.236C39.5376 191.236 39.1294 193.443 39.3626 194.493C39.3626 194.493 39.9662 194.493 41.4625 194.493C42.8809 194.493 43.6897 194.493 43.6897 194.493C43.6897 194.493 43.7081 192.096 43.3292 191.182C43.3292 191.182 41.8694 193.374 39.5376 191.236Z" fill="#C45446"/>
<path d="M74.1149 192.16C74.1008 192.154 74.0868 192.147 74.0728 192.138C73.062 192.17 72.0442 191.799 71.122 190.761C68.3169 187.6 66.74 187.247 66.1897 187.249C65.7163 188.225 65.1934 189.322 65.8661 190.557L66.8705 194.493H67.9539L67.9647 190.777C68.6783 190.965 69.3743 191.306 69.6844 191.927C70.4422 193.442 70.9684 194.493 71.6722 194.493C72.069 194.493 76.5407 194.493 76.5407 194.493C76.5407 194.493 76.4466 193.21 74.1149 192.16Z" fill="#C45446"/>
<path d="M76.176 98.4486C76.176 98.4486 71.6784 100.964 70.0717 101.689C69.156 102.103 67.0482 103.089 65.5629 103.787C64.6182 104.231 63.4948 103.988 62.816 103.195C60.3777 100.346 54.0598 94.1686 47.5406 93.411L47.5489 93.427L47.5115 93.411C47.5115 93.411 51.4758 103.205 51.5923 105.186C51.709 107.168 52.0588 137.598 52.0588 137.598C52.0588 137.598 51.8256 138.997 54.5071 138.414C57.1887 137.831 57.8882 137.249 57.8882 137.249C57.8882 137.249 55.3232 118.478 56.0228 111.949C56.1606 110.662 56.0351 109.215 55.7458 107.721C59.7173 110.136 64.4171 111.21 64.4171 111.21C64.4171 111.21 67.9308 109.677 72.7338 106.158C74.2413 105.054 76.8906 100.84 76.8906 100.84L76.176 98.4486Z" fill="#E37970"/>
<path d="M65.5209 183.793L62.5515 183.884C62.5515 183.884 55.6926 176.247 51.8452 164.005C51.7554 163.721 51.6609 163.433 51.5607 163.142C49.455 157.002 45.0899 149.295 42.7897 142.32C42.4236 141.209 42.0948 140.162 41.7998 139.173C41.7054 138.856 41.6133 138.545 41.5259 138.238L43.9719 136.382C43.9719 136.382 51.3158 148.274 53.5893 159.465C55.5643 169.186 63.4736 180.884 65.5209 183.793Z" fill="#5F9AA8"/>
<path d="M57.7236 110.131L57.5794 110.575L49.8919 108.075C49.8919 108.075 49.7905 107.958 49.8432 107.803C49.9015 107.631 50.036 107.632 50.036 107.632L57.7236 110.131Z" fill="#163560"/>
<path d="M44.2272 160.508C44.2692 165.95 43.9941 178.462 43.2852 183.642H40.655C39.2011 183.642 38.4759 183.622 38.4759 183.622C36.698 174.615 35.4329 167.163 34.512 160.741C33.7564 155.471 33.0849 150.953 32.5684 147.064C32.0484 143.15 31.6869 139.873 31.5576 137.103C31.5378 136.668 31.5226 136.243 31.5145 135.832C31.5062 135.418 31.504 135.016 31.5074 134.625L45.8595 133.226C45.6788 142.762 44.2039 157.345 44.2272 160.508Z" fill="#80BDCC"/>
<path d="M40.655 183.642C39.2011 183.642 38.4758 183.622 38.4758 183.622C36.6979 174.615 35.4328 167.163 34.5119 160.741C33.7563 155.471 33.0848 150.953 32.5683 147.064C32.0483 143.15 31.6869 139.873 31.5575 137.103L36.8237 140.201C36.8237 140.201 33.4625 141.388 34.745 150.365C36.0275 159.342 38.87 182.372 40.655 183.642Z" fill="#5F9AA8"/>
<path d="M41.3327 137.016C41.3327 137.016 40.3218 140.668 36.8242 140.201C33.3266 139.736 28.3528 137.636 28.3528 137.636C28.3528 137.636 29.8476 132.913 31.7059 126.708C33.9562 119.197 36.7414 109.513 38.0542 103.405C38.4227 101.694 38.6744 100.264 38.7677 99.2404L41.7125 93.6347C41.7125 93.6347 45.9962 103.321 46.2294 105.77C46.4625 108.218 41.3327 137.016 41.3327 137.016Z" fill="#E37970"/>
<path d="M41.1776 110.899C41.0214 114.863 40.0886 122.558 31.7724 126.677C31.7502 126.688 31.7281 126.7 31.7059 126.708C33.9561 119.197 36.7414 109.513 38.0541 103.405C39.5815 105.688 41.2628 108.716 41.1776 110.899Z" fill="#C45446"/>
<path d="M56.2264 108.731C56.2222 109.206 54.8515 112.519 52.4365 114.497C51.9689 114.881 51.5944 115.067 51.2959 115.118C47.3636 116.464 43.9514 117.163 41.1812 117.503V113.116C44.603 112.897 48.8188 112.668 50.5544 112.575C50.8401 112.12 51.175 111.476 51.2873 110.825C51.4949 109.618 52.1412 108.724 53.8243 108.502C55.5074 108.281 56.2307 108.257 56.2264 108.731Z" fill="#E49963"/>
<path d="M79.4717 94.3344L87.2467 99.3901C87.345 99.4533 87.4157 99.6758 87.3825 99.7882L83.6414 112.447C83.589 112.625 83.4087 112.655 83.2608 112.544L75.719 106.896C75.6312 106.831 75.5664 106.758 75.5962 106.653L79.0315 94.5345C79.0802 94.3633 79.322 94.237 79.4717 94.3344Z" fill="#163560"/>
<path d="M79.1978 94.1515L87.0398 99.2575C87.138 99.3217 87.1826 99.4426 87.1493 99.555L83.4082 112.214C83.3559 112.392 83.1429 112.462 82.9949 112.351L75.4591 106.704C75.3714 106.638 75.3332 106.525 75.3631 106.42L78.7982 94.3013C78.8469 94.1301 79.0482 94.0541 79.1978 94.1515Z" fill="#1C468A"/>
<path d="M79.151 94.7079L86.7584 99.5614L83.3044 110.705L76.1343 105.517L79.151 94.7079Z" fill="white"/>
<path d="M78.5632 108.315C78.5632 108.143 78.7025 108.004 78.8742 108.004C79.0459 108.004 79.1851 108.143 79.1851 108.315C79.1851 108.486 79.0459 108.626 78.8742 108.626C78.7025 108.626 78.5632 108.486 78.5632 108.315Z" fill="#163560"/>
<path d="M81.7277 108.971L78.0585 106.406L80.5883 96.163L84.2576 98.7267L81.7277 108.971Z" fill="white"/>
<path d="M82.4785 103.013C82.4721 103.013 82.4657 103.011 82.4596 103.007L80.0289 101.308C79.9987 101.287 79.9868 101.219 80.0023 101.156L80.0128 101.113C80.0252 101.064 80.0514 101.032 80.0769 101.032C80.0832 101.032 80.0896 101.034 80.0956 101.038L82.5263 102.737C82.5564 102.757 82.5685 102.826 82.5531 102.889L82.5425 102.931C82.5302 102.981 82.5039 103.013 82.4785 103.013Z" fill="#B4CEF6"/>
<path d="M82.9234 101.211C82.9169 101.211 82.9106 101.209 82.9045 101.206L80.4739 99.5068C80.4437 99.4854 80.4317 99.4169 80.4472 99.3549L80.4577 99.3121C80.4701 99.2618 80.4964 99.2308 80.5217 99.2308C80.5282 99.2308 80.5346 99.2329 80.5406 99.2361L82.9712 100.935C83.0014 100.957 83.0135 101.025 82.9979 101.087L82.9873 101.13C82.975 101.18 82.9488 101.211 82.9234 101.211Z" fill="#B4CEF6"/>
<path d="M82.7687 101.837C82.7623 101.837 82.756 101.835 82.75 101.831L80.3193 100.133C80.2891 100.111 80.2772 100.043 80.2926 99.9808L80.3032 99.938C80.3155 99.8877 80.3419 99.8556 80.3672 99.8556C80.3736 99.8556 80.3799 99.8578 80.386 99.8621L82.8166 101.561C82.8468 101.583 82.8589 101.651 82.8434 101.713L82.8329 101.756C82.8205 101.806 82.7942 101.837 82.7687 101.837Z" fill="#B4CEF6"/>
<path d="M82.6235 102.425C82.6171 102.425 82.6107 102.424 82.6046 102.419L80.1741 100.72C80.1439 100.699 80.1319 100.63 80.1474 100.568L80.1578 100.525C80.1702 100.475 80.1965 100.444 80.2219 100.444C80.2283 100.444 80.2347 100.446 80.2407 100.451L82.6714 102.149C82.7015 102.17 82.7136 102.239 82.698 102.301L82.6875 102.343C82.6752 102.394 82.6488 102.425 82.6235 102.425Z" fill="#B4CEF6"/>
<path d="M82.1827 104.211C82.1763 104.211 82.17 104.208 82.1639 104.204L79.7331 102.506C79.7031 102.485 79.691 102.416 79.7065 102.354L79.717 102.311C79.7294 102.261 79.7556 102.23 79.7811 102.23C79.7875 102.23 79.7939 102.231 79.7999 102.235L82.2305 103.934C82.2607 103.956 82.2727 104.024 82.2573 104.086L82.2467 104.129C82.2344 104.179 82.2081 104.211 82.1827 104.211Z" fill="#B4CEF6"/>
<path d="M82.3278 103.623C82.3215 103.623 82.315 103.621 82.3089 103.617L79.8783 101.919C79.8481 101.897 79.8362 101.829 79.8516 101.767L79.8622 101.724C79.8746 101.674 79.9008 101.641 79.9263 101.641C79.9326 101.641 79.939 101.644 79.945 101.648L82.3757 103.347C82.4059 103.367 82.4179 103.436 82.4023 103.499L82.3919 103.542C82.3796 103.591 82.3532 103.623 82.3278 103.623Z" fill="#B4CEF6"/>
<path d="M81.7196 106.052C81.712 106.052 81.7045 106.05 81.6973 106.045L81.1068 105.631C81.0712 105.607 81.0569 105.526 81.0752 105.452C81.0899 105.392 81.1212 105.354 81.1513 105.354C81.1589 105.354 81.1664 105.357 81.1737 105.362L81.764 105.775C81.7998 105.799 81.8141 105.881 81.7957 105.955C81.781 106.015 81.7498 106.052 81.7196 106.052Z" fill="#B4CEF6"/>
<path d="M79.911 104.788C79.9034 104.788 79.8959 104.785 79.8888 104.781L79.2984 104.368C79.2626 104.343 79.2484 104.262 79.2666 104.187C79.2813 104.128 79.3126 104.091 79.3427 104.091C79.3503 104.091 79.3579 104.093 79.3651 104.098L79.9554 104.51C79.9913 104.536 80.0056 104.617 79.9872 104.691C79.9724 104.75 79.9413 104.788 79.911 104.788Z" fill="#B4CEF6"/>
<path d="M80.8427 106.149C80.806 106.149 80.7682 106.199 80.7509 106.269L80.6231 106.786C80.6006 106.877 80.6181 106.98 80.6615 107.011L81.5225 107.612L81.5477 107.621C81.5844 107.621 81.6222 107.571 81.6397 107.501L81.7673 106.984C81.79 106.893 81.7724 106.789 81.7291 106.759L80.8681 106.158L80.8427 106.149ZM81.5477 107.631C81.5367 107.631 81.5261 107.628 81.5163 107.621L80.6554 107.019C80.6079 106.986 80.5888 106.88 80.6128 106.783L80.7404 106.266C80.7593 106.19 80.8004 106.139 80.8427 106.139C80.8538 106.139 80.8644 106.142 80.8743 106.148L81.7352 106.751C81.7827 106.784 81.8018 106.89 81.7778 106.986L81.6501 107.504C81.6312 107.58 81.5901 107.631 81.5477 107.631Z" fill="#476BA7"/>
<path d="M79.0312 104.884C78.9945 104.884 78.9567 104.933 78.9392 105.003L78.8116 105.52C78.789 105.611 78.8066 105.714 78.8499 105.745L79.7108 106.346L79.7363 106.355C79.773 106.355 79.8108 106.306 79.8281 106.235L79.9558 105.718C79.9783 105.626 79.9608 105.523 79.9176 105.493L79.0565 104.892L79.0312 104.884ZM79.7363 106.366C79.7253 106.366 79.7146 106.362 79.7047 106.355L78.8437 105.753C78.7963 105.72 78.7771 105.614 78.8011 105.517L78.9289 105C78.9477 104.924 78.9888 104.873 79.0312 104.873C79.0422 104.873 79.0529 104.876 79.0627 104.883L79.9237 105.485C79.9712 105.518 79.9902 105.624 79.9662 105.72L79.8386 106.237C79.8198 106.314 79.7786 106.366 79.7363 106.366Z" fill="#476BA7"/>
<path d="M80.8566 97.5776C80.9023 97.3925 81.007 97.2876 81.1033 97.355C81.1625 97.3968 81.1841 97.4663 81.1986 97.5455L81.133 97.6161C81.12 97.553 81.1061 97.5123 81.0703 97.4866C81.0174 97.4503 80.9567 97.5145 80.9287 97.6279C80.9011 97.7402 80.9153 97.859 80.9692 97.8965C81.005 97.9211 81.0343 97.9072 81.0704 97.8772L81.0903 98.0056C81.0403 98.0548 80.9947 98.0687 80.9343 98.027C80.8419 97.9628 80.8099 97.767 80.8566 97.5776Z" fill="#476BA7"/>
<path d="M81.4396 97.9852C81.4671 97.8729 81.4508 97.753 81.3952 97.7135C81.3396 97.6749 81.2785 97.7391 81.2506 97.8526C81.2229 97.9649 81.2394 98.0848 81.295 98.1244C81.3505 98.1629 81.4115 98.0987 81.4396 97.9852ZM81.1783 97.8023C81.2241 97.6172 81.3319 97.5144 81.4287 97.5818C81.5255 97.6503 81.558 97.8483 81.5118 98.0355C81.4661 98.2207 81.3582 98.3234 81.2614 98.2549C81.1646 98.1875 81.1321 97.9895 81.1783 97.8023Z" fill="#476BA7"/>
<path d="M81.6536 97.7531L81.7172 97.797L81.7651 98.3009L81.8642 97.8997L81.9323 97.9478L81.7714 98.5984L81.7127 98.5577L81.6631 98.0377L81.5608 98.4518L81.4927 98.4036L81.6536 97.7531Z" fill="#476BA7"/>
<path d="M82.0481 98.1832L81.9527 98.1169L81.9853 97.9842L82.2452 98.1661L82.2125 98.2977L82.1171 98.2314L81.9888 98.7503L81.9198 98.7022L82.0481 98.1832Z" fill="#476BA7"/>
<path d="M82.3588 98.6166C82.3924 98.6401 82.421 98.6166 82.435 98.5599C82.4502 98.4978 82.4373 98.4518 82.4037 98.4283L82.3351 98.3801L82.2889 98.5674L82.3588 98.6166ZM82.2981 98.2025L82.4415 98.3031C82.4814 98.3309 82.5065 98.3759 82.5166 98.4336C82.5251 98.4818 82.5218 98.5396 82.5062 98.6027C82.4802 98.7075 82.4367 98.7546 82.3892 98.7578L82.4083 99.0435L82.3277 98.9879L82.3111 98.7311L82.2577 98.6936L82.2062 98.9023L82.1372 98.8541L82.2981 98.2025Z" fill="#476BA7"/>
<path d="M82.7087 98.9344L82.7192 98.6936L82.6253 98.8755L82.7087 98.9344ZM82.7308 98.5L82.7944 98.5449L82.7668 99.2939L82.6947 99.2436L82.7022 99.0777L82.5695 98.9847L82.5046 99.1109L82.4343 99.0617L82.7308 98.5Z" fill="#476BA7"/>
<path d="M82.8616 98.9782C82.9074 98.7941 83.012 98.6893 83.1084 98.7567C83.1676 98.7973 83.1892 98.8669 83.2037 98.9472L83.1381 99.0167C83.1251 98.9546 83.1111 98.9129 83.0753 98.8883C83.0224 98.8509 82.9618 98.915 82.9338 99.0295C82.9062 99.1408 82.9204 99.2596 82.9741 99.2971C83.01 99.3227 83.0393 99.3078 83.0755 99.2789L83.0953 99.4073C83.0453 99.4565 82.9998 99.4704 82.9393 99.4276C82.847 99.3634 82.8149 99.1676 82.8616 98.9782Z" fill="#476BA7"/>
<path d="M83.327 99.0767L83.2316 99.0103L83.2642 98.8787L83.5241 99.0596L83.4915 99.1922L83.396 99.1259L83.2677 99.6448L83.1987 99.5967L83.327 99.0767Z" fill="#476BA7"/>
<path d="M81.1497 106.819C81.1469 106.835 81.1439 106.85 81.1456 106.864L81.1312 106.875C81.1317 106.857 81.1337 106.838 81.137 106.82C81.1443 106.808 81.1513 106.796 81.1578 106.782C81.1546 106.795 81.1518 106.807 81.1497 106.819ZM81.1934 106.771L81.1872 106.794L81.1821 106.807C81.1852 106.795 81.1889 106.783 81.1934 106.771ZM81.8292 106.734C81.6885 106.767 81.5476 106.813 81.4071 106.871C81.4149 106.841 81.4222 106.811 81.4288 106.78C81.4342 106.755 81.4201 106.727 81.408 106.75C81.4026 106.759 81.3972 106.769 81.3914 106.777C81.3965 106.755 81.3853 106.734 81.3734 106.744L81.3712 106.746C81.3787 106.718 81.3575 106.697 81.3469 106.723L81.331 106.761C81.3186 106.782 81.3027 106.794 81.2873 106.794C81.2854 106.776 81.2848 106.758 81.2856 106.74C81.2861 106.726 81.2823 106.715 81.2772 106.711C81.2783 106.695 81.2726 106.681 81.2623 106.684C81.2499 106.688 81.2385 106.698 81.2286 106.713C81.2245 106.681 81.2022 106.687 81.1889 106.706L81.1902 106.701C81.1975 106.68 81.1902 106.644 81.175 106.661C81.148 106.691 81.1263 106.737 81.1138 106.789C81.1045 106.804 81.0949 106.817 81.0847 106.828L81.0521 106.856C81.048 106.849 81.0524 106.825 81.0558 106.806L81.0586 106.801C81.0794 106.76 81.1795 106.565 81.123 106.528C81.117 106.524 81.1102 106.528 81.1056 106.539C81.0791 106.598 81.057 106.664 81.0412 106.734C81.0382 106.747 81.034 106.765 81.0304 106.783L81.0242 106.795C80.9964 106.846 80.9576 106.922 80.9186 106.93C80.9238 106.822 80.9571 106.713 80.9835 106.614C80.9948 106.571 81.0066 106.529 81.0187 106.486L81.0271 106.483C81.0725 106.434 81.0974 106.332 81.0859 106.245C81.0825 106.219 81.0652 106.227 81.0589 106.248C81.0207 106.369 80.985 106.492 80.9518 106.617C80.9225 106.728 80.8899 106.844 80.8888 106.965C80.8887 106.978 80.8944 106.986 80.9005 106.987C80.9434 106.996 80.9863 106.936 81.0221 106.872C81.0233 106.884 81.0262 106.895 81.0315 106.903C81.0497 106.929 81.08 106.898 81.1023 106.871C81.1015 106.884 81.1015 106.899 81.1023 106.914C81.1031 106.93 81.1094 106.938 81.1177 106.937C81.1368 106.933 81.1557 106.918 81.1723 106.895C81.1921 106.895 81.2113 106.872 81.2283 106.84C81.2384 106.828 81.2478 106.815 81.2568 106.801C81.2575 106.813 81.2589 106.823 81.2612 106.834C81.2667 106.858 81.2859 106.852 81.2981 106.849C81.31 106.845 81.3212 106.836 81.3315 106.825L81.3531 106.826L81.3569 106.841C81.3631 106.857 81.3718 106.859 81.381 106.852C81.3781 106.863 81.3753 106.874 81.3723 106.884C81.3518 106.894 81.3312 106.903 81.3108 106.911C81.2973 106.918 81.2909 106.959 81.3049 106.967C81.3224 106.975 81.3398 106.985 81.3572 106.994C81.3652 106.998 81.3722 106.99 81.3769 106.975C81.3812 106.961 81.3854 106.948 81.3895 106.934C81.5364 106.873 81.6836 106.825 81.8308 106.789C81.8497 106.785 81.8479 106.729 81.8292 106.734Z" fill="#365DA2"/>
<path d="M79.1296 105.604C79.13 105.619 79.1227 105.633 79.1169 105.642L79.1103 105.651L79.1061 105.654H79.1047L79.1004 105.644L79.109 105.618C79.1132 105.605 79.1286 105.572 79.1296 105.604ZM79.4524 104.878C79.3903 105.044 79.348 105.229 79.2942 105.404C79.2681 105.489 79.2386 105.572 79.2032 105.644C79.1785 105.695 79.1247 105.805 79.0911 105.749C79.0827 105.735 79.0817 105.716 79.0865 105.694L79.0901 105.68L79.1092 105.687C79.122 105.681 79.1341 105.659 79.1413 105.638C79.1489 105.614 79.1503 105.585 79.1418 105.567C79.1343 105.551 79.1213 105.551 79.1109 105.565C79.0994 105.581 79.0928 105.607 79.086 105.629C79.0775 105.657 79.067 105.686 79.0655 105.717C79.0631 105.763 79.0833 105.795 79.105 105.798C79.1315 105.804 79.1582 105.768 79.1791 105.733C79.2038 105.692 79.2262 105.646 79.2465 105.597C79.2875 105.498 79.32 105.386 79.3509 105.275C79.3867 105.147 79.421 105.017 79.4658 104.897C79.4731 104.878 79.4598 104.858 79.4524 104.878Z" fill="#365DA2"/>
<path d="M79.6678 105.679L79.6732 105.674L79.6652 105.688L79.6678 105.679ZM79.6291 105.653C79.6218 105.665 79.6136 105.675 79.605 105.683C79.6109 105.665 79.6227 105.646 79.6291 105.653ZM79.4825 105.627C79.4791 105.645 79.4671 105.665 79.4606 105.673L79.4567 105.678C79.4645 105.66 79.4736 105.643 79.4825 105.627ZM79.3842 105.663C79.3951 105.633 79.4092 105.608 79.4254 105.59C79.4302 105.609 79.4339 105.634 79.4238 105.653C79.4182 105.663 79.4103 105.669 79.4037 105.675L79.3808 105.698L79.3748 105.703C79.3733 105.691 79.3808 105.672 79.3842 105.663ZM79.7127 105.714C79.7023 105.719 79.6912 105.726 79.6811 105.722L79.6735 105.717C79.6818 105.706 79.6898 105.691 79.6922 105.674C79.6963 105.648 79.683 105.631 79.6703 105.638C79.6588 105.643 79.65 105.666 79.6475 105.687L79.6473 105.709C79.6359 105.718 79.6168 105.729 79.6064 105.717C79.6217 105.705 79.636 105.686 79.6478 105.663L79.6498 105.644C79.6453 105.622 79.6335 105.613 79.6208 105.619C79.6071 105.625 79.5969 105.648 79.5899 105.671L79.5846 105.695C79.5712 105.699 79.5577 105.697 79.5458 105.688V105.687L79.5593 105.67L79.5586 105.64C79.5472 105.628 79.5364 105.645 79.5312 105.666C79.5098 105.691 79.4872 105.711 79.4641 105.724C79.4583 105.727 79.4501 105.736 79.4473 105.725C79.4571 105.716 79.4665 105.705 79.4752 105.692C79.4922 105.668 79.5113 105.617 79.4961 105.583L79.4836 105.581C79.4744 105.598 79.4653 105.617 79.4561 105.634C79.448 105.649 79.4397 105.664 79.434 105.683L79.43 105.702L79.4043 105.714H79.4021L79.417 105.699C79.4312 105.685 79.4444 105.666 79.4475 105.635C79.4506 105.605 79.444 105.578 79.4377 105.554L79.4273 105.551C79.4003 105.576 79.3765 105.618 79.3622 105.67C79.3576 105.686 79.355 105.704 79.3573 105.72C79.3334 105.743 79.3092 105.764 79.2847 105.785L79.2735 105.791L79.2738 105.772C79.2748 105.758 79.2763 105.744 79.2781 105.731C79.2821 105.701 79.288 105.672 79.2955 105.644C79.3019 105.62 79.3096 105.597 79.3183 105.576L79.3276 105.578C79.3463 105.559 79.3575 105.524 79.3589 105.486C79.3595 105.472 79.3503 105.468 79.345 105.476C79.2966 105.553 79.2622 105.667 79.2552 105.781C79.2536 105.807 79.257 105.832 79.2726 105.827L79.2937 105.813L79.3203 105.79C79.3369 105.776 79.3536 105.761 79.3701 105.745L79.3971 105.75C79.4079 105.748 79.4189 105.744 79.4296 105.737C79.4315 105.751 79.4361 105.762 79.4439 105.766L79.4726 105.753C79.4823 105.748 79.4919 105.741 79.5014 105.733L79.5285 105.707L79.5379 105.721L79.5605 105.732L79.5859 105.729L79.5893 105.738C79.5973 105.753 79.61 105.758 79.6219 105.756C79.6333 105.755 79.6447 105.748 79.6555 105.737L79.6639 105.749C79.6788 105.764 79.6968 105.757 79.7136 105.749C79.7253 105.744 79.7243 105.709 79.7127 105.714Z" fill="#365DA2"/>
<path d="M58.2765 110.559L57.7237 110.131L57.5795 110.575L58.2765 110.559Z" fill="#163560"/>
<path d="M41.7125 93.6347C41.7125 93.6347 34.5705 94.1108 32.8606 97.919C31.1506 101.728 30.6065 114.397 32.7828 118.128C32.7828 118.128 35.7791 118.981 41.0785 117.99C41.1434 117.978 41.2087 117.965 41.2744 117.953C41.2744 117.953 42.9649 113.814 41.4493 112.998C41.4493 112.998 36.98 113.231 37.4464 111.754C37.9127 110.277 41.7125 93.6347 41.7125 93.6347Z" fill="#E37970"/>
<path d="M213.028 189.389C213.028 189.389 213.333 194.427 212.416 194.5C212.293 194.51 207.759 194.51 207.759 194.51L201.973 194.473C201.973 194.473 202.011 192.977 203.702 192.66C205.394 192.343 208.365 191.182 208.867 188.597C209.371 186.012 213.028 189.389 213.028 189.389Z" fill="#163560"/>
<path d="M202.009 189.389C202.009 189.389 202.314 194.427 201.395 194.5C201.274 194.51 196.74 194.51 196.74 194.51L190.953 194.473C190.953 194.473 190.99 192.977 192.682 192.66C194.374 192.343 197.345 191.182 197.849 188.597C198.352 186.012 202.009 189.389 202.009 189.389Z" fill="#163560"/>
<path d="M226.184 152.871L231.254 154.619C231.254 154.619 234.482 148.051 235.268 147.158C236.165 146.141 236.808 138.308 237.214 131.225C237.568 125.03 237.742 119.406 237.742 119.406C237.742 119.406 236.016 119.798 234.887 122.713C232.956 127.709 232.971 137.464 231.896 142.494C231.278 145.391 227.229 152.459 226.184 152.871Z" fill="#699DEE"/>
<path d="M231.254 154.62C233.187 152.37 234.481 148.051 235.268 147.158C236.163 146.141 240.407 140.358 236.442 131.264C234.5 137.015 236.121 140.149 235.51 143.544C234.904 146.911 231.431 152.37 231.254 154.62Z" fill="#3B76CA"/>
<path d="M245.897 192.276C245.897 192.276 246.371 192.697 247.495 192.697C248.768 192.697 249.092 192.276 249.092 192.276V174.396H245.897V192.276Z" fill="#D86713"/>
<path d="M228.317 167.131C228.318 167.144 228.32 167.157 228.322 167.171C228.433 167.967 228.59 168.709 228.781 169.386C229.146 170.702 229.623 171.774 230.071 172.527C231.802 175.446 235.084 178.694 242.953 179.755C243.335 179.805 243.729 179.853 244.132 179.894C244.865 179.969 245.638 180.024 246.449 180.062C246.5 180.064 246.552 180.066 246.603 180.067C246.655 180.07 246.706 180.071 246.759 180.072C249.048 180.016 251.61 179.596 254.466 178.918C260.33 177.527 264.15 174.664 266.565 171.18L266.567 171.178C266.771 170.882 266.966 170.582 267.154 170.279C267.635 169.487 268.053 168.668 268.409 167.833C269.751 164.699 270.265 161.321 270.313 158.188C270.268 155.214 269.807 152.53 269.293 150.622C268.893 149.133 268.273 147.718 267.429 146.472C267.208 146.145 266.971 145.827 266.716 145.524C265.913 144.558 264.95 143.73 263.824 143.089C261.023 141.492 251.812 139.902 244.008 144.021C229.643 151.599 227.481 160.961 228.317 167.131Z" fill="#E57970"/>
<path d="M230.73 173.537C233.021 176.203 235.083 178.935 242.953 179.81C243.335 179.852 243.728 179.892 244.131 179.924C244.866 179.987 245.638 180.032 246.447 180.063C246.5 180.065 246.551 180.067 246.603 180.067C246.654 180.07 246.706 180.071 246.759 180.072C249.047 180.016 251.608 179.596 254.465 178.918C260.329 177.527 264.148 174.663 266.566 171.18V171.179C266.771 170.882 266.966 170.583 267.152 170.279C262.703 169.217 253.202 167.356 243.761 168.116C238.641 168.529 233.327 168.985 228.781 169.386C228.627 169.399 229.974 172.658 230.73 173.537Z" fill="#C65447"/>
<path d="M257.675 126.784C257.6 126.483 257.523 126.185 257.44 125.893C256.315 121.915 254.482 119.031 251.603 118.558C251.241 119.542 247.716 121.177 244.631 121.017C244.29 121 243.788 120.538 243.781 120.535C241.346 120.192 240.186 118.886 240.3 118.71C240.199 118.718 237.742 119.407 237.742 119.407C235.612 128.726 235.357 133.905 237.922 147.197C238.857 152.051 237.426 154.689 237.742 155.007C238.297 155.563 244.437 155.722 249.374 155.914C249.967 155.935 250.551 155.957 251.12 155.975C254.729 156.094 257.701 156.135 257.701 156.135C257.946 155.829 258.398 153.013 258.705 149.047C259.198 142.713 259.327 133.449 257.675 126.784Z" fill="#699DEE"/>
<path d="M249.907 119.007L246.972 121.438L242.503 120.748C242.545 120.317 242.768 118.451 242.96 116.86C243.116 115.56 243.253 114.444 243.253 114.444L248.591 112.308L248.752 112.244C248.751 112.271 248.749 112.298 248.748 112.324C248.732 112.538 248.723 112.747 248.719 112.953C248.628 116.6 249.907 119.007 249.907 119.007Z" fill="#E49963"/>
<path d="M237.587 169.209C222.648 170.281 217.997 170.087 217.473 170.805C214.175 175.325 213.842 176.105 207.152 185.16C205.875 186.888 204.369 188.916 202.565 191.33H195.58C195.58 191.33 203.116 176.951 209.14 167.21C211.518 163.364 213.662 160.242 215.012 159.011C219.681 154.756 238.283 154.855 238.283 154.855C238.283 154.855 254.433 154.464 255.704 156.856C255.98 157.377 248.836 168.399 237.587 169.209Z" fill="#1C468A"/>
<path d="M237.587 169.209C222.648 170.281 217.997 170.087 217.473 170.805C214.175 175.325 213.842 176.105 207.152 185.16L209.14 167.21C211.518 163.364 213.662 160.242 215.012 159.011C219.681 154.756 238.283 154.855 238.283 154.855C238.283 154.855 254.433 154.464 255.704 156.857C255.98 157.377 248.836 168.399 237.587 169.209Z" fill="#163560"/>
<path d="M246.169 121.075L243.228 120.763C243.228 120.763 242.86 120.844 242.931 121.307C243.001 121.769 243.971 123.023 244.337 123.086C244.701 123.148 246.965 121.926 246.169 121.075Z" fill="#365DA4"/>
<path d="M257.083 159.338C257.083 159.338 256.585 168.385 245.336 169.193C230.398 170.267 227.315 169.912 226.339 170.826C221.536 175.314 224.71 176.267 213.451 191.33H206.381C206.381 191.33 215.012 162.742 218.921 159.322C223.667 155.168 243.058 154.855 243.058 154.855C243.058 154.855 255.983 153.86 257.254 156.252C257.53 156.772 257.083 159.338 257.083 159.338Z" fill="#1C468A"/>
<path d="M242.952 179.755C242.952 179.8 244.502 180.022 245.348 180.06C245.69 180.076 246.038 180.081 246.393 180.078C246.423 180.079 246.454 180.079 246.484 180.078C246.573 180.076 246.666 180.074 246.758 180.073C249.048 180.015 251.608 179.595 254.466 178.918C262.124 177.101 266.296 172.77 268.407 167.832C269.749 164.698 270.263 161.32 270.311 158.187C270.266 155.213 269.805 152.529 269.293 150.621C268.893 149.132 268.273 147.718 267.429 146.471C267.263 146.225 267.086 145.983 266.898 145.751C266.84 145.674 266.777 145.599 266.716 145.524C261.439 151.043 245.491 168.59 242.952 179.755Z" fill="#E57970"/>
<path d="M243.353 179.755C243.353 179.8 244.902 180.022 245.748 180.06C245.961 180.07 246.175 180.076 246.393 180.078C246.423 180.079 246.454 180.079 246.484 180.078C246.573 180.076 246.666 180.074 246.757 180.072C249.048 180.015 251.608 179.595 254.466 178.918C262.124 177.101 266.296 172.77 268.407 167.832C269.749 164.698 270.263 161.32 270.311 158.187C270.266 155.213 269.805 152.529 269.293 150.621C268.893 149.132 268.273 147.718 267.429 146.471C267.263 146.225 267.086 145.983 266.898 145.751C261.417 151.509 245.859 168.738 243.353 179.755Z" fill="#E57970"/>
<path d="M242.849 117.776C242.849 117.776 243.338 119.961 244.629 121.017L242.639 123.606C242.639 123.606 240.229 120.753 240.299 118.71C240.299 118.71 242.211 117.852 242.849 117.776Z" fill="#3B76CA"/>
<path d="M242.85 117.776C242.85 117.776 243.222 119.833 244.512 120.89L242.6 123.243C242.6 123.243 240.503 120.804 240.299 118.71C240.299 118.71 242.211 117.852 242.85 117.776Z" fill="#699DEE"/>
<path d="M249.546 117.776C249.546 117.776 246.503 120.66 244.513 120.89L245.875 124.289C245.875 124.289 251.803 120.777 251.82 118.674C251.82 118.674 250.189 117.795 249.546 117.776Z" fill="#3B76CA"/>
<path d="M249.33 117.66C249.33 117.66 246.504 120.659 244.514 120.889L245.616 124.022C245.616 124.022 251.587 120.661 251.604 118.558C251.604 118.558 249.972 117.679 249.33 117.66Z" fill="#699DEE"/>
<path d="M258.705 149.047C258.398 153.013 258.479 155.086 257.256 156.252C257.256 156.252 254.777 157.184 251.12 155.975C249.871 155.337 248.897 154.46 248.415 153.259C246.004 147.275 250.59 142.3 250.824 138.336C251.058 134.371 254.691 131.476 254.691 131.476C254.691 131.476 259.198 142.713 258.705 149.047Z" fill="#3B76CA"/>
<path d="M244.792 122.743C244.792 122.743 245.349 128.001 245.447 129.761C245.728 134.711 245.829 149.587 245.829 149.587C245.829 149.587 245.976 150.886 245.109 151.922C244.242 152.957 243.336 153.667 243.336 153.667C243.336 153.667 242.064 152.554 241.56 150.463C241.225 149.071 242.031 137.39 242.843 129.609C243.252 125.698 243.926 122.636 243.926 122.636C243.926 122.636 244.59 122.52 244.792 122.743Z" fill="#365DA4"/>
<path d="M265.578 194.493H230.626C232.289 190.855 239.481 188.119 248.102 188.119C256.722 188.119 263.914 190.855 265.578 194.493Z" fill="#F1A34F"/>
<path d="M247.597 149.84C247.597 149.84 245.226 150.461 244.449 150.888C243.672 151.316 242.112 153.367 242.461 153.688C244.217 155.296 244.487 153.512 246.644 152.929C247.035 152.823 248.839 150.811 248.839 150.811L247.597 149.84Z" fill="#E49963"/>
<path d="M245.669 154.801L242.111 142.494H221.773L225.445 155.3H225.515H245.815H252.145V154.801H245.669Z" fill="#C65447"/>
<path d="M231.914 148.689C231.785 148.239 232.046 147.874 232.494 147.874C232.945 147.874 233.415 148.239 233.544 148.689C233.673 149.138 233.413 149.503 232.962 149.503C232.513 149.503 232.043 149.138 231.914 148.689Z" fill="#F1A34F"/>
<path d="M251.602 118.558C251.602 118.558 255.641 119.215 257.662 121.315C259.682 123.413 263.103 140.591 262.247 142.999C261.393 145.409 254.553 150.306 249.655 152.326C249.655 152.326 247.247 151.238 247.091 149.373C247.091 149.373 255.408 142.378 255.797 140.513C256.185 138.648 251.602 118.558 251.602 118.558Z" fill="#699DEE"/>
<path d="M248.749 112.324C248.734 112.538 248.724 112.747 248.72 112.952C247.687 114.065 245.259 116.439 242.96 116.86C243.118 115.56 243.255 114.444 243.255 114.444L248.593 112.308L248.749 112.324Z" fill="#D68D5D"/>
<path d="M242.697 114.874C242.697 114.874 249.099 115.166 249.22 111.177C249.34 107.187 250.249 104.538 246.165 104.182C242.084 103.827 241.243 105.325 240.879 106.647C240.514 107.969 241.036 114.695 242.697 114.874Z" fill="#E49963"/>
<path d="M249.218 111.177C249.218 111.177 248.741 105.853 243.037 106.044C237.335 106.235 239.802 100.841 244.702 100.046C244.702 100.046 244.19 101.947 247.274 102.247C253.744 102.877 249.794 110.332 249.218 111.177Z" fill="#1C468A"/>
<path d="M157.163 161.907C157.564 159.846 159.558 158.176 161.619 158.176C163.68 158.176 165.025 159.846 164.625 161.907C164.225 163.967 162.229 165.637 160.168 165.637C158.109 165.637 156.763 163.967 157.163 161.907Z" fill="#D86713"/>
</svg>
