<svg width="95" height="79" viewBox="0 0 95 79" fill="none" xmlns="http://www.w3.org/2000/svg">
<path d="M70.7234 78.7971C70.2095 78.7971 69.7156 78.751 69.2504 78.6548C64.2829 77.6215 55.9937 73.0914 46.1968 73.0914C44.9481 73.0914 43.6763 73.1648 42.3823 73.3286C41.3519 73.4591 40.2508 73.519 39.1093 73.519C27.5704 73.519 11.8584 67.4045 22.4028 66.2683C24.8719 66.0023 28.7555 65.8279 33.3699 65.7577C32.397 66.2612 31.7318 67.2783 31.7318 68.4506C31.7318 69.0946 32.2528 69.6168 32.8959 69.6168H56.2981C56.9413 69.6168 57.4628 69.0946 57.4628 68.4506C57.4628 67.5335 57.0551 66.7109 56.4114 66.1549C67.9973 66.7191 78.3258 67.8538 80.3695 69.6759C84.369 73.2418 76.3931 78.796 70.7234 78.7971" fill="url(#paint0_linear)"/>
<path d="M21.8082 62.9219H67.3862C68.6514 62.9219 69.6768 61.8959 69.6768 60.629V34.7475C69.6768 33.4801 68.6514 32.4534 67.3862 32.4534H21.8082C20.543 32.4534 19.5176 33.4801 19.5176 34.7475V60.629C19.5176 61.8959 20.543 62.9219 21.8082 62.9219Z" fill="white"/>
<path d="M22.3492 59.209H66.8447C67.3751 59.209 67.805 58.7786 67.805 58.2474V34.8282C67.805 34.2971 67.3751 33.8667 66.8447 33.8667H22.3492C21.8193 33.8667 21.3889 34.2971 21.3889 34.8282V58.2474C21.3889 58.7786 21.8193 59.209 22.3492 59.209Z" fill="#993FD1"/>
<path d="M45.7857 61.2148C45.7857 61.8725 45.2537 62.4052 44.5973 62.4052C43.9409 62.4052 43.4083 61.8725 43.4083 61.2148C43.4083 60.5576 43.9409 60.0243 44.5973 60.0243C45.2537 60.0243 45.7857 60.5576 45.7857 61.2148Z" fill="#F4B3D9"/>
<path d="M25.2686 56.202H47.3344C47.9946 56.202 48.5294 55.6659 48.5294 55.0053V42.9413C48.5294 42.2808 47.9946 41.7453 47.3344 41.7453H25.2686C24.6089 41.7453 24.0741 42.2808 24.0741 42.9413V55.0053C24.0741 55.6659 24.6089 56.202 25.2686 56.202" fill="#F9D6EB"/>
<path d="M37.5744 52.0363H26.6255C26.2134 52.0363 25.8785 52.3715 25.8785 52.7842V53.3994C25.8785 53.8126 26.2134 54.1478 26.6255 54.1478H37.5744C37.9871 54.1478 38.3219 53.8126 38.3219 53.3994V52.7842C38.3219 52.3715 37.9871 52.0363 37.5744 52.0363Z" fill="#F4B3D9"/>
<path d="M37.5744 49.292H26.6255C26.2134 49.292 25.8785 49.6267 25.8785 50.0399V50.4459C25.8785 50.8592 26.2134 51.1944 26.6255 51.1944H37.5744C37.9871 51.1944 38.3219 50.8592 38.3219 50.4459V50.0399C38.3219 49.6267 37.9871 49.292 37.5744 49.292Z" fill="#F4B3D9"/>
<path d="M37.5744 46.5952H26.6255C26.2134 46.5952 25.8785 46.9293 25.8785 47.3426V47.7492C25.8785 48.1624 26.2134 48.4976 26.6255 48.4976H37.5744C37.9871 48.4976 38.3219 48.1624 38.3219 47.7492V47.3426C38.3219 46.9293 37.9871 46.5952 37.5744 46.5952Z" fill="#F4B3D9"/>
<path d="M37.5744 43.8978H26.6255C26.2134 43.8978 25.8785 44.2325 25.8785 44.6457V45.0518C25.8785 45.4655 26.2134 45.8002 26.6255 45.8002H37.5744C37.9871 45.8002 38.3219 45.4655 38.3219 45.0518V44.6457C38.3219 44.2325 37.9871 43.8978 37.5744 43.8978Z" fill="#F4B3D9"/>
<path d="M42.3016 50.2983H64.3674C65.027 50.2983 65.5619 49.7622 65.5619 49.1017V37.0377C65.5619 36.3772 65.027 35.8417 64.3674 35.8417H42.3016C41.6414 35.8417 41.1066 36.3772 41.1066 37.0377V49.1017C41.1066 49.7622 41.6414 50.2983 42.3016 50.2983" fill="#EA6BB6"/>
<path d="M56.3915 41.1612H63.5591C63.9718 41.1612 64.3061 40.8265 64.3061 40.4133V37.6866C64.3061 37.2734 63.9718 36.9381 63.5591 36.9381H56.3915C55.9793 36.9381 55.6445 37.2734 55.6445 37.6866V40.4133C55.6445 40.8265 55.9793 41.1612 56.3915 41.1612Z" fill="#F4B3D9"/>
<path d="M56.3915 43.9056H63.5591C63.9718 43.9056 64.3061 43.5709 64.3061 43.1577V42.7511C64.3061 42.3378 63.9718 42.0031 63.5591 42.0031H56.3915C55.9793 42.0031 55.6445 42.3378 55.6445 42.7511V43.1577C55.6445 43.5709 55.9793 43.9056 56.3915 43.9056Z" fill="#F4B3D9"/>
<path d="M56.3915 46.603H63.5591C63.9718 46.603 64.3061 46.2683 64.3061 45.855V45.4479C64.3061 45.0352 63.9718 44.7 63.5591 44.7H56.3915C55.9793 44.7 55.6445 45.0352 55.6445 45.4479V45.855C55.6445 46.2683 55.9793 46.603 56.3915 46.603Z" fill="#F4B3D9"/>
<path d="M56.3915 49.2997H63.5591C63.9718 49.2997 64.3061 48.9651 64.3061 48.5518V48.1452C64.3061 47.732 63.9718 47.3973 63.5591 47.3973H56.3915C55.9793 47.3973 55.6445 47.732 55.6445 48.1452V48.5518C55.6445 48.9651 55.9793 49.2997 56.3915 49.2997Z" fill="#F4B3D9"/>
<path d="M43.7933 43.9056H50.9604C51.3731 43.9056 51.7079 43.5709 51.7079 43.1577V42.7511C51.7079 42.3378 51.3731 42.0031 50.9604 42.0031H43.7933C43.3806 42.0031 43.0458 42.3378 43.0458 42.7511V43.1577C43.0458 43.5709 43.3806 43.9056 43.7933 43.9056Z" fill="#F4B3D9"/>
<path d="M43.7933 46.603H50.9604C51.3731 46.603 51.7079 46.2683 51.7079 45.855V45.4479C51.7079 45.0352 51.3731 44.7 50.9604 44.7H43.7933C43.3806 44.7 43.0458 45.0352 43.0458 45.4479V45.855C43.0458 46.2683 43.3806 46.603 43.7933 46.603Z" fill="#F4B3D9"/>
<path d="M43.7933 49.2997H50.9604C51.3731 49.2997 51.7079 48.9651 51.7079 48.5518V48.1452C51.7079 47.732 51.3731 47.3973 50.9604 47.3973H43.7933C43.3806 47.3973 43.0458 47.732 43.0458 48.1452V48.5518C43.0458 48.9651 43.3806 49.2997 43.7933 49.2997Z" fill="#F4B3D9"/>
<path d="M38.4828 66.3204H50.7114V62.9219H38.4828V66.3204Z" fill="white"/>
<path d="M32.8959 69.6169H56.2982C56.9413 69.6169 57.4628 69.0946 57.4628 68.4506C57.4628 66.7779 56.1075 65.4209 54.4362 65.4209H34.7584C33.0871 65.4209 31.7318 66.7779 31.7318 68.4506C31.7318 69.0946 32.2528 69.6169 32.8959 69.6169Z" fill="white"/>
<path d="M42.5402 59.209H39.8385C39.3435 58.424 38.8418 57.6428 38.3247 56.8711C38.1755 56.6477 38.0252 56.4247 37.8749 56.2019H40.5789C41.2446 57.1938 41.9021 58.1955 42.5402 59.209ZM38.5269 41.7453H35.5682C35.1202 41.3083 34.6721 40.8718 34.2262 40.4331C32.077 38.3194 29.7952 36.194 27.8344 33.8667H30.1753C31.814 35.2951 33.3665 36.8429 34.9439 38.3061C36.129 39.4053 37.3578 40.5045 38.4672 41.6806C38.4871 41.7016 38.507 41.7232 38.5269 41.7453" fill="#BD82E1"/>
<path d="M40.579 56.202H37.875C37.4109 55.5144 36.943 54.8294 36.47 54.1479H37.5745C37.9872 54.1479 38.322 53.8127 38.322 53.3995V52.9166C38.6778 53.4205 39.0303 53.9272 39.3795 54.4357C39.7812 55.0208 40.1817 55.6094 40.579 56.202ZM37.7038 52.0474C37.6618 52.0396 37.6187 52.0364 37.5745 52.0364H34.981C34.7794 51.7549 34.5766 51.4743 34.3733 51.1944H37.0877C37.2938 51.4783 37.4993 51.762 37.7038 52.0474ZM35.681 49.292H32.9672C32.9058 49.2101 32.8445 49.1282 32.7826 49.0469C32.644 48.8638 32.5053 48.6802 32.3655 48.4976H35.0805C35.2816 48.7615 35.4816 49.0265 35.681 49.292V49.292ZM33.6208 46.5952H30.9069C30.7456 46.3501 30.619 46.0918 30.5737 45.8002H35.8556C35.6363 45.8141 35.4197 45.8246 35.2098 45.8368C34.6434 45.871 33.9385 46.0127 33.3197 46.0127C33.2882 46.0127 33.2572 46.0121 33.2263 46.0116C33.3688 46.2041 33.5047 46.4248 33.6208 46.5952V46.5952ZM38.3115 45.1751C38.3181 45.1353 38.322 45.0938 38.322 45.0518V44.6457C38.322 44.2325 37.9872 43.8978 37.5745 43.8978H32.4279C32.7865 43.8458 33.15 43.827 33.471 43.8104C34.2611 43.77 35.0517 43.7313 35.8418 43.6887C36.1264 43.6727 37.0485 43.6909 37.2203 43.3928C37.2165 43.3988 37.212 43.4016 37.2071 43.4016C37.1711 43.4016 37.0965 43.2589 37.001 43.1488C36.7363 42.8429 36.4131 42.5702 36.1242 42.2875C35.9391 42.1066 35.7534 41.9262 35.5683 41.7453H38.527C39.3347 42.6454 39.6497 43.9183 38.696 44.8631C38.5762 44.9821 38.4474 45.0855 38.3115 45.1751" fill="#FBE4F2"/>
<path d="M37.5744 54.1478H36.4699C35.9788 53.4403 35.4826 52.736 34.981 52.0363H37.5744C37.6186 52.0363 37.6617 52.0396 37.7037 52.0474C37.9103 52.3361 38.1169 52.626 38.3219 52.9165V53.3994C38.3219 53.8126 37.9871 54.1478 37.5744 54.1478" fill="#F8CEE6"/>
<path d="M37.0877 51.1944H34.3733C33.9097 50.5566 33.4412 49.9221 32.9672 49.292H35.681C36.1545 49.9226 36.6236 50.5566 37.0877 51.1944Z" fill="#F8CEE6"/>
<path d="M35.0804 48.4976H32.3655C32.0522 48.0872 31.7367 47.6783 31.419 47.2717C31.2433 47.0472 31.0594 46.827 30.9069 46.5952H33.6207C33.6561 46.6466 33.6892 46.6937 33.7207 46.7341C34.1777 47.3188 34.6313 47.9068 35.0804 48.4976Z" fill="#F8CEE6"/>
<path d="M35.8556 45.8002H30.5737C30.555 45.678 30.55 45.5496 30.5632 45.4141C30.6638 44.368 31.5312 44.0278 32.4279 43.8978H37.5745C37.9872 43.8978 38.322 44.2325 38.322 44.6457V45.0518C38.322 45.0938 38.3181 45.1353 38.3115 45.1751C37.6048 45.6437 36.7098 45.7471 35.8556 45.8002" fill="#F8CEE6"/>
<path d="M62.8386 59.209H48.5504C47.731 58.2276 46.8929 57.2102 46.0768 56.2019H47.3343C47.9946 56.2019 48.5294 55.6658 48.5294 55.0052V50.2982H53.8257C55.9169 52.4357 59.6877 56.0226 62.8386 59.209V59.209ZM41.1066 37.6406C39.6441 36.3295 38.1772 35.0152 36.9131 33.8667H48.9924L49.0371 33.9154C49.7189 34.5837 50.3626 35.2254 50.9698 35.8416H42.3016C41.6414 35.8416 41.1066 36.3771 41.1066 37.0376V37.6406Z" fill="#BD82E1"/>
<path d="M47.3343 56.202H46.0768C42.5497 51.8428 39.4302 47.6446 40.0015 47.2159C40.2071 47.0621 40.5988 46.9161 41.1065 46.7755V49.1017C41.1065 49.7622 41.6414 50.2983 42.3016 50.2983H48.5294V55.0053C48.5294 55.6659 47.9945 56.202 47.3343 56.202" fill="#FBE4F2"/>
<path d="M53.8257 50.2983H42.3016C41.6414 50.2983 41.1066 49.7622 41.1066 49.1017V46.7756C41.6878 46.6146 42.4204 46.4613 43.2017 46.312C43.3381 46.489 43.5525 46.603 43.7934 46.603H50.9604C51.3731 46.603 51.7079 46.2683 51.7079 45.855V45.4479C51.7079 45.0352 51.3731 44.7 50.9604 44.7H48.6681C48.5449 44.5324 48.2918 44.2602 47.9366 43.9056H50.9604C51.3731 43.9056 51.7079 43.5709 51.7079 43.1577V42.7511C51.7079 42.3379 51.3731 42.0032 50.9604 42.0032H45.9299C44.5586 40.7386 42.8364 39.1919 41.1066 37.6407V37.0377C41.1066 36.3772 41.6414 35.8417 42.3016 35.8417H50.9698C53.3958 38.3051 55.2356 40.3547 56.5777 42.0032H56.3915C55.9793 42.0032 55.6445 42.3379 55.6445 42.7511V43.1577C55.6445 43.5709 55.9793 43.9056 56.3915 43.9056H58.039C58.2412 44.1888 58.4214 44.4538 58.5816 44.7H56.3915C55.9793 44.7 55.6445 45.0352 55.6445 45.4479V45.855C55.6445 46.2683 55.9793 46.603 56.3915 46.603H59.5363C59.5805 46.7988 59.5777 46.9459 59.5308 47.0444C59.4623 47.1899 59.2009 47.3039 58.8147 47.3973H56.3915C56.1141 47.3973 55.8716 47.5489 55.7428 47.7741C54.0157 47.9201 52.3312 48.0579 52.23 48.4213C52.1903 48.564 52.8096 49.2599 53.8257 50.2983ZM43.7934 47.3973C43.3807 47.3973 43.0458 47.732 43.0458 48.1453V48.5519C43.0458 48.9651 43.3807 49.2998 43.7934 49.2998H50.9604C51.3731 49.2998 51.7079 48.9651 51.7079 48.5519V48.1453C51.7079 47.732 51.3731 47.3973 50.9604 47.3973H43.7934Z" fill="#F19FCF"/>
<path d="M58.0391 43.9056H56.3915C55.9793 43.9056 55.6445 43.5709 55.6445 43.1577V42.7511C55.6445 42.3378 55.9793 42.0031 56.3915 42.0031H56.5777C57.154 42.7107 57.6391 43.3446 58.0391 43.9056" fill="#F8CEE6"/>
<path d="M59.5363 46.603H56.3915C55.9793 46.603 55.6445 46.2683 55.6445 45.855V45.4479C55.6445 45.0352 55.9793 44.7 56.3915 44.7H58.5816C59.1374 45.5563 59.443 46.1892 59.5363 46.603" fill="#F8CEE6"/>
<path d="M55.7429 47.774C55.8717 47.5488 56.1142 47.3973 56.3916 47.3973H58.8148C58.0827 47.5737 56.9032 47.6761 55.7429 47.774Z" fill="#F8CEE6"/>
<path d="M50.9605 43.9056H47.9366C47.4416 43.4116 46.7487 42.7577 45.9299 42.0031H50.9605C51.3732 42.0031 51.708 42.3378 51.708 42.7511V43.1577C51.708 43.5709 51.3732 43.9056 50.9605 43.9056" fill="#F8CEE6"/>
<path d="M50.9604 46.603H43.7934C43.5525 46.603 43.3381 46.489 43.2017 46.312C45.7642 45.8213 48.8432 45.3738 48.7526 44.851C48.7471 44.8189 48.7184 44.768 48.6681 44.7H50.9604C51.3731 44.7 51.7079 45.0352 51.7079 45.4479V45.855C51.7079 46.2683 51.3731 46.603 50.9604 46.603" fill="#F8CEE6"/>
<path d="M50.9604 49.2997H43.7933C43.3806 49.2997 43.0458 48.9651 43.0458 48.5518V48.1452C43.0458 47.732 43.3806 47.3973 43.7933 47.3973H50.9604C51.3731 47.3973 51.7079 47.732 51.7079 48.1452V48.5518C51.7079 48.9651 51.3731 49.2997 50.9604 49.2997Z" fill="#F8CEE6"/>
<path d="M68.3973 45.2383C66.4354 45.9381 64.9105 59.7185 64.9994 60.383C65.163 61.6011 73.5344 72.6876 73.5344 72.6876L74.8433 71.0684L69.9194 60.4139C69.9194 60.4139 73.9234 50.2507 74.1074 48.5928C74.2914 46.9344 74.1875 43.1743 68.3973 45.2383" fill="#EE9956"/>
<path d="M74.2913 44.5141C76.7212 45.9513 75.5792 51.9755 74.7516 54.462C73.9234 56.9492 72.3592 58.7914 72.8195 59.8048C73.2797 60.8183 74.1996 64.2272 73.7394 65.9769C73.2797 67.7272 71.7156 73.5301 71.7156 73.5301H69.9675C69.9675 73.5301 69.2315 62.5686 68.9553 61.1868C68.6796 59.8048 67.8514 49.2118 68.9553 46.2644C69.4177 45.0291 72.2675 43.3164 74.2913 44.5141Z" fill="#F4BA8E"/>
<path d="M72.0167 27.5343C74.7433 28.1451 76.0649 30.7677 74.861 34.0841C73.4968 37.8431 74.7903 45.232 74.7903 45.232C74.7903 45.232 72.3106 46.0585 70.7973 45.9894C69.2835 45.9208 67.5028 44.8786 67.5028 44.8786C67.5028 44.8786 66.8862 37.0703 65.8524 34.4526C64.8193 31.8349 66.169 26.226 72.0167 27.5343" fill="#66007A"/>
<path d="M66.9752 40.431C68.6608 41.263 72.4847 40.9466 74.3289 40.0393C75.8047 44.5672 76.8925 52.0463 76.5246 54.2574C76.1566 56.468 76.0063 57.5893 75.7174 57.835C75.6522 57.8903 75.3196 57.9201 74.8433 57.9346C74.6245 57.9407 74.8185 55.3605 74.551 55.3605C74.377 55.361 73.7516 57.9428 73.5654 57.9411C71.8979 57.924 69.8758 57.835 69.8758 57.835C69.8758 57.835 64.0817 56.8315 63.7646 56.545C63.448 56.2584 65.5519 51.3975 66.4044 49.5598C67.4166 47.378 66.9752 40.431 66.9752 40.431" fill="black"/>
<path d="M68.2741 27.7684C65.5768 28.9257 64.0762 32.6099 64.0906 34.176C64.1049 35.7421 64.0906 35.2813 64.0906 35.2813L66.8647 34.821L68.2741 27.7684" fill="#66007A"/>
<path d="M70.4216 27.3396C73.5554 27.3396 75.3079 29.0949 76.0394 32.1657C76.4461 33.8712 76.7085 34.821 76.7085 34.821H73.1206L70.4216 27.3396Z" fill="#66007A"/>
<path d="M70.8327 27.0642C71.2863 27.0996 71.4393 27.7397 71.5007 28.2635C71.562 28.7874 70.6001 30.9371 70.4216 30.9371C70.2437 30.9371 69.3542 29.8009 69.3542 29.8009L68.2741 31.0804C68.2741 31.0804 67.8392 28.2226 67.9221 27.9372C68.0044 27.6517 68.4475 26.8756 70.8327 27.0642" fill="#DB0081"/>
<path d="M69.2521 29.3406C70.425 29.7195 70.5444 28.9694 70.8184 28.4383C71.0919 27.9073 70.5051 24.5505 70.1648 24.3458C69.8244 24.1411 68.925 24.6324 68.7609 24.9189C68.5979 25.206 67.9846 28.9312 69.2521 29.3406Z" fill="#EE9956"/>
<path d="M64.2635 35.7825C64.1817 37.0781 64.3862 40.6401 64.7132 40.9676C65.0403 41.2945 66.3343 36.1371 66.3343 36.1371L64.2635 35.7825Z" fill="#EE9956"/>
<path d="M69.605 40.6135C69.5735 40.2434 69.578 39.782 69.5835 39.2947C69.5918 38.4975 69.6006 37.6727 69.4575 37.1068L69.3724 36.7677C69.0448 35.4727 68.8956 34.8813 68.7255 33.4059C68.647 32.7266 68.7636 31.5444 68.8172 31.0676C68.8426 30.8402 68.8442 30.6627 68.8459 30.5061C68.8492 30.0901 68.852 29.839 69.2907 29.3699L69.4481 29.5176C69.0674 29.9258 69.0652 30.1205 69.0619 30.5072C69.0608 30.6621 69.0592 30.853 69.0321 31.0919C68.979 31.5616 68.8647 32.7233 68.9404 33.381C69.1089 34.8415 69.257 35.429 69.5818 36.7146L69.6675 37.0531C69.8172 37.6473 69.8084 38.4853 69.7995 39.2969C69.7945 39.7792 69.7901 40.2351 69.8205 40.5947L69.605 40.6135" fill="#DB0081"/>
<path d="M66.0287 34.9599L66.3342 36.1371L64.0905 36.6017C64.0739 36.5558 64.0148 35.4046 64.0905 35.2813C64.1662 35.159 66.0287 34.9599 66.0287 34.9599" fill="#DB0081"/>
<path d="M65.332 36.1979C65.7293 33.9746 67.7851 31.5682 67.4409 30.6084C67.3895 30.4657 67.3812 30.297 67.405 30.1155C67.2177 29.7045 67.1398 29.2631 67.1829 28.8045C67.1928 28.7021 67.279 28.6169 67.3884 28.6479C67.6381 28.7182 67.6459 28.997 67.695 29.2166C68.1337 28.4371 68.9067 27.7147 69.3393 28.0007C70.0277 28.4571 69.6492 30.0491 69.1321 30.4712C68.615 30.8933 68.4746 31.8077 68.4083 33.7622C68.3608 35.1634 67.0879 41.7519 65.4204 41.7049C63.753 41.6579 65.1326 37.3164 65.332 36.1979" fill="#F4BA8E"/>
<path d="M76.5643 35.8893C76.7373 36.4845 77.3317 41.0085 76.55 41.6944C75.7682 42.3798 67.3011 41.8648 66.2431 41.8272C63.8795 41.7453 63.3231 40.421 63.553 40.2307C63.7834 40.0393 64.1309 40.6926 64.8121 40.7413C65.3237 40.7789 65.8525 40.8243 66.1011 40.8414C66.6807 40.8818 65.0917 40.2783 65.1121 40.0393C65.1331 39.8003 66.3801 40.0393 66.8017 40.4309C67.468 41.05 73.7145 40.2395 74.0565 39.8186C74.3991 39.397 74.0057 35.7825 74.0057 35.7825L76.5643 35.8893" fill="#EE9956"/>
<path d="M67.0978 22.7305C66.2016 20.6184 68.6691 18.1119 71.1255 18.9533C73.0797 19.6227 73.7167 21.4455 73.7167 21.4455C73.7167 21.4455 75.1223 19.7566 76.8301 20.5332C79.687 21.8332 77.1615 25.7078 76.1455 26.5558C75.1294 27.4044 75.8339 29.808 75.8339 29.808C75.8339 29.808 73.8847 29.4208 73.578 27.6196C73.2714 25.8184 75.1079 23.6234 75.1118 23.0093C75.1178 21.9295 73.5615 22.143 73.5615 22.143C73.5615 22.143 73.6372 23.9962 73.1742 24.7679C72.7112 25.5391 70.947 25.9329 70.947 25.9329L67.0978 22.7305" fill="black"/>
<path d="M73.6918 35.1081C73.7355 34.9388 73.8874 34.8216 74.0615 34.8221C74.72 34.8243 76.2776 34.8293 76.6201 34.821C77.0566 34.811 76.9439 35.8754 76.8875 36.0392C76.8455 36.1609 74.9427 36.1415 73.9797 36.1238C73.7001 36.1188 73.4996 35.8538 73.5692 35.5822L73.6918 35.1081Z" fill="#DB0081"/>
<path d="M68.5078 26.8816C67.5149 26.6122 66.5028 25.0788 67.0116 22.8843C67.521 20.6892 68.6078 19.2874 70.4183 19.8213C72.2289 20.3551 72.7808 21.3104 72.6521 23.1841C72.5239 25.0583 69.8183 27.2373 68.5078 26.8816" fill="#F4BA8E"/>
<path d="M72.5697 22.9689C73.2736 22.9219 73.3919 23.0342 73.1532 23.7356C72.914 24.4376 72.1399 24.3524 72.1399 24.3524L72.5697 22.9689Z" fill="#F4BA8E"/>
<path d="M69.9112 19.5618C69.5587 20.5166 70.5753 22.1607 71.219 22.7167C71.8626 23.2732 72.7323 22.8887 72.7323 22.8887L73.0593 21.9123L72.1438 20.1676L70.5852 19.2045L69.9112 19.5618" fill="black"/>
<path d="M69.911 19.5618C69.911 19.5618 69.5508 20.5465 69.0055 21.0344C68.4602 21.5228 67.3756 21.7021 67.3756 21.7021C67.3756 21.7021 68.0701 19.7947 68.7663 19.5701C69.4624 19.3455 69.911 19.5618 69.911 19.5618" fill="black"/>
<path d="M68.1531 23.0281C68.2271 23.1437 68.3188 25.2857 68.1359 25.3521C67.9531 25.4179 67.316 25.3908 67.2017 25.2464C67.0873 25.1009 67.9989 22.7858 68.1531 23.0281Z" fill="#EE9956"/>
<path d="M71.8576 73.0028C71.8576 73.0028 71.4598 73.269 70.9692 73.269C70.4786 73.269 69.9316 73.0028 69.9316 73.0028C69.9316 73.0028 69.988 74.6205 69.252 74.9474C68.5161 75.2748 67.1663 75.6432 67.0846 75.9304C67.0028 76.2163 67.0846 76.4626 67.0846 76.4626C67.0846 76.4626 71.0919 76.7485 71.5825 76.4626C72.0731 76.1754 71.8576 73.0028 71.8576 73.0028" fill="#DB0081"/>
<path d="M74.5417 70.4151C75.0013 70.7736 76.2439 72.1464 76.1212 72.6875C75.9986 73.228 73.382 76.0531 73.1361 75.9708C73.0195 75.9322 72.9029 75.7634 72.8123 75.5963C72.7018 75.3932 72.725 75.1439 72.8726 74.9656C73.2145 74.5507 73.8201 73.7769 73.7903 73.5301C73.7499 73.1871 73.1344 72.1553 73.1344 72.1553C73.1344 72.1553 73.5041 71.918 73.9538 71.5496C74.4041 71.1812 74.5417 70.4151 74.5417 70.4151Z" fill="#DB0081"/>
<path d="M27.9217 4.0569C28.3438 4.10171 30.6792 4.88946 30.24 5.33921C29.8007 5.79006 29.9913 6.72827 30.5809 7.01703C31.1709 7.3058 31.5632 8.24125 31.2229 8.63955C30.8825 9.0384 30.1355 9.89916 30.5809 10.1907C31.0267 10.4822 31.0008 11.9532 30.5809 11.9399C30.1615 11.9261 29.8731 12.1224 30.0168 12.8908C30.1615 13.6587 30.0488 13.8921 29.6355 14.2362C29.2223 14.5803 25.036 15.0073 24.7155 14.2362C24.3956 13.4656 22.1088 14.4647 21.9171 14.1184C21.7254 13.7715 20.6591 12.149 20.4712 12.1822C20.2834 12.2148 19.8651 11.7651 19.9662 11.0874C20.0668 10.4098 20.5872 9.25193 20.4712 8.63955C20.3552 8.02772 20.3325 7.16086 20.8845 6.51197C21.437 5.86197 21.5088 6.18891 21.5812 5.33921C21.653 4.49006 21.6707 4.14321 22.4547 4.02759C23.2392 3.91253 23.3337 3.55185 23.8271 3.19116C24.321 2.82938 24.9288 2.39678 25.526 2.82937C26.1233 3.26252 27.2603 3.98665 27.9217 4.0569" fill="black"/>
<path d="M26.3051 12.7216C28.3465 12.5313 34.5213 19.8417 33.6864 20.5387C32.8516 21.2363 30.2173 19.8329 28.6769 17.7014C27.136 15.5711 26.3051 12.7216 26.3051 12.7216Z" fill="white"/>
<path d="M24.5392 12.1872C21.6845 12.3172 21.8867 17.016 22.1215 18.8211C22.6624 22.9717 20.4994 25.679 20.8927 29.9917C20.9706 30.8458 29.7333 30.3009 30.3394 29.4346C30.6742 28.9555 28.7089 26.8324 28.5426 24.0609C28.4084 21.8177 29.4565 20.2494 29.4134 18.207C29.3742 16.3693 28.3482 12.0141 24.5392 12.1872" fill="white"/>
<path d="M22.1504 28.1585C20.6487 29.043 26.877 31.2547 27.3963 32.4678C27.9157 33.6815 36.3988 34.0284 37.9568 33.7684C39.5149 33.5078 41.7658 33.0692 40.9862 31.0788C40.5746 30.0261 33.3937 27.9261 30.581 27.935C26.7228 27.9472 22.8443 27.7502 22.1504 28.1585" fill="#5E1473"/>
<path d="M21.6829 28.3078C20.1818 29.1924 21.1641 31.2547 21.6829 32.4678C22.2023 33.6815 30.6853 34.0284 32.2439 33.7684C33.802 33.5078 36.0523 33.0692 35.2733 31.0788C34.4943 29.0878 23.1548 27.4415 21.6829 28.3078" fill="#5E1473"/>
<path d="M31.1406 33.7174C31.6566 30.552 34.9362 30.2323 35.3915 31.2336C36.0026 32.5784 35.4501 37.9831 34.9092 41.8316C33.7263 41.8233 32.5362 41.7055 31.3671 41.4908C31.0499 38.7365 30.8616 35.4317 31.1406 33.7174" fill="#5E1473"/>
<path d="M34.0931 41.8317C33.7854 44.0212 34.2981 45.7079 34.2147 45.8556C33.9848 46.2611 32.7892 46.5084 32.2467 45.9972C31.998 45.7632 31.6361 43.8249 31.3671 41.491C32.5362 41.7056 32.9102 41.8234 34.0931 41.8317Z" fill="#F4BA8E"/>
<path d="M41.1347 45.7001C40.9446 46.1266 39.907 46.0862 39.3181 45.6288C39.0562 45.4252 38.5087 43.7103 38.0015 41.5888C39.2142 41.3802 39.7805 41.2895 40.8794 40.7883C40.7861 43.5073 41.2148 45.5209 41.1347 45.7001Z" fill="#F4BA8E"/>
<path d="M36.9186 33.9122C37.1308 30.7114 40.3645 30.0802 40.9132 31.0334C41.5828 32.1967 41.6149 36.7899 41.4861 40.5328C40.3872 41.0334 39.2142 41.3803 38.0015 41.5888C37.3706 38.9512 36.8015 35.6863 36.9186 33.9122Z" fill="#5E1473"/>
<path d="M32.0268 46.2909C31.7251 47.821 32.7649 47.54 33.1528 47.6667C33.8981 47.9106 37.7269 47.8349 37.8617 47.363C38.1645 46.3014 35.3683 45.6121 34.4445 45.45C33.5208 45.2879 32.0997 45.9202 32.0268 46.2909Z" fill="#DB0081"/>
<path d="M24.0056 27.271C24.078 27.3335 24.1311 27.3806 24.157 27.406C24.4681 27.7069 24.9731 27.1593 25.5963 27.063C26.2184 26.9668 27.2179 27.8818 27.1588 28.3686C27.0996 28.8559 25.1128 28.7796 24.6819 28.6501C24.604 28.6263 24.2963 28.4925 23.8487 28.2878C23.8101 27.9736 23.967 27.619 24.0056 27.271" fill="#F4BA8E"/>
<path d="M17.2767 22.767C17.4032 22.3526 19.8088 16.236 21.6597 13.9297C22.5547 12.8139 24.8703 13.579 24.0553 15.9533C23.8023 16.6913 20.4591 22.2392 20.4525 22.5966C20.447 22.9241 23.6951 26.6874 24.3918 27.4846C24.3061 27.8237 23.757 28.0721 23.7526 28.3885C21.8702 27.1919 17.1734 23.1072 17.2767 22.767" fill="white"/>
<path d="M39.454 45.7654C38.6977 47.1279 40.0115 47.0289 40.5115 47.1788C41.2624 47.4039 44.5155 48.5784 44.7879 48.1712C45.4023 47.2546 41.9756 45.3051 41.095 44.9821C40.8264 44.8831 39.6375 45.4346 39.454 45.7654Z" fill="#DB0081"/>
<path d="M24.3311 12.5336C24.2847 13.2721 25.3339 13.8341 25.7234 13.7688C26.1129 13.7041 26.6494 13.5365 26.6825 13.1537C26.7229 12.6868 26.8919 9.86883 26.3079 9.4141C25.7234 8.95827 24.4648 10.4115 24.3311 12.5336" fill="#EE9956"/>
<path d="M35.4369 13.4905C35.6258 12.6391 35.533 12.1833 35.6728 11.5731C35.7192 11.3712 35.9048 10.5923 35.7927 10.5215C35.68 10.4507 35.4722 11.3585 35.4291 11.2888C35.391 11.2263 35.7098 10.0319 35.5976 9.97829C35.4855 9.92407 35.1788 11.0576 35.1385 11.0139C35.0761 10.9458 35.3932 9.67458 35.2882 9.65854C35.1164 9.63143 34.9474 10.9442 34.8722 10.9193C34.8219 10.9032 35.0297 9.91356 34.8777 9.85437C34.7252 9.79518 34.4783 11.3519 34.4805 11.5239C34.4821 11.6959 33.8722 10.724 33.6374 10.9198C33.5136 11.0238 33.9434 11.7291 34.3495 12.1778C34.665 12.5257 34.3197 12.9058 34.1131 13.4446C33.9893 13.7671 35.3927 13.7267 35.3927 13.7267L35.4369 13.4905" fill="#F4BA8E"/>
<path d="M26.2582 11.6727C26.3184 11.8641 26.4737 12.2375 26.5924 12.5207C26.9328 13.3339 26.1112 13.3588 26.3046 13.7278C26.4825 14.0686 26.8378 14.1858 27.1903 14.2212C27.7102 14.2732 27.1146 11.9532 26.7648 11.7529C26.2924 11.4824 26.2582 11.6727 26.2582 11.6727" fill="#DB0081"/>
<path d="M35.2186 15.0517C35.4402 13.521 35.5379 12.8809 35.5379 12.8809L34.339 12.5441C34.339 12.5441 32.7318 17.1405 32.4522 18.149C32.1727 19.1569 32.1671 20.6168 33.0103 20.8912C34.4285 21.3077 34.9971 16.5823 35.2186 15.0517Z" fill="white"/>
<path d="M23.4823 8.04654C23.1066 9.83999 24.0702 11.5604 25.6354 11.889C27.2001 12.2182 28.1631 10.9021 28.5388 9.10867C28.9145 7.31523 28.5615 5.72315 26.9962 5.394C25.4316 5.0654 23.858 6.2531 23.4823 8.04654Z" fill="#F4BA8E"/>
<path d="M28.0681 9.06833C27.7946 9.01467 26.7924 10.9149 26.8112 11.0936C26.8294 11.2717 27.3814 11.426 27.6405 11.2562C27.8991 11.0858 28.0681 9.06833 28.0681 9.06833Z" fill="#EE9956"/>
<path d="M28.677 6.512C28.598 7.07846 28.1421 7.55863 27.746 7.4137C27.3493 7.26987 27.1504 7.01706 26.9255 7.4137C26.7007 7.81089 26.5924 7.99122 26.2316 8.02773C25.8714 8.06369 25.6023 7.59459 25.268 8.02773C24.9338 8.46088 24.699 7.27208 24.3299 7.27098C23.9603 7.26987 23.5277 8.42161 23.8884 8.63956C24.2492 8.85807 24.357 9.2973 23.9962 9.29398C23.636 9.29122 23.7067 9.68841 23.4011 9.72437C23.0951 9.76032 22.4547 9.32994 22.4547 9.32994V7.95582L23.1674 6.512L24.3299 5.03166L25.2736 4.56256L26.0388 4.30975L28.5758 4.99516L28.8272 6.512H28.677" fill="black"/>
<path d="M27.2736 27.9305C27.2449 27.7297 27.2034 27.504 27.1576 27.2567C26.9559 26.1619 26.6791 24.6622 27.0581 22.9081C27.3675 21.4769 27.2758 19.9645 27.1874 18.5019L27.1764 18.3254C27.1001 17.0431 26.8587 15.196 26.1432 13.6808L26.373 13.573C27.1056 15.1235 27.3526 17.005 27.4305 18.3099L27.441 18.4864C27.5305 19.9667 27.6228 21.4963 27.3062 22.9617C26.9388 24.6661 27.2101 26.1365 27.4079 27.2102C27.4543 27.4619 27.4963 27.6915 27.5255 27.8956L27.2736 27.9305" fill="#DB0081"/>
<path d="M24.5127 11.4227C25.0183 11.9659 26.5564 12.9727 26.226 13.9319C26.1133 14.2589 26.1139 14.6256 25.9255 14.5072C25.4089 14.1825 24.0326 12.976 24.2309 12.1822C24.3343 11.7679 24.5127 11.4227 24.5127 11.4227Z" fill="#DB0081"/>
<path d="M34.3114 65.4534C34.6976 64.7438 35.6595 64.6956 36.3888 64.6683C36.6446 64.6595 36.875 64.6563 37.0944 64.6563C37.3684 64.6563 37.6248 64.6612 37.8911 64.6662C38.08 64.6701 38.2739 64.674 38.4828 64.6757V65.3035C38.0259 65.2995 37.5723 65.2913 37.1463 65.2842C36.8949 65.2797 36.6341 65.2665 36.375 65.2665C35.9965 65.2665 35.6203 65.2946 35.2799 65.4208H34.7584C34.6064 65.4208 34.4573 65.4318 34.3114 65.4534" fill="url(#paint1_linear)"/>
<path d="M38.932 65.3052C38.7828 65.3052 38.6325 65.3046 38.4828 65.3035V64.6758C38.5695 64.6769 38.659 64.6773 38.7513 64.6773C39.1231 64.6773 39.5486 64.6698 40.0734 64.6464C40.0784 64.6464 40.0834 64.6464 40.0878 64.6464C40.4502 64.6464 40.5127 65.2709 40.1723 65.2843C39.7773 65.2996 39.3568 65.3052 38.932 65.3052" fill="white"/>
<path d="M34.4799 65.9158C34.323 65.9158 34.1898 65.7201 34.265 65.5474C34.2793 65.5148 34.2948 65.4839 34.3114 65.4534C34.4572 65.4318 34.6064 65.4208 34.7584 65.4208H35.2799C35.0468 65.5066 34.8307 65.6388 34.6418 65.8385C34.5898 65.8927 34.5335 65.9158 34.4799 65.9158" fill="white"/>
<path d="M43.294 65.3024C42.6371 65.3024 41.9625 65.2882 41.347 65.2843C40.7978 65.2809 40.7331 64.6457 41.3293 64.6457C42.1829 64.6457 42.4199 64.6812 43.0117 64.6812C43.3056 64.6812 43.6868 64.6723 44.2741 64.6464C44.2791 64.6464 44.2841 64.6464 44.2885 64.6464C44.6509 64.6464 44.7134 65.2709 44.373 65.2843C44.0283 65.2975 43.6636 65.3024 43.294 65.3024" fill="white"/>
<path d="M85.3939 46.3661C86.1502 46.4895 86.7597 46.8175 87.2216 47.3497C87.6834 47.8824 87.8404 48.6049 87.6923 49.5182C87.6304 49.8972 87.5387 50.1793 87.4177 50.3657C87.1862 50.8083 86.7878 51.1496 86.2237 51.3897C85.6596 51.6293 85.111 51.7055 84.5767 51.6194C83.7977 51.4921 83.2087 51.1452 82.8104 50.577C82.4109 50.0095 82.2689 49.3003 82.3844 48.45L82.422 48.216C82.491 47.7934 82.6557 47.477 82.9181 47.2673C83.4165 46.7313 84.0021 46.4264 84.6767 46.3529C84.8878 46.3191 85.127 46.323 85.3939 46.3661ZM89.6879 32.5557C90.5111 32.6896 91.1382 32.8716 91.5697 33.1017C91.9996 33.3319 92.478 33.7296 93.0029 34.295C93.509 34.8349 93.8819 35.3527 94.1217 35.8489C94.656 36.9188 94.8295 38.0334 94.6416 39.1918C94.4825 40.1721 94.1339 41.0184 93.5963 41.7315C93.0576 42.4446 92.2598 43.0354 91.2023 43.5034C90.5106 43.8253 90.0189 44.1113 89.7271 44.3608C89.4349 44.6114 89.1752 44.9461 88.9476 45.3665C88.7525 45.7233 88.5912 45.943 88.4641 46.0248C88.3359 46.1072 88.1166 46.1233 87.8055 46.0724C87.5602 46.0326 86.9094 45.8583 85.8519 45.5491C84.7939 45.2398 84.169 45.0473 83.9762 44.9699C83.7828 44.893 83.664 44.7818 83.6187 44.6374C83.5739 44.493 83.5623 44.3542 83.5839 44.2203C83.6165 44.0195 83.8491 43.4973 84.2833 42.6537C84.7165 41.809 85.0535 41.2812 85.2939 41.0682C85.5629 40.8149 86.0105 40.5903 86.6359 40.395C87.2133 40.2136 87.6376 40.026 87.9094 39.8296C88.1812 39.6338 88.3674 39.3611 88.4702 39.012L88.5254 38.8837L88.5415 38.783C88.6354 38.2044 88.3928 37.8675 87.8144 37.7734C87.3475 37.6976 86.621 38.1623 85.6359 39.1686C85.3071 39.5044 85.0767 39.6604 84.943 39.6388L84.848 39.589L84.748 39.573C84.3358 39.4374 83.638 38.741 82.6546 37.4836C82.3153 37.0399 82.164 36.7069 82.1999 36.4834C82.2363 36.2616 82.4275 35.9263 82.7739 35.4794C83.3524 34.7276 84.1563 34.0637 85.1861 33.4873C86.216 32.912 87.2066 32.5762 88.1591 32.4788C88.6221 32.4401 89.1321 32.4656 89.6879 32.5557" fill="#3C36BA"/>
<path d="M82.6396 23.1072C83.1021 22.954 83.5413 22.9601 83.9573 23.1249C84.3739 23.2898 84.6739 23.651 84.8574 24.2092C84.9336 24.4415 84.9645 24.6274 84.9507 24.7679C84.9496 25.0849 84.8253 25.3941 84.5772 25.6945C84.3297 25.9955 84.0424 26.1996 83.7159 26.308C83.2402 26.4651 82.8059 26.4419 82.4153 26.2389C82.0241 26.0358 81.7363 25.6779 81.5523 25.1646L81.5053 25.0213C81.4202 24.7629 81.4208 24.5367 81.5075 24.3414C81.6313 23.8922 81.8722 23.5487 82.2313 23.3097C82.3402 23.2284 82.4761 23.1603 82.6396 23.1072V23.1072ZM81.018 14.0609C81.5208 13.8944 81.928 13.8136 82.2385 13.8164C82.5484 13.8197 82.9341 13.9038 83.396 14.0686C83.8391 14.2246 84.2004 14.4066 84.4811 14.6163C85.0955 15.0633 85.5193 15.6403 85.753 16.3483C85.9502 16.948 86.0016 17.5272 85.9066 18.0865C85.8121 18.6469 85.5347 19.2139 85.0756 19.7886C84.78 20.1731 84.5866 20.4785 84.4949 20.7047C84.4038 20.9315 84.3557 21.1965 84.3502 21.5002C84.3446 21.7591 84.3181 21.9301 84.27 22.0136C84.222 22.0971 84.1032 22.1707 83.9126 22.2332C83.7628 22.283 83.3446 22.3754 82.6584 22.5115C81.9716 22.6475 81.5628 22.7222 81.4313 22.7355C81.2998 22.7488 81.2003 22.7211 81.1329 22.6531C81.065 22.5845 81.0175 22.5092 80.9904 22.4279C80.9501 22.3051 80.9285 21.9428 80.9263 21.3392C80.9235 20.7363 80.9589 20.3402 81.0318 20.1493C81.1097 19.9275 81.2959 19.6697 81.5915 19.3754C81.8645 19.1043 82.0484 18.8737 82.1446 18.6834C82.2402 18.4936 82.2656 18.2851 82.2208 18.0583L82.2147 17.9692L82.1943 17.9078C82.0777 17.5537 81.8424 17.4354 81.4888 17.5521C81.2031 17.6461 80.9296 18.1219 80.6688 18.9782C80.5821 19.2637 80.4976 19.4197 80.4158 19.4462H80.3478L80.2871 19.4667C80.0147 19.5115 79.4174 19.3234 78.4953 18.903C78.1743 18.752 77.9909 18.6092 77.9461 18.4726C77.9014 18.3365 77.9108 18.0915 77.9754 17.738C78.082 17.1444 78.3406 16.5342 78.7528 15.9069C79.1649 15.2807 79.6246 14.8005 80.1329 14.4658C80.3827 14.3082 80.6777 14.1726 81.018 14.0609" fill="white"/>
<path d="M88.2719 5.8654C88.5934 5.98545 88.8321 6.18349 88.9879 6.45787C89.1437 6.73225 89.1487 7.06362 89.0034 7.45141C88.9432 7.61239 88.878 7.728 88.8089 7.79881C88.668 7.97251 88.463 8.08758 88.1945 8.1429C87.9254 8.19822 87.6779 8.18328 87.4514 8.09864C87.1205 7.97417 86.8923 7.76949 86.7674 7.48515C86.642 7.20081 86.642 6.87719 86.7674 6.51374L86.805 6.41472C86.8724 6.23493 86.9724 6.11102 87.1061 6.04187C87.3724 5.85046 87.6558 5.76859 87.9586 5.7957C88.0542 5.79902 88.1586 5.82225 88.2719 5.8654V5.8654ZM91.3725 0.181355C91.7222 0.312461 91.9813 0.448545 92.1504 0.587396C92.3189 0.726247 92.4941 0.942545 92.6747 1.2374C92.8493 1.51897 92.967 1.77897 93.0289 2.01795C93.1692 2.53518 93.1471 3.03969 92.9631 3.53148C92.8068 3.94804 92.5791 4.28881 92.2802 4.55379C91.9813 4.81932 91.5791 5.00851 91.0736 5.12081C90.7415 5.20047 90.5006 5.28344 90.3509 5.36698C90.2006 5.45106 90.057 5.57498 89.92 5.73927C89.8028 5.87923 89.7128 5.96111 89.6498 5.98545C89.5863 6.01034 89.489 5.99817 89.3564 5.94838C89.2525 5.90966 88.9824 5.77523 88.5454 5.54621C88.1078 5.31719 87.8503 5.17779 87.773 5.12689C87.6951 5.076 87.652 5.01625 87.6453 4.94931C87.6381 4.88182 87.6453 4.81987 87.6663 4.76289C87.6984 4.6777 87.8464 4.46915 88.1111 4.13723C88.3757 3.80476 88.5702 3.60285 88.6945 3.53038C88.8349 3.44298 89.0509 3.38378 89.3432 3.35336C89.6122 3.32459 89.815 3.27978 89.9515 3.21727C90.0879 3.15531 90.194 3.05242 90.2697 2.90804L90.3056 2.85659L90.3211 2.81399C90.4133 2.56838 90.3365 2.3991 90.0907 2.30672C89.8923 2.23204 89.5327 2.372 89.0117 2.72659C88.8382 2.84553 88.7227 2.89366 88.6663 2.87208L88.6288 2.84221L88.5868 2.82561C88.4177 2.73047 88.1724 2.36314 87.8514 1.72365C87.7415 1.49961 87.7044 1.33974 87.7398 1.24514C87.7757 1.15055 87.889 1.02055 88.0801 0.854592C88.4 0.575783 88.8117 0.355609 89.3144 0.193523C89.8172 0.0319914 90.2818 -0.0288608 90.7084 0.0126286C90.915 0.0364158 91.1366 0.0928441 91.3725 0.181355" fill="#3C36BA"/>
<path d="M7.70352 46.2361C8.70907 45.7913 9.6008 45.7111 10.3793 45.9943C11.1572 46.2781 11.745 46.8684 12.1406 47.7657C12.5661 48.7293 12.5893 49.6858 12.2119 50.6373C11.8351 51.5893 11.176 52.2729 10.2367 52.6885C9.88643 52.8428 9.57261 52.9303 9.2936 52.9491C8.60408 53.0442 7.87976 52.913 7.12118 52.5558C6.36204 52.1984 5.86258 51.7453 5.62113 51.1982C5.32223 50.5194 5.26865 49.7782 5.46257 48.9727C5.65595 48.1684 6.0554 47.4741 6.6615 46.8933C6.89686 46.6587 7.24494 46.4391 7.70352 46.2361V46.2361ZM4.81117 28.4853C5.204 28.3116 5.46975 28.233 5.60843 28.2502C5.68357 28.2435 5.77474 28.3603 5.88027 28.6004C6.07419 29.039 6.38358 29.9485 6.80956 31.3292C8.7737 37.2617 9.87594 41.2994 10.1157 43.443L10.1616 44.1683L8.22673 45.024L7.02835 45.5927C6.61287 45.7764 6.30182 45.8555 6.09408 45.8295C5.88689 45.804 5.69352 45.648 5.51451 45.3598C5.3355 45.0733 5.07748 44.5461 4.73935 43.7805L4.2758 42.7294C3.55203 41.0881 2.73874 39.1724 1.83762 36.9806C0.936488 34.79 0.396147 33.4336 0.218242 32.9097C0.0370218 32.4406 -0.031486 32.0783 0.0132665 31.8238C0.133159 31.3259 0.886772 30.666 2.27465 29.8423C3.26584 29.247 4.1106 28.7951 4.81117 28.4853" fill="white"/>
<path d="M9.08872 21.5195C9.60254 21.6572 9.96333 21.8984 10.1705 22.242C10.3777 22.5849 10.4202 22.9865 10.297 23.4446C10.165 23.9369 9.88377 24.3048 9.45337 24.5488C9.02242 24.7922 8.56717 24.8497 8.08704 24.7208C7.90859 24.6732 7.76383 24.6096 7.65277 24.5327C7.36382 24.3585 7.13122 24.0891 6.95332 23.7239C6.77596 23.3588 6.72513 23.0363 6.79972 22.7564C6.89254 22.4101 7.09751 22.1147 7.41464 21.8696C7.73178 21.6257 8.09257 21.4857 8.49699 21.4503C8.65667 21.4337 8.85446 21.4564 9.08872 21.5195ZM13.3805 13.9518C13.5811 14.0055 13.7054 14.0569 13.7518 14.1056C13.7828 14.1255 13.7817 14.1974 13.7485 14.3202C13.6883 14.5443 13.5297 14.9808 13.2711 15.6308C12.2125 18.4631 11.4037 20.3196 10.8446 21.2003L10.6424 21.4874L9.65392 21.2219L9.02961 21.0719C8.8169 21.015 8.676 20.9502 8.60584 20.8772C8.53567 20.8042 8.50971 20.6869 8.5296 20.5243C8.54949 20.3616 8.61136 20.0851 8.71634 19.6934L8.85999 19.1562C9.08541 18.3176 9.35945 17.3484 9.68431 16.2492C10.0092 15.15 10.2169 14.4746 10.3086 14.2234C10.3821 13.9911 10.4667 13.834 10.5606 13.7516C10.7567 13.6005 11.2407 13.5812 12.0131 13.6924C12.5673 13.7693 13.0225 13.8556 13.3805 13.9518" fill="#3C36BA"/>
<path d="M49.809 25.1147L50.7046 22.4843C50.8952 21.5073 51.5107 20.6593 52.3953 20.2068C54.6456 19.0567 56.3633 16.9208 56.8849 14.2461C57.8202 9.44886 54.539 4.80648 49.6239 4.15925C45.4873 3.61436 41.4917 6.23592 40.348 10.2532C39.5226 13.1514 40.2811 16.0634 42.0541 18.1461C42.7127 18.9195 43.0005 19.9429 42.8061 20.9409L42.648 23.7129C44.9028 24.3485 47.3785 24.9985 49.809 25.1147" fill="#FFC228"/>
<path d="M52.4366 13.7853C52.3897 13.7029 52.2847 13.6747 52.2024 13.7212L47.7111 16.2858L44.7735 12.2735C44.7182 12.1971 44.6105 12.1805 44.5337 12.2364C44.4574 12.2923 44.4409 12.4002 44.4967 12.4765L47.4802 16.5518L46.4221 21.9798C46.4039 22.0727 46.4647 22.1634 46.5575 22.1817C46.6503 22.1994 46.7409 22.1391 46.7591 22.0456L47.8166 16.6216L52.3725 14.0199C52.4549 13.9729 52.4836 13.8678 52.4366 13.7853" fill="white"/>
<path d="M42.6481 23.7129L42.5166 26.0147C42.1994 27.6395 43.2586 29.2144 44.8813 29.5314L45.5553 29.663C47.178 29.98 48.7504 28.9196 49.067 27.2954L49.809 25.1147C47.3786 24.9985 44.9028 24.3485 42.6481 23.7129" fill="#FFC228"/>
<path d="M50.2813 23.8026L42.7027 22.3217C42.2651 22.236 41.9795 21.8111 42.0651 21.373L42.2369 20.4901C42.3226 20.0514 42.7469 19.766 43.1845 19.8512L50.7631 21.3326C51.2007 21.4178 51.4863 21.8427 51.4012 22.2808L51.2288 23.1637C51.1432 23.6024 50.7194 23.8884 50.2813 23.8026" fill="white"/>
<path d="M49.8333 26.1005L42.2552 24.6191C41.8171 24.5339 41.5315 24.1085 41.6171 23.6704L41.7895 22.7875C41.8746 22.3488 42.2989 22.0633 42.7365 22.1485L50.3151 23.63C50.7527 23.7152 51.0383 24.1406 50.9532 24.5787L50.7809 25.461C50.6958 25.8997 50.2715 26.1857 49.8333 26.1005Z" fill="white"/>
<path d="M49.3858 28.3979L41.8071 26.9164C41.369 26.8312 41.0833 26.4058 41.169 25.9677L41.3414 25.0854C41.4264 24.6467 41.8508 24.3607 42.2889 24.4459L49.867 25.9273C50.3051 26.0125 50.5908 26.4379 50.5052 26.876L50.3328 27.7589C50.2477 28.1976 49.8234 28.4831 49.3858 28.3979" fill="white"/>
<path d="M50.888 21.3702C50.9079 21.4715 50.9101 21.5777 50.8891 21.6844L50.7173 22.5673C50.6317 23.006 50.2073 23.292 49.7692 23.2063L42.1911 21.7254L42.0663 21.6872C42.1293 21.9987 42.3724 22.257 42.7028 22.3217L50.2814 23.8026C50.7195 23.8884 51.1433 23.6024 51.2289 23.1637L51.4013 22.2808C51.4781 21.8869 51.2527 21.5052 50.888 21.3702Z" fill="#FFC228"/>
<path d="M50.441 23.6615C50.4615 23.7622 50.4637 23.869 50.4427 23.9757L50.2703 24.8586C50.1852 25.2973 49.7609 25.5828 49.3228 25.4976L41.7447 24.0161L41.6193 23.9785C41.6822 24.29 41.9259 24.5483 42.2563 24.6125L49.8349 26.0939C50.2725 26.1791 50.6968 25.8937 50.7819 25.455L50.9543 24.5721C51.0311 24.1777 50.8062 23.7965 50.441 23.6615" fill="#FFC228"/>
<path d="M49.9935 25.9589C50.0134 26.0596 50.0156 26.1663 49.9946 26.2731L49.8228 27.156C49.7372 27.5947 49.3129 27.8801 48.8747 27.7949L41.2966 26.3135L41.1718 26.2759C41.2347 26.5873 41.4778 26.8456 41.8082 26.9104L49.3869 28.3912C49.8245 28.477 50.2488 28.191 50.3344 27.7523L50.5063 26.8694C50.5836 26.475 50.3582 26.0939 49.9935 25.9589Z" fill="#FFC228"/>
<path d="M45.3305 12.0948C45.4316 11.9504 45.4664 11.982 45.578 12.0998C45.804 12.3393 45.6205 12.1242 45.6835 12.3178L45.7139 12.4345C45.7642 12.5352 45.8752 12.5971 45.9835 12.6137C46.3681 12.6713 46.6902 12.175 46.9255 11.9466C46.9703 11.9034 47.0399 11.8055 47.0968 11.7845C47.1918 11.748 47.1614 11.748 47.1742 11.811C47.188 11.883 47.0891 12.0567 47.0659 12.1286C46.9907 12.3615 46.9261 12.5949 46.9217 12.8411C46.9134 13.23 47.0509 13.5995 47.3609 13.8451C47.6189 14.0504 47.9687 14.1311 48.2687 13.9657C48.5886 13.7898 48.6974 13.4424 48.8178 13.121C48.877 12.9622 48.9361 12.7681 49.0598 12.6464C49.1886 12.5208 49.2438 12.5258 49.2339 12.6984C49.2267 12.8333 49.1924 12.9661 49.188 13.1022C49.1781 13.4507 49.3736 13.8468 49.7643 13.8623C49.9212 13.8678 50.0549 13.8036 50.1704 13.7002C50.2891 13.594 50.3659 13.391 50.498 13.3063C50.7908 13.1193 51.2052 14.0056 51.5439 13.5121C51.6013 13.428 51.5533 13.3318 51.4516 13.3273C51.0472 13.3113 50.9289 12.7299 50.4599 12.8654C50.2367 12.9302 49.8941 13.5409 49.6902 13.36C49.3869 13.09 49.8853 12.4776 49.4825 12.2044C49.2007 12.013 48.8543 12.2315 48.6852 12.4666C48.4775 12.7553 48.4526 13.1365 48.2421 13.4197C47.8797 13.9082 47.388 13.3351 47.3664 12.9169C47.3537 12.6619 47.4217 12.3985 47.4852 12.1535C47.53 11.9792 47.6046 11.7867 47.5344 11.6069C47.4189 11.3137 47.0957 11.3956 46.9034 11.5638C46.6747 11.7646 46.5216 12.0755 46.2763 12.2547L46.1338 12.3222C46.0238 12.4334 45.9609 12.419 45.9459 12.2813C45.8774 12.1518 45.9238 12.1972 45.8968 12.1081C45.8769 12.0417 45.8642 11.9825 45.8189 11.9261C45.6371 11.701 45.331 11.769 45.2183 12.0202C45.1885 12.0865 45.284 12.1607 45.3305 12.0948" fill="white"/>
<path d="M45.8691 6.48931C46.115 6.1762 45.7934 5.73309 45.4205 5.87139C44.2884 6.29237 42.8293 7.05854 41.9757 8.38067C40.4342 10.771 42.4088 11.6799 43.6796 9.75978C44.4708 8.56433 45.1967 7.3451 45.8691 6.48931" fill="white"/>
<defs>
<linearGradient id="paint0_linear" x1="10.7821" y1="76.4133" x2="97.4524" y2="13.9353" gradientUnits="userSpaceOnUse">
<stop stop-color="#7F7AD8"/>
<stop offset="0.417718" stop-color="#7F7AD8"/>
<stop offset="1" stop-color="#6840CC"/>
</linearGradient>
<linearGradient id="paint1_linear" x1="10.782" y1="76.4133" x2="97.4524" y2="13.9351" gradientUnits="userSpaceOnUse">
<stop stop-color="#B4C2FF"/>
<stop offset="0.417718" stop-color="#B4C2FF"/>
<stop offset="1" stop-color="#9F8EF4"/>
</linearGradient>
</defs>
</svg>
