<svg width="1000" height="673" viewBox="0 0 1000 673" fill="none" xmlns="http://www.w3.org/2000/svg">
<path d="M774.373 559.699C704.237 557.835 486.909 551.052 355.139 538.956C110.804 516.454 -89.4402 544.519 41.2733 582.008C77.7827 592.49 -28.8633 650.367 229.883 667.728C457.001 682.966 689.076 661.233 801.381 652.096C913.686 642.959 965.673 624.513 989.865 616.202C1011.11 608.891 1019.54 566.203 774.373 559.699Z" fill="#E8EFEF"/>
<path d="M405.839 486.441C406.121 485.336 406.17 484.184 405.983 483.059C404.359 476.218 405.858 476.266 401.381 463.305C396.99 450.719 388.631 432.119 373.633 410.703C372.251 408.619 370.586 406.737 368.686 405.111C358.117 404.602 348.029 408.07 337.412 409.665C333.845 413.207 331.159 417.539 329.572 422.309C321.406 444.858 317.601 457.858 316.237 468.772C314.776 479.341 315.766 487.776 315.065 493.406C348.711 516.071 372.654 486.681 405.839 486.441Z" fill="#163F59"/>
<path d="M242.107 419.115C240.358 418.039 234.373 424.707 231.827 430.644C226.84 442.174 225.562 448.611 223.622 461.389C220.557 481.623 215.368 513.761 213.658 527.443C212.111 539.769 207.144 554.344 214.562 552.288C214.446 535.369 222.248 509.851 226.744 496.448C242.155 450.629 247.507 422.411 242.107 419.115Z" fill="#E9D6B8"/>
<path d="M197.931 429.281C198.571 426.027 199.24 422.825 199.939 419.674C202.235 415.091 204.233 412.679 205.761 413.034C211.526 414.399 216.781 440.551 198.613 502.665C197.7 505.788 185.508 559.937 185.594 558.611C187.698 523.821 188.198 477.416 197.931 429.281Z" fill="#E9D6B8"/>
<path d="M186.08 559.664C182.939 566.015 179.038 570.482 177.357 569.656C175.675 568.83 176.867 563.007 180.008 556.666C183.15 550.325 187.041 545.848 188.723 546.674C190.404 547.501 189.213 553.323 186.08 559.664Z" fill="#FEC12F"/>
<path d="M187.033 555.897C185.429 560.874 182.018 564.458 180.308 563.632C178.598 562.805 179.251 558.549 181.768 553.976C184.958 548.211 186.169 546.53 186.447 542.389C186.726 538.498 193.086 537.191 187.033 555.897Z" fill="#E9D6B8"/>
<path d="M227.287 552.683C225.235 551.955 223.118 551.421 220.965 551.088C218.256 550.569 216.162 550.589 215.201 549.57C213.587 547.889 214.48 543.805 213.693 544.007C209.849 544.882 208.524 553.855 210.762 554.979C213.001 556.104 225.654 554.605 226.702 554.528C227.749 554.451 227.566 552.443 227.287 552.683Z" fill="#E9D6B8"/>
<path d="M224.684 551.867C225.404 554.893 216.133 553.673 213.731 552.885C212.503 552.478 211.247 552.157 209.974 551.924H209.686C209.681 551.998 209.681 552.072 209.686 552.145C209.686 553.798 208.956 555.989 211.607 555.989H228.229C241.757 555.96 224.626 551.8 224.684 551.867Z" fill="#FEC12F"/>
<path d="M317.678 615.953C320.051 615.264 322.483 614.795 324.941 614.55C328.054 614.146 330.38 614.29 331.552 613.205C333.473 611.398 333.377 604.673 333.79 604.779C338.114 605.903 338.315 619.661 336.221 619.622C333.339 619.622 319.369 618.23 318.197 618.076C317.025 617.922 317.332 615.664 317.678 615.953Z" fill="#E9D6B8"/>
<path d="M338.498 500.66C339.939 502.428 345.406 507.318 346.511 512.919C348.682 523.911 349.201 529.579 347.683 540.782C345.281 558.575 340.871 586.947 338.853 598.889C337.028 609.65 338.315 623.168 330.764 619.565C335.712 605.355 333.905 581.97 333.329 569.519C329.418 484.567 335.952 497.499 338.498 500.66Z" fill="#E9D6B8"/>
<path d="M320.723 615.194C319.714 618.585 330.33 617.797 333.069 617.057C334.487 616.664 335.932 616.372 337.392 616.183H337.709C337.714 616.266 337.714 616.35 337.709 616.433C337.604 618.307 338.286 620.862 335.278 620.689L316.438 619.613C301.065 618.748 320.742 615.117 320.723 615.194Z" fill="#194866"/>
<path d="M340.708 385.829C344.32 384.868 344.397 388.039 347.001 395.907C352.102 411.357 354.994 434.213 353.226 458.579C351.142 487.123 346.77 515.745 340.9 531.405C336.096 520.107 332.157 509.903 329.457 484.942C323.471 429.659 329.601 388.759 340.708 385.829Z" fill="#E9D6B8"/>
<path d="M339.517 389.845C342.813 389.143 342.803 391.766 344.955 398.443C349.183 411.491 351.22 430.697 349 451.027C346.397 474.854 341.228 501.237 334.867 501.477C332.427 501.573 331.408 483.751 330.467 468.811C327.517 422.357 329.4 392.006 339.517 389.845Z" fill="#E9D6B8"/>
<path d="M382.549 621.631C382.549 621.631 384.643 621.045 389.37 619.96C392.685 619.201 394.338 618.701 395.135 617.366C396.413 615.165 395.827 608.824 396.72 608.815C401.025 608.767 402.283 620.162 401.245 621.968C399.891 624.351 385.873 625.398 383.731 624.274C382.683 623.755 382.155 621.468 382.549 621.631Z" fill="#E9D6B8"/>
<path d="M379.024 508.259C381.032 507.365 379.024 499.112 382.867 504.55C389.045 513.408 394.253 533.527 395.136 544.403C396.549 561.697 399.133 589.07 399.7 600.733C400.209 611.302 404.206 623.705 396.357 621.87C396.741 607.074 392.052 585.659 388.43 574.197C375.979 535.083 372.846 510.997 379.024 508.259Z" fill="#E9D6B8"/>
<path d="M382.569 621.631C386.758 626.012 394.867 622.841 397.49 621.804C401.986 620.007 401.708 618.566 401.727 618.643C402.159 620.41 402.841 622.985 400.257 624.302C397.913 625.503 395.299 625.426 392.398 625.839C389.794 626.204 374.585 627.607 374.095 625.685C373.394 622.957 382.511 621.544 382.569 621.631Z" fill="#194866"/>
<path d="M371.337 394.514C374.796 393.486 374.96 396.532 377.698 404.035C383.097 418.764 386.566 440.718 385.595 464.247C384.442 491.821 380.522 515.965 375.334 531.242C370.319 520.491 366.841 514.351 363.478 490.38C355.965 437.278 360.673 397.665 371.337 394.514Z" fill="#E9D6B8"/>
<path d="M375.047 496.298C376.882 495.231 380.35 499.882 382.935 504.445C387.989 513.38 389.958 524.516 392.543 539.907C395.598 557.922 396.597 574.034 395.694 584.554C391.726 576.724 388.44 566.598 383.857 556.135C356.149 492.887 369.417 499.555 375.047 496.298Z" fill="#E9D6B8"/>
<path d="M370.453 391.16C373.892 390.315 373.959 393.082 376.448 400.019C381.319 413.594 384.134 433.703 382.424 455.148C380.867 475.209 377.62 493.223 373.546 506.703C372.518 510.104 368.742 510.21 368.051 507.116C365.956 497.364 364.659 486.354 363.525 474.45C358.895 425.719 359.874 393.754 370.453 391.16Z" fill="#E9D6B8"/>
<path d="M296.095 192.801C257.175 196.511 192.431 198.922 165.191 195.156C137.675 191.278 124.799 147.783 140.176 135.278C155.81 122.913 205.141 115.792 229.815 112.982C291.322 105.974 347.485 104.732 344.478 139.1C341.351 174.788 338.27 188.789 296.095 192.801Z" fill="#0C6D6A"/>
<path d="M172.985 187.674C172.985 187.674 174.628 208.02 205.651 219.641C205.651 219.641 189.568 191.374 204.018 177.506C212.703 169.183 172.985 187.674 172.985 187.674Z" fill="#0C6D6A"/>
<path d="M78.7355 10.3289C121.046 2.39017 200.479 -6.40266 226.753 6.71533C253.255 20.0961 240.675 102.932 217.072 122.401C193.272 141.596 99.9399 145.396 72.4013 144.969C3.8384 143.841 29.4801 19.5596 78.7355 10.3289Z" fill="#D0D0D0"/>
<path d="M65.13 141.897C65.13 141.897 66.7633 164.764 97.7963 177.83C97.7963 177.83 81.713 146.048 96.1631 130.464C104.839 121.068 65.13 141.897 65.13 141.897Z" fill="#D0D0D0"/>
<path d="M262.771 223.707L259.207 199.063C254.682 194.259 248.888 191.761 242.998 192.616C231.623 194.259 224.196 207.883 226.387 223.053C228.577 238.224 239.578 249.177 250.944 247.534C258.899 246.381 264.923 239.358 267.075 230.057C265.934 229.382 264.956 228.462 264.212 227.364C263.468 226.266 262.976 225.017 262.771 223.707Z" fill="#163F59"/>
<path d="M217.613 237.936C217.18 241.875 221.331 245.565 226.884 246.17L239.547 247.573C245.101 248.178 249.962 245.488 250.385 241.549L254.343 205.616C254.785 201.676 250.625 197.997 245.081 197.382L232.408 195.989C226.855 195.374 222.004 198.074 221.571 202.013L217.613 237.936Z" fill="#163F59"/>
<path d="M250.654 253.356C258.167 256.613 261.924 255.595 256.188 258.016C253.431 261.398 218.171 256.69 216.249 252.319C215.932 251.579 230.247 249.436 230.324 248.937C231.208 242.586 231.544 237.225 229.777 230.125C229.796 229.877 229.904 229.644 230.08 229.467C230.256 229.291 230.489 229.184 230.737 229.164C233.408 229.241 236.099 229.26 238.789 229.337C239.231 229.337 244.476 230.519 243.314 233.036C242.718 239.925 242.709 249.917 250.654 253.356Z" fill="#E9D6B8"/>
<path d="M253.047 232.518C253.171 232.268 253.287 232.009 253.402 231.759C253.402 231.682 253.469 231.605 253.508 231.519C253.652 231.202 253.786 230.885 253.921 230.558C253.947 230.466 253.979 230.377 254.017 230.289C254.103 230.039 254.199 229.78 254.286 229.52C254.372 229.261 254.392 229.242 254.43 229.098C254.469 228.954 254.574 228.656 254.642 228.425C254.709 228.195 254.738 228.118 254.776 227.974C254.862 227.676 254.939 227.378 255.016 227.08C255.093 226.782 255.132 226.629 255.18 226.398C255.228 226.167 255.285 225.985 255.324 225.783C255.362 225.581 255.41 225.36 255.458 225.149C255.506 224.938 255.525 224.784 255.564 224.592C255.602 224.4 255.622 224.294 255.65 224.15C256.083 221.594 255.218 209.556 253.191 203.81C253.034 203.418 252.746 203.092 252.377 202.887C252.008 202.683 251.579 202.612 251.163 202.686C244.966 203.368 226.087 202.494 230.987 219.701C230.987 219.701 231.266 221.219 231.42 221.901C231.415 221.959 231.415 222.017 231.42 222.074C231.573 222.757 231.737 223.429 231.919 224.082V224.217C232.111 224.88 232.304 225.533 232.515 226.139C232.515 226.139 232.515 226.139 232.515 226.206C235.224 234.315 239.951 239.657 245.005 239.32C247.887 239.119 250.491 237.005 252.422 233.613C252.426 233.585 252.426 233.556 252.422 233.527C252.566 233.277 252.71 233.008 252.854 232.739L253.047 232.518Z" fill="#E9D6B8"/>
<path d="M149.801 246.93C149.801 246.93 148.494 247.554 147.937 246.565C147.034 244.912 146.707 241.155 146.649 239.839C146.582 238.34 147.457 231.24 147.457 231.24C148.357 232.774 148.744 234.554 148.561 236.323C148.071 240.502 149.801 246.93 149.801 246.93Z" fill="#E9D6B8"/>
<path d="M149.678 245.968C148.477 243.547 149.102 240.482 150.697 237.052C152.215 233.795 151.11 231.758 151.11 231.758C149.88 234.091 148.867 236.532 148.083 239.05C147.481 240.542 147.155 242.131 147.122 243.739C147.353 248.456 152.753 252.213 149.678 245.968Z" fill="#E9D6B8"/>
<path d="M291.296 310.975C304.045 321.38 359.098 335.705 359.098 335.705C359.098 335.705 370.963 332.717 301.23 303.577C297.743 302.117 288.144 308.419 291.296 310.975Z" fill="#E9D6B8"/>
<path d="M362.422 338.443C362.422 338.443 366.823 340.086 368.187 342.027C369.148 343.382 372.395 350.472 372.395 350.472C370.681 349.562 369.299 348.132 368.446 346.389C366.879 343.434 364.844 340.751 362.422 338.443Z" fill="#E9D6B8"/>
<path d="M366.129 342.287C369.011 343.036 371.067 345.745 372.749 349.512C374.353 353.086 376.822 353.653 376.822 353.653C375.777 350.979 374.491 348.407 372.979 345.966C372.115 344.477 371.173 343.007 370.212 341.604C367.042 336.935 358.789 340.375 366.129 342.287Z" fill="#E9D6B8"/>
<path d="M358.06 336.617C358.54 338.625 361.72 340.921 361.624 342.208C361.529 344.179 361.018 346.108 360.125 347.867C364.439 347.358 364.353 341.142 365.996 339.086C367.638 337.03 356.83 331.409 358.06 336.617Z" fill="#E9D6B8"/>
<path d="M336.001 326.375C343.505 328.296 352.161 330.352 355.755 333.1C360.876 336.943 361.827 341.209 366.131 342.324C366.596 342.473 367.051 342.649 367.495 342.852C368.696 343.342 370.147 343.669 370.627 343.938C371.108 344.207 372.549 345.263 372.174 344.629C368.629 338.961 364.094 332.975 362.672 332.207C359.79 330.631 343.216 322.599 336.462 320.86C328.843 318.89 325.865 323.79 336.001 326.375Z" fill="#E9D6B8"/>
<path d="M366.254 341.652C366.254 341.652 366.667 340.105 367.887 340.364C369.886 340.806 373.22 343.247 374.373 344.14C375.526 345.034 380.896 350.962 380.896 350.962C378.984 350.604 377.235 349.648 375.9 348.233C372.816 344.832 366.254 341.652 366.254 341.652Z" fill="#E9D6B8"/>
<path d="M326.017 315.471C321.079 317.469 306.706 313.549 306.667 316.383C319.868 324.281 359.923 330.795 359.923 330.795L326.017 315.471Z" fill="#E9D6B8"/>
<path d="M200.186 275.752C193.326 280.815 187.263 298.628 182.546 309.917C179.894 316.278 180.874 321.072 180.874 321.072C180.874 321.072 183.199 335.983 200.964 295.342C205.412 285.158 202.761 273.83 200.186 275.752Z" fill="#E9D6B8"/>
<path d="M186.505 320.39C186.418 305.373 159.545 265.818 159.545 265.818C159.545 265.818 145.422 253.894 171.19 312.021C178.934 329.479 186.534 324.089 186.505 320.39Z" fill="#E9D6B8"/>
<path d="M149.716 243.028L148.572 243.758L147.804 248.35C147.804 248.35 149.879 256.488 151.762 259.284C153.645 262.08 156.498 274.657 157.257 276.03C158.016 277.404 165.443 277.356 165.443 277.356C165.443 277.356 159.486 265.423 157.527 260.495C155.567 255.566 155.182 247.572 154.491 245.612C153.299 242.259 152.886 240.501 152.886 240.501C152.886 240.501 151.185 241.385 152.742 246.746C153.155 248.158 151.358 247.86 151.358 247.86L149.716 243.028Z" fill="#E9D6B8"/>
<path d="M213.04 301.424L260.099 301.03L265.854 247.207L210.014 252.511L213.04 301.424Z" fill="#FEC12F"/>
<path d="M262.77 461.758C239.625 465.38 235.445 462.306 208.851 458.511C206.343 458.511 195.564 432.666 203.144 364.355C204.71 350.289 215.346 338.99 212.915 300.8L260.358 299.839C254.123 334.638 291.689 340.028 262.77 461.758Z" fill="#FEC12F"/>
<path d="M290.574 309.859L264.018 270.285L257.206 252.453C257.698 250.97 258.677 249.697 259.983 248.841L260.886 248.255C264.374 246.016 269.216 247.524 271.704 251.637L302.122 301.789L290.574 309.859Z" fill="#FEC12F"/>
<path d="M194.267 314.567L210.456 280.114L216.97 256.094C216.102 254.851 214.875 253.902 213.453 253.375L212.492 252.991C210.63 252.294 208.566 252.364 206.756 253.188C204.945 254.011 203.536 255.519 202.837 257.382L183.352 304.844L194.267 314.567Z" fill="#FEC12F"/>
<path d="M149.399 248.851C149.399 248.851 148.102 244.758 148.755 242.702C149.216 241.27 152.483 234.9 152.483 234.9C152.797 236.652 152.548 238.458 151.772 240.06C150.512 242.843 149.711 245.812 149.399 248.851Z" fill="#E9D6B8"/>
<path d="M151.321 247.89C151.321 247.89 152.512 248.168 152.906 247.794C152.901 248.171 152.863 248.547 152.791 248.918C152.714 249.629 153.108 254.442 153.108 254.442C152.708 252.965 152.223 251.512 151.657 250.09C151.246 249.043 150.925 247.963 150.696 246.862C150.682 246.628 150.682 246.394 150.696 246.16L151.321 247.89Z" fill="#E9D6B8"/>
<path d="M152.743 246.747C151.696 243.144 152.119 241.568 152.512 240.905C152.753 241.76 153.176 243.125 153.838 245.017C154.172 246.278 154.403 247.563 154.53 248.861C154.588 249.197 153.31 249.514 152.82 252.415C152.724 252.934 151.763 249.792 151.6 247.881C152.08 247.89 153.06 247.833 152.743 246.747Z" fill="#E9D6B8"/>
<path d="M241.401 227.713C240.259 227.036 239.28 226.115 238.536 225.015C237.792 223.916 237.3 222.665 237.097 221.353L233.533 196.709C233.312 196.488 233.081 196.286 232.86 196.075H232.428C226.874 195.46 222.022 198.159 221.59 202.099L217.632 238.022C217.295 241.068 219.707 243.931 223.396 245.372C224.039 245.368 224.681 245.32 225.318 245.228C233.225 243.988 239.249 236.965 241.401 227.713Z" fill="#163F59"/>
<path d="M586.455 96.8367C636.281 70.4154 686.126 67.8982 730.514 79.5427C774.902 91.1873 791.888 102.102 785.595 155.069C779.302 208.037 761.72 238.195 736.596 237.206C664.835 234.324 646.648 232.729 608.957 235.89L620.995 263.329L590.635 237.388C552.896 238.801 547.169 221.507 544.787 207.873C544.768 207.864 536.591 123.268 586.455 96.8367Z" fill="#79CCCA"/>
<path d="M418.225 29.1209C377.468 34.8279 342.045 51.5934 318.967 69.4735C295.706 87.6225 284.773 106.848 288.645 124.305C292.555 141.935 310.272 155.914 333.849 168.5C357.59 180.798 387.192 191.732 418.532 196.411C479.647 207.066 535.9 177.493 548.419 120.001C561.073 62.7961 501.485 15.7565 418.225 29.1209Z" fill="#FEC12F"/>
<path d="M440.677 186.343C440.677 186.343 441.705 209.248 412.392 225.831C412.392 225.831 424.689 192.396 408.548 178.58C398.825 170.289 440.677 186.343 440.677 186.343Z" fill="#FEC12F"/>
<path d="M336.586 252.394C336.586 254.999 337.1 257.579 338.097 259.986C339.094 262.392 340.556 264.579 342.398 266.42C344.24 268.262 346.428 269.722 348.835 270.718C351.242 271.714 353.821 272.226 356.426 272.225L361.384 262.809C372.337 262.809 381.224 246.294 381.224 235.341V227.904C381.221 222.643 379.13 217.598 375.41 213.878C371.69 210.158 366.645 208.067 361.384 208.064H356.426C351.164 208.064 346.118 210.155 342.397 213.875C338.677 217.596 336.586 222.642 336.586 227.904V252.394Z" fill="#137F7F"/>
<path d="M333.579 267.527C319.475 285.619 318.101 326.135 318.101 326.135C318.101 326.135 324.711 333.763 327.709 330.938C331.552 327.374 339.814 306.151 347.885 276.328C352.871 257.891 335.933 264.501 333.579 267.527Z" fill="#163F59"/>
<path d="M327.142 320.515C337.441 331.794 332.695 351.26 332.695 351.26C332.695 351.26 328.852 351.999 326.565 350.068C323.683 347.618 321.761 341.085 318.177 325.953C315.939 316.624 325.383 318.622 327.142 320.515Z" fill="#163F59"/>
<path d="M327.143 337.626C327.143 337.626 330.102 337.088 334.157 349.29C338.211 361.491 337.308 376.306 337.308 376.306L328.209 352.633C328.209 352.633 324.059 341.939 327.143 337.626Z" fill="#E9D6B8"/>
<path d="M377.265 227.31C378.625 227.12 379.995 227.011 381.368 226.983C381.322 228.708 381.415 230.433 381.646 232.143C384.048 248.899 398.873 260.851 415.725 260.438C415.513 268.403 412.48 276.033 407.166 281.97C401.852 287.907 394.602 291.764 386.709 292.854C368.224 295.506 351.161 282.977 348.538 264.886C345.915 246.795 358.77 229.962 377.265 227.31Z" fill="#137F7F"/>
<path d="M344.513 215.599C344.542 217.471 344.703 219.34 344.993 221.19C346.992 233.921 354.735 243.596 363.248 244.787C363.507 250.552 365.554 255.557 366.053 260.159C367.158 270.151 378.236 271.218 378.236 271.218C379.667 280.115 344.686 292.441 345.397 291.01C346.108 289.578 353.573 279.096 356.013 269.479C356.691 266.744 356.769 263.896 356.244 261.128C355.718 258.361 354.6 255.739 352.967 253.444C351.51 251.79 349.731 250.451 347.739 249.508C345.747 248.565 343.583 248.037 341.381 247.957C341.067 247.959 340.756 247.894 340.468 247.769C340.18 247.643 339.921 247.459 339.709 247.227C339.295 245.886 339.084 244.49 339.084 243.086V226.753C339.074 224.602 339.558 222.478 340.499 220.544C341.441 218.61 342.814 216.918 344.513 215.599Z" fill="#E9D6B8"/>
<path d="M387.41 321.389L402.244 292.518C406.664 283.938 403.465 275.627 395.154 274.042L348.124 265.126C342.926 264.636 335.019 273.389 337.296 283.237L348.585 315.259L387.41 321.389Z" fill="#E9D6B8"/>
<path d="M394.185 276.358C384.923 305.181 415.053 344.832 415.053 344.832C415.053 344.832 424.488 344.967 425.391 340.634C426.534 335.138 418.32 323.676 407.857 290.674C401.381 270.19 395.463 272.352 394.185 276.358Z" fill="#163F59"/>
<path d="M347.877 355.621C347.877 362.145 348.232 370.033 351.095 369.889L370.752 367.055C373.635 366.92 383.031 367.871 383.012 361.29L388.536 334.244C388.536 327.711 386.192 322.532 383.329 322.715L347.559 308.399C344.677 308.534 342.381 313.943 342.4 320.467L347.877 355.621Z" fill="#7DCCD0"/>
<path d="M340.247 278.029C340.634 276.314 341.221 274.649 341.996 273.071C365.381 291.326 381.82 283.717 393.686 280.709C393.801 281.478 393.888 282.275 393.936 283.102C394.416 292.114 393.888 301.126 394.272 310.138C394.627 317.305 385.462 323.522 381.052 323.694C364.603 324.386 360.875 323.291 345.003 318.516C340.757 317.229 332.84 309.6 334.435 303.028C336.414 294.721 338.351 286.388 340.247 278.029Z" fill="#7DCCD0"/>
<path d="M380.119 270.526C380.119 270.526 399.008 269.949 402.313 279C405.618 288.05 397.586 301.223 397.586 301.223C397.586 301.223 392.782 317.998 391.466 327.096C390.15 336.195 395.934 344.832 394.146 343.055C393.791 342.69 389.516 343.055 382.704 339.913C375.892 336.771 379.668 324.32 380.34 320.313C381.013 316.307 384.337 296.649 383.597 293.411C382.857 290.174 380.119 270.526 380.119 270.526Z" fill="#194866"/>
<path d="M335.031 278.327C336.952 272.255 342.582 262.696 346.157 263.753C349.731 264.809 353.843 265.732 353.843 265.732C353.843 265.732 341.353 271.17 341.852 297.053C341.939 301.482 341.324 310.321 342.813 317.229C344.302 324.137 344.831 337.559 344.831 337.559C344.831 337.559 337.356 339.097 337.02 340.192C336.683 341.287 337.98 333.034 334.752 321.591C327.537 296.16 331.533 289.424 335.031 278.327Z" fill="#194866"/>
<path d="M426.62 272.534H423.738V270.487H404.291V287.695C404.225 288.748 404.576 289.785 405.268 290.581C405.96 291.378 406.938 291.87 407.99 291.951H420.038C421.091 291.87 422.068 291.378 422.761 290.581C423.453 289.785 423.804 288.748 423.738 287.695V286.388H426.62C427.359 286.329 428.046 285.982 428.531 285.421C429.016 284.86 429.262 284.131 429.214 283.39V275.522C429.262 274.783 429.016 274.054 428.53 273.495C428.045 272.936 427.358 272.59 426.62 272.534ZM427.023 283.39C427.029 283.448 427.022 283.506 427.005 283.561C426.987 283.616 426.959 283.667 426.921 283.711C426.883 283.755 426.837 283.791 426.786 283.817C426.734 283.842 426.678 283.858 426.62 283.861H423.738V275.051H426.62C426.735 275.061 426.842 275.116 426.918 275.204C426.993 275.292 427.031 275.406 427.023 275.522V283.39Z" fill="#FFC40E"/>
<path d="M425.506 312.829C427.245 306.248 430.185 299.455 429.638 295.535C428.869 289.953 426.025 287.416 426.996 283.631C427.085 283.213 427.146 282.789 427.178 282.362C427.322 281.229 427.687 279.98 427.687 279.48C427.687 278.981 427.505 277.405 427.822 277.981C430.647 283.131 433.298 289.155 433.279 290.577C433.279 293.459 432.318 309.61 430.762 315.557C428.985 322.235 423.22 321.716 425.506 312.829Z" fill="#E9D6B8"/>
<path d="M430.712 294.391C430.712 294.391 431.99 294.958 432.48 293.978C433.297 292.373 433.489 288.761 433.498 287.473C433.498 286.032 432.451 279.259 432.451 279.259C431.637 280.758 431.321 282.478 431.548 284.168C432.163 288.156 430.712 294.391 430.712 294.391Z" fill="#E9D6B8"/>
<path d="M429.829 326.183C427.576 325.289 425.379 324.262 423.248 323.109C427.936 305.892 432.682 291.509 432.682 291.509L429.829 326.183Z" fill="#E9D6B8"/>
<path d="M431.971 285.993L430.29 276.385L426.552 275.482L425.255 276.126L425.102 277.154C425.102 277.154 425.582 277.788 425.486 277.788C424.958 277.788 425.121 279.431 425.582 279.431C425.419 280.169 425.31 280.917 425.255 281.67C425.582 282.458 427.062 282.314 427.715 283.995C428.368 285.676 427.456 287.607 428.359 287.732C429.262 287.857 431.971 285.993 431.971 285.993Z" fill="#E9D6B8"/>
<path d="M430.675 321.87C430.454 320.448 422.412 319.948 421.48 322.494L420.52 324.358C420.52 324.358 413.151 340.691 421.922 343.698C421.951 343.66 431.425 343.007 430.675 321.87Z" fill="#163F59"/>
<path d="M464.87 616.385C465.658 615.425 465.091 612.936 465.091 612.936C465.091 612.936 451.4 611.409 447 612.446C445.282 613.022 443.638 613.796 442.1 614.752C441.802 614.925 441.254 615.972 440.956 616.155C440.409 616.482 440.111 615.924 439.65 616.222C438.918 616.651 438.217 617.133 437.555 617.663C436.354 623.947 437.949 626.474 437.949 626.474C437.949 626.474 449.219 629.98 451.784 627.646C458.318 621.747 463.16 618.461 464.87 616.385Z" fill="#161711"/>
<path d="M508.162 621.564L510.083 631.757H520.479C520.479 631.757 521.055 630.316 521.93 630.316C522.804 630.316 523.63 631.757 524.639 631.757H551.089C551.089 631.757 551.56 629.615 550.983 628.875C550.008 628.238 548.928 627.776 547.794 627.511C542.413 626.003 527.051 621.285 524.38 616.155C521.161 609.909 508.162 621.564 508.162 621.564Z" fill="#161711"/>
<path d="M516.414 277.885L518.903 265.53C518.903 265.53 527.684 266.212 529.385 261.475C532.824 252.002 529.951 236.86 527.867 232.652C521.948 220.575 519.45 199.419 491.77 216.242C481.25 222.641 497.535 253.712 498.717 260.438C499.899 267.163 496.324 274.849 496.324 274.849L502.8 279.711L516.414 277.885Z" fill="#E9D6B8"/>
<path d="M467.232 394.82L466.272 433.78C466.272 433.78 451.601 417.581 450.179 399.192C448.757 380.803 466.3 393.379 467.232 394.82Z" fill="#E2C59C"/>
<path d="M483.749 475.094C483.749 475.094 487.804 476.862 475.871 533.499C467.224 574.284 459.913 604.116 456.483 617.625C455.147 622.871 453.658 621.919 453.658 621.919L442.282 623.188L436.864 618.499L453.12 526.082L483.749 475.094Z" fill="#163F59"/>
<path d="M558.142 369.437L534.863 414.104C534.863 414.104 579.289 381.975 576.493 364.288C573.697 346.6 558.142 369.437 558.142 369.437Z" fill="#E9D6B8"/>
<path d="M466.973 289.934C466.973 289.934 457.538 295.698 450.736 342.574C443.933 389.451 448.276 387.664 448.276 387.664L449.516 398.338L467.155 400.259L476.686 359.791L466.973 289.934Z" fill="#F8C44F"/>
<path d="M510.324 411.664C510.324 411.664 484.287 519.511 463.842 567.847C451.861 596.161 451.756 541.81 451.756 541.81L470.366 385.204L524.726 382.571C524.726 382.571 518.558 384.483 510.324 411.664Z" fill="#163F59"/>
<path d="M491.367 382.888C491.367 382.888 511.044 522.498 513.109 528.801C520.113 550.12 530.893 522.171 533.362 515.071C535.832 507.971 539.953 455.369 539.127 416.995L538.301 378.622L491.367 382.888Z" fill="#163F59"/>
<path d="M511.13 493.848C511.13 493.848 508.161 510.498 505.682 531.769C503.866 547.391 503.818 592.01 506.7 623.043C506.873 624.964 526.579 619.2 526.579 619.2C526.579 619.2 533.766 532.461 535.418 513.034C537.071 493.607 523.485 480.003 511.13 493.848Z" fill="#163F59"/>
<path d="M466.396 290.02L489.637 279.451L496.046 273.389L520.747 272.793L525.08 279.912L544.277 288.242C544.277 288.242 548.994 295.669 544.891 323.253C540.337 353.806 539.377 399.99 539.377 399.99L466.963 403.487C466.963 403.487 473.179 304.854 466.396 290.02Z" fill="#F4DA80"/>
<path d="M538.062 288.3C538.062 288.3 542.375 283.496 552.867 296.553C570.776 318.795 579.433 346.388 581.287 351.73C583.141 357.072 585.524 364.624 578.193 373.501C572.601 380.294 570.786 382.581 570.786 382.581L554.722 372.569L557.248 367.765L559.054 365.383C559.054 365.383 550.408 346.398 541.136 329.181C531.865 311.964 538.062 288.3 538.062 288.3Z" fill="#F4DA80"/>
<path d="M520.085 236.168C520.085 236.168 516.952 234.247 516.472 236.649C515.992 239.05 517.683 244.335 519.114 244.825C520.546 245.315 521.036 251.8 521.036 251.8L517.193 259.015H497.708C497.708 259.015 491.694 256.373 491.204 252.04C490.714 247.707 485.919 217.164 485.919 217.164L499.63 209.939C503.59 207.957 507.691 206.268 511.899 204.885C519.652 202.675 521.276 206.807 521.036 208.978C520.796 211.15 523.207 211.38 526.33 211.38C529.452 211.38 533.314 213.792 531.623 215.223C530.922 215.819 534.035 217.721 532.805 220.027C531.037 223.313 525.119 224.379 524.648 229.635C524.437 232.066 523.447 240.011 520.085 236.168Z" fill="#194866"/>
<path d="M711.28 589.655C710.713 590.414 711.136 592.413 711.136 592.413C711.136 592.413 721.109 593.662 724.308 592.845C725.565 592.392 726.759 591.781 727.863 591.029C728.094 590.885 728.478 590.069 728.699 589.905C729.103 589.646 729.314 590.088 729.66 589.848C730.197 589.509 730.705 589.127 731.178 588.704C732.033 583.699 730.87 581.671 730.87 581.671C730.87 581.671 722.377 578.549 720.792 580.711C717.054 585.764 712.529 588.003 711.28 589.655Z" fill="#163F59"/>
<path d="M658.802 583.2L657.322 591.299H653.479C653.479 591.299 653.037 590.156 652.374 590.156C651.711 590.156 651.087 591.299 650.318 591.299H630.286C630.286 591.299 629.921 589.599 630.363 589.012C631.097 588.506 631.918 588.138 632.784 587.927C636.848 586.726 648.493 582.979 650.52 578.895C652.951 573.89 658.802 583.2 658.802 583.2Z" fill="#163F59"/>
<path d="M713.027 404.698L721.329 400.086L722.309 399.049L721.156 397.204L719.34 397.425L719.657 392.025L710.952 390.469L706.494 388.394L710.616 403.055L713.027 404.698Z" fill="#E9D6B8"/>
<path d="M674.53 272.794C674.53 272.794 683.839 283.045 655.179 310.11C626.52 337.175 621.303 329.249 621.303 329.249L612.656 323.484L606.238 293.364L620.063 290.155L621.572 291.932C621.572 291.932 624.541 292.221 626.039 290.107C627.538 287.993 637.021 280.864 650.702 263.282C657.005 255.183 672.752 270.805 674.53 272.794Z" fill="#E2E3E4"/>
<path d="M608.516 295.093C608.516 295.093 579.615 294.564 577.309 264.483C576.627 255.538 574.341 264.194 572.765 272.726C571.189 281.258 576.464 305.392 591.913 315C607.363 324.608 613.944 327.039 619.91 323.1C625.877 319.16 608.516 295.093 608.516 295.093Z" fill="#E9D6B8"/>
<path d="M651.144 583.2C651.144 583.2 655.631 589.704 658.926 583.613C666.536 569.595 677.844 534.959 678.219 519.193C678.766 496.586 674.933 480.868 674.933 480.868L650.846 473.009L651.144 583.2Z" fill="#163F59"/>
<path d="M651.942 369.408L650.846 472.999L672.742 485.085C681.316 467.483 686.34 448.366 687.529 428.823C688.23 415.429 688.566 385.386 681.072 375.173C670.926 361.328 651.942 369.408 651.942 369.408Z" fill="#163F59"/>
<path d="M659.925 369.409L663.508 405.265L673.241 444.157L683.598 480.513L720.588 581.394L731.358 582.268C731.358 582.268 729.994 506.521 716.86 484.442C709.904 472.75 709.914 446.809 706.705 418.879C706.119 413.845 708.972 402.479 708.511 397.886C707.248 386.627 703.443 375.802 697.385 366.229L659.925 369.409Z" fill="#194866"/>
<path d="M651.587 370.985L699.03 369.937L719.283 302.097C719.283 302.097 732.427 261.081 707.245 260.553C682.063 260.025 653.038 260.034 653.038 260.034C653.038 260.034 632.237 298.292 651.587 370.985Z" fill="#E2E3E4"/>
<path d="M736.711 351.163L706.648 387.73C706.648 387.73 707.724 393.062 710.145 390.228C710.433 389.892 708.973 388.816 710.808 387.817C718.187 383.791 735.529 377.584 741.937 371.387C747.361 366.004 752.193 360.055 756.349 353.642L736.711 351.163Z" fill="#E9D6B8"/>
<path d="M677.364 269.555C677.364 269.555 655.266 307.621 661.559 349.741C662.049 353.056 665.998 355.429 665.998 355.429L671.436 350.692C671.436 350.692 670.994 303.018 677.364 269.555Z" fill="#0C6D6A"/>
<path d="M678.151 268.546L679.352 276.953L693.774 263.291V261.196L678.151 268.546Z" fill="#D0D0D0"/>
<path d="M673.607 263.127L671.081 274.061L677.479 268.546L673.607 263.127Z" fill="#D0D0D0"/>
<path d="M630.823 300.242L627.067 293.44L625.404 290.808C624.303 291.639 622.937 292.042 621.561 291.942L625.308 296.476L628.738 302.635L630.66 312.031L630.823 300.242Z" fill="#D0D0D0"/>
<path d="M716.996 300.896L733.493 348.416L737.067 349.838L735.078 352.999L755.427 356.534L764.372 341.008L740.602 276.511C740.602 276.511 731.417 262.955 710.953 260.707C696.08 259.073 715.805 296.947 716.996 300.896Z" fill="#E2E3E4"/>
<path d="M756.667 345.514C756.667 345.514 742.794 348.117 735.53 349.213L737.086 349.837L735.098 352.998L742.15 354.161L752.411 354.391L754.006 350.596L751.008 349.847L756.667 345.514Z" fill="#D0D0D0"/>
<path d="M695.56 251.031C694.968 254.1 694.113 257.112 693.005 260.034C691.362 263.713 677.123 268.44 674.932 268.969C672.742 269.497 675.48 257.93 675.48 255.297C675.48 253.289 676.777 253.914 675.221 251.031H695.56Z" fill="#E9D6B8"/>
<path d="M671.233 245.17C671.058 246.252 671.321 247.359 671.962 248.247C672.604 249.135 673.572 249.732 674.653 249.907L693.014 252.847C693.549 252.935 694.097 252.916 694.626 252.791C695.154 252.667 695.653 252.439 696.093 252.121C696.533 251.803 696.906 251.402 697.19 250.939C697.475 250.477 697.665 249.963 697.75 249.427L702.112 222.227C702.284 221.146 702.019 220.04 701.376 219.154C700.733 218.267 699.764 217.673 698.682 217.5L680.332 214.551C679.795 214.464 679.247 214.484 678.719 214.61C678.19 214.736 677.692 214.965 677.252 215.283C676.812 215.602 676.439 216.004 676.155 216.467C675.87 216.93 675.68 217.444 675.595 217.981L671.233 245.17Z" fill="#E9D6B8"/>
<path d="M674.663 223.581C674.663 223.581 672.626 220.545 672.434 218.864C672.573 217.862 672.959 216.911 673.556 216.095C674.153 215.278 674.942 214.622 675.854 214.185C678.083 213.32 679.428 215.799 679.428 215.799C679.428 215.799 675.883 217.087 675.585 217.721C675.287 218.355 674.663 223.581 674.663 223.581Z" fill="#163F59"/>
<path d="M702.016 234.766C702.016 234.766 706.474 224.764 706.455 221.622C706.436 218.481 706.455 216.3 702.756 215.358C697.231 213.946 696.991 215.127 694.532 212.995C692.072 210.862 687.854 205.981 686.231 205.308C683.531 204.175 678.996 204.405 677.977 209.651C677.854 210.632 677.486 211.566 676.906 212.366C676.327 213.167 675.556 213.81 674.663 214.234C674.807 214.743 675.758 215.358 677.401 216.53C682.09 219.902 685.087 220.902 689.142 220.508C693.196 220.114 700.854 219.076 701.238 222.093C701.622 225.11 699.864 233.911 700.095 234.641C700.325 235.371 701.257 235.169 702.016 234.766Z" fill="#194866"/>
<path d="M694.926 242C694.871 242.36 694.96 242.728 695.174 243.023C695.388 243.318 695.71 243.517 696.07 243.576L700.038 244.21C700.216 244.24 700.398 244.235 700.574 244.194C700.75 244.153 700.916 244.078 701.062 243.972C701.209 243.867 701.333 243.733 701.428 243.58C701.522 243.426 701.585 243.255 701.613 243.076L702.786 235.822C702.841 235.461 702.752 235.092 702.539 234.796C702.325 234.499 702.003 234.298 701.642 234.237L697.674 233.603C697.314 233.548 696.946 233.637 696.651 233.851C696.356 234.065 696.158 234.387 696.099 234.746L694.926 242Z" fill="#E9D6B8"/>
<path d="M671.282 238.204C671.252 238.382 671.257 238.565 671.298 238.74C671.339 238.916 671.414 239.082 671.52 239.229C671.625 239.376 671.758 239.5 671.912 239.594C672.066 239.689 672.237 239.752 672.416 239.78L676.384 240.414C676.562 240.444 676.745 240.438 676.922 240.397C677.098 240.356 677.264 240.279 677.411 240.173C677.558 240.067 677.682 239.932 677.776 239.777C677.87 239.622 677.932 239.45 677.959 239.271L679.122 232.027C679.18 231.665 679.092 231.295 678.878 230.998C678.664 230.7 678.34 230.5 677.978 230.441L674.02 229.807C673.659 229.752 673.29 229.84 672.993 230.054C672.697 230.268 672.496 230.59 672.435 230.95L671.282 238.204Z" fill="#E9D6B8"/>
<path d="M699.922 236.869C699.922 236.869 698.203 247.572 697.626 251.146C697.107 254.374 694.686 261.244 676.489 258.323C665.69 256.594 667.362 248.715 667.775 246.121C668.092 244.133 671.291 238.551 672.579 237.599L671.868 242.009C672.826 240.836 674.073 239.932 675.486 239.386C676.899 238.84 678.43 238.672 679.928 238.896C688.21 240.222 689.315 245.362 692.976 245.872C695.762 246.246 698.606 242.009 699.922 236.869Z" fill="#194866"/>
<path d="M682.187 246.467L676.518 245.506C676.159 245.447 675.837 245.248 675.623 244.953C675.409 244.658 675.32 244.291 675.375 243.93L675.5 243.133L683.888 244.478L683.763 245.275C683.739 245.458 683.68 245.634 683.587 245.793C683.495 245.952 683.372 246.091 683.225 246.202C683.078 246.313 682.911 246.393 682.733 246.439C682.554 246.484 682.369 246.494 682.187 246.467Z" fill="#E9D6B8"/>
<path d="M577.751 269.535C577.751 269.535 580.479 260.293 579.067 258.006C577.655 255.72 571.967 247.63 571.967 247.63L570.334 245.708C570.334 245.708 567.375 246.477 571.295 251.857C575.214 257.238 571.948 255.7 571.948 255.7L566.712 252.27L559.986 248.6L557.2 246.563C557.2 246.563 555.691 245.276 555.096 245.295C553.366 245.372 554.058 246.765 554.058 246.765L564.281 255.681L552.752 250.214C552.752 250.214 551.166 249.782 550.676 250.531C550.186 251.281 550.676 251.492 550.676 251.492L562.35 260.975L556.114 258.871C556.114 258.871 554.558 258.487 554.039 259.198C553.52 259.908 553.299 260.158 553.299 260.158L576.271 271.812L577.751 269.535Z" fill="#E9D6B8"/>
<path d="M562.609 257.496L554.308 254.153C553.421 253.66 552.437 253.368 551.425 253.298C551.263 253.304 551.103 253.342 550.955 253.41C550.807 253.478 550.674 253.575 550.563 253.695C550.452 253.814 550.366 253.954 550.31 254.107C550.253 254.26 550.228 254.422 550.234 254.585L562.311 260.946L562.609 257.496Z" fill="#E9D6B8"/>
<path d="M782.463 584.996L776.698 616.318L756.839 621.439L746.271 621.765C746.271 621.765 765.64 613.445 769.454 609.17C775.219 602.694 773.624 576.993 773.624 576.993L782.463 584.996Z" fill="#E9D6B8"/>
<path d="M777.014 621.439L772.844 621.766L770.606 618.883L752.985 624.091L741.763 624.975C742.154 624.127 742.665 623.341 743.281 622.64C745.337 620.978 753.456 617.922 753.456 617.922C753.456 617.922 753.302 620.488 754.58 620.805C755.858 621.122 768.031 617.759 770.913 616.635C775.88 614.714 777.024 613.157 777.321 613.436C778.129 614.156 777.014 621.439 777.014 621.439Z" fill="#161711"/>
<path d="M792.157 383.541L781.992 488.506L770.463 588.936L785.835 590.857C785.835 590.857 804.82 489.976 806.924 481.329C809.028 472.682 830.444 403.016 822.767 384.656C815.091 366.295 792.157 383.541 792.157 383.541Z" fill="#163F59"/>
<path d="M837.813 582.24L836.218 615.569L816.349 620.69L805.78 621.007C805.78 621.007 824.593 613.196 827.552 608.296C831.481 601.782 827.552 579.818 827.552 579.818L837.813 582.24Z" fill="#E9D6B8"/>
<path d="M836.535 620.67L832.365 620.987L830.127 618.105L814.178 622.592L800.641 623.226C800.65 622.67 800.85 622.134 801.207 621.708C803.206 619.94 813.14 616.981 813.14 616.981C813.14 616.981 812.746 620.017 814.024 620.343C815.302 620.67 827.562 616.981 830.444 615.857C835.411 613.935 836.554 612.379 836.852 612.648C837.659 613.349 836.535 620.67 836.535 620.67Z" fill="#161711"/>
<path d="M840.06 384.972L837.178 476.774C837.178 476.774 841.021 501.668 841.299 509.96C842.001 528.647 841.203 584.727 841.203 584.727L824.601 585.39C824.601 585.39 812.909 484.047 811.41 475.266C809.911 466.484 792.925 395.877 802.763 378.305C812.601 360.732 840.06 384.972 840.06 384.972Z" fill="#194866"/>
<path d="M817.214 292.575C817.214 305.949 828.282 316.796 841.954 316.796C855.626 316.796 866.694 305.949 866.694 292.575C866.694 279.201 855.616 268.354 841.954 268.354C828.292 268.354 817.214 279.191 817.214 292.575Z" fill="#163F59"/>
<path d="M799.036 243.086C799.036 247.81 800.913 252.341 804.254 255.681C807.594 259.022 812.125 260.898 816.849 260.898L821.307 252.434C826.031 252.434 830.562 250.557 833.903 247.217C837.243 243.876 839.12 239.345 839.12 234.621V227.896C839.12 223.171 837.243 218.641 833.903 215.3C830.562 211.96 826.031 210.083 821.307 210.083H816.849C812.125 210.083 807.594 211.96 804.254 215.3C800.913 218.641 799.036 223.171 799.036 227.896V243.086Z" fill="#163F59"/>
<path d="M839.12 234.592V227.867C839.12 223.142 837.243 218.612 833.903 215.271C830.562 211.93 826.032 210.054 821.307 210.054H816.849C812.939 210.053 809.138 211.347 806.041 213.733C805.734 217.81 806.058 221.909 807.001 225.887C809.98 238.867 818.684 248.523 828.35 250.925C831.542 249.55 834.263 247.271 836.176 244.368C838.09 241.466 839.113 238.068 839.12 234.592Z" fill="#163F59"/>
<path d="M817.503 260.379C817.503 273.186 828.072 283.572 841.196 283.572C854.32 283.572 864.889 273.186 864.889 260.379C864.856 257.3 864.217 254.258 863.009 251.427C861.801 248.595 860.046 246.029 857.846 243.875C855.646 241.722 853.043 240.022 850.186 238.874C847.329 237.727 844.275 237.153 841.196 237.186C828.12 237.167 817.503 247.543 817.503 260.379Z" fill="#163F59"/>
<path d="M813.18 291.288C813.18 304.489 824.113 315.192 837.593 315.192C851.073 315.192 862.006 304.489 862.006 291.288C862.006 278.087 851.082 267.384 837.593 267.384C824.104 267.384 813.18 278.087 813.18 291.288Z" fill="#11374F"/>
<path d="M841.599 247.102C832.789 241.136 822.556 240.886 818.732 246.526C814.909 252.165 818.944 261.581 827.754 267.547C836.565 273.514 846.797 273.773 850.621 268.134C854.445 262.494 850.4 253.078 841.599 247.102Z" fill="#11374F"/>
<path d="M806.157 216.866C806.176 218.546 806.317 220.222 806.579 221.882C808.386 233.324 815.332 242.058 822.913 243.086C823.153 247.772 824.003 252.406 825.439 256.873C826.861 261.389 832.165 266.164 832.165 266.164C833.452 274.148 806.224 285.869 806.906 284.582C807.588 283.294 814.256 273.888 816.447 265.251C817.057 262.794 817.129 260.234 816.658 257.747C816.187 255.259 815.184 252.903 813.718 250.839C812.409 249.352 810.81 248.147 809.019 247.3C807.228 246.452 805.283 245.979 803.303 245.91C803.022 245.909 802.744 245.851 802.486 245.738C802.229 245.626 801.997 245.462 801.804 245.257C801.431 244.05 801.24 242.793 801.237 241.529V226.839C801.239 224.911 801.684 223.009 802.537 221.28C803.39 219.551 804.628 218.041 806.157 216.866Z" fill="#E9D6B8"/>
<path d="M800.525 380.477L787.766 383.753C787.766 383.753 796.077 347.474 798.402 333.303C800.727 319.131 800.458 314.491 799.68 310.11C798.901 305.729 796.855 300.569 799.68 295.698C802.504 290.827 806.943 282.68 808.701 282.046C811.584 281.018 814.629 279.73 816.954 277.405C818.223 276.089 800.525 380.477 800.525 380.477Z" fill="#FFC40E"/>
<path d="M796.077 383.359C796.077 383.359 802.264 349.338 805.012 332.149C807.76 314.961 815.321 282.333 816.003 278.211C816.715 274.915 817.751 271.696 819.097 268.604C819.097 268.604 825.63 263.8 831.472 264.828C837.313 265.856 842.117 278.913 844.529 291.624C846.94 304.335 829.406 339.74 829.406 342.824C829.406 345.908 841.781 372.031 841.781 379.592V388.239C841.781 388.239 811.19 373.415 796.077 383.359Z" fill="#E2E3E4"/>
<path d="M830.607 259.842L825.621 262.955L818.492 267.826L819.856 275.397L833.192 263.454L830.607 259.842Z" fill="#D0D0D0"/>
<path d="M860.747 343.468C860.747 343.468 849.573 358.36 843.712 357.774C841.789 357.571 839.88 357.25 837.995 356.813C833.999 356.044 833.192 356.092 830.05 355.66C828.871 355.457 827.68 355.325 826.485 355.266C826.485 355.266 826.485 357.072 827.696 357.553C828.907 358.033 831.472 358.321 832.375 358.706C833.278 359.09 830.098 358.446 825.333 358.831C821.49 359.148 817.681 359.791 813.947 360.752C812.698 361.098 812.525 361.175 812.525 361.242C812.525 361.828 812.574 362.357 813.15 362.462C813.726 362.568 815.465 362.462 815.36 362.51C814.158 363.081 812.911 363.55 811.632 363.913C811.113 364.038 810.402 364.182 809.97 364.336C809.095 364.643 809.499 365.71 811.026 366.142C811.026 366.142 811.382 366.892 811.843 367.045C812.074 367.122 812.247 367.189 812.487 367.257C812.727 367.324 813.073 367.333 813.342 367.401C814.347 367.627 815.369 367.772 816.397 367.833C816.801 367.833 820.365 367.593 820.365 367.833C820.365 367.833 817.56 368.467 817.617 368.678C817.723 369.159 818.261 369.745 818.751 369.707C819.712 369.62 821.028 369.534 824.766 369.063C828.887 368.544 829.752 368.102 835.036 368.755C839.638 369.322 839.197 370.273 842.463 369.015C846.844 367.334 862.784 354.968 865.743 353.037C868.702 351.106 860.747 343.468 860.747 343.468Z" fill="#E9D6B8"/>
<path d="M866.693 331.746L830.865 292.825C830.865 292.825 826.523 282.583 826.744 277.366C827.003 271.188 834.43 266.538 834.43 266.538C834.43 266.538 850.763 281.238 870.084 302.365C889.405 323.493 899.974 332.774 889.405 341.027C878.837 349.28 862.091 359.839 862.091 359.839L855.644 343.343L866.693 331.746Z" fill="#D0D0D0"/>
<path d="M134.025 366.065L137.696 413.47C137.696 413.47 150.493 388.067 151.867 370.235C153.241 352.403 133.67 365.354 134.025 366.065Z" fill="#E9D6B8"/>
<path d="M49.2468 339.038L72.5264 376.883C72.5264 376.883 37.9386 360.252 39.6968 344.774C41.455 329.296 49.2468 339.038 49.2468 339.038Z" fill="#E9D6B8"/>
<path d="M108.173 249.215C107.721 254.625 104.81 259.313 101.754 259.534H93.05C89.9948 259.313 87.0834 254.625 86.6319 249.215C85.9209 240.299 85.2067 231.38 84.4894 222.458C84.0186 217.106 86.1035 206.375 90.7344 203.242C92.6824 201.863 95.0105 201.122 97.3974 201.122C99.7844 201.122 102.113 201.863 104.06 203.242C108.691 206.413 110.786 217.145 110.315 222.458C109.598 231.374 108.884 240.293 108.173 249.215Z" fill="#E9D6B8"/>
<path d="M133.421 262.792C133.421 262.792 144.758 270.248 151.32 315.538C157.882 360.829 153.713 359.1 153.713 359.1L152.521 369.428L135.804 371.148L126.254 332.16L133.421 262.792Z" fill="#D0D0D0"/>
<path d="M137.591 263.358L111.266 251.474L97.6801 255.538L80.8858 253.616L62.3813 261.639C62.3813 261.639 54.0227 269.671 61.7857 295.468C69.5488 321.264 68.3861 363.865 68.3861 363.865L135.583 368.131C135.583 368.131 131.029 277.674 137.591 263.358Z" fill="#E2E3E4"/>
<path d="M74.3135 262.791C74.3135 262.791 64.1676 257.026 54.0218 269.67C36.7279 291.162 28.3595 317.824 26.5628 322.993C24.7662 328.162 22.3932 343.63 29.5509 348.213L36.7087 352.796L51.6391 343.63L49.2468 339.038L48.0555 336.156C48.0555 336.156 56.4142 317.805 65.3494 301.183C74.2846 284.562 74.3135 262.791 74.3135 262.791Z" fill="#E2E3E4"/>
<path d="M94.3546 254.951L87.7158 262.205L81.0767 252.635L85.064 246.736L94.3546 254.951Z" fill="#D0D0D0"/>
<path d="M108.94 247.303L96.1713 255.537L102.205 262.781L112.168 251.473L108.94 247.303Z" fill="#D0D0D0"/>
<path d="M98.6783 196.901V190.714H112.043C114.201 190.714 116.271 191.571 117.797 193.097C119.323 194.624 120.181 196.693 120.181 198.852V205.039H106.816C104.658 205.039 102.588 204.182 101.062 202.656C99.5359 201.129 98.6783 199.06 98.6783 196.901Z" fill="#163F59"/>
<path d="M85.8719 234.439C85.8744 236.359 86.639 238.199 87.9972 239.555C89.3555 240.912 91.1965 241.674 93.1161 241.674H109.536C111.448 241.663 113.278 240.897 114.627 239.541C115.975 238.185 116.732 236.351 116.732 234.439V201.6C116.733 200.649 116.547 199.707 116.184 198.828C115.821 197.949 115.288 197.151 114.617 196.478C113.945 195.805 113.147 195.271 112.268 194.907C111.39 194.543 110.448 194.355 109.497 194.355H93.0777C91.1564 194.355 89.3138 195.119 87.9553 196.477C86.5967 197.836 85.8336 199.678 85.8336 201.6L85.8719 234.439Z" fill="#E9D6B8"/>
<path d="M98.1595 190.714C96.8096 190.716 95.4812 191.053 94.2939 191.695C93.1065 192.337 92.0976 193.265 91.3574 194.394H88.5614C86.8898 194.394 85.2866 195.058 84.1046 196.24C82.9227 197.422 82.2589 199.025 82.2589 200.696V216.28H86.6975V209.949C86.6975 208.771 87.1653 207.642 87.9977 206.81C88.8301 205.977 89.9592 205.51 91.1364 205.51H104.53C106.688 205.51 108.758 204.652 110.284 203.126C111.81 201.6 112.667 199.53 112.667 197.372V190.714H98.1595Z" fill="#163F59"/>
<path d="M88.0927 220.326C88.0927 219.306 87.6877 218.329 86.967 217.608C86.2463 216.887 85.2688 216.482 84.2496 216.482H83.9327C82.9134 216.482 81.9358 216.887 81.215 217.608C80.4943 218.329 80.0896 219.306 80.0896 220.326V225.014C80.0896 226.033 80.4943 227.011 81.215 227.732C81.9358 228.452 82.9134 228.857 83.9327 228.857H84.2496C84.9986 228.861 85.7323 228.645 86.3604 228.237C86.9886 227.829 87.484 227.247 87.7854 226.561L88.0927 220.326Z" fill="#E9D6B8"/>
<path d="M92.5109 392.41C92.5109 392.41 112.754 464.112 128.972 489.775C145.19 515.437 150.849 482.089 150.849 482.089L130.673 362.856L83.5949 362.559C83.5949 362.559 84.7863 364.97 92.5109 392.41Z" fill="#163F59"/>
<path d="M114.878 362.809C114.878 362.809 101.36 480.398 99.3708 486.345C92.8087 506.339 77.8016 493.426 75.4861 486.758C73.1706 480.09 69.3082 430.783 70.0864 394.802C70.8647 358.821 70.8455 361.175 70.8455 361.175L114.878 362.809Z" fill="#194866"/>
<path d="M73.5547 593.768C72.8534 594.614 73.3626 596.843 73.3626 596.843C73.3626 596.843 85.5643 598.197 89.4842 597.275C91.0161 596.77 92.4834 596.086 93.8558 595.238C94.1248 595.075 94.6149 594.143 94.8743 593.98C95.3643 593.692 95.6236 594.181 96.0368 593.912C96.6975 593.539 97.3244 593.108 97.9102 592.625C98.9767 587.024 97.5549 584.775 97.5549 584.775C97.5549 584.775 87.1592 581.326 85.2184 583.728C80.6355 589.378 75.0824 591.904 73.5547 593.768Z" fill="#161711"/>
<path d="M149.399 588.724L151.128 597.823H160.399C160.399 597.823 160.909 596.535 161.706 596.535C162.36 596.535 163.215 597.823 164.108 597.823H187.686C187.686 597.823 188.108 595.901 187.599 595.248C186.715 594.68 185.74 594.267 184.717 594.028C179.913 592.692 166.231 588.484 163.849 583.921C160.995 578.396 149.399 588.724 149.399 588.724Z" fill="#161711"/>
<path d="M102.811 436.201C102.811 436.201 99.8036 480.81 100.236 504.416C100.553 522.2 100.591 556.298 97.8819 585.362C97.7185 587.139 83.211 585.794 83.211 585.794C83.211 585.794 73.4688 474.594 71.9219 456.378C70.3751 438.161 91.2238 423.144 102.811 436.201Z" fill="#194866"/>
<path d="M145.833 485.537C145.833 485.537 141.74 486.43 128.837 487.554C122.967 488.054 146.035 590.472 146.035 590.472L164.29 582.594L150.541 479.436L145.833 485.537Z" fill="#163F59"/>
<path d="M315.67 485.769C315.332 483.932 315.232 482.059 315.372 480.196C316.679 469.022 316.89 457.589 320.791 436.452C324.634 415.93 332.781 385.473 346.847 350.895C348.211 347.369 374.44 349.348 385.163 352.451C387.498 358.924 389.423 365.538 390.927 372.253C400.151 409.723 404.561 431.35 406.434 449.345C408.356 466.793 407.779 480.647 408.73 489.948C396.529 516.129 351.641 468.869 315.67 485.769Z" fill="#194866"/>
<path d="M338.142 373.04C338.19 374.212 337.345 375.787 336.932 377.411C335.983 380.631 334.801 383.778 333.396 386.827C332.516 388.868 331.759 390.959 331.129 393.091C330.168 389.795 331.811 387.941 331.974 386.365C332.138 384.79 332.263 385.405 330.226 387.221C329.073 388.268 328.977 391.967 328.612 394.34C328.524 395.363 328.195 396.351 327.651 397.222C327.381 395.097 327.329 392.95 327.497 390.814C327.772 387.779 328.4 384.787 329.371 381.898C330.661 379.323 332.118 376.836 333.733 374.452C334.545 372.955 335.048 371.31 335.213 369.616C335.378 367.921 335.201 366.21 334.693 364.585C333.867 361.981 337.95 367.726 338.142 373.04Z" fill="#E9D6B8"/>
<path d="M329.736 381.716C329.736 381.716 326.632 386.904 326.421 388.134C326.277 388.989 326.277 393.139 326.277 393.139C327.007 392.106 327.481 390.914 327.66 389.661C327.756 387.999 329.736 381.716 329.736 381.716Z" fill="#E9D6B8"/>
<path d="M776.612 190.772C818.194 191.848 906.96 190.772 937.205 182.269C967.777 173.622 970.679 65.4578 956.257 49.019C941.529 32.7819 889.262 27.9396 862.995 26.5849C797.508 23.2222 736.768 27.6226 733.819 77.1505C730.763 128.552 731.628 189.6 776.612 190.772Z" fill="#0C6D6A"/>
<path d="M894.2 177.475C894.2 177.475 892.567 200.341 861.534 213.418C861.534 213.418 877.617 181.635 863.176 166.042C854.491 156.684 894.2 177.475 894.2 177.475Z" fill="#0C6D6A"/>
</svg>
