<svg width="403" height="288" viewBox="0 0 403 288" fill="none" xmlns="http://www.w3.org/2000/svg">
<path d="M285.082 220.943C280.698 217.274 278.449 213.879 278.043 213.235L293.464 203.489C293.464 203.489 293.443 203.453 293.396 203.387C293.411 203.406 294.694 205.296 297.261 207.335C300.54 209.938 304.352 211.599 308.588 212.275C313.981 213.133 319.546 211.334 323.266 209.674C327.409 207.822 330.19 205.749 330.215 205.728L343.889 208.372L341.319 220.206C335.977 224.309 327.483 228.362 319.612 229.925C306.552 232.518 294.084 228.477 285.082 220.943Z" fill="#B75742"/>
<path d="M307.394 92.5462L311.013 90.6702L314.611 92.5891C315.02 92.8076 315.502 92.4603 315.426 92.0035L314.761 87.9783L317.695 85.1498C318.031 84.8277 317.85 84.2616 317.391 84.1913L313.36 83.5822L311.577 79.9143C311.374 79.4965 310.781 79.4926 310.572 79.9084L308.748 83.5549L304.711 84.1171C304.25 84.1815 304.065 84.7457 304.395 85.0717L307.296 87.9354L306.584 91.9508C306.504 92.4096 306.982 92.7609 307.394 92.5462" fill="#86B1F2"/>
<path d="M299.805 166.225H121.727V184.874H299.805V166.225" fill="#F47257"/>
<path d="M252.438 232.233C212.281 210.99 168.664 197.915 123.884 193.696C125.544 174.256 127.203 154.816 128.862 135.375C180.638 140.254 231.068 155.372 277.498 179.934C269.145 197.368 260.791 214.8 252.438 232.233Z" fill="#3C8F7C"/>
<path d="M127.832 183.032C128.963 170.908 130.093 158.784 131.224 146.659C135.93 147.143 140.146 144.105 140.658 139.749C183.823 145.173 225.891 157.785 265.282 177.11C263.531 181.093 265.585 186.012 269.825 188.211C264.696 199.136 259.568 210.061 254.44 220.988C250.538 218.963 245.921 220.637 244.171 224.618C209.581 207.648 172.638 196.573 134.732 191.809C135.244 187.458 132.162 183.477 127.832 183.032" fill="#96D9C9"/>
<path d="M220.497 185.033C216.877 195.463 205.714 200.775 195.361 197.591C185.014 194.381 178.366 183.568 180.692 172.741C183.012 161.931 194.498 155.454 206.14 159.057C217.787 162.646 224.112 174.623 220.497 185.033Z" fill="#50BFA5"/>
<path d="M195.275 193.919C195.564 192.756 195.853 191.592 196.141 190.427C194.583 189.92 193.104 189.206 191.921 188.45C190.935 187.821 190.577 186.542 191.11 185.524C191.131 185.484 191.153 185.443 191.174 185.401C191.762 184.281 193.205 183.921 194.296 184.64C195.406 185.37 196.711 186.025 198.165 186.431C200.279 187.023 201.933 186.641 202.316 185.175C202.677 183.784 201.714 182.549 199.155 180.851C195.456 178.406 193.094 175.856 193.91 172.269C194.647 169.02 197.644 167.076 202.011 167.458C202.296 166.293 202.581 165.128 202.867 163.961C204.151 164.317 205.433 164.68 206.714 165.05C206.439 166.126 206.165 167.203 205.89 168.278C207.289 168.746 208.403 169.268 209.308 169.802C210.413 170.454 210.803 171.817 210.199 172.845C209.573 173.906 208.136 174.21 207.022 173.517C206.186 172.997 205.121 172.467 203.761 172.079C201.255 171.367 200.191 172.182 199.941 173.21C199.643 174.427 200.803 175.559 203.732 177.664C207.856 180.518 209.089 183.102 208.184 186.381C207.281 189.631 204.203 191.67 199.804 191.186C199.483 192.433 199.161 193.68 198.839 194.926C197.651 194.584 196.464 194.249 195.275 193.919" fill="#3C8F7C"/>
<path d="M174.561 172.336C164.326 169.973 153.992 168.048 143.586 166.569C143.826 164.7 144.067 162.831 144.307 160.962C154.86 162.461 165.338 164.413 175.717 166.809C175.331 168.651 174.947 170.494 174.561 172.336Z" fill="#50BFA5"/>
<path d="M254.37 200.688C244.844 196.029 235.152 191.786 225.321 187.969C225.943 186.199 226.565 184.429 227.187 182.661C237.158 186.532 246.984 190.833 256.642 195.559C255.885 197.268 255.126 198.979 254.37 200.688Z" fill="#50BFA5"/>
<path d="M271.202 165.509C229.771 174.169 190.317 191.524 154.92 216.661C145.356 200.148 135.793 183.639 126.229 167.128C167.155 138.064 212.772 117.997 260.676 107.984C264.185 127.159 267.694 146.334 271.202 165.509Z" fill="#3C8F7C"/>
<path d="M151.916 205.671C146.023 195.313 140.129 184.955 134.235 174.596C137.977 171.986 139.403 166.889 137.364 163.1C172.237 139.949 210.289 123.21 250.09 113.512C251.008 117.793 255.255 120.395 259.605 119.447C261.882 131.396 264.16 143.345 266.439 155.294C262.434 156.168 259.955 160.436 260.872 164.714C225.922 173.231 192.506 187.93 161.882 208.26C159.844 204.474 155.361 203.269 151.916 205.671Z" fill="#96D9C9"/>
<path d="M221.428 148.306C224.544 158.9 219.254 170.225 209.844 174.28C200.426 178.312 189.517 173.946 185.225 163.858C180.938 153.788 185.822 141.33 196.415 136.787C207.005 132.231 218.321 137.729 221.428 148.306Z" fill="#50BFA5"/>
<path d="M180.475 167.436C171.607 172.07 162.911 177.114 154.409 182.559C153.549 180.92 152.689 179.281 151.83 177.641C160.451 172.12 169.27 167.005 178.261 162.308C178.998 164.017 179.736 165.727 180.475 167.436" fill="#50BFA5"/>
<path d="M255.12 139.202C245.502 141.557 235.995 144.349 226.618 147.57C226.095 145.767 225.573 143.966 225.05 142.163C234.558 138.897 244.199 136.065 253.95 133.677C254.342 135.519 254.73 137.36 255.12 139.202" fill="#50BFA5"/>
<path d="M277.812 201.745C234.725 199.132 191.574 205.459 150.631 220.393C144.995 201.877 139.358 183.36 133.721 164.843C181.059 147.576 230.952 140.26 280.771 143.28C279.786 162.769 278.799 182.257 277.812 201.745Z" fill="#3C8F7C"/>
<path d="M150.212 208.963C146.781 197.373 143.35 185.784 139.919 174.197C144.237 172.663 146.836 168.107 145.697 163.899C185.658 150.748 227.277 144.645 268.991 145.82C268.903 150.208 272.508 153.854 277.041 154.089C276.517 166.258 275.994 178.426 275.469 190.595C271.296 190.378 267.846 193.851 267.759 198.235C231.127 197.202 194.579 202.562 159.489 214.111C158.35 209.907 154.185 207.551 150.212 208.963" fill="#96D9C9"/>
<path d="M232.476 171.888C233.1 182.968 225.218 192.525 214.946 193.954C204.671 195.356 194.872 188.235 192.967 177.333C191.062 166.45 198.803 155.69 210.363 154.103C221.921 152.505 231.859 160.828 232.476 171.888" fill="#50BFA5"/>
<path d="M187.424 179.536C177.556 181.667 167.76 184.242 158.064 187.255C157.593 185.44 157.123 183.626 156.652 181.811C166.485 178.756 176.416 176.146 186.423 173.985C186.757 175.835 187.09 177.686 187.424 179.536Z" fill="#50BFA5"/>
<path d="M267.997 172.018C257.915 171.744 247.839 171.924 237.793 172.553C237.696 170.67 237.597 168.788 237.499 166.904C247.684 166.266 257.901 166.084 268.124 166.36C268.083 168.247 268.038 170.131 267.997 172.018" fill="#50BFA5"/>
<path d="M121.727 166.225V244.637H299.805V166.225H121.727Z" fill="#F47257"/>
<path d="M299.805 224.618H255.739C253.786 224.618 252.202 226.277 252.202 228.323C252.202 230.371 253.786 232.03 255.739 232.03H250.026C248.073 232.03 246.487 233.689 246.487 235.737C246.487 237.783 248.073 239.443 250.026 239.443H251.016C249.062 239.443 247.479 241.102 247.479 243.148C247.479 243.678 247.585 244.181 247.777 244.637H299.805V224.618" fill="#B75742"/>
<path d="M290.397 176.175H128.289V170.086H290.397V176.175Z" fill="#B75742"/>
<path d="M198.905 243.664H125.75C122.446 243.664 119.767 240.984 119.767 237.678V200.952C119.767 197.646 122.446 194.966 125.75 194.966H198.905C202.21 194.966 204.888 197.646 204.888 200.952V237.678C204.888 240.984 202.21 243.664 198.905 243.664" fill="#3C8F7C"/>
<path d="M146.201 216.844H125.24V204.65H146.201V216.844Z" fill="#F7CC7F"/>
<path d="M199.499 203.838H162.327V201.561H199.499V203.838Z" fill="#F7CC7F"/>
<path d="M196.737 230.385H128.327V227.573H196.737V230.385Z" fill="#F7CC7F"/>
<path d="M196.737 237.007H128.327V234.194H196.737V237.007Z" fill="#F7CC7F"/>
<path d="M205.933 188.266H130.348V186.245H205.933V188.266Z" fill="#B75742"/>
<path d="M262.977 146.671C268.319 154.284 266.48 164.789 258.868 170.131C251.258 175.475 240.761 173.635 235.421 166.022C230.079 158.408 231.919 147.903 239.528 142.561C247.138 137.217 257.637 139.057 262.977 146.671Z" fill="#FAE0B2"/>
<path d="M260.761 148.227C265.243 154.617 263.698 163.429 257.313 167.914C250.928 172.398 242.118 170.853 237.636 164.465C233.155 158.075 234.697 149.261 241.084 144.778C247.468 140.294 256.278 141.839 260.761 148.227Z" fill="#F7CC7F"/>
<path d="M278.858 200.573C284.199 208.186 282.359 218.69 274.749 224.034C267.138 229.376 256.64 227.536 251.301 219.922C245.959 212.309 247.799 201.806 255.409 196.462C263.018 191.119 273.516 192.96 278.858 200.573" fill="#FAE0B2"/>
<path d="M276.641 202.13C281.123 208.518 279.579 217.332 273.195 221.816C266.808 226.3 257.999 224.755 253.518 218.366C249.035 211.978 250.579 203.164 256.965 198.68C263.348 194.197 272.16 195.74 276.641 202.13Z" fill="#F7CC7F"/>
<path d="M266.71 220.189L266.093 217.911C265.053 218.144 263.991 218.223 263.085 218.176C262.329 218.137 261.735 217.518 261.725 216.76L261.723 216.67C261.713 215.836 262.413 215.163 263.245 215.217C264.093 215.273 265.026 215.215 265.966 214.962C267.331 214.593 268.122 213.813 267.863 212.854C267.618 211.942 266.695 211.575 264.759 211.455C261.962 211.285 259.889 210.56 259.262 208.234C258.689 206.124 259.729 204.068 262.157 202.871L261.541 200.593L263.89 199.958L264.46 202.068C265.342 201.872 266.089 201.794 266.732 201.793C267.516 201.79 268.154 202.425 268.164 203.21C268.174 204.022 267.511 204.683 266.7 204.664C266.093 204.65 265.362 204.706 264.514 204.935C262.957 205.357 262.635 206.163 262.816 206.834C263.03 207.626 264.005 207.903 266.249 208.119C269.374 208.354 270.879 209.362 271.462 211.519C272.039 213.653 271.023 215.883 268.396 217.109L269.057 219.554L266.71 220.189" fill="white"/>
<path d="M249.196 189.163C249.196 198.465 241.66 206.005 232.362 206.005C223.065 206.005 215.528 198.465 215.528 189.163C215.528 179.862 223.065 172.322 232.362 172.322C241.66 172.322 249.196 179.862 249.196 189.163Z" fill="#FAE0B2"/>
<path d="M246.489 189.162C246.489 196.967 240.164 203.296 232.363 203.296C224.563 203.296 218.238 196.967 218.238 189.162C218.238 181.357 224.563 175.03 232.363 175.03C240.164 175.03 246.489 181.357 246.489 189.162Z" fill="#F7CC7F"/>
<path d="M290.397 239.754H214.156V198.876H290.397V239.754Z" fill="#F48C7F"/>
<path d="M252.202 228.324C252.202 230.371 253.785 232.03 255.738 232.03H250.025C248.072 232.03 246.486 233.689 246.486 235.737C246.486 237.783 248.072 239.443 250.025 239.443H251.015C250.509 239.443 250.03 239.554 249.593 239.754H290.397V224.619H255.738C253.785 224.619 252.202 226.277 252.202 228.324" fill="#B75742"/>
<path d="M59.4006 243.442C59.4006 244.102 59.8969 244.637 60.5093 244.637H336.921C337.535 244.637 338.031 244.102 338.031 243.442C338.031 242.781 337.535 242.247 336.921 242.247H60.5093C59.8969 242.247 59.4006 242.781 59.4006 243.442Z" fill="#13375B"/>
<path d="M300.25 246.855H254.745C252.919 246.855 251.439 245.375 251.439 243.547C251.439 241.721 252.919 240.24 254.745 240.24H300.25C302.077 240.24 303.556 241.721 303.556 243.547C303.556 245.375 302.077 246.855 300.25 246.855Z" fill="#F7CC7F"/>
<path d="M299.327 240.239H253.822C251.997 240.239 250.516 238.759 250.516 236.932C250.516 235.106 251.997 233.624 253.822 233.624H299.327C301.152 233.624 302.634 235.106 302.634 236.932C302.634 238.759 301.152 240.239 299.327 240.239Z" fill="#FAE0B2"/>
<path d="M304.667 233.624H259.161C257.335 233.624 255.856 232.144 255.856 230.316C255.856 228.49 257.335 227.009 259.161 227.009H304.667C306.492 227.009 307.973 228.49 307.973 230.316C307.973 232.144 306.492 233.624 304.667 233.624Z" fill="#F7CC7F"/>
<path d="M246.787 90.394L247.367 94.312L241.166 95.9409L241.307 101.775L236.866 103.752L237.867 106.001L243.805 103.356L243.673 97.8278L250.123 96.1344L249.251 90.2374L246.787 90.394" fill="#466EB6"/>
<path d="M171.212 80.1144L167.452 80.496L166.171 74.5128L160.607 74.3933L158.916 70.0733L156.729 70.9287L158.991 76.7074L164.264 76.8211L165.598 83.0463L171.253 82.4717L171.212 80.1144" fill="#50BFA5"/>
<path d="M214.651 75.6391L218.673 76.9659C218.673 76.9659 225.05 74.8999 225.676 73.599C226.304 72.2996 226.481 69.1449 227.389 69.0583C228.297 68.9717 230.049 69.2677 230.467 71.4261C230.77 72.9941 228.476 77.5232 228.835 78.0055C229.059 78.3072 231.347 79.136 233.03 79.7149C234.137 80.0946 234.935 81.0692 235.105 82.2444V82.2473C235.221 83.0414 234.77 83.8153 234.027 84.1026L232.87 84.5502L233.241 85.7442C233.515 86.635 233.027 87.5908 232.15 87.8853L231.254 88.1856L231.541 88.9133C231.909 89.8517 231.389 90.9144 230.427 91.1945L229.645 91.4226L229.676 91.6319C229.812 92.5011 229.267 93.3385 228.422 93.5594L227.646 93.7644L216.935 90.2271C215.933 89.8965 215.009 89.3594 214.221 88.6505L210.665 86.7721C210.281 86.57 210.107 86.1138 210.25 85.698L213.547 76.1978C213.707 75.7387 214.198 75.4904 214.651 75.6391" fill="#FAE0B2"/>
<path d="M151.036 118.199L151.888 113.977L155.846 112.285C156.298 112.092 156.332 111.466 155.905 111.224L152.154 109.11L151.77 104.82C151.725 104.331 151.141 104.105 150.78 104.437L147.61 107.352L143.413 106.393C142.935 106.283 142.539 106.77 142.743 107.217L144.535 111.132L142.326 114.83C142.074 115.25 142.415 115.777 142.902 115.721L147.179 115.227L150.01 118.472C150.334 118.84 150.939 118.68 151.036 118.199" fill="#F7CC7F"/>
<path d="M99.3708 221.908C99.3708 221.908 94.0938 225.714 93.2627 226.85C92.0658 228.486 102.203 231.545 101.097 229.63C100.842 229.189 100.112 227.707 100.081 227.562C99.9108 226.781 102.061 224.682 102.061 224.682L99.3708 221.908" fill="#F7A491"/>
<path d="M103.838 232.831L100.255 227.765C100.255 227.765 98.0178 227.244 95.7215 224.659C95.7215 224.659 93.6577 225.448 92.3879 227.156C92.3879 227.156 94.7872 229.742 98.4827 232.654C98.4827 232.654 100.673 234.595 103.702 235.619C106.73 236.643 103.838 232.831 103.838 232.831Z" fill="#F7CC7F"/>
<path d="M55.2714 152.536C55.2714 152.536 55.92 153.111 56.1495 153.285C56.4187 153.489 57.2699 154.042 57.2699 154.042C57.2699 154.042 60.3498 155.795 60.4541 155.565C60.5588 155.334 60.5542 154.669 60.4019 154.495C60.2496 154.319 59.806 154.139 59.6538 153.963C59.5016 153.789 59.4495 153.436 59.6454 153.24C59.8413 153.045 60.8939 153.621 60.8939 153.621C60.8939 153.621 61.7465 154.094 62.1029 154.666C63.3379 156.649 62.9635 156.764 63.1286 157.015C63.3241 157.311 67.6438 159.273 67.6438 159.273C67.6438 159.273 80.5592 164.645 81.2553 164.938H81.2641C81.3583 165.537 81.0382 166.087 80.8739 166.617C80.5651 168.463 80.0159 168.585 79.5971 170.365C77.6161 169.363 63.9034 161.804 62.5095 161.016C62.5095 161.016 60.4213 160.661 59.1162 160.393C57.811 160.126 56.6737 159.3 56.3161 159.169C56.2632 159.15 55.0954 158.646 53.8116 157.651C52.705 156.793 54.1337 157.115 54.1337 157.115C54.1337 157.115 56.4593 158.349 56.5194 158.154C56.5661 158.002 55.2585 157.402 54.0246 156.466C53.7074 156.224 53.3952 155.985 53.11 155.763C52.3615 155.181 52.4923 154.571 53.3693 155.059C53.679 155.232 54.1866 155.53 54.52 155.792C54.8801 156.077 55.2995 156.225 55.6373 156.418C56.3083 156.803 56.7926 157.092 56.7927 157.056C56.7927 157.01 56.977 156.994 56.6478 156.729C56.2522 156.41 55.2664 155.91 54.7197 155.396C54.41 155.105 53.7262 154.535 53.7262 154.535C53.7262 154.535 52.8488 153.485 52.8917 153.416C53.1239 153.039 53.9211 153.595 54.2918 154.042C54.6717 154.212 55.3745 154.833 55.3745 154.833C55.3745 154.833 57.0688 155.779 57.1995 155.547C57.255 155.449 56.2818 154.747 55.4315 153.914C54.642 153.14 53.9676 152.234 54.0929 152.061C54.3055 151.767 55.2714 152.536 55.2714 152.536Z" fill="#F8A492"/>
<path d="M91.2996 182.788L92.1349 186.918L113.118 206.013L98.0982 221.221L102.154 225.367C102.154 225.367 124.337 209.071 125.137 206.935C126.368 203.646 109.235 181.866 109.235 181.866L91.2996 182.788Z" fill="#B75742"/>
<path d="M76.7494 232.733C76.7494 232.733 72.5162 237.348 71.6853 238.484C70.4882 240.12 79.4274 242.535 78.3211 240.62C78.0667 240.179 77.337 238.696 77.3051 238.55C77.1353 237.771 79.2855 235.67 79.2855 235.67L76.7494 232.733" fill="#F7A491"/>
<path d="M83.0335 240.473L77.2072 238.342C77.2072 238.342 75.0053 239.344 71.6476 238.523C71.6476 238.523 70.463 240.188 70.3889 242.315C70.3889 242.315 81.432 243.724 84.5052 242.845C87.5783 241.965 83.0335 240.473 83.0335 240.473" fill="#F7CC7F"/>
<path d="M92.0177 184.702L92.96 210.758L74.3416 233.598L79.3785 236.357C79.3785 236.357 99.9744 218.671 102.236 213.745C103.639 210.689 108.358 183.069 108.358 183.069L92.0177 184.702Z" fill="#F47458"/>
<path d="M108.943 182.563C107.237 178.71 107.434 151.083 100.792 144.612C98.4554 145.008 96.7887 145.228 96.3986 145.332C96.0521 148.177 95.6708 158.62 95.4366 168.192C95.2806 174.567 95.4417 181.254 94.6567 184.779C94.17 186.964 110.502 186.084 108.943 182.563Z" fill="#FAE0B2"/>
<path d="M90.9647 146.758C89.1002 147.182 87.7273 147.48 85.2835 151.093C82.9438 154.551 77.749 162.756 77.749 162.756L64.0661 156.675L63.4265 163.608C63.4265 163.608 78.9058 171.659 81.0897 170.934C83.2737 170.208 89.414 161.228 89.8681 160.622C89.9747 160.479 89.3527 170.214 89.3527 171.769C89.3527 173.323 86.3852 186.863 86.3852 186.863C86.3852 186.863 93.9149 188.718 95.3846 185.35C99.8903 175.023 96.4317 145.322 96.4317 145.322C96.4317 145.322 92.3062 146.451 90.9647 146.758" fill="#466EB6"/>
<path d="M119.07 117.19C118.495 116.709 118.244 115.554 118.149 114.811L117.893 113.828C118.127 113.731 122.69 113.082 124.066 113.046C124.2 113.482 124.267 113.851 124.224 114.085C124.019 115.21 122.583 122.517 122.583 122.517L118.653 122.594C118.653 122.594 119.508 118.263 119.07 117.19" fill="#F7A491"/>
<path d="M102.332 146.229C102.332 146.229 105.028 153.906 107.247 152.8C109.466 151.694 121.931 138.979 122.055 138.365C122.178 137.75 123.041 122.144 123.041 122.144L118.11 121.161L115.275 133.941C115.275 133.941 106.153 142.665 104.304 143.526C102.455 144.386 102.332 146.229 102.332 146.229" fill="#466EB6"/>
<path d="M109.611 184.411C111.103 184.411 111.654 184.203 112.648 183.905C112.648 183.905 109.806 167.877 108.153 151.982C107.501 145.703 106.895 143.129 104.306 143.584C103.557 143.715 101.529 144.488 100.792 144.612C107.299 163.03 107.321 177.205 108.242 181.316C108.704 183.38 109.107 184.424 109.611 184.411" fill="#466EB6"/>
<path d="M100.106 141.83L100.788 144.612C100.788 144.612 100.943 147.036 99.8193 147.253C98.4639 147.515 96.4497 145.486 96.4497 145.486L95.2832 137.638L100.106 141.83Z" fill="#F7A491"/>
<path d="M100.106 141.83L100.788 144.612C100.788 144.612 100.943 147.036 99.8193 147.253C98.4639 147.515 96.4497 145.486 96.4497 145.486L95.2832 137.638L100.106 141.83Z" fill="#F7A491"/>
<path d="M95.2947 137.674L100.106 141.83L100.615 143.908C98.7762 143.466 96.1542 141.441 95.2947 137.674Z" fill="#F47458"/>
<path d="M100.122 130.455C101.286 130.451 102.333 131.259 102.742 132.421C103.081 133.383 103.516 134.811 103.792 136.449C104.301 139.467 102.583 142.23 101.089 142.451C99.5945 142.671 96.0343 141.68 95.247 137.405C94.9095 135.573 94.4655 133.17 95.9718 131.907C97.1437 130.925 98.785 130.458 100.122 130.455" fill="#F7A491"/>
<path d="M95.7325 140.662C95.7325 140.662 90.464 135.965 90.234 132.296C90.004 128.625 93.3917 126.66 96.2884 126.557C97.597 126.511 98.4823 126.57 99.8335 126.74C102.736 127.106 104.617 128.393 103.954 130.772C103.066 133.966 97.0423 131.272 95.8108 132.263C94.7945 133.082 96.4421 135.049 95.4547 135.799C94.5268 136.505 94.9995 136.266 95.3068 137.608C95.6139 138.95 95.7325 140.662 95.7325 140.662" fill="#184655"/>
<path d="M93.7009 136.407C93.8316 137.287 94.3689 137.936 94.9011 137.857C95.4334 137.779 95.7591 137.002 95.6284 136.123C95.4979 135.243 94.9606 134.594 94.4283 134.673C93.8959 134.751 93.5704 135.529 93.7009 136.407Z" fill="#F7A491"/>
<path d="M119.337 113.816C119.337 113.816 120.19 114.3 121.039 115.425C121.039 115.425 123.261 114 123.183 113.548C123.08 112.949 120.808 114.061 120.808 114.061L119.337 113.816" fill="#F47458"/>
<path d="M62.0471 84.3026L122.039 115.208C125.267 116.871 129.348 115.374 131.155 111.864L146.474 82.0948C148.281 78.5856 147.128 74.3921 143.9 72.7287L83.9082 41.8249C80.6802 40.1615 76.5988 41.6592 74.7925 45.1684L59.4724 74.9364C57.666 78.4472 58.8189 82.6407 62.0471 84.3026Z" fill="#96D9C9"/>
<path d="M131.499 111.194L59.8167 74.2679L64.4642 65.2362L136.147 102.164L131.499 111.194Z" fill="#355389"/>
<path d="M94.0034 62.9955L78.2063 54.8413L82.7278 46.074L98.5248 54.2298L94.0034 62.9955Z" fill="#F7CC7F"/>
<path d="M119.32 113.769C119.216 113.486 119.011 113.092 119.112 112.938C119.751 111.96 119.062 110.897 118.596 111.728C118.326 112.212 117.853 113.275 117.893 113.828C117.922 114.228 118.328 115.754 118.328 115.754C118.328 115.754 119.912 115.368 119.32 113.769" fill="#F7A491"/>
<path d="M300.043 216.606C300.043 216.606 299.673 221.208 299.974 222.703C300.133 223.504 301.027 225.153 300.617 225.906C300.209 226.659 299.738 226.848 299.738 226.848L289.117 227.016C288.539 227.025 288.919 226.659 289.387 226.322C290.149 225.769 290.766 225.403 293.206 224.243C293.366 224.166 293.945 223.805 294.153 223.68C294.683 223.361 295.215 222.86 295.673 222.359C296.436 221.522 296.502 217.47 296.502 217.47L300.043 216.606" fill="#F7A491"/>
<path d="M291.741 155.447C291.741 155.447 287.174 153.195 288.053 158.092C288.931 162.991 295.62 218.068 295.62 218.068L301.885 218.415C301.885 218.415 302.686 200.052 302.509 197.416C302.335 194.779 301.297 190.699 301.297 190.699L300.766 174.409L294.855 154.295L291.741 155.447Z" fill="#355389"/>
<path d="M294.153 223.678C296.962 224.388 299.039 223.906 300.202 223.445C300.501 224.28 300.898 225.328 300.687 225.932C300.431 226.672 300.093 227.002 299.77 227.009C297.204 227.075 290.339 227.005 288.382 227.029C288.109 227.033 287.959 226.72 288.135 226.512C288.62 225.942 293.944 223.805 294.153 223.678" fill="#3C8F7C"/>
<path d="M288.053 122.346C288.053 122.346 284.194 114.915 283.594 112.187C282.995 109.458 280.921 95.7201 281.096 94.8361C281.271 93.9503 284.551 91.8215 284.146 91.0701C283.741 90.3187 280.617 90.3169 279.901 90.3806C279.185 90.446 277.749 90.8632 277.134 91.3707C276.519 91.8781 277.826 108.342 278.215 111.887C278.606 115.431 283.404 126.347 283.404 126.347L288.053 122.346" fill="#F7A491"/>
<path d="M318.129 180.262C318.129 180.262 321.314 176.921 322.024 175.572C322.401 174.849 322.746 173.006 323.539 172.679C324.331 172.352 324.814 172.5 324.814 172.5L333.169 179.065C333.625 179.424 333.097 179.467 332.522 179.435C331.58 179.382 330.872 179.278 328.246 178.642C328.074 178.6 327.397 178.517 327.157 178.482C326.545 178.396 325.817 178.449 325.145 178.55C324.026 178.718 321.422 181.823 321.422 181.823L318.129 180.262Z" fill="#F7A491"/>
<path d="M327.157 178.482C325.421 176.161 323.506 175.226 322.311 174.852C322.606 174.014 322.926 172.919 323.471 172.582C324.137 172.17 324.596 172.255 324.854 172.454C326.888 174.019 332.213 178.303 333.748 179.517C333.963 179.687 333.883 180.026 333.617 180.076C332.879 180.213 327.398 178.516 327.157 178.482" fill="#3C8F7C"/>
<path d="M318.204 120.083C316.223 115.924 311.832 113.634 307.578 114.742C306.052 112.676 303.693 111.231 301.236 110.883C296.392 110.196 290.141 112.547 290.78 117.606C289.25 121.145 289.623 126.022 292.68 128.412C292.12 133.064 296.78 137.19 302.299 136.633C304.519 139.699 308.378 141.497 311.988 140.797C312.854 140.629 314.169 140.313 314.396 140.352C314.113 140.321 320.687 144.629 325.222 136.957C329.85 129.128 325.293 120.376 318.204 120.083" fill="#184655"/>
<path d="M289.901 157.223C289.901 157.223 300.14 152.668 300.301 153.186C301.585 157.323 305.579 155.988 307.951 163.275C308.942 166.326 309.964 186.623 309.964 186.623C309.964 186.623 314 183.271 319.77 177.413C320.212 176.963 324.551 181.09 324.551 181.09C313.098 196.572 308.158 197.38 306.246 196.513C302.258 194.704 293.84 169.393 293.854 169.396C292.842 167.426 289.901 157.223 289.901 157.223" fill="#466EB6"/>
<path d="M306.879 128.629C306.879 128.629 321.678 128.61 324.849 128.427C327.714 128.262 339.092 128.552 339.535 128.5C339.981 128.448 342.919 123.466 343.41 124.001C343.896 124.536 341.773 126.472 342.431 126.974C343.087 127.476 350.145 126.351 350.053 126.873C349.876 127.85 345.759 127.726 345.763 128.198C345.768 128.669 350.074 127.933 350.365 128.716C350.657 129.499 346.224 129.035 346.045 129.385C345.869 129.734 350.16 130.374 349.719 131.102C349.481 131.498 345.918 130.442 345.937 130.981C345.955 131.52 348.553 132.747 348.235 133.176C347.914 133.606 346.193 131.858 344.685 131.836C343.18 131.815 342.097 131.028 339.692 131.688C338.503 132.015 329.429 133.124 321.759 133.78C313.899 134.452 307.453 134.666 307.453 134.666L306.879 128.629" fill="#F7A491"/>
<path d="M284.93 139.098C284.735 136.721 285.203 134.889 285.309 134.101C284.591 131.631 283.062 126.362 282.512 125.327C282.512 125.327 285.089 120.373 287.727 120.407C287.727 120.407 290.421 126.482 292.504 127.569C292.533 127.561 293.24 127.884 293.551 127.882C295.561 127.867 302.59 127.654 303.901 127.631L303.163 137.605C298.071 147.593 299.449 152.833 301.386 154.771C302.299 155.683 288.68 159.384 288.053 158.092C287.313 156.57 285.327 143.904 284.93 139.098" fill="#F7CC7F"/>
<path d="M300.331 128.007C301.626 127.388 311.007 127.698 311.007 127.698C311.007 127.698 312.318 134.234 311.258 135.804C311.258 135.804 302.872 137.053 303.109 137.741L300.331 128.007" fill="#F7CC7F"/>
<path d="M297.872 123.808C297.872 123.808 297.706 127.372 297.874 128.856C298.04 130.341 296.353 133.822 293.208 133.882C290.063 133.943 292.745 130.543 293.021 129.082C293.297 127.621 293.626 121.902 293.626 121.902L297.872 123.808Z" fill="#F7A491"/>
<path d="M293.626 121.902C293.626 121.902 293.55 123.23 293.44 124.769C294.43 125.953 295.956 126.557 297.808 125.837C297.828 124.733 297.871 123.808 297.871 123.808L293.626 121.902" fill="#F47458"/>
<path d="M298.132 113.188C298.132 113.188 299.913 113.72 300.911 115.502C301.91 117.285 302.331 122.358 298.492 124.447C294.651 126.537 292.019 123.025 292.195 119.789C292.369 116.553 293.36 112.286 298.132 113.188Z" fill="#F7A491"/>
<path d="M291.423 118.718C291.682 119.52 292.271 120.047 292.739 119.896C293.205 119.744 293.374 118.971 293.113 118.17C292.854 117.368 292.263 116.841 291.797 116.992C291.329 117.144 291.162 117.917 291.423 118.718" fill="#F7A491"/>
<path d="M297.596 113.044C297.596 113.044 299.545 118.378 301.541 118.98C303.532 119.582 303.324 122.184 303.324 122.184C303.324 122.184 303.694 116.167 301.889 114.657C300.085 113.147 297.596 113.044 297.596 113.044" fill="#184655"/>
<path d="M300.661 120C300.337 120.822 300.525 121.666 301.081 121.885C301.635 122.105 302.349 121.616 302.672 120.794C302.997 119.972 302.81 119.128 302.254 118.909C301.7 118.689 300.986 119.178 300.661 120Z" fill="#F7A491"/>
<path d="M276.576 92.6385C276.576 92.6385 280.912 92.8281 281.422 92.8281C281.93 92.8281 283.413 91.2956 283.413 91.2956L276.576 92.6385Z" fill="#F47458"/>
<path d="M290.769 66.3092C296.109 73.9228 294.269 84.4263 286.661 89.7698C279.051 95.1134 268.553 93.2722 263.212 85.6586C257.87 78.045 259.71 67.5415 267.32 62.198C274.929 56.8545 285.428 58.6956 290.769 66.3092Z" fill="#FAE0B2"/>
<path d="M288.552 67.8655C293.034 74.2543 291.491 83.0676 285.104 87.5517C278.718 92.0357 269.909 90.4907 265.427 84.1019C260.945 77.7131 262.49 68.8997 268.875 64.4157C275.261 59.9317 284.072 61.4767 288.552 67.8655Z" fill="#F7CC7F"/>
<path d="M281.422 92.8264L283.212 91.2177C283.212 91.2177 282.368 90.2074 282.718 90.0137C283.29 89.6979 284.267 90.9176 284.18 91.2142C284.092 91.5108 283.043 92.467 283.043 92.467L281.422 92.8264" fill="#F7A491"/>
<g clip-path="url(#clip0)">
<path d="M244.908 164.075L247.404 163.032L248.351 165.297C248.397 165.407 248.468 165.483 248.564 165.526C248.661 165.569 248.761 165.569 248.865 165.525L250.725 164.747C250.822 164.707 250.89 164.637 250.931 164.536C250.972 164.436 250.97 164.331 250.924 164.221L249.977 161.956L255.602 159.604C255.706 159.561 255.777 159.49 255.814 159.391C255.851 159.292 255.847 159.188 255.801 159.078L255.17 157.568C255.124 157.458 255.052 157.381 254.956 157.339C254.86 157.296 254.759 157.296 254.655 157.34L249.03 159.692L248.448 158.3L252.235 156.716C253.72 156.095 254.732 155.109 255.27 153.757C255.809 152.405 255.761 150.97 255.126 149.452C254.492 147.935 253.504 146.893 252.164 146.326C250.823 145.76 249.41 145.787 247.925 146.408L241.921 148.918C241.817 148.962 241.747 149.033 241.709 149.132C241.672 149.23 241.676 149.335 241.722 149.445L244.824 156.864L242.329 157.907C242.225 157.951 242.156 158.024 242.12 158.126C242.084 158.229 242.088 158.331 242.131 158.433L242.865 160.191C242.911 160.301 242.982 160.377 243.079 160.42C243.176 160.463 243.275 160.463 243.38 160.419L245.875 159.376L246.457 160.767L243.962 161.811C243.858 161.854 243.787 161.925 243.75 162.024C243.712 162.123 243.717 162.228 243.763 162.337L244.394 163.847C244.44 163.957 244.511 164.034 244.608 164.076C244.704 164.119 244.804 164.119 244.908 164.075ZM245.188 150.504L248.753 149.014C249.54 148.685 250.277 148.663 250.963 148.948C251.65 149.234 252.158 149.77 252.486 150.556C252.815 151.343 252.84 152.081 252.561 152.77C252.282 153.46 251.749 153.969 250.962 154.298L247.398 155.788L245.188 150.504Z" fill="white"/>
</g>
<g clip-path="url(#clip1)">
<path d="M223.247 191.242L225.706 192.369L224.683 194.601C224.633 194.709 224.625 194.813 224.659 194.913C224.693 195.013 224.761 195.087 224.864 195.134L226.697 195.974C226.792 196.018 226.89 196.02 226.992 195.982C227.093 195.945 227.168 195.872 227.218 195.763L228.241 193.532L233.784 196.072C233.886 196.119 233.986 196.123 234.084 196.084C234.182 196.044 234.256 195.97 234.306 195.862L234.987 194.374C235.037 194.266 235.045 194.162 235.011 194.062C234.977 193.962 234.909 193.888 234.807 193.841L229.264 191.3L229.892 189.929L233.624 191.64C235.088 192.31 236.498 192.386 237.858 191.865C239.216 191.344 240.238 190.336 240.924 188.841C241.609 187.346 241.706 185.913 241.214 184.543C240.721 183.175 239.744 182.154 238.28 181.483L232.365 178.771C232.262 178.724 232.162 178.721 232.064 178.76C231.966 178.8 231.892 178.874 231.843 178.982L228.492 186.292L226.033 185.165C225.931 185.118 225.83 185.116 225.73 185.159C225.631 185.203 225.558 185.275 225.512 185.375L224.718 187.107C224.668 187.215 224.66 187.319 224.694 187.419C224.728 187.52 224.796 187.593 224.899 187.64L227.357 188.767L226.729 190.138L224.27 189.011C224.168 188.964 224.068 188.961 223.97 189C223.872 189.039 223.798 189.114 223.748 189.222L223.066 190.709C223.017 190.818 223.009 190.922 223.043 191.022C223.077 191.122 223.145 191.195 223.247 191.242ZM233.414 182.248L236.926 183.858C237.701 184.213 238.217 184.74 238.472 185.439C238.728 186.137 238.678 186.874 238.323 187.648C237.968 188.423 237.442 188.942 236.746 189.204C236.05 189.466 235.315 189.42 234.539 189.064L231.027 187.454L233.414 182.248Z" fill="white"/>
</g>
<path d="M270.159 82.1361H272.864V84.591C272.864 84.7104 272.9 84.8082 272.973 84.8846C273.045 84.9615 273.138 85 273.25 85H275.267C275.371 85 275.462 84.9615 275.538 84.8846C275.615 84.8082 275.653 84.7104 275.653 84.591V82.1361H281.75C281.863 82.1361 281.955 82.0981 282.028 82.0212C282.101 81.9444 282.137 81.8465 282.137 81.7271V80.0906C282.137 79.9719 282.101 79.8734 282.028 79.797C281.956 79.7201 281.863 79.6816 281.75 79.6816H275.653V78.173H279.758C281.368 78.173 282.682 77.6537 283.7 76.6135C284.718 75.5743 285.227 74.232 285.227 72.5865C285.227 70.9421 284.718 69.5998 283.7 68.5596C282.682 67.5204 281.368 67 279.758 67H273.25C273.137 67 273.045 67.0384 272.973 67.1149C272.9 67.1918 272.864 67.2902 272.864 67.409V75.4504H270.159C270.047 75.4504 269.954 75.4908 269.882 75.5717C269.809 75.6527 269.773 75.7486 269.773 75.8593V77.764C269.773 77.8834 269.809 77.9813 269.882 78.0581C269.954 78.135 270.046 78.173 270.159 78.173H272.864V79.6816H270.159C270.047 79.6816 269.954 79.72 269.882 79.797C269.809 79.8734 269.773 79.9717 269.773 80.0906V81.727C269.773 81.8465 269.809 81.9443 269.882 82.0212C269.954 82.0981 270.047 82.1361 270.159 82.1361ZM275.653 69.7233H279.516C280.37 69.7233 281.058 69.9874 281.581 70.5158C282.104 71.0442 282.366 71.7348 282.366 72.5867C282.366 73.4391 282.104 74.1299 281.581 74.6577C281.058 75.1865 280.37 75.4506 279.516 75.4506H275.653V69.7233Z" fill="white"/>
<g clip-path="url(#clip2)">
<path d="M183.174 73.1063L186.764 73.814L186.131 77.0253C186.1 77.1816 186.123 77.3189 186.199 77.4379C186.276 77.5575 186.389 77.632 186.538 77.6615L189.215 78.1891C189.354 78.2165 189.484 78.1899 189.605 78.1092C189.726 78.0293 189.802 77.9113 189.833 77.7551L190.466 74.5437L198.559 76.1392C198.709 76.1686 198.842 76.1432 198.958 76.0616C199.074 75.98 199.147 75.8615 199.178 75.7052L199.6 73.5645C199.63 73.4092 199.608 73.2709 199.531 73.1519C199.455 73.0324 199.342 72.9578 199.192 72.9283L191.099 71.3328L191.488 69.3594L196.937 70.4335C199.074 70.8547 200.951 70.5191 202.572 69.4249C204.191 68.3319 205.213 66.7093 205.638 64.5567C206.062 62.4055 205.732 60.5162 204.649 58.8891C203.565 57.2633 201.955 56.2386 199.818 55.8174L191.18 54.1146C191.03 54.0851 190.897 54.1112 190.781 54.1922C190.665 54.2739 190.592 54.3931 190.561 54.5485L188.488 65.0679L184.898 64.3603C184.748 64.3308 184.615 64.3594 184.498 64.4463C184.381 64.5333 184.308 64.6492 184.279 64.7941L183.788 67.2857C183.757 67.4419 183.78 67.5794 183.857 67.6989C183.933 67.8185 184.046 67.8923 184.196 67.9219L187.786 68.6296L187.397 70.6031L183.807 69.8954C183.657 69.8659 183.524 69.892 183.408 69.9736C183.292 70.0547 183.219 70.1737 183.188 70.3293L182.766 72.47C182.735 72.6263 182.758 72.7637 182.835 72.8832C182.911 73.0029 183.024 73.0767 183.174 73.1063ZM193.667 58.3058L198.795 59.3167C199.928 59.54 200.773 60.0655 201.331 60.8937C201.889 61.7218 202.059 62.6937 201.839 63.8081C201.619 64.9232 201.094 65.7583 200.263 66.3119C199.432 66.8668 198.451 67.0322 197.318 66.809L192.19 65.798L193.667 58.3058Z" fill="#96D9C9"/>
</g>
<g clip-path="url(#clip3)">
<path d="M181.674 115.336L184.746 113.639L186.264 116.388C186.337 116.521 186.439 116.608 186.569 116.648C186.698 116.689 186.827 116.674 186.956 116.603L189.246 115.338C189.365 115.273 189.444 115.173 189.483 115.039C189.523 114.905 189.506 114.772 189.432 114.638L187.914 111.89L194.841 108.065C194.968 107.995 195.05 107.894 195.085 107.762C195.12 107.631 195.101 107.499 195.027 107.365L194.015 105.533C193.942 105.4 193.84 105.312 193.71 105.272C193.58 105.232 193.451 105.247 193.323 105.317L186.397 109.142L185.464 107.453L190.127 104.878C191.956 103.869 193.128 102.463 193.642 100.66C194.156 98.8576 193.905 97.0354 192.887 95.1932C191.871 93.3523 190.462 92.169 188.663 91.6431C186.864 91.1186 185.049 91.3602 183.221 92.3699L175.828 96.452C175.7 96.5227 175.619 96.6237 175.584 96.7548C175.549 96.8863 175.568 97.0193 175.642 97.1523L180.613 106.155L177.541 107.851C177.413 107.922 177.333 108.025 177.3 108.161C177.268 108.297 177.286 108.427 177.355 108.551L178.532 110.684C178.606 110.817 178.707 110.904 178.837 110.945C178.967 110.985 179.096 110.97 179.224 110.899L182.296 109.203L183.229 110.891L180.156 112.588C180.028 112.659 179.947 112.76 179.912 112.891C179.877 113.022 179.897 113.155 179.97 113.288L180.982 115.12C181.056 115.254 181.157 115.341 181.287 115.381C181.417 115.422 181.546 115.407 181.674 115.336ZM180.241 97.9937L184.63 95.5702C185.599 95.035 186.544 94.8991 187.465 95.1623C188.386 95.4258 189.11 96.0348 189.637 96.9885C190.164 97.9427 190.293 98.8802 190.025 99.7992C189.758 100.72 189.139 101.447 188.17 101.982L183.781 104.406L180.241 97.9937Z" fill="#86B1F2"/>
</g>
<defs>
<clipPath id="clip0">
<rect width="17" height="18" fill="white" transform="translate(238 150.558) rotate(-22.6912)"/>
</clipPath>
<clipPath id="clip1">
<rect width="17" height="18" fill="white" transform="translate(228.501 177) rotate(24.628)"/>
</clipPath>
<clipPath id="clip2">
<rect width="23" height="24" fill="white" transform="translate(185.538 53.0024) rotate(11.1516)"/>
</clipPath>
<clipPath id="clip3">
<rect width="22.0601" height="23.0192" fill="white" transform="translate(171 99.1179) rotate(-28.9068)"/>
</clipPath>
</defs>
</svg>
