<svg width="383" height="186" viewBox="0 0 383 186" fill="none" xmlns="http://www.w3.org/2000/svg">
<g clip-path="url(#clip0)">
<path d="M198.737 161.255C191.336 160.764 182.8 159.472 176.069 157.531C174.808 157.167 169.587 155.256 168.259 154.649C144.822 143.839 128.495 120.241 128.495 92.8635C128.495 55.3129 159.175 24.7264 196.91 24.7264C234.309 24.7264 264.782 54.7912 265.306 91.9172H290.022C289.498 41.2268 247.944 0.145594 196.91 0.145594C145.571 0.145594 103.786 41.7303 103.786 92.8635C103.786 128.115 123.695 158.774 152.845 174.438C158.109 177.21 165.663 180.067 168.228 180.85C176.538 183.313 186.736 184.951 195.813 185.636C198.896 185.867 209.661 185.988 212.798 186H383V161.486H213.084C210.824 161.486 200.949 161.401 198.737 161.255ZM213.084 122.764C211.287 122.764 201.887 122.704 200.151 122.558C197.208 122.31 192.944 121.873 190.202 121.248C187.108 120.423 184.202 119.331 182.892 118.615C173.711 113.671 167.454 104.001 167.454 92.8635C167.454 76.6603 180.632 63.5206 196.91 63.5206C212.847 63.5206 225.805 76.1447 226.323 91.9172H250.07C249.57 63.1021 225.981 39.8801 196.91 39.8801C167.515 39.8801 143.689 63.5995 143.689 92.8635C143.689 113.501 155.569 131.324 172.87 140.054C175.533 141.607 180.54 143.232 181.966 143.602C186.852 144.882 193.413 145.756 198.737 146.144C200.705 146.308 210.343 146.381 212.378 146.393V146.429H382.994V122.764H213.084ZM88.5552 185.909H63.6749V24.781H27.3171V1.3596e-06H88.5552V185.909ZM0 37.1624V60.991H27.3171V185.909H51.2226V37.1624H0Z" fill="#2C292C"/>
<path d="M339.037 1.7304C330.075 1.7304 322.643 8.84621 322.643 17.7759C322.643 26.7055 330.075 34.1064 339.037 34.1064C348.272 34.1064 355.419 26.7055 355.419 17.7759C355.419 8.84621 348.272 1.7304 339.037 1.7304ZM339.037 31.4737C331.635 31.4737 325.256 25.6803 325.256 17.7759C325.256 10.2718 331.635 4.33286 339.037 4.33286C346.433 4.33286 352.781 10.2718 352.781 17.7759C352.781 25.6803 346.433 31.4737 339.037 31.4737Z" fill="#2C292C"/>
<path d="M345.279 22.1733C345.279 20.3716 345.011 18.6973 342.94 18.0361C345.535 17.1383 345.791 15.4457 345.791 14.4205C345.791 10.2772 342.014 9.74946 340.46 9.74946H333.314V25.7949H336.293V19.2129H338.638C342.014 19.2129 342.294 20.7599 342.294 22.1733C342.294 24.9092 342.294 25.4249 342.94 25.7949H345.925C345.279 25.1458 345.535 24.6423 345.279 22.1733ZM339.808 16.8713H336.293V11.8181H339.303C341.386 11.8181 342.799 12.4732 342.799 14.4205C342.799 15.4457 342.294 16.8713 339.808 16.8713" fill="#2C292C"/>
</g>
<defs>
<clipPath id="clip0">
<rect width="383" height="186" fill="white"/>
</clipPath>
</defs>
</svg>
