<svg width="845" height="161" viewBox="0 0 845 161" fill="none" xmlns="http://www.w3.org/2000/svg">
<path d="M380.687 80.9865C380.687 113.029 361.145 128.177 336.685 128.177H321.737V108.951H335.52C350.274 108.951 360.108 100.99 360.108 80.9865C360.108 61.1771 350.808 51.2711 335.083 51.2711C319.941 51.2711 309.118 60.5944 309.118 80.5978V161H288.735V34.569H309.118V45.4461H312.03C318.825 36.3184 328.871 32.2385 339.354 32.2385C361.873 32.2385 380.687 48.5521 380.687 80.9865ZM246.723 72.634L233.134 71.2743C222.457 70.3035 216.827 67.3904 216.827 61.1755C216.827 53.7957 224.01 49.5233 234.299 49.5233C244.976 49.5233 251.77 54.5725 252.353 61.7581H271.96C271.184 43.5028 257.013 32.2385 234.493 32.2385C211.78 32.2385 196.443 44.2796 196.443 61.9526C196.443 76.7125 205.762 86.2285 226.922 88.365L240.705 89.7242C249.053 90.5008 254.683 92.2486 254.683 100.211C254.683 107.398 249.441 112.64 235.658 112.64C222.966 112.64 216.712 106.879 214.517 99.1556H193.305C195.419 116.81 210.243 130.508 235.658 130.508C259.536 130.508 275.066 117.884 275.066 99.241C275.066 82.7327 264.195 74.3819 246.723 72.634ZM459.632 99.1556C456.434 106.503 448.794 112.059 437.951 112.059C423.004 112.059 411.938 102.348 411.938 81.3735C411.938 61.3699 422.227 50.3 438.145 50.3C452.317 50.3 460.47 58.8453 461.247 71.6628H424.556V86.424H481.242V76.7125C481.242 49.7174 463.382 32.2385 437.951 32.2385C414.268 32.2385 391.554 48.358 391.554 81.3735C391.554 114.388 414.268 130.508 437.951 130.508C459.614 130.508 475.061 117.159 479.86 99.1556H459.632ZM138.302 32.2385C115.978 32.2385 99.2825 43.8925 97.3415 61.7581H119.278C120.831 55.1567 126.849 50.3015 138.302 50.3015C153.057 50.3015 157.91 58.071 157.91 67.586V99.6288C149.563 109.146 139.856 113.612 130.149 113.612C120.055 113.612 113.066 108.757 113.066 100.019C113.066 91.666 118.501 86.424 128.984 86.424H145.291V71.6628H128.402C105.106 71.6628 92.1 83.317 92.1 101.183C92.1 117.884 104.718 130.508 125.49 130.508C137.138 130.508 147.427 125.849 154.998 120.215H157.91V128.177H178.293V65.6425C178.293 42.5317 162.569 32.2385 138.302 32.2385ZM0 128.177H20.3837V0H0V128.177ZM85.6109 34.569H60.7625L31.0608 73.6064V85.8414L61.5389 128.177H86.7757L51.0562 79.6257L85.6109 34.569ZM822.481 34.569L805.785 71.6628C801.709 80.5978 797.828 89.3355 796.663 95.1634H793.748C792.583 89.3355 788.508 80.7909 784.432 71.8585L767.736 34.569H745.217L784.432 118.661L765.018 161H786.761L845 34.569H822.481ZM740.709 34.569H715.86L686.158 73.6064V85.8414L716.636 128.177H741.874L706.153 79.6257L740.709 34.569ZM613.086 72.634L599.497 71.2743C588.819 70.3035 583.19 67.3904 583.19 61.1755C583.19 53.7957 590.373 49.5233 600.662 49.5233C611.338 49.5233 618.133 54.5725 618.716 61.7581H638.322C637.546 43.5028 623.375 32.2385 600.855 32.2385C578.142 32.2385 562.806 44.2796 562.806 61.9526C562.806 76.7125 572.125 86.2285 593.284 88.365L607.068 89.7242C615.415 90.5008 621.045 92.2486 621.045 100.211C621.045 107.398 615.804 112.64 602.02 112.64C589.328 112.64 583.074 106.879 580.88 99.1556H559.668C561.781 116.81 576.606 130.508 602.02 130.508C625.898 130.508 641.429 117.884 641.429 99.241C641.429 82.7327 630.557 74.3819 613.086 72.634ZM655.097 128.177H675.481V0H655.097V128.177ZM520.682 45.4461H517.77V34.569H497.387V128.177H517.77V79.237C517.77 62.5352 525.485 52.8246 540.678 52.8246H553.582V32.2385H546.114C532.016 32.2385 526.025 37.5575 520.682 45.4461Z" fill="#2C292C"/>
</svg>
