<svg width="717" height="127" viewBox="0 0 717 127" fill="none" xmlns="http://www.w3.org/2000/svg">
<path d="M0 63.5C0 99.8372 28.5841 127 66.3428 127C79.7632 127 91.3876 124.097 101.464 116.957V93.2333C91.6134 99.5877 78.4941 103.698 66.1236 103.698C42.1894 103.698 24.3211 86.9463 24.3211 63.5C24.3211 40.0524 42.1894 23.3037 66.1236 23.3037C78.4941 23.3037 91.6134 27.4136 101.464 33.768V10.0431C91.3876 2.90455 79.7632 0 66.3428 0C28.5841 0 0 27.1641 0 63.5ZM569.062 31.0179C542.033 31.0179 520.111 52.5578 520.111 79.009C520.111 105.46 542.034 127 569.062 127C596.087 127 618.011 105.461 618.011 79.009C618.011 52.5565 596.085 31.0179 569.062 31.0179V31.0179ZM569.062 107.351C553.374 107.351 540.901 94.6922 540.901 79.009C540.901 63.3284 553.374 50.6685 569.062 50.6685C584.748 50.6685 597.221 63.3284 597.221 79.009C597.221 94.6922 584.746 107.351 569.062 107.351ZM695.913 32.9085L655.276 92.6168V32.9085H634.811V125.112H655.6L696.21 65.5926V125.112H717V32.9085H695.913ZM194.781 76.5546C199.884 73.5299 204.798 66.5392 204.798 58.7933C204.798 43.8679 193.459 32.9085 177.961 32.9085H126.064V125.109H180.037C195.537 125.109 207.255 113.963 207.255 98.6609C207.256 88.2692 201.019 79.9556 194.781 76.5546ZM146.854 51.0474H174.748C180.037 51.0474 184.007 54.8246 184.007 59.9261C184.007 65.0275 180.037 68.8087 174.748 68.8087H146.854V51.0474V51.0474ZM176.07 106.974H146.854V86.9463H176.07C182.119 86.9463 186.464 91.2886 186.464 96.9591C186.464 102.627 182.119 106.974 176.07 106.974ZM257.849 32.9098C239.516 32.9098 225.717 46.7012 225.717 64.6513C225.717 79.2176 235.009 91.0998 248.464 94.9061L223.264 125.112H250.102L274.22 96.2039H285.751V125.112H306.541V32.9098H257.849V32.9098ZM260.683 51.0474H285.751V78.0663H260.683C252.369 78.0663 246.51 71.8308 246.51 64.6526C246.508 57.0942 252.369 51.0474 260.683 51.0474ZM441.91 32.9085H421.121V125.112H441.91V87.7015H482.52V125.112H503.31V32.9085H482.52V69.5639H441.91V32.9085ZM327.089 119.739V99.3421C335.204 103.592 345.126 107.351 356.47 107.351C370.257 107.351 378.958 103.236 378.958 95.9174C378.958 89.3861 371.356 86.8816 361.678 86.8816H345.815V68.744H361.678C371.534 68.744 377.054 65.1265 377.054 60.1756C377.054 52.9142 368.343 50.6698 358.274 50.6698C346.635 50.6698 337.187 54.0417 329.472 57.7965V38.0245C337.475 34.0849 348.077 31.0179 361.275 31.0179C381.402 31.0179 397.758 41.7199 397.758 56.475C397.758 67.2297 391.455 73.8468 386.391 76.0767C392.886 79.1397 400.228 86.7733 400.228 97.8067C400.228 115.105 383.614 126.999 359.298 126.999C345.347 127 335.137 123.983 327.089 119.739" fill="#2C292C"/>
<path d="M674.185 27.9218C690.162 27.9218 702.349 18.0437 703.667 3.55268L687.012 1.47461C687.012 7.73919 681.329 12.5489 674.185 12.5489C667.042 12.5489 661.357 7.73919 661.357 1.47461L644.702 3.55268C646.023 18.0437 658.21 27.9218 674.185 27.9218" fill="#2C292C"/>
</svg>
