<svg width="403" height="356" viewBox="0 0 403 356" fill="none" xmlns="http://www.w3.org/2000/svg">
<path d="M201.204 94.6914C180.18 94.6914 163.135 77.6266 163.135 56.5742C163.135 35.5218 180.18 18.4547 201.204 18.4547C222.23 18.4547 239.276 35.5218 239.276 56.5742C239.276 77.6266 222.23 94.6914 201.204 94.6914V94.6914ZM249.138 56.5742C249.138 55.7394 249.117 54.9111 249.076 54.0871L257.708 51.3159C257.483 48.8592 257.097 46.4481 256.569 44.0911L247.501 44.1257C247.07 42.5147 246.555 40.9383 245.966 39.3988L253.331 34.082C252.363 31.8313 251.25 29.6608 250.011 27.5727L241.385 30.4131C240.48 29.0232 239.508 27.6832 238.468 26.3973L243.826 19.0727C242.217 17.2383 240.491 15.5124 238.661 13.8991L231.343 19.2635C230.061 18.2227 228.721 17.2492 227.333 16.3428L230.17 7.70843C228.086 6.46597 225.916 5.35365 223.668 4.38223L218.358 11.7568C216.821 11.167 215.246 10.6509 213.637 10.2194L213.672 1.14052C211.318 0.611449 208.912 0.225535 206.458 2.79688e-05L203.688 8.643C202.868 8.6018 202.038 8.58011 201.204 8.58011C200.373 8.58011 199.546 8.6018 198.723 8.643L195.955 2.79688e-05C193.499 0.225535 191.093 0.611449 188.741 1.14052L188.774 10.2194C187.165 10.6509 185.59 11.167 184.053 11.7568L178.742 4.38223C176.497 5.35365 174.327 6.46597 172.241 7.70843L175.078 16.3428C173.69 17.2492 172.35 18.2227 171.065 19.2635L163.752 13.8991C161.92 15.5124 160.194 17.2383 158.585 19.0727L163.943 26.3973C162.901 27.6832 161.931 29.0232 161.025 30.4131L152.402 27.5727C151.161 29.6608 150.05 31.8313 149.08 34.082L156.445 39.3988C155.856 40.9383 155.341 42.5147 154.91 44.1257L145.842 44.0911C145.314 46.4481 144.928 48.8592 144.703 51.3159L153.335 54.0871C153.294 54.9111 153.273 55.7394 153.273 56.5742C153.273 57.4068 153.294 58.2351 153.335 59.0591L144.703 61.8324C144.928 64.2891 145.314 66.6982 145.842 69.053L154.91 69.0205C155.341 70.6315 155.856 72.2079 156.445 73.7496L149.08 79.0642C150.05 81.3127 151.161 83.4854 152.402 85.5735L161.025 82.733C161.931 84.1229 162.901 85.4652 163.943 86.751L158.585 94.0735C160.194 95.9079 161.92 97.636 163.752 99.2471L171.065 93.8848C172.35 94.9256 173.69 95.897 175.078 96.8034L172.241 105.44C174.327 106.68 176.497 107.793 178.742 108.764L184.053 101.389C185.59 101.979 187.165 102.495 188.774 102.927L188.741 112.006C191.093 112.535 193.499 112.921 195.955 113.146L198.723 104.503C199.546 104.544 200.373 104.568 201.204 104.568C202.038 104.568 202.868 104.544 203.688 104.503L206.458 113.146C208.912 112.921 211.318 112.535 213.672 112.006L213.637 102.927C215.246 102.495 216.821 101.979 218.358 101.389L223.668 108.764C225.916 107.793 228.086 106.68 230.17 105.44L227.333 96.8034C228.721 95.897 230.061 94.9256 231.343 93.8848L238.661 99.2471C240.491 97.636 242.217 95.9079 243.826 94.0735L238.468 86.751C239.508 85.4652 240.48 84.1229 241.385 82.733L250.009 85.5735C251.25 83.4854 252.363 81.3127 253.331 79.0642L245.966 73.7496C246.555 72.2079 247.07 70.6315 247.501 69.0205L256.569 69.053C257.097 66.6982 257.483 64.2891 257.708 61.8324L249.076 59.0591C249.117 58.2351 249.138 57.4068 249.138 56.5742" fill="#5E1473"/>
<path d="M118.39 126.642C107.092 125.703 98.6937 115.772 99.6336 104.459C100.571 93.1472 110.49 84.7384 121.788 85.6794C133.084 86.6183 141.482 96.5493 140.544 107.862C139.607 119.172 129.688 127.58 118.39 126.642ZM151.03 110.997C151.145 110.258 151.245 109.512 151.305 108.757C151.37 108 151.394 107.248 151.403 106.5L145.434 104.466C145.307 102.534 144.958 100.658 144.419 98.8586L149.311 94.8494C148.767 93.4421 148.124 92.0804 147.388 90.775L141.186 92.0067C140.127 90.426 138.894 88.9688 137.51 87.6613L139.748 81.7374C138.582 80.7964 137.348 79.9377 136.051 79.1658L131.295 83.3377C129.61 82.5072 127.819 81.8545 125.939 81.41L124.919 75.1782C124.181 75.0633 123.436 74.9657 122.682 74.9028C121.927 74.8378 121.175 74.8139 120.43 74.8052L118.397 80.7834C116.469 80.9091 114.594 81.2582 112.796 81.7981L108.792 76.8998C107.387 77.4463 106.026 78.0903 104.723 78.8254L105.953 85.0376C104.374 86.0979 102.919 87.3317 101.613 88.7151L95.6965 86.4774C94.7566 87.6418 93.899 88.8777 93.1302 90.1766L97.2947 94.9405C96.4653 96.6253 95.8112 98.4185 95.3694 100.303L89.1454 101.324C89.0307 102.061 88.9332 102.807 88.8704 103.564C88.8076 104.321 88.7816 105.071 88.7729 105.819L94.7436 107.853C94.8692 109.785 95.22 111.661 95.7593 113.46L90.8649 117.472C91.4107 118.879 92.0539 120.241 92.788 121.544L98.9925 120.314C100.052 121.895 101.284 123.35 102.665 124.658L100.431 130.581C101.593 131.522 102.828 132.383 104.125 133.153L108.883 128.983C110.566 129.812 112.359 130.467 114.239 130.909L115.259 137.143C115.997 137.256 116.74 137.355 117.496 137.416C118.251 137.481 119.001 137.505 119.748 137.514L121.781 131.538C123.709 131.41 125.582 131.061 127.38 130.521L131.386 135.419C132.792 134.875 134.152 134.231 135.453 133.494L134.225 127.283C135.804 126.223 137.259 124.989 138.565 123.604L144.479 125.844C145.419 124.677 146.279 123.441 147.048 122.142L142.883 117.381C143.711 115.694 144.365 113.9 144.806 112.016L151.03 110.997" fill="white"/>
<path d="M344.011 324.243C327.218 324.889 313.079 311.785 312.431 294.97C311.784 278.157 324.871 264 341.665 263.351C358.46 262.703 372.599 275.806 373.244 292.622C373.894 309.435 360.805 323.592 344.011 324.243V324.243ZM389.242 295.349C389.277 294.241 389.287 293.129 389.244 292.004C389.201 290.878 389.105 289.77 388.982 288.667L379.832 286.748C379.302 283.927 378.451 281.229 377.333 278.677L383.815 271.897C382.76 269.923 381.571 268.037 380.255 266.248L371.345 269.173C369.502 267.037 367.428 265.116 365.16 263.442L367.386 254.322C365.507 253.147 363.534 252.104 361.489 251.204L355.235 258.195C352.608 257.278 349.856 256.636 347.008 256.321L344.39 247.336C343.283 247.299 342.172 247.288 341.048 247.332C339.924 247.375 338.815 247.472 337.717 247.594L335.796 256.755C332.983 257.289 330.287 258.139 327.738 259.257L320.966 252.77C318.995 253.824 317.109 255.016 315.325 256.332L318.246 265.253C316.115 267.098 314.194 269.175 312.52 271.446L303.414 269.217C302.24 271.101 301.198 273.074 300.3 275.123L307.282 281.383C306.365 284.013 305.724 286.769 305.41 289.621L296.436 292.242C296.399 293.35 296.388 294.465 296.432 295.588C296.475 296.713 296.573 297.824 296.694 298.925L305.844 300.846C306.376 303.663 307.227 306.362 308.343 308.915L301.861 315.695C302.916 317.668 304.107 319.555 305.423 321.343L314.331 318.418C316.174 320.554 318.248 322.478 320.516 324.151L318.289 333.269C320.171 334.447 322.142 335.488 324.189 336.387L330.441 329.397C333.068 330.314 335.82 330.956 338.668 331.27L341.286 340.256C342.393 340.293 343.504 340.303 344.63 340.26C345.752 340.217 346.861 340.119 347.961 340L349.879 330.836C352.695 330.305 355.389 329.453 357.938 328.334L364.71 334.824C366.68 333.768 368.567 332.575 370.351 331.259L367.43 322.339C369.563 320.496 371.482 318.418 373.156 316.146L382.262 318.377C383.436 316.491 384.478 314.518 385.376 312.468L378.394 306.208C379.313 303.578 379.951 300.822 380.265 297.971L389.242 295.349Z" fill="#5E1473"/>
<path d="M77.5815 356C34.7346 356 0 352.093 0 347.275C0 342.457 34.7346 338.549 77.5815 338.549C120.431 338.549 155.165 342.457 155.165 347.275C155.165 352.093 120.431 356 77.5815 356Z" fill="#D2BED8"/>
<path d="M353.483 242.498C326.135 242.498 303.966 239.129 303.966 234.974C303.966 233.946 305.321 232.966 307.773 232.075C309.601 232.073 311.238 232.008 312.635 231.904C313.317 233.162 314.729 233.678 316.459 233.68C320.316 233.68 325.765 231.117 328.275 228.495C335.66 227.83 344.277 227.448 353.483 227.448C380.83 227.448 403 230.818 403 234.974C403 239.129 380.83 242.498 353.483 242.498" fill="url(#paint0_linear)"/>
<path d="M284.307 217.602C288.302 217.639 282.295 222.249 281.506 226.106C280.493 231.061 275.445 233.535 270.886 234.125C267.51 234.563 262.572 234.747 259.556 232.798C258.163 231.9 256.751 229.918 257.407 228.151C258.518 225.152 262.382 226.757 264.099 228.047C267.06 230.267 271.003 234.478 271.744 238.197C272.536 242.173 269.208 245.699 266.206 247.796C261.028 251.408 253.401 252.582 247.837 249.147C246.705 248.449 243.658 246.419 244.961 244.942C245.877 243.906 248.06 244.216 249.128 244.7C252.277 246.124 253.57 250.064 253.464 253.269C253.197 261.418 244.985 265.234 237.702 264.531C234.207 264.193 229.791 263.042 227.541 260.099C226.439 258.659 225.77 256.224 227.067 254.663C228.895 252.464 232.321 254.171 233.178 256.378C235.008 261.101 229.876 264.85 226.058 266.034C222.205 267.231 217.521 267.515 213.744 265.93C210.318 264.488 205.937 259.34 208.646 255.409C209.395 254.318 212.063 252.87 211.548 255.281C211.149 257.15 208.278 258.13 206.701 258.243C201.95 258.581 197.783 254.167 195.494 250.465C192.817 246.139 192.984 241.265 196.217 237.282C197.138 236.148 195.754 234.959 194.624 235.287C187.291 237.412 187.906 246.619 190.944 252.022C194.143 257.714 200.321 263.614 207.357 262.866C212.167 262.356 219.749 256.242 215.162 251.075C211.442 246.885 205.045 250.936 203.845 255.266C202.21 261.164 206.021 267.2 211.271 269.72C217.467 272.691 226.272 271.68 231.911 267.855C236.819 264.527 239.946 256.621 234.883 251.948C230.829 248.201 223.743 249.42 222.61 255.255C221.28 262.107 227.909 266.331 233.633 267.76C239.885 269.323 247.173 268.523 252.223 264.232C256.593 260.52 258.356 254.47 256.89 248.943C255.612 244.114 251.38 239.634 246.023 240.391C243.887 240.692 241.642 241.863 240.868 244.01C239.872 246.773 241.674 249.292 243.673 251.029C248.091 254.867 254.378 255.906 259.993 254.715C265.635 253.52 271.157 250.227 274.174 245.196C278.314 238.292 273.769 231.974 268.896 226.993C266.546 224.59 263.811 222.47 260.288 222.517C257.288 222.561 254.505 224.226 253.711 227.218C251.619 235.083 260.868 237.843 266.713 237.798C273.671 237.746 281.95 235.094 283.936 227.557C285.37 222.11 278.466 218.742 284.307 217.602C294.658 215.579 283.406 217.593 284.307 217.602" fill="#FF98C6"/>
<path d="M274.878 116.917C272.167 117.734 266.162 117.19 260.704 123.977C253.974 132.353 252.737 148.145 255.918 163.319C259.97 182.643 274.831 197.234 282.579 195.97C290.328 194.706 300.58 182.589 305.403 187.013C310.224 191.436 322.416 228.81 317.78 231.052C313.141 233.291 247.332 237.283 231.12 176.097C214.193 112.214 255.282 85.1071 262.738 82.0324C270.194 78.9577 270.751 75.1826 274.382 78.099C278.016 81.0155 285.239 106.502 284.325 112.534C283.413 118.565 274.878 116.917 274.878 116.917" fill="white"/>
<path d="M262.739 82.0325C268.186 87.9196 275.607 109.139 274.88 116.917C274.15 124.695 288.471 118.758 289.792 114.597C292.471 106.155 278.693 73.2074 275.116 72.7824C271.54 72.3574 259.56 78.5979 262.739 82.0325Z" fill="#FF98C6"/>
<path d="M298.14 188.812C304.459 195.641 313.07 220.258 312.225 229.28C311.378 238.305 327.993 231.416 329.524 226.589C332.634 216.795 316.65 178.576 312.5 178.081C308.353 177.589 294.454 184.827 298.14 188.812Z" fill="#FF98C6"/>
<path d="M305.761 202.644C305.178 201.215 304.576 199.829 303.966 198.511L303.968 198.509C304.578 199.827 305.18 201.215 305.763 202.642C305.761 202.644 305.761 202.644 305.761 202.644Z" fill="white"/>
<path d="M305.763 202.642C305.18 201.215 304.578 199.828 303.967 198.509C305.364 197.711 306.776 196.998 308.097 196.356C312.498 194.212 316.487 192.863 321.188 192.568C321.45 193.175 321.71 193.793 321.972 194.422C317.968 196.369 313.827 198.054 309.884 200.131C308.48 200.873 307.118 201.747 305.763 202.642" fill="#FFBCDA"/>
<path d="M302.93 196.363C301.328 193.164 299.697 190.519 298.194 188.873C298.194 188.873 298.194 188.873 298.194 188.871C299.699 190.519 301.332 193.164 302.933 196.36C302.933 196.36 302.93 196.36 302.93 196.363Z" fill="white"/>
<path d="M319.753 189.352C319.662 189.155 319.571 188.96 319.48 188.765C319.571 188.96 319.662 189.155 319.753 189.352Z" fill="url(#paint1_linear)"/>
<path d="M302.932 196.36C301.332 193.164 299.699 190.519 298.194 188.871C299.084 188.316 299.933 187.817 300.691 187.379C305.44 184.638 310.724 183.04 316.128 182.318C317.165 184.068 318.308 186.271 319.48 188.764C319.571 188.96 319.662 189.155 319.753 189.352C314.696 190.902 309.536 192.223 304.977 194.988C304.271 195.415 303.593 195.877 302.932 196.36" fill="#FFBCDA"/>
<path d="M270.95 98.2755C270.595 97.2803 270.229 96.2958 269.85 95.3222C269.852 95.3222 269.852 95.3222 269.852 95.3222C270.231 96.2936 270.599 97.2803 270.95 98.2755" fill="white"/>
<path d="M270.95 98.2755C270.599 97.2803 270.231 96.2937 269.852 95.3222C271.69 94.2077 273.592 93.1843 275.545 92.2519C277.875 91.1417 280.974 89.5198 284.011 88.6654C284.481 89.8429 284.942 91.0463 285.388 92.2606C284.723 92.4861 284.058 92.7051 283.417 92.9588C281.111 93.8651 278.798 94.7867 276.522 95.7668C274.651 96.5734 272.799 97.4169 270.95 98.2755Z" fill="#FFBCDA"/>
<path d="M268.731 92.5792C267.548 89.8124 266.299 87.2885 265.073 85.2676C265.073 85.2654 265.075 85.2654 265.075 85.2654C266.301 87.2863 267.552 89.8146 268.733 92.5792C268.733 92.5792 268.733 92.5792 268.731 92.5792Z" fill="white"/>
<path d="M268.733 92.5792C267.552 89.8146 266.301 87.2863 265.075 85.2654C267.05 84.2983 269.053 83.3898 271.08 82.5442C273.231 81.6486 276.473 80.0918 279.741 79.1637C280.782 81.189 281.889 83.5741 282.978 86.1501C282.584 86.2759 282.192 86.4103 281.811 86.5599C278.768 87.7633 275.756 89.0904 272.804 90.5019C271.427 91.1611 270.075 91.8593 268.733 92.5792" fill="#FFBCDA"/>
<path d="M236.234 132.73C236.106 132.73 235.976 132.7 235.842 132.639C232.907 131.282 234.72 122.934 239.67 111.403C244.043 101.222 255.157 89.5781 259.843 89.5781C260.465 89.5781 260.976 89.7842 261.34 90.2244C265.411 95.14 251.012 101.348 246.557 108.978C240.415 119.499 238.908 132.732 236.234 132.73" fill="white"/>
<path d="M148.443 249.331C148.443 249.532 148.443 249.732 148.443 249.933C148.512 249.732 148.512 249.532 148.512 249.331H148.443Z" fill="white"/>
<path d="M163.331 176.869C164.938 176.273 167.643 173.818 172.754 175.108C179.058 176.702 185.407 183.886 189.394 192.384C194.473 203.208 192.597 215.689 188.389 217.905C184.184 220.123 174.813 218.007 174.092 221.905C173.371 225.804 181.085 248.327 184.145 247.717C187.203 247.108 220.475 225.017 206.037 189.513C190.962 152.443 161.224 154.334 156.498 155.567C151.775 156.803 150.129 155.181 149.436 157.918C148.741 160.654 154.528 175.614 157.165 178.198C159.803 180.781 163.331 176.869 163.331 176.869" fill="white"/>
<path d="M156.5 155.567C156.01 160.403 160.149 173.371 163.332 176.869C166.516 180.364 157.429 182.719 155.276 181.19C150.906 178.085 145.572 157.124 147.146 155.613C148.723 154.104 156.788 152.746 156.5 155.567" fill="#FF98C6"/>
<path d="M178.262 220.123C177.69 225.733 182.491 240.779 186.186 244.834C189.88 248.888 179.338 251.623 176.841 249.847C171.771 246.245 165.584 221.932 167.41 220.177C169.238 218.425 178.593 216.851 178.262 220.123Z" fill="#FF98C6"/>
<path d="M183.468 223.417C182.19 223.417 181.268 223.17 181.346 222.569C181.541 221.045 184.975 220.141 187.464 220.141C188.393 220.141 189.188 220.267 189.636 220.531C191.949 221.908 186.626 223.417 183.468 223.417" fill="white"/>
<path d="M169.177 161.619C168.289 161.619 167.308 161.57 166.238 161.457C158.617 160.654 158.708 157.925 160.058 157.172C160.764 156.778 161.814 156.619 163.042 156.619C167.685 156.619 174.881 158.892 175.728 159.314C176.646 159.774 174.604 161.619 169.177 161.619" fill="white"/>
<path d="M178.701 225.581C178.363 223.74 178.183 222.088 178.218 220.797C178.22 220.797 178.22 220.797 178.22 220.797C178.186 222.088 178.363 223.74 178.701 225.581Z" fill="white"/>
<path d="M168.135 228.855C167.734 227.053 167.431 225.399 167.256 224.024C170.236 222.003 174.127 220.782 177.538 220.782C177.768 220.782 177.995 220.787 178.218 220.798C178.184 222.088 178.363 223.74 178.701 225.581C178.766 225.928 178.835 226.283 178.909 226.643C178.431 226.492 177.889 226.433 177.328 226.433C176.042 226.433 174.649 226.741 173.632 226.947C171.979 227.279 169.909 227.886 168.135 228.855" fill="#FFBCDA"/>
<path d="M180.591 232.962C180.301 232.051 180.03 231.136 179.781 230.23C180.03 231.136 180.303 232.051 180.591 232.96C180.591 232.96 180.591 232.96 180.591 232.962" fill="white"/>
<path d="M170.43 237.223C169.906 235.605 169.421 233.957 168.995 232.353C171.321 230.802 174.324 229.967 177.146 229.967C178.053 229.967 178.941 230.052 179.782 230.23C180.031 231.136 180.301 232.051 180.592 232.962C178.259 233.582 175.855 234.176 173.731 235.228C172.585 235.796 171.509 236.516 170.43 237.223" fill="#FFBCDA"/>
<path d="M158.566 166.808C158.256 165.841 157.968 164.865 157.71 163.907C157.712 163.907 157.712 163.907 157.712 163.907C157.97 164.867 158.256 165.841 158.568 166.808C158.566 166.808 158.566 166.808 158.566 166.808Z" fill="white"/>
<path d="M149.422 169.271C149.188 168.514 148.965 167.753 148.755 167.001C151.146 165.134 154.297 163.887 157.125 163.887C157.322 163.887 157.517 163.894 157.71 163.907C157.968 164.865 158.256 165.841 158.565 166.808C156.813 166.903 155.05 166.871 153.316 167.359C151.8 167.786 150.546 168.443 149.422 169.271" fill="#FFBCDA"/>
<path d="M156.924 160.503C156.61 158.859 156.439 157.378 156.463 156.224C156.439 157.378 156.61 158.859 156.924 160.503ZM156.463 156.216C156.463 156.211 156.463 156.205 156.463 156.198C156.463 156.205 156.463 156.211 156.463 156.216ZM156.463 156.172C156.463 156.172 156.463 156.172 156.463 156.17C156.463 156.172 156.463 156.172 156.463 156.172Z" fill="white"/>
<path d="M147.769 163.079C147.459 161.689 147.219 160.401 147.065 159.297C149.612 157.274 153.074 156.051 156.269 156.051C156.334 156.051 156.401 156.053 156.466 156.053C156.466 156.092 156.464 156.131 156.462 156.17C156.462 156.172 156.462 156.172 156.462 156.172C156.462 156.181 156.462 156.19 156.462 156.198C156.462 156.205 156.462 156.211 156.462 156.216C156.462 156.218 156.462 156.222 156.462 156.225C156.438 157.378 156.609 158.859 156.923 160.503C153.664 160.785 150.19 161.21 147.769 163.079" fill="#FFBCDA"/>
<path d="M150.609 207.456C152.238 204.594 152.054 202.581 152.883 202.547C153.712 202.512 152.472 205.29 152.866 205.628C153.258 205.966 157.073 201.406 157.504 201.805C157.935 202.202 155.079 205.37 155.176 205.517C155.272 205.663 159.023 202.432 159.276 202.816C159.527 203.199 155.744 206.458 155.947 206.667C156.151 206.873 160.411 204.151 160.506 204.687C160.599 205.22 156.965 207.53 156.731 207.853C156.5 208.178 159.588 206.4 159.802 206.855C160.017 207.311 153.784 210.394 151.514 210.44C149.245 210.485 149.888 208.722 150.609 207.456" fill="#F4BA8E"/>
<path d="M152.828 210.043C151.86 213.703 138.126 229.927 134.577 231.154C130.304 232.633 106.592 234.56 105.096 230.425C103.597 226.288 110.739 214.848 110.739 214.848C118.497 222.251 130.525 222.901 132.736 222.029C134.438 221.357 145.392 211.537 149.896 207.436L152.828 210.043" fill="#FFC228"/>
<path d="M147.048 210.359C148.094 209.203 149.066 208.191 149.896 207.436L152.828 210.043C152.655 210.7 152.085 211.912 151.256 213.445L147.048 210.359Z" fill="white"/>
<path d="M121.115 339.445C122.88 343.801 133.346 341.41 134.706 343.632C136.413 346.416 116.339 349.801 115.166 347.31C114.875 346.689 115.744 343.073 116.099 340.497C119.492 340.239 118.44 341.527 121.115 339.445Z" fill="#DB0081"/>
<path d="M130.207 292.004C124.52 285.087 112.043 272.126 109.614 270.563C106.753 268.722 99.5586 263.106 99.5586 263.106C99.5586 263.106 70.171 271.699 73.9804 277.474C76.8693 281.854 104.518 296.967 116.784 303.422C115.61 304.407 112.295 307.765 111.66 314.743C111.08 321.135 113.683 336.082 115.08 343.812C118.224 342.509 122.742 340.674 122.698 339.92C122.482 336.171 129.08 302.028 130.207 297.706C130.376 297.052 131.941 294.165 130.207 292.004" fill="black"/>
<path d="M27.762 334.295C27.3744 334.62 27.0994 334.893 26.9889 335.093C25.5553 337.664 31.1989 343.857 28.6889 346.906C26.179 349.957 18.4759 339.846 18.2658 335.748C18.2138 334.731 19.9333 332.328 22.6793 329.267C24.1173 331.279 25.774 333.052 27.762 334.295Z" fill="#DB0081"/>
<path d="M78.4243 258.102C79.4313 257.161 80.6614 251.274 81.7009 248.555C86.0755 237.106 96.7109 218.924 103.814 214.015C110.837 209.165 117.087 215.674 118.497 222.251C119.907 228.829 112.659 249.554 100.594 263.256C99.0519 265.006 97.5165 266.823 96.111 268.579C88.3169 267.666 83.2818 264.646 78.4243 258.102" fill="#FFC228"/>
<path d="M79.0819 256.482C77.3321 258.909 73.9797 258.85 70.1054 263.113C61.7439 270.91 58.3157 289.575 53.6358 303.379C43.7887 302.13 29.8204 320.051 21.9526 329.13C23.4253 331.116 25.9222 334.397 27.9319 335.605C32.3476 331.782 54.3115 318.976 62.2875 315.366L62.6838 315.186C68.1996 311.595 78.1334 298.288 86.8262 288.537C90.5164 284.395 91.7032 280.375 95.5753 274.881C96.866 273.046 98.5401 267.198 100.593 263.256C92.5456 263.892 85.2864 262.113 79.0819 256.482Z" fill="black"/>
<path d="M101.334 261.632C102.233 261.593 101.867 264.672 100.851 264.984C99.8352 265.298 93.0287 266.083 87.097 264.303C81.1654 262.521 77.0507 259.639 76.8493 258.741C76.7691 258.383 77.7112 256.092 78.6987 256.538C79.6862 256.985 84.8556 260.242 89.4835 261.246C94.1072 262.252 101.334 261.632 101.334 261.632" fill="#DB0081"/>
<path d="M124.574 253.872C117.267 251.365 107.307 241.798 101.683 231.618C99.3487 227.387 100.893 222.058 105.094 219.679C108.074 217.994 111.857 219.232 113.265 222.357L116.999 230.655C116.999 230.655 119.814 239.92 128.552 246.033C137.288 252.148 149.098 253.7 149.098 253.7L148.643 258.254C148.643 258.254 133.81 257.039 124.574 253.872Z" fill="#FFC228"/>
<path d="M148.765 254.344C151.832 253.149 152.956 251.471 153.621 251.965C154.285 252.462 151.574 253.837 151.667 254.346C151.758 254.858 157.59 253.722 157.677 254.303C157.761 254.884 153.549 255.543 153.532 255.719C153.514 255.892 158.461 255.749 158.415 256.207C158.37 256.664 153.38 256.81 153.408 257.098C153.437 257.386 158.456 257.961 158.194 258.436C157.932 258.911 153.655 258.412 153.272 258.516C152.884 258.62 156.403 259.186 156.282 259.676C156.163 260.164 149.382 258.629 147.591 257.232C145.801 255.836 147.41 254.873 148.765 254.344" fill="#F4BA8E"/>
<path d="M145.439 253.011L149.097 253.7L148.642 258.254L144.542 257.831L145.439 253.011Z" fill="white"/>
<path d="M113.802 215.839C113.67 216.056 112.214 216.637 111.093 216.348C110.071 216.088 109.373 214.989 109.315 214.54C108.899 211.274 112.282 204.034 114.72 204.472C115.27 204.572 115.638 205.006 115.857 205.65C116.886 208.688 115.162 213.586 113.802 215.839" fill="#EE9956"/>
<path d="M107.819 214.16C108.05 211.888 108.637 209.099 109.88 209.416C111.123 209.733 113.066 211.998 114.32 213.044C115.576 214.089 115.624 216.058 116.091 216.665C116.561 217.272 114.9 217.938 111.691 217.064C108.483 216.192 107.645 215.875 107.819 214.16" fill="white"/>
<path d="M117.449 210.439C110.995 210.242 102.768 199.639 105.869 191.943C108.97 184.25 119.894 182.765 123.532 191.943C127.172 201.124 121.884 210.574 117.449 210.439Z" fill="#F4BA8E"/>
<path d="M125.529 188.839C123.314 190.641 122.211 194.949 118.231 194.949C114.253 194.949 110.935 196.81 111.199 199.201C111.466 201.593 112.527 202.655 111.864 203.052C111.199 203.453 108.678 197.373 107.619 198.022C106.556 198.67 109.183 203.527 108.135 204.087C107.087 204.648 103.108 200.368 103.108 196.198C103.108 192.028 105.486 181.666 114.381 181.666C123.275 181.666 127.654 187.113 125.529 188.839" fill="black"/>
<path d="M120.885 197.076C122.057 199.036 123.538 203.627 122.477 204.136C121.416 204.648 120.088 204.136 120.088 204.136C120.088 204.136 120.366 196.207 120.885 197.076" fill="#EE9956"/>
<path d="M24.6205 332.519L24.012 331.806C30.8878 325.923 41.2785 317.031 50.4435 312.922L50.8658 312.733C52.9968 311.783 55.1992 310.799 56.6913 309.08C57.5792 308.058 58.1835 306.816 58.8288 305.417L59.5998 303.745C66.1248 289.593 73.5183 273.551 80.7558 261.68L81.5549 262.168C74.3455 273.991 66.9629 290.009 60.4509 304.14L59.6799 305.812C59.0042 307.275 58.3653 308.579 57.3973 309.695C55.7687 311.571 53.471 312.597 51.2469 313.59L50.8268 313.776C41.7853 317.833 31.4552 326.671 24.6205 332.519" fill="#DB0081"/>
<path d="M67.8756 271.61C66.2817 271.61 64.7398 270.786 64.6575 270.743L65.1036 269.919C65.1253 269.93 67.2476 271.062 68.7787 270.537C71.3644 269.65 72.9302 265.288 72.9259 264.39C72.3866 263.906 70.901 262.443 70.8338 262.375L71.49 261.708C71.9795 262.189 73.3178 263.501 73.634 263.763C73.8636 263.954 73.9133 264.271 73.8051 264.854C73.543 266.265 71.9405 270.444 69.0797 271.424C68.6899 271.556 68.2806 271.61 67.8756 271.61" fill="#DB0081"/>
<path d="M91.1646 283.105L90.3979 282.567C90.4391 282.511 94.3784 276.871 95.5868 273.944C96.7736 271.071 96.3816 265.5 96.3772 265.444L97.3106 265.374C97.3301 265.613 97.7243 271.222 96.4531 274.301C95.2035 277.326 91.3292 282.871 91.1646 283.105Z" fill="#DB0081"/>
<path d="M97.0607 245.974C100.768 248.084 104.87 250.077 109.091 251.282C109.905 249.877 110.676 248.461 111.397 247.05C107.729 245.313 103.863 243.91 100.309 241.948C96.2594 239.712 92.1859 237.208 88.3268 234.642C87.8785 235.453 87.4388 236.262 87.0122 237.071C88.9461 241.096 93.2904 243.83 97.0607 245.974" fill="white"/>
<path d="M89.8127 245.408C88.0196 244.172 86.4841 242.676 84.9162 241.21C84.1518 242.787 83.4523 244.32 82.8264 245.785C85.4468 250.265 90.6465 253.826 94.6941 255.983C97.1044 257.267 100.032 258.934 103.103 260.214C104.695 258.164 106.187 256.013 107.569 253.808C104.364 252.928 101.226 251.289 98.2587 249.875C95.4001 248.513 92.431 247.21 89.8127 245.408" fill="white"/>
<path d="M362.182 223.742C359.956 230.479 360.198 234.597 362.661 237.227C365.123 239.86 370.615 232.108 369 228.615C367.384 225.119 365.701 219.484 365.701 219.484L362.182 223.742Z" fill="#DB0081"/>
<path d="M336.565 228.404C329.984 230.835 323.556 232.687 324.463 234.554C325.371 236.423 337.687 235.926 339.683 234.25C341.678 232.574 341.076 226.008 341.076 226.008L336.565 228.404Z" fill="#DB0081"/>
<path d="M346.589 88.3339C334.84 94.9907 327.655 117.208 326.507 122.023C325.069 128.062 326.277 135.834 329.805 135.315C333.335 134.797 345.591 110.035 346.589 106.5C347.585 102.966 346.589 88.3339 346.589 88.3339Z" fill="#EE9956"/>
<path d="M344.328 136.629C337.535 141.502 355.152 190.09 356.555 193.052C357.959 196.016 360.653 227.136 360.653 227.136L369.718 227.134C369.718 227.134 372.195 207.751 372.185 201.729C372.174 194.797 366.753 186.345 366.753 186.345C366.753 186.345 372.681 158.892 369.131 143.826C366.476 132.551 355.148 128.869 344.328 136.629Z" fill="black"/>
<path d="M345.476 88.5919C338.529 91.0833 330.022 108.332 330.022 108.656C330.022 108.981 339.848 120.083 339.848 120.083L347.365 114.801L345.476 88.5919Z" fill="#3C93E8"/>
<path d="M330.936 106.736C330.341 105.895 327.222 111.351 327.868 112.428C328.515 113.508 339.848 126.013 339.848 126.013L342.878 121.485L330.936 106.736Z" fill="#2B6299"/>
<path d="M339.973 135.658C332.218 138.778 337.171 183.563 336.227 191.226C335.826 194.48 333.892 228.363 333.892 228.363L343.252 229.618C343.252 229.618 347.653 210.069 349.069 204.218C350.7 197.481 348.285 190.267 348.285 190.267C348.285 190.267 362.243 164.02 362.364 148.54C362.455 136.956 352.324 130.69 339.973 135.658Z" fill="black"/>
<path d="M367.642 141.935C368.471 132.774 365.946 129.647 366.427 123.368C366.91 117.09 365.19 105.531 365.671 101.242C366.154 96.9552 365.775 80.8509 352.991 83.7413C340.208 86.6317 338.655 91.2655 337.208 102.795C335.761 114.321 336.771 118.723 336.976 128.301C337.035 130.972 334.995 141.157 334.995 141.157C334.995 141.157 342.689 145.793 350.143 146.977C356.079 147.92 367.642 141.935 367.642 141.935" fill="#2B6299"/>
<path d="M361.612 86.2088C354.55 87.113 357.476 97.6295 363.076 100.934C367.724 103.677 379.866 113.621 384.501 117.587C385.713 114.508 389.965 113.296 392.892 114.621C386.246 104.846 368.531 85.322 361.612 86.2088Z" fill="#F4BA8E"/>
<path d="M347.819 89.5785C348.863 90.9728 354.412 87.9219 355.295 86.8182C356.181 85.7167 356.863 82.8155 356.501 79.9165C356.14 77.0196 352.701 77.2602 350.68 77.9844C348.662 78.7108 346.371 87.6465 347.819 89.5785Z" fill="#EE9956"/>
<path d="M350.724 56.6258C345.849 56.0989 339.874 59.5228 339.848 66.2641C339.815 73.8967 342.798 84.9704 348.129 84.9552C352.638 84.94 359.17 82.299 359.761 74.6772C359.835 73.6993 364.683 69.1307 364.261 66.4137C363.789 63.3694 360.833 65.5464 360.666 64.9241C359.386 60.1277 356.415 57.2395 350.724 56.6258" fill="#F4BA8E"/>
<path d="M345.936 70.7657C344.169 71.4748 341.958 79.1096 343.283 79.8663C344.609 80.6252 346.218 81.0046 346.787 80.5298C347.355 80.0549 346.361 70.5944 345.936 70.7657" fill="#EE9956"/>
<path d="M361.613 86.2088C355.062 83.4116 357.232 98.3992 361.479 103.326C366.072 108.655 379.867 114.356 384.502 118.322C385.712 115.241 393.071 116.262 395.997 117.587C389.892 105.323 382.137 94.9689 361.613 86.2088Z" fill="#F4BA8E"/>
<path d="M357.084 87.4535C352.088 92.4276 357.645 101.14 365.411 107.146C373.177 113.153 369.859 110.156 369.859 110.156L380.564 97.8528C380.564 97.8528 383.983 99.7306 375.193 92.8722C366.403 86.0137 361.703 82.8566 357.084 87.4535" fill="#3C93E8"/>
<path d="M383.813 116.051C384.196 117.242 384.443 118.055 384.502 118.322C384.796 119.675 371.345 125.627 365.067 130.842C364.021 131.711 366.691 134.979 366.631 135.176C366.213 136.557 394.411 127.27 397.281 120.299C397.552 119.649 395.065 115.039 392.714 111.543C390.916 108.879 386.459 114.065 383.813 116.051" fill="#F4BA8E"/>
<path d="M366.544 139.867C368.032 139.166 367.947 137.345 367.815 136.471C367.685 135.597 365.881 133.941 365.881 133.941L364.261 135.931L366.544 139.867Z" fill="#EE9956"/>
<path d="M365.067 130.842C362.795 132.31 360.922 133.403 360.705 135.716C360.491 138.032 363.724 139.706 365.77 139.921C367.815 140.135 366.453 138.303 366.524 137.657C366.596 137.009 365.554 135.825 368.146 135.111C369.803 134.656 369.857 127.741 365.067 130.842Z" fill="#F4BA8E"/>
<path d="M380.505 96.4586C381.651 97.7314 386.242 101.112 385.324 101.719C384.404 102.326 372.792 112.979 372.792 112.979C372.341 112.912 367.293 110.861 367.278 109.826C367.263 108.79 379.793 95.665 380.505 96.4586Z" fill="#2B6299"/>
<path d="M315.865 112.029C313.544 105.561 311.432 100.396 312.065 98.7743C312.699 97.1523 314.25 96.5322 316.994 100.57C319.738 104.609 328.552 118.914 330.661 123.058C332.772 127.199 334.093 133.552 330.661 135.495C324.857 138.572 318.189 118.5 315.865 112.029" fill="#F4BA8E"/>
<path d="M313.531 105.422C311.953 101.884 311.953 99.815 310.803 97.2824C310.424 96.4433 308.923 93.219 309.35 92.8091C309.774 92.3993 311.485 96.1701 311.61 95.8275C311.723 95.5217 309.274 90.604 309.716 90.27C310.157 89.9361 312.496 94.598 312.633 94.3703C312.845 94.0191 310.335 88.7652 310.779 88.6004C311.502 88.3337 313.406 93.8976 313.709 93.7242C313.913 93.6093 312.13 89.4829 312.741 89.0882C313.352 88.6958 315.81 95.255 315.953 96.0074C316.098 96.7577 317.891 91.9808 319.088 92.6292C319.721 92.9718 318.471 96.4237 317.103 98.7374C316.037 100.535 317.878 101.884 319.257 104.045C320.082 105.342 313.934 106.411 313.934 106.411L313.531 105.422" fill="#F4BA8E"/>
<path d="M351.25 100.878C350.711 100.774 350.172 100.668 349.631 100.564C349.624 101.505 349.615 102.446 349.609 103.387C349.607 103.636 349.613 103.911 349.774 104.102L350.176 104.36C351.06 104.744 351.974 105.058 352.905 105.299C354.748 105.778 356.649 105.971 358.544 106.16C358.553 105.215 358.562 104.267 358.568 103.322C358.57 103.107 358.57 102.886 358.484 102.691C357.936 101.433 352.452 101.119 351.25 100.878" fill="#3C93E8"/>
<path d="M368.9 227.674L368.519 227.659C368.765 221.47 368.787 215.197 368.586 209.011C368.467 205.296 368.254 201.363 367.133 197.699C366.606 195.979 365.87 194.288 365.158 192.648C364.023 190.04 362.849 187.34 362.496 184.467C362.175 181.85 362.245 179.606 362.708 177.605C365.554 165.295 366.353 152.749 364.902 143.184L365.279 143.126C366.736 152.738 365.935 165.334 363.078 177.689C362.626 179.647 362.559 181.848 362.873 184.42C363.217 187.241 364.382 189.912 365.506 192.497C366.223 194.145 366.964 195.847 367.496 197.588C368.631 201.296 368.843 205.26 368.967 209C369.168 215.195 369.144 221.477 368.9 227.674" fill="#DB0081"/>
<path d="M339.848 68.2048C338.176 66.1731 337.316 54.9367 340.42 53.9827C343.523 53.0264 343.523 56.5738 343.523 56.5738C343.523 56.5738 347.703 50.3962 350.925 52.1894C354.15 53.9827 351.984 56.0144 351.984 56.0144C351.984 56.0144 357.61 51.9509 359.52 55.2967C361.43 58.6424 358.567 59.9738 358.567 59.9738C358.567 59.9738 362.884 57.9703 363.921 59.7418C365.809 62.9683 363.074 63.9028 361.537 64.9198C359.999 65.9345 358.303 74.5407 357.48 74.7792C356.655 75.0199 358.589 68.8922 357.456 67.8492C348.129 59.2409 339.848 68.2048 339.848 68.2048" fill="black"/>
<defs>
<linearGradient id="paint0_linear" x1="161.162" y1="32.6033" x2="432.022" y2="327.292" gradientUnits="userSpaceOnUse">
<stop stop-color="#A261C0"/>
<stop offset="0.00903614" stop-color="#A261C0"/>
<stop offset="0.947289" stop-color="#813BB2"/>
<stop offset="1" stop-color="#813BB2"/>
</linearGradient>
<linearGradient id="paint1_linear" x1="161.172" y1="32.6003" x2="432.039" y2="327.273" gradientUnits="userSpaceOnUse">
<stop stop-color="#D3ACEA"/>
<stop offset="0.00903614" stop-color="#D3ACEA"/>
<stop offset="0.947289" stop-color="#B689DD"/>
<stop offset="1" stop-color="#B689DD"/>
</linearGradient>
</defs>
</svg>
