<svg width="1581" height="571" viewBox="0 0 1581 571" fill="none" xmlns="http://www.w3.org/2000/svg">
<path d="M1461.16 443.338C1461.16 443.338 1462.14 438.535 1451.07 423.759C1448.68 420.573 1441.4 408.569 1441.4 408.569C1438.51 407.856 1429.55 412.626 1427.18 414.079L1426.43 414.546C1426.43 414.546 1422.6 431.152 1430.75 429.268C1431 429.208 1431.26 429.161 1431.51 429.118C1439.4 427.895 1447.01 435.702 1450.46 440.661C1452.72 443.883 1459.67 443.487 1461.16 443.338Z" fill="#233862"/>
<path d="M1402.73 411.067C1402.73 411.067 1403.7 406.268 1392.63 391.492C1390.24 388.302 1382.96 376.299 1382.96 376.299C1380.08 375.585 1371.11 380.359 1368.75 381.808C1368.27 382.101 1368 382.279 1368 382.279C1368 382.279 1364.16 398.882 1372.31 396.998C1372.57 396.937 1372.82 396.891 1373.08 396.851C1380.94 395.624 1388.57 403.435 1392.02 408.391C1394.28 411.613 1401.23 411.199 1402.73 411.067Z" fill="#233862"/>
<path d="M1278 328.875C1280.26 319.162 1305.45 288.875 1318.35 295.89C1331.25 302.905 1324.55 340.999 1311.11 385.926C1310.9 386.614 1310.69 387.292 1310.48 387.97C1337.58 383.528 1369.84 382.183 1369.84 382.183L1373.23 397.815C1348.81 404.552 1301.39 427.962 1281.47 438.042C1273.86 441.486 1264.93 441.486 1263.11 434.806C1257.02 412.444 1278 328.875 1278 328.875Z" fill="#137F7F"/>
<path d="M1326.09 468.821C1326.09 468.821 1383.73 442.856 1418.88 432.362C1423.24 431.067 1427.24 430.01 1430.75 429.261L1427.05 414.214C1427.05 414.214 1423.61 414.154 1418.02 414.161C1396.13 414.221 1341.33 415.445 1331.54 426.168C1319.25 439.641 1326.09 468.821 1326.09 468.821Z" fill="#FFB27D"/>
<path d="M1282.53 112.901C1280.63 117.254 1279.12 122.959 1280.4 125.967C1281.85 129.378 1281.45 131.848 1281.45 131.848L1284.55 132.604L1288.26 133.503C1288.26 133.503 1288.45 133.189 1288.75 132.647C1289.05 132.105 1289.44 131.344 1289.82 130.456C1289.9 129.947 1290.1 129.465 1290.4 129.05C1290.71 128.634 1291.11 128.299 1291.57 128.072C1293.15 127.33 1294.79 125.428 1295.11 123.591C1295.43 121.753 1297.3 118.328 1296.76 117.967C1295.47 117.093 1293.52 122.428 1292.38 122.663C1291.34 122.881 1291.01 122.149 1290.95 122.007V121.978C1289.16 117.618 1292.47 106.635 1289.84 106.007C1288.87 105.782 1283.33 111.049 1282.53 112.901Z" fill="#E9D6B8"/>
<path d="M1482.01 200.723C1478.79 204.209 1474.17 207.899 1470.89 207.945C1467.18 207.995 1465.08 209.373 1465.08 209.373L1463.13 206.85L1460.81 203.831C1460.81 203.831 1461.02 203.524 1461.4 203.036C1461.77 202.547 1464.4 200.342 1464.44 198.6C1464.49 196.859 1465.56 194.579 1467.12 193.559C1468.68 192.538 1471.05 189.434 1471.6 189.776C1472.93 190.604 1468.83 194.54 1469.07 195.678C1469.3 196.709 1470.1 196.716 1470.25 196.709H1470.28C1475 196.588 1483.74 189.113 1485.36 191.268C1485.97 192.056 1483.38 199.239 1482.01 200.723Z" fill="#E9D6B8"/>
<path d="M1342.54 336.125C1356.76 339.807 1353.19 356.874 1351.07 403.717C1350.82 409.015 1350.33 414.136 1349.64 419.017C1370.48 414.838 1402.52 414.21 1418.03 414.168C1418.03 414.168 1420.6 419.877 1420.49 424.458C1420.25 434.189 1415.27 440.622 1415.27 440.622C1380.12 451.116 1326.09 468.81 1326.09 468.81V468.768C1322.49 469.703 1319.1 467.904 1316.4 462.752C1305.65 442.203 1287.26 305.464 1287.26 305.464C1287.08 295.508 1328.32 332.446 1342.54 336.125Z" fill="#198D8D"/>
<path d="M1365.75 231.153C1365.75 231.153 1360.75 218.504 1370.47 200.467L1356.65 203.532L1347.26 205.612C1345.9 208.589 1344.71 211.639 1343.69 214.747C1343.15 216.309 1341.18 222.579 1340.58 224.516C1337.28 224.655 1342.04 229.647 1348.8 230.628C1356.36 231.713 1365.75 231.153 1365.75 231.153Z" fill="#E9D6B8"/>
<path d="M1347.26 205.602C1345.9 208.579 1344.71 211.628 1343.69 214.736C1351.75 217.141 1366.14 209.313 1366.14 209.313C1362.89 206.351 1359.68 204.513 1356.66 203.521L1347.26 205.602Z" fill="#DFCAA8"/>
<path d="M1341.06 200.884C1341.06 200.884 1357.07 218.561 1367.94 208.438C1378.81 198.315 1388.2 193.78 1378.44 182.066C1368.68 170.351 1362.51 172.053 1358.07 174.551C1353.62 177.049 1337.17 196.024 1341.06 200.884Z" fill="#E9D6B8"/>
<path d="M1368.84 207.343C1368.84 207.343 1367.2 205.526 1369.55 203.168C1371.91 200.809 1374.63 197.402 1372 196.356C1369.38 195.311 1367.93 196.92 1367.84 195.239C1367.76 193.559 1371.06 189.38 1364.98 184.092C1358.91 178.804 1354.6 178.965 1352.69 175.354C1350.78 171.743 1354.15 167.186 1354.15 167.186C1354.15 167.186 1353.73 169.431 1354.59 170.933C1354.59 170.933 1355.01 160.375 1364.31 160.282C1373.62 160.189 1377.02 167.775 1380.14 170.566C1387.01 176.724 1391.33 180.856 1389.93 187.464C1388.52 194.073 1377.09 206.454 1368.84 207.343Z" fill="#233862"/>
<path d="M1351.06 197.202L1345.12 191.621C1345.12 191.621 1342.7 195.321 1344.4 196.927C1346.11 198.533 1351.06 197.202 1351.06 197.202Z" fill="white"/>
<path d="M1271.32 163.768C1273.86 148.068 1281.5 130.834 1281.5 130.834L1289.83 130.456C1289.83 130.456 1288.91 151.708 1289.12 166.569C1289.21 173.706 1292.33 180.168 1293.19 181.309C1295.78 184.763 1333.86 221.351 1335.13 222.515L1335.16 222.547C1339.22 223.235 1338.77 229.879 1342.93 230.996C1349.87 232.852 1361.4 229.469 1367.57 231.749C1367.57 231.749 1417.02 231.806 1424.54 228.209C1432.07 224.613 1461.41 203.018 1461.41 203.018L1466.81 209.341C1466.81 209.341 1446.68 248.041 1430.71 255.013C1422.02 258.806 1402.93 263.366 1387.34 266.738C1384.32 267.397 1381.52 268.848 1379.24 270.941C1376.96 273.033 1375.28 275.694 1374.37 278.649C1359.71 325.866 1367.08 365.684 1367.08 365.684C1367.08 365.684 1353.02 367.253 1335.52 362.401C1312.77 356.092 1296.14 345.873 1296.14 345.873C1289.73 338.112 1293.52 309.656 1293.52 309.656C1293.52 309.656 1289.1 314.427 1287.61 322.402C1286.54 328.143 1285.97 331.322 1285.61 333.338C1285.54 333.773 1285.35 334.182 1285.07 334.525C1284.79 334.868 1284.43 335.134 1284.02 335.298C1283.61 335.462 1283.16 335.519 1282.72 335.462C1282.28 335.406 1281.87 335.238 1281.51 334.976C1278.22 332.546 1273.53 328.76 1272.06 325.984C1266.94 316.279 1278.33 276.744 1294.07 249.176C1295.45 246.759 1296.15 244.014 1296.1 241.232C1296.05 238.449 1295.24 235.732 1293.77 233.369C1284.09 217.869 1269.21 193.288 1269.03 188.353C1268.94 185.67 1269.86 172.789 1271.32 163.768Z" fill="#79CCCA"/>
<path d="M1344.01 234.56C1344.01 234.56 1330.73 253.364 1340.47 271.533C1350.2 289.703 1388.44 287.198 1395.51 309.895L1391.22 324.028L1375.23 315.39C1375.23 315.39 1373.89 303.115 1358.17 297.784C1327.45 287.376 1320.05 269.393 1326.5 253.304C1331.95 239.705 1339.84 233.154 1339.84 233.154L1344.01 234.56Z" fill="#FFCF50"/>
<path d="M1364.51 224.217L1349.12 229.294L1348.36 232.206L1367.56 231.753C1367.56 231.753 1366.54 227.346 1364.51 224.217Z" fill="#FFCF50"/>
<path d="M1341.99 219.992L1341.48 227.939C1341.48 227.939 1339.46 229.583 1339.49 229.366C1339.51 229.148 1335.16 222.551 1335.16 222.551C1337.36 221.511 1339.65 220.655 1341.99 219.992Z" fill="#FFCF50"/>
<path d="M1349.12 229.294L1341.26 226.646C1341.09 226.589 1340.91 226.57 1340.73 226.591C1340.55 226.612 1340.38 226.672 1340.23 226.767C1340.08 226.861 1339.96 226.988 1339.86 227.139C1339.76 227.289 1339.7 227.458 1339.68 227.635L1339.04 232.901C1339 233.174 1339.06 233.45 1339.21 233.684C1339.36 233.917 1339.58 234.093 1339.84 234.182L1343.3 235.349C1343.48 235.411 1343.68 235.427 1343.87 235.396C1344.06 235.365 1344.25 235.288 1344.4 235.17L1349.44 231.381C1349.62 231.251 1349.75 231.077 1349.83 230.876C1349.92 230.675 1349.94 230.455 1349.91 230.241C1349.88 230.026 1349.79 229.825 1349.65 229.658C1349.51 229.491 1349.33 229.365 1349.12 229.294Z" fill="#F9BB41"/>
<path d="M1290.23 129.347L1290.93 135.944C1290.93 135.944 1282.58 136.073 1282.58 135.944C1282.58 135.816 1282.33 132.672 1282.33 132.672L1280.94 136.322L1277.84 135.313L1281.39 129.347C1281.39 129.347 1284.91 131.013 1290.23 129.347Z" fill="#2A425B"/>
<path d="M1461.4 203.021L1466.84 209.341L1465.24 215.507L1463.03 213.994L1464.12 209.359L1460.31 212.477L1455.38 205.979L1461.4 203.021Z" fill="#2A425B"/>
<path d="M1462.58 208.82C1462.58 208.72 1462.55 208.623 1462.5 208.54C1462.44 208.457 1462.36 208.393 1462.27 208.355C1462.18 208.317 1462.08 208.307 1461.98 208.326C1461.88 208.345 1461.79 208.393 1461.72 208.464C1461.65 208.534 1461.6 208.624 1461.58 208.721C1461.56 208.819 1461.57 208.92 1461.61 209.012C1461.65 209.104 1461.72 209.183 1461.8 209.238C1461.88 209.293 1461.98 209.323 1462.08 209.323C1462.21 209.322 1462.34 209.268 1462.43 209.174C1462.53 209.08 1462.58 208.953 1462.58 208.82Z" fill="#EBF3FA"/>
<path d="M1284.11 133.503C1284.11 133.424 1284.09 133.347 1284.05 133.281C1284 133.215 1283.94 133.164 1283.87 133.134C1283.79 133.103 1283.71 133.096 1283.63 133.111C1283.56 133.127 1283.48 133.166 1283.43 133.222C1283.37 133.278 1283.33 133.35 1283.32 133.427C1283.3 133.505 1283.31 133.586 1283.34 133.659C1283.37 133.732 1283.43 133.794 1283.49 133.837C1283.56 133.881 1283.64 133.903 1283.72 133.903C1283.82 133.902 1283.92 133.859 1284 133.784C1284.07 133.71 1284.11 133.609 1284.11 133.503Z" fill="#EBF3FA"/>
<path d="M1297.23 287.119C1297.23 286.908 1297.17 286.701 1297.05 286.525C1296.93 286.349 1296.77 286.211 1296.57 286.13C1296.37 286.049 1296.16 286.028 1295.95 286.069C1295.74 286.111 1295.55 286.213 1295.4 286.362C1295.25 286.512 1295.15 286.703 1295.11 286.91C1295.07 287.118 1295.09 287.333 1295.17 287.529C1295.25 287.725 1295.39 287.892 1295.56 288.009C1295.74 288.127 1295.95 288.19 1296.16 288.19C1296.44 288.19 1296.72 288.077 1296.92 287.876C1297.12 287.675 1297.23 287.403 1297.23 287.119Z" fill="#EBF3FA"/>
<path d="M1305.77 269.361C1305.77 269.15 1305.7 268.943 1305.59 268.767C1305.47 268.591 1305.3 268.454 1305.11 268.372C1304.91 268.291 1304.69 268.27 1304.49 268.312C1304.28 268.353 1304.09 268.455 1303.94 268.605C1303.79 268.754 1303.68 268.945 1303.64 269.153C1303.6 269.36 1303.62 269.576 1303.7 269.771C1303.79 269.967 1303.92 270.134 1304.1 270.251C1304.28 270.369 1304.48 270.432 1304.7 270.432C1304.98 270.432 1305.25 270.319 1305.45 270.118C1305.65 269.918 1305.77 269.645 1305.77 269.361Z" fill="#EBF3FA"/>
<path d="M1317.52 255.944C1317.52 255.733 1317.46 255.526 1317.34 255.35C1317.23 255.174 1317.06 255.037 1316.86 254.956C1316.67 254.874 1316.45 254.853 1316.24 254.895C1316.03 254.936 1315.84 255.038 1315.69 255.188C1315.54 255.337 1315.44 255.528 1315.4 255.736C1315.36 255.943 1315.38 256.158 1315.46 256.354C1315.54 256.55 1315.68 256.717 1315.86 256.834C1316.03 256.952 1316.24 257.015 1316.45 257.015C1316.74 257.015 1317.01 256.902 1317.21 256.701C1317.41 256.501 1317.52 256.228 1317.52 255.944Z" fill="#EBF3FA"/>
<path d="M1370.38 519.206C1328.61 517.4 1094.2 527.505 1141.2 547.714C1188.19 567.923 1361.61 581.396 1337.57 560.513C1313.52 539.63 1610.01 554.45 1578.68 536.263C1547.35 518.075 1370.38 519.206 1370.38 519.206Z" fill="#F0F0F0"/>
<path d="M71.7544 29.86H68.4544L64.1344 24.46V22.81L68.4544 17.38H71.7544L66.8644 23.62L71.7544 29.86ZM78.9244 29.86H75.6244L71.3044 24.46V22.81L75.6244 17.38H78.9244L74.0644 23.62L78.9244 29.86ZM86.4987 31H83.1987V10H86.4987V18.58L95.1087 10H99.3387L89.6187 19.6L100.899 31H96.3987L86.4987 20.92V31ZM117.778 28.48C118.098 28.48 118.388 28.41 118.648 28.27V30.73C118.208 31.05 117.578 31.21 116.758 31.21C115.078 31.21 114.048 30.51 113.668 29.11C112.328 30.63 110.518 31.39 108.238 31.39C106.658 31.39 105.338 30.95 104.278 30.07C103.238 29.21 102.718 28 102.718 26.44C102.718 24.88 103.288 23.68 104.428 22.84C105.548 21.98 106.948 21.55 108.628 21.55C110.408 21.55 111.978 21.93 113.338 22.69V21.88C113.338 19.74 111.898 18.67 109.018 18.67C107.338 18.67 105.788 19.11 104.368 19.99V17.14C105.828 16.3 107.618 15.88 109.738 15.88C111.818 15.88 113.468 16.38 114.688 17.38C115.928 18.36 116.548 19.74 116.548 21.52V27.01C116.548 27.47 116.658 27.83 116.878 28.09C117.118 28.35 117.418 28.48 117.778 28.48ZM113.338 26.83V25.03C112.098 24.33 110.788 23.98 109.408 23.98C108.328 23.98 107.478 24.18 106.858 24.58C106.258 24.98 105.958 25.54 105.958 26.26C105.958 27.02 106.238 27.6 106.798 28C107.378 28.4 108.158 28.6 109.138 28.6C109.938 28.6 110.718 28.44 111.478 28.12C112.238 27.78 112.858 27.35 113.338 26.83ZM125.688 31H122.448V16.27H125.688V21.85L131.508 16.27H135.648L128.658 22.87L136.698 31H132.258L125.688 24.34V31ZM143.217 31H140.187V16.27H143.427V26.26L151.377 16.27H154.407V31H151.167V20.98L143.217 31ZM158.575 23.62C158.575 21.4 159.275 19.56 160.675 18.1C162.095 16.62 163.915 15.88 166.135 15.88C167.655 15.88 168.945 16.28 170.005 17.08C172.085 18.56 173.125 20.78 173.125 23.74V24.58H161.845C162.045 25.82 162.635 26.79 163.615 27.49C164.615 28.19 165.875 28.54 167.395 28.54C169.075 28.54 170.655 28.1 172.135 27.22V29.95C170.775 30.91 168.965 31.39 166.705 31.39C164.445 31.39 162.515 30.67 160.915 29.23C159.355 27.79 158.575 25.92 158.575 23.62ZM161.875 22.12H169.855C169.815 21.2 169.465 20.39 168.805 19.69C168.125 18.97 167.185 18.61 165.985 18.61C164.845 18.61 163.895 18.95 163.135 19.63C162.395 20.29 161.975 21.12 161.875 22.12ZM189.026 31H185.786V16.27H189.026V21.85L194.846 16.27H198.986L191.996 22.87L200.036 31H195.596L189.026 24.34V31ZM212.014 15.88C214.094 15.88 215.804 16.63 217.144 18.13C218.484 19.61 219.154 21.45 219.154 23.65C219.154 25.83 218.484 27.66 217.144 29.14C215.804 30.64 214.094 31.39 212.014 31.39C209.754 31.39 208.004 30.59 206.764 28.99V37H203.524V16.27H206.764V18.28C208.004 16.68 209.754 15.88 212.014 15.88ZM211.144 18.73C210.204 18.73 209.344 18.98 208.564 19.48C207.784 19.96 207.184 20.59 206.764 21.37V25.93C207.184 26.69 207.784 27.32 208.564 27.82C209.364 28.3 210.224 28.54 211.144 28.54C212.504 28.54 213.634 28.07 214.534 27.13C215.434 26.17 215.884 25.01 215.884 23.65C215.884 22.27 215.434 21.11 214.534 20.17C213.634 19.21 212.504 18.73 211.144 18.73ZM226.344 31H223.314V16.27H226.554V26.26L234.504 16.27H237.534V31H234.294V20.98L226.344 31ZM249.262 31H246.022V19.12H241.042V16.27H254.212V19.12H249.262V31ZM256.452 23.62C256.452 21.4 257.152 19.56 258.552 18.1C259.972 16.62 261.792 15.88 264.012 15.88C265.532 15.88 266.822 16.28 267.882 17.08C269.962 18.56 271.002 20.78 271.002 23.74V24.58H259.722C259.922 25.82 260.512 26.79 261.492 27.49C262.492 28.19 263.752 28.54 265.272 28.54C266.952 28.54 268.532 28.1 270.012 27.22V29.95C268.652 30.91 266.842 31.39 264.582 31.39C262.322 31.39 260.392 30.67 258.792 29.23C257.232 27.79 256.452 25.92 256.452 23.62ZM259.752 22.12H267.732C267.692 21.2 267.342 20.39 266.682 19.69C266.002 18.97 265.062 18.61 263.862 18.61C262.722 18.61 261.772 18.95 261.012 19.63C260.272 20.29 259.852 21.12 259.752 22.12ZM283.76 15.88C285.84 15.88 287.55 16.63 288.89 18.13C290.23 19.61 290.9 21.45 290.9 23.65C290.9 25.83 290.23 27.66 288.89 29.14C287.55 30.64 285.84 31.39 283.76 31.39C281.5 31.39 279.75 30.59 278.51 28.99V37H275.27V16.27H278.51V18.28C279.75 16.68 281.5 15.88 283.76 15.88ZM282.89 18.73C281.95 18.73 281.09 18.98 280.31 19.48C279.53 19.96 278.93 20.59 278.51 21.37V25.93C278.93 26.69 279.53 27.32 280.31 27.82C281.11 28.3 281.97 28.54 282.89 28.54C284.25 28.54 285.38 28.07 286.28 27.13C287.18 26.17 287.63 25.01 287.63 23.65C287.63 22.27 287.18 21.11 286.28 20.17C285.38 19.21 284.25 18.73 282.89 18.73ZM298.09 31H295.06V16.27H298.3V26.26L306.25 16.27H309.28V31H306.04V20.98L298.09 31ZM317.528 31H314.498V16.27H317.738V26.26L325.688 16.27H328.717V31H325.478V20.98L317.528 31ZM343.768 35.05H340.648V28.15H342.568C343.348 26.97 343.888 25.52 344.188 23.8C344.488 22.14 344.658 19.63 344.698 16.27H356.428V28.15H358.978V35.05H355.918V31H343.768V35.05ZM345.988 28.15H353.188V19.12H347.668C347.668 22.94 347.108 25.95 345.988 28.15ZM373.501 19.12H367.951L367.891 21.25C367.871 23.37 367.651 25.19 367.231 26.71C366.531 29.51 364.841 30.96 362.161 31.06C361.741 31.06 361.401 31.02 361.141 30.94V28.15C361.361 28.21 361.581 28.24 361.801 28.24C362.861 28.24 363.611 27.7 364.051 26.62C364.491 25.52 364.731 23.67 364.771 21.07L364.861 16.27H376.741V31H373.501V19.12ZM384.426 31H380.706L384.876 25.27C383.836 25.01 383.026 24.5 382.446 23.74C381.886 22.98 381.606 22.04 381.606 20.92C381.606 19.5 382.076 18.37 383.016 17.53C383.976 16.69 385.356 16.27 387.156 16.27H394.896V31H391.656V25.93H388.086L384.426 31ZM387.606 23.32H391.656V18.88H387.606C386.746 18.88 386.076 19.08 385.596 19.48C385.136 19.86 384.906 20.4 384.906 21.1C384.906 21.8 385.136 22.35 385.596 22.75C386.076 23.13 386.746 23.32 387.606 23.32ZM416.998 31H408.508V16.27H416.548C417.988 16.27 419.118 16.62 419.938 17.32C420.758 18 421.168 18.9 421.168 20.02C421.168 20.74 420.988 21.39 420.628 21.97C420.288 22.53 419.838 22.94 419.278 23.2C421.198 23.76 422.158 25.02 422.158 26.98C422.158 28.24 421.698 29.23 420.778 29.95C419.878 30.65 418.618 31 416.998 31ZM411.748 24.76V28.39H416.428C417.188 28.39 417.778 28.23 418.198 27.91C418.638 27.59 418.858 27.15 418.858 26.59C418.858 26.01 418.638 25.56 418.198 25.24C417.778 24.92 417.188 24.76 416.428 24.76H411.748ZM411.748 18.88V22.15H415.768C416.468 22.15 417.008 22.01 417.388 21.73C417.788 21.43 417.988 21.03 417.988 20.53C417.988 19.43 417.248 18.88 415.768 18.88H411.748ZM440.369 28.48C440.689 28.48 440.979 28.41 441.239 28.27V30.73C440.799 31.05 440.169 31.21 439.349 31.21C437.669 31.21 436.639 30.51 436.259 29.11C434.919 30.63 433.109 31.39 430.829 31.39C429.249 31.39 427.929 30.95 426.869 30.07C425.829 29.21 425.309 28 425.309 26.44C425.309 24.88 425.879 23.68 427.019 22.84C428.139 21.98 429.539 21.55 431.219 21.55C432.999 21.55 434.569 21.93 435.929 22.69V21.88C435.929 19.74 434.489 18.67 431.609 18.67C429.929 18.67 428.379 19.11 426.959 19.99V17.14C428.419 16.3 430.209 15.88 432.329 15.88C434.409 15.88 436.059 16.38 437.279 17.38C438.519 18.36 439.139 19.74 439.139 21.52V27.01C439.139 27.47 439.249 27.83 439.469 28.09C439.709 28.35 440.009 28.48 440.369 28.48ZM435.929 26.83V25.03C434.689 24.33 433.379 23.98 431.999 23.98C430.919 23.98 430.069 24.18 429.449 24.58C428.849 24.98 428.549 25.54 428.549 26.26C428.549 27.02 428.829 27.6 429.389 28C429.969 28.4 430.749 28.6 431.729 28.6C432.529 28.6 433.309 28.44 434.069 28.12C434.829 27.78 435.449 27.35 435.929 26.83ZM451.94 31.39C449.72 31.39 447.84 30.66 446.3 29.2C444.76 27.72 443.99 25.85 443.99 23.59C443.99 21.33 444.76 19.48 446.3 18.04C447.86 16.6 449.75 15.88 451.97 15.88C453.65 15.88 455.13 16.22 456.41 16.9V19.69C455.07 19.05 453.75 18.73 452.45 18.73C450.97 18.73 449.73 19.19 448.73 20.11C447.73 21.05 447.23 22.22 447.23 23.62C447.23 25.04 447.73 26.22 448.73 27.16C449.73 28.08 450.97 28.54 452.45 28.54C454.03 28.54 455.43 28.17 456.65 27.43V30.19C455.25 30.99 453.68 31.39 451.94 31.39ZM192.561 69H184.071V54.27H192.111C193.551 54.27 194.681 54.62 195.501 55.32C196.321 56 196.731 56.9 196.731 58.02C196.731 58.74 196.551 59.39 196.191 59.97C195.851 60.53 195.401 60.94 194.841 61.2C196.761 61.76 197.721 63.02 197.721 64.98C197.721 66.24 197.261 67.23 196.341 67.95C195.441 68.65 194.181 69 192.561 69ZM187.311 62.76V66.39H191.991C192.751 66.39 193.341 66.23 193.761 65.91C194.201 65.59 194.421 65.15 194.421 64.59C194.421 64.01 194.201 63.56 193.761 63.24C193.341 62.92 192.751 62.76 191.991 62.76H187.311ZM187.311 56.88V60.15H191.331C192.031 60.15 192.571 60.01 192.951 59.73C193.351 59.43 193.551 59.03 193.551 58.53C193.551 57.43 192.811 56.88 191.331 56.88H187.311ZM215.933 66.48C216.253 66.48 216.543 66.41 216.803 66.27V68.73C216.363 69.05 215.733 69.21 214.913 69.21C213.233 69.21 212.203 68.51 211.823 67.11C210.483 68.63 208.673 69.39 206.393 69.39C204.813 69.39 203.493 68.95 202.433 68.07C201.393 67.21 200.873 66 200.873 64.44C200.873 62.88 201.443 61.68 202.583 60.84C203.703 59.98 205.103 59.55 206.783 59.55C208.563 59.55 210.133 59.93 211.493 60.69V59.88C211.493 57.74 210.053 56.67 207.173 56.67C205.493 56.67 203.943 57.11 202.523 57.99V55.14C203.983 54.3 205.773 53.88 207.893 53.88C209.973 53.88 211.623 54.38 212.843 55.38C214.083 56.36 214.703 57.74 214.703 59.52V65.01C214.703 65.47 214.813 65.83 215.033 66.09C215.273 66.35 215.573 66.48 215.933 66.48ZM211.493 64.83V63.03C210.253 62.33 208.943 61.98 207.563 61.98C206.483 61.98 205.633 62.18 205.013 62.58C204.413 62.98 204.113 63.54 204.113 64.26C204.113 65.02 204.393 65.6 204.953 66C205.533 66.4 206.313 66.6 207.293 66.6C208.093 66.6 208.873 66.44 209.633 66.12C210.393 65.78 211.013 65.35 211.493 64.83ZM223.093 69H219.103L226.123 61.11L219.943 54.27H223.753L228.913 60.03V54.27H232.153V60.03L237.313 54.27H241.123L234.883 61.11L241.963 69H237.943L232.153 62.43V69H228.913V62.43L223.093 69ZM248.906 69H245.666V54.27H248.906V60.03H256.376V54.27H259.616V69H256.376V62.88H248.906V69ZM282.9 69H279.66V54.27H282.9V69ZM271.8 69H264.84V54.27H268.08V58.74H271.65C273.45 58.74 274.89 59.21 275.97 60.15C277.05 61.07 277.59 62.31 277.59 63.87C277.59 65.33 277.08 66.56 276.06 67.56C275.04 68.52 273.62 69 271.8 69ZM268.08 61.47V66.27H271.29C272.23 66.27 272.97 66.06 273.51 65.64C274.05 65.2 274.32 64.61 274.32 63.87C274.32 63.11 274.05 62.52 273.51 62.1C272.99 61.68 272.25 61.47 271.29 61.47H268.08ZM292.286 69.24C291.686 69.24 291.186 69.04 290.786 68.64C290.386 68.22 290.186 67.71 290.186 67.11C290.186 66.53 290.386 66.04 290.786 65.64C291.186 65.22 291.686 65.01 292.286 65.01C292.866 65.01 293.356 65.22 293.756 65.64C294.176 66.04 294.386 66.53 294.386 67.11C294.386 67.71 294.176 68.22 293.756 68.64C293.356 69.04 292.866 69.24 292.286 69.24ZM293.756 62.25H290.636V57.9C292.016 57.64 293.236 57.13 294.296 56.37C295.356 55.61 295.886 54.72 295.886 53.7C295.886 52.74 295.526 51.99 294.806 51.45C294.086 50.89 293.116 50.61 291.896 50.61C290.136 50.61 288.386 51.18 286.646 52.32V49.47C288.246 48.29 290.176 47.7 292.436 47.7C294.336 47.7 295.936 48.22 297.236 49.26C298.556 50.3 299.216 51.71 299.216 53.49C299.216 54.95 298.676 56.2 297.596 57.24C296.556 58.26 295.276 59.01 293.756 59.49V62.25ZM316.777 60.81V62.46L312.458 67.86H309.158L314.048 61.62L309.158 55.38H312.458L316.777 60.81ZM309.608 60.81V62.46L305.288 67.86H301.988L306.848 61.62L301.988 55.38H305.288L309.608 60.81Z" fill="#6A6A6A"/>
<path d="M634.412 29.86H631.112L626.792 24.46V22.81L631.112 17.38H634.412L629.522 23.62L634.412 29.86ZM641.582 29.86H638.282L633.962 24.46V22.81L638.282 17.38H641.582L636.722 23.62L641.582 29.86ZM650.596 26.08C652.016 27.56 653.756 28.3 655.816 28.3C657.876 28.3 659.616 27.56 661.036 26.08C662.456 24.56 663.166 22.7 663.166 20.5C663.166 18.28 662.456 16.43 661.036 14.95C659.616 13.45 657.876 12.7 655.816 12.7C653.756 12.7 652.016 13.45 650.596 14.95C649.196 16.41 648.496 18.26 648.496 20.5C648.496 22.74 649.196 24.6 650.596 26.08ZM663.496 28.27C661.456 30.35 658.896 31.39 655.816 31.39C652.736 31.39 650.176 30.35 648.136 28.27C646.116 26.15 645.106 23.56 645.106 20.5C645.106 17.42 646.116 14.84 648.136 12.76C650.176 10.66 652.736 9.61 655.816 9.61C658.896 9.61 661.456 10.66 663.496 12.76C665.536 14.84 666.556 17.42 666.556 20.5C666.556 23.58 665.536 26.17 663.496 28.27ZM687.642 35.05H684.492V31H671.322V16.27H674.562V28.15H681.822V16.27H685.062V28.15H687.642V35.05ZM690.442 23.62C690.442 21.4 691.142 19.56 692.542 18.1C693.962 16.62 695.782 15.88 698.002 15.88C699.522 15.88 700.812 16.28 701.872 17.08C703.952 18.56 704.992 20.78 704.992 23.74V24.58H693.712C693.912 25.82 694.502 26.79 695.482 27.49C696.482 28.19 697.742 28.54 699.262 28.54C700.942 28.54 702.522 28.1 704.002 27.22V29.95C702.642 30.91 700.832 31.39 698.572 31.39C696.312 31.39 694.382 30.67 692.782 29.23C691.222 27.79 690.442 25.92 690.442 23.62ZM693.742 22.12H701.722C701.682 21.2 701.332 20.39 700.672 19.69C699.992 18.97 699.052 18.61 697.852 18.61C696.712 18.61 695.762 18.95 695.002 19.63C694.262 20.29 693.842 21.12 693.742 22.12ZM712.5 31H709.26V16.27H712.5V22.03H719.97V16.27H723.21V31H719.97V24.88H712.5V31ZM731.464 31H728.434V16.27H731.674V26.26L739.624 16.27H742.654V31H739.414V20.98L731.464 31ZM754.382 31H751.142V19.12H746.162V16.27H759.332V19.12H754.382V31ZM761.573 23.62C761.573 21.4 762.273 19.56 763.673 18.1C765.093 16.62 766.913 15.88 769.133 15.88C770.653 15.88 771.943 16.28 773.003 17.08C775.083 18.56 776.123 20.78 776.123 23.74V24.58H764.843C765.043 25.82 765.633 26.79 766.613 27.49C767.613 28.19 768.873 28.54 770.393 28.54C772.073 28.54 773.653 28.1 775.133 27.22V29.95C773.773 30.91 771.963 31.39 769.703 31.39C767.443 31.39 765.513 30.67 763.913 29.23C762.353 27.79 761.573 25.92 761.573 23.62ZM764.873 22.12H772.853C772.813 21.2 772.463 20.39 771.803 19.69C771.123 18.97 770.183 18.61 768.983 18.61C767.843 18.61 766.893 18.95 766.133 19.63C765.393 20.29 764.973 21.12 764.873 22.12ZM792.774 31.39C791.014 31.39 789.454 31 788.094 30.22V27.4C789.394 28.16 790.784 28.54 792.264 28.54C793.584 28.54 794.714 28.21 795.654 27.55C796.614 26.87 797.184 25.98 797.364 24.88H791.154V22.27H797.364C797.124 21.17 796.544 20.31 795.624 19.69C794.704 19.05 793.584 18.73 792.264 18.73C790.904 18.73 789.614 19.05 788.394 19.69V16.87C789.674 16.21 791.134 15.88 792.774 15.88C794.974 15.88 796.844 16.6 798.384 18.04C799.924 19.48 800.694 21.33 800.694 23.59C800.694 25.85 799.924 27.72 798.384 29.2C796.864 30.66 794.994 31.39 792.774 31.39ZM810.952 31H807.712V19.12H802.732V16.27H815.902V19.12H810.952V31ZM822.486 31H819.456V16.27H822.696V26.26L830.646 16.27H833.676V31H830.436V20.98L822.486 31ZM850.527 31H847.287V16.27H850.527V21.85L856.347 16.27H860.487L853.497 22.87L861.537 31H857.097L850.527 24.34V31ZM873.516 15.88C875.596 15.88 877.306 16.63 878.646 18.13C879.986 19.61 880.656 21.45 880.656 23.65C880.656 25.83 879.986 27.66 878.646 29.14C877.306 30.64 875.596 31.39 873.516 31.39C871.256 31.39 869.506 30.59 868.266 28.99V37H865.026V16.27H868.266V18.28C869.506 16.68 871.256 15.88 873.516 15.88ZM872.646 18.73C871.706 18.73 870.846 18.98 870.066 19.48C869.286 19.96 868.686 20.59 868.266 21.37V25.93C868.686 26.69 869.286 27.32 870.066 27.82C870.866 28.3 871.726 28.54 872.646 28.54C874.006 28.54 875.136 28.07 876.036 27.13C876.936 26.17 877.386 25.01 877.386 23.65C877.386 22.27 876.936 21.11 876.036 20.17C875.136 19.21 874.006 18.73 872.646 18.73ZM887.845 31H884.815V16.27H888.055V26.26L896.005 16.27H899.035V31H895.795V20.98L887.845 31ZM910.763 31H907.523V19.12H902.543V16.27H915.713V19.12H910.763V31ZM917.954 23.62C917.954 21.4 918.654 19.56 920.054 18.1C921.474 16.62 923.294 15.88 925.514 15.88C927.034 15.88 928.324 16.28 929.384 17.08C931.464 18.56 932.504 20.78 932.504 23.74V24.58H921.224C921.424 25.82 922.014 26.79 922.994 27.49C923.994 28.19 925.254 28.54 926.774 28.54C928.454 28.54 930.034 28.1 931.514 27.22V29.95C930.154 30.91 928.344 31.39 926.084 31.39C923.824 31.39 921.894 30.67 920.294 29.23C918.734 27.79 917.954 25.92 917.954 23.62ZM921.254 22.12H929.234C929.194 21.2 928.844 20.39 928.184 19.69C927.504 18.97 926.564 18.61 925.364 18.61C924.224 18.61 923.274 18.95 922.514 19.63C921.774 20.29 921.354 21.12 921.254 22.12ZM945.262 15.88C947.342 15.88 949.052 16.63 950.392 18.13C951.732 19.61 952.402 21.45 952.402 23.65C952.402 25.83 951.732 27.66 950.392 29.14C949.052 30.64 947.342 31.39 945.262 31.39C943.002 31.39 941.252 30.59 940.012 28.99V37H936.772V16.27H940.012V18.28C941.252 16.68 943.002 15.88 945.262 15.88ZM944.392 18.73C943.452 18.73 942.592 18.98 941.812 19.48C941.032 19.96 940.432 20.59 940.012 21.37V25.93C940.432 26.69 941.032 27.32 941.812 27.82C942.612 28.3 943.472 28.54 944.392 28.54C945.752 28.54 946.882 28.07 947.782 27.13C948.682 26.17 949.132 25.01 949.132 23.65C949.132 22.27 948.682 21.11 947.782 20.17C946.882 19.21 945.752 18.73 944.392 18.73ZM959.591 31H956.561V16.27H959.801V26.26L967.751 16.27H970.781V31H967.541V20.98L959.591 31ZM979.029 31H975.999V16.27H979.239V26.26L987.189 16.27H990.219V31H986.979V20.98L979.029 31ZM1005.33 37.15C1004.11 37.15 1003.22 36.99 1002.66 36.67V33.82C1003.3 34.14 1004.01 34.3 1004.79 34.3C1005.61 34.3 1006.3 34 1006.86 33.4C1007.44 32.8 1008.02 31.82 1008.6 30.46L1002.15 16.27H1005.75L1010.19 26.65L1014.48 16.27H1017.99L1010.94 32.59C1009.62 35.63 1007.75 37.15 1005.33 37.15ZM774.05 69H770.81V54.27H774.05V60.03H781.52V54.27H784.76V69H781.52V62.88H774.05V69ZM803.814 66.48C804.134 66.48 804.424 66.41 804.684 66.27V68.73C804.244 69.05 803.614 69.21 802.794 69.21C801.114 69.21 800.084 68.51 799.704 67.11C798.364 68.63 796.554 69.39 794.274 69.39C792.694 69.39 791.374 68.95 790.314 68.07C789.274 67.21 788.754 66 788.754 64.44C788.754 62.88 789.324 61.68 790.464 60.84C791.584 59.98 792.984 59.55 794.664 59.55C796.444 59.55 798.014 59.93 799.374 60.69V59.88C799.374 57.74 797.934 56.67 795.054 56.67C793.374 56.67 791.824 57.11 790.404 57.99V55.14C791.864 54.3 793.654 53.88 795.774 53.88C797.854 53.88 799.504 54.38 800.724 55.38C801.964 56.36 802.584 57.74 802.584 59.52V65.01C802.584 65.47 802.694 65.83 802.914 66.09C803.154 66.35 803.454 66.48 803.814 66.48ZM799.374 64.83V63.03C798.134 62.33 796.824 61.98 795.444 61.98C794.364 61.98 793.514 62.18 792.894 62.58C792.294 62.98 791.994 63.54 791.994 64.26C791.994 65.02 792.274 65.6 792.834 66C793.414 66.4 794.194 66.6 795.174 66.6C795.974 66.6 796.754 66.44 797.514 66.12C798.274 65.78 798.894 65.35 799.374 64.83ZM815.385 69.39C813.165 69.39 811.285 68.66 809.745 67.2C808.205 65.72 807.435 63.85 807.435 61.59C807.435 59.33 808.205 57.48 809.745 56.04C811.305 54.6 813.195 53.88 815.415 53.88C817.095 53.88 818.575 54.22 819.855 54.9V57.69C818.515 57.05 817.195 56.73 815.895 56.73C814.415 56.73 813.175 57.19 812.175 58.11C811.175 59.05 810.675 60.22 810.675 61.62C810.675 63.04 811.175 64.22 812.175 65.16C813.175 66.08 814.415 66.54 815.895 66.54C817.475 66.54 818.875 66.17 820.095 65.43V68.19C818.695 68.99 817.125 69.39 815.385 69.39ZM828.548 69.24C827.948 69.24 827.448 69.04 827.048 68.64C826.648 68.22 826.448 67.71 826.448 67.11C826.448 66.53 826.648 66.04 827.048 65.64C827.448 65.22 827.948 65.01 828.548 65.01C829.128 65.01 829.618 65.22 830.018 65.64C830.438 66.04 830.648 66.53 830.648 67.11C830.648 67.71 830.438 68.22 830.018 68.64C829.618 69.04 829.128 69.24 828.548 69.24ZM830.018 62.25H826.898V57.9C828.278 57.64 829.498 57.13 830.558 56.37C831.618 55.61 832.148 54.72 832.148 53.7C832.148 52.74 831.788 51.99 831.068 51.45C830.348 50.89 829.378 50.61 828.158 50.61C826.398 50.61 824.648 51.18 822.908 52.32V49.47C824.508 48.29 826.438 47.7 828.698 47.7C830.598 47.7 832.198 48.22 833.498 49.26C834.818 50.3 835.478 51.71 835.478 53.49C835.478 54.95 834.938 56.2 833.858 57.24C832.818 58.26 831.538 59.01 830.018 59.49V62.25ZM853.039 60.81V62.46L848.719 67.86H845.419L850.309 61.62L845.419 55.38H848.719L853.039 60.81ZM845.869 60.81V62.46L841.549 67.86H838.249L843.109 61.62L838.249 55.38H841.549L845.869 60.81Z" fill="#6A6A6A"/>
<path d="M1352.38 59.91C1345.32 59.91 1339.45 57.7 1334.77 53.28C1330.09 48.7733 1327.75 43.0967 1327.75 36.25C1327.75 29.3167 1330.06 23.64 1334.7 19.22C1339.38 14.8 1345.27 12.59 1352.38 12.59C1356.8 12.59 1360.81 13.5433 1364.41 15.45V24.875C1360.9 22.535 1356.91 21.365 1352.45 21.365C1348.16 21.365 1344.54 22.7733 1341.59 25.59C1338.73 28.3633 1337.3 31.9167 1337.3 36.25C1337.3 40.5833 1338.77 44.1583 1341.72 46.975C1344.62 49.7483 1348.33 51.135 1352.84 51.135C1357.82 51.135 1361.98 49.8133 1365.32 47.17V56.595C1361.63 58.805 1357.32 59.91 1352.38 59.91ZM1389.67 59.91C1382.83 59.91 1377.06 58.285 1372.38 55.035V45.285C1374.29 46.9317 1376.8 48.3617 1379.92 49.575C1383.09 50.745 1386.21 51.33 1389.28 51.33C1391.84 51.33 1393.94 50.875 1395.59 49.965C1397.24 49.0117 1398.06 47.7117 1398.06 46.065C1398.06 44.2883 1397.28 43.0317 1395.72 42.295C1395.07 41.905 1394.2 41.515 1393.12 41.125L1391.56 40.605L1387.92 39.5L1384.54 38.395C1384.06 38.265 1383.04 37.8967 1381.48 37.29C1380.14 36.77 1379.17 36.315 1378.56 35.925C1376.31 34.365 1374.88 33.0433 1374.27 31.96C1373.23 29.88 1372.71 27.7567 1372.71 25.59C1372.71 21.56 1374.25 18.3967 1377.32 16.1C1380.4 13.76 1384.58 12.59 1389.87 12.59C1395.2 12.59 1400.16 13.8467 1404.75 16.36V25.46C1400.12 22.6 1395.2 21.17 1390 21.17C1384.84 21.17 1382.26 22.665 1382.26 25.655C1382.26 26.955 1383.07 27.995 1384.67 28.775C1385.62 29.295 1386.86 29.75 1388.37 30.14C1390.41 30.7033 1392.06 31.18 1393.31 31.57C1397.08 32.74 1400.38 34.3217 1403.19 36.315C1406.23 38.4383 1407.74 41.6017 1407.74 45.805C1407.74 50.1817 1406.03 53.6267 1402.61 56.14C1399.19 58.6533 1394.87 59.91 1389.67 59.91ZM1426.39 59H1417.1V13.5H1426.39V59Z" fill="#6A6A6A"/>
<path d="M957 534.504C957 547.485 747.694 558.007 489.5 558.007C231.306 558.007 22 547.485 22 534.504C22 521.529 231.306 511.007 489.5 511.007C747.694 511.007 957 521.529 957 534.504Z" fill="#F0F0F0"/>
<path d="M340.554 526H334.605V255.552H340.554V526Z" fill="#706865"/>
<path d="M348.917 481.362H188.858C178.996 481.362 171 473.369 171 463.504V160.427C171 150.565 178.996 142.569 188.858 142.569H348.917C358.779 142.569 366.777 150.565 366.777 160.427V463.504C366.777 473.369 358.779 481.362 348.917 481.362Z" fill="#BDAFAA"/>
<path d="M343.76 468.126H194.017C184.273 468.126 176.372 460.224 176.372 450.481V165.669C176.372 155.925 184.273 148.024 194.017 148.024H343.76C353.504 148.024 361.403 155.925 361.403 165.669V450.481C361.403 460.224 353.504 468.126 343.76 468.126Z" fill="white"/>
<path d="M298.058 153.173H239.719V140H298.058V153.173Z" fill="#706865"/>
<path d="M219.518 292.248C219.511 292.247 219.504 292.245 219.493 292.248C219.607 292.298 219.624 292.304 219.518 292.248Z" fill="#323657"/>
<path d="M198.58 201.24C196.54 201.24 194.827 200.56 193.44 199.2C192.08 197.84 191.4 196.107 191.4 194C191.4 191.907 192.08 190.18 193.44 188.82C194.813 187.447 196.527 186.76 198.58 186.76C200.1 186.76 201.407 187.107 202.5 187.8V189.32C201.273 188.533 199.973 188.14 198.6 188.14C197 188.14 195.647 188.7 194.54 189.82C193.447 190.913 192.9 192.307 192.9 194C192.9 195.707 193.447 197.107 194.54 198.2C195.647 199.307 197.013 199.86 198.64 199.86C200.267 199.86 201.653 199.393 202.8 198.46V200C201.653 200.827 200.247 201.24 198.58 201.24ZM206.669 192.6C207.642 191.6 208.895 191.1 210.429 191.1C211.962 191.1 213.215 191.6 214.189 192.6C215.162 193.573 215.649 194.767 215.649 196.18C215.649 197.593 215.162 198.787 214.189 199.76C213.202 200.747 211.949 201.24 210.429 201.24C208.909 201.24 207.655 200.747 206.669 199.76C205.695 198.787 205.209 197.593 205.209 196.18C205.209 194.767 205.695 193.573 206.669 192.6ZM214.169 196.18C214.169 195.113 213.815 194.213 213.109 193.48C212.402 192.76 211.509 192.4 210.429 192.4C209.349 192.4 208.455 192.76 207.749 193.48C207.042 194.213 206.689 195.113 206.689 196.18C206.689 197.233 207.042 198.127 207.749 198.86C208.455 199.58 209.349 199.94 210.429 199.94C211.509 199.94 212.402 199.58 213.109 198.86C213.815 198.127 214.169 197.233 214.169 196.18ZM220.17 194.48V201H218.73V191.34H220.17V192.82C221.197 191.673 222.484 191.1 224.03 191.1C225.217 191.1 226.124 191.453 226.75 192.16C227.39 192.853 227.71 193.84 227.71 195.12V201H226.27V195.44C226.27 193.453 225.357 192.46 223.53 192.46C222.864 192.46 222.217 192.667 221.59 193.08C220.95 193.493 220.477 193.96 220.17 194.48ZM235.178 201.24C234.284 201.24 233.604 200.98 233.138 200.46C232.684 199.927 232.458 199.193 232.458 198.26V192.6H230.178V191.34H232.458V188.36H233.898V191.34H237.278V192.6H233.898V197.82C233.898 198.593 234.024 199.127 234.278 199.42C234.544 199.727 234.978 199.88 235.578 199.88C236.164 199.88 236.691 199.747 237.158 199.48V200.8C236.744 201.093 236.084 201.24 235.178 201.24ZM243.591 199.94C244.258 199.94 244.891 199.787 245.491 199.48C246.091 199.173 246.578 198.787 246.951 198.32V196.98C245.965 196.34 244.918 196.02 243.811 196.02C242.931 196.02 242.231 196.193 241.711 196.54C241.205 196.887 240.951 197.36 240.951 197.96C240.951 198.587 241.198 199.073 241.691 199.42C242.185 199.767 242.818 199.94 243.591 199.94ZM243.191 201.24C242.165 201.24 241.291 200.96 240.571 200.4C239.865 199.813 239.511 199.027 239.511 198.04C239.511 197.067 239.885 196.287 240.631 195.7C241.378 195.127 242.325 194.84 243.471 194.84C244.725 194.84 245.885 195.153 246.951 195.78V194.82C246.951 193.207 245.891 192.4 243.771 192.4C242.638 192.4 241.585 192.727 240.611 193.38V191.98C241.558 191.393 242.711 191.1 244.071 191.1C245.391 191.1 246.438 191.413 247.211 192.04C247.998 192.653 248.391 193.533 248.391 194.68V198.66C248.391 199.033 248.471 199.327 248.631 199.54C248.805 199.753 249.031 199.86 249.311 199.86C249.525 199.86 249.711 199.82 249.871 199.74V200.86C249.658 201.007 249.338 201.08 248.911 201.08C248.431 201.08 248.025 200.953 247.691 200.7C247.371 200.433 247.171 200.047 247.091 199.54C246.118 200.673 244.818 201.24 243.191 201.24ZM257.046 201.24C255.566 201.24 254.34 200.76 253.366 199.8C252.393 198.827 251.906 197.613 251.906 196.16C251.906 194.72 252.4 193.52 253.386 192.56C254.36 191.587 255.586 191.1 257.066 191.1C258.186 191.1 259.16 191.333 259.986 191.8V193.14C259.12 192.647 258.213 192.4 257.266 192.4C256.146 192.4 255.22 192.76 254.486 193.48C253.753 194.173 253.386 195.073 253.386 196.18C253.386 197.26 253.753 198.16 254.486 198.88C255.233 199.587 256.16 199.94 257.266 199.94C258.333 199.94 259.3 199.66 260.166 199.1V200.42C259.26 200.967 258.22 201.24 257.046 201.24ZM267.335 201.24C266.441 201.24 265.761 200.98 265.295 200.46C264.841 199.927 264.615 199.193 264.615 198.26V192.6H262.335V191.34H264.615V188.36H266.055V191.34H269.435V192.6H266.055V197.82C266.055 198.593 266.181 199.127 266.435 199.42C266.701 199.727 267.135 199.88 267.735 199.88C268.321 199.88 268.848 199.747 269.315 199.48V200.8C268.901 201.093 268.241 201.24 267.335 201.24ZM285.042 201.24C283.002 201.24 281.288 200.56 279.902 199.2C278.542 197.84 277.862 196.107 277.862 194C277.862 191.907 278.542 190.18 279.902 188.82C281.275 187.447 282.988 186.76 285.042 186.76C286.562 186.76 287.868 187.107 288.962 187.8V189.32C287.735 188.533 286.435 188.14 285.062 188.14C283.462 188.14 282.108 188.7 281.002 189.82C279.908 190.913 279.362 192.307 279.362 194C279.362 195.707 279.908 197.107 281.002 198.2C282.108 199.307 283.475 199.86 285.102 199.86C286.728 199.86 288.115 199.393 289.262 198.46V200C288.115 200.827 286.708 201.24 285.042 201.24ZM296.99 201.24C295.484 201.24 294.217 200.767 293.19 199.82C292.177 198.887 291.67 197.673 291.67 196.18C291.67 194.74 292.124 193.533 293.03 192.56C293.95 191.587 295.13 191.1 296.57 191.1C297.344 191.1 298.03 191.26 298.63 191.58C299.23 191.887 299.704 192.293 300.05 192.8C300.397 193.307 300.657 193.847 300.83 194.42C301.004 194.98 301.09 195.547 301.09 196.12V196.52H293.15C293.23 197.56 293.644 198.393 294.39 199.02C295.15 199.633 296.11 199.94 297.27 199.94C298.39 199.94 299.424 199.64 300.37 199.04V200.32C299.584 200.933 298.457 201.24 296.99 201.24ZM293.17 195.34H299.63C299.59 194.593 299.31 193.92 298.79 193.32C298.297 192.707 297.537 192.4 296.51 192.4C295.55 192.4 294.764 192.693 294.15 193.28C293.55 193.88 293.224 194.567 293.17 195.34ZM305.636 194.48V201H304.196V191.34H305.636V192.82C306.663 191.673 307.949 191.1 309.496 191.1C310.683 191.1 311.589 191.453 312.216 192.16C312.856 192.853 313.176 193.84 313.176 195.12V201H311.736V195.44C311.736 193.453 310.823 192.46 308.996 192.46C308.329 192.46 307.683 192.667 307.056 193.08C306.416 193.493 305.943 193.96 305.636 194.48ZM320.643 201.24C319.75 201.24 319.07 200.98 318.603 200.46C318.15 199.927 317.923 199.193 317.923 198.26V192.6H315.643V191.34H317.923V188.36H319.363V191.34H322.743V192.6H319.363V197.82C319.363 198.593 319.49 199.127 319.743 199.42C320.01 199.727 320.443 199.88 321.043 199.88C321.63 199.88 322.156 199.747 322.623 199.48V200.8C322.21 201.093 321.55 201.24 320.643 201.24ZM330.222 201.24C328.715 201.24 327.448 200.767 326.422 199.82C325.408 198.887 324.902 197.673 324.902 196.18C324.902 194.74 325.355 193.533 326.262 192.56C327.182 191.587 328.362 191.1 329.802 191.1C330.575 191.1 331.262 191.26 331.862 191.58C332.462 191.887 332.935 192.293 333.282 192.8C333.628 193.307 333.888 193.847 334.062 194.42C334.235 194.98 334.322 195.547 334.322 196.12V196.52H326.382C326.462 197.56 326.875 198.393 327.622 199.02C328.382 199.633 329.342 199.94 330.502 199.94C331.622 199.94 332.655 199.64 333.602 199.04V200.32C332.815 200.933 331.688 201.24 330.222 201.24ZM326.402 195.34H332.862C332.822 194.593 332.542 193.92 332.022 193.32C331.528 192.707 330.768 192.4 329.742 192.4C328.782 192.4 327.995 192.693 327.382 193.28C326.782 193.88 326.455 194.567 326.402 195.34ZM338.867 201H337.427V191.34H338.867V193.18C339.227 192.553 339.761 192.053 340.467 191.68C341.174 191.293 341.921 191.1 342.707 191.1V192.56C342.267 192.56 341.867 192.62 341.507 192.74C340.894 192.9 340.354 193.18 339.887 193.58C339.421 193.967 339.081 194.407 338.867 194.9V201Z" fill="#47423F"/>
<path d="M200.869 241H199.429V227H200.709L209.549 238.44V227H210.989V241H209.729L200.869 229.52V241ZM219.497 241.24C218.484 241.24 217.51 241.107 216.577 240.84C215.657 240.56 214.904 240.2 214.317 239.76V238.1C214.877 238.58 215.604 238.993 216.497 239.34C217.457 239.687 218.424 239.86 219.397 239.86C220.504 239.86 221.41 239.62 222.117 239.14C222.824 238.66 223.177 238.02 223.177 237.22C223.257 236.473 222.87 235.84 222.017 235.32C221.844 235.187 221.564 235.053 221.177 234.92L220.297 234.62C220.257 234.607 220.177 234.587 220.057 234.56C219.937 234.52 219.804 234.48 219.657 234.44C219.524 234.387 219.384 234.34 219.237 234.3C218.41 234.06 217.917 233.913 217.757 233.86C217.33 233.713 216.917 233.547 216.517 233.36C216.077 233.147 215.73 232.913 215.477 232.66C214.89 232.047 214.597 231.287 214.597 230.38C214.597 229.327 215.024 228.46 215.877 227.78C216.73 227.1 217.917 226.76 219.437 226.76C221.117 226.76 222.57 227.147 223.797 227.92V229.44C222.41 228.573 220.97 228.14 219.477 228.14C218.397 228.14 217.564 228.353 216.977 228.78C216.39 229.207 216.097 229.753 216.097 230.42C216.017 230.953 216.317 231.48 216.997 232C217.104 232.093 217.324 232.2 217.657 232.32L218.337 232.58L219.197 232.82L220.037 233.06C220.77 233.287 221.23 233.433 221.417 233.5C221.804 233.633 222.21 233.813 222.637 234.04C223.077 234.267 223.437 234.52 223.717 234.8C224.37 235.4 224.697 236.2 224.697 237.2C224.697 238.453 224.19 239.44 223.177 240.16C222.177 240.88 220.95 241.24 219.497 241.24ZM229.776 241H228.296V227H234.556C235.916 227 236.989 227.347 237.776 228.04C238.576 228.72 238.976 229.64 238.976 230.8C238.976 231.8 238.682 232.633 238.096 233.3C237.522 233.967 236.716 234.387 235.676 234.56L240.196 241H238.456L234.056 234.7H229.776V241ZM229.776 228.34V233.36H234.476C235.436 233.36 236.176 233.147 236.696 232.72C237.229 232.28 237.496 231.66 237.496 230.86C237.496 230.06 237.229 229.44 236.696 229C236.162 228.56 235.422 228.34 234.476 228.34H229.776ZM252.576 240.2H251.076L248.056 236.54V235.8L251.076 232.14H252.576L249.296 236.18L252.576 240.2ZM257.196 240.2H255.656L252.636 236.54V235.8L255.656 232.14H257.196L253.916 236.18L257.196 240.2ZM261.972 241H260.492V227H266.752C268.112 227 269.185 227.347 269.972 228.04C270.772 228.72 271.172 229.64 271.172 230.8C271.172 231.8 270.878 232.633 270.292 233.3C269.718 233.967 268.912 234.387 267.872 234.56L272.392 241H270.652L266.252 234.7H261.972V241ZM261.972 228.34V233.36H266.672C267.632 233.36 268.372 233.147 268.892 232.72C269.425 232.28 269.692 231.66 269.692 230.86C269.692 230.06 269.425 229.44 268.892 229C268.358 228.56 267.618 228.34 266.672 228.34H261.972ZM275.551 232.6C276.525 231.6 277.778 231.1 279.311 231.1C280.845 231.1 282.098 231.6 283.071 232.6C284.045 233.573 284.531 234.767 284.531 236.18C284.531 237.593 284.045 238.787 283.071 239.76C282.085 240.747 280.831 241.24 279.311 241.24C277.791 241.24 276.538 240.747 275.551 239.76C274.578 238.787 274.091 237.593 274.091 236.18C274.091 234.767 274.578 233.573 275.551 232.6ZM283.051 236.18C283.051 235.113 282.698 234.213 281.991 233.48C281.285 232.76 280.391 232.4 279.311 232.4C278.231 232.4 277.338 232.76 276.631 233.48C275.925 234.213 275.571 235.113 275.571 236.18C275.571 237.233 275.925 238.127 276.631 238.86C277.338 239.58 278.231 239.94 279.311 239.94C280.391 239.94 281.285 239.58 281.991 238.86C282.698 238.127 283.051 237.233 283.051 236.18ZM289.053 241H287.613V231.34H289.053V232.78C289.853 231.66 291.013 231.1 292.533 231.1C293.32 231.1 293.98 231.267 294.513 231.6C295.06 231.933 295.433 232.4 295.633 233C296.007 232.427 296.513 231.967 297.153 231.62C297.807 231.273 298.54 231.1 299.353 231.1C300.433 231.1 301.273 231.44 301.873 232.12C302.473 232.787 302.773 233.74 302.773 234.98V241H301.333V235.3C301.333 233.407 300.533 232.46 298.933 232.46C298.347 232.46 297.76 232.667 297.173 233.08C296.6 233.48 296.167 233.967 295.873 234.54C295.873 234.673 295.873 234.827 295.873 235C295.887 235.173 295.893 235.307 295.893 235.4C295.907 235.493 295.913 235.567 295.913 235.62V241H294.473V235.3C294.473 233.407 293.673 232.46 292.073 232.46C291.513 232.46 290.94 232.66 290.353 233.06C289.793 233.433 289.36 233.9 289.053 234.46V241ZM309.652 239.94C310.319 239.94 310.952 239.787 311.552 239.48C312.152 239.173 312.639 238.787 313.012 238.32V236.98C312.026 236.34 310.979 236.02 309.872 236.02C308.992 236.02 308.292 236.193 307.772 236.54C307.266 236.887 307.012 237.36 307.012 237.96C307.012 238.587 307.259 239.073 307.752 239.42C308.246 239.767 308.879 239.94 309.652 239.94ZM309.252 241.24C308.226 241.24 307.352 240.96 306.632 240.4C305.926 239.813 305.572 239.027 305.572 238.04C305.572 237.067 305.946 236.287 306.692 235.7C307.439 235.127 308.386 234.84 309.532 234.84C310.786 234.84 311.946 235.153 313.012 235.78V234.82C313.012 233.207 311.952 232.4 309.832 232.4C308.699 232.4 307.646 232.727 306.672 233.38V231.98C307.619 231.393 308.772 231.1 310.132 231.1C311.452 231.1 312.499 231.413 313.272 232.04C314.059 232.653 314.452 233.533 314.452 234.68V238.66C314.452 239.033 314.532 239.327 314.692 239.54C314.866 239.753 315.092 239.86 315.372 239.86C315.586 239.86 315.772 239.82 315.932 239.74V240.86C315.719 241.007 315.399 241.08 314.972 241.08C314.492 241.08 314.086 240.953 313.752 240.7C313.432 240.433 313.232 240.047 313.152 239.54C312.179 240.673 310.879 241.24 309.252 241.24ZM320.107 234.48V241H318.667V231.34H320.107V232.82C321.134 231.673 322.421 231.1 323.967 231.1C325.154 231.1 326.061 231.453 326.687 232.16C327.327 232.853 327.647 233.84 327.647 235.12V241H326.207V235.44C326.207 233.453 325.294 232.46 323.467 232.46C322.801 232.46 322.154 232.667 321.527 233.08C320.887 233.493 320.414 233.96 320.107 234.48ZM335.094 232.14H336.594L339.614 235.8V236.54L336.594 240.2H335.094L338.374 236.16L335.094 232.14ZM330.474 232.14H332.014L335.034 235.8V236.54L332.014 240.2H330.474L333.754 236.16L330.474 232.14Z" fill="#47423F"/>
<path d="M242.324 279H235.644V265H241.704C242.944 265 243.924 265.307 244.644 265.92C245.364 266.52 245.724 267.347 245.724 268.4C245.724 269.12 245.557 269.74 245.224 270.26C244.904 270.78 244.457 271.147 243.884 271.36C244.817 271.507 245.557 271.913 246.104 272.58C246.651 273.247 246.924 274.087 246.924 275.1C246.924 276.287 246.511 277.233 245.684 277.94C244.857 278.647 243.737 279 242.324 279ZM237.124 272.22V277.66H242.064C243.104 277.66 243.911 277.42 244.484 276.94C245.057 276.46 245.344 275.787 245.344 274.92C245.344 274.067 245.057 273.407 244.484 272.94C243.911 272.46 243.104 272.22 242.064 272.22H237.124ZM237.124 266.34V270.92H241.464C242.357 270.92 243.044 270.727 243.524 270.34C244.017 269.953 244.264 269.393 244.264 268.66C244.264 267.913 244.017 267.34 243.524 266.94C243.044 266.54 242.357 266.34 241.464 266.34H237.124ZM251.716 279H250.276V269.34H251.716V271.18C252.076 270.553 252.609 270.053 253.316 269.68C254.022 269.293 254.769 269.1 255.556 269.1V270.56C255.116 270.56 254.716 270.62 254.356 270.74C253.742 270.9 253.202 271.18 252.736 271.58C252.269 271.967 251.929 272.407 251.716 272.9V279ZM261.319 277.94C261.985 277.94 262.619 277.787 263.219 277.48C263.819 277.173 264.305 276.787 264.679 276.32V274.98C263.692 274.34 262.645 274.02 261.539 274.02C260.659 274.02 259.959 274.193 259.439 274.54C258.932 274.887 258.679 275.36 258.679 275.96C258.679 276.587 258.925 277.073 259.419 277.42C259.912 277.767 260.545 277.94 261.319 277.94ZM260.919 279.24C259.892 279.24 259.019 278.96 258.299 278.4C257.592 277.813 257.239 277.027 257.239 276.04C257.239 275.067 257.612 274.287 258.359 273.7C259.105 273.127 260.052 272.84 261.199 272.84C262.452 272.84 263.612 273.153 264.679 273.78V272.82C264.679 271.207 263.619 270.4 261.499 270.4C260.365 270.4 259.312 270.727 258.339 271.38V269.98C259.285 269.393 260.439 269.1 261.799 269.1C263.119 269.1 264.165 269.413 264.939 270.04C265.725 270.653 266.119 271.533 266.119 272.68V276.66C266.119 277.033 266.199 277.327 266.359 277.54C266.532 277.753 266.759 277.86 267.039 277.86C267.252 277.86 267.439 277.82 267.599 277.74V278.86C267.385 279.007 267.065 279.08 266.639 279.08C266.159 279.08 265.752 278.953 265.419 278.7C265.099 278.433 264.899 278.047 264.819 277.54C263.845 278.673 262.545 279.24 260.919 279.24ZM271.774 272.48V279H270.334V269.34H271.774V270.82C272.8 269.673 274.087 269.1 275.634 269.1C276.82 269.1 277.727 269.453 278.354 270.16C278.994 270.853 279.314 271.84 279.314 273.12V279H277.874V273.44C277.874 271.453 276.96 270.46 275.134 270.46C274.467 270.46 273.82 270.667 273.194 271.08C272.554 271.493 272.08 271.96 271.774 272.48ZM287.381 279.24C285.901 279.24 284.674 278.76 283.701 277.8C282.727 276.827 282.241 275.613 282.241 274.16C282.241 272.72 282.734 271.52 283.721 270.56C284.694 269.587 285.921 269.1 287.401 269.1C288.521 269.1 289.494 269.333 290.321 269.8V271.14C289.454 270.647 288.547 270.4 287.601 270.4C286.481 270.4 285.554 270.76 284.821 271.48C284.087 272.173 283.721 273.073 283.721 274.18C283.721 275.26 284.087 276.16 284.821 276.88C285.567 277.587 286.494 277.94 287.601 277.94C288.667 277.94 289.634 277.66 290.501 277.1V278.42C289.594 278.967 288.554 279.24 287.381 279.24ZM295.269 272.48V279H293.829V265H295.269V270.82C296.296 269.673 297.582 269.1 299.129 269.1C300.316 269.1 301.222 269.453 301.849 270.16C302.489 270.853 302.809 271.84 302.809 273.12V279H301.369V273.44C301.369 271.453 300.456 270.46 298.629 270.46C297.962 270.46 297.316 270.667 296.689 271.08C296.049 271.493 295.576 271.96 295.269 272.48Z" fill="#47423F"/>
<path d="M240.852 320H239.372V306H240.852V320ZM251.977 320H245.297V306H251.357C252.597 306 253.577 306.307 254.297 306.92C255.017 307.52 255.377 308.347 255.377 309.4C255.377 310.12 255.21 310.74 254.877 311.26C254.557 311.78 254.11 312.147 253.537 312.36C254.47 312.507 255.21 312.913 255.757 313.58C256.303 314.247 256.577 315.087 256.577 316.1C256.577 317.287 256.163 318.233 255.337 318.94C254.51 319.647 253.39 320 251.977 320ZM246.777 313.22V318.66H251.717C252.757 318.66 253.563 318.42 254.137 317.94C254.71 317.46 254.997 316.787 254.997 315.92C254.997 315.067 254.71 314.407 254.137 313.94C253.563 313.46 252.757 313.22 251.717 313.22H246.777ZM246.777 307.34V311.92H251.117C252.01 311.92 252.697 311.727 253.177 311.34C253.67 310.953 253.917 310.393 253.917 309.66C253.917 308.913 253.67 308.34 253.177 307.94C252.697 307.54 252.01 307.34 251.117 307.34H246.777ZM259.829 322.8H258.329L266.749 304.16H268.249L259.829 322.8ZM272.283 320H270.823V306H272.283L277.343 312.78L282.403 306H283.843V320H282.383V308.24L277.803 314.36H276.903L272.283 308.24V320ZM294.856 320H288.176V306H294.236C295.476 306 296.456 306.307 297.176 306.92C297.896 307.52 298.256 308.347 298.256 309.4C298.256 310.12 298.09 310.74 297.756 311.26C297.436 311.78 296.99 312.147 296.416 312.36C297.35 312.507 298.09 312.913 298.636 313.58C299.183 314.247 299.456 315.087 299.456 316.1C299.456 317.287 299.043 318.233 298.216 318.94C297.39 319.647 296.27 320 294.856 320ZM289.656 313.22V318.66H294.596C295.636 318.66 296.443 318.42 297.016 317.94C297.59 317.46 297.876 316.787 297.876 315.92C297.876 315.067 297.59 314.407 297.016 313.94C296.443 313.46 295.636 313.22 294.596 313.22H289.656ZM289.656 307.34V311.92H293.996C294.89 311.92 295.576 311.727 296.056 311.34C296.55 310.953 296.796 310.393 296.796 309.66C296.796 308.913 296.55 308.34 296.056 307.94C295.576 307.54 294.89 307.34 293.996 307.34H289.656Z" fill="#47423F"/>
<path d="M774.831 250.252L738.991 269.95L703 213.309L746.535 198.19L774.831 250.252Z" fill="#292C47"/>
<path d="M772.561 248.549L739.046 266.972L705.384 214.004L746.097 199.863L772.561 248.549Z" fill="white"/>
<path d="M784.832 238.644C784.832 238.644 778.597 235.662 775.856 234.103C773.119 232.539 766.075 230.398 765.507 229.89C764.939 229.382 744.63 228.13 743.397 227.067C742.164 226.004 740.966 229.557 746.23 230.713C751.494 231.864 758.818 234.684 759.22 236.74C759.622 238.799 753.812 239.288 753.226 240.983C752.635 242.674 753.387 242.294 754.223 242.658C755.053 243.023 761.131 239.656 763.802 240.614C766.473 241.568 770.557 240.246 772.603 240.948C774.649 241.646 784.609 244.997 784.609 244.997L784.832 238.644Z" fill="#EEA886"/>
<path d="M737.247 262.844C737.247 262.844 732.007 258.128 729.471 256.153C726.935 254.179 722.177 248.377 721.473 248.036C720.773 247.698 711.684 229.047 710.202 228.303C708.72 227.554 711.606 225.041 714.738 229.551C717.879 234.066 723.387 239.872 725.478 239.445C727.577 239.022 725.774 233.36 727.145 232.146C728.508 230.932 728.446 231.789 729.109 232.433C729.776 233.077 728.973 240.112 730.912 242.257C732.851 244.402 733.196 248.765 734.658 250.421C736.115 252.077 743.146 260.156 743.146 260.156L737.247 262.844Z" fill="#EEA886"/>
<path d="M850.107 514.951C850.107 514.951 851.245 522.821 851.386 524.004C851.527 525.187 863.999 523.306 863.999 523.306L865.006 513.939C865.006 513.939 851.669 513.842 850.107 514.951Z" fill="#424773"/>
<path d="M851.253 523.003C851.253 523.003 847.302 527.742 843.482 529.809C839.658 531.877 833.656 532.695 831.395 534.836C829.768 536.379 825.456 543.027 841.324 542.895C857.196 542.759 864.849 543.834 866.544 541.282C868.249 538.734 864.088 522.471 864.088 522.471C864.088 522.471 860.327 523.821 851.253 523.003Z" fill="#292C47"/>
<path d="M760.765 514.952C760.765 514.952 761.9 522.821 762.038 524.004C762.181 525.187 774.649 523.306 774.649 523.306L775.659 513.939C775.659 513.939 762.323 513.843 760.765 514.952Z" fill="#424773"/>
<path d="M761.906 523.003C761.906 523.003 757.96 527.743 754.136 529.81C750.312 531.877 736.255 533.576 733.992 535.713C732.362 537.26 729.648 543.474 751.977 542.896C767.846 542.48 775.499 543.834 777.198 541.282C778.902 538.734 774.74 522.472 774.74 522.472C774.74 522.472 771.197 523.915 761.906 523.003Z" fill="#292C47"/>
<path d="M839.779 312.766C839.779 312.766 851.5 331.378 850.627 348.207C849.749 365.032 854.871 383.404 856.631 400.981C858.597 420.578 866.625 466.968 866.913 477.451C867.206 487.931 865.669 521.402 865.669 521.402L849.593 521.771C849.593 521.771 836.097 440.669 832.6 432.392C829.103 424.119 811.763 365.121 811.183 358.5C810.602 351.88 839.779 312.766 839.779 312.766Z" fill="#292C47"/>
<path d="M778.109 315.285C778.109 315.285 769.278 361.404 768.115 371.701C766.948 382.002 766.17 421.543 765.591 427.977C765.002 434.416 761.704 512.209 758.591 521.77H779.144C779.144 521.77 794.918 465.218 794.918 438.461C794.918 411.703 807.104 380.292 814.972 362.637C822.84 344.982 840.849 344.564 845.68 311.81C845.68 311.81 784.658 304.895 778.109 315.285Z" fill="#292C47"/>
<path d="M820.235 156.258C820.235 156.258 804.506 150.384 797.26 162.355C790.005 174.326 790.703 198.292 798.632 201.239C806.557 204.186 818.468 202.646 822.528 195.154C826.583 187.664 830.248 176.835 830.071 169.597C829.895 162.361 824.365 158.347 820.235 156.258Z" fill="#EEA886"/>
<path d="M800.334 201.789C800.334 201.789 800.993 206.034 799.907 208.128C798.826 210.218 820.285 210.272 820.285 210.272C820.285 210.272 822.026 198.895 825.33 189.283C828.63 179.671 800.334 201.789 800.334 201.789Z" fill="#EEA886"/>
<path d="M825.33 189.283C825.33 189.283 823.847 191.726 817.807 190.777C811.757 189.83 804.388 181.788 801.861 180.904C799.335 180.022 799.312 178.539 799.312 178.539L797.732 180.848L795.052 181.017C795.052 181.017 797.499 173.823 793.807 170.889C790.12 167.955 797.639 147.604 817.024 154.38C817.024 154.38 831.911 158.484 831.37 166.952C830.829 175.419 828.662 185.065 825.33 189.283Z" fill="#3A3F47"/>
<path d="M798.635 207.877C798.635 207.877 798.7 203.879 800.514 203.494C802.324 203.115 820.507 201.365 822.731 202.239V206.896C822.731 206.896 818.445 209.529 798.635 207.877Z" fill="#E2D2CA"/>
<path d="M799.711 175.46C800.053 174.04 803.662 169.981 805.044 174.327C806.427 178.673 802.954 184.519 801.017 184.019C799.08 183.518 798.851 179.062 799.711 175.46Z" fill="#EEA886"/>
<path d="M726.473 255.092L726.501 255.088C726.376 255.143 726.356 255.151 726.473 255.092Z" fill="#323657"/>
<path d="M852.997 357.112C852.997 357.112 843.357 359.951 826.907 361.762C810.461 363.573 769.37 361.107 769.11 359.163C768.85 357.221 777.951 286.816 777.436 283.189C776.916 279.563 776.637 266.644 776.637 266.644C776.435 270.185 772.825 284.644 768.475 292.529C766.901 295.375 761.626 304.3 759.08 302.271C746.769 292.443 727.71 255.404 726.502 255.09C727.513 254.648 735.536 250.956 736.662 250.583C737.644 250.253 746.528 259.655 751.904 265.484C754.306 268.083 756.01 269.971 756.01 269.971C757.564 266.477 763.224 244.452 764.981 236.827C768.946 219.637 768.34 218.924 768.34 218.924C780.372 215.282 798.632 207.878 798.632 207.878L822.729 206.893C822.729 206.893 844.844 211.764 853.555 215.697C854.383 216.069 854.388 235.426 856.655 240.503L849.435 255.738C849.435 255.738 845.258 285.916 844.396 299.335C843.997 305.498 852.997 357.112 852.997 357.112Z" fill="#FFDF69"/>
<path d="M857.661 265.629C857.025 267.661 854.171 269.38 852.316 270.128C851.127 270.609 849.797 270.764 848.457 270.516L847.511 270.341L831.001 267.278C831.001 267.278 827.389 225.666 853.559 215.694C854.249 215.919 863.438 246.997 857.661 265.629Z" fill="#FFDF69"/>
<path d="M852.311 270.13C851.124 270.611 849.794 270.766 848.454 270.518L847.511 270.343L849.138 249.078L852.311 270.13Z" fill="#AB9546"/>
<path d="M756.011 269.971L753.993 278.519C753.993 278.519 751.803 269.94 751.908 265.483C754.307 268.082 756.011 269.971 756.011 269.971Z" fill="#AB9546"/>
<path d="M824.71 157.673C824.71 157.673 845.319 155.093 825.056 189.519L824.71 157.673Z" fill="#3A3F47"/>
<path d="M719.568 210.271L717.474 206.672L733.978 200.978L736.072 204.558L719.568 210.271Z" fill="#292C47"/>
<path d="M151.555 534.772H154.375V521.459C154.375 521.459 159.913 525.149 163.384 530.253C166.858 535.352 171.632 534.921 178.906 534.592C186.179 534.267 185.854 531.337 185.204 527.213C184.55 523.089 177.171 521.784 174.781 521.134C172.396 520.484 166.971 511.143 165.228 508.867C162.851 505.765 161.594 502.788 161.594 502.788C161.594 502.788 160.238 497.254 153.505 502.788C146.776 508.326 148.731 518.964 149.491 519.94C150.251 520.919 151.555 534.772 151.555 534.772Z" fill="#163342"/>
<path d="M165.773 521.134C168.268 522.764 174.781 521.134 174.781 521.134C172.937 518.745 161.594 502.788 161.594 502.788C154.7 498.773 151.978 504.3 151.978 504.3C154.79 505.162 163.278 519.505 165.773 521.134Z" fill="#EEA886"/>
<path d="M238.35 275.584C238.35 275.584 242.87 276.45 244.413 274.327C245.726 272.521 248.726 271.135 249.65 270.708C250.884 270.132 254.017 266.964 254.758 268.515C255.494 270.062 249.842 273.99 248.82 275.048C247.798 276.109 254.362 276.579 255.498 277.609C256.63 278.639 255.236 289.469 250.766 288.627C246.297 287.781 242.083 283.931 241.268 283.939C240.45 283.947 237.99 283.453 237.99 283.453L238.35 275.584Z" fill="#EEA886"/>
<path d="M254.495 277.168C254.495 277.168 268.006 280.658 268.711 281.641C269.417 282.628 269.186 283.348 267.908 283.074C266.63 282.8 254.758 280.082 254.758 280.082C254.758 280.082 270.052 286.897 270.809 287.578C271.248 287.978 270.884 289.4 270.186 289.318C269.488 289.235 253.946 283.344 253.946 283.344C253.946 283.344 268.214 289.736 268.676 290.493C269.08 291.159 268.414 292.381 267.324 291.977C266.23 291.578 252.652 286.392 252.652 286.392C252.652 286.392 262.744 291.699 262.756 292.568C262.764 293.101 262.505 294.347 259.945 292.897C257.384 291.444 250.978 288.659 250.978 288.659L254.495 277.168Z" fill="#EEA886"/>
<path d="M114.984 535.681H116.719V525.909C116.719 525.909 119.81 529.089 121.22 533.754C122.63 538.423 127.682 539.805 135.39 539.59C143.099 539.375 143.204 536.331 142.554 531.772C141.904 527.213 135.39 524.824 135.39 524.824C132.461 522.219 125.187 511.421 125.187 511.421C125.187 511.421 120.518 510.171 116.856 513.128C113.194 516.086 114.334 522.764 114.44 524.499C114.549 526.238 114.984 535.681 114.984 535.681Z" fill="#163342"/>
<path d="M120.303 302.954C120.303 302.954 111.118 314.893 108.627 329.06C106.136 343.227 110.1 390.768 109.99 397.771C109.88 404.771 103.371 422.192 104.671 435.38C105.975 448.572 111.114 514.213 111.114 514.213L125.187 511.42C125.187 511.42 124.373 444.498 125.187 438.964C126.002 433.43 127.635 413.251 127.96 410.971C128.285 408.691 148.633 348.835 148.633 338.621C148.633 328.41 142.444 286.293 120.303 302.954Z" fill="#1D3B54"/>
<path d="M166.435 307.624C166.435 307.624 181.522 365.209 183.316 373.187C185.106 381.162 187.699 387.742 187.699 391.13C187.699 398.991 184.781 411.611 184.781 411.611L165.62 503.243H147.372C147.372 503.243 157.54 448.271 157.814 437.52C158.088 426.749 166.38 411.45 164.754 406.891C163.125 402.332 138.54 349.737 138.54 349.737C138.54 349.737 119.923 290.908 166.435 307.624Z" fill="#1D3B54"/>
<path d="M135.39 524.824L125.187 511.421L116.856 513.129C116.856 513.129 119.097 519.129 123.147 523.641C127.945 528.988 135.39 524.824 135.39 524.824Z" fill="#EEA886"/>
<path d="M160.203 209.764C160.203 209.764 166.423 210.352 171.123 215.389C175.823 220.426 180.237 228.455 181.467 231.142C182.697 233.829 199.954 258.72 200.851 259.28C201.744 259.836 210.42 262.734 216.166 264.669C225.037 267.654 242.815 274.116 242.815 274.116L239.283 285.295C239.283 285.295 205.853 274.355 197.479 272.295C187.241 269.773 163.673 239.535 163.673 239.535C163.673 239.535 146.103 218.941 160.203 209.764Z" fill="#285173"/>
<path d="M149.35 205.399C149.35 205.399 157.407 209.207 160.203 209.763C163 210.323 173.857 224.423 175.761 229.574C177.66 234.72 175.761 242.444 171.844 251.508C167.927 260.571 171.617 263.595 169.827 272.658C168.037 281.725 168.612 315.637 168.949 320.674C169.286 325.707 116.567 333.341 106.16 324.164C106.16 324.164 113.206 293.601 121.549 284.878C123.35 282.994 123.162 270.422 121.929 267.288C120.699 264.155 106.822 240.764 106.822 240.764C106.822 240.764 105.803 217.04 111.859 212.34C117.119 208.255 131.454 206.798 134.027 205.901C136.601 205.008 144.09 204.616 149.35 205.399Z" fill="#FFBF55"/>
<path d="M153.196 196.102C153.196 196.102 152.953 198.323 152.675 201.319C152.569 202.506 152.452 203.814 152.346 205.158C152.025 209.176 151.766 213.489 151.923 215.698C151.923 215.698 143.549 224.091 134.027 205.906C134.027 205.906 138.03 198.405 135.018 188.198C132.002 177.983 153.196 196.102 153.196 196.102Z" fill="#EEA886"/>
<path d="M176.63 254.854C176.63 254.854 178.647 241.446 176.505 233.292C176.505 233.292 176.505 240.303 172.658 250.259L176.63 254.854Z" fill="#183C59"/>
<path d="M127.592 207.195C127.592 207.195 133.354 224.205 149.166 222.956C164.982 221.703 156.662 208.589 156.662 208.589C156.662 208.589 152.722 206.329 151.614 206.118C150.505 205.902 134.129 205.699 134.129 205.699L127.592 207.195Z" fill="#EEA886"/>
<path d="M156.662 208.589C156.662 208.589 164.946 231.502 164.946 254.854C164.946 278.202 165.612 316.241 168.503 328.25C171.397 340.263 179.626 377.409 179.626 377.409L186.077 374.072C186.077 374.072 170.567 314.788 169.396 310.511C168.225 306.238 170.285 261.074 171.397 257.294C172.51 253.51 177.237 236.68 176.505 232.007C175.576 226.12 170.069 217.409 161.171 209.921L156.662 208.589Z" fill="#285173"/>
<path d="M130.718 206.478C130.718 206.478 135.868 222.963 138.473 244.071C141.081 265.182 130.467 363.176 123.35 385.419L95.7645 380.97C95.7645 380.97 101.702 311.705 109.763 299.101C117.824 286.493 120.389 275.342 111.686 249.033C102.987 222.725 115.501 209.693 115.501 209.693C115.501 209.693 128.301 206.752 130.718 206.478Z" fill="#285173"/>
<path d="M143.894 314.851C143.894 314.851 142.374 314.858 141.704 314.537C141.704 314.537 140.537 313.86 139.679 313.425C139.405 313.292 139.166 313.178 139.002 313.123C138.32 312.884 136.75 312.571 135.273 311.545C133.796 310.519 128.56 304.455 128.56 304.455L131.031 300.695L132.845 296.845C132.845 296.845 143.839 297.554 145.327 298.349C145.472 298.432 145.613 298.514 145.739 298.6C146.933 299.395 147.485 300.492 148.065 300.981C148.277 301.162 150.262 303.1 150.192 303.927C150.098 305.074 149.565 305.83 148.876 306.21C148.876 306.21 148.59 308.447 147.485 309.489C147.485 309.489 147.29 311.56 145.551 312.469C145.551 312.469 145.116 314.549 143.894 314.851Z" fill="#EEA886"/>
<path d="M121.231 209.764C121.231 209.764 111.075 206.858 105.255 218.048C99.4345 229.238 99.462 234.012 98.6865 239.48C97.9501 244.639 94.6365 258.727 94.2997 260.18C93.9668 261.637 86.4583 278.985 89.9011 285.048C93.3596 291.142 128.513 309.085 128.289 310.428C128.066 311.768 134.376 296.865 134.376 296.865C134.376 296.865 120.154 288.933 117.824 286.493C114.04 282.529 106.058 278.256 107.699 273.337C109.622 267.56 115.411 248.066 116.754 245.21C118.098 242.359 129.789 213.402 121.231 209.764Z" fill="#285173"/>
<path d="M154.445 152.034C154.445 152.034 172.525 157.718 162.71 188.919C152.894 220.123 128.203 185.303 130.784 166.291C133.369 147.283 154.445 152.034 154.445 152.034Z" fill="#EEA987"/>
<path d="M164.559 170.239C164.559 170.239 155.574 179.056 140.541 180.16C140.541 180.16 134.76 186.936 134.317 189.596C134.317 189.596 120.902 166.73 137.392 153.021C153.881 139.312 170.622 164.591 164.559 170.239Z" fill="#0E2D3D"/>
<path d="M140.721 180.779C140.604 178.507 139.205 173.341 135.829 174.786C132.453 176.236 136.037 186.76 138.277 186.11C138.277 186.11 140.995 186.153 140.721 180.779Z" fill="#EEA987"/>
<path d="M152.675 201.319C152.569 202.506 152.452 203.814 152.346 205.157C152.346 205.157 144.364 204.679 139.029 192.808C139.378 193.329 145.225 201.918 152.675 201.319Z" fill="#A77860"/>
<path d="M559.214 305.8H539.614V266H500.014V246.6H539.614V206.8H559.214V246.6H599.014V266H559.214V305.8Z" fill="#F70263"/>
<path d="M1099.01 246.2H1000.01V226.8H1099.01V246.2ZM1099.01 291.8H1000.01V272.4H1099.01V291.8Z" fill="#F70263"/>
</svg>
