<svg width="365" height="312" viewBox="0 0 365 312" fill="none" xmlns="http://www.w3.org/2000/svg">
<path d="M296.978 312C249.398 311.998 219.767 279.037 213.15 279.037C126.725 279.037 111.975 273.982 109.315 265.169C105.447 252.356 153.894 248.502 204.642 248.502C255.215 248.502 308.07 252.332 313.659 254.936C324.856 260.153 357.68 307.491 305.254 311.669C302.437 311.895 299.682 312 296.978 312" fill="url(#paint0_linear)"/>
<path d="M73.4139 229.494H326.135C333.146 229.494 338.827 223.806 338.827 216.789V73.2684C338.827 66.2513 333.146 60.5627 326.135 60.5627H73.4139C66.4056 60.5627 60.7241 66.2513 60.7241 73.2684V216.789C60.7241 223.806 66.4056 229.494 73.4139 229.494" fill="black"/>
<path d="M76.4192 208.906H323.128C326.067 208.906 328.449 206.521 328.449 203.579V73.7244C328.449 70.7825 326.067 68.3975 323.128 68.3975H76.4192C73.481 68.3975 71.0989 70.7825 71.0989 73.7244V203.579C71.0989 206.521 73.481 208.906 76.4192 208.906Z" fill="#993FD1"/>
<path d="M206.366 220.029C206.366 223.672 203.417 226.627 199.776 226.627C196.132 226.627 193.183 223.672 193.183 220.029C193.183 216.383 196.132 213.428 199.776 213.428C203.417 213.428 206.366 216.383 206.366 220.029Z" fill="#F9D6EB"/>
<path d="M308.391 112.738H186.04C182.384 112.738 179.422 115.706 179.422 119.367V186.263C179.422 189.924 182.384 192.89 186.04 192.89H308.391C312.048 192.89 315.01 189.924 315.01 186.263V119.367C315.01 115.706 312.048 112.738 308.391 112.738Z" fill="#FFB800"/>
<path d="M240.155 135.833H300.865C303.153 135.833 305.005 133.976 305.005 131.687V128.272C305.005 125.981 303.153 124.126 300.865 124.126H240.155C237.869 124.126 236.015 125.981 236.015 128.272V131.687C236.015 133.976 237.869 135.833 240.155 135.833Z" fill="white"/>
<path d="M240.155 151.05H300.865C303.153 151.05 305.005 149.193 305.005 146.905V144.645C305.005 142.356 303.153 140.499 300.865 140.499H240.155C237.869 140.499 236.015 142.356 236.015 144.645V146.905C236.015 149.193 237.869 151.05 240.155 151.05Z" fill="white"/>
<path d="M240.155 166.003H300.865C303.153 166.003 305.005 164.148 305.005 161.86V159.6C305.005 157.309 303.153 155.454 300.865 155.454H240.155C237.869 155.454 236.015 157.309 236.015 159.6V161.86C236.015 164.148 237.869 166.003 240.155 166.003Z" fill="white"/>
<path d="M240.155 180.958H300.865C303.153 180.958 305.005 179.101 305.005 176.813V174.553C305.005 172.264 303.153 170.407 300.865 170.407H240.155C237.869 170.407 236.015 172.264 236.015 174.553V176.813C236.015 179.101 237.869 180.958 240.155 180.958Z" fill="white"/>
<path d="M92.2595 168.114H214.613C218.269 168.114 221.231 165.146 221.231 161.485V94.587C221.231 90.9283 218.269 87.9601 214.613 87.9601H92.2595C88.6031 87.9601 85.6409 90.9283 85.6409 94.587V161.485C85.6409 165.146 88.6031 168.114 92.2595 168.114Z" fill="#FFC840"/>
<path d="M163.818 132.671H203.565C205.851 132.671 207.705 130.817 207.705 128.526V126.268C207.705 123.977 205.851 122.123 203.565 122.123H163.818C161.533 122.123 159.678 123.977 159.678 126.268V128.526C159.678 130.817 161.533 132.671 163.818 132.671Z" fill="white"/>
<path d="M163.818 147.624H203.565C205.851 147.624 207.705 145.769 207.705 143.481V141.221C207.705 138.932 205.851 137.075 203.565 137.075H163.818C161.533 137.075 159.678 138.932 159.678 141.221V143.481C159.678 145.769 161.533 147.624 163.818 147.624Z" fill="white"/>
<path d="M163.818 162.579H203.565C205.851 162.579 207.705 160.722 207.705 158.434V156.174C207.705 153.885 205.851 152.03 203.565 152.03H163.818C161.533 152.03 159.678 153.885 159.678 156.174V158.434C159.678 160.722 161.533 162.579 163.818 162.579Z" fill="white"/>
<path d="M100.009 132.671H139.755C142.041 132.671 143.895 130.817 143.895 128.526V126.268C143.895 123.977 142.041 122.123 139.755 122.123H100.009C97.7228 122.123 95.8706 123.977 95.8706 126.268V128.526C95.8706 130.817 97.7228 132.671 100.009 132.671Z" fill="white"/>
<path d="M100.009 147.624H139.755C142.041 147.624 143.895 145.769 143.895 143.481V141.221C143.895 138.932 142.041 137.075 139.755 137.075H100.009C97.7228 137.075 95.8706 138.932 95.8706 141.221V143.481C95.8706 145.769 97.7228 147.624 100.009 147.624Z" fill="white"/>
<path d="M100.009 162.579H139.755C142.041 162.579 143.895 160.722 143.895 158.434V156.174C143.895 153.885 142.041 152.03 139.755 152.03H100.009C97.7228 152.03 95.8706 153.885 95.8706 156.174V158.434C95.8706 160.722 97.7228 162.579 100.009 162.579Z" fill="white"/>
<path d="M165.874 248.331H233.673V229.494H165.874V248.331Z" fill="black"/>
<path d="M133.971 266.609H265.578C268.632 266.609 271.106 264.132 271.106 261.077V257.729C271.106 249.787 264.674 243.346 256.739 243.346H142.809C134.875 243.346 128.442 249.787 128.442 257.729V261.077C128.442 264.132 130.916 266.609 133.971 266.609Z" fill="black"/>
<path d="M188.373 208.906H173.391C170.645 204.554 167.865 200.222 165.001 195.943C158.722 186.563 152.311 177.275 145.723 168.114H160.775C164.184 172.851 167.543 177.628 170.847 182.442C176.797 191.116 182.718 199.933 188.373 208.906Z" fill="#A658D7"/>
<path d="M160.776 168.114H145.724C144.307 166.143 142.882 164.177 141.448 162.217C142.89 161.57 143.895 160.119 143.895 158.433V156.173C143.895 153.885 142.041 152.03 139.755 152.03H133.868C132.753 150.557 131.632 149.088 130.509 147.624H139.755C141.489 147.624 142.974 146.559 143.591 145.046C149.441 152.642 155.175 160.33 160.776 168.114" fill="#FFCF59"/>
<path d="M140.874 87.9604H125.077C118.748 81.6471 112.547 75.1758 106.835 68.3977H119.814C127.032 74.6892 133.949 81.3993 140.874 87.9604Z" fill="#A658D7"/>
<path d="M137.666 137.075H122.803C122.185 135.742 121.833 134.302 121.944 132.671H139.755C142.041 132.671 143.895 130.817 143.895 128.526V126.268C143.895 125.104 143.416 124.052 142.645 123.298C145.507 123.153 148.371 123.008 151.234 122.853C152.808 122.767 157.918 122.866 158.873 121.213C158.853 121.246 158.829 121.261 158.801 121.261C158.602 121.261 158.188 120.472 157.658 119.86C156.189 118.166 154.398 116.653 152.795 115.086C149.29 111.659 145.77 108.242 142.275 104.805C136.618 99.2409 130.794 93.6641 125.077 87.9601H140.874C142.665 89.6568 144.456 91.3448 146.253 93.013C152.824 99.1072 159.637 105.199 165.787 111.721C168.581 114.685 170.409 118.44 170.315 122.123H163.819C161.533 122.123 159.679 123.977 159.679 126.268V128.526C159.679 130.332 160.83 131.867 162.44 132.437C157.914 134.39 152.513 134.48 147.727 134.767C144.587 134.953 140.681 135.738 137.251 135.738C137.075 135.738 136.9 135.736 136.729 135.731C137.049 136.163 137.362 136.621 137.666 137.075" fill="#FFCF59"/>
<path d="M162.439 132.437C160.83 131.867 159.678 130.332 159.678 128.526V126.268C159.678 123.977 161.533 122.123 163.818 122.123H170.314C170.251 124.666 169.268 127.176 167.057 129.366C165.69 130.72 164.125 131.707 162.439 132.437Z" fill="white"/>
<path d="M139.755 132.671H121.944C121.951 132.588 121.957 132.505 121.966 132.419C122.748 124.304 131.851 123.852 138.087 123.53C139.606 123.451 141.126 123.374 142.645 123.298C143.416 124.052 143.896 125.104 143.896 126.268V128.526C143.896 130.817 142.041 132.671 139.755 132.671Z" fill="white"/>
<path d="M139.755 147.624H130.509C129.248 145.984 127.982 144.349 126.71 142.72C125.272 140.879 123.735 139.099 122.802 137.075H137.666C138.34 138.088 138.96 139.083 139.472 139.737C140.849 141.501 142.224 143.273 143.59 145.046C142.973 146.559 141.489 147.624 139.755 147.624Z" fill="white"/>
<path d="M141.447 162.217C139.08 158.982 136.689 155.766 134.272 152.565C134.136 152.385 134 152.208 133.867 152.03H139.754C142.04 152.03 143.894 153.885 143.894 156.174V158.434C143.894 160.119 142.889 161.571 141.447 162.217" fill="white"/>
<path d="M300.911 208.906H221.694C217.331 203.679 212.869 198.267 208.512 192.89H284.815C290.26 198.245 295.738 203.673 300.911 208.906V208.906ZM265.57 112.738H221.232V94.5871C221.232 90.9284 218.27 87.9602 214.614 87.9602H178.904C171.303 81.1448 163.743 74.3689 157.172 68.3975H224.142L224.394 68.6671C242.861 86.7677 256.284 101.416 265.57 112.738" fill="#A658D7"/>
<path d="M284.814 192.89H208.511C201.496 184.233 194.752 175.67 189.108 168.114H214.613C218.269 168.114 221.231 165.146 221.231 161.485V130.961C222.335 130.42 222.913 129.868 222.814 129.298C222.753 128.949 222.201 128.204 221.231 127.123V112.738H265.569C269.068 117.004 271.977 120.796 274.348 124.126H240.154C237.868 124.126 236.014 125.981 236.014 128.272V131.687C236.014 133.976 237.868 135.832 240.154 135.832H281.473C282.392 137.876 282.808 139.428 282.773 140.5H240.154C237.868 140.5 236.014 142.356 236.014 144.645V146.905C236.014 149.194 237.868 151.05 240.154 151.05H243.18C244.03 152.142 245.35 153.635 247.053 155.454H240.154C237.868 155.454 236.014 157.309 236.014 159.6V161.86C236.014 164.148 237.868 166.003 240.154 166.003H257.409C258.828 167.413 260.319 168.883 261.864 170.407H240.154C237.868 170.407 236.014 172.264 236.014 174.552V176.812C236.014 179.101 237.868 180.958 240.154 180.958H272.632C276.58 184.816 280.689 188.832 284.814 192.89" fill="#FFC121"/>
<path d="M281.473 135.833H240.155C237.869 135.833 236.015 133.976 236.015 131.687V128.272C236.015 125.981 237.869 124.126 240.155 124.126H274.349C277.843 129.03 280.168 132.928 281.473 135.833" fill="white"/>
<path d="M243.181 151.05H240.155C237.869 151.05 236.015 149.193 236.015 146.905V144.645C236.015 142.356 237.869 140.499 240.155 140.499H282.774C282.763 140.881 282.695 141.201 282.572 141.46C280.398 146.067 243.231 145.011 242.095 149.095C242.016 149.375 242.399 150.044 243.181 151.05" fill="white"/>
<path d="M257.41 166.003H240.155C237.869 166.003 236.015 164.148 236.015 161.86V159.6C236.015 157.309 237.869 155.454 240.155 155.454H247.054C249.69 158.267 253.245 161.866 257.41 166.003Z" fill="white"/>
<path d="M272.633 180.958H240.155C237.869 180.958 236.015 179.101 236.015 176.813V174.553C236.015 172.264 237.869 170.407 240.155 170.407H261.865C265.224 173.713 268.854 177.262 272.633 180.958" fill="white"/>
<path d="M214.613 168.114H189.108C187.681 166.2 186.319 164.348 185.047 162.579H203.565C205.851 162.579 207.705 160.722 207.705 158.433V156.173C207.705 153.885 205.851 152.03 203.565 152.03H177.892C176.872 150.379 176.026 148.902 175.381 147.624H203.565C205.851 147.624 207.705 145.769 207.705 143.481V141.221C207.705 138.932 205.851 137.075 203.565 137.075H193.743C204.745 135.012 216.944 133.07 221.231 130.961V161.485C221.231 165.146 218.269 168.114 214.613 168.114V168.114ZM221.231 127.123C215.793 121.053 197.233 104.397 178.903 87.9601H214.613C218.269 87.9601 221.231 90.9283 221.231 94.587V112.738V127.123Z" fill="#FFCF59"/>
<path d="M203.566 147.624H175.382C173.972 144.831 173.521 142.996 174.296 142.413C176.906 140.458 184.943 138.728 193.744 137.075H203.566C205.852 137.075 207.706 138.932 207.706 141.221V143.481C207.706 145.769 205.852 147.624 203.566 147.624Z" fill="white"/>
<path d="M203.565 162.579H185.047C182.183 158.605 179.748 155.031 177.892 152.03H203.565C205.85 152.03 207.705 153.885 207.705 156.174V158.434C207.705 160.722 205.85 162.579 203.565 162.579Z" fill="white"/>
<path d="M315.569 51.9102C315.56 56.0468 315.157 62.0358 313.607 65.1333C312.055 68.233 305.837 71.3897 305.837 71.3897L302.566 56.3055L315.569 51.9102" fill="black"/>
<path d="M313.189 278.41C309.955 288.189 310.31 294.169 313.885 297.988C317.46 301.807 325.432 290.554 323.087 285.482C320.742 280.409 318.297 272.224 318.297 272.224L313.189 278.41" fill="black"/>
<path d="M275.995 285.177C266.443 288.706 257.107 291.392 258.425 294.106C259.741 296.817 277.624 296.096 280.521 293.663C283.42 291.23 282.544 281.698 282.544 281.698L275.995 285.177Z" fill="black"/>
<path d="M291.086 77.7778C272.02 82.3265 257.187 112.859 253.649 119.115C249.215 126.959 247.775 138.283 252.907 138.985C258.039 139.686 285.091 110.084 287.905 105.557C290.716 101.028 291.086 77.7778 291.086 77.7778Z" fill="#2B6299"/>
<path d="M287.266 151.932C277.403 159.006 302.98 229.549 305.02 233.85C307.059 238.153 310.969 283.338 310.969 283.338L324.13 283.333C324.13 283.333 327.725 255.191 327.712 246.448C327.694 236.386 319.825 224.113 319.825 224.113C319.825 224.113 328.43 184.255 323.28 162.382C319.425 146.013 302.978 140.666 287.266 151.932" fill="black"/>
<path d="M280.946 150.525C269.686 155.054 276.876 220.075 275.506 231.2C274.926 235.926 272.119 285.118 272.119 285.118L285.704 286.94C285.704 286.94 292.095 258.558 294.151 250.061C296.517 240.282 293.012 229.81 293.012 229.81C293.012 229.81 313.277 191.698 313.453 169.226C313.586 152.408 298.875 143.31 280.946 150.525" fill="black"/>
<path d="M321.463 157.171C322.665 143.871 321.224 141.345 321.925 132.226C322.625 123.109 320.762 104.802 321.463 98.5766C322.163 92.3509 316.267 72.9021 299.844 75.1469C280.989 77.7227 279.032 86.0682 276.93 102.807C274.828 119.544 273.963 126.393 274.263 140.3C274.347 144.18 277.554 154.452 277.554 154.452C277.554 154.452 284.889 165.235 295.709 166.954C304.326 168.322 321.463 157.171 321.463 157.171Z" fill="#3C93E8"/>
<path d="M312.361 78.7292C302.106 80.0423 306.356 95.3084 314.485 100.107C321.233 104.09 338.862 118.528 345.592 124.286C347.352 119.814 353.524 118.056 357.776 119.981C348.125 105.789 322.406 77.4424 312.361 78.7292" fill="#F4BA8E"/>
<path d="M292.335 83.6222C293.85 85.6433 301.905 81.2174 303.192 79.6149C304.477 78.0147 305.467 73.8035 304.944 69.5946C304.416 65.3878 299.422 65.7386 296.49 66.7909C293.561 67.8409 290.233 80.8162 292.335 83.6222" fill="#EE9956"/>
<path d="M296.554 35.7782C289.473 35.0153 280.799 39.985 280.76 49.7729C280.716 60.852 285.044 76.9336 292.786 76.9095C299.332 76.8876 311.952 72.0276 313.607 57.0793C313.763 55.6654 316.71 53.55 316.095 49.6063C315.409 45.1891 311.23 48.7317 310.987 47.8263C309.132 40.8662 304.817 36.6704 296.554 35.7782Z" fill="#F4BA8E"/>
<path d="M289.598 56.3098C287.034 57.338 283.824 68.4193 285.749 69.5198C287.673 70.6224 290.009 71.1726 290.835 70.4843C291.658 69.7959 290.217 56.0599 289.598 56.3098" fill="#EE9956"/>
<path d="M312.061 77.5387C301.767 76.5873 305.999 96.4263 312.166 103.581C318.835 111.32 338.862 119.595 345.59 125.354C347.35 120.88 358.032 122.362 362.282 124.286C353.419 106.482 324.431 78.6852 312.061 77.5387" fill="#2B6299"/>
<path d="M344.591 122.057C345.147 123.784 345.504 124.964 345.59 125.354C346.019 127.316 326.494 135.962 317.377 143.529C315.855 144.792 319.735 149.536 319.647 149.825C319.039 151.829 359.978 138.345 364.147 128.224C364.537 127.279 360.929 120.586 357.513 115.513C354.905 111.642 348.434 119.172 344.591 122.057" fill="#2B6299"/>
<path d="M319.521 156.632C321.679 155.614 321.559 152.971 321.368 151.701C321.178 150.434 318.559 148.027 318.559 148.027L316.208 150.919L319.521 156.632Z" fill="#EE9956"/>
<path d="M317.378 143.529C314.081 145.664 311.357 147.247 311.046 150.61C310.733 153.968 315.427 156.397 318.396 156.711C321.369 157.024 319.388 154.363 319.491 153.425C319.596 152.486 318.085 150.763 321.849 149.726C324.25 149.066 324.331 139.029 317.378 143.529" fill="#F4BA8E"/>
<path d="M242.223 90.7266C241.444 85.1519 242.276 82.2692 241.691 78.2708C241.496 76.9511 240.704 71.8434 241.463 71.4444C242.219 71.0455 243.09 76.9949 243.401 76.5675C243.681 76.186 242.245 68.3382 242.994 68.051C243.745 67.7638 245.133 75.2106 245.413 74.9497C245.851 74.5441 244.463 66.203 245.148 66.1526C246.267 66.0693 246.681 74.6011 247.176 74.4805C247.506 74.4016 246.679 67.926 247.688 67.6235C248.697 67.3232 249.49 77.4619 249.389 78.5689C249.286 79.676 253.709 73.7352 255.119 75.1207C255.863 75.8507 252.732 80.1648 249.891 82.8392C247.686 84.9174 249.711 87.5436 250.764 91.1168C251.393 93.2541 242.385 92.2677 242.385 92.2677L242.223 90.7266" fill="#F4BA8E"/>
<path d="M242.825 100.885C242.186 90.9265 240.507 86.323 242.041 84.315C243.576 82.307 247.931 81.3052 249.004 85.3541C250.823 92.2089 257.748 115.601 259.027 122.23C260.308 128.859 259.594 138.253 254.024 139.583C244.688 141.534 243.462 110.844 242.825 100.885" fill="#2B6299"/>
<path d="M322.941 284.118L322.389 284.094C322.748 275.111 322.779 266 322.485 257.021C322.31 251.626 322.004 245.916 320.377 240.597C319.613 238.101 318.544 235.641 317.509 233.265C315.86 229.477 314.157 225.557 313.644 221.385C313.178 217.586 313.279 214.329 313.951 211.42C318.084 193.552 319.245 175.335 317.139 161.448L317.684 161.364C319.801 175.32 318.636 193.609 314.489 211.545C313.83 214.388 313.734 217.584 314.192 221.317C314.693 225.41 316.381 229.29 318.014 233.045C319.054 235.435 320.129 237.908 320.904 240.435C322.551 245.819 322.86 251.571 323.037 257.003C323.328 265.996 323.297 275.119 322.941 284.118" fill="white"/>
<path d="M290.772 33.3296C284.825 33.8886 274.134 42.4226 277.554 48.405C280.972 54.3896 292.046 51.2965 295.553 49.4375C298.06 48.1091 303.888 51.4762 307.008 53.5062C308.173 54.2624 309.714 53.9972 310.577 52.9077C312.467 50.5248 315.516 47.1204 316.037 49.2446C316.519 51.2022 313.925 40.1428 311.03 37.8739C308.136 35.6007 297.336 32.7092 290.772 33.3296Z" fill="black"/>
<path d="M193.618 55.5494C196.587 55.5363 199.129 56.4043 201.233 58.1427C203.337 59.8855 204.395 62.5511 204.41 66.1375C204.417 67.6259 204.246 68.7637 203.898 69.5528C203.294 71.3921 201.989 72.9507 199.983 74.2265C197.978 75.5045 195.93 76.1469 193.833 76.1534C190.77 76.1666 188.298 75.2152 186.413 73.2971C184.526 71.3811 183.534 68.7593 183.433 65.4338L183.429 64.5153C183.422 62.8536 183.854 61.5384 184.725 60.5716C186.288 58.2019 188.335 56.6652 190.866 55.9549C191.655 55.6875 192.572 55.5538 193.618 55.5494V55.5494ZM201.264 0.000363748C204.495 -0.0127891 207.009 0.2853 208.806 0.888142C210.597 1.49317 212.679 2.7098 215.046 4.53805C217.323 6.28081 219.079 8.02359 220.31 9.76635C223.033 13.5193 224.406 17.6713 224.423 22.22C224.439 26.0716 223.644 29.5308 222.039 32.5998C220.432 35.6688 217.757 38.4353 214.011 40.8993C211.569 42.5719 209.87 43.9792 208.914 45.1192C207.957 46.2613 207.175 47.7081 206.573 49.4596C206.054 50.9503 205.577 51.8907 205.141 52.2875C204.706 52.6821 203.876 52.8815 202.654 52.8881C201.691 52.8903 199.09 52.6404 194.851 52.1318C190.608 51.6233 188.097 51.2835 187.309 51.1125C186.523 50.9393 185.997 50.593 185.732 50.0668C185.467 49.5429 185.334 49.019 185.332 48.4928C185.329 47.7059 185.888 45.562 187.011 42.0567C188.132 38.5537 189.086 36.3177 189.868 35.3509C190.737 34.211 192.305 33.0667 194.575 31.9202C196.668 30.8614 198.17 29.8727 199.083 28.9477C199.998 28.027 200.539 26.8651 200.708 25.4644L200.839 24.9382L200.837 24.5458C200.828 22.2704 199.687 21.137 197.415 21.1458C195.58 21.1545 193.1 23.395 189.969 27.8691C188.927 29.362 188.143 30.1073 187.62 30.1095L187.225 29.9802L186.831 29.9823C185.172 29.7259 182.058 27.5074 177.5 23.3248C175.919 21.8451 175.129 20.6657 175.125 19.791C175.122 18.9186 175.639 17.5134 176.681 15.5843C178.415 12.3421 181.069 9.28847 184.64 6.4321C188.213 3.57353 191.788 1.6576 195.368 0.679898C197.115 0.234892 199.079 0.0069402 201.264 0.000363748" fill="white"/>
<path d="M352.605 266.344C354.343 265.713 356.014 265.689 357.61 266.268C359.208 266.849 360.386 268.188 361.146 270.288C361.459 271.158 361.597 271.86 361.559 272.395C361.59 273.6 361.152 274.788 360.244 275.955C359.335 277.125 358.267 277.93 357.04 278.375C355.247 279.024 353.599 278.984 352.095 278.254C350.586 277.529 349.456 276.2 348.703 274.271L348.508 273.734C348.158 272.761 348.136 271.901 348.445 271.152C348.865 269.435 349.743 268.105 351.079 267.158C351.484 266.838 351.992 266.566 352.605 266.344V266.344ZM345.472 232.184C347.365 231.5 348.9 231.145 350.078 231.125C351.256 231.103 352.73 231.38 354.499 231.956C356.2 232.5 357.592 233.153 358.678 233.918C361.058 235.545 362.731 237.691 363.692 240.354C364.506 242.608 364.763 244.8 364.465 246.935C364.167 249.072 363.175 251.254 361.496 253.483C360.414 254.976 359.712 256.155 359.39 257.025C359.066 257.896 358.912 258.906 358.926 260.059C358.932 261.042 358.851 261.695 358.678 262.017C358.505 262.339 358.059 262.631 357.345 262.889C356.78 263.093 355.206 263.49 352.614 264.082C350.021 264.674 348.478 265.001 347.981 265.066C347.482 265.13 347.103 265.036 346.836 264.784C346.573 264.531 346.385 264.253 346.275 263.946C346.107 263.484 345.988 262.109 345.914 259.82C345.835 257.532 345.927 256.024 346.185 255.292C346.457 254.441 347.136 253.441 348.226 252.295C349.231 251.236 349.905 250.339 350.249 249.607C350.59 248.875 350.667 248.082 350.472 247.224L350.437 246.891L350.354 246.659C349.872 245.328 348.968 244.903 347.639 245.385C346.564 245.773 345.577 247.608 344.681 250.885C344.381 251.979 344.079 252.58 343.77 252.692L343.514 252.698L343.282 252.782C342.255 252.979 339.967 252.332 336.423 250.835C335.186 250.3 334.476 249.774 334.29 249.263C334.106 248.75 334.117 247.821 334.325 246.47C334.663 244.206 335.58 241.862 337.075 239.438C338.571 237.016 340.267 235.141 342.159 233.819C343.09 233.192 344.193 232.649 345.472 232.184" fill="#9E005D"/>
<path d="M30.2378 102.238C32.9789 101.155 35.6369 101.037 38.2095 101.885C40.7798 102.736 42.7196 104.814 44.0267 108.122C44.5696 109.496 44.8193 110.608 44.7864 111.462C44.8893 113.381 44.2456 115.292 42.8553 117.195C41.4607 119.102 39.799 120.435 37.8635 121.202C35.0392 122.318 32.4118 122.331 29.9794 121.242C27.5448 120.152 25.6816 118.089 24.3899 115.053L24.0571 114.205C23.4506 112.673 23.3762 111.302 23.8316 110.095C24.4228 107.339 25.7583 105.18 27.8426 103.608C28.471 103.078 29.2723 102.622 30.2378 102.238V102.238ZM17.2787 48.1488C20.2585 46.9694 22.6909 46.3359 24.565 46.246C26.4413 46.1583 28.8038 46.5288 31.65 47.3618C34.3824 48.1488 36.6309 49.1243 38.3977 50.2906C42.2664 52.7743 45.0316 56.1151 46.6868 60.3109C48.088 63.8643 48.6026 67.3476 48.226 70.7608C47.8494 74.1784 46.3737 77.7034 43.799 81.3336C42.146 83.7603 41.0841 85.674 40.6112 87.0748C40.1383 88.4756 39.939 90.0956 40.0135 91.9304C40.0704 93.4956 39.9675 94.5391 39.7091 95.0608C39.4486 95.5848 38.7568 96.0692 37.627 96.5142C36.7403 96.8671 34.2466 97.573 30.1459 98.6362C26.0429 99.6994 23.5995 100.296 22.8091 100.418C22.0209 100.546 21.408 100.414 20.9766 100.024C20.541 99.6358 20.23 99.1996 20.0395 98.7151C19.7527 97.9895 19.4965 95.804 19.2688 92.1606C19.0433 88.5173 19.1178 86.1081 19.4922 84.9309C19.8841 83.5652 20.9197 81.9408 22.6033 80.0599C24.1556 78.3259 25.1868 76.8681 25.7013 75.6844C26.2114 74.5028 26.2925 73.2358 25.9444 71.8788L25.8765 71.3461L25.732 70.9822C24.9022 68.8843 23.4418 68.2508 21.3444 69.0795C19.652 69.7503 18.1654 72.7162 16.8889 77.9818C16.4642 79.7399 16.0088 80.711 15.5249 80.9017L15.1156 80.9258L14.7521 81.0683C13.1232 81.4322 9.44936 80.5071 3.72844 78.2909C1.73389 77.4929 0.580105 76.6906 0.260452 75.8817C-0.0570122 75.0772 -0.0854445 73.5931 0.181663 71.4338C0.615166 67.8102 1.96603 64.031 4.23645 60.1004C6.50686 56.1699 9.11878 53.1052 12.0745 50.9087C13.5282 49.8674 15.2623 48.9468 17.2787 48.1488" fill="#9E005D"/>
<path d="M30.9696 187.374C33.0452 187.878 34.6697 188.92 35.8411 190.498C37.0102 192.078 37.2927 194.121 36.684 196.629C36.4322 197.671 36.1169 198.436 35.7404 198.927C35.0003 200.106 33.8225 200.972 32.2001 201.516C30.5799 202.061 29.0386 202.158 27.5717 201.801C25.4348 201.281 23.8716 200.189 22.8842 198.526C21.8946 196.862 21.6516 194.86 22.1551 192.519L22.3106 191.877C22.593 190.717 23.1184 189.871 23.8956 189.347C25.3932 187.962 27.0878 187.24 28.9795 187.181C29.5728 187.131 30.2362 187.194 30.9696 187.374ZM45.8686 149.895C48.1281 150.443 49.8314 151.085 50.983 151.815C52.1303 152.55 53.3739 153.757 54.7138 155.443C56.0056 157.052 56.9295 158.571 57.49 160.003C58.7467 163.094 58.9897 166.231 58.219 169.409C57.5666 172.101 56.4172 174.379 54.7685 176.247C53.1177 178.114 50.7728 179.583 47.7318 180.66C45.7394 181.407 44.3119 182.095 43.4471 182.729C42.5823 183.36 41.7876 184.235 41.0651 185.355C40.4455 186.306 39.9506 186.883 39.5806 187.083C39.2062 187.284 38.591 187.282 37.7371 187.072C37.065 186.909 35.2938 186.285 32.4169 185.197C29.5444 184.112 27.8454 183.441 27.3265 183.185C26.8076 182.931 26.4989 182.595 26.4048 182.183C26.3107 181.773 26.3063 181.383 26.396 181.017C26.5296 180.467 27.2893 179.064 28.6774 176.81C30.0633 174.557 31.1119 173.16 31.8279 172.619C32.6292 171.974 33.921 171.446 35.7032 171.036C37.3474 170.657 38.567 170.225 39.3639 169.738C40.1608 169.252 40.7388 168.533 41.0979 167.583L41.2796 167.239L41.3453 166.965C41.7306 165.376 41.1308 164.385 39.5412 164.001C38.2583 163.688 36.1388 164.826 33.1853 167.412C32.2001 168.274 31.5236 168.66 31.158 168.572L30.904 168.412L30.6303 168.346C29.5115 167.881 27.7228 165.792 25.2575 162.088C24.408 160.779 24.0577 159.821 24.2066 159.209C24.3555 158.598 24.9576 157.708 26.0173 156.539C27.7863 154.573 30.164 152.9 33.1525 151.519C36.1367 150.14 38.9632 149.417 41.6321 149.351C42.9282 149.345 44.3404 149.524 45.8686 149.895" fill="white"/>
<defs>
<linearGradient id="paint0_linear" x1="96.932" y1="-41.8679" x2="368.68" y2="292.771" gradientUnits="userSpaceOnUse">
<stop stop-color="#AB267C"/>
<stop offset="0.0676332" stop-color="#AB267C"/>
<stop offset="0.361324" stop-color="#AB267C"/>
<stop offset="0.989458" stop-color="#C562B8"/>
<stop offset="0.989504" stop-color="#C562B8"/>
<stop offset="1" stop-color="#C562B8"/>
</linearGradient>
</defs>
</svg>
