<svg width="917" height="471" viewBox="0 0 917 471" fill="none" xmlns="http://www.w3.org/2000/svg">
<path d="M121.707 467.636C121.707 467.636 -55.3605 290.457 54.6004 184.52C164.561 78.5832 251.472 216.11 311.576 205.978C387.656 193.152 420.559 0.183009 534.29 0.000511967C663.694 -0.208318 758.676 76.272 708.086 258.412C670.769 392.751 927.262 282.741 889.591 470.249L121.707 467.636Z" fill="#EBF2F9"/>
<path d="M507.907 444.614C483.838 440.738 465.665 449.169 448.192 446.745C434.254 444.813 426.994 430.72 408.266 426.727C412.718 424.101 417.909 420.816 420.39 418.428C425.21 413.787 432.129 404.505 420.39 404.139C411.943 403.876 405.361 417.944 402.337 425.859C399.563 425.627 396.561 425.61 393.29 425.852C397.157 413.395 404.694 389.288 406.538 384.658C409.046 378.355 398.51 357.344 386.09 380.925C377.376 397.463 383.29 416.577 387.6 426.517C384.197 427.065 380.989 427.855 377.92 428.816C367.658 405.402 335.003 338.656 299.61 346.952C261.021 355.991 343.694 400.865 364.543 434.133C347.509 442.026 332.544 451.614 306.673 444.614C237.922 426.004 232.469 467.874 232.469 467.874L539.707 467.977C539.707 467.977 531.979 448.486 507.907 444.614" fill="#ACD29A"/>
<path d="M424.328 293.955C424.642 296.909 428.828 296.802 433.555 296.094C438.282 295.386 437.061 296.628 443.711 296.499C450.357 296.371 452.578 294.101 452.866 293.14C453.126 292.289 449.901 291.684 446.448 290.965C446.014 290.876 445.58 290.78 445.142 290.688C441.251 289.834 438.595 287.03 435.21 284.618C431.999 282.332 429.839 271.858 429.839 271.858L420.388 271.802C420.388 271.802 423.356 281.274 424.905 284.568C425.813 286.506 424.844 288.994 424.538 290.859C424.375 291.873 424.214 292.912 424.328 293.955" fill="#FFB07B"/>
<path d="M433.555 296.094C438.282 295.386 437.061 296.628 443.711 296.499C450.357 296.371 452.578 294.101 452.866 293.14C453.126 292.289 449.901 291.684 446.448 290.966L446.409 291.03C446.409 291.03 442.209 293.467 436.716 293.101C432.242 292.802 427.628 291.09 424.538 290.859C424.375 291.873 424.215 292.912 424.328 293.955C424.642 296.909 428.828 296.802 433.555 296.094" fill="#365DA4"/>
<path d="M350.434 293.485C350.64 296.45 354.823 296.503 359.575 295.973C364.327 295.443 363.06 296.638 369.709 296.759C376.355 296.884 378.658 294.695 378.986 293.749C379.274 292.905 376.077 292.183 372.653 291.332C372.222 291.229 371.792 291.115 371.361 291.005C367.502 290.005 364.954 287.104 361.661 284.566C358.543 282.161 361.109 272.186 361.109 272.186L353.936 268.799C353.936 268.799 352.95 279.08 352.416 284.28C352.199 286.41 351.139 288.549 350.765 290.403C350.562 291.41 350.362 292.439 350.434 293.485" fill="#FFB07B"/>
<path d="M359.575 295.973C364.327 295.443 363.06 296.638 369.709 296.759C376.355 296.884 378.658 294.695 378.986 293.749C379.274 292.905 376.077 292.183 372.653 291.332L372.614 291.396C372.614 291.396 368.321 293.674 362.846 293.097C358.386 292.631 353.84 290.748 350.765 290.403C350.562 291.41 350.362 292.439 350.434 293.485C350.64 296.45 354.823 296.503 359.575 295.973" fill="#365DA4"/>
<path d="M366.545 145.438C366.545 145.438 364.558 155.054 362.568 203.825C362.568 203.825 358.877 212.855 356.2 223.896C353.523 234.937 351.637 281.009 351.637 281.009C351.637 281.009 352.705 282.547 355.944 282.741C358.589 282.9 360.65 281.74 360.65 281.74C360.65 281.74 379.256 221.398 388.312 197.971C397.371 174.542 402.679 141.093 402.679 141.093L366.545 145.438Z" fill="#2B478B"/>
<path d="M388.924 149.556C388.924 149.556 390.391 159.264 405.413 205.707C405.413 205.707 405.078 215.455 406.392 226.74C407.705 238.025 422.912 282.456 422.912 282.456C422.912 282.456 424.93 283.158 427.96 282.358C430.775 281.615 432.986 279.921 432.986 279.921C432.986 279.921 427.155 216.416 427.539 191.303C427.924 166.19 421.317 132.971 421.317 132.971L388.924 149.556" fill="#2B478B"/>
<path d="M415.529 15.0534C413.172 13.5552 410.278 13.2598 408.239 13.2776C408.79 12.7651 409.83 12.6192 409.83 12.6192C408.577 12.3665 405.704 13.4768 405.704 13.4768C388.522 5.85028 384.474 31.5059 384.545 37.5167C384.61 43.5276 384.311 50.4281 375.294 55.3642C357.556 65.0798 371.154 84.2655 371.154 84.2655C367.961 93.4259 379.783 104.647 379.783 104.647C379.58 99.7819 401.917 68.7917 413.959 61.7203C417.006 57.6846 418.384 50.3569 418.487 49.7769C417.704 55.6062 416.54 58.8377 415.554 60.642C425.88 52.051 421.769 19.0215 415.529 15.0534" fill="#C65447"/>
<path d="M411.784 58.3999C411.845 58.4284 406.153 61.3858 401.867 60.2149C397.837 59.1152 395.203 53.8909 395.26 53.8802C396.965 53.5421 397.46 51.1969 397.421 41.1218L398.193 41.2749L410.698 43.7518L411.165 43.8408C411.165 43.8408 410.869 47.9227 410.859 51.7698C410.855 52.5812 410.869 53.382 410.898 54.1329C410.983 56.3643 411.232 58.1401 411.784 58.3999" fill="#FFB07B"/>
<path d="M410.859 51.7699C410.856 52.5813 410.87 53.382 410.898 54.1329C403.626 53.8411 399.433 45.5241 397.849 41.8763L410.699 43.7518L411.165 43.8408C411.165 43.8408 410.87 47.9228 410.859 51.7699Z" fill="#EA8E50"/>
<path d="M396.855 39.8621C396.855 39.8621 393.049 33.8548 392.138 28.7158C391.483 25.0467 393.352 11.452 407.021 13.4093C407.021 13.4093 410.99 13.8008 414.721 16.3205C417.689 18.3241 421.972 22.648 417.18 34.5132L415.938 38.5204L396.855 39.8621Z" fill="#C65447"/>
<path d="M411.93 49.8837C411.93 49.8837 394.901 47.6345 396.467 37.0541C398.033 26.4737 396.887 19.0572 407.826 20.0465C418.765 21.0359 420.274 25.3847 420.612 29.0432C420.947 32.7017 416.398 50.1968 411.93 49.8837" fill="#FFB07B"/>
<path d="M415.6 20.9397C415.6 20.9397 409.1 32.6589 401.689 33.4276C394.277 34.1999 391.469 31.8262 391.469 31.8262C391.469 31.8262 397.591 28.2958 399.859 20.8757C399.859 20.8757 412.973 14.5125 415.6 20.9397" fill="#C65447"/>
<path d="M414.298 21.7761C414.298 21.7761 417.359 25.0644 417.804 27.883C418.249 30.7052 417.804 36.3067 419.449 36.3601C419.449 36.3601 424.208 28.4453 420.983 23.0857C417.562 17.4058 414.298 21.7761 414.298 21.7761" fill="#C65447"/>
<path d="M527.38 165.518C523.806 157.951 513.874 151.692 505.509 151.692C499.33 151.688 493.879 153.798 489.662 157.23C487.246 159.196 483.612 157.899 482.958 154.86L475.631 120.839C474.565 115.88 469.678 112.726 464.714 113.792L346.211 139.291C341.362 140.335 338.278 145.109 339.322 149.957L364.797 268.304C365.529 271.69 368.012 274.243 371.088 275.224L369.531 275.665H374.135L374.172 275.658C374.733 275.642 375.302 275.577 375.874 275.455L378.453 274.9L408.87 268.355C413.139 267.437 414.867 262.275 412.002 258.983C409.23 255.804 407.235 251.867 406.388 247.406C403.995 234.836 411.768 222.386 424.119 219.04C437.86 215.318 451.735 223.893 454.693 237.628C455.804 242.795 455.209 247.932 453.284 252.451C452.538 254.207 453.154 256.03 454.436 257.069L452.664 257.934L456.777 257.932V257.931C457.082 257.939 457.398 257.913 457.725 257.843L494.039 250.029C499.007 248.96 502.161 244.072 501.095 239.109L493.816 205.301C493.143 202.172 495.997 199.43 499.096 200.226C502.682 201.147 506.531 201.271 510.392 200.44C525.589 197.17 534.474 180.542 527.38 165.518" fill="#D86713"/>
<path d="M501.322 151.694C495.141 151.69 489.691 153.797 485.473 157.231C483.063 159.198 479.425 157.903 478.768 154.863L471.447 120.845C470.381 115.883 465.491 112.729 460.528 113.795L342.026 139.294C337.177 140.338 334.092 145.112 335.136 149.956L360.612 268.305C361.697 273.337 366.653 276.539 371.686 275.456L404.683 268.356C408.952 267.438 410.683 262.276 407.816 258.984C405.044 255.805 403.052 251.868 402.203 247.407C399.808 234.838 407.579 222.387 419.934 219.041C433.676 215.319 447.55 223.895 450.506 237.629C451.62 242.797 451.022 247.933 449.096 252.452C447.845 255.388 450.417 258.515 453.539 257.844L489.853 250.03C494.816 248.962 497.975 244.073 496.905 239.111L489.632 205.302C488.953 202.173 491.809 199.431 494.908 200.228C498.495 201.149 502.34 201.273 506.207 200.442C521.403 197.172 530.285 180.544 523.189 165.521C519.617 157.954 509.687 151.694 501.322 151.694" fill="#F1A34F"/>
<path d="M457.96 106.7C457.96 106.7 465.354 107.91 467.29 112.715C469.227 117.523 466.521 120.775 465.482 120.765C464.443 120.754 462.446 119.985 461.513 117.491C460.577 114.999 457.96 106.7 457.96 106.7" fill="#FFB07B"/>
<path d="M356.2 128.142C356.2 128.142 364.497 128.131 367.484 133.036C370.467 137.94 368.1 141.986 366.961 142.16C365.821 142.335 363.501 141.854 362.03 139.299C360.56 136.744 356.2 128.142 356.2 128.142Z" fill="#FFB07B"/>
<path d="M458.167 112.277C457.433 112.12 454.215 111.743 450.125 111.099C442.59 109.917 432.089 107.836 428.565 104.586C427.611 103.704 425.386 98.8495 423.076 93.2835C420.74 105.604 420.609 115.056 421.228 122.252L370.311 133.206C374.675 124.384 381.435 113.441 380.167 104.586C379.698 101.305 377.896 96.7996 377.224 91.739C377.17 91.3048 377.12 90.8671 377.081 90.4258C369.94 96.305 361.693 102.789 361.493 104.085C361.166 106.259 366.726 130.324 366.726 130.324C365.345 133.502 359.347 132.833 359.347 132.833C353.73 128.822 345.464 106.088 346.126 101.052C346.788 96.0167 367.278 67.3148 372.236 60.4569C377.135 53.6774 395.018 53.8482 395.449 53.8517H395.453C395.456 53.8517 395.456 53.8517 395.46 53.8517C409.681 62.3894 410.962 55.2931 410.962 55.2931C410.962 55.2931 423.795 57.7309 425.998 61.521C428.205 65.3112 437.877 94.0487 438.56 95.0594C439.991 97.1769 463.367 105.643 463.787 108.095C464.211 110.547 460.263 112.722 458.167 112.277" fill="#80BDCC"/>
<path d="M388.063 129.406L370.311 133.206C374.732 124.405 380.541 113.448 379.27 104.647C378.797 101.362 377.729 97.4758 377.216 92.3903C377.166 91.9027 377.081 90.4258 377.081 90.4258C377.081 90.4258 389.654 100.319 389.875 111.024C389.992 116.58 389.02 123.843 388.063 129.406" fill="#5F9AA8"/>
<path d="M450.595 111.163C442.97 109.982 432.338 107.9 428.771 104.65C427.806 103.764 425.553 98.9065 423.214 93.3334C423.214 93.3334 422.396 84.3758 424.738 84.7103C427.08 85.0449 430.526 100.931 432.986 101.935C435.185 102.835 447.352 107.505 450.595 111.163Z" fill="#5F9AA8"/>
<path d="M826.232 452.426C825.158 456.049 820.191 458.462 819.524 462.889C819.199 465.049 818.394 466.725 817.369 467.878H801.918C802.072 467.028 802.75 466.113 804.757 465.676C809.051 464.736 810.666 459.536 810.407 454.707C810.291 452.686 810.346 450.376 810.445 448.379C810.578 445.614 810.804 443.443 810.804 443.443L819.926 441.297L820.886 442.529L821.801 443.714C821.801 443.714 827.302 448.807 826.232 452.426Z" fill="#2C3A64"/>
<path d="M754.287 467.878H723.033C723.738 467.049 724.939 466.248 726.972 465.917C731.782 465.138 740.11 462.348 741.97 456.198C742.031 456.002 742.082 455.8 742.127 455.593C743.602 449.024 754.333 457.608 754.333 457.608C754.333 457.608 754.368 457.871 754.419 458.316C754.607 460.166 755.022 465.184 754.287 467.878Z" fill="#2C3A64"/>
<path d="M728.251 293.792C728.251 293.792 729.879 314.12 731.797 338.555C734.4 371.748 737.525 412.521 737.836 420.243C738.376 433.657 740.522 455.109 740.522 455.109C740.522 455.109 745.612 460.206 755.814 458.059C755.814 458.059 764.897 427.432 767.494 395.029C767.535 394.495 767.571 393.962 767.618 393.428C770.029 360.438 773.782 290.976 773.782 290.976L728.251 293.792" fill="#35488B"/>
<path d="M728.251 293.792C728.251 293.792 729.879 314.12 731.797 338.555L767.494 395.029C767.535 394.495 767.571 393.962 767.618 393.428C770.029 360.438 773.782 290.977 773.782 290.977L728.251 293.792Z" fill="#2C3A64"/>
<path d="M735.695 296.203C735.695 296.203 765.071 369.825 784.383 404.42C803.7 439.019 809.737 448.675 809.737 448.675C809.737 448.675 820.804 444.247 821.806 441.229C821.806 441.229 814.421 374.437 801.487 358.155C794.178 348.956 785.588 321.346 785.188 311.691C784.788 302.036 782.575 282.928 782.575 282.928L735.695 296.203" fill="#35488B"/>
<path d="M750.758 182.566C749.45 174.857 749.409 170.287 749.409 170.287L764.312 158.279C763.762 174.79 774.344 182.73 774.344 182.73C774.344 182.73 754.482 192.504 743.002 188.884C743.002 188.884 745.83 185.272 750.758 182.566" fill="#935C2F"/>
<path d="M745.903 170.013C745.903 170.013 764.864 173.162 766.643 161.327C768.423 149.492 772.07 141.928 760.037 139.417C748.009 136.906 744.972 141.068 743.42 144.873C741.863 148.68 741.019 168.888 745.903 170.013" fill="#A16D3C"/>
<path d="M679.31 194.411L675.272 191.912C675.272 191.912 670.239 184.484 661.643 189.099C661.643 189.099 658.24 191.269 660.524 193.087C662.812 194.905 662.195 193.878 665.359 196.511C668.526 199.143 672.62 200.084 675.267 198.632L678.656 198.312L679.31 194.411" fill="#A16D3C"/>
<path d="M674.522 195.188C675.559 191.935 676.054 191.649 676.054 191.649C676.054 191.649 708.7 195.505 711.778 195.732C714.851 195.96 757.596 187.156 757.596 187.156L777.773 211.656C777.773 211.656 718.273 213.899 710.486 213.169C697.622 211.964 674.283 199.987 674.283 199.987C674.283 199.987 673.705 197.742 674.522 195.188" fill="#D3782F"/>
<path d="M784.812 286.691C784.87 287.955 782.265 289.343 781.13 289.851C772.612 293.67 764.676 296.325 755.711 297.186C745.071 298.279 732.503 295.887 728.191 295.944C727.729 295.944 727.33 295.773 726.988 295.485C726.699 295.254 726.468 282.265 726.699 265.888C726.699 265.256 726.699 264.564 726.757 263.931V263.704C726.773 261.999 726.799 260.265 726.836 258.516C726.941 253.729 727.119 248.816 727.33 243.933C727.639 236.734 728.07 229.659 728.663 223.391C729.283 216.845 730.066 211.176 731.064 207.155C733.364 197.902 738.653 191.809 743.479 187.326L747.444 183.824C751.415 184.627 755.611 184.396 759.807 182.329C764.35 180.087 769.292 177.673 770.096 178.248C776.225 182.827 780.348 193.224 782.464 206.436C783.604 213.547 784.155 221.471 784.124 229.747C784.113 232.92 784.014 236.142 783.835 239.393C782.811 256.844 783.861 271.973 784.46 280.766C784.633 283.295 784.775 285.305 784.812 286.691" fill="#E69D43"/>
<path d="M684.02 125.371L564.117 106.332C559.012 105.523 554.225 108.999 553.414 114.096L548.107 147.508C547.859 149.056 548.257 153.405 548.257 153.405L552.576 154.048C552.824 154.102 553.072 154.14 553.325 154.16C554.108 154.223 554.923 154.126 555.738 153.831C559.714 152.392 564.117 151.955 568.595 152.776C581.218 155.09 590.052 166.865 588.703 179.623C587.209 193.815 574.169 203.681 560.253 201.472C555.016 200.64 550.426 198.222 546.899 194.786C546.215 194.119 545.391 193.768 544.562 193.682L540.037 193.003L534.407 233.761C533.606 238.788 537.035 243.51 542.065 244.309L576.318 249.747C579.489 250.25 581.021 253.911 579.152 256.521C576.993 259.538 575.485 263.09 574.862 267.004C572.417 282.393 584.749 296.716 601.373 295.524C609.738 294.926 619.19 287.909 622.221 280.088C624.464 274.313 624.464 268.454 622.778 263.268C621.813 260.304 624.342 257.372 627.424 257.862L661.888 263.334C666.914 264.132 671.64 260.706 672.436 255.681L691.5 135.671C692.277 130.762 688.933 126.151 684.02 125.371" fill="#4A75CB"/>
<path d="M770.533 206.082C770.533 206.082 761.341 248.964 726.835 258.516C726.943 253.73 727.119 248.816 727.331 243.933C727.641 236.735 728.064 229.66 728.658 223.392C729.278 223.074 729.851 222.827 730.383 222.653C742.089 218.793 770.533 206.082 770.533 206.082Z" fill="#D3782F"/>
<path d="M617.785 279.419C620.025 273.644 620.029 267.786 618.343 262.6C617.38 259.635 619.908 256.704 622.991 257.193L657.455 262.665C662.479 263.463 667.201 260.037 667.998 255.013L687.067 135.003C687.844 130.094 684.496 125.482 679.588 124.703L559.679 105.664C554.58 104.855 549.793 108.331 548.982 113.428L543.674 146.84C542.989 151.162 547.19 154.652 551.306 153.162C555.278 151.724 559.688 151.287 564.163 152.108C576.787 154.421 585.616 166.196 584.271 178.955C582.776 193.146 569.732 203.012 555.818 200.803C550.584 199.972 545.997 197.554 542.463 194.117C540.172 191.884 536.316 193.155 535.813 196.316L529.974 233.093C529.177 238.119 532.605 242.842 537.629 243.64L571.884 249.079C575.055 249.582 576.587 253.243 574.72 255.852C572.559 258.87 571.05 262.422 570.431 266.335C567.982 281.724 580.317 296.047 596.937 294.855C605.305 294.257 614.758 287.24 617.785 279.419" fill="#699DEE"/>
<path d="M679.449 222.058L674.517 221.243C674.517 221.243 668.898 213.111 659.103 217.673C659.103 217.673 655.216 219.845 657.786 221.879C660.356 223.913 659.67 222.791 663.229 225.731C666.789 228.671 671.422 229.845 674.429 228.408L678.274 228.208L679.449 222.058" fill="#A16D3C"/>
<path d="M675.682 224.562C675.838 220.935 677.772 220.548 677.772 220.548C677.772 220.548 715.121 218.078 718.341 217.454C721.561 216.829 751.303 192.191 751.303 192.191C751.303 192.191 762.808 181.855 770.869 185.343C777.873 188.373 780.063 194.353 780.419 199.851C780.837 206.404 777.136 212.53 771.188 215.309C757.832 221.546 731.116 233.791 725.032 234.847C711.493 237.198 676.685 229.662 676.685 229.662C676.685 229.662 675.556 227.41 675.682 224.562" fill="#E69D43"/>
<path d="M743.414 144.874C743.414 144.874 735.721 139.169 740.74 130.305C740.74 130.305 746.79 132.312 755.389 130.305C763.993 128.298 771.686 131.141 772.69 134.151C772.69 134.151 776.035 135.49 776.373 140.507C776.706 145.524 766.64 161.328 766.64 161.328C766.64 161.328 764.492 158.653 765.075 156.813C765.662 154.973 767.504 150.876 765.246 150.876C762.989 150.876 762.234 154.221 761.314 152.883C760.398 151.545 762.068 145.942 759.394 145.023C756.715 144.103 746.426 146.566 743.414 144.874" fill="#2C3A64"/>
<path d="M481.859 463.607L447.964 309.749H457.294C459.508 309.749 461.317 307.941 461.317 305.727V300.531C461.317 298.321 459.508 296.514 457.294 296.514H338.939C336.728 296.514 334.92 298.321 334.92 300.531V305.727C334.92 307.941 336.728 309.749 338.939 309.749H350.953L317.058 463.607C316.602 465.675 317.915 467.743 319.977 468.198C322.041 468.657 324.102 467.337 324.558 465.269L358.82 309.749H440.097L474.359 465.269C474.815 467.337 476.876 468.657 478.937 468.198C481.002 467.743 482.315 465.675 481.859 463.607" fill="#C3E0F4"/>
<path d="M706.632 369.384C694.083 357.344 648.92 433.318 648.92 433.318C648.92 433.318 719.176 381.427 706.632 369.384Z" fill="#ACD29A"/>
<path d="M705.124 404.507C694.017 400.065 658.523 437.475 650.528 446.113C644.415 445.301 637.703 444.774 630.351 444.643C574.149 443.639 548.653 469.088 548.653 469.088L705.439 469.622C705.439 469.622 691.549 451.992 652.149 446.337C661.78 441.792 690.252 428.55 700.609 426.005C713.153 422.92 717.668 409.521 705.124 404.507" fill="#ACD29A"/>
<path d="M660.903 328.255H627.061C622.681 328.255 619.897 332.949 622.012 336.779C624.054 340.48 616.863 372.541 601.706 373.378C587.451 374.164 575.66 362.794 575.66 348.708C575.66 343.409 577.33 338.498 580.168 334.476C582.015 331.86 580.155 328.255 576.957 328.255H539.707C534.617 328.255 530.492 332.38 530.492 337.469C530.492 337.469 527.112 377.438 524.242 376.004C521.285 374.527 517.987 373.627 514.503 373.449V373.445H514.467C514.053 373.424 513.634 373.413 513.211 373.413C512.793 373.413 506.661 373.307 506.661 373.307L505.729 422.699L511.055 422.756C516.118 422.603 520.512 422.13 524.424 420.14C527.198 418.724 530.492 420.759 530.492 423.877V458.768C530.492 463.853 534.617 467.978 539.703 467.978H661.245C666.216 467.978 670.246 463.949 670.246 458.978V337.597C670.246 332.437 666.062 328.255 660.903 328.255Z" fill="#D86713"/>
<path d="M501.163 422.122C507.222 423.428 513.007 422.51 517.867 420.033C520.644 418.617 523.94 420.656 523.94 423.774V458.66C523.94 463.75 528.065 467.875 533.151 467.875H654.692C659.665 467.875 663.695 463.846 663.695 458.874V337.493C663.695 332.333 659.512 328.148 654.349 328.148H620.508C616.13 328.148 613.344 332.842 615.463 336.675C617.506 340.376 618.628 344.657 618.52 349.205C618.213 362.031 607.97 372.598 595.152 373.274C580.901 374.021 569.107 362.69 569.107 348.604C569.107 343.305 570.779 338.394 573.62 334.372C575.464 331.756 573.602 328.148 570.405 328.148H533.156C528.065 328.148 523.94 332.276 523.94 337.365V372.039C523.94 375.249 520.563 377.334 517.691 375.9C514.373 374.242 510.626 373.306 506.659 373.306C491.077 373.306 478.864 387.733 482.646 403.958C484.554 412.125 492.962 420.357 501.163 422.122" fill="#F1A34F"/>
<path d="M149.253 468.554L171.097 468.714C171.097 468.714 170.337 463.43 155.633 462.066C149.932 446.237 133.185 403.648 118.642 405.659C104.283 407.649 138.289 446.721 152.124 461.913C150.167 461.917 148.342 462.074 146.658 462.344C143.325 455.71 136.717 446.333 126.112 446.76C114.825 447.216 130.202 457.522 140.788 463.849C135.426 465.771 132.53 468.433 132.53 468.433L149.005 468.554C149.199 468.657 149.304 468.714 149.304 468.714C149.304 468.714 149.287 468.657 149.253 468.554" fill="#ACD29A"/>
<path d="M227.3 292.079L230.532 294.702C230.532 294.702 239.374 291.531 241.369 302.037C241.369 302.037 241.901 306.514 239.064 306.521C236.228 306.532 237.398 306.034 233.382 306.151C229.365 306.268 226.036 304.151 225.448 300.891L223.526 298.129L227.3 292.079" fill="#EA8E50"/>
<path d="M226.934 297.709C229.512 295.019 229.305 293.029 229.305 293.029C229.305 293.029 199.445 268.588 196.417 266.596C194.354 265.24 172.363 245.749 162.084 233.867C156.986 227.973 150.67 230.26 143.444 232.333L137.493 234.04C130.308 236.101 128.439 246.148 134.335 251.03C150.939 264.78 178.561 280.246 183.729 283.496C196.559 291.567 221.673 301.154 221.673 301.154C221.673 301.154 224.72 300.023 226.934 297.709" fill="#1E3D70"/>
<path d="M261.879 447.618C261.879 447.618 269.126 453.045 280.229 450.18C280.229 450.18 289.182 448.137 291.144 452.604C291.144 452.604 277.415 459.575 273.94 461.483C271.322 462.921 268.59 465.188 266.658 466.942C265.129 468.33 262.747 468.141 261.444 466.54C260.84 465.8 260.149 464.914 259.391 463.889C257.275 461.02 252.342 451.757 252.342 451.757L261.879 447.618Z" fill="#233862"/>
<path d="M265.264 445.112C265.264 445.112 260.851 455.283 250.666 453.415C250.666 453.415 229.882 436.254 215.625 418.428C210.995 412.638 207.053 406.777 204.736 401.413C195.282 379.53 169.766 346.892 153.542 330.351L194.132 315.671C194.132 315.671 207.133 341.817 224.432 373.936C236.899 397.075 251.593 423.318 265.264 445.112" fill="#2B478B"/>
<path d="M224.432 373.936L215.625 418.428C210.995 412.638 207.053 406.777 204.736 401.414C195.282 379.53 169.766 346.892 153.542 330.351L194.132 315.671C194.132 315.671 207.133 341.817 224.432 373.936Z" fill="#233862"/>
<path d="M191.147 453.39C191.147 453.39 190.704 461.504 200.546 462.59C200.546 462.59 206.17 462.618 206.186 467.782L177.582 467.875C177.582 467.875 176.751 465.789 176.55 461.326C176.395 457.899 179.873 448.938 179.873 448.938L191.147 453.39" fill="#233862"/>
<path d="M180.818 315.671C180.818 315.671 198.901 335.536 210.379 371.324C216.624 390.794 198.932 439.753 195.483 456.76C195.483 456.76 183.615 457.767 175.5 454.632C175.5 454.632 174.884 419.499 179.63 392.42C182.286 377.267 155.821 360.01 144.257 332.628C136.39 314.002 145.961 314.318 157.722 313.87L180.818 315.671Z" fill="#2B478B"/>
<path d="M159.944 227.046C149.883 232.726 129.287 227.488 129.287 227.488C129.287 227.488 137.651 217.928 133.851 202.531L141.75 206.542L150.235 210.85C150.235 210.85 150.783 213.569 151.165 218.453C151.262 219.711 151.349 221.116 151.409 222.651C156.574 224.217 159.944 227.046 159.944 227.046" fill="#FFB07B"/>
<path d="M196.834 314.646C196.834 316.411 194.797 317.258 194.365 317.343C190.307 318.087 178.977 322.493 168.771 323.504C160.176 324.404 152.197 323.547 143.431 321.788C142.271 321.554 139.545 320.82 139.352 319.71C139.11 318.493 105.54 251.289 131.637 222.42C132.249 221.743 137.401 222.963 142.112 224.081C146.463 225.112 150.453 224.537 154.017 223.108L158.435 225.432C163.86 228.455 174.126 239.193 175.327 247.619C175.938 251.904 178.389 255.077 179.098 258.847C179.361 260.241 179.63 261.603 179.904 262.93C180.439 265.534 180.99 268.011 181.557 270.367C183.091 276.74 184.712 282.226 186.303 286.966C187.996 291.998 189.656 296.183 191.14 299.685C193.064 304.226 194.69 307.621 195.706 310.219C196.423 312.048 196.834 313.482 196.834 314.646" fill="#2A4E96"/>
<path d="M195.706 310.219C148.318 287.896 131.906 245.034 131.906 245.034C131.906 245.034 170.408 259.234 179.905 262.931C180.439 265.534 180.991 268.011 181.557 270.367C183.092 276.74 184.712 282.226 186.303 286.966C187.996 291.998 189.657 296.183 191.14 299.685C193.064 304.226 194.69 307.621 195.706 310.219" fill="#1E3D70"/>
<path d="M329.563 262.745L319.411 230.565C318.425 227.44 315.193 225.961 312.367 226.756L312.359 226.758C312.21 226.801 312.06 226.852 311.915 226.907L308.355 228.096C308.355 228.096 302.78 233.833 298.783 234.99C286.488 238.546 274.818 231.995 270.333 220.011C265.343 206.682 271.132 192.045 284.533 187.82C289.118 186.374 298.142 189.068 298.142 189.068L301.766 187.865C303.734 187.267 305.084 185.144 304.382 182.916L293.208 147.499C291.681 142.655 286.52 139.968 281.676 141.495L248.687 151.897C245.634 152.858 242.637 150.274 243.141 147.114C243.723 143.459 243.487 139.619 242.299 135.851C237.624 121.028 220.235 113.74 205.934 122.206C198.735 126.466 193.428 136.936 194.207 145.264C194.782 151.417 197.39 156.645 201.204 160.52C203.385 162.737 202.435 166.481 199.469 167.414L166.274 177.88C161.434 179.407 158.748 184.567 160.275 189.406L196.733 304.987C198.224 309.713 203.267 312.336 207.996 310.845L323.476 274.436C328.385 272.888 331.112 267.654 329.563 262.745Z" fill="#4A75CB"/>
<path d="M190.694 146.434C191.269 152.588 193.877 157.816 197.692 161.691C199.872 163.908 198.922 167.649 195.956 168.585L162.762 179.051C157.922 180.578 155.236 185.738 156.762 190.577L193.22 306.158C194.711 310.884 199.754 313.507 204.483 312.016L319.963 275.607C324.875 274.059 327.599 268.825 326.05 263.916L315.898 231.736C314.585 227.573 309.284 226.33 306.273 229.493C303.368 232.547 299.63 234.899 295.27 236.161C282.975 239.717 269.849 233.143 265.364 221.159C260.374 207.83 267.619 193.216 281.021 188.991C286.061 187.401 291.233 187.516 295.914 189.011C298.954 189.982 301.83 187.131 300.869 184.087L289.695 148.666C288.168 143.826 283.006 141.139 278.164 142.666L245.174 153.068C242.122 154.029 239.124 151.445 239.628 148.285C240.21 144.63 239.975 140.79 238.786 137.021C234.111 122.199 216.723 114.91 202.422 123.373C195.222 127.637 189.915 138.107 190.694 146.434" fill="#699DEE"/>
<path d="M223.432 297.282L227.527 298.784C227.527 298.784 235.728 292.987 240.833 302.414C240.833 302.414 242.68 306.532 239.757 307.425C236.833 308.322 237.896 307.478 233.787 308.849C229.679 310.215 225.631 309.229 224.079 306.297L221.296 304.254L223.432 297.282" fill="#FFB07B"/>
<path d="M226.802 303.072C228.316 299.122 229.008 297.332 229.008 297.332C229.008 297.332 198.065 272.117 194.913 269.954C192.764 268.481 171.375 252.497 160.947 240.04C155.774 233.861 147.618 231.036 139.73 232.69L133.235 234.052C125.392 235.696 122.843 245.621 128.927 250.836C146.063 265.523 174.964 282.557 180.353 286.1C193.731 294.894 223.32 307.218 223.32 307.218C223.32 307.218 225.614 306.172 226.802 303.072Z" fill="#2A4E96"/>
<path d="M151.166 218.453C141.273 219.009 134.839 210.842 134.839 210.842C134.839 210.842 139.312 208.365 141.751 206.542L150.236 210.85C150.236 210.85 150.784 213.569 151.166 218.453" fill="#EA8E50"/>
<path d="M155.38 208.298C155.38 208.298 140.39 219.053 133.834 209.617C127.279 200.181 120.929 195.214 130.223 187.948C139.517 180.681 143.897 182.978 146.852 185.595C149.806 188.213 159.11 205.257 155.38 208.298" fill="#FFB07B"/>
<path d="M148.435 177.072C147.898 173.446 146.689 170.894 146.689 170.894C146.689 170.894 145.748 174.791 138.626 174.254C131.505 173.716 120.218 174.951 116.456 183.066C116.216 183.582 116.003 184.114 115.814 184.657C115.132 182.859 114.968 180.161 114.968 180.161C113.615 183.656 114.968 188.025 114.968 188.025H114.969C114.949 188.152 114.932 188.28 114.913 188.407C113.342 189.736 112.021 193.865 112.021 193.865C112.496 192.714 113.653 191.962 114.684 191.499C114.652 197.812 117.213 203.984 121.707 205.821C128.28 208.508 128.228 206.459 134.838 210.842C134.838 210.842 136.611 208.643 135.402 207.165C134.192 205.687 129.624 203.538 132.177 201.388C134.73 199.239 135.67 201.657 136.611 200.179C137.552 198.701 132.849 194.403 138.895 190.373C144.942 186.343 148.973 180.699 148.435 177.072" fill="#233862"/>
<path d="M534.329 467.931C534.329 467.931 526.747 456.728 514.885 457.632C511.278 457.906 505.42 458.785 498.614 459.721C493.48 441.813 479.334 399.249 460.251 396.85C440.766 394.405 478.899 441.742 494.494 460.276C491.652 460.65 488.695 461.016 485.716 461.34C477.458 452.525 463.07 439.468 451.056 440.471C439.016 441.478 461.562 453.927 477.84 462.07C467.851 462.817 458.382 462.735 452.598 460.5C438.426 455.023 425.401 467.931 425.401 467.931H534.329" fill="#82B378"/>
<path d="M915.567 470.306H1.0387C0.467837 470.306 0 469.839 0 469.266V468.914C0 468.341 0.467837 467.875 1.0387 467.875H915.567C916.137 467.875 916.61 468.341 916.61 468.914V469.266C916.61 469.839 916.137 470.306 915.567 470.306Z" fill="#2E3552"/>
</svg>
